<svg xmlns="http://www.w3.org/2000/svg" width="42" height="48" viewBox="0 0 42 48">
  <g id="brochure" transform="translate(-32)">
    <path id="Trazado_106513" data-name="Trazado 106513" d="M70.4,0H48.659a3.6,3.6,0,0,0-3.6,3.6V7.542H35.593A3.6,3.6,0,0,0,32,11.139V44.4A3.6,3.6,0,0,0,35.593,48H59.531a1.406,1.406,0,0,0,1.406-1.406V40.458H70.4a3.6,3.6,0,0,0,3.6-3.6V3.6A3.6,3.6,0,0,0,70.4,0ZM34.812,44.4V11.139a.784.784,0,0,1,.781-.784h9.469v28.7a1.406,1.406,0,0,0,.726,1.231l8.495,4.9H35.593A.784.784,0,0,1,34.812,44.4Zm23.313-.245-6.408-3.7h6.408Zm13.062-7.3a.785.785,0,0,1-.784.784H47.875V3.6a.785.785,0,0,1,.784-.784H70.4a.785.785,0,0,1,.784.784Z" transform="translate(0)" fill="#111e61"/>
    <path id="Trazado_106514" data-name="Trazado 106514" d="M239.489,50h-16.75a1.406,1.406,0,0,0-1.406,1.406v7.968a1.406,1.406,0,0,0,1.406,1.406h16.75a1.406,1.406,0,0,0,1.406-1.406V51.406A1.406,1.406,0,0,0,239.489,50Zm-1.406,7.968H224.145V52.813h13.938Z" transform="translate(-171.583 -45.313)" fill="#111e61"/>
    <path id="Trazado_106515" data-name="Trazado 106515" d="M239.489,194.991h-16.75a1.406,1.406,0,0,0,0,2.813h16.75a1.406,1.406,0,0,0,0-2.812Z" transform="translate(-171.583 -176.711)" fill="#111e61"/>
    <path id="Trazado_106516" data-name="Trazado 106516" d="M222.739,247.8h13a1.406,1.406,0,0,0,0-2.812h-13a1.406,1.406,0,0,0,0,2.813Z" transform="translate(-171.583 -222.023)" fill="#111e61"/>
    <path id="Trazado_106517" data-name="Trazado 106517" d="M237.366,294.991H222.739a1.406,1.406,0,0,0,0,2.813h14.627a1.406,1.406,0,1,0,0-2.812Z" transform="translate(-171.583 -267.336)" fill="#111e61"/>
    <path id="Trazado_106518" data-name="Trazado 106518" d="M226.921,344.991h-4.181a1.406,1.406,0,0,0,0,2.813h4.181a1.406,1.406,0,0,0,0-2.812Z" transform="translate(-171.583 -312.648)" fill="#111e61"/>
  </g>
</svg>
