<svg xmlns="http://www.w3.org/2000/svg" width="954.25" height="877.744" viewBox="0 0 954.25 877.744">
  <g id="Grupo_61479" data-name="Grupo 61479" transform="translate(-335.75 -8024)">
    <path id="Trazado_109316" data-name="Trazado 109316" d="M33.68,17H24.908V15.26l4.14-4.412a10.212,10.212,0,0,0,1.261-1.626A2.612,2.612,0,0,0,30.718,7.9a1.955,1.955,0,0,0-.431-1.34,1.555,1.555,0,0,0-1.23-.488,1.677,1.677,0,0,0-1.358.593,2.35,2.35,0,0,0-.5,1.56H24.653a4.2,4.2,0,0,1,.558-2.136,3.934,3.934,0,0,1,1.578-1.516A4.8,4.8,0,0,1,29.1,4.027a4.54,4.54,0,0,1,3.072.949,3.358,3.358,0,0,1,1.094,2.681,4.3,4.3,0,0,1-.492,1.934,10.745,10.745,0,0,1-1.687,2.294l-2.909,3.067h5.5Zm1.793-1.248a1.279,1.279,0,0,1,.409-.984,1.588,1.588,0,0,1,2.057,0,1.279,1.279,0,0,1,.409.984,1.261,1.261,0,0,1-.4.971,1.614,1.614,0,0,1-2.065,0A1.261,1.261,0,0,1,35.473,15.752Zm14.484-3.437h-2.1V17H45.22V4.2h4.755a5.375,5.375,0,0,1,3.5,1.011A3.488,3.488,0,0,1,54.7,8.07a3.937,3.937,0,0,1-.567,2.184,3.866,3.866,0,0,1-1.718,1.393l2.769,5.229V17h-2.83Zm-2.1-2.136h2.127a2.178,2.178,0,0,0,1.538-.505,1.806,1.806,0,0,0,.545-1.393,1.933,1.933,0,0,0-.514-1.424,2.137,2.137,0,0,0-1.578-.519H47.856Zm13.061,7a4.668,4.668,0,0,1-3.406-1.283A4.561,4.561,0,0,1,56.2,12.474v-.246a5.745,5.745,0,0,1,.554-2.562,4.064,4.064,0,0,1,1.569-1.74,4.4,4.4,0,0,1,2.316-.611,3.947,3.947,0,0,1,3.072,1.23,5,5,0,0,1,1.121,3.489v1.037H58.772a2.36,2.36,0,0,0,.743,1.494,2.245,2.245,0,0,0,1.569.563,2.742,2.742,0,0,0,2.294-1.063l1.248,1.4a3.813,3.813,0,0,1-1.547,1.261A5.075,5.075,0,0,1,60.917,17.176Zm-.29-7.813a1.587,1.587,0,0,0-1.226.512,2.651,2.651,0,0,0-.6,1.466h3.533v-.2a1.891,1.891,0,0,0-.457-1.311A1.638,1.638,0,0,0,60.627,9.362Zm9.6,5.766a1.666,1.666,0,0,0,1.143-.387,1.355,1.355,0,0,0,.457-1.028h2.382a3.258,3.258,0,0,1-.527,1.771,3.48,3.48,0,0,1-1.419,1.248,4.442,4.442,0,0,1-1.991.444,4.129,4.129,0,0,1-3.217-1.3A5.13,5.13,0,0,1,65.874,12.3v-.167a5.071,5.071,0,0,1,1.169-3.507,4.08,4.08,0,0,1,3.208-1.31A4,4,0,0,1,73.112,8.33a3.594,3.594,0,0,1,1.094,2.7H71.824a1.745,1.745,0,0,0-.457-1.206,1.7,1.7,0,0,0-2.5.183,3.749,3.749,0,0,0-.453,2.1v.264a3.8,3.8,0,0,0,.448,2.113A1.549,1.549,0,0,0,70.225,15.128Zm9.809,2.048a4.668,4.668,0,0,1-3.406-1.283,4.561,4.561,0,0,1-1.314-3.419v-.246a5.745,5.745,0,0,1,.554-2.562,4.064,4.064,0,0,1,1.569-1.74,4.4,4.4,0,0,1,2.316-.611,3.947,3.947,0,0,1,3.072,1.23,5,5,0,0,1,1.121,3.489v1.037H77.889a2.36,2.36,0,0,0,.743,1.494,2.245,2.245,0,0,0,1.569.563,2.742,2.742,0,0,0,2.294-1.063l1.248,1.4A3.813,3.813,0,0,1,82.2,16.723,5.075,5.075,0,0,1,80.033,17.176Zm-.29-7.813a1.587,1.587,0,0,0-1.226.512,2.651,2.651,0,0,0-.6,1.466h3.533v-.2a1.891,1.891,0,0,0-.457-1.311A1.638,1.638,0,0,0,79.743,9.362Zm14.2,2.971a5.7,5.7,0,0,1-1,3.52,3.2,3.2,0,0,1-2.694,1.323,2.963,2.963,0,0,1-2.329-1v4.482h-2.54V7.49h2.355l.088.932a2.985,2.985,0,0,1,2.408-1.107,3.22,3.22,0,0,1,2.733,1.3,5.858,5.858,0,0,1,.976,3.586Zm-2.54-.194a3.763,3.763,0,0,0-.47-2.054,1.53,1.53,0,0,0-1.367-.723,1.662,1.662,0,0,0-1.644.917v3.906a1.691,1.691,0,0,0,1.661.943Q91.406,15.128,91.406,12.139Zm8.068,2.989a1.666,1.666,0,0,0,1.143-.387,1.355,1.355,0,0,0,.457-1.028h2.382a3.258,3.258,0,0,1-.527,1.771,3.48,3.48,0,0,1-1.419,1.248,4.442,4.442,0,0,1-1.991.444,4.129,4.129,0,0,1-3.217-1.3A5.13,5.13,0,0,1,95.124,12.3v-.167a5.071,5.071,0,0,1,1.169-3.507A4.08,4.08,0,0,1,99.5,7.314a4,4,0,0,1,2.861,1.015,3.594,3.594,0,0,1,1.094,2.7h-2.382a1.745,1.745,0,0,0-.457-1.206,1.7,1.7,0,0,0-2.5.183,3.749,3.749,0,0,0-.453,2.1v.264a3.8,3.8,0,0,0,.448,2.113A1.549,1.549,0,0,0,99.475,15.128ZM107.587,17h-2.549V7.49h2.549Zm-2.7-11.971a1.251,1.251,0,0,1,.382-.94,1.648,1.648,0,0,1,2.079,0,1.244,1.244,0,0,1,.387.94,1.247,1.247,0,0,1-.391.949,1.629,1.629,0,0,1-2.065,0A1.247,1.247,0,0,1,104.889,5.029Zm4.395,7.128a5.64,5.64,0,0,1,.545-2.522A3.989,3.989,0,0,1,111.4,7.921a4.577,4.577,0,0,1,2.377-.606,4.33,4.33,0,0,1,3.142,1.178,4.727,4.727,0,0,1,1.358,3.2l.018.65a4.97,4.97,0,0,1-1.222,3.511,4.735,4.735,0,0,1-6.561,0,5.058,5.058,0,0,1-1.226-3.586Zm2.54.18a3.555,3.555,0,0,0,.51,2.073,1.831,1.831,0,0,0,2.9.009,3.89,3.89,0,0,0,.519-2.267,3.519,3.519,0,0,0-.519-2.06,1.686,1.686,0,0,0-1.459-.731,1.658,1.658,0,0,0-1.441.726A3.955,3.955,0,0,0,111.823,12.338ZM114.275,3.5h2.769l-2.435,2.725h-2.065Zm7.919,3.99.079,1.1a3.32,3.32,0,0,1,2.733-1.274,2.759,2.759,0,0,1,2.25.888,4.142,4.142,0,0,1,.756,2.654V17h-2.54V10.9a1.654,1.654,0,0,0-.352-1.176,1.572,1.572,0,0,0-1.169-.366,1.747,1.747,0,0,0-1.608.916V17H119.8V7.49Z" transform="translate(442.667 8493)" fill="#12263f"/>
    <path id="Trazado_109310" data-name="Trazado 109310" d="M4.54,9.477H5.893a1.907,1.907,0,0,0,1.433-.483A1.771,1.771,0,0,0,7.792,7.71a1.566,1.566,0,0,0-.461-1.2,1.788,1.788,0,0,0-1.27-.431,1.874,1.874,0,0,0-1.222.4,1.279,1.279,0,0,0-.492,1.042H1.806a3.124,3.124,0,0,1,.541-1.8A3.6,3.6,0,0,1,3.858,4.476,5.045,5.045,0,0,1,6,4.027,4.785,4.785,0,0,1,9.18,5a3.314,3.314,0,0,1,1.151,2.676A2.693,2.693,0,0,1,9.8,9.292a3.483,3.483,0,0,1-1.406,1.134A3.18,3.18,0,0,1,10,11.586a3.147,3.147,0,0,1,.532,1.828A3.369,3.369,0,0,1,9.29,16.147,5,5,0,0,1,6,17.176a4.741,4.741,0,0,1-3.133-1.011,3.3,3.3,0,0,1-1.217-2.672h2.54a1.472,1.472,0,0,0,.541,1.178,1.992,1.992,0,0,0,1.332.457,2,2,0,0,0,1.419-.479,1.654,1.654,0,0,0,.514-1.27q0-1.916-2.109-1.916H4.54Zm7.98,6.275a1.279,1.279,0,0,1,.409-.984,1.588,1.588,0,0,1,2.057,0,1.279,1.279,0,0,1,.409.984,1.261,1.261,0,0,1-.4.971,1.614,1.614,0,0,1-2.065,0A1.261,1.261,0,0,1,12.52,15.752Zm16.972-1.389H24.869L23.99,17h-2.8L25.95,4.2h2.443L33.183,17h-2.8Zm-3.911-2.136h3.2l-1.608-4.79ZM36.171,7.49l.079,1.063a3.342,3.342,0,0,1,2.733-1.239,2.536,2.536,0,0,1,2.522,1.45,3.265,3.265,0,0,1,2.856-1.45,2.836,2.836,0,0,1,2.3.9,4.141,4.141,0,0,1,.756,2.711V17H44.873V10.922a1.818,1.818,0,0,0-.316-1.185,1.4,1.4,0,0,0-1.116-.374,1.585,1.585,0,0,0-1.582,1.092L41.867,17h-2.54V10.93A1.8,1.8,0,0,0,39,9.732a1.414,1.414,0,0,0-1.107-.37,1.645,1.645,0,0,0-1.564.9V17H33.79V7.49ZM54.883,17a2.821,2.821,0,0,1-.255-.853,3.073,3.073,0,0,1-2.4,1.028,3.376,3.376,0,0,1-2.316-.809,2.6,2.6,0,0,1-.918-2.039,2.687,2.687,0,0,1,1.121-2.32,5.529,5.529,0,0,1,3.239-.817h1.169v-.545a1.567,1.567,0,0,0-.338-1.055,1.331,1.331,0,0,0-1.068-.4A1.513,1.513,0,0,0,52.11,9.5a1.045,1.045,0,0,0-.365.844h-2.54a2.551,2.551,0,0,1,.51-1.529,3.37,3.37,0,0,1,1.441-1.1,5.253,5.253,0,0,1,2.092-.4,4.15,4.15,0,0,1,2.791.883,3.09,3.09,0,0,1,1.033,2.483V14.8a4.546,4.546,0,0,0,.378,2.048V17Zm-2.1-1.767a2.188,2.188,0,0,0,1.037-.25,1.645,1.645,0,0,0,.7-.672V12.676h-.949q-1.907,0-2.03,1.318l-.009.149a1.017,1.017,0,0,0,.334.782A1.3,1.3,0,0,0,52.783,15.233ZM63.11,12.175a5.731,5.731,0,0,1,1-3.542,3.237,3.237,0,0,1,2.729-1.318A2.913,2.913,0,0,1,69.13,8.352V3.5h2.549V17H69.385l-.123-1.011a2.989,2.989,0,0,1-2.443,1.187,3.228,3.228,0,0,1-2.694-1.323A5.916,5.916,0,0,1,63.11,12.175Zm2.54.181a3.775,3.775,0,0,0,.466,2.057,1.516,1.516,0,0,0,1.354.715,1.7,1.7,0,0,0,1.661-1V10.36a1.675,1.675,0,0,0-1.644-1Q65.65,9.362,65.65,12.356Zm12.375,4.82a4.668,4.668,0,0,1-3.406-1.283,4.561,4.561,0,0,1-1.314-3.419v-.246a5.745,5.745,0,0,1,.554-2.562,4.064,4.064,0,0,1,1.569-1.74,4.4,4.4,0,0,1,2.316-.611,3.947,3.947,0,0,1,3.072,1.23,5,5,0,0,1,1.121,3.489v1.037H75.88a2.36,2.36,0,0,0,.743,1.494,2.245,2.245,0,0,0,1.569.563,2.742,2.742,0,0,0,2.294-1.063l1.248,1.4a3.813,3.813,0,0,1-1.547,1.261A5.075,5.075,0,0,1,78.025,17.176Zm-.29-7.813a1.587,1.587,0,0,0-1.226.512,2.651,2.651,0,0,0-.6,1.466H79.44v-.2a1.891,1.891,0,0,0-.457-1.311A1.638,1.638,0,0,0,77.735,9.362ZM90.541,17H87.992V3.5h2.549Zm4.772,0H92.764V3.5h2.549Zm7.6,0a2.821,2.821,0,0,1-.255-.853,3.073,3.073,0,0,1-2.4,1.028,3.376,3.376,0,0,1-2.316-.809,2.6,2.6,0,0,1-.918-2.039,2.687,2.687,0,0,1,1.121-2.32,5.529,5.529,0,0,1,3.239-.817h1.169v-.545a1.567,1.567,0,0,0-.338-1.055,1.331,1.331,0,0,0-1.068-.4,1.513,1.513,0,0,0-1.006.308,1.045,1.045,0,0,0-.365.844h-2.54a2.551,2.551,0,0,1,.51-1.529,3.37,3.37,0,0,1,1.441-1.1,5.253,5.253,0,0,1,2.092-.4,4.15,4.15,0,0,1,2.791.883,3.09,3.09,0,0,1,1.033,2.483V14.8a4.546,4.546,0,0,0,.378,2.048V17Zm-2.1-1.767a2.188,2.188,0,0,0,1.037-.25,1.645,1.645,0,0,0,.7-.672V12.676h-.949q-1.907,0-2.03,1.318l-.009.149a1.017,1.017,0,0,0,.334.782A1.3,1.3,0,0,0,100.815,15.233Zm9.668-1.336L112.25,7.49H114.9L111.7,17H109.27l-3.208-9.51h2.654Zm9.8,3.278a4.668,4.668,0,0,1-3.406-1.283,4.561,4.561,0,0,1-1.314-3.419v-.246a5.745,5.745,0,0,1,.554-2.562,4.064,4.064,0,0,1,1.569-1.74A4.4,4.4,0,0,1,120,7.314a3.947,3.947,0,0,1,3.072,1.23,5,5,0,0,1,1.121,3.489v1.037h-6.056a2.36,2.36,0,0,0,.743,1.494,2.245,2.245,0,0,0,1.569.563,2.742,2.742,0,0,0,2.294-1.063l1.248,1.4a3.813,3.813,0,0,1-1.547,1.261A5.075,5.075,0,0,1,120.283,17.176Zm-.29-7.813a1.587,1.587,0,0,0-1.226.512,2.651,2.651,0,0,0-.6,1.466H121.7v-.2a1.891,1.891,0,0,0-.457-1.311A1.638,1.638,0,0,0,119.993,9.362Zm10.793,5.01a.818.818,0,0,0-.461-.734,5.241,5.241,0,0,0-1.481-.479q-3.393-.712-3.393-2.883a2.613,2.613,0,0,1,1.05-2.114,4.237,4.237,0,0,1,2.747-.848,4.56,4.56,0,0,1,2.9.853,2.687,2.687,0,0,1,1.085,2.215h-2.54a1.229,1.229,0,0,0-.352-.9,1.488,1.488,0,0,0-1.1-.356,1.52,1.52,0,0,0-.993.29.916.916,0,0,0-.352.738.783.783,0,0,0,.4.681,4.114,4.114,0,0,0,1.349.448,11.019,11.019,0,0,1,1.6.426,2.628,2.628,0,0,1,2.013,2.558,2.481,2.481,0,0,1-1.116,2.1,4.815,4.815,0,0,1-2.883.8,5.029,5.029,0,0,1-2.123-.426,3.561,3.561,0,0,1-1.455-1.169,2.716,2.716,0,0,1-.527-1.6h2.408a1.326,1.326,0,0,0,.5,1.037,1.987,1.987,0,0,0,1.248.36,1.839,1.839,0,0,0,1.1-.277A.861.861,0,0,0,130.786,14.372Z" transform="translate(1006.667 8493)" fill="#12263f"/>
    <path id="Trazado_109317" data-name="Trazado 109317" d="M10.984,12.184h1.45v2.048h-1.45V17H8.444V14.231H3.2l-.114-1.6L8.417,4.2h2.566Zm-5.37,0h2.83V7.666l-.167.29Zm8.42,3.568a1.279,1.279,0,0,1,.409-.984,1.588,1.588,0,0,1,2.057,0,1.279,1.279,0,0,1,.409.984,1.261,1.261,0,0,1-.4.971,1.614,1.614,0,0,1-2.065,0A1.261,1.261,0,0,1,14.034,15.752ZM23.781,17V4.2h3.938a5.98,5.98,0,0,1,3.019.76,5.3,5.3,0,0,1,2.079,2.162,6.669,6.669,0,0,1,.747,3.186V10.9a6.688,6.688,0,0,1-.734,3.173,5.256,5.256,0,0,1-2.07,2.153A6.025,6.025,0,0,1,27.745,17ZM26.417,6.339v8.543h1.274a2.863,2.863,0,0,0,2.364-1.011,4.567,4.567,0,0,0,.835-2.892V10.3a4.64,4.64,0,0,0-.809-2.958,2.854,2.854,0,0,0-2.364-1.006ZM40.823,17a2.821,2.821,0,0,1-.255-.853,3.073,3.073,0,0,1-2.4,1.028,3.376,3.376,0,0,1-2.316-.809,2.6,2.6,0,0,1-.918-2.039,2.687,2.687,0,0,1,1.121-2.32,5.529,5.529,0,0,1,3.239-.817h1.169v-.545a1.567,1.567,0,0,0-.338-1.055,1.331,1.331,0,0,0-1.068-.4A1.513,1.513,0,0,0,38.05,9.5a1.045,1.045,0,0,0-.365.844h-2.54a2.551,2.551,0,0,1,.51-1.529,3.37,3.37,0,0,1,1.441-1.1,5.253,5.253,0,0,1,2.092-.4,4.15,4.15,0,0,1,2.791.883,3.09,3.09,0,0,1,1.033,2.483V14.8a4.546,4.546,0,0,0,.378,2.048V17Zm-2.1-1.767a2.188,2.188,0,0,0,1.037-.25,1.645,1.645,0,0,0,.7-.672V12.676h-.949q-1.907,0-2.03,1.318l-.009.149a1.017,1.017,0,0,0,.334.782A1.3,1.3,0,0,0,38.722,15.233ZM48,5.152V7.49h1.626V9.354H48V14.1a1.133,1.133,0,0,0,.2.756,1.015,1.015,0,0,0,.773.229,4.051,4.051,0,0,0,.747-.062v1.925a5.229,5.229,0,0,1-1.538.229,2.425,2.425,0,0,1-2.725-2.7V9.354H44.075V7.49h1.389V5.152Zm2.382,7a5.64,5.64,0,0,1,.545-2.522A3.989,3.989,0,0,1,52.5,7.921a4.577,4.577,0,0,1,2.377-.606,4.33,4.33,0,0,1,3.142,1.178,4.727,4.727,0,0,1,1.358,3.2l.018.65a4.97,4.97,0,0,1-1.222,3.511,4.735,4.735,0,0,1-6.561,0,5.058,5.058,0,0,1-1.226-3.586Zm2.54.18a3.555,3.555,0,0,0,.51,2.073,1.831,1.831,0,0,0,2.9.009,3.89,3.89,0,0,0,.519-2.267,3.519,3.519,0,0,0-.519-2.06,1.686,1.686,0,0,0-1.459-.731,1.658,1.658,0,0,0-1.441.726A3.955,3.955,0,0,0,52.925,12.338Zm13.184,2.035a.818.818,0,0,0-.461-.734,5.241,5.241,0,0,0-1.481-.479q-3.393-.712-3.393-2.883a2.613,2.613,0,0,1,1.05-2.114,4.237,4.237,0,0,1,2.747-.848,4.56,4.56,0,0,1,2.9.853,2.687,2.687,0,0,1,1.085,2.215h-2.54a1.229,1.229,0,0,0-.352-.9,1.488,1.488,0,0,0-1.1-.356,1.52,1.52,0,0,0-.993.29.916.916,0,0,0-.352.738.783.783,0,0,0,.4.681,4.114,4.114,0,0,0,1.349.448,11.019,11.019,0,0,1,1.6.426,2.628,2.628,0,0,1,2.013,2.558,2.481,2.481,0,0,1-1.116,2.1,4.815,4.815,0,0,1-2.883.8,5.029,5.029,0,0,1-2.123-.426A3.561,3.561,0,0,1,61,15.581a2.716,2.716,0,0,1-.527-1.6h2.408a1.326,1.326,0,0,0,.5,1.037,1.987,1.987,0,0,0,1.248.36,1.839,1.839,0,0,0,1.1-.277A.861.861,0,0,0,66.109,14.372Zm8.191-2.2a5.731,5.731,0,0,1,1-3.542,3.237,3.237,0,0,1,2.729-1.318,2.913,2.913,0,0,1,2.294,1.037V3.5H82.87V17H80.576l-.123-1.011a2.989,2.989,0,0,1-2.443,1.187,3.228,3.228,0,0,1-2.694-1.323A5.916,5.916,0,0,1,74.3,12.175Zm2.54.181a3.775,3.775,0,0,0,.466,2.057,1.516,1.516,0,0,0,1.354.715,1.7,1.7,0,0,0,1.661-1V10.36a1.675,1.675,0,0,0-1.644-1Q76.84,9.362,76.84,12.356Zm12.375,4.82a4.668,4.668,0,0,1-3.406-1.283A4.561,4.561,0,0,1,84.5,12.474v-.246a5.745,5.745,0,0,1,.554-2.562,4.064,4.064,0,0,1,1.569-1.74,4.4,4.4,0,0,1,2.316-.611,3.947,3.947,0,0,1,3.072,1.23,5,5,0,0,1,1.121,3.489v1.037H87.071a2.36,2.36,0,0,0,.743,1.494,2.245,2.245,0,0,0,1.569.563,2.742,2.742,0,0,0,2.294-1.063l1.248,1.4a3.813,3.813,0,0,1-1.547,1.261A5.075,5.075,0,0,1,89.215,17.176Zm-.29-7.813a1.587,1.587,0,0,0-1.226.512,2.651,2.651,0,0,0-.6,1.466H90.63v-.2a1.891,1.891,0,0,0-.457-1.311A1.638,1.638,0,0,0,88.925,9.362ZM97.249,17H94.7V3.5h2.549Zm10.529-1.872a1.666,1.666,0,0,0,1.143-.387,1.355,1.355,0,0,0,.457-1.028h2.382a3.258,3.258,0,0,1-.527,1.771,3.48,3.48,0,0,1-1.419,1.248,4.442,4.442,0,0,1-1.991.444,4.129,4.129,0,0,1-3.217-1.3,5.13,5.13,0,0,1-1.178-3.582v-.167A5.071,5.071,0,0,1,104.6,8.624a4.08,4.08,0,0,1,3.208-1.31,4,4,0,0,1,2.861,1.015,3.594,3.594,0,0,1,1.094,2.7h-2.382a1.745,1.745,0,0,0-.457-1.206,1.7,1.7,0,0,0-2.5.183,3.749,3.749,0,0,0-.453,2.1v.264a3.8,3.8,0,0,0,.448,2.113A1.549,1.549,0,0,0,107.778,15.128ZM115.89,17h-2.549V3.5h2.549Zm4.772,0h-2.549V7.49h2.549Zm-2.7-11.971a1.251,1.251,0,0,1,.382-.94,1.648,1.648,0,0,1,2.079,0,1.244,1.244,0,0,1,.387.94,1.247,1.247,0,0,1-.391.949,1.629,1.629,0,0,1-2.065,0A1.247,1.247,0,0,1,117.964,5.029Zm9.167,12.146a4.668,4.668,0,0,1-3.406-1.283,4.561,4.561,0,0,1-1.314-3.419v-.246a5.745,5.745,0,0,1,.554-2.562,4.064,4.064,0,0,1,1.569-1.74,4.4,4.4,0,0,1,2.316-.611,3.947,3.947,0,0,1,3.072,1.23,5,5,0,0,1,1.121,3.489v1.037h-6.056a2.36,2.36,0,0,0,.743,1.494,2.245,2.245,0,0,0,1.569.563,2.742,2.742,0,0,0,2.294-1.063l1.248,1.4a3.813,3.813,0,0,1-1.547,1.261A5.075,5.075,0,0,1,127.131,17.176Zm-.29-7.813a1.587,1.587,0,0,0-1.226.512,2.651,2.651,0,0,0-.6,1.466h3.533v-.2a1.891,1.891,0,0,0-.457-1.311A1.638,1.638,0,0,0,126.841,9.362Zm7.98-1.872.079,1.1a3.32,3.32,0,0,1,2.733-1.274,2.759,2.759,0,0,1,2.25.888,4.142,4.142,0,0,1,.756,2.654V17H138.1V10.9a1.654,1.654,0,0,0-.352-1.176,1.572,1.572,0,0,0-1.169-.366,1.747,1.747,0,0,0-1.608.916V17h-2.54V7.49Zm10.784-2.338V7.49h1.626V9.354h-1.626V14.1a1.133,1.133,0,0,0,.2.756,1.015,1.015,0,0,0,.773.229,4.051,4.051,0,0,0,.747-.062v1.925a5.229,5.229,0,0,1-1.538.229,2.425,2.425,0,0,1-2.725-2.7V9.354h-1.389V7.49h1.389V5.152Zm7.418,12.023a4.668,4.668,0,0,1-3.406-1.283,4.561,4.561,0,0,1-1.314-3.419v-.246a5.745,5.745,0,0,1,.554-2.562,4.064,4.064,0,0,1,1.569-1.74,4.4,4.4,0,0,1,2.316-.611,3.947,3.947,0,0,1,3.072,1.23,5,5,0,0,1,1.121,3.489v1.037h-6.056a2.36,2.36,0,0,0,.743,1.494,2.245,2.245,0,0,0,1.569.563,2.742,2.742,0,0,0,2.294-1.063l1.248,1.4a3.813,3.813,0,0,1-1.547,1.261A5.075,5.075,0,0,1,153.024,17.176Zm-.29-7.813a1.587,1.587,0,0,0-1.226.512,2.651,2.651,0,0,0-.6,1.466h3.533v-.2a1.891,1.891,0,0,0-.457-1.311A1.638,1.638,0,0,0,152.734,9.362ZM52.96,37.555a2.935,2.935,0,0,1,.5-1.644,6.9,6.9,0,0,1,1.824-1.679,8.954,8.954,0,0,1-.9-1.437,3.182,3.182,0,0,1-.325-1.4A3.271,3.271,0,0,1,55,28.963a3.457,3.457,0,0,1,2.544-.936,3.319,3.319,0,0,1,2.351.853,2.782,2.782,0,0,1,.918,2.127,3.354,3.354,0,0,1-1.547,2.7l-.984.712,2.206,2.566a4.891,4.891,0,0,0,.519-2.25h2.162a6.6,6.6,0,0,1-1.151,4.043L63.938,41H61.055l-.659-.756a5.779,5.779,0,0,1-3.252.932,4.459,4.459,0,0,1-3.041-1A3.314,3.314,0,0,1,52.96,37.555Zm4.307,1.573A3.225,3.225,0,0,0,59,38.62l-2.522-2.911-.185.132a2.006,2.006,0,0,0-.782,1.569A1.66,1.66,0,0,0,56,38.65,1.738,1.738,0,0,0,57.267,39.128Zm-.932-7.77a3,3,0,0,0,.773,1.661l.677-.448a2.3,2.3,0,0,0,.716-.65,1.4,1.4,0,0,0,.2-.756,1.046,1.046,0,0,0-.325-.765,1.13,1.13,0,0,0-.835-.325,1.142,1.142,0,0,0-.875.352A1.307,1.307,0,0,0,56.335,31.358ZM79.82,36.737a4.528,4.528,0,0,1-1.525,3.252,5.355,5.355,0,0,1-3.625,1.187A4.816,4.816,0,0,1,70.8,39.519a6.793,6.793,0,0,1-1.411-4.548v-.782a7.671,7.671,0,0,1,.65-3.252A4.874,4.874,0,0,1,71.9,28.779a5.809,5.809,0,0,1,6.376.435,4.866,4.866,0,0,1,1.564,3.331H77.2a2.673,2.673,0,0,0-.69-1.8,2.555,2.555,0,0,0-1.806-.558,2.24,2.24,0,0,0-1.973.945,5.3,5.3,0,0,0-.672,2.931v.967a5.667,5.667,0,0,0,.628,3.032,2.2,2.2,0,0,0,1.982.958,2.6,2.6,0,0,0,1.824-.558,2.521,2.521,0,0,0,.69-1.727Zm6.469-.422h-2.1V41H81.551V28.2h4.755a5.375,5.375,0,0,1,3.5,1.011,3.488,3.488,0,0,1,1.23,2.856,3.937,3.937,0,0,1-.567,2.184,3.866,3.866,0,0,1-1.718,1.393l2.769,5.229V41h-2.83Zm-2.1-2.136h2.127a2.178,2.178,0,0,0,1.538-.505,1.806,1.806,0,0,0,.545-1.393,1.933,1.933,0,0,0-.514-1.424,2.137,2.137,0,0,0-1.578-.519H84.188Zm12.3-5.977,3.287,9.281,3.27-9.281H106.5V41h-2.646V37.5l.264-6.038L100.667,41H98.857l-3.445-9.527.264,6.029V41H93.039V28.2Z" transform="translate(332.667 8693)" fill="#12263f"/>
    <path id="Trazado_109319" data-name="Trazado 109319" d="M11.672,4.071V6.163h-.246a4.315,4.315,0,0,0-2.773.9A3.642,3.642,0,0,0,7.392,9.477,3.46,3.46,0,0,1,9.967,8.439a3.26,3.26,0,0,1,2.654,1.2,4.792,4.792,0,0,1,.984,3.146,4.713,4.713,0,0,1-.541,2.259,3.877,3.877,0,0,1-1.529,1.573,4.443,4.443,0,0,1-2.237.563A4.15,4.15,0,0,1,6.034,15.77,5.459,5.459,0,0,1,4.79,12.017V11.1a8.215,8.215,0,0,1,.787-3.678,5.768,5.768,0,0,1,2.259-2.47,6.619,6.619,0,0,1,3.415-.883ZM9.193,10.487a2.029,2.029,0,0,0-1.116.32,1.929,1.929,0,0,0-.738.847v.772a3.42,3.42,0,0,0,.5,1.987,1.619,1.619,0,0,0,1.406.715,1.6,1.6,0,0,0,1.323-.645,2.63,2.63,0,0,0,.505-1.671,2.625,2.625,0,0,0-.51-1.684A1.661,1.661,0,0,0,9.193,10.487Zm6.152,5.265a1.279,1.279,0,0,1,.409-.984,1.588,1.588,0,0,1,2.057,0,1.279,1.279,0,0,1,.409.984,1.261,1.261,0,0,1-.4.971,1.614,1.614,0,0,1-2.065,0A1.261,1.261,0,0,1,15.346,15.752Zm19.872-.369a4.577,4.577,0,0,1-2.013,1.323,8.429,8.429,0,0,1-2.883.47,5.711,5.711,0,0,1-2.914-.725,4.836,4.836,0,0,1-1.934-2.1,7.408,7.408,0,0,1-.7-3.243v-.87a7.868,7.868,0,0,1,.646-3.318A4.779,4.779,0,0,1,27.286,4.77a5.367,5.367,0,0,1,2.852-.743A5.345,5.345,0,0,1,33.7,5.113a4.639,4.639,0,0,1,1.521,3.16H32.651a2.552,2.552,0,0,0-.778-1.608,2.484,2.484,0,0,0-1.657-.51,2.338,2.338,0,0,0-2.048,1.011,5.315,5.315,0,0,0-.712,3.006v.817a5.06,5.06,0,0,0,.765,3.041,2.618,2.618,0,0,0,2.241,1.028,2.925,2.925,0,0,0,2.118-.633V12.219h-2.4V10.276h5.036Zm6.346,1.793a4.668,4.668,0,0,1-3.406-1.283,4.561,4.561,0,0,1-1.314-3.419v-.246A5.745,5.745,0,0,1,37.4,9.666a4.064,4.064,0,0,1,1.569-1.74,4.4,4.4,0,0,1,2.316-.611,3.947,3.947,0,0,1,3.072,1.23,5,5,0,0,1,1.121,3.489v1.037H39.419a2.36,2.36,0,0,0,.743,1.494,2.245,2.245,0,0,0,1.569.563,2.742,2.742,0,0,0,2.294-1.063l1.248,1.4a3.813,3.813,0,0,1-1.547,1.261A5.075,5.075,0,0,1,41.563,17.176Zm-.29-7.813a1.587,1.587,0,0,0-1.226.512,2.651,2.651,0,0,0-.6,1.466h3.533v-.2a1.891,1.891,0,0,0-.457-1.311A1.638,1.638,0,0,0,41.273,9.362Zm10.793,5.01a.818.818,0,0,0-.461-.734,5.241,5.241,0,0,0-1.481-.479q-3.393-.712-3.393-2.883a2.613,2.613,0,0,1,1.05-2.114,4.237,4.237,0,0,1,2.747-.848,4.56,4.56,0,0,1,2.9.853,2.687,2.687,0,0,1,1.085,2.215H51.97a1.229,1.229,0,0,0-.352-.9,1.488,1.488,0,0,0-1.1-.356,1.52,1.52,0,0,0-.993.29.916.916,0,0,0-.352.738.783.783,0,0,0,.4.681,4.114,4.114,0,0,0,1.349.448,11.019,11.019,0,0,1,1.6.426,2.628,2.628,0,0,1,2.013,2.558,2.481,2.481,0,0,1-1.116,2.1,4.815,4.815,0,0,1-2.883.8,5.029,5.029,0,0,1-2.123-.426,3.561,3.561,0,0,1-1.455-1.169,2.716,2.716,0,0,1-.527-1.6h2.408a1.326,1.326,0,0,0,.5,1.037,1.987,1.987,0,0,0,1.248.36,1.839,1.839,0,0,0,1.1-.277A.861.861,0,0,0,52.066,14.372Zm7.146-9.22V7.49h1.626V9.354H59.212V14.1a1.133,1.133,0,0,0,.2.756,1.015,1.015,0,0,0,.773.229,4.051,4.051,0,0,0,.747-.062v1.925a5.229,5.229,0,0,1-1.538.229,2.425,2.425,0,0,1-2.725-2.7V9.354H55.283V7.49h1.389V5.152ZM64.934,17H62.385V7.49h2.549Zm-2.7-11.971a1.251,1.251,0,0,1,.382-.94,1.648,1.648,0,0,1,2.079,0,1.244,1.244,0,0,1,.387.94,1.247,1.247,0,0,1-.391.949,1.629,1.629,0,0,1-2.065,0A1.247,1.247,0,0,1,62.235,5.029Zm4.395,7.128a5.64,5.64,0,0,1,.545-2.522,3.989,3.989,0,0,1,1.569-1.714,4.577,4.577,0,0,1,2.377-.606,4.33,4.33,0,0,1,3.142,1.178,4.727,4.727,0,0,1,1.358,3.2l.018.65a4.97,4.97,0,0,1-1.222,3.511,4.735,4.735,0,0,1-6.561,0,5.058,5.058,0,0,1-1.226-3.586Zm2.54.18a3.555,3.555,0,0,0,.51,2.073,1.831,1.831,0,0,0,2.9.009,3.89,3.89,0,0,0,.519-2.267,3.519,3.519,0,0,0-.519-2.06,1.686,1.686,0,0,0-1.459-.731,1.658,1.658,0,0,0-1.441.726A3.955,3.955,0,0,0,69.17,12.338ZM71.622,3.5h2.769L71.956,6.225H69.891Zm7.919,3.99.079,1.1a3.32,3.32,0,0,1,2.733-1.274A2.759,2.759,0,0,1,84.6,8.2a4.142,4.142,0,0,1,.756,2.654V17h-2.54V10.9a1.654,1.654,0,0,0-.352-1.176A1.572,1.572,0,0,0,81.3,9.362a1.747,1.747,0,0,0-1.608.916V17H77.15V7.49Zm11.83,4.685a5.731,5.731,0,0,1,1-3.542A3.237,3.237,0,0,1,95.1,7.314a2.913,2.913,0,0,1,2.294,1.037V3.5H99.94V17H97.646l-.123-1.011a2.989,2.989,0,0,1-2.443,1.187,3.228,3.228,0,0,1-2.694-1.323A5.916,5.916,0,0,1,91.371,12.175Zm2.54.181a3.775,3.775,0,0,0,.466,2.057,1.516,1.516,0,0,0,1.354.715,1.7,1.7,0,0,0,1.661-1V10.36a1.675,1.675,0,0,0-1.644-1Q93.911,9.362,93.911,12.356Zm12.375,4.82a4.668,4.668,0,0,1-3.406-1.283,4.561,4.561,0,0,1-1.314-3.419v-.246a5.745,5.745,0,0,1,.554-2.562,4.064,4.064,0,0,1,1.569-1.74A4.4,4.4,0,0,1,106,7.314a3.947,3.947,0,0,1,3.072,1.23,5,5,0,0,1,1.121,3.489v1.037h-6.056a2.36,2.36,0,0,0,.743,1.494,2.245,2.245,0,0,0,1.569.563,2.742,2.742,0,0,0,2.294-1.063l1.248,1.4a3.813,3.813,0,0,1-1.547,1.261A5.075,5.075,0,0,1,106.286,17.176ZM106,9.362a1.587,1.587,0,0,0-1.226.512,2.651,2.651,0,0,0-.6,1.466H107.7v-.2a1.891,1.891,0,0,0-.457-1.311A1.638,1.638,0,0,0,106,9.362ZM118.8,17h-2.549V7.49H118.8ZM116.1,5.029a1.251,1.251,0,0,1,.382-.94,1.648,1.648,0,0,1,2.079,0,1.244,1.244,0,0,1,.387.94,1.247,1.247,0,0,1-.391.949,1.629,1.629,0,0,1-2.065,0A1.247,1.247,0,0,1,116.1,5.029Zm7.128,2.461.079,1.1a3.32,3.32,0,0,1,2.733-1.274,2.759,2.759,0,0,1,2.25.888,4.142,4.142,0,0,1,.756,2.654V17h-2.54V10.9a1.654,1.654,0,0,0-.352-1.176,1.572,1.572,0,0,0-1.169-.366,1.747,1.747,0,0,0-1.608.916V17h-2.54V7.49Zm7.374,4.685a5.573,5.573,0,0,1,1.042-3.524,3.375,3.375,0,0,1,2.808-1.336,2.96,2.96,0,0,1,2.435,1.072l.105-.9h2.3v9.193a4.064,4.064,0,0,1-.567,2.171,3.641,3.641,0,0,1-1.6,1.406,5.608,5.608,0,0,1-2.408.483,5.215,5.215,0,0,1-2.039-.417,3.619,3.619,0,0,1-1.5-1.077l1.125-1.547a2.975,2.975,0,0,0,2.3,1.063,2.178,2.178,0,0,0,1.573-.541,2.027,2.027,0,0,0,.563-1.534v-.51a2.938,2.938,0,0,1-2.312.993,3.366,3.366,0,0,1-2.773-1.34,5.572,5.572,0,0,1-1.059-3.555Zm2.54.181a3.489,3.489,0,0,0,.519,2.035,1.648,1.648,0,0,0,1.424.737,1.762,1.762,0,0,0,1.661-.874V10.236a1.758,1.758,0,0,0-1.644-.874,1.659,1.659,0,0,0-1.437.751A3.933,3.933,0,0,0,133.146,12.356Zm13.447-2.483a6.9,6.9,0,0,0-.914-.07,1.86,1.86,0,0,0-1.89.976V17h-2.54V7.49h2.4l.07,1.134a2.354,2.354,0,0,1,2.118-1.31,2.662,2.662,0,0,1,.791.114Zm5.432,7.3a4.668,4.668,0,0,1-3.406-1.283,4.561,4.561,0,0,1-1.314-3.419v-.246a5.745,5.745,0,0,1,.554-2.562,4.064,4.064,0,0,1,1.569-1.74,4.4,4.4,0,0,1,2.316-.611,3.947,3.947,0,0,1,3.072,1.23,5,5,0,0,1,1.121,3.489v1.037H149.88a2.36,2.36,0,0,0,.743,1.494,2.245,2.245,0,0,0,1.569.563,2.742,2.742,0,0,0,2.294-1.063l1.248,1.4a3.813,3.813,0,0,1-1.547,1.261A5.075,5.075,0,0,1,152.024,17.176Zm-.29-7.813a1.587,1.587,0,0,0-1.226.512,2.651,2.651,0,0,0-.6,1.466h3.533v-.2a1.891,1.891,0,0,0-.457-1.311A1.638,1.638,0,0,0,151.734,9.362Zm10.793,5.01a.818.818,0,0,0-.461-.734,5.241,5.241,0,0,0-1.481-.479q-3.393-.712-3.393-2.883a2.613,2.613,0,0,1,1.05-2.114,4.237,4.237,0,0,1,2.747-.848,4.56,4.56,0,0,1,2.9.853,2.687,2.687,0,0,1,1.085,2.215h-2.54a1.229,1.229,0,0,0-.352-.9,1.488,1.488,0,0,0-1.1-.356,1.52,1.52,0,0,0-.993.29.916.916,0,0,0-.352.738.783.783,0,0,0,.4.681,4.114,4.114,0,0,0,1.349.448,11.019,11.019,0,0,1,1.6.426A2.628,2.628,0,0,1,165,14.267a2.481,2.481,0,0,1-1.116,2.1,4.815,4.815,0,0,1-2.883.8,5.029,5.029,0,0,1-2.123-.426,3.561,3.561,0,0,1-1.455-1.169,2.716,2.716,0,0,1-.527-1.6H159.3a1.326,1.326,0,0,0,.5,1.037,1.987,1.987,0,0,0,1.248.36,1.839,1.839,0,0,0,1.1-.277A.861.861,0,0,0,162.527,14.372Zm3.709-2.215a5.64,5.64,0,0,1,.545-2.522,3.989,3.989,0,0,1,1.569-1.714,4.577,4.577,0,0,1,2.377-.606,4.33,4.33,0,0,1,3.142,1.178,4.727,4.727,0,0,1,1.358,3.2l.018.65a4.97,4.97,0,0,1-1.222,3.511,4.735,4.735,0,0,1-6.561,0,5.058,5.058,0,0,1-1.226-3.586Zm2.54.18a3.555,3.555,0,0,0,.51,2.073,1.831,1.831,0,0,0,2.9.009,3.89,3.89,0,0,0,.519-2.267,3.519,3.519,0,0,0-.519-2.06,1.686,1.686,0,0,0-1.459-.731,1.658,1.658,0,0,0-1.441.726A3.955,3.955,0,0,0,168.776,12.338Zm13.184,2.035a.818.818,0,0,0-.461-.734,5.241,5.241,0,0,0-1.481-.479q-3.393-.712-3.393-2.883a2.613,2.613,0,0,1,1.05-2.114,4.237,4.237,0,0,1,2.747-.848,4.56,4.56,0,0,1,2.9.853,2.687,2.687,0,0,1,1.085,2.215h-2.54a1.229,1.229,0,0,0-.352-.9,1.488,1.488,0,0,0-1.1-.356,1.52,1.52,0,0,0-.993.29.916.916,0,0,0-.352.738.783.783,0,0,0,.4.681,4.114,4.114,0,0,0,1.349.448,11.019,11.019,0,0,1,1.6.426,2.628,2.628,0,0,1,2.013,2.558,2.481,2.481,0,0,1-1.116,2.1,4.815,4.815,0,0,1-2.883.8,5.029,5.029,0,0,1-2.123-.426,3.561,3.561,0,0,1-1.455-1.169,2.716,2.716,0,0,1-.527-1.6h2.408a1.326,1.326,0,0,0,.5,1.037,1.987,1.987,0,0,0,1.248.36,1.839,1.839,0,0,0,1.1-.277A.861.861,0,0,0,181.96,14.372Z" transform="translate(412.667 8881)" fill="#12263f"/>
    <path id="Trazado_109320" data-name="Trazado 109320" d="M34.875,5.621,29.927,17H27.246L32.2,6.251H25.84V4.2h9.035Zm1.863,10.131a1.279,1.279,0,0,1,.409-.984,1.588,1.588,0,0,1,2.057,0,1.279,1.279,0,0,1,.409.984,1.261,1.261,0,0,1-.4.971,1.614,1.614,0,0,1-2.065,0A1.261,1.261,0,0,1,36.738,15.752ZM49.289,17H46.652V4.2h2.637ZM53.9,7.49l.079,1.1a3.32,3.32,0,0,1,2.733-1.274,2.759,2.759,0,0,1,2.25.888,4.142,4.142,0,0,1,.756,2.654V17h-2.54V10.9a1.654,1.654,0,0,0-.352-1.176,1.572,1.572,0,0,0-1.169-.366,1.747,1.747,0,0,0-1.608.916V17h-2.54V7.49ZM64.688,5.152V7.49h1.626V9.354H64.688V14.1a1.133,1.133,0,0,0,.2.756,1.015,1.015,0,0,0,.773.229,4.051,4.051,0,0,0,.747-.062v1.925a5.229,5.229,0,0,1-1.538.229,2.425,2.425,0,0,1-2.725-2.7V9.354H60.759V7.49h1.389V5.152Zm7.418,12.023A4.668,4.668,0,0,1,68.7,15.893a4.561,4.561,0,0,1-1.314-3.419v-.246a5.745,5.745,0,0,1,.554-2.562,4.064,4.064,0,0,1,1.569-1.74,4.4,4.4,0,0,1,2.316-.611A3.947,3.947,0,0,1,74.9,8.545a5,5,0,0,1,1.121,3.489v1.037H69.961a2.36,2.36,0,0,0,.743,1.494,2.245,2.245,0,0,0,1.569.563,2.742,2.742,0,0,0,2.294-1.063l1.248,1.4a3.813,3.813,0,0,1-1.547,1.261A5.075,5.075,0,0,1,72.105,17.176Zm-.29-7.813a1.587,1.587,0,0,0-1.226.512,2.651,2.651,0,0,0-.6,1.466h3.533v-.2a1.891,1.891,0,0,0-.457-1.311A1.638,1.638,0,0,0,71.815,9.362Zm10.986.51a6.9,6.9,0,0,0-.914-.07,1.86,1.86,0,0,0-1.89.976V17h-2.54V7.49h2.4l.07,1.134a2.354,2.354,0,0,1,2.118-1.31,2.662,2.662,0,0,1,.791.114ZM84.894,17V9.354H83.479V7.49h1.415V6.682A3.283,3.283,0,0,1,85.812,4.2a3.557,3.557,0,0,1,2.571-.883,5.987,5.987,0,0,1,1.292.174l-.026,1.953a3.238,3.238,0,0,0-.773-.079q-1.433,0-1.433,1.356V7.49h1.89V9.354h-1.89V17Zm11.268,0a2.821,2.821,0,0,1-.255-.853,3.073,3.073,0,0,1-2.4,1.028,3.376,3.376,0,0,1-2.316-.809,2.6,2.6,0,0,1-.918-2.039,2.687,2.687,0,0,1,1.121-2.32,5.529,5.529,0,0,1,3.239-.817H95.8v-.545a1.567,1.567,0,0,0-.338-1.055,1.331,1.331,0,0,0-1.068-.4,1.513,1.513,0,0,0-1.006.308,1.045,1.045,0,0,0-.365.844h-2.54a2.551,2.551,0,0,1,.51-1.529,3.37,3.37,0,0,1,1.441-1.1,5.253,5.253,0,0,1,2.092-.4,4.15,4.15,0,0,1,2.791.883,3.09,3.09,0,0,1,1.033,2.483V14.8a4.546,4.546,0,0,0,.378,2.048V17Zm-2.1-1.767a2.188,2.188,0,0,0,1.037-.25,1.645,1.645,0,0,0,.7-.672V12.676h-.949q-1.907,0-2.03,1.318l-.009.149a1.017,1.017,0,0,0,.334.782A1.3,1.3,0,0,0,94.061,15.233Zm10.2-.105a1.666,1.666,0,0,0,1.143-.387,1.355,1.355,0,0,0,.457-1.028h2.382a3.258,3.258,0,0,1-.527,1.771,3.48,3.48,0,0,1-1.419,1.248,4.442,4.442,0,0,1-1.991.444,4.129,4.129,0,0,1-3.217-1.3A5.13,5.13,0,0,1,99.905,12.3v-.167a5.071,5.071,0,0,1,1.169-3.507,4.08,4.08,0,0,1,3.208-1.31,4,4,0,0,1,2.861,1.015,3.594,3.594,0,0,1,1.094,2.7h-2.382a1.745,1.745,0,0,0-.457-1.206,1.7,1.7,0,0,0-2.5.183,3.749,3.749,0,0,0-.453,2.1v.264a3.8,3.8,0,0,0,.448,2.113A1.549,1.549,0,0,0,104.256,15.128Zm9.809,2.048a4.668,4.668,0,0,1-3.406-1.283,4.561,4.561,0,0,1-1.314-3.419v-.246a5.745,5.745,0,0,1,.554-2.562,4.064,4.064,0,0,1,1.569-1.74,4.4,4.4,0,0,1,2.316-.611,3.947,3.947,0,0,1,3.072,1.23,5,5,0,0,1,1.121,3.489v1.037H111.92a2.36,2.36,0,0,0,.743,1.494,2.245,2.245,0,0,0,1.569.563,2.742,2.742,0,0,0,2.294-1.063l1.248,1.4a3.813,3.813,0,0,1-1.547,1.261A5.075,5.075,0,0,1,114.064,17.176Zm-.29-7.813a1.587,1.587,0,0,0-1.226.512,2.651,2.651,0,0,0-.6,1.466h3.533v-.2a1.891,1.891,0,0,0-.457-1.311A1.638,1.638,0,0,0,113.774,9.362Zm10.793,5.01a.818.818,0,0,0-.461-.734,5.241,5.241,0,0,0-1.481-.479q-3.393-.712-3.393-2.883a2.613,2.613,0,0,1,1.05-2.114,4.237,4.237,0,0,1,2.747-.848,4.56,4.56,0,0,1,2.9.853,2.687,2.687,0,0,1,1.085,2.215h-2.54a1.229,1.229,0,0,0-.352-.9,1.488,1.488,0,0,0-1.1-.356,1.52,1.52,0,0,0-.993.29.916.916,0,0,0-.352.738.783.783,0,0,0,.4.681,4.114,4.114,0,0,0,1.349.448,11.019,11.019,0,0,1,1.6.426,2.628,2.628,0,0,1,2.013,2.558,2.481,2.481,0,0,1-1.116,2.1,4.815,4.815,0,0,1-2.883.8,5.029,5.029,0,0,1-2.123-.426,3.561,3.561,0,0,1-1.455-1.169,2.716,2.716,0,0,1-.527-1.6h2.408a1.326,1.326,0,0,0,.5,1.037,1.987,1.987,0,0,0,1.248.36,1.839,1.839,0,0,0,1.1-.277A.861.861,0,0,0,124.567,14.372Z" transform="translate(997.667 8881)" fill="#12263f"/>
    <path id="Trazado_109318" data-name="Trazado 109318" d="M6.144,10.707l.738-6.5h7.172V6.321H8.965L8.648,9.072a4.027,4.027,0,0,1,1.925-.483,3.689,3.689,0,0,1,2.865,1.134A4.529,4.529,0,0,1,14.476,12.9a4.64,4.64,0,0,1-.523,2.219,3.691,3.691,0,0,1-1.5,1.521,4.678,4.678,0,0,1-2.3.541A4.968,4.968,0,0,1,8,16.706a3.819,3.819,0,0,1-1.569-1.323,3.605,3.605,0,0,1-.611-1.942H8.332a1.878,1.878,0,0,0,.558,1.244,1.769,1.769,0,0,0,1.252.444,1.562,1.562,0,0,0,1.327-.62,2.87,2.87,0,0,0,.466-1.753,2.374,2.374,0,0,0-.536-1.67,1.967,1.967,0,0,0-1.521-.58,2.2,2.2,0,0,0-1.468.475l-.246.229ZM16.33,15.752a1.279,1.279,0,0,1,.409-.984,1.588,1.588,0,0,1,2.057,0,1.279,1.279,0,0,1,.409.984,1.261,1.261,0,0,1-.4.971,1.614,1.614,0,0,1-2.065,0A1.261,1.261,0,0,1,16.33,15.752ZM33.3,14.363H28.679L27.8,17H25L29.76,4.2H32.2L36.993,17h-2.8Zm-3.911-2.136h3.2l-1.608-4.79Zm8.235-.053a5.731,5.731,0,0,1,1-3.542,3.237,3.237,0,0,1,2.729-1.318,2.913,2.913,0,0,1,2.294,1.037V3.5H46.2V17H43.9l-.123-1.011a2.989,2.989,0,0,1-2.443,1.187,3.228,3.228,0,0,1-2.694-1.323A5.916,5.916,0,0,1,37.626,12.175Zm2.54.181a3.775,3.775,0,0,0,.466,2.057,1.516,1.516,0,0,0,1.354.715,1.7,1.7,0,0,0,1.661-1V10.36a1.675,1.675,0,0,0-1.644-1Q40.166,9.362,40.166,12.356ZM50.546,7.49l.079,1.063a3.342,3.342,0,0,1,2.733-1.239,2.536,2.536,0,0,1,2.522,1.45,3.265,3.265,0,0,1,2.856-1.45,2.836,2.836,0,0,1,2.3.9,4.141,4.141,0,0,1,.756,2.711V17H59.247V10.922a1.818,1.818,0,0,0-.316-1.185,1.4,1.4,0,0,0-1.116-.374,1.585,1.585,0,0,0-1.582,1.092L56.241,17H53.7V10.93a1.8,1.8,0,0,0-.325-1.2,1.414,1.414,0,0,0-1.107-.37,1.645,1.645,0,0,0-1.564.9V17h-2.54V7.49ZM66.428,17H63.879V7.49h2.549Zm-2.7-11.971a1.251,1.251,0,0,1,.382-.94,1.648,1.648,0,0,1,2.079,0,1.244,1.244,0,0,1,.387.94,1.247,1.247,0,0,1-.391.949,1.629,1.629,0,0,1-2.065,0A1.247,1.247,0,0,1,63.729,5.029ZM70.857,7.49l.079,1.1A3.32,3.32,0,0,1,73.67,7.314a2.759,2.759,0,0,1,2.25.888,4.142,4.142,0,0,1,.756,2.654V17h-2.54V10.9a1.654,1.654,0,0,0-.352-1.176,1.572,1.572,0,0,0-1.169-.366,1.747,1.747,0,0,0-1.608.916V17h-2.54V7.49ZM81.281,17H78.732V7.49h2.549Zm-2.7-11.971a1.251,1.251,0,0,1,.382-.94,1.648,1.648,0,0,1,2.079,0,1.244,1.244,0,0,1,.387.94,1.247,1.247,0,0,1-.391.949,1.629,1.629,0,0,1-2.065,0A1.247,1.247,0,0,1,78.583,5.029Zm9.94,9.343a.818.818,0,0,0-.461-.734,5.241,5.241,0,0,0-1.481-.479q-3.393-.712-3.393-2.883a2.613,2.613,0,0,1,1.05-2.114,4.237,4.237,0,0,1,2.747-.848,4.56,4.56,0,0,1,2.9.853,2.687,2.687,0,0,1,1.085,2.215h-2.54a1.229,1.229,0,0,0-.352-.9,1.488,1.488,0,0,0-1.1-.356,1.52,1.52,0,0,0-.993.29.916.916,0,0,0-.352.738.783.783,0,0,0,.4.681,4.114,4.114,0,0,0,1.349.448,11.019,11.019,0,0,1,1.6.426,2.628,2.628,0,0,1,2.013,2.558,2.481,2.481,0,0,1-1.116,2.1,4.815,4.815,0,0,1-2.883.8,5.029,5.029,0,0,1-2.123-.426,3.561,3.561,0,0,1-1.455-1.169,2.716,2.716,0,0,1-.527-1.6H85.3a1.326,1.326,0,0,0,.5,1.037,1.987,1.987,0,0,0,1.248.36,1.839,1.839,0,0,0,1.1-.277A.861.861,0,0,0,88.523,14.372Zm7.146-9.22V7.49h1.626V9.354H95.669V14.1a1.133,1.133,0,0,0,.2.756,1.015,1.015,0,0,0,.773.229,4.051,4.051,0,0,0,.747-.062v1.925a5.229,5.229,0,0,1-1.538.229,2.425,2.425,0,0,1-2.725-2.7V9.354H91.74V7.49h1.389V5.152Zm8.385,4.72a6.9,6.9,0,0,0-.914-.07,1.86,1.86,0,0,0-1.89.976V17H98.71V7.49h2.4l.07,1.134a2.354,2.354,0,0,1,2.118-1.31,2.662,2.662,0,0,1,.791.114ZM110.522,17a2.821,2.821,0,0,1-.255-.853,3.073,3.073,0,0,1-2.4,1.028,3.376,3.376,0,0,1-2.316-.809,2.6,2.6,0,0,1-.918-2.039,2.687,2.687,0,0,1,1.121-2.32,5.529,5.529,0,0,1,3.239-.817h1.169v-.545a1.567,1.567,0,0,0-.338-1.055,1.331,1.331,0,0,0-1.068-.4,1.513,1.513,0,0,0-1.006.308,1.045,1.045,0,0,0-.365.844h-2.54a2.551,2.551,0,0,1,.51-1.529,3.37,3.37,0,0,1,1.441-1.1,5.253,5.253,0,0,1,2.092-.4,4.15,4.15,0,0,1,2.791.883,3.09,3.09,0,0,1,1.033,2.483V14.8a4.546,4.546,0,0,0,.378,2.048V17Zm-2.1-1.767a2.188,2.188,0,0,0,1.037-.25,1.645,1.645,0,0,0,.7-.672V12.676h-.949q-1.907,0-2.03,1.318l-.009.149a1.017,1.017,0,0,0,.334.782A1.3,1.3,0,0,0,108.422,15.233Zm10.2-.105a1.666,1.666,0,0,0,1.143-.387,1.355,1.355,0,0,0,.457-1.028H122.6a3.258,3.258,0,0,1-.527,1.771,3.48,3.48,0,0,1-1.419,1.248,4.442,4.442,0,0,1-1.991.444,4.129,4.129,0,0,1-3.217-1.3,5.13,5.13,0,0,1-1.178-3.582v-.167a5.071,5.071,0,0,1,1.169-3.507,4.08,4.08,0,0,1,3.208-1.31A4,4,0,0,1,121.5,8.33a3.594,3.594,0,0,1,1.094,2.7h-2.382a1.745,1.745,0,0,0-.457-1.206,1.7,1.7,0,0,0-2.5.183,3.749,3.749,0,0,0-.453,2.1v.264a3.8,3.8,0,0,0,.448,2.113A1.549,1.549,0,0,0,118.617,15.128ZM126.729,17h-2.549V7.49h2.549Zm-2.7-11.971a1.251,1.251,0,0,1,.382-.94,1.648,1.648,0,0,1,2.079,0,1.244,1.244,0,0,1,.387.94,1.247,1.247,0,0,1-.391.949,1.629,1.629,0,0,1-2.065,0A1.247,1.247,0,0,1,124.031,5.029Zm4.395,7.128a5.64,5.64,0,0,1,.545-2.522,3.989,3.989,0,0,1,1.569-1.714,4.577,4.577,0,0,1,2.377-.606,4.33,4.33,0,0,1,3.142,1.178,4.727,4.727,0,0,1,1.358,3.2l.018.65a4.97,4.97,0,0,1-1.222,3.511,4.735,4.735,0,0,1-6.561,0,5.058,5.058,0,0,1-1.226-3.586Zm2.54.18a3.555,3.555,0,0,0,.51,2.073,1.831,1.831,0,0,0,2.9.009,3.89,3.89,0,0,0,.519-2.267,3.519,3.519,0,0,0-.519-2.06,1.686,1.686,0,0,0-1.459-.731,1.658,1.658,0,0,0-1.441.726A3.955,3.955,0,0,0,130.966,12.338ZM133.418,3.5h2.769l-2.435,2.725h-2.065Zm7.919,3.99.079,1.1a3.32,3.32,0,0,1,2.733-1.274,2.759,2.759,0,0,1,2.25.888,4.142,4.142,0,0,1,.756,2.654V17h-2.54V10.9a1.654,1.654,0,0,0-.352-1.176,1.572,1.572,0,0,0-1.169-.366,1.747,1.747,0,0,0-1.608.916V17h-2.54V7.49Z" transform="translate(1098.667 8693)" fill="#12263f"/>
    <path id="Trazado_109309" data-name="Trazado 109309" d="M11,0H357a11,11,0,0,1,11,11V59a11,11,0,0,1-11,11H11A11,11,0,0,1,0,59V11A11,11,0,0,1,11,0Z" transform="translate(610 8024)" fill="#ff9800"/>
    <path id="Trazado_109311" data-name="Trazado 109311" d="M11,0H194a11,11,0,0,1,11,11V47a11,11,0,0,1-11,11H11A11,11,0,0,1,0,47V11A11,11,0,0,1,11,0Z" transform="translate(692.667 8147)" fill="#ffd494"/>
    <path id="Trazado_109312" data-name="Trazado 109312" d="M29.392,11.437H24.329v3.445h5.941V17H21.692V4.2h8.561V6.339H24.329v3.05h5.063Zm6.047,3.691a1.666,1.666,0,0,0,1.143-.387,1.355,1.355,0,0,0,.457-1.028H39.42a3.258,3.258,0,0,1-.527,1.771,3.48,3.48,0,0,1-1.419,1.248,4.442,4.442,0,0,1-1.991.444,4.129,4.129,0,0,1-3.217-1.3A5.13,5.13,0,0,1,31.088,12.3v-.167a5.071,5.071,0,0,1,1.169-3.507,4.08,4.08,0,0,1,3.208-1.31A4,4,0,0,1,38.326,8.33a3.594,3.594,0,0,1,1.094,2.7H37.038a1.745,1.745,0,0,0-.457-1.206,1.7,1.7,0,0,0-2.5.183,3.749,3.749,0,0,0-.453,2.1v.264a3.8,3.8,0,0,0,.448,2.113A1.549,1.549,0,0,0,35.438,15.128Zm5.036-2.971a5.64,5.64,0,0,1,.545-2.522,3.989,3.989,0,0,1,1.569-1.714,4.577,4.577,0,0,1,2.377-.606,4.33,4.33,0,0,1,3.142,1.178,4.727,4.727,0,0,1,1.358,3.2l.018.65a4.97,4.97,0,0,1-1.222,3.511,4.735,4.735,0,0,1-6.561,0,5.058,5.058,0,0,1-1.226-3.586Zm2.54.18a3.555,3.555,0,0,0,.51,2.073,1.831,1.831,0,0,0,2.9.009,3.89,3.89,0,0,0,.519-2.267,3.519,3.519,0,0,0-.519-2.06,1.686,1.686,0,0,0-1.459-.731,1.658,1.658,0,0,0-1.441.726A3.955,3.955,0,0,0,43.015,12.338ZM56.2,14.372a.818.818,0,0,0-.461-.734,5.241,5.241,0,0,0-1.481-.479q-3.393-.712-3.393-2.883a2.613,2.613,0,0,1,1.05-2.114,4.237,4.237,0,0,1,2.747-.848,4.56,4.56,0,0,1,2.9.853,2.687,2.687,0,0,1,1.085,2.215H56.1a1.229,1.229,0,0,0-.352-.9,1.488,1.488,0,0,0-1.1-.356,1.52,1.52,0,0,0-.993.29.916.916,0,0,0-.352.738.783.783,0,0,0,.4.681,4.114,4.114,0,0,0,1.349.448,11.019,11.019,0,0,1,1.6.426,2.628,2.628,0,0,1,2.013,2.558,2.481,2.481,0,0,1-1.116,2.1,4.815,4.815,0,0,1-2.883.8,5.029,5.029,0,0,1-2.123-.426,3.561,3.561,0,0,1-1.455-1.169,2.716,2.716,0,0,1-.527-1.6h2.408a1.326,1.326,0,0,0,.5,1.037,1.987,1.987,0,0,0,1.248.36,1.839,1.839,0,0,0,1.1-.277A.861.861,0,0,0,56.2,14.372ZM62.983,17H60.435V7.49h2.549Zm-2.7-11.971a1.251,1.251,0,0,1,.382-.94,1.648,1.648,0,0,1,2.079,0,1.244,1.244,0,0,1,.387.94,1.247,1.247,0,0,1-.391.949,1.629,1.629,0,0,1-2.065,0A1.247,1.247,0,0,1,60.285,5.029Zm9.94,9.343a.818.818,0,0,0-.461-.734,5.241,5.241,0,0,0-1.481-.479q-3.393-.712-3.393-2.883a2.613,2.613,0,0,1,1.05-2.114,4.237,4.237,0,0,1,2.747-.848,4.56,4.56,0,0,1,2.9.853,2.687,2.687,0,0,1,1.085,2.215h-2.54a1.229,1.229,0,0,0-.352-.9,1.488,1.488,0,0,0-1.1-.356,1.52,1.52,0,0,0-.993.29.916.916,0,0,0-.352.738.783.783,0,0,0,.4.681,4.114,4.114,0,0,0,1.349.448,11.019,11.019,0,0,1,1.6.426A2.628,2.628,0,0,1,72.7,14.267a2.481,2.481,0,0,1-1.116,2.1,4.815,4.815,0,0,1-2.883.8,5.029,5.029,0,0,1-2.123-.426,3.561,3.561,0,0,1-1.455-1.169,2.716,2.716,0,0,1-.527-1.6H67a1.326,1.326,0,0,0,.5,1.037,1.987,1.987,0,0,0,1.248.36,1.839,1.839,0,0,0,1.1-.277A.861.861,0,0,0,70.226,14.372Zm7.146-9.22V7.49H79V9.354H77.371V14.1a1.133,1.133,0,0,0,.2.756,1.015,1.015,0,0,0,.773.229,4.051,4.051,0,0,0,.747-.062v1.925a5.229,5.229,0,0,1-1.538.229,2.425,2.425,0,0,1-2.725-2.7V9.354H73.442V7.49h1.389V5.152Zm7.418,12.023a4.668,4.668,0,0,1-3.406-1.283,4.561,4.561,0,0,1-1.314-3.419v-.246a5.745,5.745,0,0,1,.554-2.562,4.064,4.064,0,0,1,1.569-1.74,4.4,4.4,0,0,1,2.316-.611,3.947,3.947,0,0,1,3.072,1.23A5,5,0,0,1,88.7,12.034v1.037H82.645a2.36,2.36,0,0,0,.743,1.494,2.245,2.245,0,0,0,1.569.563,2.742,2.742,0,0,0,2.294-1.063l1.248,1.4a3.813,3.813,0,0,1-1.547,1.261A5.075,5.075,0,0,1,84.789,17.176ZM84.5,9.362a1.587,1.587,0,0,0-1.226.512,2.651,2.651,0,0,0-.6,1.466H86.2v-.2a1.891,1.891,0,0,0-.457-1.311A1.638,1.638,0,0,0,84.5,9.362ZM92.523,7.49,92.6,8.554a3.342,3.342,0,0,1,2.733-1.239,2.536,2.536,0,0,1,2.522,1.45,3.265,3.265,0,0,1,2.856-1.45,2.836,2.836,0,0,1,2.3.9,4.141,4.141,0,0,1,.756,2.711V17h-2.549V10.922a1.818,1.818,0,0,0-.316-1.185,1.4,1.4,0,0,0-1.116-.374,1.585,1.585,0,0,0-1.582,1.092L98.219,17h-2.54V10.93a1.8,1.8,0,0,0-.325-1.2,1.414,1.414,0,0,0-1.107-.37,1.645,1.645,0,0,0-1.564.9V17h-2.54V7.49ZM111.235,17a2.821,2.821,0,0,1-.255-.853,3.073,3.073,0,0,1-2.4,1.028,3.376,3.376,0,0,1-2.316-.809,2.6,2.6,0,0,1-.918-2.039,2.687,2.687,0,0,1,1.121-2.32,5.529,5.529,0,0,1,3.239-.817h1.169v-.545a1.567,1.567,0,0,0-.338-1.055,1.331,1.331,0,0,0-1.068-.4,1.513,1.513,0,0,0-1.006.308,1.045,1.045,0,0,0-.365.844h-2.54a2.551,2.551,0,0,1,.51-1.529,3.37,3.37,0,0,1,1.441-1.1,5.253,5.253,0,0,1,2.092-.4,4.15,4.15,0,0,1,2.791.883,3.09,3.09,0,0,1,1.033,2.483V14.8a4.546,4.546,0,0,0,.378,2.048V17Zm-2.1-1.767a2.188,2.188,0,0,0,1.037-.25,1.645,1.645,0,0,0,.7-.672V12.676h-.949q-1.907,0-2.03,1.318l-.009.149a1.017,1.017,0,0,0,.334.782A1.3,1.3,0,0,0,109.135,15.233Zm10.327-3.059a5.731,5.731,0,0,1,1-3.542,3.237,3.237,0,0,1,2.729-1.318,2.913,2.913,0,0,1,2.294,1.037V3.5h2.549V17h-2.294l-.123-1.011a2.989,2.989,0,0,1-2.443,1.187,3.228,3.228,0,0,1-2.694-1.323A5.916,5.916,0,0,1,119.462,12.175Zm2.54.181a3.775,3.775,0,0,0,.466,2.057,1.516,1.516,0,0,0,1.354.715,1.7,1.7,0,0,0,1.661-1V10.36a1.675,1.675,0,0,0-1.644-1Q122,9.362,122,12.356Zm12.375,4.82a4.668,4.668,0,0,1-3.406-1.283,4.561,4.561,0,0,1-1.314-3.419v-.246a5.745,5.745,0,0,1,.554-2.562,4.064,4.064,0,0,1,1.569-1.74,4.4,4.4,0,0,1,2.316-.611,3.947,3.947,0,0,1,3.072,1.23,5,5,0,0,1,1.121,3.489v1.037h-6.056a2.36,2.36,0,0,0,.743,1.494,2.245,2.245,0,0,0,1.569.563,2.742,2.742,0,0,0,2.294-1.063l1.248,1.4a3.813,3.813,0,0,1-1.547,1.261A5.075,5.075,0,0,1,134.377,17.176Zm-.29-7.813a1.587,1.587,0,0,0-1.226.512,2.651,2.651,0,0,0-.6,1.466h3.533v-.2a1.891,1.891,0,0,0-.457-1.311A1.638,1.638,0,0,0,134.087,9.362Zm9.729,2.813a5.731,5.731,0,0,1,1-3.542,3.237,3.237,0,0,1,2.729-1.318,2.913,2.913,0,0,1,2.294,1.037V3.5h2.549V17h-2.294l-.123-1.011a2.989,2.989,0,0,1-2.443,1.187,3.228,3.228,0,0,1-2.694-1.323A5.916,5.916,0,0,1,143.816,12.175Zm2.54.181a3.775,3.775,0,0,0,.466,2.057,1.516,1.516,0,0,0,1.354.715,1.7,1.7,0,0,0,1.661-1V10.36a1.675,1.675,0,0,0-1.644-1Q146.356,9.362,146.356,12.356ZM157.035,17h-2.549V7.49h2.549Zm-2.7-11.971a1.251,1.251,0,0,1,.382-.94,1.648,1.648,0,0,1,2.079,0,1.244,1.244,0,0,1,.387.94,1.247,1.247,0,0,1-.391.949,1.629,1.629,0,0,1-2.065,0A1.247,1.247,0,0,1,154.337,5.029Zm9.94,9.343a.818.818,0,0,0-.461-.734,5.241,5.241,0,0,0-1.481-.479q-3.393-.712-3.393-2.883a2.613,2.613,0,0,1,1.05-2.114,4.237,4.237,0,0,1,2.747-.848,4.56,4.56,0,0,1,2.9.853,2.687,2.687,0,0,1,1.085,2.215h-2.54a1.229,1.229,0,0,0-.352-.9,1.488,1.488,0,0,0-1.1-.356,1.52,1.52,0,0,0-.993.29.916.916,0,0,0-.352.738.783.783,0,0,0,.4.681,4.114,4.114,0,0,0,1.349.448,11.019,11.019,0,0,1,1.6.426,2.628,2.628,0,0,1,2.013,2.558,2.481,2.481,0,0,1-1.116,2.1,4.815,4.815,0,0,1-2.883.8,5.029,5.029,0,0,1-2.123-.426,3.561,3.561,0,0,1-1.455-1.169,2.716,2.716,0,0,1-.527-1.6h2.408a1.326,1.326,0,0,0,.5,1.037,1.987,1.987,0,0,0,1.248.36,1.839,1.839,0,0,0,1.1-.277A.861.861,0,0,0,164.277,14.372Zm7.146-9.22V7.49h1.626V9.354h-1.626V14.1a1.133,1.133,0,0,0,.2.756,1.015,1.015,0,0,0,.773.229,4.051,4.051,0,0,0,.747-.062v1.925a5.229,5.229,0,0,1-1.538.229,2.425,2.425,0,0,1-2.725-2.7V9.354h-1.389V7.49h1.389V5.152Zm8.385,4.72a6.9,6.9,0,0,0-.914-.07,1.86,1.86,0,0,0-1.89.976V17h-2.54V7.49h2.4l.07,1.134a2.354,2.354,0,0,1,2.118-1.31,2.662,2.662,0,0,1,.791.114ZM183.71,17h-2.549V7.49h2.549Zm-2.7-11.971a1.251,1.251,0,0,1,.382-.94,1.648,1.648,0,0,1,2.079,0,1.244,1.244,0,0,1,.387.94,1.247,1.247,0,0,1-.391.949,1.629,1.629,0,0,1-2.065,0A1.247,1.247,0,0,1,181.012,5.029Zm13.359,7.3A5.758,5.758,0,0,1,193.4,15.9a3.231,3.231,0,0,1-2.725,1.279,2.969,2.969,0,0,1-2.47-1.187L188.087,17H185.8V3.5h2.54V8.343a2.893,2.893,0,0,1,2.312-1.028,3.258,3.258,0,0,1,2.729,1.279,5.767,5.767,0,0,1,.989,3.6Zm-2.54-.194a3.8,3.8,0,0,0-.457-2.111,1.544,1.544,0,0,0-1.362-.666,1.675,1.675,0,0,0-1.67,1v3.764a1.7,1.7,0,0,0,1.688,1,1.569,1.569,0,0,0,1.617-1.217A6.294,6.294,0,0,0,191.831,12.139Zm9.8,3.894a3.185,3.185,0,0,1-2.6,1.143A3,3,0,0,1,196.7,16.3a3.752,3.752,0,0,1-.822-2.575V7.49h2.54v6.151q0,1.487,1.354,1.487a1.834,1.834,0,0,0,1.775-.9V7.49h2.549V17H201.7Zm8.332-.905a1.666,1.666,0,0,0,1.143-.387,1.355,1.355,0,0,0,.457-1.028h2.382a3.258,3.258,0,0,1-.527,1.771A3.48,3.48,0,0,1,212,16.732a4.442,4.442,0,0,1-1.991.444,4.129,4.129,0,0,1-3.217-1.3,5.13,5.13,0,0,1-1.178-3.582v-.167a5.071,5.071,0,0,1,1.169-3.507,4.08,4.08,0,0,1,3.208-1.31A4,4,0,0,1,212.85,8.33a3.594,3.594,0,0,1,1.094,2.7h-2.382a1.745,1.745,0,0,0-.457-1.206,1.7,1.7,0,0,0-2.5.183,3.749,3.749,0,0,0-.453,2.1v.264a3.8,3.8,0,0,0,.448,2.113A1.549,1.549,0,0,0,209.963,15.128ZM218.075,17h-2.549V7.49h2.549Zm-2.7-11.971a1.251,1.251,0,0,1,.382-.94,1.648,1.648,0,0,1,2.079,0,1.244,1.244,0,0,1,.387.94,1.247,1.247,0,0,1-.391.949,1.629,1.629,0,0,1-2.065,0A1.247,1.247,0,0,1,215.377,5.029Zm4.395,7.128a5.64,5.64,0,0,1,.545-2.522,3.989,3.989,0,0,1,1.569-1.714,4.577,4.577,0,0,1,2.377-.606A4.33,4.33,0,0,1,227.4,8.492a4.727,4.727,0,0,1,1.358,3.2l.018.65a4.97,4.97,0,0,1-1.222,3.511,4.735,4.735,0,0,1-6.561,0,5.058,5.058,0,0,1-1.226-3.586Zm2.54.18a3.555,3.555,0,0,0,.51,2.073,1.831,1.831,0,0,0,2.9.009,3.89,3.89,0,0,0,.519-2.267,3.519,3.519,0,0,0-.519-2.06,1.686,1.686,0,0,0-1.459-.731,1.658,1.658,0,0,0-1.441.726A3.955,3.955,0,0,0,222.312,12.338ZM224.764,3.5h2.769L225.1,6.225h-2.065Zm7.919,3.99.079,1.1A3.32,3.32,0,0,1,235.5,7.314a2.759,2.759,0,0,1,2.25.888,4.142,4.142,0,0,1,.756,2.654V17h-2.54V10.9a1.654,1.654,0,0,0-.352-1.176,1.572,1.572,0,0,0-1.169-.366,1.747,1.747,0,0,0-1.608.916V17h-2.54V7.49Z" transform="translate(664 8048)" fill="#fff"/>
    <path id="Trazado_109313" data-name="Trazado 109313" d="M11.194,17H8.654V7.2l-3.032.936V6.084l5.3-1.9h.272Zm4.395-1.248A1.279,1.279,0,0,1,16,14.768a1.588,1.588,0,0,1,2.057,0,1.279,1.279,0,0,1,.409.984,1.261,1.261,0,0,1-.4.971,1.614,1.614,0,0,1-2.065,0A1.261,1.261,0,0,1,15.588,15.752ZM28.781,4.2l3.287,9.281L35.337,4.2H38.8V17H36.155V13.5l.264-6.038L32.964,17H31.154L27.708,7.473l.264,6.029V17H25.335V4.2Zm11.76,7.954a5.64,5.64,0,0,1,.545-2.522,3.989,3.989,0,0,1,1.569-1.714,4.577,4.577,0,0,1,2.377-.606,4.33,4.33,0,0,1,3.142,1.178,4.727,4.727,0,0,1,1.358,3.2l.018.65a4.97,4.97,0,0,1-1.222,3.511,4.735,4.735,0,0,1-6.561,0,5.058,5.058,0,0,1-1.226-3.586Zm2.54.18a3.555,3.555,0,0,0,.51,2.073,1.831,1.831,0,0,0,2.9.009,3.89,3.89,0,0,0,.519-2.267,3.519,3.519,0,0,0-.519-2.06,1.686,1.686,0,0,0-1.459-.731,1.658,1.658,0,0,0-1.441.726A3.955,3.955,0,0,0,43.081,12.338Zm7.638-.163a5.731,5.731,0,0,1,1-3.542,3.237,3.237,0,0,1,2.729-1.318,2.913,2.913,0,0,1,2.294,1.037V3.5h2.549V17H56.994l-.123-1.011a2.989,2.989,0,0,1-2.443,1.187,3.228,3.228,0,0,1-2.694-1.323A5.916,5.916,0,0,1,50.718,12.175Zm2.54.181a3.775,3.775,0,0,0,.466,2.057,1.516,1.516,0,0,0,1.354.715,1.7,1.7,0,0,0,1.661-1V10.36a1.675,1.675,0,0,0-1.644-1Q53.258,9.362,53.258,12.356Zm13.693,3.678a3.185,3.185,0,0,1-2.6,1.143,3,3,0,0,1-2.333-.879,3.752,3.752,0,0,1-.822-2.575V7.49h2.54v6.151q0,1.487,1.354,1.487a1.834,1.834,0,0,0,1.775-.9V7.49h2.549V17H67.022ZM74.009,17H71.46V3.5h2.549Zm1.7-4.843a5.64,5.64,0,0,1,.545-2.522,3.989,3.989,0,0,1,1.569-1.714A4.577,4.577,0,0,1,80.2,7.314a4.33,4.33,0,0,1,3.142,1.178,4.727,4.727,0,0,1,1.358,3.2l.018.65a4.97,4.97,0,0,1-1.222,3.511,4.735,4.735,0,0,1-6.561,0,5.058,5.058,0,0,1-1.226-3.586Zm2.54.18a3.555,3.555,0,0,0,.51,2.073,1.831,1.831,0,0,0,2.9.009,3.89,3.89,0,0,0,.519-2.267,3.519,3.519,0,0,0-.519-2.06A1.686,1.686,0,0,0,80.2,9.362a1.658,1.658,0,0,0-1.441.726A3.955,3.955,0,0,0,78.246,12.338Zm12.12-.163a5.731,5.731,0,0,1,1-3.542,3.237,3.237,0,0,1,2.729-1.318,2.913,2.913,0,0,1,2.294,1.037V3.5h2.549V17H96.641l-.123-1.011a2.989,2.989,0,0,1-2.443,1.187,3.228,3.228,0,0,1-2.694-1.323A5.916,5.916,0,0,1,90.366,12.175Zm2.54.181a3.775,3.775,0,0,0,.466,2.057,1.516,1.516,0,0,0,1.354.715,1.7,1.7,0,0,0,1.661-1V10.36a1.675,1.675,0,0,0-1.644-1Q92.906,9.362,92.906,12.356Zm12.375,4.82a4.668,4.668,0,0,1-3.406-1.283,4.561,4.561,0,0,1-1.314-3.419v-.246a5.745,5.745,0,0,1,.554-2.562,4.064,4.064,0,0,1,1.569-1.74A4.4,4.4,0,0,1,105,7.314a3.947,3.947,0,0,1,3.072,1.23,5,5,0,0,1,1.121,3.489v1.037h-6.056a2.36,2.36,0,0,0,.743,1.494,2.245,2.245,0,0,0,1.569.563,2.742,2.742,0,0,0,2.294-1.063l1.248,1.4a3.813,3.813,0,0,1-1.547,1.261A5.075,5.075,0,0,1,105.281,17.176Zm-.29-7.813a1.587,1.587,0,0,0-1.226.512,2.651,2.651,0,0,0-.6,1.466H106.7v-.2a1.891,1.891,0,0,0-.457-1.311A1.638,1.638,0,0,0,104.991,9.362Zm15.469.51a6.9,6.9,0,0,0-.914-.07,1.86,1.86,0,0,0-1.89.976V17h-2.54V7.49h2.4l.07,1.134a2.354,2.354,0,0,1,2.118-1.31,2.662,2.662,0,0,1,.791.114Zm5.432,7.3a4.668,4.668,0,0,1-3.406-1.283,4.561,4.561,0,0,1-1.314-3.419v-.246a5.745,5.745,0,0,1,.554-2.562,4.064,4.064,0,0,1,1.569-1.74,4.4,4.4,0,0,1,2.316-.611,3.947,3.947,0,0,1,3.072,1.23,5,5,0,0,1,1.121,3.489v1.037h-6.056a2.36,2.36,0,0,0,.743,1.494,2.245,2.245,0,0,0,1.569.563,2.742,2.742,0,0,0,2.294-1.063l1.248,1.4a3.813,3.813,0,0,1-1.547,1.261A5.075,5.075,0,0,1,125.891,17.176Zm-.29-7.813a1.587,1.587,0,0,0-1.226.512,2.651,2.651,0,0,0-.6,1.466h3.533v-.2a1.891,1.891,0,0,0-.457-1.311A1.638,1.638,0,0,0,125.6,9.362Zm10.793,5.01a.818.818,0,0,0-.461-.734,5.241,5.241,0,0,0-1.481-.479q-3.393-.712-3.393-2.883a2.613,2.613,0,0,1,1.05-2.114,4.237,4.237,0,0,1,2.747-.848,4.56,4.56,0,0,1,2.9.853,2.687,2.687,0,0,1,1.085,2.215H136.3a1.229,1.229,0,0,0-.352-.9,1.488,1.488,0,0,0-1.1-.356,1.52,1.52,0,0,0-.993.29.916.916,0,0,0-.352.738.783.783,0,0,0,.4.681,4.114,4.114,0,0,0,1.349.448,11.019,11.019,0,0,1,1.6.426,2.628,2.628,0,0,1,2.013,2.558,2.481,2.481,0,0,1-1.116,2.1,4.815,4.815,0,0,1-2.883.8,5.029,5.029,0,0,1-2.123-.426,3.561,3.561,0,0,1-1.455-1.169,2.716,2.716,0,0,1-.527-1.6h2.408a1.326,1.326,0,0,0,.5,1.037,1.987,1.987,0,0,0,1.248.36,1.839,1.839,0,0,0,1.1-.277A.861.861,0,0,0,136.394,14.372Zm8.481,2.8a4.668,4.668,0,0,1-3.406-1.283,4.561,4.561,0,0,1-1.314-3.419v-.246a5.745,5.745,0,0,1,.554-2.562,4.064,4.064,0,0,1,1.569-1.74,4.4,4.4,0,0,1,2.316-.611,3.947,3.947,0,0,1,3.072,1.23,5,5,0,0,1,1.121,3.489v1.037h-6.056a2.36,2.36,0,0,0,.743,1.494,2.245,2.245,0,0,0,1.569.563,2.742,2.742,0,0,0,2.294-1.063l1.248,1.4a3.813,3.813,0,0,1-1.547,1.261A5.075,5.075,0,0,1,144.875,17.176Zm-.29-7.813a1.587,1.587,0,0,0-1.226.512,2.651,2.651,0,0,0-.6,1.466h3.533v-.2a1.891,1.891,0,0,0-.457-1.311A1.638,1.638,0,0,0,144.585,9.362Zm10.986.51a6.9,6.9,0,0,0-.914-.07,1.86,1.86,0,0,0-1.89.976V17h-2.54V7.49h2.4l.07,1.134a2.354,2.354,0,0,1,2.118-1.31,2.662,2.662,0,0,1,.791.114Zm4.939,4.025,1.767-6.407h2.654L161.724,17H159.3L156.09,7.49h2.654ZM171.427,17a2.821,2.821,0,0,1-.255-.853,3.073,3.073,0,0,1-2.4,1.028,3.376,3.376,0,0,1-2.316-.809,2.6,2.6,0,0,1-.918-2.039,2.687,2.687,0,0,1,1.121-2.32,5.529,5.529,0,0,1,3.239-.817h1.169v-.545a1.567,1.567,0,0,0-.338-1.055,1.331,1.331,0,0,0-1.068-.4,1.513,1.513,0,0,0-1.006.308,1.045,1.045,0,0,0-.365.844h-2.54a2.551,2.551,0,0,1,.51-1.529,3.37,3.37,0,0,1,1.441-1.1,5.253,5.253,0,0,1,2.092-.4,4.15,4.15,0,0,1,2.791.883,3.09,3.09,0,0,1,1.033,2.483V14.8a4.546,4.546,0,0,0,.378,2.048V17Zm-2.1-1.767a2.188,2.188,0,0,0,1.037-.25,1.645,1.645,0,0,0,.7-.672V12.676h-.949q-1.907,0-2.03,1.318l-.009.149a1.017,1.017,0,0,0,.334.782A1.3,1.3,0,0,0,169.327,15.233Zm11.391-.861a.818.818,0,0,0-.461-.734,5.241,5.241,0,0,0-1.481-.479q-3.393-.712-3.393-2.883a2.613,2.613,0,0,1,1.05-2.114,4.237,4.237,0,0,1,2.747-.848,4.56,4.56,0,0,1,2.9.853,2.687,2.687,0,0,1,1.085,2.215h-2.54a1.229,1.229,0,0,0-.352-.9,1.488,1.488,0,0,0-1.1-.356,1.52,1.52,0,0,0-.993.29.916.916,0,0,0-.352.738.783.783,0,0,0,.4.681,4.114,4.114,0,0,0,1.349.448,11.019,11.019,0,0,1,1.6.426,2.628,2.628,0,0,1,2.013,2.558,2.481,2.481,0,0,1-1.116,2.1,4.815,4.815,0,0,1-2.883.8,5.029,5.029,0,0,1-2.123-.426,3.561,3.561,0,0,1-1.455-1.169,2.716,2.716,0,0,1-.527-1.6h2.408a1.326,1.326,0,0,0,.5,1.037,1.987,1.987,0,0,0,1.248.36,1.839,1.839,0,0,0,1.1-.277A.861.861,0,0,0,180.717,14.372Z" transform="translate(700.667 8397)" fill="#12263f"/>
    <path id="Trazado_104909" data-name="Trazado 104909" d="M18.424,123.419a56.952,56.952,0,1,0,56.952-56.93A56.954,56.954,0,0,0,18.424,123.419Z" transform="translate(442.052 8688.791)" fill="#fff1db"/>
    <g id="Grupo_58530" data-name="Grupo 58530" transform="translate(459.036 8753.809)">
      <path id="Trazado_104910" data-name="Trazado 104910" d="M18.29,124.754a58.4,58.4,0,1,1,58.381,58.413A58.463,58.463,0,0,1,18.29,124.754Zm5.8,0a52.6,52.6,0,1,0,52.579-52.6A52.655,52.655,0,0,0,24.092,124.754Z" transform="translate(-18.29 -66.352)" fill="#ffd494"/>
    </g>
    <path id="Trazado_104911" data-name="Trazado 104911" d="M18.424,87.837a56.952,56.952,0,1,0,56.952-56.93A56.954,56.954,0,0,0,18.424,87.837Z" transform="translate(442.052 8342.096)" fill="#fff1db"/>
    <g id="Grupo_58531" data-name="Grupo 58531" transform="translate(459.036 8371.521)">
      <path id="Trazado_104912" data-name="Trazado 104912" d="M18.29,89.182a58.4,58.4,0,1,1,58.381,58.413A58.472,58.472,0,0,1,18.29,89.182Zm5.8,0a52.6,52.6,0,1,0,52.579-52.6A52.646,52.646,0,0,0,24.092,89.182Z" transform="translate(-18.29 -30.769)" fill="#ffd494"/>
    </g>
    <path id="Trazado_104913" data-name="Trazado 104913" d="M8.676,106.209a56.952,56.952,0,1,0,56.952-56.93A56.954,56.954,0,0,0,8.676,106.209Z" transform="translate(347.071 8521.104)" fill="#fff1db"/>
    <g id="Grupo_58532" data-name="Grupo 58532" transform="translate(354.308 8568.912)">
      <path id="Trazado_104914" data-name="Trazado 104914" d="M8.542,107.544a58.4,58.4,0,1,1,58.381,58.413A58.463,58.463,0,0,1,8.542,107.544Zm5.8,0a52.6,52.6,0,1,0,52.579-52.6A52.655,52.655,0,0,0,14.344,107.544Z" transform="translate(-8.542 -49.142)" fill="#ffd494"/>
    </g>
    <path id="Trazado_104915" data-name="Trazado 104915" d="M183.934,123.419a56.952,56.952,0,1,1-56.952-56.93A56.954,56.954,0,0,1,183.934,123.419Z" transform="translate(944.888 8688.791)" fill="#fff1db"/>
    <g id="Grupo_58533" data-name="Grupo 58533" transform="translate(1013.479 8753.809)">
      <path id="Trazado_104916" data-name="Trazado 104916" d="M128.3,183.167a58.407,58.407,0,1,1,58.391-58.413A58.469,58.469,0,0,1,128.3,183.167Zm0-111.013a52.611,52.611,0,1,0,52.59,52.6A52.678,52.678,0,0,0,128.3,72.154Z" transform="translate(-69.897 -66.352)" fill="#ffd494"/>
    </g>
    <path id="Trazado_104919" data-name="Trazado 104919" d="M183.934,87.837a56.952,56.952,0,1,1-56.952-56.93A56.954,56.954,0,0,1,183.934,87.837Z" transform="translate(944.888 8342.096)" fill="#fff1db"/>
    <g id="Grupo_58538" data-name="Grupo 58538" transform="translate(1013.479 8371.531)">
      <path id="Trazado_104920" data-name="Trazado 104920" d="M128.3,147.585A58.407,58.407,0,1,1,186.69,89.172,58.469,58.469,0,0,1,128.3,147.585Zm0-111.013a52.611,52.611,0,1,0,52.59,52.6A52.678,52.678,0,0,0,128.3,36.572Z" transform="translate(-69.897 -30.77)" fill="#ffd494"/>
    </g>
    <path id="Trazado_104921" data-name="Trazado 104921" d="M158.121,79.178a56.946,56.946,0,1,1-56.941-56.93A56.952,56.952,0,0,1,158.121,79.178Z" transform="translate(693.475 8257.727)" fill="#fff1db"/>
    <g id="Grupo_58539" data-name="Grupo 58539" transform="translate(736.252 8278.492)">
      <path id="Trazado_104922" data-name="Trazado 104922" d="M102.506,138.925a58.407,58.407,0,1,1,58.381-58.4A58.469,58.469,0,0,1,102.506,138.925Zm0-111.013a52.611,52.611,0,1,0,52.579,52.611A52.681,52.681,0,0,0,102.506,27.912Z" transform="translate(-44.093 -22.11)" fill="#ffd494"/>
    </g>
    <path id="Trazado_104923" data-name="Trazado 104923" d="M240.1,145.242A100.006,100.006,0,1,1,140.093,45.273,100.013,100.013,0,0,1,240.1,145.242Z" transform="translate(653.175 8482.072)" fill="#ff4600"/>
    <g id="Grupo_58540" data-name="Grupo 58540" transform="translate(690.721 8524.745)">
      <path id="Trazado_104924" data-name="Trazado 104924" d="M142.424,250.169A102.569,102.569,0,1,1,244.95,147.6,102.674,102.674,0,0,1,142.424,250.169Zm0-194.942A92.384,92.384,0,1,0,234.765,147.6,92.491,92.491,0,0,0,142.424,55.227Z" transform="translate(-39.855 -45.031)" fill="#e5e5e7"/>
    </g>
    <path id="Trazado_104925" data-name="Trazado 104925" d="M193.682,106.209a56.952,56.952,0,1,1-56.952-56.93A56.954,56.954,0,0,1,193.682,106.209Z" transform="translate(1040.221 8520.721)" fill="#fff1db"/>
    <g id="Grupo_58541" data-name="Grupo 58541" transform="translate(1118.207 8568.912)">
      <path id="Trazado_104926" data-name="Trazado 104926" d="M138.047,165.957a58.407,58.407,0,1,1,58.391-58.413A58.469,58.469,0,0,1,138.047,165.957Zm0-111.013a52.611,52.611,0,1,0,52.59,52.6A52.669,52.669,0,0,0,138.047,54.944Z" transform="translate(-79.645 -49.142)" fill="#ffd494"/>
    </g>
    <path id="Trazado_109315" data-name="Trazado 109315" d="M29.234,29.869V40h-7.2V10.141H33.951a13.878,13.878,0,0,1,6.06,1.261,9.505,9.505,0,0,1,4.081,3.589,9.8,9.8,0,0,1,1.446,5.281,8.64,8.64,0,0,1-3.127,6.983q-3.127,2.615-8.583,2.615Zm0-5.558h4.717a4.448,4.448,0,0,0,3.189-1.046,3.886,3.886,0,0,0,1.1-2.953,4.8,4.8,0,0,0-1.128-3.343A3.994,3.994,0,0,0,34.033,15.7h-4.8ZM58.827,10.141l6.665,20.774,6.645-20.774h9.475V40H74.393V33.027l.7-14.273L67.871,40H63.113L55.874,18.733l.7,14.294V40h-7.2V10.141Zm42.759,21.923a2.958,2.958,0,0,0-1.118-2.461,13.892,13.892,0,0,0-3.927-1.825,37.677,37.677,0,0,1-4.594-1.825q-5.8-2.851-5.8-7.834a7.025,7.025,0,0,1,1.446-4.378,9.351,9.351,0,0,1,4.091-2.953A15.921,15.921,0,0,1,97.628,9.73a13.927,13.927,0,0,1,5.773,1.148,9.14,9.14,0,0,1,3.968,3.271A8.542,8.542,0,0,1,108.784,19h-7.178a3.61,3.61,0,0,0-1.118-2.83,4.356,4.356,0,0,0-3.025-1,4.913,4.913,0,0,0-3.045.851,2.506,2.506,0,0,0,.113,4.245,15.517,15.517,0,0,0,4.327,1.928,26.508,26.508,0,0,1,5.086,2.143q4.84,2.789,4.84,7.69a7.291,7.291,0,0,1-2.953,6.152q-2.953,2.235-8.1,2.235a16.071,16.071,0,0,1-6.573-1.3,9.91,9.91,0,0,1-4.43-3.568,9.3,9.3,0,0,1-1.487-5.219H92.46A4.579,4.579,0,0,0,93.7,33.858,5.865,5.865,0,0,0,97.73,35a4.633,4.633,0,0,0,2.82-.769A2.538,2.538,0,0,0,101.586,32.063Z" transform="translate(729.667 8599)" fill="#fff"/>
    <path id="Trazado_109314" data-name="Trazado 109314" d="M35.568,12.939a4.708,4.708,0,0,1-1.5,3.133,4.911,4.911,0,0,1-3.353,1.1,4.509,4.509,0,0,1-3.634-1.626A6.542,6.542,0,0,1,25.716,11.2V9.969a7.291,7.291,0,0,1,.637-3.138,4.76,4.76,0,0,1,1.806-2.079,5.029,5.029,0,0,1,2.707-.725,4.624,4.624,0,0,1,3.27,1.138,4.765,4.765,0,0,1,1.433,3.151h-1.7a3.677,3.677,0,0,0-.954-2.222,2.885,2.885,0,0,0-2.052-.688,3.019,3.019,0,0,0-2.536,1.2,5.492,5.492,0,0,0-.918,3.4v1.24a5.645,5.645,0,0,0,.87,3.316A2.812,2.812,0,0,0,30.717,15.8a3.247,3.247,0,0,0,2.158-.637,3.536,3.536,0,0,0,1-2.219Zm3.674-4.3a3.457,3.457,0,0,1,2.813-1.327q3.015,0,3.041,3.4V17H43.47V10.707A2.189,2.189,0,0,0,43,9.187a1.884,1.884,0,0,0-1.437-.492,2.347,2.347,0,0,0-1.389.422,2.865,2.865,0,0,0-.932,1.107V17H37.616V3.5h1.626ZM53.4,17a3.416,3.416,0,0,1-.229-1,3.628,3.628,0,0,1-2.707,1.178,3.357,3.357,0,0,1-2.307-.8,2.573,2.573,0,0,1-.9-2.017,2.688,2.688,0,0,1,1.129-2.307,5.325,5.325,0,0,1,3.177-.822h1.582v-.747a1.826,1.826,0,0,0-.51-1.358,2.049,2.049,0,0,0-1.5-.505,2.371,2.371,0,0,0-1.459.439,1.3,1.3,0,0,0-.589,1.063H47.451a2.244,2.244,0,0,1,.505-1.375A3.449,3.449,0,0,1,49.328,7.7a4.613,4.613,0,0,1,1.9-.387,3.759,3.759,0,0,1,2.575.822,2.964,2.964,0,0,1,.967,2.263v4.377a5.351,5.351,0,0,0,.334,2.083V17Zm-2.7-1.239a2.858,2.858,0,0,0,1.45-.4,2.392,2.392,0,0,0,.993-1.028V12.386H51.872q-2.988,0-2.988,1.749a1.48,1.48,0,0,0,.51,1.2A1.959,1.959,0,0,0,50.7,15.761ZM58.859,7.49l.053,1.2A3.465,3.465,0,0,1,61.76,7.314q3.015,0,3.041,3.4V17H63.175V10.707a2.189,2.189,0,0,0-.47-1.521,1.884,1.884,0,0,0-1.437-.492,2.347,2.347,0,0,0-1.389.422,2.865,2.865,0,0,0-.932,1.107V17H57.321V7.49Zm9.932,0,.053,1.2a3.465,3.465,0,0,1,2.848-1.371q3.015,0,3.041,3.4V17H73.106V10.707a2.189,2.189,0,0,0-.47-1.521A1.884,1.884,0,0,0,71.2,8.694a2.347,2.347,0,0,0-1.389.422,2.865,2.865,0,0,0-.932,1.107V17H67.253V7.49Zm12.34,9.686a4.155,4.155,0,0,1-3.146-1.27,4.714,4.714,0,0,1-1.213-3.4v-.3a5.707,5.707,0,0,1,.541-2.527,4.217,4.217,0,0,1,1.512-1.74,3.8,3.8,0,0,1,2.1-.628,3.562,3.562,0,0,1,2.883,1.222,5.289,5.289,0,0,1,1.028,3.5v.677H78.4a3.38,3.38,0,0,0,.822,2.272,2.583,2.583,0,0,0,2,.866,2.832,2.832,0,0,0,1.459-.352,3.666,3.666,0,0,0,1.046-.932l.993.773A3.993,3.993,0,0,1,81.131,17.176Zm-.2-8.525a2.169,2.169,0,0,0-1.652.716,3.482,3.482,0,0,0-.826,2.008h4.764v-.123a3.1,3.1,0,0,0-.668-1.92A2.042,2.042,0,0,0,80.929,8.65ZM88.487,17H86.861V3.5h1.626Zm8.587-9.51.044,1.055a3.512,3.512,0,0,1,2.821-1.23,2.719,2.719,0,0,1,2.716,1.529,3.6,3.6,0,0,1,1.235-1.107,3.647,3.647,0,0,1,1.8-.422q3.129,0,3.182,3.313V17h-1.626V10.725a2.184,2.184,0,0,0-.466-1.525,2.051,2.051,0,0,0-1.564-.505,2.156,2.156,0,0,0-1.5.541,2.193,2.193,0,0,0-.694,1.455V17h-1.635V10.769a1.814,1.814,0,0,0-2.03-2.074,2.175,2.175,0,0,0-2.188,1.362V17H95.536V7.49ZM117.192,17a3.416,3.416,0,0,1-.229-1,3.628,3.628,0,0,1-2.707,1.178,3.357,3.357,0,0,1-2.307-.8,2.573,2.573,0,0,1-.9-2.017,2.688,2.688,0,0,1,1.129-2.307,5.325,5.325,0,0,1,3.177-.822h1.582v-.747a1.826,1.826,0,0,0-.51-1.358,2.049,2.049,0,0,0-1.5-.505,2.371,2.371,0,0,0-1.459.439,1.3,1.3,0,0,0-.589,1.063h-1.635a2.244,2.244,0,0,1,.505-1.375,3.449,3.449,0,0,1,1.371-1.05,4.613,4.613,0,0,1,1.9-.387,3.759,3.759,0,0,1,2.575.822,2.964,2.964,0,0,1,.967,2.263v4.377a5.351,5.351,0,0,0,.334,2.083V17Zm-2.7-1.239a2.858,2.858,0,0,0,1.45-.4,2.392,2.392,0,0,0,.993-1.028V12.386h-1.274q-2.988,0-2.988,1.749a1.48,1.48,0,0,0,.51,1.2A1.959,1.959,0,0,0,114.494,15.761ZM122.65,7.49l.053,1.2a3.465,3.465,0,0,1,2.848-1.371q3.015,0,3.041,3.4V17h-1.626V10.707a2.189,2.189,0,0,0-.47-1.521,1.884,1.884,0,0,0-1.437-.492,2.347,2.347,0,0,0-1.389.422,2.865,2.865,0,0,0-.932,1.107V17h-1.626V7.49ZM136.915,17a3.416,3.416,0,0,1-.229-1,3.628,3.628,0,0,1-2.707,1.178,3.357,3.357,0,0,1-2.307-.8,2.573,2.573,0,0,1-.9-2.017,2.688,2.688,0,0,1,1.129-2.307,5.325,5.325,0,0,1,3.177-.822h1.582v-.747a1.826,1.826,0,0,0-.51-1.358,2.049,2.049,0,0,0-1.5-.505,2.371,2.371,0,0,0-1.459.439,1.3,1.3,0,0,0-.589,1.063h-1.635a2.244,2.244,0,0,1,.505-1.375,3.449,3.449,0,0,1,1.371-1.05,4.613,4.613,0,0,1,1.9-.387,3.759,3.759,0,0,1,2.575.822,2.964,2.964,0,0,1,.967,2.263v4.377a5.351,5.351,0,0,0,.334,2.083V17Zm-2.7-1.239a2.858,2.858,0,0,0,1.45-.4,2.392,2.392,0,0,0,.993-1.028V12.386h-1.274q-2.988,0-2.988,1.749a1.48,1.48,0,0,0,.51,1.2A1.959,1.959,0,0,0,134.217,15.761Zm6.231-3.595a5.589,5.589,0,0,1,1.028-3.538,3.545,3.545,0,0,1,5.44-.083L147,7.49h1.485v9.281a3.869,3.869,0,0,1-1.094,2.909,4.038,4.038,0,0,1-2.94,1.063,4.891,4.891,0,0,1-2.013-.439,3.465,3.465,0,0,1-1.5-1.2l.844-.976a3.18,3.18,0,0,0,2.558,1.292,2.491,2.491,0,0,0,1.85-.668,2.553,2.553,0,0,0,.664-1.881v-.817a3.342,3.342,0,0,1-2.663,1.125,3.248,3.248,0,0,1-2.7-1.345A5.876,5.876,0,0,1,140.448,12.166Zm1.635.185a4.264,4.264,0,0,0,.659,2.527,2.142,2.142,0,0,0,1.846.918,2.382,2.382,0,0,0,2.259-1.4V10.057a2.41,2.41,0,0,0-2.241-1.362,2.161,2.161,0,0,0-1.854.923A4.644,4.644,0,0,0,142.083,12.351Zm12.8,4.825a4.155,4.155,0,0,1-3.146-1.27,4.714,4.714,0,0,1-1.213-3.4v-.3a5.707,5.707,0,0,1,.541-2.527,4.217,4.217,0,0,1,1.512-1.74,3.8,3.8,0,0,1,2.1-.628,3.562,3.562,0,0,1,2.883,1.222,5.289,5.289,0,0,1,1.028,3.5v.677h-6.442a3.38,3.38,0,0,0,.822,2.272,2.583,2.583,0,0,0,2,.866,2.832,2.832,0,0,0,1.459-.352,3.666,3.666,0,0,0,1.046-.932l.993.773A3.993,3.993,0,0,1,154.88,17.176Zm-.2-8.525a2.169,2.169,0,0,0-1.652.716,3.482,3.482,0,0,0-.826,2.008h4.764v-.123a3.1,3.1,0,0,0-.668-1.92A2.042,2.042,0,0,0,154.678,8.65Zm10.389.3a4.873,4.873,0,0,0-.8-.062A2.143,2.143,0,0,0,162.1,10.25V17H160.47V7.49h1.582l.026,1.1a2.532,2.532,0,0,1,2.268-1.274,1.661,1.661,0,0,1,.721.123Z" transform="translate(700.667 8165)" fill="#12263f"/>
    <g id="Grupo_58563" data-name="Grupo 58563" transform="translate(47.667 -1431)" opacity="0.3">
      <g id="Grupo_58535" data-name="Grupo 58535" transform="translate(836.485 9900.861)">
        <g id="Grupo_58534" data-name="Grupo 58534" transform="translate(0)">
          <path id="Trazado_104917" data-name="Trazado 104917" d="M195.329,40.83a2.155,2.155,0,0,1-.408,2.75L60.562,146.321a1.6,1.6,0,0,1-2.407-.569,2.226,2.226,0,0,1,.44-2.783L192.944,40.239A1.6,1.6,0,0,1,195.329,40.83Z" transform="translate(-57.859 -39.923)" fill="#707070"/>
        </g>
      </g>
      <g id="Grupo_58537" data-name="Grupo 58537" transform="translate(836.487 10110.931)">
        <g id="Grupo_58536" data-name="Grupo 58536">
          <path id="Trazado_104918" data-name="Trazado 104918" d="M58.176,60.383a2.155,2.155,0,0,0,.408,2.75L192.943,165.874a1.6,1.6,0,0,0,2.407-.569,2.226,2.226,0,0,0-.44-2.783L60.561,59.792A1.6,1.6,0,0,0,58.176,60.383Z" transform="translate(-57.86 -59.476)" fill="#707070"/>
        </g>
      </g>
      <rect id="Rectngulo_7424" data-name="Rectngulo 7424" width="224.712" height="4.48" transform="translate(848.939 10056.075)" fill="#707070"/>
      <g id="Grupo_58560" data-name="Grupo 58560" transform="translate(519.691 9900.861)">
        <g id="Grupo_58559" data-name="Grupo 58559">
          <path id="Trazado_104941" data-name="Trazado 104941" d="M28.689,40.83a2.155,2.155,0,0,0,.408,2.75l134.37,102.741a1.589,1.589,0,0,0,2.4-.569,2.226,2.226,0,0,0-.44-2.783L31.074,40.239A1.6,1.6,0,0,0,28.689,40.83Z" transform="translate(-28.373 -39.923)" fill="#707070"/>
        </g>
      </g>
      <g id="Grupo_58562" data-name="Grupo 58562" transform="translate(519.692 10110.931)">
        <g id="Grupo_58561" data-name="Grupo 58561">
          <path id="Trazado_104942" data-name="Trazado 104942" d="M165.851,60.383a2.17,2.17,0,0,1-.419,2.75L31.073,165.874a1.593,1.593,0,0,1-2.4-.569,2.211,2.211,0,0,1,.43-2.783L163.455,59.792A1.615,1.615,0,0,1,165.851,60.383Z" transform="translate(-28.373 -59.476)" fill="#707070"/>
        </g>
      </g>
      <rect id="Rectngulo_7425" data-name="Rectngulo 7425" width="224.712" height="4.48" transform="translate(420.314 10056.075)" fill="#707070"/>
      <rect id="Rectngulo_7426" data-name="Rectngulo 7426" width="4.48" height="102.744" transform="translate(744.743 9851.157)" fill="#707070"/>
      <rect id="Rectngulo_7427" data-name="Rectngulo 7427" width="4.48" height="65.744" transform="translate(744.743 9638.157)" fill="#707070"/>
      <rect id="Rectngulo_7428" data-name="Rectngulo 7428" width="4.48" height="45.744" transform="translate(744.743 9529.666)" fill="#707070"/>
      <path id="Trazado_104943" data-name="Trazado 104943" d="M-7997.667-1486.333h-158.75v-4h154.955V-2130h-385.205v-4h389Z" transform="translate(9240 11739)" fill="#707070"/>
    </g>
    <g id="Grupo_58565" data-name="Grupo 58565" opacity="0.6">
      <g id="reserva" transform="translate(756.733 8170.727)">
        <g id="Grupo_58507" data-name="Grupo 58507" transform="translate(0 149.333)">
          <g id="Grupo_58506" data-name="Grupo 58506">
            <path id="Trazado_104856" data-name="Trazado 104856" d="M75.638,172.063l-5.231-18.039a6.327,6.327,0,0,0-6.107-4.691H11.06a1.579,1.579,0,0,0-1.231.591C9.769,150,.651,166.692.651,166.692a5.361,5.361,0,0,0,4.706,7.922h9.352l.3,1.37a6.283,6.283,0,0,0,6.169,4.95h.052l48.836-1.579a5.771,5.771,0,0,0,5.567-7.291Zm-70.281-.609a2.2,2.2,0,0,1-2.2-2.2,2.227,2.227,0,0,1,.265-1.052l7-12.84,3.576,16.09ZM70.019,176.2l-48.858,1.578A3.138,3.138,0,0,1,18.1,175.3l-5.07-22.806H64.3a3.173,3.173,0,0,1,3.061,2.378L72.6,172.918a2.487,2.487,0,0,1,.086.665A2.628,2.628,0,0,1,70.019,176.2Z" transform="translate(0 -149.333)" fill="#ff4600"/>
            <path id="Trazado_104857" data-name="Trazado 104857" d="M204.879,225.982l-31.332.98a1.58,1.58,0,0,0,.049,3.159h.049l31.332-.981a1.578,1.578,0,0,0,1.531-1.628A1.53,1.53,0,0,0,204.879,225.982Z" transform="translate(-146.535 -214.622)" fill="#ff4600"/>
            <path id="Trazado_104858" data-name="Trazado 104858" d="M227.039,270.323l-21.991.685a1.58,1.58,0,0,0,.049,3.16c.015,0,.034,0,.049,0l21.991-.685a1.581,1.581,0,0,0,1.531-1.629A1.548,1.548,0,0,0,227.039,270.323Z" transform="translate(-173.37 -252.398)" fill="#ff4600"/>
          </g>
        </g>
      </g>
      <g id="recepcion" transform="translate(489.66 8397)">
        <path id="Trazado_104862" data-name="Trazado 104862" d="M53.8,144.784H52.552l-1.407-5.627a1.736,1.736,0,0,0-1.684-1.315H43.387v-2.6h5.206a1.735,1.735,0,0,0,0-3.471V130.9A20.853,20.853,0,0,0,29.5,110.147v-2.676h2.6a1.735,1.735,0,0,0,0-3.471H23.429a1.735,1.735,0,0,0,0,3.471h2.6v2.676A20.853,20.853,0,0,0,6.942,130.9v.868a1.735,1.735,0,0,0,0,3.471h5.206v2.6H6.074a1.735,1.735,0,0,0-1.684,1.315l-1.407,5.627H1.735a1.735,1.735,0,0,0,0,3.471H53.8a1.735,1.735,0,0,0,0-3.471ZM10.413,130.9a17.355,17.355,0,0,1,34.709,0v.868H10.413Zm5.206,4.339h24.3v2.6h-24.3Zm-9.058,9.545.868-3.471H48.106l.868,3.471Z" transform="translate(0 -92.719)" fill="#ff4600"/>
        <path id="Trazado_104863" data-name="Trazado 104863" d="M1.735,243.471H5.206a1.735,1.735,0,0,0,0-3.471H1.735a1.735,1.735,0,0,0,0,3.471Z" transform="translate(0 -213.968)" fill="#ff4600"/>
        <path id="Trazado_104864" data-name="Trazado 104864" d="M449.735,243.471h3.471a1.735,1.735,0,0,0,0-3.471h-3.471a1.735,1.735,0,0,0,0,3.471Z" transform="translate(-399.407 -213.968)" fill="#ff4600"/>
        <path id="Trazado_104865" data-name="Trazado 104865" d="M73.256,75.711a1.735,1.735,0,0,0,2.454-2.454L73.256,70.8A1.735,1.735,0,0,0,70.8,73.256Z" transform="translate(-62.669 -62.669)" fill="#ff4600"/>
        <path id="Trazado_104866" data-name="Trazado 104866" d="M388.8,76.221a1.73,1.73,0,0,0,1.227-.508l2.454-2.454a1.735,1.735,0,0,0-2.454-2.454l-2.454,2.454A1.737,1.737,0,0,0,388.8,76.221Z" transform="translate(-345.077 -62.671)" fill="#ff4600"/>
        <path id="Trazado_104867" data-name="Trazado 104867" d="M241.735,6.942a1.735,1.735,0,0,0,1.735-1.735V1.735a1.735,1.735,0,0,0-3.471,0V5.206A1.735,1.735,0,0,0,241.735,6.942Z" transform="translate(-213.968)" fill="#ff4600"/>
      </g>
      <g id="ama-de-llaves" transform="translate(1039.667 8396.287)">
        <path id="Trazado_104868" data-name="Trazado 104868" d="M49.363,39.621a1.391,1.391,0,0,0-.855-.321.9.9,0,0,0-.748.535c-.5,1.125-2.459,4.277-2.459,4.277l.855.855,4.384-4.384S49.644,39.875,49.363,39.621Z" transform="translate(2.445 2.446)" fill="#ff4600"/>
        <path id="Trazado_104869" data-name="Trazado 104869" d="M0,0H6.2V2.352H0Z" transform="translate(50 48.859) rotate(-45)" fill="#ff4600"/>
        <path id="Trazado_104870" data-name="Trazado 104870" d="M17,38.645l9.2-4.063a13.887,13.887,0,0,1-4.7-10.372V17.9A3.15,3.15,0,0,1,24.7,14.694h5.025a7.266,7.266,0,0,0,5.239-2.139l.535-.535a3.236,3.236,0,0,1,4.063-.428l3.956,2.673a3.344,3.344,0,0,1,1.39,2.673v7.271a13.718,13.718,0,0,1-4.7,10.372l9.2,4.063,2.566-2.566a2.067,2.067,0,0,0,0-2.994,1.476,1.476,0,0,0-.428-.321l-.214-.107a4.171,4.171,0,0,1-2.032-3.635V22.714A19.285,19.285,0,0,0,37.815,5a10.681,10.681,0,0,0-9.053-.035,19.437,19.437,0,0,0-8.42,7.137,19.222,19.222,0,0,0-3.128,10.505v6.309a4.171,4.171,0,0,1-2.032,3.635l-.214.107a2.121,2.121,0,0,0-.748,2.887c.107.107.214.321.321.428Z" transform="translate(0.271)" fill="#ff4600"/>
        <path id="Trazado_104871" data-name="Trazado 104871" d="M24.418,39.781a1.229,1.229,0,0,0,.962.642H39.815a1.028,1.028,0,0,0,.962-.642l1.818-3.635-4.812-2.139a17.113,17.113,0,0,1-2.352,1.069,7.165,7.165,0,0,1-5.56,0l-.214-.107A12.189,12.189,0,0,1,27.625,33.9L22.6,36.145Z" transform="translate(0.873 2.072)" fill="#ff4600"/>
        <path id="Trazado_104872" data-name="Trazado 104872" d="M49.109,52.35l.962-.962L44.083,45.4l-.962.962a1.034,1.034,0,0,0,0,1.5l4.491,4.491a1.034,1.034,0,0,0,1.5,0Z" transform="translate(2.271 2.869)" fill="#ff4600"/>
        <path id="Trazado_104873" data-name="Trazado 104873" d="M0,0H5.453V2.352H0Z" transform="translate(41.484 57.452) rotate(-45)" fill="#ff4600"/>
        <path id="Trazado_104874" data-name="Trazado 104874" d="M43.331,49.845a3.164,3.164,0,0,1,.107-4.384l1.6-1.6,2.78-4.919c.107-.214.321-.428.428-.642l-3.315-1.5-1.818,3.742A3.22,3.22,0,0,1,40.23,42.36H25.8a3.151,3.151,0,0,1-2.887-1.818L21.091,36.8,16.6,38.832l2.566,4.063A14.075,14.075,0,0,1,21.3,50.273V61.607H34.35a4.547,4.547,0,0,1-.214-1.176,3.317,3.317,0,0,1,.962-2.352Z" transform="translate(0.457 2.273)" fill="#ff4600"/>
        <path id="Trazado_104875" data-name="Trazado 104875" d="M50.841,53.5a3.164,3.164,0,0,1-4.384.107L39.4,60.665H55.011V50.4l-2.566,1.5Z" transform="translate(2.036 3.215)" fill="#ff4600"/>
        <path id="Trazado_104876" data-name="Trazado 104876" d="M34.762,34.518A11.72,11.72,0,0,0,42.14,23.612V16.341a1.32,1.32,0,0,0-.428-.855l-3.956-2.673a1.132,1.132,0,0,0-1.39.107l-.535.535a9.62,9.62,0,0,1-6.843,2.78H24.069A1.01,1.01,0,0,0,23,17.3v6.309a11.614,11.614,0,0,0,7.378,10.906,5.012,5.012,0,0,0,2.326.508A4.415,4.415,0,0,0,34.762,34.518Z" transform="translate(0.9 0.599)" fill="#ff4600"/>
        <path id="Trazado_104877" data-name="Trazado 104877" d="M54.784,45,50.4,49.277l.855.855,4.384-2.459a.973.973,0,0,0,.413-1.386C55.965,46.153,54.784,45,54.784,45Z" transform="translate(2.798 2.841)" fill="#ff4600"/>
        <path id="Trazado_104878" data-name="Trazado 104878" d="M15.132,39.6A9.735,9.735,0,0,0,10,48.047V61.413h9.623V50.079a11.38,11.38,0,0,0-1.818-6.2Z" transform="translate(0 2.467)" fill="#ff4600"/>
        <path id="Trazado_104879" data-name="Trazado 104879" d="M38.208,55.4l-2.887,2.887a1.3,1.3,0,0,0,0,1.711,1.3,1.3,0,0,0,1.711,0l2.887-2.887Z" transform="translate(1.731 3.561)" fill="#ff4600"/>
      </g>
      <g id="cliente" transform="translate(380.462 8528.66)">
        <g id="Grupo_58509" data-name="Grupo 58509" transform="translate(0 76)">
          <g id="Grupo_58508" data-name="Grupo 58508" transform="translate(0 0)">
            <path id="Trazado_104880" data-name="Trazado 104880" d="M0,76v45.34H64.483V76Zm60.705,41.562H3.778V79.778H60.705Z" transform="translate(0 -76)" fill="#ff4600"/>
          </g>
        </g>
        <g id="Grupo_58511" data-name="Grupo 58511" transform="translate(38.181 110.204)">
          <g id="Grupo_58510" data-name="Grupo 58510" transform="translate(0 0)">
            <rect id="Rectngulo_7417" data-name="Rectngulo 7417" width="19.09" height="3.977" fill="#ff4600"/>
          </g>
        </g>
        <g id="Grupo_58513" data-name="Grupo 58513" transform="translate(38.181 102.249)">
          <g id="Grupo_58512" data-name="Grupo 58512" transform="translate(0 0)">
            <rect id="Rectngulo_7418" data-name="Rectngulo 7418" width="19.09" height="3.977" fill="#ff4600"/>
          </g>
        </g>
        <g id="Grupo_58515" data-name="Grupo 58515" transform="translate(38.181 95.091)">
          <g id="Grupo_58514" data-name="Grupo 58514" transform="translate(0 0)">
            <rect id="Rectngulo_7419" data-name="Rectngulo 7419" width="19.09" height="3.182" fill="#ff4600"/>
          </g>
        </g>
        <g id="Grupo_58517" data-name="Grupo 58517" transform="translate(38.181 87.136)">
          <g id="Grupo_58516" data-name="Grupo 58516" transform="translate(0 0)">
            <rect id="Rectngulo_7420" data-name="Rectngulo 7420" width="11.136" height="3.977" fill="#ff4600"/>
          </g>
        </g>
        <g id="Grupo_58519" data-name="Grupo 58519" transform="translate(53.295 87.136)">
          <g id="Grupo_58518" data-name="Grupo 58518" transform="translate(0 0)">
            <rect id="Rectngulo_7421" data-name="Rectngulo 7421" width="3.977" height="3.977" fill="#ff4600"/>
          </g>
        </g>
        <g id="Grupo_58521" data-name="Grupo 58521" transform="translate(7.683 83.557)">
          <g id="Grupo_58520" data-name="Grupo 58520">
            <path id="Trazado_104881" data-name="Trazado 104881" d="M80.355,152.623a9.446,9.446,0,1,0-12.261,0A13.237,13.237,0,0,0,61,164.337v1.889H87.448v-1.889A13.237,13.237,0,0,0,80.355,152.623Zm-6.131-12.845a5.667,5.667,0,1,1-5.667,5.667A5.674,5.674,0,0,1,74.224,139.778Zm-9.256,22.67a9.447,9.447,0,0,1,18.512,0Z" transform="translate(-61 -136)" fill="#ff4600"/>
          </g>
        </g>
      </g>
      <g id="presupuesto" transform="translate(1145 8596)">
        <path id="Trazado_104882" data-name="Trazado 104882" d="M55.591,29.881l-.169-.311,5.228-5.228a4.44,4.44,0,0,0-4.593-7.356V3.949A2.953,2.953,0,0,0,53.107,1H22.461a2.932,2.932,0,0,0-2.086.864L11.7,10.543a2.928,2.928,0,0,0-.864,2.086v2.185A10.825,10.825,0,0,0,1,25.579V57.04a4.921,4.921,0,0,0,4.916,4.916h11.8a4.921,4.921,0,0,0,4.916-4.916v-.983H61.15L59,43.173A28.059,28.059,0,0,0,55.591,29.881Zm1.426,12.65-9.585,2.614L45.12,43.3a4.9,4.9,0,0,1-1.844-3.839V30.495a1.968,1.968,0,0,1,1.966,1.966v6.882h1.966V37.784l6.758-6.758A26.068,26.068,0,0,1,57.016,42.531Zm-13.741-14a1.968,1.968,0,0,0-1.966,1.966v.983a.983.983,0,1,1-1.966,0v-.983a3.937,3.937,0,0,1,3.933-3.933h2.542L43.8,28.581a3.832,3.832,0,0,0-.523-.053ZM32.509,45.313,33.8,42.076l2.807,2.807-3.238,1.295a.681.681,0,0,1-.911-.618A.642.642,0,0,1,32.509,45.313Zm5.851-1.461-3.526-3.526,5.945-5.945a2.869,2.869,0,0,0,.53-.136v5.211a6.916,6.916,0,0,0,.134,1.312Zm-.8-11.391h-11V28.528H37.721a5.875,5.875,0,0,0-.344,1.966v.983A2.916,2.916,0,0,0,37.558,32.461Zm-11,1.966H37.953L34.02,38.36H26.562Zm0,5.9h5.823l-1.573,3.933h-4.25Zm0,5.9h4.029A2.623,2.623,0,0,0,34.1,48l2.289-.916v3.07H26.562Zm11.8.076.553-.221,3.274-3.274c.035.064.068.129.106.192v7.16H38.36Zm5.9-1.177L46.225,46.7v3.461H44.259ZM59.989,21.19a2.477,2.477,0,0,1-.73,1.763L47.208,35V32.461a3.909,3.909,0,0,0-1.469-3.04l9.994-9.994a2.493,2.493,0,0,1,4.256,1.763ZM20.663,4.356V9.848a.985.985,0,0,1-.983.983H14.188ZM11.815,16.73a8.848,8.848,0,1,1-8.848,8.848,8.859,8.859,0,0,1,8.848-8.848ZM6.9,35.2a10.72,10.72,0,0,0,9.832,0v5.126H6.9ZM17.714,59.989H5.916A2.953,2.953,0,0,1,2.966,57.04V31.778a10.915,10.915,0,0,0,1.966,2.137v6.411A1.968,1.968,0,0,0,6.9,42.292H16.73A1.968,1.968,0,0,0,18.7,40.326V33.915a10.915,10.915,0,0,0,1.966-2.137V57.04A2.953,2.953,0,0,1,17.714,59.989Zm4.916-5.9V25.579A10.825,10.825,0,0,0,12.8,14.814V12.8H19.68a2.953,2.953,0,0,0,2.949-2.949V2.966H53.107a.985.985,0,0,1,.983.983V18.29L47.784,24.6H43.276a5.882,5.882,0,0,0-4.385,1.966H24.6V52.124H46.225V54.09Zm25.562,0V46.976l9.04-2.466,1.6,9.58Z" fill="#ff4600"/>
        <path id="Trazado_104883" data-name="Trazado 104883" d="M10.966,30.655v2.109h1.966V30.655a2.8,2.8,0,0,0,.415-5.173l-1.917-.958a.84.84,0,0,1,.376-1.592h.287a.84.84,0,0,1,.84.84V24.9H14.9V23.772a2.8,2.8,0,0,0-1.966-2.663V19H10.966v2.109a2.8,2.8,0,0,0-.415,5.173l1.917.958a.84.84,0,0,1-.376,1.592h-.287a.84.84,0,0,1-.84-.84V26.865H9v1.127A2.8,2.8,0,0,0,10.966,30.655Z" transform="translate(-0.135 -0.303)" fill="#ff4600"/>
        <path id="Trazado_104884" data-name="Trazado 104884" d="M16.8,45H6.966A1.968,1.968,0,0,0,5,46.966V56.8a1.968,1.968,0,0,0,1.966,1.966H16.8A1.968,1.968,0,0,0,18.764,56.8V46.966A1.968,1.968,0,0,0,16.8,45Zm0,3.933H14.832V46.966H16.8ZM12.865,56.8H10.9V54.832h1.966Zm0-3.933H10.9V50.9h1.966Zm-3.933,0H6.966V50.9H8.933ZM10.9,48.933V46.966h1.966v1.966ZM8.933,46.966v1.966H6.966V46.966ZM6.966,54.832H8.933V56.8H6.966ZM14.832,56.8V50.9H16.8v5.9Z" transform="translate(-0.067 -0.741)" fill="#ff4600"/>
        <path id="Trazado_104885" data-name="Trazado 104885" d="M52.528,5H25v5.9H52.528ZM50.562,8.933h-23.6V6.966h23.6Z" transform="translate(-0.404 -0.067)" fill="#ff4600"/>
        <path id="Trazado_104886" data-name="Trazado 104886" d="M25,13H52.528v1.966H25Z" transform="translate(-0.404 -0.202)" fill="#ff4600"/>
        <path id="Trazado_104887" data-name="Trazado 104887" d="M25,17H52.528v1.966H25Z" transform="translate(-0.404 -0.27)" fill="#ff4600"/>
        <path id="Trazado_104888" data-name="Trazado 104888" d="M25,21H40.73v1.966H25Z" transform="translate(-0.404 -0.337)" fill="#ff4600"/>
      </g>
      <g id="incrementar" transform="translate(452.815 8776.321)">
        <path id="Trazado_104889" data-name="Trazado 104889" d="M139.909,37.719a18.86,18.86,0,1,0-18.86-18.86A18.881,18.881,0,0,0,139.909,37.719Zm0-35.646a16.786,16.786,0,1,1-16.786,16.786A16.805,16.805,0,0,1,139.909,2.073Z" transform="translate(-75.299)" fill="#ff4600"/>
        <path id="Trazado_104890" data-name="Trazado 104890" d="M172.528,65.119a13.639,13.639,0,1,0-9.161-23.744,1.037,1.037,0,0,0,1.393,1.536,11.54,11.54,0,1,1-2.4,3.057,1.037,1.037,0,1,0-1.822-.99,13.643,13.643,0,0,0,11.992,20.141Z" transform="translate(-107.918 -32.62)" fill="#ff4600"/>
        <path id="Trazado_104891" data-name="Trazado 104891" d="M228.658,86.767a2.225,2.225,0,0,1-2.158-1.309,1.038,1.038,0,0,0-2.012.511h0l.006.02a1.026,1.026,0,0,0,.047.143,4.142,4.142,0,0,0,3.224,2.608v1.379a1.037,1.037,0,1,0,2.073,0V88.771a3.966,3.966,0,0,0,2.076-1,4.107,4.107,0,0,0,1.238-2.951c0-1.051-.412-3.539-4.228-3.96a2.273,2.273,0,0,1-1.6-.715,1.447,1.447,0,0,1-.3-.875A1.7,1.7,0,0,1,228.8,77.49a1.842,1.842,0,0,1,1.681.88,1.038,1.038,0,1,0,1.887-.861h0a3.808,3.808,0,0,0-2.532-1.971V74.146a1.037,1.037,0,1,0-2.073,0v1.387a3.78,3.78,0,0,0-2.818,3.738c0,1.493.982,3.345,3.75,3.651,2.382.263,2.382,1.495,2.382,1.9a2.04,2.04,0,0,1-.586,1.441A2.375,2.375,0,0,1,228.658,86.767Z" transform="translate(-164.443 -63.023)" fill="#ff4600"/>
        <path id="Trazado_104892" data-name="Trazado 104892" d="M75.036,345.954a1.037,1.037,0,0,0-1.51,0l-7.042,7.487a1.037,1.037,0,0,0,.755,1.747h2.035v3.765a1.037,1.037,0,1,0,2.073,0v-4.8a1.037,1.037,0,0,0-1.037-1.037h-.674l4.644-4.937,4.644,4.937h-.674a1.037,1.037,0,0,0-1.037,1.037v12.355H71.347V363.1a1.037,1.037,0,1,0-2.073,0v4.444a1.037,1.037,0,0,0,1.037,1.037h7.94a1.037,1.037,0,0,0,1.037-1.037V355.188h2.035a1.037,1.037,0,0,0,.755-1.747Z" transform="translate(-28.018 -297.946)" fill="#ff4600"/>
        <path id="Trazado_104893" data-name="Trazado 104893" d="M208.028,294.254a1.037,1.037,0,0,0-1.51,0l-7.042,7.487a1.037,1.037,0,0,0,.755,1.747h2.035v19.488a1.037,1.037,0,0,0,1.037,1.037h7.94a1.037,1.037,0,0,0,1.037-1.037V303.488h2.035a1.037,1.037,0,0,0,.755-1.747Zm3.215,7.16a1.037,1.037,0,0,0-1.037,1.037v19.488h-5.867V302.451a1.037,1.037,0,0,0-1.037-1.037h-.674l4.644-4.937,4.644,4.937h-.674Z" transform="translate(-142.663 -253.379)" fill="#ff4600"/>
        <path id="Trazado_104894" data-name="Trazado 104894" d="M341.019,246.42a1.037,1.037,0,0,0-1.51,0l-7.042,7.487a1.037,1.037,0,0,0,.755,1.747h2.035v6.327a1.037,1.037,0,0,0,2.073,0v-7.363a1.037,1.037,0,0,0-1.037-1.037h-.674l4.644-4.937,4.644,4.937h-.674a1.037,1.037,0,0,0-1.037,1.037V280.7H337.33V266.127a1.037,1.037,0,1,0-2.073,0v15.613a1.037,1.037,0,0,0,1.037,1.037h7.94a1.037,1.037,0,0,0,1.037-1.037V255.654h2.035a1.037,1.037,0,0,0,.755-1.747Z" transform="translate(-257.307 -212.144)" fill="#ff4600"/>
        <path id="Trazado_104895" data-name="Trazado 104895" d="M41.854,132.918a1.037,1.037,0,0,0-1.037-1.037h-6.08a1.037,1.037,0,0,0,0,2.074h6.08A1.037,1.037,0,0,0,41.854,132.918Z" transform="translate(0 -113.687)" fill="#ff4600"/>
        <path id="Trazado_104896" data-name="Trazado 104896" d="M77.382,197.922l-2.163.847a1.037,1.037,0,1,0,.756,1.93l2.163-.847a1.037,1.037,0,1,0-.756-1.93Z" transform="translate(-35.223 -170.555)" fill="#ff4600"/>
        <path id="Trazado_104897" data-name="Trazado 104897" d="M75.219,61.768l2.163.847a1.037,1.037,0,1,0,.756-1.93l-2.163-.847a1.037,1.037,0,1,0-.756,1.93Z" transform="translate(-35.223 -51.521)" fill="#ff4600"/>
        <path id="Trazado_104898" data-name="Trazado 104898" d="M426.312,131.881h-6.08a1.037,1.037,0,0,0,0,2.074h6.08a1.037,1.037,0,0,0,0-2.074Z" transform="translate(-332.314 -113.687)" fill="#ff4600"/>
        <path id="Trazado_104899" data-name="Trazado 104899" d="M407.39,199.854l2.162.847a1.037,1.037,0,1,0,.757-1.93l-2.162-.847a1.037,1.037,0,1,0-.757,1.93Z" transform="translate(-321.569 -170.557)" fill="#ff4600"/>
        <path id="Trazado_104900" data-name="Trazado 104900" d="M407.768,62.687a1.034,1.034,0,0,0,.378-.072l2.162-.847a1.037,1.037,0,0,0-.757-1.931l-2.162.847a1.037,1.037,0,0,0,.379,2Z" transform="translate(-321.569 -51.521)" fill="#ff4600"/>
      </g>
      <g id="multimedia-de-interfaces-en-alta-definicion" transform="translate(1044.55 8785.476)">
        <g id="Grupo_58522" data-name="Grupo 58522" transform="translate(27.451 17.013)">
          <path id="Trazado_104901" data-name="Trazado 104901" d="M29,28.588H15.591A3.594,3.594,0,0,1,12,25V11.589A3.594,3.594,0,0,1,15.589,8H29a3.594,3.594,0,0,1,3.591,3.589V25A3.594,3.594,0,0,1,29,28.588ZM15.589,11.431l-.158.158V25L29,25.157l.158-13.568Z" transform="translate(-12 -8)" fill="#ff4600"/>
        </g>
        <g id="Grupo_58523" data-name="Grupo 58523" transform="translate(6.863 41.032)">
          <path id="Trazado_104902" data-name="Trazado 104902" d="M42.46,21.931H4.716a1.716,1.716,0,0,1,0-3.431H42.46a1.716,1.716,0,1,1,0,3.431Z" transform="translate(-3 -18.5)" fill="#ff4600"/>
        </g>
        <g id="Grupo_58524" data-name="Grupo 58524" transform="translate(6.863 18.157)">
          <path id="Trazado_104903" data-name="Trazado 104903" d="M17.3,11.931H4.716a1.716,1.716,0,0,1,0-3.431H17.3a1.716,1.716,0,0,1,0,3.431Z" transform="translate(-3 -8.5)" fill="#ff4600"/>
        </g>
        <g id="Grupo_58525" data-name="Grupo 58525" transform="translate(6.863 25.019)">
          <path id="Trazado_104904" data-name="Trazado 104904" d="M17.3,14.931H4.716a1.716,1.716,0,1,1,0-3.431H17.3a1.716,1.716,0,1,1,0,3.431Z" transform="translate(-3 -11.5)" fill="#ff4600"/>
        </g>
        <g id="Grupo_58526" data-name="Grupo 58526" transform="translate(6.863 31.882)">
          <path id="Trazado_104905" data-name="Trazado 104905" d="M17.3,17.931H4.716a1.716,1.716,0,1,1,0-3.431H17.3a1.716,1.716,0,1,1,0,3.431Z" transform="translate(-3 -14.5)" fill="#ff4600"/>
        </g>
        <g id="Grupo_58527" data-name="Grupo 58527" transform="translate(33.17 22.16)">
          <path id="Trazado_104906" data-name="Trazado 104906" d="M16.216,20.544A1.715,1.715,0,0,1,14.5,18.828V11.966a1.715,1.715,0,0,1,2.6-1.471l5.719,3.431a1.715,1.715,0,0,1,0,2.942L17.1,20.3A1.714,1.714,0,0,1,16.216,20.544ZM17.931,15v.8l.668-.4Z" transform="translate(-14.5 -10.25)" fill="#ff4600"/>
        </g>
        <g id="Grupo_58528" data-name="Grupo 58528" transform="translate(0 1)">
          <path id="Trazado_104907" data-name="Trazado 104907" d="M48.611,51.326H6.291A6.3,6.3,0,0,1,0,45.036V7.291A6.3,6.3,0,0,1,6.291,1h42.32A6.3,6.3,0,0,1,54.9,7.291V45.036A6.3,6.3,0,0,1,48.611,51.326ZM6.291,4.431A2.863,2.863,0,0,0,3.431,7.291V45.036a2.863,2.863,0,0,0,2.859,2.859h42.32a2.863,2.863,0,0,0,2.859-2.859V7.291a2.863,2.863,0,0,0-2.859-2.859Z" transform="translate(0 -1)" fill="#ff4600"/>
        </g>
        <g id="Grupo_58529" data-name="Grupo 58529" transform="translate(0 9.006)">
          <path id="Trazado_104908" data-name="Trazado 104908" d="M53.186,7.931H1.716a1.716,1.716,0,1,1,0-3.431h51.47a1.716,1.716,0,0,1,0,3.431Z" transform="translate(0 -4.5)" fill="#ff4600"/>
        </g>
      </g>
    </g>
  </g>
</svg>
