<svg xmlns="http://www.w3.org/2000/svg" width="500" height="294.001" viewBox="0 0 500 294.001">
  <g id="Grupo_59547" data-name="Grupo 59547" transform="translate(-224.638 -269.852)">
    <path id="Trazado_106139" data-name="Trazado 106139" d="M255.391,554.306s-55.836-53.443.8-130.816c50.6-69.134,12.818-102.164,64.757-135.851,52.5-34.05,97.168-13.311,147.42,13.011s119.649-36.692,194.629-3.191,64.2,84.711,45.652,137.362c-15.657,44.446,31.954,76.561,5.983,119.56C714.63,554.382,253.8,552.711,255.391,554.306Z" transform="translate(-4.965)" fill="#fff1db"/>
    <path id="Trazado_106140" data-name="Trazado 106140" d="M1828.141,581.243s7.905-33.147,34.312-36.729a6.507,6.507,0,0,1,6.834,5.041c1.7,5.66-8.515,5.676-14.833,7.935S1833.4,569.359,1828.141,581.243Z" transform="translate(-1289.869 -220.925)" fill="#ffd494" opacity="0.4"/>
    <path id="Trazado_106141" data-name="Trazado 106141" d="M1830.616,648.383s15.14-30.528,41.677-28.1a6.508,6.508,0,0,1,5.529,6.446c.383,5.9-9.572,3.621-16.235,4.405S1838.4,637.98,1830.616,648.383Z" transform="translate(-1291.86 -281.782)" fill="#ffd494" opacity="0.4"/>
    <path id="Trazado_106142" data-name="Trazado 106142" d="M2238.036,1263.383s7.906-33.146,34.312-36.729a6.507,6.507,0,0,1,6.834,5.041c1.7,5.66-8.515,5.676-14.833,7.935S2243.292,1251.5,2238.036,1263.383Z" transform="translate(-1619.592 -769.643)" fill="#ffd494"/>
    <path id="Trazado_106143" data-name="Trazado 106143" d="M2241.1,1165.208s-4.333-33.8,19.1-46.493a6.508,6.508,0,0,1,8.176,2.3c3.589,4.693-5.957,8.321-11.066,12.67S2241.81,1152.233,2241.1,1165.208Z" transform="translate(-1621.801 -682.34)" fill="#ffd494"/>
    <path id="Trazado_106144" data-name="Trazado 106144" d="M2299.914,1354.32c-2.976-12.648-24.285-9.445-24.285-9.445s-15.118,21.449-19.319,21.831,9.34-20.86,9.34-20.86c-8.078-1.056-29.066,8.17-29.066,8.17s.445,25.633-3.72,24.97.765-22.717.765-22.717c-7.922,2.086-15.551,10.978-15.551,10.978-9.652,14.576,9.587,26.2,9.587,26.2a41.636,41.636,0,0,1-5.871,18.885h0a30.265,30.265,0,0,0-2.67,4.992l2.139.072q.29-.85.636-1.638a.013.013,0,0,1,0-.009l.01-.023c.158-.325.384-.788.665-1.351v0s0,0,0,0c.7-1.255,1.17-2.184,1.472-2.856l0-.007c2.093-3.943,5.088-9.072,7.006-10.1a4.137,4.137,0,0,1-.425-.995l.425.995c3.4,7.957,21.653,9.879,31.919,8.134s5.919-4.767.586-9.614-16.878-4.005-20.215-5.948,1.691-3.6,8.471-2.851,9.95,7.655,20.9,9.069,20.006-18.932,20.006-18.932c-7.661,2.095-21.115-2.541-21.55-5.17s19.687-1.689,22.851-2.367S2302.89,1366.968,2299.914,1354.32Z" transform="translate(-1601.359 -864.466)" fill="#ffd494"/>
    <path id="Trazado_106145" data-name="Trazado 106145" d="M640.858,785.361c2.976-12.648,24.285-9.445,24.285-9.445s15.118,21.449,19.319,21.83-9.34-20.86-9.34-20.86c8.078-1.057,29.066,8.17,29.066,8.17s-.445,25.633,3.72,24.97-.765-22.717-.765-22.717c7.922,2.086,15.551,10.978,15.551,10.978,9.652,14.575-9.587,26.2-9.587,26.2a41.639,41.639,0,0,0,5.871,18.885h0a30.217,30.217,0,0,1,2.669,4.992l-2.138.072q-.291-.85-.636-1.638a.013.013,0,0,0,0-.009l-.01-.023c-.157-.325-.384-.787-.666-1.351v0s0,0,0,0c-.7-1.255-1.169-2.184-1.471-2.856a.023.023,0,0,1,0-.006c-2.092-3.944-5.088-9.073-7.006-10.1a4.151,4.151,0,0,0,.425-.995l-.425.995c-3.4,7.956-21.653,9.879-31.919,8.134s-5.919-4.768-.586-9.614,16.878-4.005,20.215-5.948-1.692-3.6-8.471-2.852-9.95,7.655-20.9,9.069-20.006-18.932-20.006-18.932c7.661,2.095,21.115-2.541,21.55-5.17s-19.687-1.69-22.851-2.367S637.882,798.009,640.858,785.361Z" transform="translate(-334.139 -406.79)" fill="#ffd494"/>
    <path id="Trazado_106146" data-name="Trazado 106146" d="M1293.473,483.6c6.256-11.984,26.912-3.271,26.912-3.271s9.72,25.514,13.856,26.979-4.047-23.432-4.047-23.432c8.416,1.014,27.2,15.717,27.2,15.717s-7.046,25.726-2.676,26.13,5.075-23.1,5.075-23.1c7.45,4.141,12.851,15.069,12.851,15.069,5.978,17.177-16.408,23.947-16.408,23.947a43.319,43.319,0,0,0,1.058,20.549h0a31.459,31.459,0,0,1,1.407,5.72l-2.174-.478q-.074-.932-.219-1.815a.012.012,0,0,0,0-.011c0-.008,0-.017,0-.026-.075-.368-.184-.893-.323-1.533v0s0,0,0,0c-.379-1.445-.617-2.5-.748-3.258a.023.023,0,0,1,0-.007c-1.095-4.514-2.794-10.455-4.462-11.989a4.31,4.31,0,0,0,.684-.894l-.684.894c-5.472,7.147-24.371,4.386-34.271-.016s-4.74-6.329,1.884-9.843,18.045.306,21.909-.793-.778-4.067-7.806-5.055-12,5.156-23.4,3.765-15.3-24.234-15.3-24.234c7.184,4.083,21.94,2.872,23.055.334s-19.411-6.77-22.426-8.267S1287.217,495.588,1293.473,483.6Z" transform="translate(-857.167 -166.852)" fill="#ffd494"/>
    <g id="Grupo_59489" data-name="Grupo 59489" transform="translate(595.878 331.787)" opacity="0.5">
      <path id="Trazado_106147" data-name="Trazado 106147" d="M2211.295,589.373l12.083,46.224a3.845,3.845,0,0,1-2.74,4.678l-81.089,21.2a3.846,3.846,0,0,1-4.678-2.739l-12.083-46.224a3.845,3.845,0,0,1,2.74-4.678l81.089-21.2A3.845,3.845,0,0,1,2211.295,589.373Z" transform="translate(-2122.664 -586.509)" fill="#aac9f5"/>
      <g id="Grupo_59488" data-name="Grupo 59488" transform="translate(6.397 7.277)">
        <path id="Trazado_106148" data-name="Trazado 106148" d="M2305.94,853.571l-21.612,5.649a1.723,1.723,0,0,1-2.1-1.228l-.054-.208a1.724,1.724,0,0,1,1.228-2.1l21.611-5.649a1.724,1.724,0,0,1,2.1,1.228l.054.208A1.724,1.724,0,0,1,2305.94,853.571Z" transform="translate(-2257.33 -805.726)" fill="#cde0fb"/>
        <g id="Grupo_59482" data-name="Grupo 59482" transform="translate(33.092 12.686)">
          <path id="Trazado_106149" data-name="Trazado 106149" d="M2328.771,750.488a4.151,4.151,0,0,1,.095,2.045,1.883,1.883,0,0,1-3.2.837,4.944,4.944,0,0,1-1.018-3.864,1.9,1.9,0,0,1,3.218-.841A4.172,4.172,0,0,1,2328.771,750.488Zm-.992.255a4.134,4.134,0,0,0-.493-1.2q-.457-.689-1.044-.535-.6.158-.658.972a4,4,0,0,0,.152,1.3q.528,2.017,1.557,1.748.6-.155.647-.985A4.1,4.1,0,0,0,2327.779,750.744Z" transform="translate(-2324.561 -736.423)" fill="#cde0fb"/>
          <path id="Trazado_106150" data-name="Trazado 106150" d="M2351.459,744.558a4.157,4.157,0,0,1,.094,2.044,1.882,1.882,0,0,1-3.2.837,4.942,4.942,0,0,1-1.018-3.864,1.9,1.9,0,0,1,3.218-.841A4.178,4.178,0,0,1,2351.459,744.558Zm-.993.255a4.115,4.115,0,0,0-.493-1.2q-.457-.688-1.044-.535t-.658.972a3.962,3.962,0,0,0,.152,1.3q.527,2.017,1.556,1.748.594-.155.647-.985A4.112,4.112,0,0,0,2350.466,744.813Z" transform="translate(-2342.811 -731.653)" fill="#cde0fb"/>
          <path id="Trazado_106151" data-name="Trazado 106151" d="M2385.841,735.571a4.158,4.158,0,0,1,.094,2.044,1.883,1.883,0,0,1-3.2.837,4.945,4.945,0,0,1-1.019-3.864,1.9,1.9,0,0,1,3.218-.841A4.175,4.175,0,0,1,2385.841,735.571Zm-.992.255a4.111,4.111,0,0,0-.493-1.2q-.457-.689-1.044-.535t-.659.972a3.994,3.994,0,0,0,.153,1.3q.528,2.017,1.556,1.748.6-.155.646-.985A4.1,4.1,0,0,0,2384.848,735.826Z" transform="translate(-2370.468 -724.423)" fill="#cde0fb"/>
          <path id="Trazado_106152" data-name="Trazado 106152" d="M2408.528,729.64a4.143,4.143,0,0,1,.094,2.044,1.883,1.883,0,0,1-3.2.837,4.948,4.948,0,0,1-1.018-3.864,1.9,1.9,0,0,1,3.218-.841A4.175,4.175,0,0,1,2408.528,729.64Zm-.992.255a4.125,4.125,0,0,0-.493-1.2q-.457-.689-1.044-.535-.6.158-.658.972a3.984,3.984,0,0,0,.152,1.3q.527,2.017,1.557,1.748.594-.156.646-.985A4.1,4.1,0,0,0,2407.536,729.9Z" transform="translate(-2388.718 -719.653)" fill="#cde0fb"/>
          <path id="Trazado_106153" data-name="Trazado 106153" d="M2431.216,723.709a4.164,4.164,0,0,1,.094,2.045,1.883,1.883,0,0,1-3.2.837,4.946,4.946,0,0,1-1.019-3.864,1.9,1.9,0,0,1,3.218-.841A4.175,4.175,0,0,1,2431.216,723.709Zm-.993.255a4.092,4.092,0,0,0-.493-1.2q-.456-.689-1.043-.535-.6.158-.659.972a4,4,0,0,0,.152,1.3q.527,2.017,1.557,1.748.595-.156.646-.985A4.08,4.08,0,0,0,2430.223,723.964Z" transform="translate(-2406.968 -714.882)" fill="#cde0fb"/>
          <path id="Trazado_106154" data-name="Trazado 106154" d="M2453.9,717.779a4.143,4.143,0,0,1,.094,2.044,1.882,1.882,0,0,1-3.2.837,4.945,4.945,0,0,1-1.019-3.864,1.9,1.9,0,0,1,3.218-.841A4.167,4.167,0,0,1,2453.9,717.779Zm-.992.255a4.111,4.111,0,0,0-.494-1.2q-.456-.689-1.044-.535-.6.157-.658.972a4,4,0,0,0,.152,1.3q.527,2.017,1.557,1.748.6-.156.646-.985A4.109,4.109,0,0,0,2452.91,718.034Z" transform="translate(-2425.218 -710.111)" fill="#cde0fb"/>
          <path id="Trazado_106155" data-name="Trazado 106155" d="M2488.285,708.791a4.164,4.164,0,0,1,.094,2.044,1.883,1.883,0,0,1-3.2.837,4.946,4.946,0,0,1-1.018-3.864,1.9,1.9,0,0,1,3.218-.841A4.176,4.176,0,0,1,2488.285,708.791Zm-.993.255a4.115,4.115,0,0,0-.493-1.2q-.457-.689-1.044-.535-.6.158-.658.972a3.985,3.985,0,0,0,.152,1.3q.528,2.017,1.557,1.748.595-.156.647-.985A4.117,4.117,0,0,0,2487.292,709.046Z" transform="translate(-2452.874 -702.882)" fill="#cde0fb"/>
          <path id="Trazado_106156" data-name="Trazado 106156" d="M2510.971,702.861a4.155,4.155,0,0,1,.094,2.044,1.883,1.883,0,0,1-3.2.837,4.944,4.944,0,0,1-1.019-3.864,1.9,1.9,0,0,1,3.218-.841A4.168,4.168,0,0,1,2510.971,702.861Zm-.992.255a4.125,4.125,0,0,0-.494-1.2q-.457-.689-1.044-.535-.6.157-.658.972a3.992,3.992,0,0,0,.152,1.3q.527,2.017,1.556,1.748.594-.155.646-.985A4.1,4.1,0,0,0,2509.979,703.116Z" transform="translate(-2471.124 -698.111)" fill="#cde0fb"/>
          <path id="Trazado_106157" data-name="Trazado 106157" d="M2533.66,696.93a4.154,4.154,0,0,1,.094,2.044,1.883,1.883,0,0,1-3.2.837,4.94,4.94,0,0,1-1.018-3.864,1.9,1.9,0,0,1,3.217-.841A4.172,4.172,0,0,1,2533.66,696.93Zm-.992.255a4.145,4.145,0,0,0-.493-1.2q-.457-.689-1.044-.535t-.658.972a3.991,3.991,0,0,0,.152,1.3q.528,2.017,1.557,1.748.595-.156.647-.985A4.129,4.129,0,0,0,2532.667,697.186Z" transform="translate(-2489.375 -693.341)" fill="#cde0fb"/>
          <path id="Trazado_106158" data-name="Trazado 106158" d="M2556.346,691a4.159,4.159,0,0,1,.095,2.044,1.883,1.883,0,0,1-3.2.837,4.947,4.947,0,0,1-1.018-3.864,1.9,1.9,0,0,1,3.218-.841A4.176,4.176,0,0,1,2556.346,691Zm-.992.255a4.128,4.128,0,0,0-.494-1.2q-.457-.689-1.044-.535-.6.158-.658.972a3.984,3.984,0,0,0,.152,1.3q.527,2.017,1.557,1.748.594-.156.646-.985A4.114,4.114,0,0,0,2555.355,691.255Z" transform="translate(-2507.624 -688.57)" fill="#cde0fb"/>
        </g>
        <path id="Trazado_106159" data-name="Trazado 106159" d="M2178.674,684.34l-21.149,5.529a1.724,1.724,0,0,1-2.1-1.228h0a1.724,1.724,0,0,1,1.228-2.1l21.15-5.529a1.723,1.723,0,0,1,2.1,1.228h0A1.724,1.724,0,0,1,2178.674,684.34Z" transform="translate(-2155.371 -669.762)" fill="#cde0fb"/>
        <g id="Grupo_59487" data-name="Grupo 59487" transform="translate(72.967)">
          <g id="Grupo_59483" data-name="Grupo 59483" transform="translate(0 3.478)">
            <path id="Trazado_106160" data-name="Trazado 106160" d="M2529.928,643a2.632,2.632,0,0,0-.979-1.451.282.282,0,0,0-.412.086l-.073.127a.279.279,0,0,0,.072.362,1.93,1.93,0,0,1,.607,2.321.278.278,0,0,0,.114.351l.125.075a.282.282,0,0,0,.4-.127A2.633,2.633,0,0,0,2529.928,643Z" transform="translate(-2528.427 -641.494)" fill="#cde0fb"/>
          </g>
          <g id="Grupo_59484" data-name="Grupo 59484" transform="translate(0.739 2.245)">
            <path id="Trazado_106161" data-name="Trazado 106161" d="M2534.337,637.57a4.035,4.035,0,0,0-1.657-2.335.28.28,0,0,0-.4.1l-.041.072a.282.282,0,0,0,.089.374,3.405,3.405,0,0,1,1.134,4.339.282.282,0,0,0,.105.37l.071.042a.28.28,0,0,0,.394-.111A4.033,4.033,0,0,0,2534.337,637.57Z" transform="translate(-2532.204 -635.189)" fill="#cde0fb"/>
          </g>
          <g id="Grupo_59485" data-name="Grupo 59485" transform="translate(1.398 1.166)">
            <path id="Trazado_106162" data-name="Trazado 106162" d="M2538.25,632.818a5.278,5.278,0,0,0-2.241-3.1.281.281,0,0,0-.4.1h0a.28.28,0,0,0,.091.374,4.726,4.726,0,0,1,1.612,6.169.28.28,0,0,0,.1.371h0a.281.281,0,0,0,.393-.109A5.275,5.275,0,0,0,2538.25,632.818Z" transform="translate(-2535.576 -629.672)" fill="#cde0fb"/>
          </g>
          <g id="Grupo_59486" data-name="Grupo 59486" transform="translate(1.996)">
            <path id="Trazado_106163" data-name="Trazado 106163" d="M2542.008,627.684a6.614,6.614,0,0,0-2.873-3.928.282.282,0,0,0-.4.1l-.071.124a.279.279,0,0,0,.093.376,5.93,5.93,0,0,1,2.045,7.824.28.28,0,0,0,.1.373l.123.073a.282.282,0,0,0,.392-.108A6.615,6.615,0,0,0,2542.008,627.684Z" transform="translate(-2538.632 -623.712)" fill="#cde0fb"/>
          </g>
        </g>
      </g>
    </g>
    <g id="Grupo_59490" data-name="Grupo 59490" transform="translate(324.692 367.727)">
      <rect id="Rectángulo_7685" data-name="Rectángulo 7685" width="267.43" height="181.559" rx="33.78" transform="translate(31.798 0)" fill="#2b478b"/>
      <rect id="Rectángulo_7686" data-name="Rectángulo 7686" width="255.367" height="173.37" transform="translate(37.83 6.343)" fill="#dde7fe"/>
      <rect id="Rectángulo_7687" data-name="Rectángulo 7687" width="331.026" height="11.623" rx="5.811" transform="translate(0 174.503)" fill="#2b478b"/>
      <rect id="Rectángulo_7688" data-name="Rectángulo 7688" width="255.367" height="168.763" transform="translate(37.83 6.343)" fill="#aec3ff"/>
    </g>
    <g id="Grupo_59491" data-name="Grupo 59491" transform="translate(258.712 395.881)">
      <path id="Trazado_106164" data-name="Trazado 106164" d="M494.157,1695.169a12.87,12.87,0,0,1,.377-3.329c.377-.831,1.759-4.214,1.759-4.214h5.4a29.872,29.872,0,0,1,1.068,4.1c.063,1.009,0,3.448,0,3.448Z" transform="translate(-475.515 -1536.349)" fill="#233862"/>
      <path id="Trazado_106165" data-name="Trazado 106165" d="M634.016,1695.169a12.869,12.869,0,0,0-.377-3.329c-.377-.831-1.759-4.214-1.759-4.214h-5.4a29.885,29.885,0,0,0-1.068,4.1c-.063,1.009,0,3.448,0,3.448Z" transform="translate(-581.073 -1536.349)" fill="#233862"/>
      <path id="Trazado_106166" data-name="Trazado 106166" d="M530.453,997.233a45.231,45.231,0,0,1-.944,8.056l-5.966,3.932L546,1012.4l-5.356-6.991s-1.617-7.46-.769-10.22S530.453,997.233,530.453,997.233Z" transform="translate(-499.153 -978.657)" fill="#ffb27d"/>
      <path id="Trazado_106167" data-name="Trazado 106167" d="M558.7,1013.1s1.776,4.039,5.121,3.95,4.106-3.663,4.106-3.663Z" transform="translate(-527.438 -993.753)" fill="#ed985f"/>
      <path id="Trazado_106168" data-name="Trazado 106168" d="M539.271,930.271a48.453,48.453,0,0,0-1.834-6.638c-.754-1.543-1.382-8.427,6.973-8.783,0,0,3.2.356,4.963-.653,0,0,0,1.009-.44,1.365a5.771,5.771,0,0,1,5.151,1.721c2.262,2.374-1.507,10.683-1.319,12.641Z" transform="translate(-510 -914.197)" fill="#2c3a64"/>
      <path id="Trazado_106169" data-name="Trazado 106169" d="M554.611,962.534c-2.424-.04-6.885-3.089-6.885-6.865v-5.892a2.4,2.4,0,0,1,2.261-2.507h9.247a2.4,2.4,0,0,1,2.261,2.507v5.559C561.5,959.295,557.391,962.581,554.611,962.534Z" transform="translate(-518.606 -940.801)" fill="#ffb27d"/>
      <path id="Trazado_106170" data-name="Trazado 106170" d="M546.458,947.434s.013-3.54,2.981-4.085,9.611,1.726,10.553-.856-12.84-2.537-13.534-.89S546.458,947.434,546.458,947.434Z" transform="translate(-517.338 -935.312)" fill="#2c3a64"/>
      <path id="Trazado_106171" data-name="Trazado 106171" d="M493.121,1283.78s.945,27.268-.468,42.827.01,37.211.01,37.211a11.242,11.242,0,0,0,9.42,0s5.374-30.058,5.34-37.211c-.036-7.618,5.849-41.638,5.849-41.638Z" transform="translate(-473.802 -1211.492)" fill="#2b478b"/>
      <path id="Trazado_106172" data-name="Trazado 106172" d="M583.775,1363.627a11.236,11.236,0,0,1-9.419,0s-5.373-30.057-5.339-37.211c.015-3.217-1.025-11.146-2.233-19.229-1.653-11.058-3.617-22.409-3.617-22.409l20.931-1.236s-1.726,27.315-.313,42.873S583.775,1363.627,583.775,1363.627Z" transform="translate(-531.028 -1211.301)" fill="#2b478b"/>
      <path id="Trazado_106173" data-name="Trazado 106173" d="M527.208,1100.55a110.646,110.646,0,0,1-17.064,1.632,87.266,87.266,0,0,1-10.48-.757c-3.4-.425-5.831-.876-5.831-.876s-1.809.15-.741-8.277c.812-6.413.558-12.2.377-18.16-.021-.662-.006-1.446.038-2.318.347-6.946,2.57-19.449,4.265-20.121a32.584,32.584,0,0,1,6.971-1.316c0,.082,2.584,3.65,5.65,4.05a10.61,10.61,0,0,0,5.486-3.935,62.848,62.848,0,0,1,8.6,1.567s.32,1.324,1.53,24.306C526.488,1085.45,529.777,1100.58,527.208,1100.55Z" transform="translate(-474.387 -1023.726)" fill="#f99746"/>
      <path id="Trazado_106174" data-name="Trazado 106174" d="M583.891,1384.686c.015-3.217-1.025-11.146-2.233-19.229a37.066,37.066,0,0,1,4.306-9.476C589.827,1366.219,583.891,1384.686,583.891,1384.686Z" transform="translate(-545.901 -1269.572)" fill="#233862"/>
      <path id="Trazado_106175" data-name="Trazado 106175" d="M409.682,1083.846c-.213.167.53,1.905,1.623,4.17,2.25,4.652,5.987,11.523,5.987,11.523a19.629,19.629,0,0,1-1.134,3.137,77.358,77.358,0,0,1-12.928-11.682c-3.637-4.282-4.383-6.737-4.383-6.737,14-26.92,23.849-27.912,23.849-27.912l-1.164,17.791S410.33,1083.337,409.682,1083.846Z" transform="translate(-398.846 -1028.542)" fill="#f99746"/>
      <path id="Trazado_106176" data-name="Trazado 106176" d="M487.229,1271.464s3.392-2.967,4.774-1.306,1.633,4.273.565,4.1-3.266-1.128-3.581-.653-1.721,1.382-2.148.662S487.229,1271.464,487.229,1271.464Z" transform="translate(-469.529 -1200.128)" fill="#ffb27d"/>
      <path id="Trazado_106177" data-name="Trazado 106177" d="M435.318,1229.791a19.637,19.637,0,0,1-1.134,3.137,77.351,77.351,0,0,1-12.928-11.682,16.712,16.712,0,0,0,8.075-2.979C431.581,1222.92,435.318,1229.791,435.318,1229.791Z" transform="translate(-416.873 -1158.794)" fill="#ffb27d"/>
      <path id="Trazado_106178" data-name="Trazado 106178" d="M673.392,1085.343s-.746,2.455-4.383,6.737a77.344,77.344,0,0,1-12.928,11.682,19.633,19.633,0,0,1-1.134-3.137s3.737-6.871,5.987-11.523c1.093-2.265,1.835-4,1.622-4.17-.5-.395-7.346-6.012-10.4-8.518l-1.451-1.193-.7-17.527S659.394,1058.423,673.392,1085.343Z" transform="translate(-600.882 -1029.628)" fill="#f99746"/>
      <path id="Trazado_106179" data-name="Trazado 106179" d="M654.389,1271.464s-3.392-2.967-4.774-1.306-1.633,4.273-.565,4.1,3.267-1.128,3.58-.653,1.721,1.382,2.148.662S654.389,1271.464,654.389,1271.464Z" transform="translate(-599.58 -1200.128)" fill="#ffb27d"/>
      <path id="Trazado_106180" data-name="Trazado 106180" d="M675.257,1229.791a19.632,19.632,0,0,0,1.134,3.137,77.356,77.356,0,0,0,12.928-11.682,16.712,16.712,0,0,1-8.075-2.979C678.994,1222.92,675.257,1229.791,675.257,1229.791Z" transform="translate(-621.193 -1158.794)" fill="#ffb27d"/>
      <path id="Trazado_106181" data-name="Trazado 106181" d="M550.38,1043.423a2.307,2.307,0,0,0-1.28,1.461s4,3.887,6.617,3.946Z" transform="translate(-519.711 -1018.147)" fill="#2b478b"/>
      <path id="Trazado_106182" data-name="Trazado 106182" d="M582.929,1048.021l5.163-5.6a2.281,2.281,0,0,1,1.05,1.753S585.149,1048.17,582.929,1048.021Z" transform="translate(-546.924 -1017.339)" fill="#2b478b"/>
      <path id="Trazado_106183" data-name="Trazado 106183" d="M566.414,1068.844s-3.941,32.137-2.568,36.054a26.113,26.113,0,0,0,2.4,4.979,1.439,1.439,0,0,0,2.417-.005c1.046-1.716,2.414-4.2,2.414-5.46,0-2.042-2.99-35.6-2.99-35.6Z" transform="translate(-531.34 -1038.574)" fill="#2b478b"/>
      <path id="Trazado_106184" data-name="Trazado 106184" d="M571.58,1060.362a26.285,26.285,0,0,1,3.831-.086.378.378,0,0,1,.308.563c-.406.691-1.236,1.889-2.1,1.889C572.4,1062.728,570.5,1060.442,571.58,1060.362Z" transform="translate(-537.537 -1031.667)" fill="#2b478b"/>
      <path id="Trazado_106185" data-name="Trazado 106185" d="M573.054,1005.277a2.694,2.694,0,0,0,2.073.93,2.5,2.5,0,0,0,1.938-.93A13.917,13.917,0,0,0,573.054,1005.277Z" transform="translate(-538.98 -987.34)" fill="#fff"/>
    </g>
    <g id="Grupo_59505" data-name="Grupo 59505" transform="translate(422.683 354.4)">
      <g id="Grupo_59503" data-name="Grupo 59503" transform="translate(0)">
        <rect id="Rectángulo_7689" data-name="Rectángulo 7689" width="165.153" height="175.873" fill="#cfdeff"/>
        <g id="Grupo_59492" data-name="Grupo 59492" transform="translate(86.839 139.577)">
          <rect id="Rectángulo_7690" data-name="Rectángulo 7690" width="31.565" height="2.042" rx="0.248" transform="translate(0 4.643)" fill="#2b478b"/>
          <path id="Rectángulo_7691" data-name="Rectángulo 7691" d="M.235,0H39.148a.236.236,0,0,1,.236.236V1.806a.236.236,0,0,1-.236.236H.236A.236.236,0,0,1,0,1.806V.235A.235.235,0,0,1,.235,0Z" fill="#2b478b"/>
        </g>
        <g id="Grupo_59501" data-name="Grupo 59501" transform="translate(14.326 12.332)">
          <rect id="Rectángulo_7692" data-name="Rectángulo 7692" width="136.501" height="96.037" transform="translate(0 17.367)" fill="#aec3ff"/>
          <g id="Grupo_59500" data-name="Grupo 59500" transform="translate(0 11.947)">
            <g id="Grupo_59493" data-name="Grupo 59493" transform="translate(32.008)">
              <rect id="Rectángulo_7693" data-name="Rectángulo 7693" width="0.219" height="101.458" fill="#1f1f89"/>
            </g>
            <g id="Grupo_59494" data-name="Grupo 59494" transform="translate(117.484)">
              <rect id="Rectángulo_7694" data-name="Rectángulo 7694" width="0.219" height="101.458" fill="#1f1f89"/>
            </g>
            <g id="Grupo_59495" data-name="Grupo 59495" transform="translate(46.523)">
              <rect id="Rectángulo_7695" data-name="Rectángulo 7695" width="0.219" height="101.458" fill="#1f1f89"/>
            </g>
            <g id="Grupo_59496" data-name="Grupo 59496" transform="translate(0 83.489)">
              <rect id="Rectángulo_7696" data-name="Rectángulo 7696" width="136.5" height="0.219" fill="#1f1f89"/>
            </g>
            <g id="Grupo_59497" data-name="Grupo 59497" transform="translate(0 63.39)">
              <rect id="Rectángulo_7697" data-name="Rectángulo 7697" width="136.5" height="0.219" fill="#1f1f89"/>
            </g>
            <g id="Grupo_59498" data-name="Grupo 59498" transform="translate(0 43.291)">
              <rect id="Rectángulo_7698" data-name="Rectángulo 7698" width="136.5" height="0.219" fill="#1f1f89"/>
            </g>
            <g id="Grupo_59499" data-name="Grupo 59499" transform="translate(0 23.191)">
              <rect id="Rectángulo_7699" data-name="Rectángulo 7699" width="136.5" height="0.219" fill="#1f1f89"/>
            </g>
          </g>
          <rect id="Rectángulo_7700" data-name="Rectángulo 7700" width="136.501" height="19.488" fill="#f78248"/>
        </g>
        <g id="Grupo_59502" data-name="Grupo 59502" transform="translate(123.795 140.52)">
          <path id="Trazado_106186" data-name="Trazado 106186" d="M1884.248,1439.395a24.064,24.064,0,0,1-8.44,1.248c-3.6-.283-5.624-2.064-5.7-5.014a7.405,7.405,0,0,1,2.981-6.053c-.019-.16-.035-.319-.048-.48-.132-1.65.241-2.747,1.109-3.259,1.405-.827,3.492.3,3.58.353l-.467.754c-.468-.257-1.857-.823-2.625-.366-.662.392-.742,1.472-.684,2.35a20.21,20.21,0,0,1,6.4-2.7,36.161,36.161,0,0,1,6.028-.973,5.256,5.256,0,0,1,.052-.54c.063-.405.213-.879.634-.974a.711.711,0,0,1,.745.368,2.013,2.013,0,0,1,.283,1.06c.67-.014,1.293,0,1.844.035l.015-.033a9.451,9.451,0,0,1,.142-3.04c.234-1.01.618-1.521,1.156-1.571a.711.711,0,0,1,.732.428c.3.685-.263,2.536-1.081,4.312l0,.01c.766.122,1.287.322,1.45.6a.627.627,0,0,1-.187.819,1.138,1.138,0,0,1-1.352.274,1.275,1.275,0,0,1-.495-.535,9.138,9.138,0,0,1-1.822,2.561.952.952,0,0,1-1.076.147.98.98,0,0,1-.234-.176,11.727,11.727,0,0,1-.7,1.375c-.967,1.6-2.055,2.427-3.149,2.378a1.832,1.832,0,0,1-1.179-.493,16.03,16.03,0,0,1-2.12,3.292,2.561,2.561,0,0,1-2.761.925c-1.793-.529-3.414-2.979-4.022-5.88a6.371,6.371,0,0,0-2.226,5.012c.069,2.517,1.7,3.918,4.858,4.166,7.961.626,21.921-6.365,22.979-11.509h0C1898,1432.447,1891.379,1437.212,1884.248,1439.395Zm-10.183-9.47c.485,3.062,2.108,5.311,3.485,5.717a1.622,1.622,0,0,0,1.767-.64,14.863,14.863,0,0,0,2.225-3.593,5.076,5.076,0,0,1-.384-1.139,7.748,7.748,0,0,1,0-3.344,24.3,24.3,0,0,0-4.358,1.433A14.47,14.47,0,0,0,1874.064,1429.924Zm8.5,1.432a1.065,1.065,0,0,0,.813.523c.7.028,1.541-.677,2.3-1.938a11.228,11.228,0,0,0,.953-2.034,8.161,8.161,0,0,1-.26-1.774c-1.024.077-2.141.208-3.291.405C1883.682,1427.639,1883.335,1429.5,1882.563,1431.356Zm5.035-3.434c.144.411.273.49.274.491a8.167,8.167,0,0,0,1.643-2.361c-.439-.016-.933-.018-1.472,0A10.178,10.178,0,0,1,1887.6,1427.922Zm-5.425-1.121a6.324,6.324,0,0,0-.118,3.264C1882.519,1428.618,1882.614,1427.367,1882.173,1426.8Zm9.1-.557s0,0,0,0Zm-.137-4.479a5.185,5.185,0,0,0-.219.913A6.371,6.371,0,0,0,1891.136,1421.764Z" transform="translate(-1870.1 -1420.552)" fill="#f77d48"/>
        </g>
      </g>
      <g id="Grupo_59504" data-name="Grupo 59504" transform="translate(24.954 18.481)">
        <path id="Trazado_106187" data-name="Trazado 106187" d="M1364.756,797.219h1.222v6.951h-1.222Z" transform="translate(-1364.756 -797.1)" fill="#ebf3fa"/>
        <path id="Trazado_106188" data-name="Trazado 106188" d="M1380.493,797.219h1.132l3.724,4.806v-4.806h1.2v6.951h-1.023l-3.833-4.945v4.945h-1.2Z" transform="translate(-1377.415 -797.1)" fill="#ebf3fa"/>
        <path id="Trazado_106189" data-name="Trazado 106189" d="M1417.554,797.219h1.35l2.095,5.342,2.085-5.342h1.321l-2.889,7h-1.073Z" transform="translate(-1407.227 -797.1)" fill="#ebf3fa"/>
        <path id="Trazado_106190" data-name="Trazado 106190" d="M1454.919,800.2a3.634,3.634,0,1,1,3.624,3.595A3.561,3.561,0,0,1,1454.919,800.2Zm5.988,0a2.382,2.382,0,0,0-2.363-2.472,2.354,2.354,0,0,0-2.343,2.472,2.381,2.381,0,0,0,2.363,2.473A2.354,2.354,0,0,0,1460.907,800.2Z" transform="translate(-1437.284 -796.609)" fill="#ebf3fa"/>
        <path id="Trazado_106191" data-name="Trazado 106191" d="M1500,797.219h1.221v6.951H1500Z" transform="translate(-1473.548 -797.1)" fill="#ebf3fa"/>
        <path id="Trazado_106192" data-name="Trazado 106192" d="M1514.164,800.2a3.517,3.517,0,0,1,3.584-3.595,3.624,3.624,0,0,1,2.721,1.082l-.784.9a2.765,2.765,0,0,0-1.946-.864,2.479,2.479,0,0,0,0,4.945,2.724,2.724,0,0,0,2-.9l.784.794a3.586,3.586,0,0,1-2.82,1.231A3.5,3.5,0,0,1,1514.164,800.2Z" transform="translate(-1484.941 -796.609)" fill="#ebf3fa"/>
        <path id="Trazado_106193" data-name="Trazado 106193" d="M1553.2,797.219h5.154v1.092h-3.932v1.807h3.485v1.092h-3.485v1.867h3.982v1.092h-5.2Z" transform="translate(-1516.345 -797.1)" fill="#ebf3fa"/>
      </g>
    </g>
    <g id="Grupo_59510" data-name="Grupo 59510" transform="translate(336.894 469.26)">
      <path id="Trazado_106194" data-name="Trazado 106194" d="M873.928,1374.38l-69.765-.434a5.631,5.631,0,0,1-5.6-5.666l.456-73.326a5.631,5.631,0,0,1,5.666-5.6l69.765.434a5.631,5.631,0,0,1,5.6,5.666l-.456,73.326A5.631,5.631,0,0,1,873.928,1374.38Z" transform="translate(-798.566 -1289.358)" fill="#f77d48"/>
      <path id="Trazado_106195" data-name="Trazado 106195" d="M893.456,1332.752l-66.838-.415a2.477,2.477,0,0,1-2.461-2.492l.053-8.487a2.476,2.476,0,0,1,2.492-2.461l66.838.416A2.477,2.477,0,0,1,896,1321.8l-.053,8.487A2.476,2.476,0,0,1,893.456,1332.752Z" transform="translate(-819.151 -1313.119)" fill="#aec3ff"/>
      <g id="Grupo_59508" data-name="Grupo 59508" transform="translate(7.606 27.915)">
        <g id="Grupo_59506" data-name="Grupo 59506" transform="translate(13.759 13.461)">
          <path id="Trazado_106196" data-name="Trazado 106196" d="M916.949,1511.838l-5.722-.036a2.589,2.589,0,0,1-2.573-2.6l.036-5.722a2.589,2.589,0,0,1,2.6-2.573l5.722.036a2.589,2.589,0,0,1,2.573,2.6l-.036,5.723A2.589,2.589,0,0,1,916.949,1511.838Z" transform="translate(-908.487 -1500.902)" fill="#2b478b"/>
          <path id="Trazado_106197" data-name="Trazado 106197" d="M916.523,1580.225l-5.722-.036a2.589,2.589,0,0,1-2.573-2.605l.036-5.722a2.589,2.589,0,0,1,2.6-2.573l5.722.036a2.589,2.589,0,0,1,2.573,2.6l-.036,5.722A2.589,2.589,0,0,1,916.523,1580.225Z" transform="translate(-908.145 -1555.913)" fill="#2b478b"/>
          <path id="Trazado_106198" data-name="Trazado 106198" d="M916.1,1648.611l-5.722-.036a2.589,2.589,0,0,1-2.573-2.6l.036-5.722a2.589,2.589,0,0,1,2.605-2.573l5.722.035a2.589,2.589,0,0,1,2.573,2.605l-.036,5.722A2.589,2.589,0,0,1,916.1,1648.611Z" transform="translate(-907.803 -1610.924)" fill="#2b478b"/>
          <path id="Trazado_106199" data-name="Trazado 106199" d="M990.6,1512.3l-5.722-.036a2.589,2.589,0,0,1-2.573-2.605l.036-5.722a2.589,2.589,0,0,1,2.6-2.573l5.722.036a2.589,2.589,0,0,1,2.573,2.6l-.035,5.722A2.589,2.589,0,0,1,990.6,1512.3Z" transform="translate(-967.729 -1501.271)" fill="#2b478b"/>
          <path id="Trazado_106200" data-name="Trazado 106200" d="M990.17,1580.683l-5.722-.035a2.589,2.589,0,0,1-2.573-2.605l.036-5.722a2.589,2.589,0,0,1,2.6-2.573l5.722.036a2.589,2.589,0,0,1,2.573,2.6l-.036,5.722A2.589,2.589,0,0,1,990.17,1580.683Z" transform="translate(-967.387 -1556.282)" fill="#2b478b"/>
          <path id="Trazado_106201" data-name="Trazado 106201" d="M989.745,1649.069l-5.722-.035a2.589,2.589,0,0,1-2.573-2.605l.036-5.722a2.589,2.589,0,0,1,2.605-2.573l5.722.035a2.589,2.589,0,0,1,2.573,2.605l-.036,5.722A2.589,2.589,0,0,1,989.745,1649.069Z" transform="translate(-967.045 -1611.292)" fill="#2b478b"/>
          <path id="Trazado_106202" data-name="Trazado 106202" d="M1061.188,1581.125l-5.722-.036a2.589,2.589,0,0,1-2.573-2.605l.035-5.722a2.589,2.589,0,0,1,2.605-2.573l5.722.035a2.589,2.589,0,0,1,2.573,2.6l-.036,5.722A2.589,2.589,0,0,1,1061.188,1581.125Z" transform="translate(-1024.514 -1556.638)" fill="#2b478b"/>
          <path id="Trazado_106203" data-name="Trazado 106203" d="M1060.762,1649.511l-5.722-.036a2.589,2.589,0,0,1-2.573-2.605l.036-5.722a2.589,2.589,0,0,1,2.605-2.573l5.722.036a2.589,2.589,0,0,1,2.573,2.6l-.036,5.722A2.589,2.589,0,0,1,1060.762,1649.511Z" transform="translate(-1024.172 -1611.647)" fill="#2b478b"/>
        </g>
        <g id="Grupo_59507" data-name="Grupo 59507">
          <path id="Trazado_106204" data-name="Trazado 106204" d="M847.089,1440.686l-5.722-.036a2.589,2.589,0,0,1-2.573-2.6l.021-3.394a2.589,2.589,0,0,1,2.605-2.573l5.722.036a2.589,2.589,0,0,1,2.573,2.605l-.021,3.394A2.589,2.589,0,0,1,847.089,1440.686Z" transform="translate(-838.532 -1432.079)" fill="#f99746"/>
          <path id="Trazado_106205" data-name="Trazado 106205" d="M846.643,1512.39l-5.722-.036a2.589,2.589,0,0,1-2.573-2.6l.021-3.394a2.589,2.589,0,0,1,2.6-2.573l5.722.036a2.589,2.589,0,0,1,2.573,2.6l-.021,3.394A2.589,2.589,0,0,1,846.643,1512.39Z" transform="translate(-838.173 -1489.758)" fill="#f99746"/>
          <path id="Trazado_106206" data-name="Trazado 106206" d="M846.2,1584.095l-5.722-.035a2.589,2.589,0,0,1-2.573-2.605l.021-3.394a2.589,2.589,0,0,1,2.605-2.573l5.722.036a2.589,2.589,0,0,1,2.573,2.6l-.021,3.394A2.589,2.589,0,0,1,846.2,1584.095Z" transform="translate(-837.815 -1547.438)" fill="#f99746"/>
          <path id="Trazado_106207" data-name="Trazado 106207" d="M845.751,1655.8l-5.722-.036a2.589,2.589,0,0,1-2.573-2.6l.021-3.394a2.589,2.589,0,0,1,2.605-2.573l5.722.036a2.589,2.589,0,0,1,2.573,2.6l-.021,3.394A2.589,2.589,0,0,1,845.751,1655.8Z" transform="translate(-837.456 -1605.117)" fill="#f99746"/>
          <path id="Trazado_106208" data-name="Trazado 106208" d="M917.374,1443.452l-5.722-.036a2.589,2.589,0,0,1-2.573-2.605l.036-5.722a2.589,2.589,0,0,1,2.605-2.573l5.722.035a2.589,2.589,0,0,1,2.573,2.605l-.035,5.722A2.589,2.589,0,0,1,917.374,1443.452Z" transform="translate(-895.07 -1432.431)" fill="#f99746"/>
          <path id="Trazado_106209" data-name="Trazado 106209" d="M991.021,1443.91l-5.722-.036a2.589,2.589,0,0,1-2.573-2.605l.036-5.722a2.589,2.589,0,0,1,2.605-2.573l5.722.035a2.59,2.59,0,0,1,2.573,2.605l-.036,5.722A2.589,2.589,0,0,1,991.021,1443.91Z" transform="translate(-954.312 -1432.799)" fill="#f99746"/>
          <path id="Trazado_106210" data-name="Trazado 106210" d="M1062.038,1444.351l-5.722-.035a2.589,2.589,0,0,1-2.573-2.605l.035-5.722a2.589,2.589,0,0,1,2.605-2.573l5.722.036a2.589,2.589,0,0,1,2.573,2.605l-.036,5.722A2.589,2.589,0,0,1,1062.038,1444.351Z" transform="translate(-1011.439 -1433.154)" fill="#f99746"/>
          <path id="Trazado_106211" data-name="Trazado 106211" d="M1128.353,1513.482l-5.722-.036a2.589,2.589,0,0,1-2.573-2.6l.036-5.722a2.589,2.589,0,0,1,2.605-2.573l5.722.035a2.589,2.589,0,0,1,2.573,2.605l-.036,5.722A2.589,2.589,0,0,1,1128.353,1513.482Z" transform="translate(-1064.783 -1488.764)" fill="#f99746"/>
          <path id="Trazado_106212" data-name="Trazado 106212" d="M1128.778,1445.1l-5.722-.035a2.589,2.589,0,0,1-2.573-2.605l.036-5.722a2.589,2.589,0,0,1,2.6-2.573l5.722.036a2.589,2.589,0,0,1,2.573,2.6l-.036,5.722A2.589,2.589,0,0,1,1128.778,1445.1Z" transform="translate(-1065.125 -1433.753)" fill="#f99746"/>
          <path id="Trazado_106213" data-name="Trazado 106213" d="M1127.5,1595.244l-5.722-.035a2.589,2.589,0,0,1-2.573-2.605l.119-19.1a2.589,2.589,0,0,1,2.6-2.573l5.722.036a2.588,2.588,0,0,1,2.573,2.6l-.119,19.1A2.589,2.589,0,0,1,1127.5,1595.244Z" transform="translate(-1064.099 -1543.774)" fill="#f99746"/>
        </g>
      </g>
      <g id="Grupo_59509" data-name="Grupo 59509" transform="translate(28.433 9.99)">
        <path id="Trazado_106214" data-name="Trazado 106214" d="M943.952,1342.962l.011-1.833.266-.7a.562.562,0,0,1,.434.439l-.015,2.444-.176.173Zm.519.7.173.176-.015,2.444a.56.56,0,0,1-.439.434l-.257-.7.011-1.833Z" transform="translate(-943.933 -1340.432)" fill="#2b478b"/>
        <path id="Trazado_106215" data-name="Trazado 106215" d="M956.7,1341.387l-.01,1.659-.527.521-.173-.176.014-2.27Zm-.728,4.8.014-2.27.176-.173.521.527-.01,1.658Zm3.051.63-2.619-.016a.561.561,0,0,1-.434-.439l.7-.257,2.095.013Zm-.227-5.588-2.086-.013-.7-.266a.561.561,0,0,1,.439-.434l2.61.016Zm.163,1.834.011-1.833.266-.7a.56.56,0,0,1,.434.439l-.015,2.444-.176.173Zm.519.7.173.176-.015,2.444a.561.561,0,0,1-.439.434l-.257-.7.011-1.833Z" transform="translate(-953.618 -1340.497)" fill="#2b478b"/>
        <path id="Trazado_106216" data-name="Trazado 106216" d="M983.926,1341.556l-.01,1.659-.527.52-.174-.176.014-2.27Zm-.728,4.8.014-2.27.176-.173.521.527-.01,1.659Zm3.051.63-2.619-.016a.56.56,0,0,1-.434-.439l.7-.257,2.1.013Zm-.227-5.588-2.086-.013-.7-.266a.561.561,0,0,1,.439-.434l2.61.016Zm.163,1.835.011-1.833.266-.7a.561.561,0,0,1,.434.439l-.015,2.444-.176.173Zm.519.7.173.176-.015,2.444a.56.56,0,0,1-.439.434l-.258-.7.012-1.833Z" transform="translate(-975.517 -1340.633)" fill="#2b478b"/>
        <path id="Trazado_106217" data-name="Trazado 106217" d="M1011.149,1341.726l-.01,1.659-.527.521-.173-.176.014-2.269Zm-.728,4.8.014-2.27.176-.173.521.527-.01,1.659Zm3.051.63-2.619-.016a.559.559,0,0,1-.434-.439l.7-.257,2.095.013Zm-.227-5.588-2.086-.013-.7-.266a.561.561,0,0,1,.439-.434l2.61.016Zm.163,1.834.012-1.833.266-.7a.561.561,0,0,1,.434.439l-.015,2.444-.176.173Zm.519.7.174.176-.015,2.444a.56.56,0,0,1-.439.434l-.257-.7.011-1.833Z" transform="translate(-997.416 -1340.77)" fill="#2b478b"/>
        <path id="Trazado_106218" data-name="Trazado 106218" d="M1038.375,1341.9l-.011,1.658-.527.521-.174-.176.014-2.269Zm-.729,4.8.014-2.27.176-.173.521.527-.01,1.659Zm3.051.63-2.618-.016a.561.561,0,0,1-.434-.439l.7-.257,2.095.013Zm-.227-5.588-2.086-.013-.7-.266a.561.561,0,0,1,.439-.434l2.61.016Zm.163,1.834.011-1.833.266-.7a.56.56,0,0,1,.434.439l-.015,2.444-.175.173Zm.519.7.174.176-.015,2.444a.561.561,0,0,1-.439.434l-.257-.7.012-1.833Z" transform="translate(-1019.315 -1340.906)" fill="#2b478b"/>
        <path id="Trazado_106219" data-name="Trazado 106219" d="M1065.6,1342.064l-.01,1.659-.527.52-.173-.176.014-2.269Zm-.729,4.8.014-2.269.176-.174.521.527-.01,1.659Zm3.051.63-2.619-.016a.56.56,0,0,1-.434-.439l.7-.257,2.1.013Zm-.227-5.588-2.086-.013-.7-.266a.561.561,0,0,1,.439-.434l2.61.016Zm.163,1.834.011-1.833.266-.7a.56.56,0,0,1,.434.439l-.015,2.444-.176.173Zm.519.7.174.176-.015,2.444a.56.56,0,0,1-.439.434l-.257-.7.011-1.833Z" transform="translate(-1041.214 -1341.042)" fill="#2b478b"/>
        <path id="Trazado_106220" data-name="Trazado 106220" d="M1092.821,1342.233l-.01,1.659-.527.521-.174-.176.014-2.27Zm-.728,4.8.014-2.27.176-.173.521.527-.01,1.659Zm3.052.63-2.619-.016a.56.56,0,0,1-.434-.439l.7-.257,2.095.013Zm-.227-5.588-2.086-.013-.7-.266a.561.561,0,0,1,.439-.434l2.61.016Zm.163,1.834.012-1.833.266-.7a.561.561,0,0,1,.434.439l-.015,2.444-.176.173Zm.519.7.174.175-.015,2.444a.561.561,0,0,1-.439.434l-.257-.7.011-1.834Z" transform="translate(-1063.113 -1341.178)" fill="#2b478b"/>
        <path id="Trazado_106221" data-name="Trazado 106221" d="M1120.045,1342.4l-.01,1.658-.527.521-.173-.176.014-2.269Zm-.729,4.8.014-2.27.176-.173.521.527-.011,1.659Zm3.052.63-2.619-.016a.56.56,0,0,1-.434-.439l.7-.257,2.095.013Zm-.227-5.588-2.087-.013-.7-.266a.561.561,0,0,1,.439-.434l2.61.016Zm.163,1.834.011-1.833.266-.7a.56.56,0,0,1,.434.439l-.015,2.444-.176.173Zm.519.7.173.176-.015,2.444a.56.56,0,0,1-.439.434l-.257-.7.011-1.833Z" transform="translate(-1085.012 -1341.313)" fill="#2b478b"/>
        <path id="Trazado_106222" data-name="Trazado 106222" d="M1147.269,1342.572l-.01,1.659-.527.52-.173-.176.014-2.269Zm-.729,4.8.014-2.269.176-.174.521.527-.01,1.659Zm3.052.63-2.619-.016a.56.56,0,0,1-.434-.439l.7-.257,2.095.013Zm-.227-5.589-2.086-.013-.7-.266a.561.561,0,0,1,.439-.434l2.61.016Zm.163,1.834.011-1.833.266-.7a.561.561,0,0,1,.434.439l-.015,2.444-.176.173Zm.519.7.173.176-.015,2.444a.561.561,0,0,1-.439.434l-.257-.7.011-1.833Z" transform="translate(-1106.911 -1341.449)" fill="#2b478b"/>
      </g>
    </g>
    <g id="Grupo_59539" data-name="Grupo 59539" transform="translate(374.271 465.084)">
      <g id="Grupo_59535" data-name="Grupo 59535" transform="translate(45.011)">
        <g id="Grupo_59533" data-name="Grupo 59533" transform="translate(0 34.037)">
          <g id="Grupo_59512" data-name="Grupo 59512" transform="translate(5.756 49.845)">
            <path id="Trazado_106223" data-name="Trazado 106223" d="M1305.667,1697.966v2.839a.967.967,0,0,1-.224.611,1.3,1.3,0,0,1-.611.409,1.271,1.271,0,0,1-.239.057,1.467,1.467,0,0,1-.231.017h-53.845a1.261,1.261,0,0,1-1.29-.93,1.06,1.06,0,0,1-.012-.108c0-.019,0-.037,0-.055v-2.839c0-.019,0-.037,0-.056a1.055,1.055,0,0,1,.012-.108,1.26,1.26,0,0,1,1.29-.93h53.845a1.467,1.467,0,0,1,.231.017,1.42,1.42,0,0,1,.239.057,1.3,1.3,0,0,1,.611.409A.968.968,0,0,1,1305.667,1697.966Z" transform="translate(-1249.214 -1696.872)" fill="#ffb93e"/>
            <path id="Trazado_106224" data-name="Trazado 106224" d="M1279.226,1701.9h-28.848a1.156,1.156,0,0,1-1.119-.81.959.959,0,0,1-.031-.121,1.06,1.06,0,0,1-.012-.108c0-.019,0-.037,0-.055v-2.839c0-.019,0-.037,0-.056a1.055,1.055,0,0,1,.012-.108.953.953,0,0,1,.031-.12,1.155,1.155,0,0,1,1.119-.81h25.305A8.808,8.808,0,0,0,1279.226,1701.9Z" transform="translate(-1249.214 -1696.872)" fill="#ffa412"/>
            <g id="Grupo_59511" data-name="Grupo 59511" transform="translate(19.785)">
              <rect id="Rectángulo_7701" data-name="Rectángulo 7701" width="0.612" height="5.027" transform="translate(29.504 0)" fill="#ffa412"/>
              <rect id="Rectángulo_7702" data-name="Rectángulo 7702" width="0.612" height="5.027" transform="translate(27.432 0)" fill="#ffa412"/>
              <rect id="Rectángulo_7703" data-name="Rectángulo 7703" width="0.612" height="5.027" transform="translate(24.948 0)" fill="#ffa412"/>
              <rect id="Rectángulo_7704" data-name="Rectángulo 7704" width="0.612" height="5.027" transform="translate(21.14 0)" fill="#ffa412"/>
              <rect id="Rectángulo_7705" data-name="Rectángulo 7705" width="0.612" height="5.027" transform="translate(17.114 0)" fill="#ffa412"/>
              <rect id="Rectángulo_7706" data-name="Rectángulo 7706" width="0.612" height="5.027" transform="translate(10.941 0)" fill="#ffa412"/>
              <rect id="Rectángulo_7707" data-name="Rectángulo 7707" width="0.612" height="5.027" transform="translate(5.161 0)" fill="#ffa412"/>
              <rect id="Rectángulo_7708" data-name="Rectángulo 7708" width="0.612" height="5.027" transform="translate(0 0)" fill="#ffa412"/>
              <rect id="Rectángulo_7709" data-name="Rectángulo 7709" width="0.612" height="5.027" transform="translate(31.476 0)" fill="#ffa412"/>
              <rect id="Rectángulo_7710" data-name="Rectángulo 7710" width="0.612" height="5.027" transform="translate(32.778 0)" fill="#ffa412"/>
              <rect id="Rectángulo_7711" data-name="Rectángulo 7711" width="0.612" height="5.027" transform="translate(34.036 0)" fill="#ffa412"/>
              <path id="Trazado_106225" data-name="Trazado 106225" d="M1529.832,1696.887v4.992a1.513,1.513,0,0,1-.23.017h-.382v-5.027h.382A1.5,1.5,0,0,1,1529.832,1696.887Z" transform="translate(-1494.237 -1696.87)" fill="#ffa412"/>
              <path id="Trazado_106226" data-name="Trazado 106226" d="M1534.179,1697.656v4.06a1.3,1.3,0,0,1-.611.409v-4.879A1.3,1.3,0,0,1,1534.179,1697.656Z" transform="translate(-1497.735 -1697.173)" fill="#ffa412"/>
            </g>
          </g>
          <g id="Grupo_59514" data-name="Grupo 59514" transform="translate(0 44.818)">
            <path id="Trazado_106227" data-name="Trazado 106227" d="M1276.236,1672.261v2.837a.976.976,0,0,1-.222.612,1.3,1.3,0,0,1-.123.13,1.348,1.348,0,0,1-.489.28,1.406,1.406,0,0,1-.239.055,1.453,1.453,0,0,1-.229.019h-53.847a1.261,1.261,0,0,1-1.289-.932c0-.035-.01-.071-.012-.106,0-.019,0-.037,0-.057v-2.837c0-.019,0-.039,0-.057,0-.035.007-.071.012-.106a1.262,1.262,0,0,1,1.289-.932h53.847c.033,0,.069,0,.1.005a.246.246,0,0,1,.037,0,.005.005,0,0,1,.007,0,.261.261,0,0,1,.049.005l.033.005a1.383,1.383,0,0,1,.239.055,1.366,1.366,0,0,1,.131.051h0l.084.04.047.027a.335.335,0,0,1,.044.027.979.979,0,0,1,.158.116c.017.014.03.029.045.042a.359.359,0,0,1,.027.025.123.123,0,0,1,.013.015l.012.012a.5.5,0,0,1,.049.056A.971.971,0,0,1,1276.236,1672.261Z" transform="translate(-1219.785 -1671.166)" fill="#ffb93e"/>
            <path id="Trazado_106228" data-name="Trazado 106228" d="M1249.8,1676.194h-28.848a1.153,1.153,0,0,1-1.118-.812.94.94,0,0,1-.031-.12c0-.035-.01-.071-.012-.106,0-.019,0-.037,0-.057v-2.837c0-.019,0-.039,0-.057,0-.035.007-.071.012-.106a.965.965,0,0,1,.031-.12,1.154,1.154,0,0,1,1.118-.812h25.305c.01.042.022.083.035.125A8.793,8.793,0,0,0,1249.8,1676.194Z" transform="translate(-1219.785 -1671.166)" fill="#ffa412"/>
            <g id="Grupo_59513" data-name="Grupo 59513" transform="translate(19.784 0.001)">
              <rect id="Rectángulo_7712" data-name="Rectángulo 7712" width="0.612" height="5.027" transform="translate(29.504 0)" fill="#ffa412"/>
              <rect id="Rectángulo_7713" data-name="Rectángulo 7713" width="0.612" height="5.027" transform="translate(27.432 0)" fill="#ffa412"/>
              <rect id="Rectángulo_7714" data-name="Rectángulo 7714" width="0.612" height="5.027" transform="translate(24.948 0)" fill="#ffa412"/>
              <rect id="Rectángulo_7715" data-name="Rectángulo 7715" width="0.612" height="5.027" transform="translate(21.14 0)" fill="#ffa412"/>
              <rect id="Rectángulo_7716" data-name="Rectángulo 7716" width="0.612" height="5.027" transform="translate(17.114 0)" fill="#ffa412"/>
              <rect id="Rectángulo_7717" data-name="Rectángulo 7717" width="0.612" height="5.027" transform="translate(10.941 0)" fill="#ffa412"/>
              <rect id="Rectángulo_7718" data-name="Rectángulo 7718" width="0.612" height="5.027" transform="translate(5.161 0)" fill="#ffa412"/>
              <rect id="Rectángulo_7719" data-name="Rectángulo 7719" width="0.612" height="5.027" transform="translate(0 0)" fill="#ffa412"/>
              <rect id="Rectángulo_7720" data-name="Rectángulo 7720" width="0.612" height="5.027" transform="translate(31.476 0)" fill="#ffa412"/>
              <rect id="Rectángulo_7721" data-name="Rectángulo 7721" width="0.612" height="5.027" transform="translate(32.778 0)" fill="#ffa412"/>
              <rect id="Rectángulo_7722" data-name="Rectángulo 7722" width="0.612" height="5.027" transform="translate(34.036 0)" fill="#ffa412"/>
              <path id="Trazado_106229" data-name="Trazado 106229" d="M1500.4,1671.186v4.991a1.468,1.468,0,0,1-.23.018h-.382v-5.027h.382A1.468,1.468,0,0,1,1500.4,1671.186Z" transform="translate(-1464.804 -1671.169)" fill="#ffa412"/>
              <path id="Trazado_106230" data-name="Trazado 106230" d="M1504.745,1671.955v4.06a1.294,1.294,0,0,1-.611.41v-4.879A1.293,1.293,0,0,1,1504.745,1671.955Z" transform="translate(-1468.301 -1671.472)" fill="#ffa412"/>
            </g>
          </g>
          <g id="Grupo_59516" data-name="Grupo 59516" transform="translate(2.782 39.916)">
            <path id="Trazado_106231" data-name="Trazado 106231" d="M1290.46,1647.2v2.839a.969.969,0,0,1-.224.61,1.287,1.287,0,0,1-.611.409,1.551,1.551,0,0,1-.239.057,1.68,1.68,0,0,1-.229.017h-53.847a1.5,1.5,0,0,1-.6-.125,1.136,1.136,0,0,1-.686-.794c-.005-.023-.007-.047-.01-.07a.439.439,0,0,1,0-.049c0-.018,0-.037,0-.055V1647.2c0-.018,0-.037,0-.055a.733.733,0,0,1,.012-.106,1.26,1.26,0,0,1,1.289-.932h53.847a1.475,1.475,0,0,1,.229.017,1.385,1.385,0,0,1,.239.056,1.307,1.307,0,0,1,.611.41A.969.969,0,0,1,1290.46,1647.2Z" transform="translate(-1234.009 -1646.105)" fill="#ffb93e"/>
            <path id="Trazado_106232" data-name="Trazado 106232" d="M1264.019,1651.132h-28.848a1.2,1.2,0,0,1-.535-.125,1.1,1.1,0,0,1-.612-.794c-.005-.023-.007-.047-.01-.07a.439.439,0,0,1,0-.049c0-.018,0-.037,0-.055V1647.2c0-.018,0-.037,0-.055a.733.733,0,0,1,.012-.106.932.932,0,0,1,.03-.117,1.151,1.151,0,0,1,1.119-.815h25.306a8.823,8.823,0,0,0,3.365,4.9C1263.9,1651.049,1263.959,1651.092,1264.019,1651.132Z" transform="translate(-1234.009 -1646.105)" fill="#ffa412"/>
            <g id="Grupo_59515" data-name="Grupo 59515" transform="translate(19.784)">
              <rect id="Rectángulo_7723" data-name="Rectángulo 7723" width="0.612" height="5.027" transform="translate(29.504 0)" fill="#ffa412"/>
              <rect id="Rectángulo_7724" data-name="Rectángulo 7724" width="0.612" height="5.027" transform="translate(27.432 0)" fill="#ffa412"/>
              <rect id="Rectángulo_7725" data-name="Rectángulo 7725" width="0.612" height="5.027" transform="translate(24.948 0)" fill="#ffa412"/>
              <rect id="Rectángulo_7726" data-name="Rectángulo 7726" width="0.612" height="5.027" transform="translate(21.14 0)" fill="#ffa412"/>
              <rect id="Rectángulo_7727" data-name="Rectángulo 7727" width="0.612" height="5.027" transform="translate(17.114 0)" fill="#ffa412"/>
              <rect id="Rectángulo_7728" data-name="Rectángulo 7728" width="0.612" height="5.027" transform="translate(10.941 0)" fill="#ffa412"/>
              <rect id="Rectángulo_7729" data-name="Rectángulo 7729" width="0.612" height="5.027" transform="translate(5.161 0)" fill="#ffa412"/>
              <rect id="Rectángulo_7730" data-name="Rectángulo 7730" width="0.612" height="5.027" transform="translate(0 0)" fill="#ffa412"/>
              <rect id="Rectángulo_7731" data-name="Rectángulo 7731" width="0.612" height="5.027" transform="translate(31.476 0)" fill="#ffa412"/>
              <rect id="Rectángulo_7732" data-name="Rectángulo 7732" width="0.612" height="5.027" transform="translate(32.778 0)" fill="#ffa412"/>
              <rect id="Rectángulo_7733" data-name="Rectángulo 7733" width="0.612" height="5.027" transform="translate(34.036 0)" fill="#ffa412"/>
              <path id="Trazado_106233" data-name="Trazado 106233" d="M1514.622,1646.12v4.992a1.516,1.516,0,0,1-.23.018h-.382V1646.1h.382A1.5,1.5,0,0,1,1514.622,1646.12Z" transform="translate(-1479.028 -1646.103)" fill="#ffa412"/>
              <path id="Trazado_106234" data-name="Trazado 106234" d="M1518.969,1646.888v4.061a1.3,1.3,0,0,1-.611.41v-4.88A1.3,1.3,0,0,1,1518.969,1646.888Z" transform="translate(-1482.525 -1646.405)" fill="#ffa412"/>
            </g>
          </g>
          <g id="Grupo_59518" data-name="Grupo 59518" transform="translate(4.072 34.888)">
            <path id="Trazado_106235" data-name="Trazado 106235" d="M1297.056,1621.495v2.838a.964.964,0,0,1-.224.61c-.018.024-.039.045-.059.068a1.264,1.264,0,0,1-.372.271,1.59,1.59,0,0,1-.18.072,1.435,1.435,0,0,1-.239.056c-.037,0-.074.01-.113.013s-.079.005-.117.005h-53.846a1.261,1.261,0,0,1-1.29-.932c-.005-.035-.01-.071-.012-.106v-2.952a1.2,1.2,0,0,1,1.147-1.03c.05-.005.1-.008.155-.008h53.846c.038,0,.079,0,.117.005a1.107,1.107,0,0,1,.113.013,1.435,1.435,0,0,1,.239.056,1.3,1.3,0,0,1,.61.409A.968.968,0,0,1,1297.056,1621.495Z" transform="translate(-1240.605 -1620.4)" fill="#ffb93e"/>
            <path id="Trazado_106236" data-name="Trazado 106236" d="M1270.615,1625.428h-28.848a1.156,1.156,0,0,1-1.119-.812.915.915,0,0,1-.031-.12c-.005-.035-.01-.071-.012-.106v-2.952a1.132,1.132,0,0,1,1.024-1.03,1.249,1.249,0,0,1,.138-.008h25.305s0,.005,0,.008A8.815,8.815,0,0,0,1270.615,1625.428Z" transform="translate(-1240.605 -1620.4)" fill="#ffa412"/>
            <g id="Grupo_59517" data-name="Grupo 59517" transform="translate(19.783)">
              <rect id="Rectángulo_7734" data-name="Rectángulo 7734" width="0.612" height="5.027" transform="translate(29.504 0)" fill="#ffa412"/>
              <rect id="Rectángulo_7735" data-name="Rectángulo 7735" width="0.612" height="5.027" transform="translate(27.432 0)" fill="#ffa412"/>
              <rect id="Rectángulo_7736" data-name="Rectángulo 7736" width="0.612" height="5.027" transform="translate(24.948 0)" fill="#ffa412"/>
              <rect id="Rectángulo_7737" data-name="Rectángulo 7737" width="0.612" height="5.027" transform="translate(21.14 0)" fill="#ffa412"/>
              <rect id="Rectángulo_7738" data-name="Rectángulo 7738" width="0.612" height="5.027" transform="translate(17.114 0)" fill="#ffa412"/>
              <rect id="Rectángulo_7739" data-name="Rectángulo 7739" width="0.612" height="5.027" transform="translate(10.941 0)" fill="#ffa412"/>
              <rect id="Rectángulo_7740" data-name="Rectángulo 7740" width="0.612" height="5.027" transform="translate(5.161 0)" fill="#ffa412"/>
              <rect id="Rectángulo_7741" data-name="Rectángulo 7741" width="0.612" height="5.027" transform="translate(0 0)" fill="#ffa412"/>
              <rect id="Rectángulo_7742" data-name="Rectángulo 7742" width="0.612" height="5.027" transform="translate(31.475 0)" fill="#ffa412"/>
              <rect id="Rectángulo_7743" data-name="Rectángulo 7743" width="0.612" height="5.027" transform="translate(32.778 0)" fill="#ffa412"/>
              <rect id="Rectángulo_7744" data-name="Rectángulo 7744" width="0.612" height="5.027" transform="translate(34.036 0)" fill="#ffa412"/>
              <path id="Trazado_106237" data-name="Trazado 106237" d="M1521.216,1620.418v4.992a1.543,1.543,0,0,1-.229.017h-.383V1620.4h.383A1.5,1.5,0,0,1,1521.216,1620.418Z" transform="translate(-1485.621 -1620.4)" fill="#ffa412"/>
              <path id="Trazado_106238" data-name="Trazado 106238" d="M1525.563,1621.187v4.06a1.3,1.3,0,0,1-.611.41v-4.879A1.3,1.3,0,0,1,1525.563,1621.187Z" transform="translate(-1489.119 -1620.704)" fill="#ffa412"/>
            </g>
          </g>
          <g id="Grupo_59520" data-name="Grupo 59520" transform="translate(0.113 29.869)">
            <path id="Trazado_106239" data-name="Trazado 106239" d="M1276.812,1595.833v2.838a.96.96,0,0,1-.222.61,1.286,1.286,0,0,1-.612.411,1.424,1.424,0,0,1-.237.056.593.593,0,0,1-.076.01h-.01a.33.33,0,0,1-.041,0l-.035,0-.069,0h-53.846a1.231,1.231,0,0,1-1.3-1.038c0-.019,0-.037,0-.057v-2.838c0-.019,0-.039,0-.057a.354.354,0,0,1,0-.046,1.178,1.178,0,0,1,.977-.957.259.259,0,0,1,.039-.008,1.554,1.554,0,0,1,.282-.027h53.846c.04,0,.077,0,.116.005l.049.005h.005c.02,0,.04.005.06.008a1.388,1.388,0,0,1,.237.055,1.284,1.284,0,0,1,.612.411A.96.96,0,0,1,1276.812,1595.833Z" transform="translate(-1220.361 -1594.738)" fill="#ffb93e"/>
            <path id="Trazado_106240" data-name="Trazado 106240" d="M1250.371,1599.766h-28.846a1.139,1.139,0,0,1-1.163-1.038c0-.019,0-.037,0-.057v-2.838c0-.019,0-.039,0-.057a.354.354,0,0,1,0-.046,1.121,1.121,0,0,1,.9-.964.226.226,0,0,1,.049-.01,1.209,1.209,0,0,1,.207-.019h25.3c0,.014.007.024.01.037a8.811,8.811,0,0,0,3.521,4.982S1250.368,1599.762,1250.371,1599.766Z" transform="translate(-1220.361 -1594.738)" fill="#ffa412"/>
            <g id="Grupo_59519" data-name="Grupo 59519" transform="translate(19.784 0)">
              <rect id="Rectángulo_7745" data-name="Rectángulo 7745" width="0.612" height="5.027" transform="translate(29.504 0)" fill="#ffa412"/>
              <rect id="Rectángulo_7746" data-name="Rectángulo 7746" width="0.612" height="5.027" transform="translate(27.432 0)" fill="#ffa412"/>
              <rect id="Rectángulo_7747" data-name="Rectángulo 7747" width="0.612" height="5.027" transform="translate(24.948 0)" fill="#ffa412"/>
              <rect id="Rectángulo_7748" data-name="Rectángulo 7748" width="0.612" height="5.027" transform="translate(21.14 0)" fill="#ffa412"/>
              <rect id="Rectángulo_7749" data-name="Rectángulo 7749" width="0.612" height="5.027" transform="translate(17.114 0)" fill="#ffa412"/>
              <rect id="Rectángulo_7750" data-name="Rectángulo 7750" width="0.612" height="5.027" transform="translate(10.941 0)" fill="#ffa412"/>
              <rect id="Rectángulo_7751" data-name="Rectángulo 7751" width="0.612" height="5.027" transform="translate(5.161 0)" fill="#ffa412"/>
              <rect id="Rectángulo_7752" data-name="Rectángulo 7752" width="0.612" height="5.027" transform="translate(0 0)" fill="#ffa412"/>
              <rect id="Rectángulo_7753" data-name="Rectángulo 7753" width="0.612" height="5.027" transform="translate(31.475 0)" fill="#ffa412"/>
              <rect id="Rectángulo_7754" data-name="Rectángulo 7754" width="0.612" height="5.027" transform="translate(32.778 0)" fill="#ffa412"/>
              <rect id="Rectángulo_7755" data-name="Rectángulo 7755" width="0.612" height="5.027" transform="translate(34.036 0)" fill="#ffa412"/>
              <path id="Trazado_106241" data-name="Trazado 106241" d="M1500.976,1594.757v4.992a1.527,1.527,0,0,1-.23.017h-.382v-5.027h.382A1.527,1.527,0,0,1,1500.976,1594.757Z" transform="translate(-1465.382 -1594.74)" fill="#ffa412"/>
              <path id="Trazado_106242" data-name="Trazado 106242" d="M1505.324,1595.527v4.06a1.3,1.3,0,0,1-.611.41v-4.879A1.3,1.3,0,0,1,1505.324,1595.527Z" transform="translate(-1468.88 -1595.044)" fill="#ffa412"/>
            </g>
          </g>
          <g id="Grupo_59522" data-name="Grupo 59522" transform="translate(0 24.878)">
            <path id="Trazado_106243" data-name="Trazado 106243" d="M1276.236,1570.318v2.838a.971.971,0,0,1-.222.61,1.494,1.494,0,0,1-.123.131,1.346,1.346,0,0,1-.489.279,1.487,1.487,0,0,1-.185.047h-.005c-.017,0-.032.007-.049.009a1.468,1.468,0,0,1-.229.019h-53.847a1.387,1.387,0,0,1-.168-.01c-.022,0-.044,0-.064-.008a1.212,1.212,0,0,1-1.058-.925c-.005-.032-.008-.062-.01-.094s0-.038,0-.057v-2.838c0-.02,0-.039,0-.057,0-.035.007-.071.012-.106a1.262,1.262,0,0,1,1.289-.932h53.847l.1,0,.014,0a.194.194,0,0,0,.03,0l.049.007a.122.122,0,0,1,.033.005,1.372,1.372,0,0,1,.239.056c.045.015.089.032.131.05h0a1.316,1.316,0,0,1,.431.3c.017.018.034.037.049.055A.977.977,0,0,1,1276.236,1570.318Z" transform="translate(-1219.785 -1569.223)" fill="#ffb93e"/>
            <path id="Trazado_106244" data-name="Trazado 106244" d="M1249.8,1574.251h-28.848l-.067,0-.074-.007a1.138,1.138,0,0,1-1.009-.935c-.005-.032-.008-.062-.01-.094s0-.038,0-.057v-2.838c0-.02,0-.039,0-.057,0-.035.007-.071.012-.106a.952.952,0,0,1,.031-.12,1.153,1.153,0,0,1,1.118-.812h25.305c.01.042.022.082.035.124a8.793,8.793,0,0,0,3.455,4.866C1249.76,1574.227,1249.778,1574.237,1249.8,1574.251Z" transform="translate(-1219.785 -1569.223)" fill="#ffa412"/>
            <g id="Grupo_59521" data-name="Grupo 59521" transform="translate(19.784 0)">
              <rect id="Rectángulo_7756" data-name="Rectángulo 7756" width="0.612" height="5.027" transform="translate(29.504 0)" fill="#ffa412"/>
              <rect id="Rectángulo_7757" data-name="Rectángulo 7757" width="0.612" height="5.027" transform="translate(27.432 0)" fill="#ffa412"/>
              <rect id="Rectángulo_7758" data-name="Rectángulo 7758" width="0.612" height="5.027" transform="translate(24.948 0)" fill="#ffa412"/>
              <rect id="Rectángulo_7759" data-name="Rectángulo 7759" width="0.612" height="5.027" transform="translate(21.14 0)" fill="#ffa412"/>
              <rect id="Rectángulo_7760" data-name="Rectángulo 7760" width="0.612" height="5.027" transform="translate(17.114 0)" fill="#ffa412"/>
              <rect id="Rectángulo_7761" data-name="Rectángulo 7761" width="0.612" height="5.027" transform="translate(10.941 0)" fill="#ffa412"/>
              <rect id="Rectángulo_7762" data-name="Rectángulo 7762" width="0.612" height="5.027" transform="translate(5.161 0)" fill="#ffa412"/>
              <rect id="Rectángulo_7763" data-name="Rectángulo 7763" width="0.612" height="5.027" transform="translate(0 0)" fill="#ffa412"/>
              <rect id="Rectángulo_7764" data-name="Rectángulo 7764" width="0.612" height="5.027" transform="translate(31.476 0)" fill="#ffa412"/>
              <rect id="Rectángulo_7765" data-name="Rectángulo 7765" width="0.612" height="5.027" transform="translate(32.778 0)" fill="#ffa412"/>
              <rect id="Rectángulo_7766" data-name="Rectángulo 7766" width="0.612" height="5.027" transform="translate(34.036 0)" fill="#ffa412"/>
              <path id="Trazado_106245" data-name="Trazado 106245" d="M1500.4,1569.241v4.992a1.546,1.546,0,0,1-.23.017h-.382v-5.027h.382A1.53,1.53,0,0,1,1500.4,1569.241Z" transform="translate(-1464.804 -1569.224)" fill="#ffa412"/>
              <path id="Trazado_106246" data-name="Trazado 106246" d="M1504.745,1570.011v4.061a1.3,1.3,0,0,1-.611.409V1569.6A1.293,1.293,0,0,1,1504.745,1570.011Z" transform="translate(-1468.301 -1569.528)" fill="#ffa412"/>
            </g>
          </g>
          <g id="Grupo_59524" data-name="Grupo 59524" transform="translate(2.782 19.975)">
            <path id="Trazado_106247" data-name="Trazado 106247" d="M1290.46,1545.248v2.838a.97.97,0,0,1-.224.612,1.292,1.292,0,0,1-.611.409,1.373,1.373,0,0,1-.239.055,1.474,1.474,0,0,1-.229.019h-53.847a1.5,1.5,0,0,1-.6-.125,1.136,1.136,0,0,1-.686-.794c-.005-.023-.007-.047-.01-.071a.464.464,0,0,1,0-.049c0-.018,0-.037,0-.057v-2.838c0-.019,0-.038,0-.057a.762.762,0,0,1,.012-.106,1.261,1.261,0,0,1,1.289-.932h53.847a1.474,1.474,0,0,1,.229.019,1.385,1.385,0,0,1,.239.056,1.282,1.282,0,0,1,.611.41A.965.965,0,0,1,1290.46,1545.248Z" transform="translate(-1234.009 -1544.153)" fill="#ffb93e"/>
            <path id="Trazado_106248" data-name="Trazado 106248" d="M1264.019,1549.181h-28.848a1.2,1.2,0,0,1-.535-.125,1.1,1.1,0,0,1-.612-.794c-.005-.023-.007-.047-.01-.071a.464.464,0,0,1,0-.049c0-.018,0-.037,0-.057v-2.838c0-.019,0-.038,0-.057a.762.762,0,0,1,.012-.106.931.931,0,0,1,.03-.117,1.153,1.153,0,0,1,1.119-.815h25.306a8.82,8.82,0,0,0,3.365,4.9C1263.9,1549.1,1263.959,1549.138,1264.019,1549.181Z" transform="translate(-1234.009 -1544.153)" fill="#ffa412"/>
            <g id="Grupo_59523" data-name="Grupo 59523" transform="translate(19.784 0.001)">
              <rect id="Rectángulo_7767" data-name="Rectángulo 7767" width="0.612" height="5.027" transform="translate(29.504 0)" fill="#ffa412"/>
              <rect id="Rectángulo_7768" data-name="Rectángulo 7768" width="0.612" height="5.027" transform="translate(27.432 0)" fill="#ffa412"/>
              <rect id="Rectángulo_7769" data-name="Rectángulo 7769" width="0.612" height="5.027" transform="translate(24.948 0)" fill="#ffa412"/>
              <rect id="Rectángulo_7770" data-name="Rectángulo 7770" width="0.612" height="5.027" transform="translate(21.14 0)" fill="#ffa412"/>
              <rect id="Rectángulo_7771" data-name="Rectángulo 7771" width="0.612" height="5.027" transform="translate(17.114 0)" fill="#ffa412"/>
              <rect id="Rectángulo_7772" data-name="Rectángulo 7772" width="0.612" height="5.027" transform="translate(10.941 0)" fill="#ffa412"/>
              <rect id="Rectángulo_7773" data-name="Rectángulo 7773" width="0.612" height="5.027" transform="translate(5.161 0)" fill="#ffa412"/>
              <rect id="Rectángulo_7774" data-name="Rectángulo 7774" width="0.612" height="5.027" transform="translate(0 0)" fill="#ffa412"/>
              <rect id="Rectángulo_7775" data-name="Rectángulo 7775" width="0.612" height="5.027" transform="translate(31.476 0)" fill="#ffa412"/>
              <rect id="Rectángulo_7776" data-name="Rectángulo 7776" width="0.612" height="5.027" transform="translate(32.778 0)" fill="#ffa412"/>
              <rect id="Rectángulo_7777" data-name="Rectángulo 7777" width="0.612" height="5.027" transform="translate(34.036 0)" fill="#ffa412"/>
              <path id="Trazado_106249" data-name="Trazado 106249" d="M1514.622,1544.175v4.992a1.532,1.532,0,0,1-.23.017h-.382v-5.027h.382A1.532,1.532,0,0,1,1514.622,1544.175Z" transform="translate(-1479.028 -1544.157)" fill="#ffa412"/>
              <path id="Trazado_106250" data-name="Trazado 106250" d="M1518.969,1544.943V1549a1.3,1.3,0,0,1-.611.409v-4.879A1.3,1.3,0,0,1,1518.969,1544.943Z" transform="translate(-1482.525 -1544.46)" fill="#ffa412"/>
            </g>
          </g>
          <g id="Grupo_59526" data-name="Grupo 59526" transform="translate(7.183 14.949)">
            <path id="Trazado_106251" data-name="Trazado 106251" d="M1312.958,1519.55v2.839a.971.971,0,0,1-.222.609v0c-.019.024-.039.045-.059.067a1.23,1.23,0,0,1-.288.226,1.308,1.308,0,0,1-.172.082,0,0,0,0,0,0,0,.945.945,0,0,1-.091.034,1.345,1.345,0,0,1-.239.056,1.46,1.46,0,0,1-.229.017h-53.847a1.26,1.26,0,0,1-1.288-.93.753.753,0,0,1-.012-.107c0-.019,0-.037,0-.056v-2.839c0-.019,0-.037,0-.056a1.2,1.2,0,0,1,1.147-1.029,1.171,1.171,0,0,1,.153-.009h53.847a1.68,1.68,0,0,1,.229.017,1.528,1.528,0,0,1,.239.057,1.326,1.326,0,0,1,.552.342c.02.022.04.044.059.067v0A.971.971,0,0,1,1312.958,1519.55Z" transform="translate(-1256.507 -1518.457)" fill="#ffb93e"/>
            <path id="Trazado_106252" data-name="Trazado 106252" d="M1286.517,1523.483h-28.848a1.151,1.151,0,0,1-1.118-.813.905.905,0,0,1-.03-.117.753.753,0,0,1-.012-.107c0-.019,0-.037,0-.056v-2.839c0-.019,0-.037,0-.056a1.128,1.128,0,0,1,1.023-1.029.952.952,0,0,1,.138-.009h25.305a.08.08,0,0,1,0,.009A8.807,8.807,0,0,0,1286.517,1523.483Z" transform="translate(-1256.507 -1518.457)" fill="#ffa412"/>
            <g id="Grupo_59525" data-name="Grupo 59525" transform="translate(19.784)">
              <rect id="Rectángulo_7778" data-name="Rectángulo 7778" width="0.612" height="5.027" transform="translate(29.504 0)" fill="#ffa412"/>
              <rect id="Rectángulo_7779" data-name="Rectángulo 7779" width="0.612" height="5.027" transform="translate(27.432 0)" fill="#ffa412"/>
              <rect id="Rectángulo_7780" data-name="Rectángulo 7780" width="0.612" height="5.027" transform="translate(24.948 0)" fill="#ffa412"/>
              <rect id="Rectángulo_7781" data-name="Rectángulo 7781" width="0.612" height="5.027" transform="translate(21.14 0)" fill="#ffa412"/>
              <rect id="Rectángulo_7782" data-name="Rectángulo 7782" width="0.612" height="5.027" transform="translate(17.114 0)" fill="#ffa412"/>
              <rect id="Rectángulo_7783" data-name="Rectángulo 7783" width="0.612" height="5.027" transform="translate(10.941 0)" fill="#ffa412"/>
              <rect id="Rectángulo_7784" data-name="Rectángulo 7784" width="0.612" height="5.027" transform="translate(5.161 0)" fill="#ffa412"/>
              <rect id="Rectángulo_7785" data-name="Rectángulo 7785" width="0.612" height="5.027" transform="translate(0 0)" fill="#ffa412"/>
              <rect id="Rectángulo_7786" data-name="Rectángulo 7786" width="0.612" height="5.027" transform="translate(31.476 0)" fill="#ffa412"/>
              <rect id="Rectángulo_7787" data-name="Rectángulo 7787" width="0.612" height="5.027" transform="translate(32.778 0)" fill="#ffa412"/>
              <rect id="Rectángulo_7788" data-name="Rectángulo 7788" width="0.612" height="5.027" transform="translate(34.036 0)" fill="#ffa412"/>
              <path id="Trazado_106253" data-name="Trazado 106253" d="M1537.12,1518.474v4.992a1.485,1.485,0,0,1-.23.017h-.382v-5.027h.382A1.5,1.5,0,0,1,1537.12,1518.474Z" transform="translate(-1501.526 -1518.456)" fill="#ffa412"/>
              <path id="Trazado_106254" data-name="Trazado 106254" d="M1541.467,1519.242v4.061a1.3,1.3,0,0,1-.611.409v-4.879A1.3,1.3,0,0,1,1541.467,1519.242Z" transform="translate(-1505.023 -1518.759)" fill="#ffa412"/>
            </g>
          </g>
          <g id="Grupo_59528" data-name="Grupo 59528" transform="translate(0.113 9.93)">
            <path id="Trazado_106255" data-name="Trazado 106255" d="M1276.812,1493.89v2.838a.96.96,0,0,1-.222.611,1.284,1.284,0,0,1-.612.41,1.377,1.377,0,0,1-.237.056l-.076.01h-.01a.455.455,0,0,1-.051,0l-.03,0-.064,0h-53.846a1.369,1.369,0,0,1-1.108-.521.964.964,0,0,1-.193-.517c0-.02,0-.039,0-.057v-2.838c0-.02,0-.039,0-.057a1.155,1.155,0,0,1,.923-.989,1.472,1.472,0,0,1,.378-.049h53.846l.069,0a.18.18,0,0,1,.033,0,1.039,1.039,0,0,1,.128.013,1.388,1.388,0,0,1,.237.055.8.8,0,0,1,.111.042h0a1.264,1.264,0,0,1,.376.237.019.019,0,0,1,.005.007l.015.013a1.033,1.033,0,0,1,.1.109A.964.964,0,0,1,1276.812,1493.89Z" transform="translate(-1220.361 -1492.795)" fill="#ffb93e"/>
            <path id="Trazado_106256" data-name="Trazado 106256" d="M1250.371,1497.823h-28.846a1.184,1.184,0,0,1-.973-.5,1.035,1.035,0,0,1-.19-.542c0-.02,0-.039,0-.057v-2.838c0-.02,0-.039,0-.057a1.122,1.122,0,0,1,.927-1.014,1.206,1.206,0,0,1,.236-.024h25.3c.01.039.022.077.034.116a8.8,8.8,0,0,0,3.5,4.9A.048.048,0,0,1,1250.371,1497.823Z" transform="translate(-1220.361 -1492.795)" fill="#ffa412"/>
            <g id="Grupo_59527" data-name="Grupo 59527" transform="translate(19.784 0)">
              <rect id="Rectángulo_7789" data-name="Rectángulo 7789" width="0.612" height="5.027" transform="translate(29.504 0)" fill="#ffa412"/>
              <rect id="Rectángulo_7790" data-name="Rectángulo 7790" width="0.612" height="5.027" transform="translate(27.432 0)" fill="#ffa412"/>
              <rect id="Rectángulo_7791" data-name="Rectángulo 7791" width="0.612" height="5.027" transform="translate(24.948 0)" fill="#ffa412"/>
              <rect id="Rectángulo_7792" data-name="Rectángulo 7792" width="0.612" height="5.027" transform="translate(21.14 0)" fill="#ffa412"/>
              <rect id="Rectángulo_7793" data-name="Rectángulo 7793" width="0.612" height="5.027" transform="translate(17.114 0)" fill="#ffa412"/>
              <rect id="Rectángulo_7794" data-name="Rectángulo 7794" width="0.612" height="5.027" transform="translate(10.941 0)" fill="#ffa412"/>
              <rect id="Rectángulo_7795" data-name="Rectángulo 7795" width="0.612" height="5.027" transform="translate(5.161 0)" fill="#ffa412"/>
              <rect id="Rectángulo_7796" data-name="Rectángulo 7796" width="0.612" height="5.027" transform="translate(0 0)" fill="#ffa412"/>
              <rect id="Rectángulo_7797" data-name="Rectángulo 7797" width="0.612" height="5.027" transform="translate(31.475 0)" fill="#ffa412"/>
              <rect id="Rectángulo_7798" data-name="Rectángulo 7798" width="0.612" height="5.027" transform="translate(32.778 0)" fill="#ffa412"/>
              <rect id="Rectángulo_7799" data-name="Rectángulo 7799" width="0.612" height="5.027" transform="translate(34.036 0)" fill="#ffa412"/>
              <path id="Trazado_106257" data-name="Trazado 106257" d="M1500.976,1492.813v4.992a1.5,1.5,0,0,1-.23.018h-.382V1492.8h.382A1.5,1.5,0,0,1,1500.976,1492.813Z" transform="translate(-1465.382 -1492.796)" fill="#ffa412"/>
              <path id="Trazado_106258" data-name="Trazado 106258" d="M1505.324,1493.582v4.06a1.3,1.3,0,0,1-.611.41v-4.879A1.3,1.3,0,0,1,1505.324,1493.582Z" transform="translate(-1468.88 -1493.099)" fill="#ffa412"/>
            </g>
          </g>
          <g id="Grupo_59530" data-name="Grupo 59530" transform="translate(4.072 5.019)">
            <path id="Trazado_106259" data-name="Trazado 106259" d="M1297.054,1468.783v2.839a.966.966,0,0,1-.223.611,1.3,1.3,0,0,1-.611.409,1.386,1.386,0,0,1-.238.057,1.531,1.531,0,0,1-.23.018H1241.9a1.492,1.492,0,0,1-.582-.116,1.121,1.121,0,0,1-.716-.877c0-.015,0-.03,0-.045s0-.037,0-.056v-2.839c0-.019,0-.037,0-.056a1.2,1.2,0,0,1,1.147-1.03,1.415,1.415,0,0,1,.154-.008h53.846a1.531,1.531,0,0,1,.23.017,1.409,1.409,0,0,1,.238.056,1.3,1.3,0,0,1,.611.409A.966.966,0,0,1,1297.054,1468.783Z" transform="translate(-1240.602 -1467.689)" fill="#ffb93e"/>
            <path id="Trazado_106260" data-name="Trazado 106260" d="M1270.612,1472.716h-28.847a1.207,1.207,0,0,1-.519-.116,1.1,1.1,0,0,1-.639-.877c0-.015,0-.03,0-.045s0-.037,0-.056v-2.839c0-.019,0-.037,0-.056a1.166,1.166,0,0,1,1.162-1.038h25.3l0,.008a8.82,8.82,0,0,0,3.375,4.9C1270.5,1472.639,1270.556,1472.677,1270.612,1472.716Z" transform="translate(-1240.602 -1467.689)" fill="#ffa412"/>
            <g id="Grupo_59529" data-name="Grupo 59529" transform="translate(19.784)">
              <rect id="Rectángulo_7800" data-name="Rectángulo 7800" width="0.612" height="5.027" transform="translate(29.504 0)" fill="#ffa412"/>
              <rect id="Rectángulo_7801" data-name="Rectángulo 7801" width="0.612" height="5.027" transform="translate(27.432 0)" fill="#ffa412"/>
              <rect id="Rectángulo_7802" data-name="Rectángulo 7802" width="0.612" height="5.027" transform="translate(24.948 0)" fill="#ffa412"/>
              <rect id="Rectángulo_7803" data-name="Rectángulo 7803" width="0.612" height="5.027" transform="translate(21.14 0)" fill="#ffa412"/>
              <rect id="Rectángulo_7804" data-name="Rectángulo 7804" width="0.612" height="5.027" transform="translate(17.114 0)" fill="#ffa412"/>
              <rect id="Rectángulo_7805" data-name="Rectángulo 7805" width="0.612" height="5.027" transform="translate(10.941 0)" fill="#ffa412"/>
              <rect id="Rectángulo_7806" data-name="Rectángulo 7806" width="0.612" height="5.027" transform="translate(5.161 0)" fill="#ffa412"/>
              <rect id="Rectángulo_7807" data-name="Rectángulo 7807" width="0.612" height="5.027" transform="translate(0 0)" fill="#ffa412"/>
              <rect id="Rectángulo_7808" data-name="Rectángulo 7808" width="0.612" height="5.027" transform="translate(31.475 0)" fill="#ffa412"/>
              <rect id="Rectángulo_7809" data-name="Rectángulo 7809" width="0.612" height="5.027" transform="translate(32.778 0)" fill="#ffa412"/>
              <rect id="Rectángulo_7810" data-name="Rectángulo 7810" width="0.612" height="5.027" transform="translate(34.036 0)" fill="#ffa412"/>
              <path id="Trazado_106261" data-name="Trazado 106261" d="M1521.216,1467.706v4.992a1.526,1.526,0,0,1-.229.018h-.383v-5.027h.383A1.543,1.543,0,0,1,1521.216,1467.706Z" transform="translate(-1485.621 -1467.689)" fill="#ffa412"/>
              <path id="Trazado_106262" data-name="Trazado 106262" d="M1525.563,1468.474v4.061a1.3,1.3,0,0,1-.611.41v-4.88A1.3,1.3,0,0,1,1525.563,1468.474Z" transform="translate(-1489.119 -1467.991)" fill="#ffa412"/>
            </g>
          </g>
          <g id="Grupo_59532" data-name="Grupo 59532" transform="translate(5.757)">
            <path id="Trazado_106263" data-name="Trazado 106263" d="M1305.669,1443.122v2.839a.966.966,0,0,1-.223.611,1.3,1.3,0,0,1-.611.409,1.45,1.45,0,0,1-.238.057l-.076.009-.043,0-.043,0c-.023,0-.046,0-.069,0H1250.52a1.23,1.23,0,0,1-1.3-1.038c0-.019,0-.038,0-.056v-2.839c0-.019,0-.037,0-.056a1.23,1.23,0,0,1,1.3-1.038h53.846a1.534,1.534,0,0,1,.23.018,1.425,1.425,0,0,1,.238.056,1.3,1.3,0,0,1,.611.41A.966.966,0,0,1,1305.669,1443.122Z" transform="translate(-1249.218 -1442.028)" fill="#ffb93e"/>
            <path id="Trazado_106264" data-name="Trazado 106264" d="M1279.228,1447.055h-28.847a1.139,1.139,0,0,1-1.162-1.038c0-.019,0-.038,0-.056v-2.839c0-.019,0-.037,0-.056a1.139,1.139,0,0,1,1.162-1.038h25.3a8.811,8.811,0,0,0,3.531,5.019Z" transform="translate(-1249.218 -1442.028)" fill="#ffa412"/>
            <g id="Grupo_59531" data-name="Grupo 59531" transform="translate(19.784)">
              <rect id="Rectángulo_7811" data-name="Rectángulo 7811" width="0.612" height="5.027" transform="translate(29.504 0)" fill="#ffa412"/>
              <rect id="Rectángulo_7812" data-name="Rectángulo 7812" width="0.612" height="5.027" transform="translate(27.432 0)" fill="#ffa412"/>
              <rect id="Rectángulo_7813" data-name="Rectángulo 7813" width="0.612" height="5.027" transform="translate(24.948 0)" fill="#ffa412"/>
              <rect id="Rectángulo_7814" data-name="Rectángulo 7814" width="0.612" height="5.027" transform="translate(21.14 0)" fill="#ffa412"/>
              <rect id="Rectángulo_7815" data-name="Rectángulo 7815" width="0.612" height="5.027" transform="translate(17.114 0)" fill="#ffa412"/>
              <rect id="Rectángulo_7816" data-name="Rectángulo 7816" width="0.612" height="5.027" transform="translate(10.941 0)" fill="#ffa412"/>
              <rect id="Rectángulo_7817" data-name="Rectángulo 7817" width="0.612" height="5.027" transform="translate(5.161 0)" fill="#ffa412"/>
              <rect id="Rectángulo_7818" data-name="Rectángulo 7818" width="0.612" height="5.027" transform="translate(0 0)" fill="#ffa412"/>
              <rect id="Rectángulo_7819" data-name="Rectángulo 7819" width="0.612" height="5.027" transform="translate(31.476 0)" fill="#ffa412"/>
              <rect id="Rectángulo_7820" data-name="Rectángulo 7820" width="0.612" height="5.027" transform="translate(32.778 0)" fill="#ffa412"/>
              <rect id="Rectángulo_7821" data-name="Rectángulo 7821" width="0.612" height="5.027" transform="translate(34.036 0)" fill="#ffa412"/>
              <path id="Trazado_106265" data-name="Trazado 106265" d="M1529.833,1442.045v4.992a1.525,1.525,0,0,1-.229.017h-.382v-5.027h.382A1.557,1.557,0,0,1,1529.833,1442.045Z" transform="translate(-1494.238 -1442.028)" fill="#ffa412"/>
              <path id="Trazado_106266" data-name="Trazado 106266" d="M1534.179,1442.814v4.06a1.3,1.3,0,0,1-.611.41v-4.88A1.3,1.3,0,0,1,1534.179,1442.814Z" transform="translate(-1497.735 -1442.331)" fill="#ffa412"/>
            </g>
          </g>
        </g>
        <g id="Grupo_59534" data-name="Grupo 59534" transform="translate(8.269)">
          <path id="Trazado_106267" data-name="Trazado 106267" d="M1395.931,1273.4s-2.828,3.982-5.421,4.037-6.537-1.845-6.537-1.845-2.381-5.306-.766-7.382a3.467,3.467,0,0,1,3.313.544,5.08,5.08,0,0,1,.877.84,2.781,2.781,0,0,0,1.361.923c1.85.563,4.046-.761,4.867.517a8.677,8.677,0,0,0,1.43,1.693A6.516,6.516,0,0,0,1395.931,1273.4Z" transform="translate(-1359.06 -1268.007)" fill="#ffeddc"/>
          <path id="Trazado_106268" data-name="Trazado 106268" d="M1262.064,1340.891s10-24.222,27.99-24.683c0,0,16.609,1.846,17.532,24.683Z" transform="translate(-1262.064 -1306.78)" fill="#ffeddc"/>
          <path id="Trazado_106269" data-name="Trazado 106269" d="M1379.818,1307.1s7.212,1.6,9.438.661c0,0,.336-3.016-2.7-2.593a6.373,6.373,0,0,1-4.229-1.115C1381.2,1303.477,1379.519,1305.835,1379.818,1307.1Z" transform="translate(-1356.758 -1296.93)" fill="#db6a1d"/>
          <path id="Trazado_106270" data-name="Trazado 106270" d="M1404.331,1276.692c-.461.346-1.878-4.877-1.878-4.877a5.1,5.1,0,0,1,.877.84,2.781,2.781,0,0,0,1.361.923C1404.7,1273.729,1404.778,1276.355,1404.331,1276.692Z" transform="translate(-1374.994 -1271.07)" fill="#e5c1a1"/>
          <path id="Trazado_106271" data-name="Trazado 106271" d="M1429.892,1285.161a29.728,29.728,0,0,1-3.889,2.057c-.462,0,2.459-3.751,2.459-3.751A8.684,8.684,0,0,0,1429.892,1285.161Z" transform="translate(-1393.898 -1280.444)" fill="#e5c1a1"/>
          <path id="Trazado_106272" data-name="Trazado 106272" d="M1311.978,1363.528c-.185-.158,7.074-10.688,9.074-10.765s6.491,2.307,9.743,2.614,6.4-.615,7.02,1.307,2.307,8.738,1.269,9.828S1315.969,1366.938,1311.978,1363.528Z" transform="translate(-1302.212 -1336.184)" fill="#f9ddbf"/>
        </g>
      </g>
      <path id="Trazado_106273" data-name="Trazado 106273" d="M1244.656,1486.674c0,.014,0,.025,0,.037a24.111,24.111,0,0,1-.807,4.982s0,.005,0,.008c-.064.235-.131.471-.2.7a24.638,24.638,0,0,1-1.775,4.314,25,25,0,0,1-3.383,4.9c-.035.042-.072.084-.109.125a25.937,25.937,0,0,1-5.916,4.9q-.716.436-1.47.833c-.34.178-.681.346-1.024.51-.328.19-.674.353-1,.554a14,14,0,0,1-3.422,1.408v-2.21c0-.019,0-.037,0-.055a1.025,1.025,0,0,1,.012-.108.9.9,0,0,1,.031-.12,1.155,1.155,0,0,1,1.119-.81h-5.758a1.154,1.154,0,0,1-1.118-.812.949.949,0,0,1-.031-.12c0-.035-.01-.071-.012-.106,0-.018,0-.037,0-.057v-2.838c0-.019,0-.039,0-.057,0-.035.007-.071.012-.106a.971.971,0,0,1,.031-.12,1.154,1.154,0,0,1,1.118-.812h2.247a1.1,1.1,0,0,1-.612-.794c-.005-.024-.007-.047-.01-.071a.432.432,0,0,1,0-.049c0-.019,0-.037,0-.056v-2.839c0-.018,0-.037,0-.056a.751.751,0,0,1,.012-.106.946.946,0,0,1,.03-.117,1.152,1.152,0,0,1,1.119-.815h1.29a1.156,1.156,0,0,1-1.119-.812.9.9,0,0,1-.031-.12c-.005-.036-.01-.071-.012-.106v-2.952a1.132,1.132,0,0,1,1.025-1.03h-3.82a1.139,1.139,0,0,1-1.162-1.038c0-.019,0-.037,0-.057v-2.838c0-.019,0-.039,0-.057a.349.349,0,0,1,0-.045,1.121,1.121,0,0,1,.9-.964,1.138,1.138,0,0,1-1.009-.935.946.946,0,0,1-.01-.094c0-.02,0-.039,0-.057v-2.838c0-.02,0-.039,0-.057,0-.035.007-.071.012-.106a.952.952,0,0,1,.031-.12,1.154,1.154,0,0,1,1.118-.812h2.247a1.1,1.1,0,0,1-.612-.794c-.005-.023-.007-.047-.01-.071a.466.466,0,0,1,0-.049c0-.018,0-.037,0-.057v-2.838c0-.018,0-.038,0-.057a.781.781,0,0,1,.012-.106.963.963,0,0,1,.03-.117,1.153,1.153,0,0,1,1.119-.815h4.4a1.152,1.152,0,0,1-1.119-.813.9.9,0,0,1-.03-.117.709.709,0,0,1-.012-.107c0-.019,0-.037,0-.056v-2.839c0-.019,0-.037,0-.056a1.128,1.128,0,0,1,1.023-1.029h-6.93a1.185,1.185,0,0,1-.972-.5l0-.025.73-4.458,0-.025,1.039-6.36a27.859,27.859,0,0,1,3.568.719l.205.055.014.005q1.022.285,2.017.647l.018.007a26.662,26.662,0,0,1,8.36,4.9c.044.037.088.076.13.116a25.184,25.184,0,0,1,3.505,3.776q.315.414.611.843c.066.094.131.188.194.284a.01.01,0,0,1,.005.009q.477.7.9,1.445a24.725,24.725,0,0,1,1.7,3.573,23.886,23.886,0,0,1,1.305,4.9c.008.042.013.082.02.124A24,24,0,0,1,1244.656,1486.674Z" transform="translate(-1174.774 -1422.767)" fill="#e2810e" opacity="0.5"/>
      <g id="Grupo_59538" data-name="Grupo 59538" transform="translate(0 23.856)">
        <circle id="Elipse_4143" data-name="Elipse 4143" cx="26.486" cy="26.486" r="26.486" transform="translate(0 37.456) rotate(-45)" fill="#e2810e"/>
        <path id="Trazado_106274" data-name="Trazado 106274" d="M1075.65,1500.848q-.489.3-.995.578c-.115.063-.228.125-.343.185-.261.139-.522.273-.785.4a26.486,26.486,0,0,1-24.444-46.978c.339-.187.682-.366,1.026-.536s.671-.325,1.01-.476a26.447,26.447,0,0,1,7.95-2.137,26.49,26.49,0,0,1,16.583,48.962Z" transform="translate(-1026.436 -1439.659)" fill="#ffb93e"/>
        <g id="Grupo_59536" data-name="Grupo 59536" transform="translate(11.841 15.118)">
          <path id="Trazado_106275" data-name="Trazado 106275" d="M1073.978,1514.738a23.838,23.838,0,0,1-6.628-.946,23.585,23.585,0,1,1,6.628.946Zm-.073-46.83a23.089,23.089,0,1,0,20.261,11.94A22.947,22.947,0,0,0,1073.905,1467.908Z" transform="translate(-1050.201 -1467.267)" fill="#ffa412"/>
        </g>
        <g id="Grupo_59537" data-name="Grupo 59537" transform="translate(24.463 21.429)">
          <path id="Trazado_106276" data-name="Trazado 106276" d="M1137.521,1519.257c-.052-.131-.108-.257-.164-.381a6.947,6.947,0,0,0-1.606-2.295,7.174,7.174,0,0,0-2.529-1.488,12.107,12.107,0,0,0-3.213-.6q-1.774-.109-3.859-.05a18.513,18.513,0,0,1-2.2-.044,5.508,5.508,0,0,1-1.551-.34,2.714,2.714,0,0,1-1.035-.7,3.686,3.686,0,0,1-.658-1.085,4.03,4.03,0,0,1-.3-1.273,2.732,2.732,0,0,1,.188-1.2,2.926,2.926,0,0,1,.739-1.047,4.318,4.318,0,0,1,1.351-.822,3.408,3.408,0,0,1,2.893.027,4.907,4.907,0,0,1,2.187,2.738l5.4-2.191a10.09,10.09,0,0,0-1.766-2.929,7.568,7.568,0,0,0-5.289-2.609,10,10,0,0,0-3.257.333l-1.528-3.763-2.987,1.213,1.506,3.711a11.192,11.192,0,0,0-2.742,1.951,8.376,8.376,0,0,0-1.728,2.409,6.714,6.714,0,0,0-.635,2.722,7.974,7.974,0,0,0,2.348,5.591,7.063,7.063,0,0,0,2.525,1.48,11.974,11.974,0,0,0,3.215.583,38.017,38.017,0,0,0,3.869,0,14.375,14.375,0,0,1,2.1.014,5.505,5.505,0,0,1,1.542.343,2.923,2.923,0,0,1,1.08.733,3.989,3.989,0,0,1,.727,1.2,3.329,3.329,0,0,1,.258,1.279,2.734,2.734,0,0,1-.288,1.218,3.455,3.455,0,0,1-.857,1.076,5.174,5.174,0,0,1-1.449.85,6.227,6.227,0,0,1-1.584.411,3.613,3.613,0,0,1-1.6-.16,3.713,3.713,0,0,1-1.459-.943,5.725,5.725,0,0,1-1.18-1.914l-5.395,2.191a9.316,9.316,0,0,0,2.122,3.3,7.661,7.661,0,0,0,2.8,1.744,8.551,8.551,0,0,0,3.176.458,13.471,13.471,0,0,0,3.272-.541l1.393,3.434,2.969-1.205-1.4-3.45a12.065,12.065,0,0,0,2.77-1.934,8.167,8.167,0,0,0,1.672-2.183q.049-.095.095-.191a6.635,6.635,0,0,0,.651-2.708A7.294,7.294,0,0,0,1137.521,1519.257Z" transform="translate(-1114.729 -1499.535)" fill="#ffa412"/>
        </g>
      </g>
    </g>
    <g id="Grupo_59543" data-name="Grupo 59543" transform="translate(352.977 299.322)">
      <g id="Grupo_59540" data-name="Grupo 59540">
        <path id="Trazado_106277" data-name="Trazado 106277" d="M1044.431,868.561a1.229,1.229,0,0,0-.21,1.316.011.011,0,0,0,0,.006,8.171,8.171,0,0,0,2.6,2.815c.156.124.3.237.417.343.032.027.063.055.094.083l.072.064c1.142,1.038.717,1.281,2.771,3.39,2.342,2.4,3.943,2.435,4.4,2.211.384-.191-.408-1.468-1.285-2.9-.043-.069-.084-.139-.128-.209-.117-.191-.233-.385-.349-.577-1.029-1.729-.774-2.545-.551-5.129.181-2.1,3.182-11.749,3.182-11.749l-4.461-.736s-1.288,7.676-2.758,8.867c-.786.635-1.671.649-2.427,1.121-.053.033-.106.067-.157.1A5.84,5.84,0,0,0,1044.431,868.561Z" transform="translate(-1012.174 -772.018)" fill="#ffb27d"/>
        <path id="Trazado_106278" data-name="Trazado 106278" d="M1044.431,909.636a1.229,1.229,0,0,0-.21,1.316.011.011,0,0,0,0,.006,9.469,9.469,0,0,0,2.606,2.806c.155.126.291.243.413.352.032.027.063.055.094.083l.072.064c1.142,1.038.717,1.281,2.771,3.39,2.342,2.4,3.943,2.435,4.4,2.211.384-.191-.408-1.468-1.285-2.9a9.9,9.9,0,0,1-4.166-3.025c-1.413-1.777-2.362-4.065-3.325-5.388-.053.033-.106.066-.157.1A5.84,5.84,0,0,0,1044.431,909.636Z" transform="translate(-1012.174 -813.094)" fill="#233862"/>
        <path id="Trazado_106279" data-name="Trazado 106279" d="M1214.374,859.077c.285,1.374,2.244,1.13,4.43.579s1.67.089,4.785-.278,4.051-1.536,4.143-2c.082-.412-1.459-.546-3.113-.725-.208-.022-.417-.046-.626-.07-1.867-.221-3.241-1.415-4.943-2.392-1.612-.925-4.033-4.723-4.033-4.723l-4.273.369s2.267,3.392,3.145,4.867a5.165,5.165,0,0,1,.44,2.91A5.466,5.466,0,0,0,1214.374,859.077Z" transform="translate(-1146.209 -765.571)" fill="#ffb27d"/>
        <path id="Trazado_106280" data-name="Trazado 106280" d="M1233.438,889.206c2.187-.551,1.67.089,4.785-.278s4.051-1.536,4.143-2c.082-.412-1.459-.546-3.113-.725l-.015.032a8.789,8.789,0,0,1-4.454,1.419c-2.114.066-4.359-.524-5.819-.49a5.461,5.461,0,0,0,.043,1.462C1229.292,890,1231.251,889.756,1233.438,889.206Z" transform="translate(-1160.842 -795.12)" fill="#233862"/>
        <path id="Trazado_106281" data-name="Trazado 106281" d="M1084.906,731.409l-3.921,10.782-5.118,14.078a8.454,8.454,0,0,1-2.774-.234,12.024,12.024,0,0,1-2.69-1.286s1.343-15.087,3.984-23.76a15.414,15.414,0,0,1,2.29-5.046C1080.831,720.962,1084.906,731.409,1084.906,731.409Z" transform="translate(-1033.316 -665.123)" fill="#ed7d2b"/>
        <path id="Trazado_106282" data-name="Trazado 106282" d="M964.526,664.446c-2.624-.826-10.084.311-17.575,1.832l-1.589-2.579-16.212-1.151s-5.263,11.894-2.283,19.429c.438,1.107,3.137,1.647,3.138,1.648s9.5.1,12.629.082c8.058-.057,17.014-5.659,18.176-5.9,1.9-.394,2.691,3.41,4.624,7.4s18.029,17.587,18.029,17.587a14.073,14.073,0,0,0,3.472-.381,3.421,3.421,0,0,0,1.486-.952S970.444,666.309,964.526,664.446Z" transform="translate(-917.12 -615.21)" fill="#f99746"/>
        <path id="Trazado_106283" data-name="Trazado 106283" d="M906.977,421.448a5.748,5.748,0,0,0-3.121-.783,9.383,9.383,0,0,1-1.548-.091c-6.146-.782-9.778,8.166-9.976,10.871-.365,4.986-3,5.764-6.684,8.911-7.4,6.31-5.162,13.565-1.075,16.238,2.452,1.6,6.743-.048,6.743-.048.061.042,11.72-6.626,17.467-9.844C917.422,445.412,910.466,423.492,906.977,421.448Z" transform="translate(-880.793 -420.526)" fill="#233862"/>
        <path id="Trazado_106284" data-name="Trazado 106284" d="M966.5,503.553c.025.016-2.832,1.014-4.753.18-1.807-.784-3.193-3.738-3.167-3.74.819-.044,1.714-.767,2.374-5.473l.35.123,5.883,2.07s-.412,1.886-.674,3.681C966.288,501.9,966.174,503.342,966.5,503.553Z" transform="translate(-943.362 -480.047)" fill="#ffb27d"/>
        <path id="Trazado_106285" data-name="Trazado 106285" d="M978.386,497.216s-.251,1.322-.6,3.211a6.855,6.855,0,0,1-5.284-5.281Z" transform="translate(-954.565 -480.551)" fill="#ed975d"/>
        <path id="Trazado_106286" data-name="Trazado 106286" d="M976.813,457.253s-8.036-1.021-7.323-6.016.156-8.491,5.317-8.05,5.884,2.489,6.052,4.214S978.922,457.389,976.813,457.253Z" transform="translate(-952.105 -438.725)" fill="#ffb27d"/>
        <path id="Trazado_106287" data-name="Trazado 106287" d="M970.982,442.829s-5.108,4.465-8.6,4.847-4.825-.731-4.825-.731a13.65,13.65,0,0,0,3.269-4.5,2.458,2.458,0,0,1,2.016-1.463C965.336,440.753,970.067,440.622,970.982,442.829Z" transform="translate(-942.542 -436.886)" fill="#233862"/>
        <path id="Trazado_106288" data-name="Trazado 106288" d="M1009.761,444.995a12.662,12.662,0,0,1,2.281,2.88,9.717,9.717,0,0,1,.3,5.164s2.642-5.228,1.108-7.748C1011.822,442.619,1009.761,444.995,1009.761,444.995Z" transform="translate(-984.536 -439.426)" fill="#233862"/>
        <path id="Trazado_106289" data-name="Trazado 106289" d="M945.423,537.046c-.128,16.253.024,12.856-1.743,14.411a6.827,6.827,0,0,1-3.213.72c-4.981.366-13.747-.393-14.087-1.312-1.172-3.178-.367-4.174-1.361-9.046-.1-.518-.231-1.079-.381-1.69-.823-3.345-1.609-4.479,1.189-9.883,2.538-4.895,5.183-8.871,5.424-8.73,6.816,3.981,7.339.591,7.339.591S945.486,529.118,945.423,537.046Z" transform="translate(-915.445 -501.761)" fill="#aec3ff"/>
        <path id="Trazado_106290" data-name="Trazado 106290" d="M1080.985,768.48l-5.118,14.078a8.451,8.451,0,0,1-2.774-.234,12.019,12.019,0,0,1-2.69-1.286s1.343-15.087,3.984-23.76Z" transform="translate(-1033.316 -691.412)" fill="#f99746"/>
        <path id="Trazado_106291" data-name="Trazado 106291" d="M999.134,524.547s6.992,1.135,7.834,4.136,5.792,20.644,5.792,20.644-3.546.663-5.2-.966-5.814-15.177-5.814-15.177Z" transform="translate(-975.987 -504.201)" fill="#aec3ff"/>
        <path id="Trazado_106292" data-name="Trazado 106292" d="M945.192,607.783c-4.981.366-13.747-.393-14.087-1.312-1.172-3.178-.367-4.174-1.361-9.046l2.356-6.785s-.344,7.54,1.892,9.506,9.127,3.763,10.22,5.411A6.061,6.061,0,0,1,945.192,607.783Z" transform="translate(-920.169 -557.367)" fill="#8ea3ed"/>
        <path id="Trazado_106293" data-name="Trazado 106293" d="M979.416,659.01s4.909-1.129,5.705-.7a11.549,11.549,0,0,1,2.993,2.557c.247.551-1.769-.407-2.424-.578a5.828,5.828,0,0,0-2.085.472,6.942,6.942,0,0,1-3.74.4Z" transform="translate(-960.126 -611.723)" fill="#ffb27d"/>
        <path id="Trazado_106294" data-name="Trazado 106294" d="M896.848,521.514s-6.6.453-8.861,3.657c-3.185,4.51-9.432,23.676-5.757,26.2,4.139,2.843,18.751.619,18.751.619s.471-2.278-.215-3.374-11.7-2.8-12.214-3.3,6.279-9.95,6.269-11.474S896.848,521.514,896.848,521.514Z" transform="translate(-881.045 -501.761)" fill="#aec3ff"/>
        <path id="Trazado_106295" data-name="Trazado 106295" d="M1009.851,665.7a9.518,9.518,0,0,0,1.378,1.478,1.007,1.007,0,0,0,.557.115l-.7-1.245Z" transform="translate(-984.608 -617.747)" fill="#ffb27d"/>
        <path id="Trazado_106296" data-name="Trazado 106296" d="M1008.584,658.714l3.005,1.433a.534.534,0,0,1-.5.2,7.145,7.145,0,0,1-1.3-.348Z" transform="translate(-983.589 -612.126)" fill="#ffb27d"/>
      </g>
      <g id="Grupo_59542" data-name="Grupo 59542" transform="translate(18.66 33.637)">
        <g id="Grupo_59541" data-name="Grupo 59541">
          <path id="Trazado_106297" data-name="Trazado 106297" d="M1013.621,610.441l23.691-.167,7-17.773-23.655.167Z" transform="translate(-1006.301 -592.501)" fill="#233862"/>
          <path id="Trazado_106298" data-name="Trazado 106298" d="M1007.479,679.827l-31.285.221,0,.69,31.007-.219Z" transform="translate(-976.194 -662.747)" fill="#233862"/>
        </g>
        <path id="Trazado_106299" data-name="Trazado 106299" d="M1094.394,633.663a.821.821,0,0,0-.812-1.122,1.617,1.617,0,0,0-1.444,1.138.821.821,0,0,0,.813,1.123A1.617,1.617,0,0,0,1094.394,633.663Z" transform="translate(-1069.425 -624.709)" fill="#ebf3fa"/>
      </g>
    </g>
    <g id="Grupo_59545" data-name="Grupo 59545" transform="translate(566.772 407.138)">
      <path id="Trazado_106300" data-name="Trazado 106300" d="M2050.954,972.134a6.394,6.394,0,0,0-5.077.261c-8.638.355-8.959,9.209-7.945,12.5,1.424,4.628-3.615,8.277,1.974,10.15,6.485,2.173,11.926-1.258,11.555-.139C2071.967,996.526,2057.777,974.4,2050.954,972.134Z" transform="translate(-2024.81 -971.75)" fill="#2a539b"/>
      <path id="Trazado_106301" data-name="Trazado 106301" d="M2009.232,1118.391a22.651,22.651,0,0,1-2.31,3.493c-1.795,2.247-11.213-3.087-10.4-3.493s5.4-13.425,7.339-15.733a8.267,8.267,0,0,1,4.3-2.624Z" transform="translate(-1992.047 -1074.943)" fill="#2b478b"/>
      <path id="Trazado_106302" data-name="Trazado 106302" d="M2185.474,1659.41s2.6,2.372,2.092,4.058-2.852,2.81-3.17,4.87-1.585,3.184-2.726,3.184h-5.441s-.84-1.45,1.189-1.887,2.793-2.858,2.667-5.105a39.652,39.652,0,0,1,.19-5.244l4.312-1Z" transform="translate(-2136.507 -1524.004)" fill="#4075c1"/>
      <path id="Trazado_106303" data-name="Trazado 106303" d="M2050.8,1669.181s.935,10.05-.206,10.612l-14.6-.03s0-1.686,2.346-2.06,6.467-1.749,7.164-4.807S2050.8,1669.181,2050.8,1669.181Z" transform="translate(-2023.839 -1532.768)" fill="#4075c1"/>
      <path id="Trazado_106304" data-name="Trazado 106304" d="M2060.635,1108.344a58.263,58.263,0,0,1,0,6.75c-.145,2.441-2.614,5.71-2.964,6.519-.879,2.029-1.87,2.358-1.87,2.358l-7.668,1.88-2.7.66-8.5-2.539s-3.873-10.81-2.317-16.895a46.772,46.772,0,0,1,3.931-10.311s5.779-1.3,15.973-.576Z" transform="translate(-2022.435 -1071.675)" fill="#2b478b"/>
      <path id="Trazado_106305" data-name="Trazado 106305" d="M2110.056,1166.99c-.144,2.441-3.344,5.625-3.694,6.433-.879,2.028-1.87,2.358-1.87,2.358l-7.669,1.879-2.045-2.885s12.414-3.452,10.063-14.4Z" transform="translate(-2071.126 -1123.484)" fill="#163560"/>
      <path id="Trazado_106306" data-name="Trazado 106306" d="M2032.288,1247.515s-4.211,13.106-4.481,17.569,8.049,63.391,8.384,65.447c.316,1.938,2.722,3.174,2.722,3.174a3.643,3.643,0,0,0,2.687.207,6.646,6.646,0,0,0,2.885-1.36s3.277-42.027,1.249-57.04a237.724,237.724,0,0,1-2.052-28Z" transform="translate(-2017.249 -1193.577)" fill="#ed7d2b"/>
      <path id="Trazado_106307" data-name="Trazado 106307" d="M2074.286,1245.517s6.423,8.618,7.022,14.444.939,26.289,2.215,31.969,5.963,16.608,5.963,34.322a3.534,3.534,0,0,1-1.992,1.556,16.4,16.4,0,0,1-1.751.484,2.754,2.754,0,0,1-3.079-1.462c-3.169-6.38-13.263-26.957-13.78-31.229-.366-3.023-3.553-23.029-10.506-34.768-1.669-2.818,1.024-14.027,1.024-14.027Z" transform="translate(-2041.406 -1191.97)" fill="#f99746"/>
      <path id="Trazado_106308" data-name="Trazado 106308" d="M2046.324,1237.17a8.826,8.826,0,0,0,5.048,1.405c4.011.081,13.95-1.023,13.95-1.023a8.214,8.214,0,0,1,.423,2.537s-12.138,3.062-19.172.447A4.445,4.445,0,0,1,2046.324,1237.17Z" transform="translate(-2031.957 -1185.256)" fill="#163560"/>
      <g id="Grupo_59544" data-name="Grupo 59544" transform="translate(16.623 52.633)">
        <path id="Trazado_106309" data-name="Trazado 106309" d="M2060.669,1244.986a2.087,2.087,0,1,1,1.83-2.071A1.964,1.964,0,0,1,2060.669,1244.986Zm0-3.536a1.489,1.489,0,1,0,1.224,1.465A1.363,1.363,0,0,0,2060.669,1241.449Z" transform="translate(-2058.839 -1240.843)" fill="#fff"/>
      </g>
      <path id="Trazado_106310" data-name="Trazado 106310" d="M2001.075,1194.518l-18.245.171-8.978-21.1,18.245-.171Z" transform="translate(-1973.853 -1133.974)" fill="#d35b31"/>
      <path id="Trazado_106311" data-name="Trazado 106311" d="M2062.341,1218.81l-1.337-1.643a4.7,4.7,0,0,0-1.562-.944c-.657-.137-2.043-.937-2.178-.712s1.066,1.833,1.066,1.833l.061.009c-1.378,1.036-4.855.121-5.285.544-.52.512.716,1.62,1.38,2.241s2.56,1.659,4.039,1.2c1.081-.337,2.782-.679,2.782-.679Z" transform="translate(-2037.504 -1167.801)" fill="#ffb27d"/>
      <path id="Trazado_106312" data-name="Trazado 106312" d="M1980.387,1189.782s1.147-1.3,1.876-.677-.192,3.7-.886,3.388S1979.987,1190.164,1980.387,1189.782Z" transform="translate(-1979.015 -1146.455)" fill="#ffb27d"/>
      <path id="Trazado_106313" data-name="Trazado 106313" d="M2100.174,1097.091s6.084.427,8.416,6.1,6.619,15,5.7,18.91c-.368,1.559-4.8,6.956-23.284,3.527a4.322,4.322,0,0,1,1.4-2.84s13.024-4.182,13-5.013c-.042-1.573-1.76-2.933-9.035-10.21C2094.391,1105.581,2100.174,1097.091,2100.174,1097.091Z" transform="translate(-2068.089 -1072.575)" fill="#2b478b"/>
      <path id="Trazado_106314" data-name="Trazado 106314" d="M2084.9,1065.66c.179-.241-.051-1.008-.339-2.437a26.693,26.693,0,0,1-.691-5.549l-.385.064-6.473,1.089s.148,1.731.152,3.361v.041c.008,1.416-.382,3.556.1,3.835C2079.71,1067.5,2084.208,1066.586,2084.9,1065.66Z" transform="translate(-2056.833 -1040.868)" fill="#ffb27d"/>
      <path id="Trazado_106315" data-name="Trazado 106315" d="M2077.01,1059.092s.129,2.441.133,4.071c3.623-.087,5.556-3.6,6.34-5.16Z" transform="translate(-2056.833 -1041.133)" fill="#e8945b"/>
      <path id="Trazado_106316" data-name="Trazado 106316" d="M2056.737,1016.9s8.486-1.209,7.652-6.482-.3-8.981-5.753-8.432-6.186,2.727-6.335,4.555S2054.508,1017.075,2056.737,1016.9Z" transform="translate(-2036.95 -996.027)" fill="#ffb27d"/>
      <path id="Trazado_106317" data-name="Trazado 106317" d="M2064.9,998.673s3.3,5.816,7,6.164,5.093-.851,5.093-.851a10.2,10.2,0,0,1-4.242-5.425S2066.181,995.45,2064.9,998.673Z" transform="translate(-2047.094 -992.231)" fill="#2a539b"/>
      <path id="Trazado_106318" data-name="Trazado 106318" d="M2052.344,1003.547a5.314,5.314,0,0,0-2.123,2.282,8.625,8.625,0,0,0-.373,5.022s-2.416-3.926-.832-6.617C2050.694,1001.381,2052.344,1003.547,2052.344,1003.547Z" transform="translate(-2033.881 -996.695)" fill="#2a539b"/>
    </g>
    <rect id="Rectángulo_7822" data-name="Rectángulo 7822" width="500" height="1.373" rx="0.687" transform="translate(224.638 553.796)" fill="#2e3552"/>
  </g>
</svg>
