<svg xmlns="http://www.w3.org/2000/svg" width="50.568" height="61.823" viewBox="0 0 50.568 61.823">
  <g id="ama-de-llaves" transform="translate(-10 -3.975)" opacity="0.6">
    <path id="Trazado_104868" data-name="Trazado 104868" d="M49.493,39.631a1.436,1.436,0,0,0-.883-.331.924.924,0,0,0-.772.552c-.521,1.161-2.538,4.414-2.538,4.414l.883.883,4.524-4.524S49.783,39.894,49.493,39.631Z" transform="translate(3.653 3.655)" fill="#ff4600"/>
    <path id="Trazado_104869" data-name="Trazado 104869" d="M0,0H6.4V2.428H0Z" transform="translate(51.28 50.296) rotate(-45)" fill="#ff4600"/>
    <path id="Trazado_104870" data-name="Trazado 104870" d="M17.1,39.755l9.49-4.193a14.331,14.331,0,0,1-4.855-10.7V18.348a3.251,3.251,0,0,1,3.31-3.31H30.23a7.5,7.5,0,0,0,5.407-2.207l.552-.552a3.34,3.34,0,0,1,4.193-.441L44.465,14.6A3.451,3.451,0,0,1,45.9,17.355v7.5a14.157,14.157,0,0,1-4.855,10.7l9.49,4.193,2.648-2.648a2.133,2.133,0,0,0,0-3.09,1.523,1.523,0,0,0-.441-.331l-.221-.11a4.3,4.3,0,0,1-2.1-3.752V23.313A19.9,19.9,0,0,0,38.58,5.032,11.023,11.023,0,0,0,29.237,5a20.059,20.059,0,0,0-8.69,7.366A19.838,19.838,0,0,0,17.319,23.2v6.511a4.3,4.3,0,0,1-2.1,3.752l-.221.11a2.189,2.189,0,0,0-.772,2.979c.11.11.221.331.331.441Z" transform="translate(0.405)" fill="#ff4600"/>
    <path id="Trazado_104871" data-name="Trazado 104871" d="M24.476,39.969a1.268,1.268,0,0,0,.993.662h14.9a1.06,1.06,0,0,0,.993-.662l1.876-3.752L38.269,34.01a17.661,17.661,0,0,1-2.428,1.1,7.394,7.394,0,0,1-5.738,0L29.883,35a12.58,12.58,0,0,1-2.1-1.1L22.6,36.217Z" transform="translate(1.304 3.097)" fill="#ff4600"/>
    <path id="Trazado_104872" data-name="Trazado 104872" d="M49.311,52.573l.993-.993L44.124,45.4l-.993.993a1.067,1.067,0,0,0,0,1.545l4.635,4.635a1.067,1.067,0,0,0,1.545,0Z" transform="translate(3.394 4.287)" fill="#ff4600"/>
    <path id="Trazado_104873" data-name="Trazado 104873" d="M0,0H5.628V2.428H0Z" transform="translate(42.491 59.164) rotate(-45)" fill="#ff4600"/>
    <path id="Trazado_104874" data-name="Trazado 104874" d="M44.187,50.262a3.265,3.265,0,0,1,.11-4.524l1.655-1.655,2.869-5.076c.11-.221.331-.441.441-.662L45.842,36.8l-1.876,3.862a3.323,3.323,0,0,1-2.979,1.876H26.09a3.252,3.252,0,0,1-2.979-1.876L21.235,36.8,16.6,38.9l2.648,4.193A14.525,14.525,0,0,1,21.455,50.7V62.4H34.918a4.693,4.693,0,0,1-.221-1.214,3.423,3.423,0,0,1,.993-2.428Z" transform="translate(0.683 3.397)" fill="#ff4600"/>
    <path id="Trazado_104875" data-name="Trazado 104875" d="M51.207,53.6a3.265,3.265,0,0,1-4.524.11L39.4,60.993H55.511V50.4l-2.648,1.545Z" transform="translate(3.042 4.804)" fill="#ff4600"/>
    <path id="Trazado_104876" data-name="Trazado 104876" d="M35.138,35.219a12.1,12.1,0,0,0,7.614-11.255v-7.5a1.362,1.362,0,0,0-.441-.883l-4.083-2.759a1.168,1.168,0,0,0-1.435.11l-.552.552a9.928,9.928,0,0,1-7.062,2.869H24.1a1.043,1.043,0,0,0-1.1,1.1v6.511a11.985,11.985,0,0,0,7.614,11.255,5.172,5.172,0,0,0,2.4.524A4.557,4.557,0,0,0,35.138,35.219Z" transform="translate(1.345 0.894)" fill="#ff4600"/>
    <path id="Trazado_104877" data-name="Trazado 104877" d="M54.924,45,50.4,49.414l.883.883,4.524-2.538a1,1,0,0,0,.426-1.43C56.144,46.19,54.924,45,54.924,45Z" transform="translate(4.181 4.245)" fill="#ff4600"/>
    <path id="Trazado_104878" data-name="Trazado 104878" d="M15.3,39.6A10.047,10.047,0,0,0,10,48.317V62.111h9.931v-11.7a11.744,11.744,0,0,0-1.876-6.4Z" transform="translate(0 3.686)" fill="#ff4600"/>
    <path id="Trazado_104879" data-name="Trazado 104879" d="M38.31,55.4l-2.979,2.979a1.341,1.341,0,0,0,0,1.766,1.343,1.343,0,0,0,1.766,0l2.979-2.979Z" transform="translate(2.587 5.321)" fill="#ff4600"/>
  </g>
</svg>
