<svg xmlns="http://www.w3.org/2000/svg" width="61.336" height="70.634" viewBox="0 0 61.336 70.634">
  <g id="incrementar" transform="translate(-33.7)" opacity="0.6">
    <path id="Trazado_104889" data-name="Trazado 104889" d="M139.909,37.719a18.86,18.86,0,1,0-18.86-18.86A18.881,18.881,0,0,0,139.909,37.719Zm0-35.646A16.786,16.786,0,1,1,123.122,18.86,16.805,16.805,0,0,1,139.909,2.073Z" transform="translate(-75.299)" fill="#ff4600"/>
    <path id="Trazado_104890" data-name="Trazado 104890" d="M172.528,65.119a13.639,13.639,0,1,0-9.161-23.744,1.037,1.037,0,0,0,1.393,1.536,11.54,11.54,0,1,1-2.4,3.057,1.037,1.037,0,1,0-1.822-.99,13.643,13.643,0,0,0,11.992,20.141Z" transform="translate(-107.918 -32.62)" fill="#ff4600"/>
    <path id="Trazado_104891" data-name="Trazado 104891" d="M228.658,86.767a2.225,2.225,0,0,1-2.158-1.309,1.038,1.038,0,0,0-2.012.511h0l.006.02a1.026,1.026,0,0,0,.047.143,4.142,4.142,0,0,0,3.224,2.608v1.379a1.037,1.037,0,0,0,2.074,0V88.771a3.966,3.966,0,0,0,2.076-1,4.107,4.107,0,0,0,1.238-2.951c0-1.051-.412-3.539-4.228-3.96a2.273,2.273,0,0,1-1.6-.715,1.447,1.447,0,0,1-.3-.875A1.7,1.7,0,0,1,228.8,77.49a1.842,1.842,0,0,1,1.681.88,1.038,1.038,0,1,0,1.887-.861h0a3.808,3.808,0,0,0-2.532-1.971V74.146a1.037,1.037,0,1,0-2.073,0v1.387a3.78,3.78,0,0,0-2.818,3.738c0,1.493.982,3.345,3.75,3.651,2.382.263,2.382,1.495,2.382,1.9a2.04,2.04,0,0,1-.586,1.441A2.375,2.375,0,0,1,228.658,86.767Z" transform="translate(-164.442 -63.023)" fill="#ff4600"/>
    <path id="Trazado_104892" data-name="Trazado 104892" d="M75.036,345.954a1.037,1.037,0,0,0-1.51,0l-7.042,7.487a1.037,1.037,0,0,0,.755,1.747h2.035v3.765a1.037,1.037,0,1,0,2.073,0v-4.8a1.037,1.037,0,0,0-1.037-1.037h-.674l4.644-4.937,4.644,4.937h-.674a1.037,1.037,0,0,0-1.037,1.037v12.355H71.347V363.1a1.037,1.037,0,1,0-2.074,0v4.444a1.037,1.037,0,0,0,1.037,1.037h7.94a1.037,1.037,0,0,0,1.037-1.037V355.188h2.035a1.037,1.037,0,0,0,.755-1.747Z" transform="translate(-28.018 -297.946)" fill="#ff4600"/>
    <path id="Trazado_104893" data-name="Trazado 104893" d="M208.028,294.254a1.037,1.037,0,0,0-1.51,0l-7.042,7.487a1.037,1.037,0,0,0,.755,1.747h2.035v19.488a1.037,1.037,0,0,0,1.037,1.037h7.94a1.037,1.037,0,0,0,1.037-1.037V303.488h2.035a1.037,1.037,0,0,0,.755-1.747Zm3.215,7.16a1.037,1.037,0,0,0-1.037,1.037v19.488h-5.867V302.451a1.037,1.037,0,0,0-1.037-1.037h-.674l4.644-4.937,4.644,4.937h-.674Z" transform="translate(-142.663 -253.379)" fill="#ff4600"/>
    <path id="Trazado_104894" data-name="Trazado 104894" d="M341.019,246.42a1.037,1.037,0,0,0-1.51,0l-7.042,7.487a1.037,1.037,0,0,0,.755,1.747h2.035v6.327a1.037,1.037,0,0,0,2.074,0v-7.363a1.037,1.037,0,0,0-1.037-1.037h-.674l4.644-4.937,4.644,4.937h-.674a1.037,1.037,0,0,0-1.037,1.037V280.7H337.33V266.128a1.037,1.037,0,1,0-2.073,0v15.614a1.037,1.037,0,0,0,1.037,1.037h7.94a1.037,1.037,0,0,0,1.037-1.037V255.654h2.035a1.037,1.037,0,0,0,.755-1.747Z" transform="translate(-257.306 -212.144)" fill="#ff4600"/>
    <path id="Trazado_104895" data-name="Trazado 104895" d="M41.854,132.918a1.037,1.037,0,0,0-1.037-1.037h-6.08a1.037,1.037,0,0,0,0,2.074h6.08A1.037,1.037,0,0,0,41.854,132.918Z" transform="translate(0 -113.687)" fill="#ff4600"/>
    <path id="Trazado_104896" data-name="Trazado 104896" d="M77.382,197.922l-2.163.847a1.037,1.037,0,1,0,.756,1.93l2.163-.847a1.037,1.037,0,1,0-.756-1.93Z" transform="translate(-35.223 -170.555)" fill="#ff4600"/>
    <path id="Trazado_104897" data-name="Trazado 104897" d="M75.219,61.768l2.163.847a1.037,1.037,0,1,0,.756-1.93l-2.163-.847a1.037,1.037,0,1,0-.756,1.93Z" transform="translate(-35.223 -51.521)" fill="#ff4600"/>
    <path id="Trazado_104898" data-name="Trazado 104898" d="M426.312,131.881h-6.08a1.037,1.037,0,0,0,0,2.074h6.08a1.037,1.037,0,0,0,0-2.074Z" transform="translate(-332.313 -113.687)" fill="#ff4600"/>
    <path id="Trazado_104899" data-name="Trazado 104899" d="M407.39,199.854l2.162.847a1.037,1.037,0,1,0,.757-1.93l-2.162-.847a1.037,1.037,0,1,0-.757,1.93Z" transform="translate(-321.569 -170.557)" fill="#ff4600"/>
    <path id="Trazado_104900" data-name="Trazado 104900" d="M407.768,62.687a1.034,1.034,0,0,0,.378-.072l2.162-.847a1.037,1.037,0,0,0-.757-1.931l-2.162.847a1.037,1.037,0,0,0,.379,2Z" transform="translate(-321.569 -51.521)" fill="#ff4600"/>
  </g>
</svg>
