<svg xmlns="http://www.w3.org/2000/svg" xmlns:xlink="http://www.w3.org/1999/xlink" width="469" height="529" viewBox="0 0 469 529">
  <defs>
    <clipPath id="clip-path">
      <rect id="Rectángulo_8195" data-name="Rectángulo 8195" width="428" height="488" transform="translate(-6 -109)" fill="none"/>
    </clipPath>
    <clipPath id="clip-path-2">
      <path id="Trazado_106890" data-name="Trazado 106890" d="M242.768,427.6a3.763,3.763,0,1,0,3.763-3.763A3.763,3.763,0,0,0,242.768,427.6Z" transform="translate(-242.768 -423.835)" fill="#00a9ab"/>
    </clipPath>
    <clipPath id="clip-path-3">
      <path id="Rectángulo_8185" data-name="Rectángulo 8185" d="M11.035,0h239.74a11.036,11.036,0,0,1,11.036,11.036V136.665A11.035,11.035,0,0,1,250.776,147.7H11.035A11.035,11.035,0,0,1,0,136.666V11.035A11.035,11.035,0,0,1,11.035,0Z" fill="none"/>
    </clipPath>
  </defs>
  <g id="Grupo_61476" data-name="Grupo 61476" transform="translate(-804 -450.332)">
    <g id="Right" transform="translate(804.117 450.665)">
      <rect id="BG" width="469" height="529" transform="translate(-0.117 -0.333)" fill="#fff" opacity="0.949"/>
    </g>
    <g id="Grupo_60037" data-name="Grupo 60037" transform="translate(834 580.332)">
      <g id="Grupo_60035" data-name="Grupo 60035" clip-path="url(#clip-path)">
        <path id="Trazado_106928" data-name="Trazado 106928" d="M0,0H428V488H0Z" transform="translate(-6 -109)" fill="#ffc571"/>
        <path id="Trazado_106881" data-name="Trazado 106881" d="M410.513,1005.623H537.805a3.6,3.6,0,0,1,0,7.2H410.513a3.6,3.6,0,0,1,0-7.2Z" transform="translate(-262.306 -694.729)" opacity="0.15" style="mix-blend-mode: multiply;isolation: isolate"/>
        <g id="Grupo_59976" data-name="Grupo 59976" transform="translate(74.113 97.416)">
          <g id="Grupo_59974" data-name="Grupo 59974">
            <g id="Grupo_59973" data-name="Grupo 59973">
              <g id="Grupo_59972" data-name="Grupo 59972">
                <g id="Grupo_59971" data-name="Grupo 59971">
                  <g id="Grupo_59970" data-name="Grupo 59970" transform="translate(86.364 166.183)">
                    <path id="Trazado_106882" data-name="Trazado 106882" d="M553.006,912.862h-1.519c-11.99,0-22.644-9.984-26.472-24.81l-4.345-16.825h-28l-2.6,13.862C487,901.4,475.8,912.862,462.934,912.862h-2.6c-2.4,0-4.339,2.534-4.339,5.661h101.35C557.345,915.4,555.4,912.862,553.006,912.862Z" transform="translate(-455.995 -871.228)" fill="#fff"/>
                    <path id="Trazado_106883" data-name="Trazado 106883" d="M583.138,888.965c-8.6-3.4-26.887-3.092-35.987-.446.3-1.118.567-2.259.787-3.429l2.6-13.862h28l4.345,16.825C582.966,888.36,583.052,888.662,583.138,888.965Z" transform="translate(-513.867 -871.228)" fill="#ccc"/>
                    <path id="Trazado_106884" data-name="Trazado 106884" d="M458.754,1009.223h95.831c1.524,0,2.759-1.612,2.759-3.6H455.995C455.995,1007.612,457.23,1009.223,458.754,1009.223Z" transform="translate(-455.995 -958.327)" fill="#f1f2f2"/>
                  </g>
                  <path id="Trazado_106885" data-name="Trazado 106885" d="M472.413,404.235H222.86A12.259,12.259,0,0,0,210.6,416.494v147.8c0,6.77-.422,12.258,8.184,12.258H477.347c7.324,0,7.324-5.488,7.324-12.258v-147.8A12.258,12.258,0,0,0,472.413,404.235Z" transform="translate(-210.598 -402.394)" fill="#bcbec0"/>
                  <path id="Rectángulo_8145" data-name="Rectángulo 8145" d="M21.478,0H252.591A21.478,21.478,0,0,1,274.07,21.478V150.835a21.477,21.477,0,0,1-21.477,21.477H21.477A21.477,21.477,0,0,1,0,150.835V21.478A21.478,21.478,0,0,1,21.478,0Z" transform="translate(0.003 0)" fill="#fff"/>
                  <path id="Trazado_106886" data-name="Trazado 106886" d="M477.109,399.005H218.156a7.559,7.559,0,0,0-7.558,7.559V557.552h274.07V406.564A7.559,7.559,0,0,0,477.109,399.005Z" transform="translate(-210.595 -399.005)" fill="#1a1a1a"/>
                  <path id="Rectángulo_8146" data-name="Rectángulo 8146" d="M11.035,0h239.74a11.036,11.036,0,0,1,11.036,11.036V136.665A11.035,11.035,0,0,1,250.776,147.7H11.035A11.035,11.035,0,0,1,0,136.666V11.035A11.035,11.035,0,0,1,11.035,0Z" transform="translate(6.133 6.129)" fill="#7bc5c6"/>
                </g>
              </g>
            </g>
          </g>
          <path id="Trazado_106887" data-name="Trazado 106887" d="M231.9,416.422H485.941a3.884,3.884,0,0,1,3.884,3.884v8.859H228.014v-8.859A3.883,3.883,0,0,1,231.9,416.422Z" transform="translate(-221.881 -410.293)" fill="#fff"/>
          <g id="Grupo_59975" data-name="Grupo 59975" transform="translate(12.815 9.918)">
            <circle id="Elipse_4162" data-name="Elipse 4162" cx="2.673" cy="2.673" r="2.673" transform="translate(16.291)" fill="#ffc440"/>
            <circle id="Elipse_4163" data-name="Elipse 4163" cx="2.673" cy="2.673" r="2.673" transform="translate(8.145 0)" fill="#56c356"/>
            <circle id="Elipse_4164" data-name="Elipse 4164" cx="2.673" cy="2.673" r="2.673" transform="translate(0 0)" fill="#ff5168"/>
          </g>
        </g>
        <rect id="Rectángulo_8147" data-name="Rectángulo 8147" width="205.98" height="6.119" transform="translate(118.304 106.857)" fill="#f2f2f2"/>
        <g id="Grupo_59980" data-name="Grupo 59980" transform="translate(329.339 106.154)">
          <g id="Grupo_59979" data-name="Grupo 59979">
            <path id="Trazado_106888" data-name="Trazado 106888" d="M242.768,427.6a3.763,3.763,0,1,0,3.763-3.763A3.763,3.763,0,0,0,242.768,427.6Z" transform="translate(-242.768 -423.835)" fill="#00a9ab"/>
            <g id="Grupo_59978" data-name="Grupo 59978" clip-path="url(#clip-path-2)">
              <g id="Grupo_59977" data-name="Grupo 59977" transform="translate(-2.194 0.642)">
                <path id="Trazado_106889" data-name="Trazado 106889" d="M247.36,426.948c.011.011-.021.023-.033.008S247.334,426.92,247.36,426.948Zm2.754.709c.03.01.072.029.055.031a.2.2,0,0,1-.082-.023c-.011-.009-.048-.054-.042-.056S250.083,427.647,250.114,427.657Zm-3.012,1.148c-.031-.012-.014-.064.011-.058S247.134,428.817,247.1,428.805Zm-1.041.973c.02-.011.062-.016.081-.046s.069-.06.085-.053a.065.065,0,0,0,.067-.005c.024-.019.062-.042.077-.057a.132.132,0,0,1,.069-.027c.017,0,.015-.015.037.029s0,.058.04.05,0-.011-.026-.054.008-.07.036-.059.006.032.05.043.047-.027.02-.033-.076-.039-.075-.053.009-.055.032-.055.019-.037.056-.085.088-.1.122-.1.051.042.07,0,.04-.048.052-.07.04,0,.049-.011l.009-.011s.036.01.018-.022-.025-.094-.017-.09.021.054.035.05,0-.011.033-.033.074,0,.074.014a.05.05,0,0,0,.013.032.145.145,0,0,0,.019-.033.044.044,0,0,1,.069,0c.019.022.033-.054.048-.054a.076.076,0,0,1,.055.05c.013.032,0,.078.016.075s.018-.064.015-.086-.032-.057-.009-.064.056.035.07.038a.137.137,0,0,1,.057.056c.016.028.023.046.04.056s.043,0,.038-.011.051-.05.059-.036.033.024.058.038.05-.018.056-.032a.111.111,0,0,0,.023-.064.347.347,0,0,0-.01-.122c-.008-.028.044-.084.064-.081s.04.028.059.024.012-.011.043-.011.006-.007,0-.038.011-.073-.021-.1-.023-.094,0-.1.057.011.083.008a.042.042,0,0,1,.039.056c-.008.031.015.052.024.048s.02-.02.052.007.043.017.074-.013a.177.177,0,0,0,.068-.109.275.275,0,0,0-.01-.123c-.013-.027-.018-.075,0-.082s-.024-.042-.044-.049a.161.161,0,0,1-.062-.053c-.007-.014-.035-.011-.066-.012a.08.08,0,0,0-.066.019c-.029.02-.038-.012-.039-.022s-.019-.018-.053-.016-.079-.03-.087-.019-.02.052-.038.037-.026-.039-.028,0-.011.1-.036.114-.008.052-.033.056-.042-.067-.035-.092a.645.645,0,0,1,.03-.115c.012-.017-.016-.061-.046-.076a.781.781,0,0,1-.1-.111c-.022-.022-.087-.03-.074-.058a.159.159,0,0,0,.022-.078c0-.021-.019-.015-.025,0s-.045-.023-.039-.04,0-.042-.02-.039a.023.023,0,0,1-.022-.033c.006-.014-.025-.033-.043-.027s-.082.009-.092-.006.024-.044.019-.072a.094.094,0,0,0-.062-.06c-.02,0-.044,0-.049-.013s-.037-.041-.035-.016.011.068-.011.067-.055-.034-.063-.039l-.075-.025c-.012,0-.078-.014-.074-.039a.224.224,0,0,1,.015-.06c.006-.011.017,0,.031.023s.033.019.036.005-.012-.058.009-.043.027.03.036.024.016-.032.016-.032a.043.043,0,0,1-.017-.051c.013-.031.041-.023.072,0a.183.183,0,0,0,.062.029.3.3,0,0,1,.053.024.258.258,0,0,0-.044-.078c-.023-.023-.08-.017-.1-.039s-.057.007-.057.007-.027-.031-.023-.012.018.065,0,.064-.067-.032-.05-.038-.015-.021-.037-.041-.055,0-.067-.008-.026-.041-.045-.042-.021.031.01.055.043.077.058.092.011.033-.011.028a.3.3,0,0,1-.06-.006.023.023,0,0,0-.032.017c0,.011-.024-.012-.024-.012s-.037-.012-.045.005-.02-.012-.015-.03.013-.036.018-.057.014-.028.037-.02.026-.006.037-.016.026.016.011-.01-.021-.034-.033-.056-.054-.064-.021-.073.042-.016.043-.037.032-.059.043-.058.063.017.062,0a.248.248,0,0,1,.008-.087c.009-.017.038-.093.044-.1s.017,0,.051.043.057.054.072.044.038,0,.049-.024-.046-.043-.043-.06.042-.021.066-.022.031-.039.068-.038a.66.66,0,0,1,.1.016c.013,0,.021.026.038.065s0,.048.023.057.037.014.018.026-.034.066-.034.066a.119.119,0,0,0,.032.051c.024.019.047.038.051.018a.016.016,0,0,1,.032.006c0,.02-.014.03-.009.051s0,.073.016.091.036.006.05.011.019-.026.007-.034-.014-.059-.014-.059.048.062.037.03,0-.034,0-.059.006-.056.031-.047a.159.159,0,0,0,.09.011.154.154,0,0,0,.086-.032c.028-.02.047,0,.067,0s-.007-.048.014-.051,0-.014-.009-.058.007-.031-.068-.086-.076-.075-.121-.087-.046.024-.053.007-.058-.113-.044-.078-.035.032,0,.059.02.029,0,.027a.25.25,0,0,1-.059-.03s-.049-.03-.051-.01,0,.041-.013.039-.065-.034-.042-.056.045-.015.055-.041.008-.016.033-.006.018-.008.026-.007.023.009.022,0-.009-.018-.034-.021a.159.159,0,0,0-.051,0l-.044-.022c-.009,0-.051-.016-.056-.047s.02-.028.023-.037-.024-.026-.039-.035a.1.1,0,0,0-.046-.006s-.02,0-.026-.013-.007-.032-.018-.023.016.042-.008.033-.027,0-.035.006.022.053.037.062.04.025.014.025a.332.332,0,0,1-.045,0,.408.408,0,0,1-.041-.049c-.015-.022-.022-.009-.029,0s-.041.012,0,.031a.144.144,0,0,1,.066.055c.013.019.02.03.048.023a.051.051,0,0,1,.061.017c.014.018.028.074.013.066s-.027-.01-.045-.019a.79.79,0,0,0-.089-.006c-.016,0-.029.032-.039.024s-.018.012-.029.025-.02-.033-.039-.007,0,.028-.019.026-.048,0-.048,0-.012-.036-.036-.031-.036.043-.041.014-.016-.051,0-.07.042-.031.044-.042a.034.034,0,0,0-.007-.032c-.009-.007-.041,0-.056.016s-.027.033-.046.017a.556.556,0,0,1-.049-.036c-.011-.011-.037-.045-.037-.045s.07-.008.075-.025a.066.066,0,0,1,.041-.038c.01,0,.045.029.043-.006s-.016-.078-.008-.081a.74.74,0,0,0,.112-.021.721.721,0,0,0,.073-.042c.014-.015.035-.036.053-.033s.1.027.115.026a.382.382,0,0,1,.078.021c.018.006,0,.046.04.061s.039.022.008-.032-.007-.062.034-.037.1.047.1.069.022.042.009.063-.02.026-.053.018a.144.144,0,0,0-.06,0s.018.042.033.05.034.011.048.033.043.035.038.025-.031-.047-.022-.062.013-.017.04,0,.033.027.03,0a.066.066,0,0,1,.015-.046.238.238,0,0,1,.009-.047c.006-.015.034-.007.045.01a.169.169,0,0,1,.017.063c0,.029.018.068.037.074s.026.028.046.037.02-.007.007-.034a.412.412,0,0,0-.027-.061c-.01-.011.023.01.044.007s.05.02.031.027,0,.047.022.06a.617.617,0,0,0,.132.02c.027,0,.071.02.068,0s-.039-.037-.056-.04a.171.171,0,0,1-.1-.047c-.038-.04,0-.04.021-.037s.028,0,.033-.031-.042-.053-.045-.065.026,0,.048.005.04-.013.056.013.034.1.041.085-.008-.037-.008-.055.021-.011.046,0a.583.583,0,0,0,.082.024c.01,0,0,0,.016-.014s.029-.006.037-.019-.013-.023.018-.019.046.029.075.029a.664.664,0,0,1,.075.016.081.081,0,0,1,.065.027c.021.023.057.064.072.067s.046.029,0,.023,0,.028-.04.017a.2.2,0,0,1-.105-.046c-.027-.028-.034-.029-.032-.02s0,.061,0,.061a.094.094,0,0,1-.014.026c-.006,0,.031.038.041.025s.048,0,.052-.016.039-.013.058-.006a.8.8,0,0,0,.08.013.479.479,0,0,1,.063.039s0-.023-.007-.034.028.017.04.022.021-.017.059,0,.037.029.076.034.042,0,.058,0l.017.006a.094.094,0,0,0,.033.028c.026.016.05.034.048.018s.006-.014.011-.015.007-.014.046,0,.029-.03.038-.028a1.387,1.387,0,0,0,.147.05.162.162,0,0,1,.069-.006l.066.023a.36.36,0,0,1,.038,0c.007,0,.048.022.046.011s.011-.014.011-.014a.394.394,0,0,0,.062.044.329.329,0,0,0,.071.027.789.789,0,0,1,.092.04.393.393,0,0,0,.051.018.271.271,0,0,1,.077.042c.006.01.033.033-.006.024s-.026.007-.038.006-.02,0-.021.008.013.03.033.032.039,0,.041-.008l0-.011.04.021a.963.963,0,0,1,.1.04s.011.022,0,.033-.063,0-.063,0a.192.192,0,0,1-.063-.023.08.08,0,0,0-.05-.017c-.007,0,.042.041.067.044a.275.275,0,0,1,.1.04c.04.025.063.031.071.051s-.007.04,0,.053-.053-.017-.069-.032-.042-.02-.009.012,0,.032,0,.032-.037-.031-.04-.027a.146.146,0,0,0-.01.025s-.053-.032-.05-.017.038.034.06.045.1.044.115.055a.794.794,0,0,0,.1.047c.013,0,.042.036.017.03a1.215,1.215,0,0,1-.134-.055c-.024-.011-.006.024-.07-.009s-.107-.076-.118-.075,0,.02-.017.023-.051-.024-.07-.034-.053-.048-.038-.043a.259.259,0,0,0,.046.008.332.332,0,0,1-.063-.044.167.167,0,0,0-.059-.051c-.027-.012-.022-.006.015.031s-.011.015-.037,0-.016.02-.059-.006-.063-.064-.078-.068-.021.025-.044.011-.038.015-.064.011-.094.011-.109.009-.049.012-.029.051,0,.034-.013.032-.044.008-.035.024.051.079.032.091-.031.034-.045.026-.027-.056-.017-.061-.009-.027-.01-.039-.022-.015-.019.006,0,.059-.011.058-.025.032-.007.056.027.066,0,.064-.046.025-.056.026,0,.03,0,.039a.586.586,0,0,0,.007.073c.008.022.046.112.06.147a.163.163,0,0,1-.013.125c-.019.03,0,.1-.011.114a.116.116,0,0,1-.076.03c-.026,0-.038.017-.052.062s-.026.119-.042.125-.041.028-.025.045.043.053.018.053-.036-.018-.053.012-.041.045-.037.065-.021.026-.032.029-.033.062-.06.036.029-.066.045-.082,0-.053.031-.088.026-.062.051-.087.044-.047.012-.071-.027.022-.034.051a.453.453,0,0,1-.082.113c-.023.025-.06.117-.074.117s-.051.052-.051.052-.021.044-.011.057-.009.064-.029.077-.106.013-.11.064c0,.013-.016.078-.047.078s-.073-.017-.082-.007-.035.051-.052.027-.02-.034-.045-.034-.038.024-.052.041-.056.062-.076.059-.046.028-.061.018-.037.007-.049.014a.087.087,0,0,0-.036.075c0,.042-.042.052-.059.062a.3.3,0,0,0-.058.053c-.015.018-.047.022-.056.032s-.017.032-.041.015a.048.048,0,0,1-.017-.049.054.054,0,0,0-.043.007c-.015.015-.027.061-.036.068a.148.148,0,0,0-.022.1c.008.038,0,.077.012.077s.038.036.054.046a.125.125,0,0,1,.031.085.418.418,0,0,0-.021.1c0,.025.019.049,0,.087s-.075.052-.084.088-.065.115-.078.151a.866.866,0,0,0-.061.127c-.011.05-.1.086-.114.09s-.045.038-.067.05a.2.2,0,0,0-.062.064.255.255,0,0,0-.03.083c0,.011-.023.121-.032.185s-.053.126-.044.143.036.021.014.044.007.034,0,.045-.041.07-.04.094,0,.059,0,.079a.119.119,0,0,1-.007.073c-.017.033.012.019,0,.051s-.028.021-.038.059a.612.612,0,0,1-.014.076c-.011.028-.038.069-.043.079a.18.18,0,0,0,0,.071.087.087,0,0,1,0,.06c-.01.019-.035.042-.038.052a.18.18,0,0,1-.012.067c-.014.026-.028.018-.04.037s.011.027-.011.048-.036.019-.052.061a.177.177,0,0,1-.059.069c-.011.012-.036.039-.046.04s-.013-.007,0-.046-.03,0-.023.024.011.037,0,.038a.587.587,0,0,1-.066.038.1.1,0,0,1-.047-.009s-.044-.006-.044-.016.038-.013.061-.026a.5.5,0,0,0,.094-.1c.013-.023.032-.065.023-.077a.685.685,0,0,1-.03-.066.112.112,0,0,1,.012-.066c.009-.008.04-.006.048-.017a.038.038,0,0,0,0-.048c-.013-.022-.011-.057-.016-.066a.1.1,0,0,1-.014-.053c0-.024.011-.012.025-.013s.035-.042.041-.06-.037.011-.065.021-.008-.016,0-.038.014-.057,0-.045a.2.2,0,0,1-.095,0c-.008,0-.015-.065-.02-.082a.044.044,0,0,1,.013-.048.683.683,0,0,0,.068-.069.335.335,0,0,0,.008-.09c0-.018-.028.105-.066.122s-.059.027-.08-.014-.039-.069-.034-.1a.1.1,0,0,0-.007-.068c-.01-.01-.022,0-.027-.048s-.025-.009-.032-.049.044-.093.018-.121a.638.638,0,0,0-.074-.061.155.155,0,0,0-.043-.02c-.03-.01-.065,0-.072-.022a.731.731,0,0,0-.023-.094c-.012-.025-.025-.065-.015-.084s-.009-.1,0-.121.036-.075,0-.118a.405.405,0,0,1-.075-.127.622.622,0,0,1-.022-.133A.164.164,0,0,1,246.061,429.778Zm2.733-2.11c.015,0,.008-.033,0-.049s.023-.013.033-.021.019-.051,0-.045-.014.02-.023.019-.032.033-.038.045A.053.053,0,0,0,248.794,427.668Zm-1.524-.709c.031.013.014.038-.006.026S247.243,426.947,247.269,426.959Zm-1.754-.629a.346.346,0,0,0-.022-.1c-.012-.023-.032-.039-.023-.046s.024.011.028-.026a.106.106,0,0,0-.03-.081.718.718,0,0,0-.115-.132c-.032-.016-.059-.075-.04-.086a.063.063,0,0,1,.09.01c.033.042.055.079.084.069s.024-.076.036-.109-.016-.145.012-.136l.027.01a.085.085,0,0,1,.05,0c.027.012.049.04.062.036s.057.019.065.023a.137.137,0,0,0,.118,0,.23.23,0,0,1-.082-.008c-.032-.011-.087-.034-.113-.043s-.01-.025,0-.026a.858.858,0,0,1,.108-.023.624.624,0,0,1,.082.024.2.2,0,0,1,.121.043.325.325,0,0,0,.074.045c.024.031.062.106.07.088s-.006-.066.019-.044.024.068.05.1.07.037.078.026.019-.019.072-.007.122.049.121.076.041.049.045.036.058.024.067.053.031.063.051.058.046.022.057.046.07.048.074.049.071.008.058.033-.024,0-.042.007-.015.055-.024.061-.027,0-.039-.019-.04-.066-.04-.066.018.047,0,.055-.062-.014-.072-.013a.246.246,0,0,0-.086.02c-.014.012-.056.017-.059.047s.026.139.023.151-.043-.042-.052-.055a.028.028,0,0,0-.043.008.164.164,0,0,0-.013.073c.006.017.017.044.024.035s.022-.005.011-.025-.025-.062-.013-.06l.022,0s.019-.008.044.03.023.073.012.072-.034,0-.032.007.035.041.038.058a.388.388,0,0,1-.006.085c0,.011-.032.021-.041.023s.023.006.019.023-.007.057-.022.065a.171.171,0,0,0-.056.069c0,.019-.046-.017-.055-.02s0,.051-.018.052-.031-.007-.053-.03a.138.138,0,0,1-.029-.075c-.006-.022-.007-.039-.026-.033s-.032-.007-.035-.031.008-.053-.025-.062-.056-.043-.076-.044-.072.008-.08,0-.046-.088-.063-.091a.443.443,0,0,1-.1-.006c-.04-.012-.087-.051-.1-.049s-.045,0-.037-.014.018-.049.04-.047.014-.075.008-.075-.055.026-.05.051,0,.057-.032.045a.049.049,0,0,1-.027-.058.341.341,0,0,0,.009-.051c0-.017.009-.071-.021-.077S245.519,426.369,245.515,426.329Zm1.972,2.2c-.032-.007-.017-.039.01-.035S247.518,428.537,247.487,428.53Zm-2.089-1.768c-.008-.015-.053-.019-.053-.019s-.04-.043-.028-.061a.1.1,0,0,1,.057-.031c.014,0,.031.018.064.02s.057.021.068,0,.064-.028.071-.015.022.019.012.052-.018.054-.029.051-.052-.007-.056.013-.015.037-.045.023S245.406,426.777,245.4,426.762Zm2.094,2.025c.026.006.02.069-.011.057S247.466,428.782,247.491,428.787Zm-.25-.085a.141.141,0,0,1,.066,0c.017,0,.067.058.067.058a.277.277,0,0,1-.051.007c-.02,0-.031.014-.049.025s-.049-.014-.06-.014-.025.043-.029,0A.073.073,0,0,1,247.241,428.7Zm.166-.01c0-.014.03-.053.05-.049s.062-.024.084-.048a.11.11,0,0,1,.082-.024.592.592,0,0,1,.087.026c0,.035-.025.024-.059.024s-.095-.008-.105.01a.733.733,0,0,1-.076.059C247.456,428.7,247.41,428.706,247.407,428.692Zm-2.243-1.376c-.021,0-.046-.019-.065-.031a.088.088,0,0,1-.047-.068.15.15,0,0,1,.014-.079.041.041,0,0,1,.044-.014c.024.006.028.042.044.042s.034.008.03.034-.014.045,0,.056S245.185,427.312,245.163,427.316Zm2.26-.891c-.013.008-.051,0-.051.025s-.033.032-.033.032h-.046a.238.238,0,0,0-.074-.018.748.748,0,0,1-.114-.008.069.069,0,0,1-.049-.031c-.007-.01.042-.02.057-.016a1.084,1.084,0,0,0,.116.018.381.381,0,0,1,.071.012c.019.005.023-.013.031-.023s.019-.041.035-.042a.259.259,0,0,0,.043-.008c.015,0,.042-.006.038-.013s.027.033.017.042A.3.3,0,0,1,247.423,426.424Zm-4.141,3.672c.032-.012.044.049.076.09s.066.076.076.073a.075.075,0,0,1,.061.083.176.176,0,0,0,.02.137c.022.027,0,.1.009.14s0,.066-.034.064-.052-.021-.075-.069-.033-.1-.055-.138-.048-.126-.059-.149a.491.491,0,0,1-.04-.133C243.26,430.153,243.265,430.1,243.283,430.1Zm7.086-2.371c.013.011-.015.014-.037.01a.22.22,0,0,1-.068-.025l.027-.008A.159.159,0,0,1,250.369,427.725Zm-7.041-1.216c-.032.024-.072.036-.083.01a.064.064,0,0,1,.025-.063.036.036,0,0,0,0-.057c-.024-.023-.047-.052-.08-.056a.388.388,0,0,0-.142.015c-.031.014-.054-.039-.057-.063s.051-.047.055-.02.073.013.089,0a1.153,1.153,0,0,1,.139.013c.023,0,.02.041.047.06s.063.048.077.057.02.052,0,.061A.333.333,0,0,0,243.328,426.509Zm4.106-.027c-.006-.026.027-.029.05,0S247.441,426.508,247.434,426.482Zm-2.406.671c-.026.015-.081.03-.06.045a.419.419,0,0,1,.09.112c.006.023-.07.012-.07.012s.017.026,0,.033-.022-.026-.043-.027-.064.019-.086.019a.078.078,0,0,1-.054-.068.139.139,0,0,1,.053-.082c.024-.015.049-.082.065-.1s-.058-.065-.041-.091.073-.01.093-.029.039,0,.052.027.029,0,.044,0,.014.049,0,.068A.188.188,0,0,1,245.029,427.153Zm2.416-.638c.018.009.082.047.085.062s0,.016-.028.008l-.07-.021c-.016,0-.035-.039-.021-.039S247.427,426.506,247.444,426.515Zm.727.09a.327.327,0,0,1-.066-.02c-.014-.009-.07-.034-.056-.014s.015.046,0,.04-.054-.04-.058-.031.012.035,0,.039a.085.085,0,0,1-.055-.011.2.2,0,0,0-.072-.016c-.014,0-.057.005-.069-.009s-.028-.019-.037-.033-.043-.058-.043-.058-.006-.023.017-.008.031.022.042.02-.011-.037.018-.026a.222.222,0,0,1,.059.043c.013.011.035.02.038.017s.02-.024.02-.024.07.011.064,0-.009-.031.027-.02.115.053.124.055.008.023.02.026a.073.073,0,0,1,.045.025C248.209,426.613,248.192,426.609,248.172,426.6Zm1.751.847c-.01,0-.053-.036-.033-.032a.149.149,0,0,1,.043.015C249.946,427.441,249.933,427.454,249.923,427.452Zm-2.079-.981c0,.009-.031,0-.036-.015s-.045-.057-.029-.056a.742.742,0,0,1,.1.053c.023.012.036.036.024.033S247.845,426.462,247.844,426.471Zm-.2-.066c-.018,0-.065-.025-.062-.015s.014.021,0,.021a.152.152,0,0,1-.037,0c-.012,0-.025-.031-.026-.049s0-.017.017-.023a.125.125,0,0,1,.066.006.081.081,0,0,1,.059.036C247.665,426.4,247.659,426.408,247.64,426.4Zm0,.262a.587.587,0,0,1-.056-.047.084.084,0,0,1-.019-.061c.006-.009.051,0,.065.013s.038,0,.064.015.028.044.012.043-.056-.024-.052-.011S247.68,426.691,247.641,426.666Zm.084-.1c-.015-.007-.046-.05-.055-.052s-.066-.026-.06,0,0,.012-.021.011-.056-.039-.064-.051-.008-.032.024-.022a.637.637,0,0,1,.135.033c.02.017.036.061.043.066S247.741,426.568,247.726,426.561Zm-7.063,2.549c.045.059.042.046.069.034s.077.032.07.047-.072-.005-.082.024-.01.032-.039.024-.064-.053-.057-.075A.163.163,0,0,1,240.663,429.111Zm.147.672c.024.028.062.056.067.078s-.067-.024-.067-.024-.046-.011-.053-.033S240.785,429.756,240.81,429.783Zm-.643.939a1.015,1.015,0,0,0,.093.059c.071.04.153.085.192.114s.037.037,0,.027-.013,0-.078-.039-.111-.068-.173-.1a.915.915,0,0,1-.111-.077s-.011-.029,0-.02S240.137,430.7,240.167,430.722Zm1.128-.939a.016.016,0,0,1,.007-.01c.026-.018.067,0,.072-.022s.021-.025.036-.008a.039.039,0,0,1,0,.06.1.1,0,0,1-.064.006.112.112,0,0,1-.049-.018.017.017,0,0,1,0,.011.051.051,0,0,1-.061.026c-.034-.006-.077.013-.086-.006s.017-.048.031-.046a.627.627,0,0,0,.078-.015A.129.129,0,0,1,241.3,429.782Zm-.986.7a.519.519,0,0,1-.074-.2.308.308,0,0,0-.044-.124c-.019-.027.074-.013.086-.03s-.019-.081-.024-.116a.163.163,0,0,1,.023-.086c.012-.031-.006-.106.005-.1s.072.1.065.125.046.084.077.122.042,0,.061-.016.05-.024.059-.044-.067-.085-.062-.105.086.006.094.006.013-.029.029-.027.038.064.038.064a.373.373,0,0,1,.021-.047c.014-.026,0,.019.04.05a.164.164,0,0,1,.047.054c.024.033.043.023.055-.007s.034-.006.054.006.055.068.068.081.077-.015.1,0a.6.6,0,0,1,.052.134c.006.013.058.013.083.032a.115.115,0,0,0,.069.014.993.993,0,0,1,.135.091c.028.019.089.083.086.1s-.041.049-.025.057a.1.1,0,0,1,.034.091c-.011.036,0,.047.012.066s0,.025,0,.054.066.065.085.087a.058.058,0,0,1,.006.061c-.005.014-.047,0-.075-.016s-.068-.044-.084-.05a.273.273,0,0,0-.081.01.98.98,0,0,0-.093-.113.081.081,0,0,0-.074-.015.523.523,0,0,0-.1-.049c-.069-.026-.025.01-.041.015s-.042.006-.049.019.036.054.049.07-.035,0-.048-.015a.3.3,0,0,0-.074-.058c-.038-.024.014.027.025.053s-.052-.043-.029-.011a.123.123,0,0,1,.011.026c0,.008-.025.005,0,.036s.038.05.036.054-.045-.01-.032.023-.026,0-.048-.021-.037,0-.037.006-.056-.033-.1-.053a.161.161,0,0,1-.063-.037c-.025-.02-.072-.069-.123-.11A1.662,1.662,0,0,1,240.309,430.479Zm.706-.629c.015.03-.028.039-.041.006S241,429.823,241.015,429.85Zm-.08-.289c.013.033.043.058.025.073s-.077-.059-.083-.037.01.033,0,.061-.049.023-.049.023-.017-.078.009-.1.041-.039.006-.035-.058-.013-.054-.032.06-.006.077,0a.062.062,0,0,0,.039-.011C240.923,429.512,240.923,429.528,240.935,429.561Zm-.063,1.36a.085.085,0,0,0,.024-.006c.055.04,0,.027.041.062s-.015.012-.032,0a.888.888,0,0,1-.119-.1C240.774,430.86,240.864,430.921,240.873,430.921Zm3.894-3.1c-.005-.015.008-.045.028,0C244.8,427.831,244.772,427.835,244.767,427.82Zm-.208,0a.051.051,0,0,1,.026-.064c.026,0,.038.056.021.075S244.572,427.847,244.558,427.821Zm-.164.136c-.011,0-.048,0-.036-.037s.037-.037.045-.037.045-.012.058,0-.017.034-.031.042S244.405,427.953,244.394,427.957Zm-4.872-.573c.036-.023.1-.058.088-.059s-.033,0-.018-.018.088-.066.091-.082.067-.052.1-.064.113-.026.144-.042.076-.038.077-.032a.215.215,0,0,1-.022.044s.012,0,.051-.027a.477.477,0,0,1,.14-.052.675.675,0,0,1,.069-.01.108.108,0,0,0,.068-.024c.038-.025.072-.04.09-.051a.349.349,0,0,1,.105-.028.709.709,0,0,0,.076-.014s.027-.013.074-.041a.751.751,0,0,1,.1-.052.284.284,0,0,0,.1-.023.275.275,0,0,1,.065-.035c.012,0,.042-.03.027-.026a.243.243,0,0,1-.059,0,.3.3,0,0,1,.071-.044c.023-.006.077-.032.089-.034s-.011.015.018,0,.044,0,.065-.021c.038-.036.021.02-.024.041s-.068.016-.092.037a.135.135,0,0,0-.032.04c-.01.013-.018.043-.011.046s.033-.015.045,0,.081-.015.081-.007.04-.03.047-.026.009.039.029.032a.192.192,0,0,0,.074-.059.368.368,0,0,1,.059-.067.294.294,0,0,1,.082-.023c.017,0,.071-.006.071,0s.02.015.037.012.045-.029.085-.042a.736.736,0,0,1,.126-.03c.007,0,.044-.014.04-.026a.062.062,0,0,1,.022-.071.336.336,0,0,1,.1-.04.218.218,0,0,1,.075-.018c.028,0,.021.023.047,0s-.04.017.026-.023.076-.015.094-.033l.008-.008a.035.035,0,0,0,.011.029.079.079,0,0,0,.048.022.235.235,0,0,0,.086-.036c.046-.087.03,0,.046.008s.023.029.049.018a.107.107,0,0,1,.08-.006c.017.011.033.008.046.029a.09.09,0,0,0,.052.029s.041-.009.062-.012.05-.007.021.02-.1.059-.108.075-.039.058-.031.068.029,0,.043-.029a.084.084,0,0,1,.053-.054.144.144,0,0,0,.064-.042c.036-.035.06-.035.064-.015s-.019.064-.006.066.025.014.039-.018.036-.093.039-.059.011.033,0,.051a.349.349,0,0,0-.033.069c-.006.032-.013.053-.02.054s-.014-.03-.033-.034-.052-.018-.065.014-.042.046-.022.057a.047.047,0,0,0,.061-.02c.012-.022.029-.024.04-.008a.445.445,0,0,1,.027.077s.048.034.057.026-.006-.045-.02-.061a.063.063,0,0,1,0-.065.351.351,0,0,0,.044-.1c0-.017-.012-.04.018-.061s.054-.044.076-.057.025.039.037.051,0,.031.024.032.022.043-.022.072-.061.048-.056.061.053-.012.053-.012A.2.2,0,0,1,243,426.6a.608.608,0,0,0,.069-.027c.02-.006.059-.009.065,0s.019.056.042.039.027-.031.05-.018.056-.015.065.006,0,.022.049,0,.033.012.075.02.073-.016.081.006.018.06.03.034-.011-.068,0-.084a.067.067,0,0,1,.07,0,.139.139,0,0,1-.014.067c-.008.015-.026.074-.009.062s.021-.049.035-.046a.076.076,0,0,1,.036.02c.006.007.036.005.041.02s-.011.056,0,.059.02.017.051-.01.029-.012.036-.006.038.036.045,0,0-.045.026-.068.008-.023-.024-.006a.128.128,0,0,1-.121,0c-.05-.023-.07-.033-.046-.049s.05-.064.086-.073.081.021.139-.012a1,1,0,0,1,.094-.052c.023-.008.164-.1.222-.091a.931.931,0,0,1,.224.144.616.616,0,0,0,.052.093.312.312,0,0,0,.133.088c.047.014.1.124.1.139s-.021.071-.017.083a.1.1,0,0,1-.04.083c-.029.015-.078.011-.08-.011s-.039-.071-.043-.037-.031.087-.027.109,0,.045-.02.042-.114-.032-.114-.032a.049.049,0,0,1-.024-.048c.007-.03-.03-.071-.037-.082s-.032-.055,0-.071.059-.02.027-.064-.059,0-.1-.065.016-.087-.031-.089-.1,0-.088.017a.338.338,0,0,0,.092.091.063.063,0,0,1,.009.086c-.014.023-.023.075-.046.068s-.049-.032-.075-.028a.551.551,0,0,1-.084,0c-.008,0-.049.053-.029.061a.5.5,0,0,0,.089,0c.044,0,.093,0,.092.012s-.062.039-.043.057.042,0,.068-.009.039.048.045.078-.018.082.023.063.069-.02.079-.013.03-.007.056,0a.108.108,0,0,0,.062.01h.034l.021,0a.084.084,0,0,0,.025-.049c0-.03-.009-.064,0-.071a.064.064,0,0,1,.068.026.129.129,0,0,1,0,.083c-.011.019-.043.056-.014.045a.081.081,0,0,1,.087.007c.021.023.058.071.058.071s.067.007.067.03,0,.053.024.057.057.015.089.022.03.027.068.031.044.027.009.033-.089.038-.092.071a.236.236,0,0,0,.017.106c.01.023.066.008.1.008s.1-.014.126,0,.025.09.017.124a.064.064,0,0,0,.015.064.052.052,0,0,1,0,.06c-.014.015-.024.049-.036.052s-.048-.012-.061.007-.027.064-.036.052-.02-.06-.034-.049-.048,0-.073-.007-.039-.042-.065-.061-.011-.019,0-.041-.025-.049-.045-.075-.055,0-.064-.034-.011-.083-.033-.078-.053.022-.072.022-.06-.041-.071-.048a.043.043,0,0,0-.058.03.183.183,0,0,1-.065.083c-.011.008-.084.038-.1.05a.184.184,0,0,0-.035.075c-.006.03-.04.066-.043.04s.031-.111.011-.107a.076.076,0,0,1-.042-.007.781.781,0,0,1,.074-.061.173.173,0,0,0,.074-.072c.017-.037.059-.045.057-.082s-.04-.015-.063.015-.079.072-.1.1-.051.038-.06.072a.386.386,0,0,1-.045.087c-.008.015-.018.134-.027.153s-.058-.04-.071-.055-.038-.022-.04-.052.035-.053.047-.064-.027-.023-.04-.037-.037-.04-.049-.018a1.192,1.192,0,0,0-.017.127c-.006.015-.063.038-.075.057s-.06.027-.068.016-.053.008-.065.012a.172.172,0,0,1-.067-.014c-.022-.007-.043-.029-.043.019a.321.321,0,0,0,.032.159c.027.037.015.056.043.055a.062.062,0,0,1,.034.006c.01-.019.023-.035.04-.029.033.011.076.01.1.055s.039.048.045.033-.08-.077-.068-.1.08-.012.116-.012.069-.03.1-.038.04.069.068.106.072-.021.1-.021.074-.049.074-.049a.252.252,0,0,1,.068-.027c.02,0,.06-.049.071-.049s.042-.034.02-.049-.07.018-.047-.065a.081.081,0,0,1,.118-.056.918.918,0,0,0,.17.007.717.717,0,0,1,.118.053c.025.015.07.034.082.041s.07-.015.1,0,.065.064.074.064.034.026.052.083,0,.1.03.124a.514.514,0,0,1,.122.079c.023.03.043.146.071.195s0,.094,0,.124a.183.183,0,0,0,.006.139c.032.052.029.078.043.082s-.014.019-.02.056.025.075-.03.108-.1.036-.119.081-.063.149-.063.149-.052.06-.078.086-.034.012-.039-.015-.039-.03-.079-.03a.506.506,0,0,1-.108,0c-.04-.008-.069-.073-.083-.08a.121.121,0,0,0-.111.012c-.037.03-.031.071-.051.1s-.054.011-.08-.015-.014-.015-.045.007-.045.045-.016.079.012.087.03.139-.015.052-.046.075-.054.169-.07.195.008.1-.011.146-.026.072,0,.095a.214.214,0,0,1,.056.142.373.373,0,0,1-.017.154c-.009.026-.034.1-.046.123s-.055.074-.056.115.039.106.027.128a.536.536,0,0,1-.039.086.227.227,0,0,0-.025.093.313.313,0,0,0-.006.067c0,.041,0,.067-.024.086s-.039.021-.053,0a.161.161,0,0,0-.1-.055.13.13,0,0,1-.113-.027,1.662,1.662,0,0,1-.114-.152c-.02-.027-.067-.077-.065-.106s.026-.077,0-.092-.092-.03-.1-.052a.654.654,0,0,1,.009-.133c0-.018-.019-.053-.044-.09a.874.874,0,0,0-.093-.1.31.31,0,0,1-.074-.113,1.13,1.13,0,0,0-.013-.133.066.066,0,0,1,.015-.077c.023-.029.019-.1.026-.112a.21.21,0,0,0-.03-.121.706.706,0,0,1-.083-.116c-.025-.034-.1-.138-.127-.146a.166.166,0,0,1-.087-.1c0-.033-.093-.159-.1-.185s-.041-.121-.027-.144.127.034.141.042a.187.187,0,0,0,.1.033c.045,0,.024-.051.027-.074a.324.324,0,0,1,.061-.111.2.2,0,0,0,.06-.093c.014-.044.074-.074.1-.107s0-.137.023-.19.045-.119.067-.168c0-.012.011-.023.016-.034-.026-.008-.064-.024-.069,0a1.144,1.144,0,0,0-.046.123c-.007.04-.038.026-.041.064a.45.45,0,0,1-.045.137.514.514,0,0,0-.073.093.463.463,0,0,0-.029.107c-.008.056-.016.129-.039.14s-.1-.019-.115-.03a.567.567,0,0,0-.144-.074c-.034,0-.04-.033-.083-.044a.244.244,0,0,1-.1-.081.531.531,0,0,1-.073-.127c-.011-.025-.039-.043-.024-.072a.217.217,0,0,1,.1-.078c.023,0,.022-.051.036-.051s.011.025.038.043.055.055.076.047-.005-.026.027-.059.044-.041.045-.067.065-.075.073-.111-.038-.087-.054-.054-.03.085-.068.107-.074.06-.091.067-.058-.039-.073-.032-.046.074-.072.085a.551.551,0,0,1-.126.016c-.014,0-.074,0-.085-.017s-.019-.021-.033-.021-.043.065-.063.073-.057,0-.056.051-.02.086-.04.09-.064-.053-.064-.053,0,.09,0,.122a.88.88,0,0,1-.032.15s-.041.111-.052.135a.48.48,0,0,0-.054.131c0,.032,0,.082-.018.082s-.038-.057-.059-.093a.431.431,0,0,1-.055-.1.685.685,0,0,1,0-.142c0-.025-.018-.046-.058-.067s-.068-.081-.1-.113-.029-.084-.1-.083-.063,0-.079-.02-.033-.034-.043,0a.458.458,0,0,1-.069.108.169.169,0,0,0-.024.094c0,.041.019.155,0,.155s-.065-.124-.065-.124-.063-.052-.06,0,0,.114,0,.148-.045.116-.046.1-.027-.079-.029-.109-.015-.018-.051.013a.256.256,0,0,0-.058.091l-.031.131c0,.017-.054-.082-.064-.1a.058.058,0,0,0-.04-.038c-.024-.007-.052-.007-.063-.044s-.038-.081-.005-.131a.593.593,0,0,1,.077-.107.269.269,0,0,0,.047-.084s-.053-.057-.069-.077-.043-.006-.046.018.024.044.029.094-.035.067-.046.051a.3.3,0,0,1-.039-.067c0-.01.02-.007.024-.044s-.034-.063-.049-.053a.264.264,0,0,1-.146-.038c-.041-.026-.063-.081-.086-.1s-.1-.1-.092-.131a.394.394,0,0,1,.04-.131,1.2,1.2,0,0,1,.08-.1c.015-.02-.043-.02-.064-.048s.013-.055.026-.053a.194.194,0,0,0,.062.006c.014,0,.027-.021.054-.042s.006-.049-.008-.045-.042-.029-.053-.044-.033-.026-.03-.011.007.073-.015.077-.062-.043-.071-.039a.1.1,0,0,0-.031.065c0,.019,0,.051-.015.049s-.025-.03-.033-.02-.041.031-.035.066.031.046-.007.07-.046.006-.068-.009-.022-.084,0-.107a.57.57,0,0,0,.07-.086c0-.016-.051-.012-.043-.038a.041.041,0,0,0-.022-.051c-.016-.008-.027-.047-.04-.033s-.067.033-.075.015a.728.728,0,0,0-.082-.113.126.126,0,0,1-.016-.116.259.259,0,0,1,.03-.1.372.372,0,0,0-.069.109.763.763,0,0,1-.057.114c-.009.01-.04.033-.051.029s.035-.068.04-.08a.024.024,0,0,0-.014-.03c-.009,0,.027-.055.051-.078s.049-.037.04-.039-.01-.024,0-.032.017-.028.032-.024.051-.01.037.016a.109.109,0,0,1,.066-.047c.022,0,.027.014.051.011s.028-.044.038-.046.013.036.038.013-.011-.045-.042-.055-.044-.09-.067-.089-.094.021-.149.027-.055-.018-.083,0a.306.306,0,0,1-.1.043c-.021,0-.014,0-.029-.021s-.038-.032-.038-.051-.035-.028-.055,0-.031.045-.051.049-.034-.013-.05-.02a.07.07,0,0,1-.025-.016s.042.06.055.072.067.013.069.044a.085.085,0,0,1-.017.079c-.026.038-.1.1-.1.127a.271.271,0,0,1-.018.081.138.138,0,0,0-.032-.071.147.147,0,0,1-.031-.08c0-.015-.05-.011-.037-.03a.327.327,0,0,0,.027-.065c.008-.021.028-.02.033-.046s.026-.049-.051-.034-.056.015-.115.025-.054-.019-.1-.023a.213.213,0,0,0-.1.007C239.509,427.406,239.486,427.407,239.522,427.383Zm4.42-.5c-.007-.052-.086.014-.076.039S243.947,426.92,243.942,426.885Zm-4.038,3.68c.006-.008.007,0-.007-.027s-.049-.058-.011-.038a.116.116,0,0,1,.039.044.3.3,0,0,0,.053.057c.014.012.07.037.067.045s-.054-.016-.031,0,.068.045.053.044a.337.337,0,0,1-.082-.049.929.929,0,0,0-.086-.056c-.029-.016-.04-.035-.031-.032S239.9,430.573,239.9,430.565Zm2.213-4.182c0-.02.026-.029,0,0Zm-1.321,2.134c.041.006.06.11.026.107S240.76,428.511,240.8,428.517Zm.059.536c.008.03-.071-.047-.093-.076s-.061-.014-.07-.03l-.009-.016a.422.422,0,0,0,.057-.016c.025-.009.057.026.042-.025s-.058-.043-.049-.082a.057.057,0,0,1,.046-.049c.02,0,0,.036.025.059s.06.032.044.072-.075.068-.06.085S240.848,429.023,240.855,429.053Zm-.521-1.153c-.034.027-.052.011-.089.011a.277.277,0,0,1-.069-.008s-.059.008-.039-.023a.124.124,0,0,1,.092-.038c.01,0,.044-.037.063-.033s.013.035.009.044S240.368,427.873,240.334,427.9Zm.687,1.4c.054,0,.063.052.076.062a.132.132,0,0,0,.048.022c.023.007.033.035.042.051s.04-.028.054-.015a.228.228,0,0,1,0,.131.1.1,0,0,1-.067.083.211.211,0,0,0-.06,0c-.018.006-.081.008-.084-.021a.163.163,0,0,0-.042-.106c-.034-.031-.065-.049-.059-.091s.032-.068.009-.088-.046-.028-.048-.044.053.048.046-.06c0-.023.046.008.052.031S240.968,429.295,241.021,429.3Zm1.156-.158c.019.01.049.182.017.195s-.065-.107-.055-.125S242.151,429.124,242.177,429.138Zm-.646.109a.8.8,0,0,1-.038.145c-.008.023-.051.056-.066.072s-.043-.008-.035-.029a.218.218,0,0,0,.026-.073.268.268,0,0,1,.028-.1c.019-.04.038-.05.05-.077a.435.435,0,0,1,.06-.078c.023,0,.026.056.017.072S241.539,429.186,241.531,429.248Zm.026.427c-.012.013-.1.031-.108.057s-.029.032-.037-.006a.269.269,0,0,0-.04-.1c-.018-.021-.018-.051,0-.046s.034-.042.066-.071a.429.429,0,0,0,.084-.092.68.68,0,0,1,.088-.093.08.08,0,0,1,.068-.029c.036.009-.042.081-.049.092s-.073.086-.067.124A.509.509,0,0,1,241.557,429.675Zm-.894-.683c.011,0,.053.069,0,.064A.032.032,0,1,1,240.663,428.991Zm.03.1c.01-.017.034-.068.067-.054.01,0,.039.062.007.062S240.683,429.111,240.693,429.1Zm-.592.516c.012-.014.012-.056.052-.062s.046-.021.084-.043a.191.191,0,0,1,.146,0c.007.016,0,0,.031-.01s.059,0,.062-.018.022-.027.053,0,.037.027-.008.034-.059.006-.033.032.049.059.032.061-.07-.017-.072,0,.015.017-.037.022-.057.027-.064.038-.027.049,0,.051.058.035.042.037-.07-.015-.069-.006-.005.065-.034.059-.066-.062-.086-.079-.078-.03-.074,0a.059.059,0,0,1-.026.067c-.025.015-.056.029-.065.014s-.013-.07.005-.077a.083.083,0,0,0,.031-.076C240.058,429.628,240.09,429.625,240.1,429.611Zm.757-.132c-.032,0-.1-.018-.113-.019s-.042-.044-.031-.043a1.031,1.031,0,0,1,.1.024.274.274,0,0,0,.058,0C240.9,429.462,240.889,429.484,240.858,429.479Zm-.216.017c-.031.008-.081-.109-.063-.117S240.673,429.489,240.641,429.5Zm-.135-1.371a.229.229,0,0,0,.037.045c.011.012.052,0,.036.039s-.043.075-.059.076-.038-.011-.03-.046-.039,0-.059,0-.026-.024-.028-.049v-.006a.035.035,0,0,1-.027.029c-.036.011-.041-.013-.039-.023s-.056-.021-.064-.03-.05-.021-.049-.033.024-.083.012-.089-.032,0,0-.048.051-.086.072-.069-.015.068-.01.1.01.069.021.069a.145.145,0,0,1,.075.038C240.409,428.15,240.5,428.111,240.506,428.126Z" transform="translate(-239.503 -425.658)" fill="#00dbde"/>
              </g>
            </g>
          </g>
        </g>
        <g id="Grupo_60018" data-name="Grupo 60018" transform="translate(80.246 103.545)">
          <g id="Grupo_60017" data-name="Grupo 60017" clip-path="url(#clip-path-3)">
            <g id="Grupo_60016" data-name="Grupo 60016" transform="translate(-0.411 17.694)">
              <g id="Grupo_59981" data-name="Grupo 59981" transform="translate(212.527 1.767)">
                <rect id="Rectángulo_8148" data-name="Rectángulo 8148" width="128.855" height="22.143" transform="translate(22.143 0) rotate(90)" fill="#0098fa"/>
                <rect id="Rectángulo_8149" data-name="Rectángulo 8149" width="22.143" height="4.968" transform="translate(0 95.608)" fill="#4d39ab"/>
                <rect id="Rectángulo_8150" data-name="Rectángulo 8150" width="22.143" height="4.968" transform="translate(0 105.162)" fill="#ffc440"/>
              </g>
              <g id="Grupo_59988" data-name="Grupo 59988" transform="translate(234.67 12.817)">
                <g id="Grupo_59984" data-name="Grupo 59984" transform="translate(0)">
                  <g id="Grupo_59983" data-name="Grupo 59983">
                    <g id="Grupo_59982" data-name="Grupo 59982">
                      <rect id="Rectángulo_8151" data-name="Rectángulo 8151" width="117.805" height="27.552" transform="translate(0 117.805) rotate(-90)" fill="#a2f23c"/>
                    </g>
                  </g>
                </g>
                <g id="Grupo_59987" data-name="Grupo 59987" transform="translate(0 86.851)">
                  <g id="Grupo_59986" data-name="Grupo 59986" transform="translate(0 0)">
                    <g id="Grupo_59985" data-name="Grupo 59985">
                      <rect id="Rectángulo_8152" data-name="Rectángulo 8152" width="30.954" height="27.552" transform="translate(0 30.954) rotate(-90)" fill="#74cf00"/>
                    </g>
                  </g>
                </g>
                <rect id="Rectángulo_8153" data-name="Rectángulo 8153" width="11.847" height="8.011" transform="translate(17.782 81.119) rotate(90)" fill="#4d39ab"/>
              </g>
              <g id="Grupo_59989" data-name="Grupo 59989" transform="translate(124.507 4.407)">
                <rect id="Rectángulo_8154" data-name="Rectángulo 8154" width="126.215" height="15.664" transform="translate(15.664 0) rotate(90)" fill="#794fe4"/>
                <rect id="Rectángulo_8155" data-name="Rectángulo 8155" width="5.106" height="15.664" transform="translate(15.664 8.409) rotate(90)" fill="#4d39ab"/>
                <rect id="Rectángulo_8156" data-name="Rectángulo 8156" width="5.106" height="15.664" transform="translate(15.664 13.515) rotate(90)" fill="#ffc440"/>
                <path id="Trazado_106891" data-name="Trazado 106891" d="M581.815,770.59h0a5.256,5.256,0,0,1,5.256-5.256h.238a5.256,5.256,0,0,1,5.256,5.256h0a5.256,5.256,0,0,1-5.256,5.256h-.238A5.256,5.256,0,0,1,581.815,770.59Z" transform="translate(-579.358 -664.648)" fill="#fff"/>
              </g>
              <g id="Grupo_59993" data-name="Grupo 59993" transform="translate(140.171)">
                <g id="Grupo_59992" data-name="Grupo 59992">
                  <g id="Grupo_59990" data-name="Grupo 59990" transform="translate(0)">
                    <rect id="Rectángulo_8157" data-name="Rectángulo 8157" width="133.168" height="25.271" transform="translate(0 133.168) rotate(-90)" fill="#ff6c4c"/>
                  </g>
                  <g id="Grupo_59991" data-name="Grupo 59991" transform="translate(0 53.618)">
                    <path id="Trazado_106892" data-name="Trazado 106892" d="M528.294,619.06v6.358c0,1.918-25.271,1.918-25.271,0V619.06C503.023,620.426,528.294,620.426,528.294,619.06Z" transform="translate(-503.023 -619.06)" fill="#ffb6a6"/>
                  </g>
                </g>
                <rect id="Rectángulo_8158" data-name="Rectángulo 8158" width="1.541" height="6.711" transform="translate(23.73 123.91)" fill="#b34c35"/>
                <rect id="Rectángulo_8159" data-name="Rectángulo 8159" width="1.541" height="6.711" transform="translate(20.34 123.91)" fill="#b34c35"/>
                <rect id="Rectángulo_8160" data-name="Rectángulo 8160" width="1.541" height="6.711" transform="translate(16.95 123.91)" fill="#b34c35"/>
                <rect id="Rectángulo_8161" data-name="Rectángulo 8161" width="1.541" height="6.711" transform="translate(13.56 123.91)" fill="#b34c35"/>
                <rect id="Rectángulo_8162" data-name="Rectángulo 8162" width="1.541" height="6.711" transform="translate(10.17 123.91)" fill="#b34c35"/>
                <rect id="Rectángulo_8163" data-name="Rectángulo 8163" width="1.541" height="6.711" transform="translate(6.78 123.91)" fill="#b34c35"/>
                <rect id="Rectángulo_8164" data-name="Rectángulo 8164" width="1.541" height="6.711" transform="translate(3.39 123.91)" fill="#b34c35"/>
                <rect id="Rectángulo_8165" data-name="Rectángulo 8165" width="1.541" height="6.711" transform="translate(0 123.91)" fill="#b34c35"/>
                <rect id="Rectángulo_8166" data-name="Rectángulo 8166" width="34.617" height="6.864" transform="translate(15.599 8.757) rotate(90)" fill="#fff"/>
              </g>
              <g id="Grupo_59996" data-name="Grupo 59996" transform="translate(165.378 22.297)">
                <g id="Grupo_59995" data-name="Grupo 59995" transform="translate(0.063 0)">
                  <g id="Grupo_59994" data-name="Grupo 59994">
                    <rect id="Rectángulo_8167" data-name="Rectángulo 8167" width="108.325" height="20.56" transform="translate(20.56 0) rotate(90)" fill="#4d39ab"/>
                    <rect id="Rectángulo_8168" data-name="Rectángulo 8168" width="8.376" height="77.299" transform="translate(6.028 7.943)" fill="#a15fdc"/>
                  </g>
                </g>
                <rect id="Rectángulo_8169" data-name="Rectángulo 8169" width="0.993" height="20.56" transform="translate(20.56 91.447) rotate(90)" fill="#ffc440"/>
                <rect id="Rectángulo_8170" data-name="Rectángulo 8170" width="0.993" height="20.56" transform="translate(20.56 94.922) rotate(90)" fill="#ffc440"/>
                <rect id="Rectángulo_8171" data-name="Rectángulo 8171" width="0.993" height="20.56" transform="translate(20.56 98.893) rotate(90)" fill="#ffc440"/>
              </g>
              <g id="Grupo_60000" data-name="Grupo 60000" transform="translate(199.582 30.239)">
                <g id="Grupo_59999" data-name="Grupo 59999" transform="translate(0)">
                  <g id="Grupo_59998" data-name="Grupo 59998">
                    <g id="Grupo_59997" data-name="Grupo 59997">
                      <rect id="Rectángulo_8172" data-name="Rectángulo 8172" width="100.383" height="12.945" transform="translate(0 100.383) rotate(-90)" fill="#ff5168"/>
                    </g>
                  </g>
                </g>
                <rect id="Rectángulo_8173" data-name="Rectángulo 8173" width="51.875" height="8.123" transform="translate(10.534 36.345) rotate(90)" fill="#fff"/>
                <ellipse id="Elipse_4165" data-name="Elipse 4165" cx="4.188" cy="4.095" rx="4.188" ry="4.095" transform="translate(2.348 14.503)" fill="#ffc440"/>
              </g>
              <g id="Grupo_60003" data-name="Grupo 60003" transform="translate(185.938 37.047)">
                <g id="Grupo_60002" data-name="Grupo 60002" transform="translate(0.063 0)">
                  <g id="Grupo_60001" data-name="Grupo 60001">
                    <rect id="Rectángulo_8174" data-name="Rectángulo 8174" width="93.574" height="13.58" transform="translate(13.58 0) rotate(90)" fill="#472851"/>
                    <rect id="Rectángulo_8175" data-name="Rectángulo 8175" width="6.473" height="62.548" transform="translate(3.49 7.943)" fill="#69c1fa"/>
                  </g>
                </g>
                <rect id="Rectángulo_8176" data-name="Rectángulo 8176" width="0.993" height="13.58" transform="translate(13.58 78.544) rotate(90)" fill="#ed687e"/>
                <rect id="Rectángulo_8177" data-name="Rectángulo 8177" width="0.993" height="13.58" transform="translate(13.58 82.019) rotate(90)" fill="#ed687e"/>
                <rect id="Rectángulo_8178" data-name="Rectángulo 8178" width="0.993" height="13.58" transform="translate(13.58 85.991) rotate(90)" fill="#ed687e"/>
              </g>
              <g id="Grupo_60007" data-name="Grupo 60007" transform="translate(14.509 35.106)">
                <g id="Grupo_60006" data-name="Grupo 60006" transform="translate(0)">
                  <g id="Grupo_60005" data-name="Grupo 60005">
                    <g id="Grupo_60004" data-name="Grupo 60004">
                      <rect id="Rectángulo_8179" data-name="Rectángulo 8179" width="95.516" height="20.987" transform="translate(0 95.516) rotate(-90)" fill="#ffc440"/>
                    </g>
                  </g>
                </g>
                <path id="Trazado_106893" data-name="Trazado 106893" d="M893.263,602.455V613.1c0,2.263-20.986,2.263-20.986,0V602.455C872.277,604.666,893.263,604.666,893.263,602.455ZM872.277,617.4c0,1.935,20.986,1.935,20.986,0v10.641c0,3-20.986,3-20.986,0Z" transform="translate(-872.277 -589.787)" fill="#785738"/>
              </g>
              <g id="Grupo_60011" data-name="Grupo 60011" transform="translate(0 35.106)">
                <g id="Grupo_60010" data-name="Grupo 60010" transform="translate(0)">
                  <g id="Grupo_60008" data-name="Grupo 60008" transform="translate(0)">
                    <rect id="Rectángulo_8180" data-name="Rectángulo 8180" width="95.516" height="14.509" transform="translate(0 95.516) rotate(-90)" fill="#a15fdc"/>
                  </g>
                  <g id="Grupo_60009" data-name="Grupo 60009" transform="translate(0 28.629)">
                    <rect id="Rectángulo_8181" data-name="Rectángulo 8181" width="1.52" height="14.509" transform="translate(0 1.52) rotate(-90)" fill="#4a3195"/>
                  </g>
                  <rect id="Rectángulo_8182" data-name="Rectángulo 8182" width="3.886" height="8.614" rx="1.943" transform="translate(5.571 11.274)" fill="#fff"/>
                </g>
              </g>
              <g id="Grupo_60015" data-name="Grupo 60015" transform="translate(35.496)">
                <g id="Grupo_60014" data-name="Grupo 60014" transform="translate(0)">
                  <g id="Grupo_60013" data-name="Grupo 60013">
                    <g id="Grupo_60012" data-name="Grupo 60012">
                      <rect id="Rectángulo_8183" data-name="Rectángulo 8183" width="130.622" height="22.095" transform="translate(0 130.622) rotate(-90)" fill="#2c1f47"/>
                    </g>
                  </g>
                </g>
                <rect id="Rectángulo_8184" data-name="Rectángulo 8184" width="88.543" height="13.864" transform="translate(17.98 21.32) rotate(90)" fill="#fff"/>
                <ellipse id="Elipse_4166" data-name="Elipse 4166" cx="5.144" cy="5.03" rx="5.144" ry="5.03" transform="translate(6.012 5.134)" fill="#ffc440"/>
              </g>
            </g>
            <path id="Trazado_106894" data-name="Trazado 106894" d="M306.616,471.721H316.78V599.935Z" transform="translate(-82.63 -452.26)" opacity="0.15" style="mix-blend-mode: multiply;isolation: isolate"/>
            <path id="Trazado_106895" data-name="Trazado 106895" d="M238.416,620.926h-.75l-9.339-117.805h10.089Z" transform="translate(23.286 -472.61)" opacity="0.15" style="mix-blend-mode: multiply;isolation: isolate"/>
            <path id="Trazado_106896" data-name="Trazado 106896" d="M503.023,466.7h10.332V597.024Z" transform="translate(-348.324 -449.007)" opacity="0.15" style="mix-blend-mode: multiply;isolation: isolate"/>
            <path id="Trazado_106897" data-name="Trazado 106897" d="M574.833,479.225h7.07V585.463Z" transform="translate(-442.143 -457.123)" opacity="0.15" style="mix-blend-mode: multiply;isolation: isolate"/>
            <path id="Trazado_106898" data-name="Trazado 106898" d="M809.49,466.7h9.883V596.5Z" transform="translate(-762.193 -449.007)" opacity="0.15" style="mix-blend-mode: multiply;isolation: isolate"/>
            <path id="Trazado_106899" data-name="Trazado 106899" d="M884.062,566.458v95.516H883.8l-11.521-95.516Z" transform="translate(-848.977 -513.658)" opacity="0.15" style="mix-blend-mode: multiply;isolation: isolate"/>
            <path id="Trazado_106900" data-name="Trazado 106900" d="M931.912,566.458h7.271v93.19Z" transform="translate(-925.085 -513.658)" opacity="0.15" style="mix-blend-mode: multiply;isolation: isolate"/>
            <path id="Trazado_106901" data-name="Trazado 106901" d="M375.05,652.99l-5.823-100.328h5.823Z" transform="translate(-162.933 -504.717)" opacity="0.15" style="mix-blend-mode: multiply;isolation: isolate"/>
            <path id="Trazado_106902" data-name="Trazado 106902" d="M411.062,665.018,406.1,572.105h4.965Z" transform="translate(-211.921 -517.318)" opacity="0.15" style="mix-blend-mode: multiply;isolation: isolate"/>
            <path id="Trazado_106903" data-name="Trazado 106903" d="M444.6,530.059h9.89v107.6Z" transform="translate(-268.899 -490.068)" opacity="0.15" style="mix-blend-mode: multiply;isolation: isolate"/>
          </g>
        </g>
        <g id="Grupo_60034" data-name="Grupo 60034" transform="translate(137.426 131.613)">
          <g id="Grupo_60029" data-name="Grupo 60029" transform="translate(17.013)">
            <g id="Grupo_60028" data-name="Grupo 60028">
              <g id="Grupo_60027" data-name="Grupo 60027">
                <g id="Grupo_60020" data-name="Grupo 60020" transform="translate(55.449 73.528)">
                  <path id="Trazado_106904" data-name="Trazado 106904" d="M488.138,761.305,475.31,773.3s2.521,4.865,7.132,3.509,13.918-11.874,13.918-11.874l3.7,3.1,8.751-.867-1.033-2.242L499.03,760A9.279,9.279,0,0,0,488.138,761.305Z" transform="translate(-463.666 -739.91)" fill="#8c4719"/>
                  <path id="Trazado_106905" data-name="Trazado 106905" d="M473.434,755.352s2.882,5.337,6.458,4.244c2.358-.72,8.56-7.455,12.511-11.96a6.655,6.655,0,0,1,8.225-1.433l9.114,5.043,3.427,1.359.66-6.186-20.4-10.087-10.843,7.161Z" transform="translate(-468.029 -725.347)" fill="#b35b20"/>
                  <path id="Trazado_106906" data-name="Trazado 106906" d="M480.9,726.035l-16.575,15.337a3.392,3.392,0,0,0,1.086,5.677,3.354,3.354,0,0,0,2.457-.083c2.753-1.114,12.333-9.672,16.915-13.847,1.465-1.336,5.962-3.24,7.619-2.15l16.2,9.454,4.017-3.692-18.962-13.939Z" transform="translate(-463.227 -716.572)" fill="#de7935"/>
                  <path id="Trazado_106907" data-name="Trazado 106907" d="M426.593,831.835s-14.44,7.084-21.114,22.7C405.479,854.535,420.181,847.938,426.593,831.835Z" transform="translate(-356.878 -787.241)" fill="#b3b3b3"/>
                  <path id="Trazado_106908" data-name="Trazado 106908" d="M414.3,717.7s-4.33,6.79-.687,11.737,18.653,14.9,18.653,14.9,3.9,16.076,10.045,20.021,11.421,8.109,11.421,8.109l17.187-17.583-5.8-4.766s-4.438-25.605-7.936-29.776-12.845-9.11-19.2-13.418a10.45,10.45,0,0,0-8.176-1.541l-29.074,6.594s-.888,4.447,3.085,5.639,26.95-3,26.95-3l9.937,6.273a5.851,5.851,0,0,1,1.124,8.972h0a5.851,5.851,0,0,1-7.432.883Z" transform="translate(-399.501 -705.116)" fill="#ffb583"/>
                  <path id="Trazado_106909" data-name="Trazado 106909" d="M405.474,856.135l17.187-17.583-5.262-4.324c-1.639,3.617-6.1,11.209-16.754,18.3C403.536,854.607,405.474,856.135,405.474,856.135Z" transform="translate(-351.244 -788.792)" fill="#ffb583"/>
                  <g id="Grupo_60019" data-name="Grupo 60019" transform="translate(48.601 44.594)">
                    <path id="Trazado_106910" data-name="Trazado 106910" d="M386.385,854.535c16.812-9.607,21.114-22.7,21.114-22.7l6.719,6.25s-4.3,13.093-21.114,22.7Z" transform="translate(-386.385 -831.835)" fill="#fff"/>
                    <path id="Trazado_106911" data-name="Trazado 106911" d="M-54.932,871.694c42.675,33.912,84.224,75.465,150.155,152.886l26.891-29.619c-68.1-75.544-111.322-116.105-155.158-146.8C-33.045,848.164-37.659,861.592-54.932,871.694Z" transform="translate(61.026 -842.418)" fill="#472851"/>
                  </g>
                </g>
                <g id="Grupo_60025" data-name="Grupo 60025" transform="translate(0)">
                  <g id="Grupo_60021" data-name="Grupo 60021" transform="translate(0 7.075)">
                    <path id="Trazado_106912" data-name="Trazado 106912" d="M491.209,516.283l-22.546,99.171,66.648,35.87,12.731-6.792a3.7,3.7,0,0,0,1.893-2.315l21.657-95.259-.962-1.62-12.739,6.8h0Z" transform="translate(-468.663 -516.283)" fill="#e64c6c"/>
                    <path id="Trazado_106913" data-name="Trazado 106913" d="M468.663,704.833l12.731-6.792a3.7,3.7,0,0,0,1.893-2.315l21.657-95.259-.962-1.62-12.739,6.8-.068.036Z" transform="translate(-402.015 -569.792)" fill="#ad4258"/>
                    <path id="Trazado_106914" data-name="Trazado 106914" d="M561.607,569.341,601.328,590.7a3.4,3.4,0,0,1,1.7,3.747l-6.419,28.234a3.4,3.4,0,0,1-4.923,2.24l-39.721-21.356a3.4,3.4,0,0,1-1.7-3.747l6.419-28.234A3.4,3.4,0,0,1,561.607,569.341Z" transform="translate(-528.875 -550.405)" fill="#fff"/>
                  </g>
                  <g id="Grupo_60022" data-name="Grupo 60022" transform="translate(71.947 49.636)">
                    <path id="Trazado_106915" data-name="Trazado 106915" d="M504.487,637.224l-12.5,54.978L483,697l12.5-54.978Z" transform="translate(-478.551 -637.224)" fill="#8c3647"/>
                    <path id="Trazado_106916" data-name="Trazado 106916" d="M535.5,840.059c2.559-1.365,4.191-.529,3.646,1.869s-3.061,5.447-5.62,6.812-4.191.529-3.646-1.869S532.94,841.424,535.5,840.059Z" transform="translate(-529.774 -768.254)" fill="#482952"/>
                  </g>
                  <g id="Grupo_60024" data-name="Grupo 60024" transform="translate(22.446)">
                    <g id="Grupo_60023" data-name="Grupo 60023" transform="translate(2.154 1.467)">
                      <path id="Trazado_106917" data-name="Trazado 106917" d="M481.305,500.35l67.2,36.576-10.308,5.5L471,505.849C473.483,507.183,483.79,501.684,481.305,500.35Z" transform="translate(-470.998 -500.35)" fill="#fff"/>
                      <path id="Trazado_106918" data-name="Trazado 106918" d="M476.879,507.062l65.371,35.594-.46.245-65.409-35.614Q476.631,507.178,476.879,507.062Zm1.683-.875,65.349,35.582-.46.245-65.338-35.576Q478.342,506.314,478.562,506.188ZM475,507.833l65.586,35.71-.46.245-65.691-35.766C474.624,507.964,474.812,507.9,475,507.833Zm5.061-2.618,65.51,35.668-.46.245L479.669,505.5Q479.874,505.355,480.063,505.215Zm1.222-1.122L547.234,540l-.46.245L480.99,504.427A3.922,3.922,0,0,0,481.285,504.093Z" transform="translate(-470.938 -502.776)" fill="#e6e6e6"/>
                    </g>
                    <path id="Trazado_106919" data-name="Trazado 106919" d="M472.121,606.707l4.1.259,9.3-4.962-1.657-1.563Z" transform="translate(-406.258 -563.75)" opacity="0.1" style="mix-blend-mode: multiply;isolation: isolate"/>
                    <path id="Trazado_106920" data-name="Trazado 106920" d="M479.965,497.23l66.119,36c.845.453.637,1.3-.462,1.886l-5.435,2.9a4.254,4.254,0,0,1-3.526.241l-66.119-36-1.969,1.05,66.119,36c1.681.9,4.818.688,7.007-.479l5.436-2.9c2.189-1.167,2.6-2.846.918-3.749l-66.119-36Z" transform="translate(-468.574 -496.18)" fill="#ff6988"/>
                  </g>
                </g>
                <path id="Trazado_106921" data-name="Trazado 106921" d="M514.363,763.624l16.6,10.807-4.067,17.889-5.127-14.042c-11.289-6.591-9.617-12.115-9.617-12.115Z" transform="translate(-443.301 -669.506)" opacity="0.25" style="mix-blend-mode: multiply;isolation: isolate"/>
                <g id="Grupo_60026" data-name="Grupo 60026" transform="translate(68.101 86.108)">
                  <path id="Trazado_106922" data-name="Trazado 106922" d="M512.094,787.519c-6.142-3.945-10.045-20.021-10.045-20.021s-15.01-9.95-18.653-14.9.687-11.737.687-11.737l20.094,13.043a5.851,5.851,0,0,0,7.432-.883Z" transform="translate(-481.938 -740.865)" fill="#ffb583"/>
                </g>
                <path id="Trazado_106923" data-name="Trazado 106923" d="M540.7,743.188h0l6.312,4.1s-1.145,2.389-2.728,2.242S538.362,746.91,540.7,743.188Z" transform="translate(-469.189 -656.262)" fill="#ffd3b5"/>
              </g>
            </g>
          </g>
          <path id="Trazado_106924" data-name="Trazado 106924" d="M669.052,566.458l11.666,101.261-18.134-9.76-5.7-66.544,4.632-20.376Z" transform="translate(-627.013 -541.726)" opacity="0.15" style="mix-blend-mode: multiply;isolation: isolate"/>
          <g id="Grupo_60030" data-name="Grupo 60030" transform="translate(21.051 24.732)">
            <rect id="Rectángulo_8186" data-name="Rectángulo 8186" width="95.516" height="20.987" transform="translate(20.987 0) rotate(90)" fill="#ff6c4c"/>
            <rect id="Rectángulo_8187" data-name="Rectángulo 8187" width="20.987" height="1.56" transform="translate(0 93.956)" fill="#4d39ab"/>
            <rect id="Rectángulo_8188" data-name="Rectángulo 8188" width="20.987" height="1.56" transform="translate(0 93.956)" fill="#4d39ab"/>
            <rect id="Rectángulo_8189" data-name="Rectángulo 8189" width="20.987" height="1.56" transform="translate(0 93.956)" fill="#4d39ab"/>
            <path id="Trazado_106925" data-name="Trazado 106925" d="M711.022,770.374v23.755H690.035V770.374C690.035,773.674,711.022,773.674,711.022,770.374Z" transform="translate(-690.035 -698.613)" fill="#d13817"/>
            <ellipse id="Elipse_4167" data-name="Elipse 4167" cx="4.923" cy="4.814" rx="4.923" ry="4.814" transform="translate(5.571 79.465)" fill="#fff"/>
          </g>
          <g id="Grupo_60033" data-name="Grupo 60033" transform="translate(0 15.691)">
            <g id="Grupo_60032" data-name="Grupo 60032" transform="translate(0.065 0)">
              <g id="Grupo_60031" data-name="Grupo 60031" transform="translate(0 0)">
                <rect id="Rectángulo_8190" data-name="Rectángulo 8190" width="104.557" height="20.987" transform="translate(20.987 0) rotate(90)" fill="#4d39ab"/>
                <rect id="Rectángulo_8191" data-name="Rectángulo 8191" width="8.55" height="63.846" transform="translate(6.153 17.148)" fill="#a15fdc"/>
              </g>
            </g>
            <rect id="Rectángulo_8192" data-name="Rectángulo 8192" width="1.013" height="20.987" transform="translate(20.987 87.328) rotate(90)" fill="#ffc440"/>
            <rect id="Rectángulo_8193" data-name="Rectángulo 8193" width="1.013" height="20.987" transform="translate(20.987 90.875) rotate(90)" fill="#ffc440"/>
            <rect id="Rectángulo_8194" data-name="Rectángulo 8194" width="1.013" height="20.987" transform="translate(20.987 94.929) rotate(90)" fill="#ffc440"/>
            <path id="Trazado_106926" data-name="Trazado 106926" d="M758.144,645.324h-1.474l-6.958-104.557h8.433Z" transform="translate(-737.106 -540.768)" opacity="0.15" style="mix-blend-mode: multiply;isolation: isolate"/>
          </g>
        </g>
        <path id="Trazado_106927" data-name="Trazado 106927" d="M66.5,1004.514c22.656,10.626,23.82-8.955,23.824-9.013l.012.013q2.772,2.96,5.6,6.006l.187.2q2.706,2.913,5.468,5.908l.685.743q1.291,1.4,2.6,2.822l1.1,1.194,1.357,1.481,1.428,1.561,1.5,1.645q.977,1.07,1.961,2.151l1,1.1q1.1,1.209,2.208,2.43l.553.609q1.283,1.415,2.579,2.848l.776.858q1.366,1.512,2.744,3.039l.038.042-26.891,29.619q-13.907-16.331-26.439-30.613-2.793-3.182-5.525-6.272-4.1-4.635-8.07-9.069-2.647-2.957-5.241-5.828-6.484-7.177-12.651-13.842-2.469-2.668-4.892-5.259-3.635-3.887-7.173-7.608-1.18-1.241-2.349-2.463-2.339-2.446-4.639-4.823c-9.968-10.3-19.406-19.649-28.53-28.282q-2.106-1.992-4.189-3.935c-13.894-12.951-27.12-24.295-40.456-34.892a61.6,61.6,0,0,0,6.563-4.424C-3.394,935.117,48.65,996.143,66.5,1004.514Z" transform="translate(319.516 -627.869)" opacity="0.15" style="mix-blend-mode: multiply;isolation: isolate"/>
      </g>
    </g>
  </g>
</svg>
