<svg xmlns="http://www.w3.org/2000/svg" xmlns:xlink="http://www.w3.org/1999/xlink" width="428.765" height="282.625" viewBox="0 0 428.765 282.625">
  <defs>
    <linearGradient id="linear-gradient" x1="0.5" y1="-0.011" x2="0.5" y2="0.996" gradientUnits="objectBoundingBox">
      <stop offset="0" stop-color="#fff"/>
      <stop offset="1" stop-color="#fff" stop-opacity="0"/>
    </linearGradient>
  </defs>
  <g id="Grupo_60593" data-name="Grupo 60593" transform="translate(-63.009 -47.639)">
    <path id="Trazado_108210" data-name="Trazado 108210" d="M85.794,318.654S40.9,266.332,91.472,209.394c40.764-45.9,27.748-63.644,25.869-94.593-1.59-26.2,28.116-64.932,72.574-66.866,72.868-3.169,90.983,20.248,129.671,18.591s56.185-15.2,101.122-9.863c83.385,9.9,72.147,88.933,59.995,148s24.362,79.241-1.915,114.034" transform="translate(-1.388 0)" fill="#fff1db" opacity="0.2"/>
    <g id="Grupo_60520" data-name="Grupo 60520" transform="translate(161.978 126.466)">
      <g id="Grupo_60516" data-name="Grupo 60516" transform="translate(47.249 133.477)">
        <path id="Trazado_108211" data-name="Trazado 108211" d="M394.052,407.448H323.629l7.649-30.074,1.734-6.82,3.366-13.208H381.3l3.366,13.208,1.734,6.82Z" transform="translate(-291.193 -357.347)" fill="#111e61"/>
        <path id="Trazado_108212" data-name="Trazado 108212" d="M389.912,383.434H334.788l1.734-6.82h51.657Z" transform="translate(-294.702 -363.406)" fill="#ff9800"/>
        <path id="Trazado_108213" data-name="Trazado 108213" d="M406.194,437.593H281.719a5.408,5.408,0,0,1-5.408-5.409h0a5.408,5.408,0,0,1,5.408-5.408H406.194a5.408,5.408,0,0,1,5.409,5.408h0A5.409,5.409,0,0,1,406.194,437.593Z" transform="translate(-276.311 -379.183)" fill="#111e61"/>
      </g>
      <path id="Trazado_108214" data-name="Trazado 108214" d="M437.185,168.336V300.717a5.708,5.708,0,0,1-5.7,5.705H213.089a5.7,5.7,0,0,1-5.705-5.705V168.336a5.7,5.7,0,0,1,5.705-5.705H431.48A5.708,5.708,0,0,1,437.185,168.336Z" transform="translate(-207.384 -162.631)" fill="#111e61"/>
      <rect id="Rectángulo_8448" data-name="Rectángulo 8448" width="220.969" height="116.697" transform="translate(4.203 4.188)" fill="#ffd494"/>
      <g id="Grupo_60517" data-name="Grupo 60517" transform="translate(8.777 4.188)" opacity="0.3">
        <rect id="Rectángulo_8449" data-name="Rectángulo 8449" width="6.195" height="99.245" transform="translate(188.332)" fill="#fff1db"/>
        <rect id="Rectángulo_8450" data-name="Rectángulo 8450" width="6.195" height="99.245" transform="translate(204.026)" fill="#fff1db"/>
        <rect id="Rectángulo_8451" data-name="Rectángulo 8451" width="6.195" height="99.245" fill="#fff1db"/>
        <rect id="Rectángulo_8452" data-name="Rectángulo 8452" width="6.195" height="99.245" transform="translate(15.694)" fill="#fff1db"/>
        <rect id="Rectángulo_8453" data-name="Rectángulo 8453" width="6.195" height="99.245" transform="translate(31.389)" fill="#fff1db"/>
        <rect id="Rectángulo_8454" data-name="Rectángulo 8454" width="6.195" height="99.245" transform="translate(47.083)" fill="#fff1db"/>
        <rect id="Rectángulo_8455" data-name="Rectángulo 8455" width="6.195" height="99.245" transform="translate(62.777)" fill="#fff1db"/>
        <rect id="Rectángulo_8456" data-name="Rectángulo 8456" width="6.195" height="99.245" transform="translate(78.471)" fill="#fff1db"/>
        <rect id="Rectángulo_8457" data-name="Rectángulo 8457" width="6.195" height="99.245" transform="translate(94.166)" fill="#fff1db"/>
        <rect id="Rectángulo_8458" data-name="Rectángulo 8458" width="6.195" height="99.245" transform="translate(109.86)" fill="#fff1db"/>
        <rect id="Rectángulo_8459" data-name="Rectángulo 8459" width="6.195" height="99.245" transform="translate(125.554)" fill="#fff1db"/>
        <rect id="Rectángulo_8460" data-name="Rectángulo 8460" width="6.195" height="99.245" transform="translate(141.249)" fill="#fff1db"/>
        <rect id="Rectángulo_8461" data-name="Rectángulo 8461" width="6.195" height="99.245" transform="translate(156.943)" fill="#fff1db"/>
        <rect id="Rectángulo_8462" data-name="Rectángulo 8462" width="6.195" height="99.245" transform="translate(172.637)" fill="#fff1db"/>
      </g>
      <rect id="Rectángulo_8463" data-name="Rectángulo 8463" width="220.969" height="17.452" transform="translate(4.203 103.433)" fill="#7272dd"/>
      <path id="Trazado_108215" data-name="Trazado 108215" d="M372.546,358.011h0a5.314,5.314,0,0,1-5.3-5.3h0a5.314,5.314,0,0,1,5.3-5.3h0a5.314,5.314,0,0,1,5.3,5.3h0A5.314,5.314,0,0,1,372.546,358.011Z" transform="translate(-257.662 -220.746)" fill="#fff"/>
      <path id="Trazado_108216" data-name="Trazado 108216" d="M391.565,306.317H376.044l40.82-143.686h15.522Z" transform="translate(-260.428 -162.631)" opacity="0.2" fill="url(#linear-gradient)"/>
      <path id="Trazado_108217" data-name="Trazado 108217" d="M440.467,306.317h-32.93l40.82-143.686h32.929Z" transform="translate(-270.333 -162.631)" opacity="0.2" fill="url(#linear-gradient)"/>
      <g id="Grupo_60518" data-name="Grupo 60518" transform="translate(33.695 109.074)">
        <path id="Trazado_108218" data-name="Trazado 108218" d="M439.54,327.168H258.252a1.714,1.714,0,1,1,0-3.427H439.54a1.714,1.714,0,0,1,0,3.427Z" transform="translate(-256.538 -322.375)" fill="#9494ed"/>
        <path id="Trazado_108219" data-name="Trazado 108219" d="M348.9,323.746v3.427H258.254a1.714,1.714,0,0,1,0-3.427Z" transform="translate(-256.539 -322.376)" fill="#ff9800"/>
        <circle id="Elipse_4183" data-name="Elipse 4183" cx="3.085" cy="3.085" r="3.085" transform="translate(89.317)" fill="#fff"/>
      </g>
      <g id="Grupo_60519" data-name="Grupo 60519" transform="translate(10.707 103.878)">
        <circle id="Elipse_4184" data-name="Elipse 4184" cx="6.884" cy="6.884" r="6.884" transform="translate(0 13.399) rotate(-76.718)" fill="#fff"/>
        <path id="Trazado_108220" data-name="Trazado 108220" d="M233.4,321.721l3.774,2.908a.228.228,0,0,1,0,.361L233.4,327.9a.228.228,0,0,1-.367-.18V321.9A.228.228,0,0,1,233.4,321.721Z" transform="translate(-226.158 -316.529)" fill="#854dce"/>
      </g>
    </g>
    <g id="Grupo_60526" data-name="Grupo 60526" transform="translate(63.009 225.797)">
      <g id="Grupo_60521" data-name="Grupo 60521" transform="translate(0 21.726)">
        <path id="Trazado_108221" data-name="Trazado 108221" d="M87.8,395.272s-33.175-44.815-22.765-54.387S90.655,365.029,87.8,395.272Z" transform="translate(-63.009 -339.229)" fill="#fff1db"/>
        <path id="Trazado_108222" data-name="Trazado 108222" d="M70.8,349.212C83.612,368.1,89.042,388.833,91.33,405.091" transform="translate(-65.459 -342.369)" fill="#fff1db" stroke="#ffd494" stroke-miterlimit="10" stroke-width="2"/>
        <path id="Trazado_108223" data-name="Trazado 108223" d="M69.392,358.081a53.007,53.007,0,0,1,8.29,6.191" transform="translate(-65.017 -345.158)" fill="#fff1db" stroke="#ffd494" stroke-miterlimit="10" stroke-width="1.718"/>
        <path id="Trazado_108224" data-name="Trazado 108224" d="M70.891,362a53,53,0,0,1,8.29,6.191" transform="translate(-65.488 -346.389)" fill="#fff1db" stroke="#ffd494" stroke-miterlimit="10" stroke-width="1.718"/>
      </g>
      <g id="Grupo_60522" data-name="Grupo 60522" transform="translate(30.279 16.115)">
        <path id="Trazado_108225" data-name="Trazado 108225" d="M108.784,387.566s31.985-45.673,21.327-54.967S105.13,357.409,108.784,387.566Z" transform="translate(-107.501 -331.043)" fill="#fff1db"/>
        <path id="Trazado_108226" data-name="Trazado 108226" d="M126.61,341.005c-13.251,20.686-17.9,43.275-19.43,60.045" transform="translate(-107.18 -334.176)" fill="none" stroke="#ffd494" stroke-miterlimit="10" stroke-width="2"/>
      </g>
      <g id="Grupo_60523" data-name="Grupo 60523" transform="translate(5.338)">
        <path id="Trazado_108228" data-name="Trazado 108228" d="M94.519,363.978s-32.19-45.528-21.574-54.87S98.036,333.8,94.519,363.978Z" transform="translate(-70.797 -307.534)" fill="#ffd494"/>
        <path id="Trazado_108229" data-name="Trazado 108229" d="M78.6,317.5c16.9,26.12,20.012,55.353,20.421,71.968" transform="translate(-73.251 -310.669)" fill="none" stroke="#ffb74d" stroke-miterlimit="10" stroke-width="2"/>
      </g>
      <g id="Grupo_60524" data-name="Grupo 60524" transform="translate(25.709 35.79)">
        <path id="Trazado_108230" data-name="Trazado 108230" d="M102.47,393.679s19.81-27.225,13.477-32.953S100.594,375.431,102.47,393.679Z" transform="translate(-101.05 -359.744)" fill="#ffc571"/>
        <path id="Trazado_108231" data-name="Trazado 108231" d="M113.434,365.769c-10.418,15.632-12.537,33.257-12.92,43.286" transform="translate(-100.514 -361.639)" fill="none" stroke="#ff9800" stroke-miterlimit="10" stroke-width="2"/>
      </g>
      <g id="Grupo_60525" data-name="Grupo 60525" transform="translate(12.306 67.285)">
        <path id="Trazado_108232" data-name="Trazado 108232" d="M109.95,407.334l-.156,1.041-.328,2.212L106.3,431.826H87.425l-3.164-21.239-.328-2.212-.156-1.041Z" transform="translate(-81.847 -406.206)" fill="#ff9800"/>
        <path id="Trazado_108233" data-name="Trazado 108233" d="M109.865,408.853l-.328,2.212h-25.2L84,408.853Z" transform="translate(-81.918 -406.684)" fill="#ffc571"/>
        <path id="Trazado_108234" data-name="Trazado 108234" d="M109.432,408.812H82.523a1.562,1.562,0,0,1-1.562-1.562h0a1.562,1.562,0,0,1,1.562-1.562h26.909a1.561,1.561,0,0,1,1.561,1.562h0A1.561,1.561,0,0,1,109.432,408.812Z" transform="translate(-80.961 -405.689)" fill="#ff9800"/>
      </g>
    </g>
    <g id="Grupo_60527" data-name="Grupo 60527" transform="translate(88.038 216.258)">
      <path id="Trazado_108235" data-name="Trazado 108235" d="M128.971,294.487v14.042a.95.95,0,0,1-.184.568.971.971,0,0,1-.806.422h-20.63a1.012,1.012,0,0,1-.683-.269V296.214a.865.865,0,0,1,.867-.86h14.5a.865.865,0,0,0,.86-.867.866.866,0,0,1,.86-.868H128.1A.872.872,0,0,1,128.971,294.487Z" transform="translate(-101.769 -293.619)" fill="#383493"/>
      <path id="Trazado_108236" data-name="Trazado 108236" d="M126.539,310.764a.971.971,0,0,1-.806.422H105.1a1.012,1.012,0,0,1-.683-.269.961.961,0,0,1-.208-.292.307.307,0,0,1-.031-.069l-4.591-10.48a.829.829,0,0,1,.76-1.159H120.8a.826.826,0,0,1,.76.492l4.3,9.812Z" transform="translate(-99.521 -295.285)" fill="#5146af"/>
    </g>
    <line id="Línea_185" data-name="Línea 185" x2="413.959" transform="translate(69.899 319.009)" fill="none" stroke="#5730a0" stroke-linecap="round" stroke-linejoin="round" stroke-width="2"/>
    <g id="Grupo_60531" data-name="Grupo 60531" transform="translate(111.236 65.35)">
      <path id="Rectángulo_8464" data-name="Rectángulo 8464" d="M4.484,0H95.836a6.647,6.647,0,0,1,6.647,6.647V77.389a1.432,1.432,0,0,1-1.432,1.432H1.432A1.432,1.432,0,0,1,0,77.389V4.484A4.484,4.484,0,0,1,4.484,0Z" transform="translate(0 2.605)" fill="#ffd494"/>
      <rect id="Rectángulo_8465" data-name="Rectángulo 8465" width="94.525" height="16.97" rx="2.827" transform="translate(4.036 60.631)" fill="#fff"/>
      <rect id="Rectángulo_8466" data-name="Rectángulo 8466" width="94.525" height="6.883" rx="1.801" transform="translate(4.036 50.94)" fill="#fff"/>
      <g id="Grupo_60528" data-name="Grupo 60528" transform="translate(3.617 12.874)">
        <path id="Trazado_108237" data-name="Trazado 108237" d="M194.092,95.294H140.158a1.519,1.519,0,0,1-1.519-1.519h0a1.519,1.519,0,0,1,1.519-1.519h53.934a1.519,1.519,0,0,1,1.519,1.519h0A1.519,1.519,0,0,1,194.092,95.294Z" transform="translate(-138.639 -92.256)" fill="#fff" opacity="0.31"/>
        <path id="Trazado_108238" data-name="Trazado 108238" d="M194.092,104.453H140.159a1.519,1.519,0,0,1-1.52-1.518h0a1.519,1.519,0,0,1,1.52-1.52h53.934a1.519,1.519,0,0,1,1.519,1.52h0A1.519,1.519,0,0,1,194.092,104.453Z" transform="translate(-138.639 -95.137)" fill="#fff" opacity="0.31"/>
        <path id="Trazado_108239" data-name="Trazado 108239" d="M194.092,113.613H140.159a1.519,1.519,0,0,1-1.52-1.519h0a1.52,1.52,0,0,1,1.52-1.519h53.934a1.519,1.519,0,0,1,1.519,1.519h0A1.519,1.519,0,0,1,194.092,113.613Z" transform="translate(-138.639 -98.017)" fill="#fff" opacity="0.31"/>
        <path id="Trazado_108240" data-name="Trazado 108240" d="M194.092,122.772H140.159a1.519,1.519,0,0,1-1.52-1.518h0a1.519,1.519,0,0,1,1.52-1.52h53.934a1.519,1.519,0,0,1,1.519,1.52h0A1.519,1.519,0,0,1,194.092,122.772Z" transform="translate(-138.639 -100.898)" fill="#fff" opacity="0.31"/>
        <path id="Trazado_108241" data-name="Trazado 108241" d="M194.092,131.932H140.159a1.519,1.519,0,0,1-1.52-1.519h0a1.519,1.519,0,0,1,1.52-1.519h53.934a1.519,1.519,0,0,1,1.519,1.519h0A1.519,1.519,0,0,1,194.092,131.932Z" transform="translate(-138.639 -103.779)" fill="#fff" opacity="0.31"/>
        <path id="Trazado_108242" data-name="Trazado 108242" d="M181.422,141.094H140.159a1.519,1.519,0,0,1-1.52-1.519h0a1.519,1.519,0,0,1,1.52-1.519h41.264a1.519,1.519,0,0,1,1.519,1.519h0A1.519,1.519,0,0,1,181.422,141.094Z" transform="translate(-138.639 -106.66)" fill="#fff" opacity="0.31"/>
      </g>
      <path id="Trazado_108243" data-name="Trazado 108243" d="M234.807,73.475H134.4a1.039,1.039,0,0,0-1.039,1.039V82.2H235.846V74.514A1.039,1.039,0,0,0,234.807,73.475Z" transform="translate(-133.362 -73.475)" fill="#ff9800"/>
      <g id="Grupo_60529" data-name="Grupo 60529" transform="translate(85.382 3.417)">
        <path id="Trazado_108244" data-name="Trazado 108244" d="M259.811,79.406a.947.947,0,1,1-.947-.947A.947.947,0,0,1,259.811,79.406Z" transform="translate(-257.917 -78.459)" fill="#fff"/>
        <path id="Trazado_108245" data-name="Trazado 108245" d="M266.675,79.406a.947.947,0,1,1-.947-.947A.946.946,0,0,1,266.675,79.406Z" transform="translate(-260.076 -78.459)" fill="#fff"/>
        <path id="Trazado_108246" data-name="Trazado 108246" d="M273.539,79.406a.947.947,0,1,1-.947-.947A.946.946,0,0,1,273.539,79.406Z" transform="translate(-262.234 -78.459)" fill="#fff"/>
      </g>
      <g id="Grupo_60530" data-name="Grupo 60530" transform="translate(64.479 12.877)">
        <path id="Trazado_108247" data-name="Trazado 108247" d="M261.506,93.241V125.7a.991.991,0,0,1-.993.992H228.4a.989.989,0,0,1-.981-.992V93.241a.987.987,0,0,1,.981-.981h32.108A.989.989,0,0,1,261.506,93.241Z" transform="translate(-227.424 -92.26)" fill="#fff"/>
        <path id="Trazado_108248" data-name="Trazado 108248" d="M269.38,128.364v6.083a.991.991,0,0,1-.993.992H252.462l.677-7.075,7.5-8.29Z" transform="translate(-235.299 -101.008)" fill="#2a3985"/>
        <path id="Trazado_108249" data-name="Trazado 108249" d="M257.046,133.845H228.4a.989.989,0,0,1-.981-.992V126.77l11.209-11.763Z" transform="translate(-227.424 -99.414)" fill="#111e61"/>
        <path id="Trazado_108250" data-name="Trazado 108250" d="M266.94,104.034a3.952,3.952,0,1,1-3.951-3.951A3.951,3.951,0,0,1,266.94,104.034Z" transform="translate(-237.366 -94.72)" fill="#111e61"/>
      </g>
    </g>
    <g id="Grupo_60539" data-name="Grupo 60539" transform="translate(153.797 68.401)">
      <path id="Trazado_108251" data-name="Trazado 108251" d="M308.394,272.676l-10.714-18.385-17.035,1.342L276,259.87c-.6-.693-.465-.535-.932-1.058-3.594-4.025-12.007-10.716-18.676-17.6a162.131,162.131,0,0,1-13.244-15.646l-1.348.672c.005-.717.01-1.176.01-1.176l-6-8.02-7.266-.472-5.394,6.56.278,3.507s.087,5.405,4.31,5.951c1.268.164,4.471.775,5.482,1.466A20.984,20.984,0,0,1,240,241.894c4.761,9.334,11.7,22.65,18.221,34.06a13.63,13.63,0,0,0,.747,1.224c2.268,3.614,9.3,14.063,15.04,14.556C280.956,292.331,308.394,272.676,308.394,272.676Z" transform="translate(-204.162 -121.529)" fill="#f7b59c"/>
      <g id="Grupo_60538" data-name="Grupo 60538" transform="translate(122.569)">
        <path id="Trazado_108252" data-name="Trazado 108252" d="M383.068,155.027s2.288-3.417,5.435-4.232-3.454,7.317-3.454,7.317a7.718,7.718,0,0,1-1.982.656A22.939,22.939,0,0,1,383.068,155.027Z" transform="translate(-376.996 -100.826)" fill="#01263a"/>
        <path id="Trazado_108253" data-name="Trazado 108253" d="M464.831,121.383s22.445,8.057-4.275,31.213l-4.022-1.224Z" transform="translate(-400.13 -91.594)" fill="#003051"/>
        <path id="Trazado_108254" data-name="Trazado 108254" d="M385.844,202.79a43.694,43.694,0,0,0,25.019,15.133c24.86-.472,29.1-14.169,29.1-14.169l-13.885-3.083s-.42-18.129,7.281-29.314c5.771,1.112,8.474-7.99,6.889-10.435-1.719-2.652-3.653-2.3-3.653-2.3-1.636,1.777-3.124,5.96-3.859,8.023L398.1,184.555a19.684,19.684,0,0,1,.931,2.49,40.237,40.237,0,0,1,1.546,7.491,50.96,50.96,0,0,1,.3,6.806Zm44.422-32.2c.734-1.252,1.531-2.518,2.413-3.791-.308.882-.539,1.679-.707,2.329C430.994,169.957,430.287,170.573,430.266,170.594Z" transform="translate(-377.897 -103.3)" fill="#f7b59c"/>
        <path id="Trazado_108255" data-name="Trazado 108255" d="M405.078,193.467a40.237,40.237,0,0,1,1.546,7.491c28.845-6.323,29.67-21.935,29.67-21.935l-14.807,6.008Z" transform="translate(-383.947 -109.722)" fill="#ed9780"/>
        <path id="Trazado_108256" data-name="Trazado 108256" d="M396.82,107.183s-6.281,11.68-1.955,19.374l10-12.961" transform="translate(-380.257 -87.128)" fill="#01263a"/>
        <path id="Trazado_108257" data-name="Trazado 108257" d="M380.9,167.273c6.647,10.5,31.008,10.256,42.437-4.782s13.294-32.291,7.579-42.9c-3.178-5.9-10.777-9.3-18.246-9.855a20.311,20.311,0,0,0-5.945.441,21.681,21.681,0,0,0-11.78,7.168c-.28.33-.541.661-.8,1l-1.755,2.316c-.23.3-.441.6-.651.922a19.966,19.966,0,0,0-2.536,5.324,19.321,19.321,0,0,0-.712,3.018,20.081,20.081,0,0,1-4.09,9.594C379.386,145.7,374.263,156.787,380.9,167.273Z" transform="translate(-375.349 -87.914)" fill="#f7b59c"/>
        <path id="Trazado_108258" data-name="Trazado 108258" d="M402.833,117.574a29.313,29.313,0,0,0,7.743,2.014c5.812.7,17.528,1.861,21.46,6.135a10.9,10.9,0,0,1,2.623,4.847c.965,3.358-2.182-11.415-2.182-11.415l-17.857-8.75A21.688,21.688,0,0,0,402.833,117.574Z" transform="translate(-383.241 -88.141)" fill="#ed9780"/>
        <path id="Trazado_108259" data-name="Trazado 108259" d="M439.478,146.641s-.056,15.21-8.1,19.232-13.552-.937-17.224-3.563c-2.113-1.511-2.856,2.362-2.856,2.362s4.2,6.972,6.3,6.972,10.55-.117,11.191-.524,5.479-2.74,5.479-2.74,3.323-5.679,3.556-6.278,4.022-7.069,3.847-7.885-.117-6.178-.117-6.178Z" transform="translate(-385.903 -99.538)" fill="#ed9780"/>
        <path id="Trazado_108260" data-name="Trazado 108260" d="M391.04,78.041c-1.9.369-3.613,4.262-4.386,6.006a14.556,14.556,0,0,0,1.6,15.187c5.478,7.592,17.312,7.607,26.142,9.88,7.848,2.02,11.76,7.079,11.244,12.843a5.854,5.854,0,0,0,1.459,4.336l.167.192a4.736,4.736,0,0,1,1.072,4.052c-.921,4.559-3.8,13.907-10.882,16-6.12,1.807-8.63-.491-9.641-1.261-3.561-2.71-5.572-5.712-12.522-9.1-3.615-1.762-7.5-1.518-12.573-2.258-.943-.138-2.248-.262-2.394-1.788,0,0-11.064,12.981-3.323,26.475a14.144,14.144,0,0,0,8.959,6.752,36.648,36.648,0,0,0,23.888-2.557c16.437-7.432,21.858-24.394,24.044-29.727s7.869-19.7,3.63-32.933c-2.616-8.166-10.9-15.071-24.439-15.679C403.651,84.035,396.658,76.948,391.04,78.041Z" transform="translate(-374.252 -77.927)" fill="#003051"/>
        <path id="Trazado_108261" data-name="Trazado 108261" d="M406.765,171.8a7.954,7.954,0,0,1-.7,1.049c-1.483,1.938-5.379,5.6-12.024,2.364a6.638,6.638,0,0,1-3.63-3.763,8.234,8.234,0,0,1,.5-5.827,52.227,52.227,0,0,0,5.812,3.19,29.57,29.57,0,0,0,9.666,2.959C406.513,171.788,406.639,171.8,406.765,171.8Z" transform="translate(-379.224 -105.509)" fill="#8d1612"/>
        <path id="Trazado_108262" data-name="Trazado 108262" d="M406.723,172.65l-.175.587-.322,1.077c-1.483,1.938-5.379,5.6-12.024,2.364a6.638,6.638,0,0,1-3.63-3.763,8.691,8.691,0,0,1,5.477-2.637h4.463Z" transform="translate(-379.384 -106.972)" fill="#ff4c2f"/>
        <path id="Trazado_108263" data-name="Trazado 108263" d="M390.926,165.626s-1.859,2.316-1.864,2.977c-.007,1.028,12.24,6.778,12.9,6.821s1.8-2.316,1.8-2.316l-4.962-2.955" transform="translate(-378.909 -105.509)" fill="#fafff7"/>
        <path id="Trazado_108264" data-name="Trazado 108264" d="M392.484,129.028c-.291.651-.056.044-.32.965a1.771,1.771,0,0,0,1.264,2.126c2.3.821,9.254,3.574,9.254,3.574.727.421.738-.361.513-.832-.914-1.915-1.831-4.294-8.421-6.527A1.7,1.7,0,0,0,392.484,129.028Z" transform="translate(-379.865 -93.731)" fill="#003051"/>
        <path id="Trazado_108265" data-name="Trazado 108265" d="M434.75,146.607c-.273.659.008.072-.48.9a1.771,1.771,0,0,1-2.413.546c-2.174-1.1-8.959-4.258-8.959-4.258-.805-.238-.245-.784.252-.945,2.018-.653,4.376-1.625,10.53,1.623C434.542,144.925,435.124,145.706,434.75,146.607Z" transform="translate(-389.423 -98.136)" fill="#003051"/>
        <path id="Trazado_108266" data-name="Trazado 108266" d="M387.659,165.4s3.859,4.907,9.217,3.41c0,0,.051,4.013,9.056,5.329l.787-3.143s-5.8-3.09-6.176-2.856-5.889-1.471-6.939-1.668-4.633-2.995-4.633-2.995Z" transform="translate(-378.468 -104.831)" fill="#003051"/>
        <path id="Trazado_108267" data-name="Trazado 108267" d="M459.822,163.178s-3.269,4.658-2.767,6.689c0,0,.125-1.179,3.133-1.161,0,0,1.944-2.709.966-4.729A1.216,1.216,0,0,0,459.822,163.178Z" transform="translate(-400.277 -104.733)" fill="#ed9780"/>
        <g id="Grupo_60534" data-name="Grupo 60534" transform="translate(32.873 49.127)">
          <g id="Grupo_60532" data-name="Grupo 60532">
            <path id="Trazado_108268" data-name="Trazado 108268" d="M423.111,150.421c-1.027,1.673-1.456,3.5.223,4.827a1.609,1.609,0,0,0,1.937-.2,6.264,6.264,0,0,0,1.473-2.157c1.148-2.177-2.322-4.606-3.633-2.47Z" transform="translate(-422.206 -149.594)" fill="#452e17"/>
          </g>
          <g id="Grupo_60533" data-name="Grupo 60533" transform="translate(0.948 1.56)">
            <path id="Trazado_108269" data-name="Trazado 108269" d="M423.827,152.111c-.269.439-.383.918.058,1.267a.423.423,0,0,0,.508-.053c.224-.215.165-.437.3-.687a.506.506,0,0,0-.863-.527Z" transform="translate(-423.589 -151.87)" fill="#fff"/>
          </g>
        </g>
        <g id="Grupo_60537" data-name="Grupo 60537" transform="translate(15.088 43.242)">
          <g id="Grupo_60535" data-name="Grupo 60535">
            <path id="Trazado_108270" data-name="Trazado 108270" d="M397.036,141.666c-.848,1.3-1.228,2.728.068,3.815a1.272,1.272,0,0,0,1.533-.114,5.562,5.562,0,0,0,1.171-1.869c.955-1.693-1.69-3.488-2.772-1.831Z" transform="translate(-396.262 -141.008)" fill="#452e17"/>
          </g>
          <g id="Grupo_60536" data-name="Grupo 60536" transform="translate(0.771 1.252)">
            <path id="Trazado_108271" data-name="Trazado 108271" d="M397.589,143.017c-.222.34-.322.715.018,1a.332.332,0,0,0,.4-.03c.182-.164.14-.341.25-.535a.4.4,0,0,0-.67-.435Z" transform="translate(-397.386 -142.835)" fill="#fff"/>
          </g>
        </g>
      </g>
      <path id="Trazado_108272" data-name="Trazado 108272" d="M234.669,219.778s-8.6-18.46-14.594-22.808a2.417,2.417,0,0,0-1.864,2.9c.247,2.566,3.887,5.712,4.051,8.113s-1.449,2.067-3.435,1.612-16.671-8.629-18.119-7.913c-1.477.729.04,2.255,1.074,3.083s8.872,5.757,8.872,5.757-14.123-7.75-15.18-5.056c-.685,1.747,12.447,8.489,12.447,8.489s-11.281-6.32-11.8-3.975c-.439,2,9.117,6.485,9.117,6.485s-5.906-3.092-6.35-1.734c-.563,1.72,7.64,6.176,10.019,7.728s8.17,4.039,10.466,3.979,3.993-.288,5.254,1" transform="translate(-195.449 -115.366)" fill="#f7b59c"/>
      <path id="Trazado_108273" data-name="Trazado 108273" d="M427.023,264.29l4.744,17.556h-86.16c.007-4.538-.24-9.953-.6-15.3L326.474,277.9c-6.06-12.01-19.269-23.437-19.454-23.444,12.867-12.624,28.644-26.922,37.24-32.885,4.113-2.859,23.872-4.008,26.436-4.262a6.8,6.8,0,0,0,5.285-3.517s2.749,6.389,7.232,8.7c1.22.5,1.33,7.746,2.852,7.7.452-.014,3.784-7.582,4.216-7.65,0,0,5.306-.9,11.167-9.727l1.049,1.433a6.758,6.758,0,0,0,3.914,2.6,98.156,98.156,0,0,1,13.6,4.25c7.39,2.982,15.527,17.165,15.527,17.165l1.83,26.028-10.858-.494Z" transform="translate(-230.539 -120.35)" fill="#fff"/>
      <path id="Trazado_108274" data-name="Trazado 108274" d="M470.512,281.4l2.049,22.016h10.625L481.3,289.069Z" transform="translate(-281.957 -141.92)" fill="#f4f4f4"/>
      <path id="Trazado_108275" data-name="Trazado 108275" d="M505.847,276.336l9.6,25.489h-28.62l-4.741-10.351" transform="translate(-285.596 -140.327)" fill="#f7b59c"/>
      <path id="Trazado_108276" data-name="Trazado 108276" d="M455.607,219.6s21.934,3.172,28.491,9.7c3.268,3.255,5.948,9.492,10.051,18.851,6.712,15.309,9.877,23.648,9.877,23.648s-16.6,11.541-33.24,8.114l-8.151-23.478Z" transform="translate(-277.27 -122.483)" fill="#fff"/>
      <ellipse id="Elipse_4185" data-name="Elipse 4185" cx="6.935" cy="6.243" rx="6.935" ry="6.243" transform="translate(131.681 49.487) rotate(-67.998)" fill="none" stroke="#fff" stroke-miterlimit="10" stroke-width="1"/>
      <ellipse id="Elipse_4186" data-name="Elipse 4186" cx="6.935" cy="6.243" rx="6.935" ry="6.243" transform="translate(148.586 56.35) rotate(-67.999)" fill="none" stroke="#fff" stroke-miterlimit="10" stroke-width="1"/>
      <path id="Trazado_108277" data-name="Trazado 108277" d="M408.473,146.864s3.74-.4,5.157,2.658" transform="translate(-262.446 -99.602)" fill="none" stroke="#fff" stroke-miterlimit="10" stroke-width="1"/>
      <line id="Línea_186" data-name="Línea 186" x2="19.213" y2="1.21" transform="translate(162.995 53.935)" fill="none" stroke="#fff" stroke-linecap="round" stroke-miterlimit="10" stroke-width="1"/>
      <path id="Trazado_108278" data-name="Trazado 108278" d="M367.739,305.518h-4.7c.007-4.538-.24-9.953-.6-15.3l3.811-2.132S367.849,300.679,367.739,305.518Z" transform="translate(-247.968 -144.023)" fill="#f4f4f4"/>
      <path id="Trazado_108279" data-name="Trazado 108279" d="M408.738,149.594s-5,3.87-5.546,5.9c-.319,1.194,1.686,2.516,1.686,2.516" transform="translate(-260.774 -100.466)" fill="none" stroke="#ed9780" stroke-linecap="round" stroke-miterlimit="10" stroke-width="1"/>
    </g>
    <g id="Grupo_60548" data-name="Grupo 60548" transform="translate(119.279 226.093)">
      <path id="Trazado_108280" data-name="Trazado 108280" d="M204.679,344.6s2.054,7.161-5.648,7.159a6.277,6.277,0,0,1-2.8-.669c-2.843-1.369-3.5-6.144-3.5-6.144,2.407-.616,1.562-4.094,1.562-4.094l8.555.2s-.423,2.236.2,2.875C204.138,345.038,204.679,344.6,204.679,344.6Z" transform="translate(-160.076 -318.309)" fill="#f7b59c"/>
      <path id="Trazado_108281" data-name="Trazado 108281" d="M182.924,345.956s-.482,6.351,5.5,6.351c5.409,0,5.474-4.207,5.075-6.525,6.176.55,12.931,3.045,16.381,5.876,4.092,5.294,6.932,13.392,6.932,13.392a32.4,32.4,0,0,1-3.839,1.475,15.922,15.922,0,0,0-3.5,1.526l-2.42,32.691H169.216l-.645-32.711s-2.486-.6-4.5-1.254a12.908,12.908,0,0,1-4.043-1.908,68.386,68.386,0,0,1,5.7-12.211C169.2,349.446,175.706,346.8,182.924,345.956Z" transform="translate(-149.792 -319.86)" fill="#5146af"/>
      <path id="Trazado_108282" data-name="Trazado 108282" d="M159.5,374.175s-3.608,12.761-3.275,18.857,14.742,14.631,14.742,14.631l1.884-6.429s-5.985-2.549-6.872-7.2,4.138-16.332,4.138-16.332-2.22-.651-5.255-1.482A31.47,31.47,0,0,1,159.5,374.175Z" transform="translate(-148.587 -328.789)" fill="#f7b59c"/>
      <path id="Trazado_108283" data-name="Trazado 108283" d="M236.093,374.175s3.608,12.761,3.276,18.857-14.742,14.631-14.742,14.631l-1.884-6.429s5.986-2.549,6.872-7.2-4.315-16.613-4.315-16.613,2.4-.539,5.431-1.371A43.119,43.119,0,0,0,236.093,374.175Z" transform="translate(-169.515 -328.789)" fill="#f7b59c"/>
      <path id="Trazado_108284" data-name="Trazado 108284" d="M213.42,412.658H166.671l-1.06-29.291a1.341,1.341,0,0,1,1.34-1.389H213.14a1.341,1.341,0,0,1,1.341,1.389Z" transform="translate(-151.547 -331.243)" fill="#9999ef"/>
      <g id="Grupo_60540" data-name="Grupo 60540" transform="translate(0 73.09)">
        <path id="Trazado_108285" data-name="Trazado 108285" d="M229.718,435.941a4.554,4.554,0,0,1,3.31-1.238c1.5-.04,5.751.92,7.778.886s4.137-.478,5.3,1.253c1.974,2.936,1.121,5.584-2.2,5.982-1.808.217-3.3-.977-6.174-.693-2.783.276-7.124-.654-8.388-2.642" transform="translate(-171.59 -420.915)" fill="#4c4051"/>
        <path id="Trazado_108286" data-name="Trazado 108286" d="M222.938,434.515a21.606,21.606,0,0,0,3.729.72c1.488.08,4.825-.291,6.333.657,1.633,1.028,1.028,3.811-.007,4.468-1.671,1.061-3.022.512-6.08-.451a19.1,19.1,0,0,0-6.646-.6" transform="translate(-168.737 -420.856)" fill="#f7b59c"/>
        <path id="Trazado_108287" data-name="Trazado 108287" d="M203.85,434.923s-34.661-.625-43.9-1.841a43.644,43.644,0,0,1-10.569-2.591c-4.153-2.473-5.674-8.364-2.848-13.792,1.318-2.532,5.38-2.078,5.946-2.078.144,0,.219.008.219.008,11.236.439,21.475,3.309,33.049,7.935a133.636,133.636,0,0,0,19,6.086C205.362,433.074,203.85,434.923,203.85,434.923Z" transform="translate(-145.095 -414.59)" fill="#0052a3"/>
        <path id="Trazado_108288" data-name="Trazado 108288" d="M242.254,438.61s-.919-.511-1.224.04a8.082,8.082,0,0,0-.313,3.252c.287.648,1.634.415,1.634.415l1.1-2.963Z" transform="translate(-175.149 -422.076)" fill="#4c4051"/>
      </g>
      <g id="Grupo_60541" data-name="Grupo 60541" transform="translate(1.443 73.282)">
        <path id="Trazado_108289" data-name="Trazado 108289" d="M165.294,435.985a4.729,4.729,0,0,0-3.432-1.3c-1.56-.048-5.976.934-8.082.891s-4.176-.5-5.519.916c-2.53,2.665-.175,6.009,3.276,6.436,1.877.232,2.431-.851,5.414-.544,2.889.3,7.4-.652,8.722-2.713" transform="translate(-147.2 -421.102)" fill="#594a5f"/>
        <path id="Trazado_108290" data-name="Trazado 108290" d="M174.271,434.531a22.479,22.479,0,0,1-3.875.734c-1.546.077-5.011-.32-6.58.659-1.7,1.06-1.082,3.954-.01,4.641,1.732,1.108,3.138.544,6.317-.446a19.844,19.844,0,0,1,6.9-.594" transform="translate(-152.093 -421.053)" fill="#f7b59c"/>
        <path id="Trazado_108291" data-name="Trazado 108291" d="M226.672,430.461l-.008.009a42.558,42.558,0,0,1-11.168,2.8c-9.243,1.182-43.913,1.68-43.913,1.68s-1.5-1.866-.877-6.281a133.2,133.2,0,0,0,19.027-6.01c11.329-4.465,21.383-7.294,32.314-7.791,2.139.212,4.613,1.156,6.361,4.82C230.736,424.536,228.934,429.609,226.672,430.461Z" transform="translate(-154.545 -414.87)" fill="#0058c4"/>
        <path id="Trazado_108292" data-name="Trazado 108292" d="M162.137,436.972s1.174-.648,1.562.056a10.307,10.307,0,0,1,.384,4.149c-.369.825-2.085.522-2.085.522l-1.387-3.784Z" transform="translate(-151.417 -421.736)" fill="#594a5f"/>
      </g>
      <path id="Trazado_108293" data-name="Trazado 108293" d="M214.282,316.572s3.211-.326-.43,7.99c-1.372,3.135-1.861,2.927-1.884,3.079a3,3,0,0,1-1.23-1.569c0-.528.053-4.643.106-4.854S214.282,316.572,214.282,316.572Z" transform="translate(-165.739 -310.672)" fill="#2c1e56"/>
      <path id="Trazado_108294" data-name="Trazado 108294" d="M187.5,319.333s-2.485-.692-1.483,4.267a9.768,9.768,0,0,0,2.468,4.9,3,3,0,0,0,1.23-1.569c0-.528-.053-4.643-.106-4.854S187.5,319.333,187.5,319.333Z" transform="translate(-157.89 -311.531)" fill="#2c1e56"/>
      <path id="Trazado_108295" data-name="Trazado 108295" d="M188.639,328.233s-1.054-1.019-1.351.339.806,4.882,2.207,3.524" transform="translate(-158.349 -314.225)" fill="#e5a18c"/>
      <path id="Trazado_108296" data-name="Trazado 108296" d="M212.64,328.233s1.054-1.019,1.351.339-.807,4.882-2.207,3.524" transform="translate(-166.069 -314.225)" fill="#e5a18c"/>
      <path id="Trazado_108297" data-name="Trazado 108297" d="M197.613,336.977h-.082c-.978.059-9.683.143-8.581-15.679h16.584S207.544,336.027,197.613,336.977Z" transform="translate(-158.857 -312.159)" fill="#f7b59c"/>
      <path id="Trazado_108298" data-name="Trazado 108298" d="M201.291,308.237a5.938,5.938,0,0,1,3.6,8c-1.542,3.123-6.508,4.942-12.059,3.761-3.268-.7-4.319-2.01-6.278-1.911a3.451,3.451,0,0,1-3.406-2.257c-.713-1.921-1.133-4.519.858-6.067C189.418,311.322,196.605,306.849,201.291,308.237Z" transform="translate(-156.876 -307.966)" fill="#2c1e56"/>
      <path id="Trazado_108299" data-name="Trazado 108299" d="M202.4,401.61a3.008,3.008,0,1,1-3.009-3.008A3.008,3.008,0,0,1,202.4,401.61Z" transform="translate(-161.225 -336.471)" fill="#d1deff"/>
      <path id="Trazado_108300" data-name="Trazado 108300" d="M195.2,342.228a6.947,6.947,0,0,0,1.24.606,7.253,7.253,0,0,0,2.912.48,8.429,8.429,0,0,0,1.578-.22,9.831,9.831,0,0,0,1.34-.41,10.178,10.178,0,0,0,1.261-.571,5.7,5.7,0,0,1-1.163.788,7.744,7.744,0,0,1-1.342.553,6.994,6.994,0,0,1-1.647.282,6.016,6.016,0,0,1-1.677-.165,6.144,6.144,0,0,1-1.361-.522A4.584,4.584,0,0,1,195.2,342.228Z" transform="translate(-160.853 -318.706)" fill="#eaa18b"/>
      <g id="Grupo_60544" data-name="Grupo 60544" transform="translate(33.721 15.351)">
        <g id="Grupo_60542" data-name="Grupo 60542">
          <path id="Trazado_108301" data-name="Trazado 108301" d="M195.5,330.833c.064.566.113,1.235-.5,1.308a.65.65,0,0,1-.633-.359,2.036,2.036,0,0,1-.075-.807c-.034-.713,1.13-.865,1.212-.143Z" transform="translate(-194.287 -330.361)" fill="#452e17"/>
        </g>
        <g id="Grupo_60543" data-name="Grupo 60543" transform="translate(0.633 0.836)">
          <path id="Trazado_108302" data-name="Trazado 108302" d="M195.5,331.7c.029.146.011.288-.144.338a.122.122,0,0,1-.133-.065c-.039-.081,0-.136-.012-.217a.147.147,0,0,1,.289-.056Z" transform="translate(-195.21 -331.58)" fill="#fff"/>
        </g>
      </g>
      <g id="Grupo_60547" data-name="Grupo 60547" transform="translate(41.33 15.351)">
        <g id="Grupo_60545" data-name="Grupo 60545">
          <path id="Trazado_108303" data-name="Trazado 108303" d="M206.6,330.833c.064.566.113,1.235-.5,1.308a.65.65,0,0,1-.633-.359,2.036,2.036,0,0,1-.075-.807c-.034-.713,1.13-.865,1.212-.143Z" transform="translate(-205.387 -330.361)" fill="#452e17"/>
        </g>
        <g id="Grupo_60546" data-name="Grupo 60546" transform="translate(0.633 0.836)">
          <path id="Trazado_108304" data-name="Trazado 108304" d="M206.6,331.7c.029.146.011.288-.144.338a.122.122,0,0,1-.133-.065c-.039-.081,0-.136-.012-.217a.147.147,0,0,1,.289-.056Z" transform="translate(-206.31 -331.58)" fill="#fff"/>
        </g>
      </g>
      <path id="Trazado_108305" data-name="Trazado 108305" d="M207.085,327.893c.047.138.012.012.042.2s-.165.311-.418.315c-.629.013-2.548.1-2.548.1-.206.034-.175-.11-.1-.184.319-.3.657-.68,2.459-.694C206.775,327.626,207.02,327.705,207.085,327.893Z" transform="translate(-163.622 -314.15)" fill="#003051"/>
      <path id="Trazado_108306" data-name="Trazado 108306" d="M192.974,327.893c-.047.138-.013.012-.042.2s.165.311.418.315c.629.013,2.548.1,2.548.1.206.034.175-.11.1-.184-.319-.3-.658-.68-2.459-.694C193.284,327.626,193.039,327.705,192.974,327.893Z" transform="translate(-160.139 -314.15)" fill="#003051"/>
      <path id="Trazado_108307" data-name="Trazado 108307" d="M200.521,332.584s-.729,1.6-.5,1.913,1.087.328,1.087.328" transform="translate(-162.355 -315.709)" fill="none" stroke="#eaa18b" stroke-linecap="round" stroke-miterlimit="10" stroke-width="0.5"/>
      <path id="Trazado_108308" data-name="Trazado 108308" d="M197.938,339.212a4.241,4.241,0,0,0,4.348-.108" transform="translate(-161.714 -317.759)" fill="none" stroke="#c9806f" stroke-linecap="round" stroke-miterlimit="10" stroke-width="0.5"/>
    </g>
    <g id="Grupo_60554" data-name="Grupo 60554" transform="translate(312.728 190.691)">
      <g id="Grupo_60550" data-name="Grupo 60550" transform="translate(0 60.829)">
        <g id="Grupo_60549" data-name="Grupo 60549" transform="translate(18.614 3.1)">
          <path id="Trazado_108309" data-name="Trazado 108309" d="M457.136,411.584V349.832a.25.25,0,0,0-.25-.25h-1.5a.25.25,0,0,0-.249.25v61.752a.874.874,0,0,0-.687.846.886.886,0,0,0,.886.886h1.6a.886.886,0,0,0,.886-.886A.874.874,0,0,0,457.136,411.584Z" transform="translate(-454.452 -349.582)" fill="#fff"/>
          <path id="Trazado_108310" data-name="Trazado 108310" d="M635.842,411.543h-.051V349.582h-2v61.961h-.051a.637.637,0,0,0-.636.636v.5a.637.637,0,0,0,.636.636h2.1a.637.637,0,0,0,.636-.636v-.5A.637.637,0,0,0,635.842,411.543Z" transform="translate(-510.639 -349.582)" fill="#fff"/>
        </g>
        <path id="Trazado_108311" data-name="Trazado 108311" d="M586.658,348.778h-157.5a1.859,1.859,0,0,1-1.859-1.859h0a1.859,1.859,0,0,1,1.859-1.859h157.5a1.859,1.859,0,0,1,1.859,1.859h0A1.859,1.859,0,0,1,586.658,348.778Z" transform="translate(-427.298 -345.06)" fill="#9999f1"/>
      </g>
      <path id="Trazado_108312" data-name="Trazado 108312" d="M527.467,327.753H482l-9-28.295a2.209,2.209,0,0,1,2.105-2.879h40.825a2.21,2.21,0,0,1,2.106,1.54Z" transform="translate(-441.64 -268.984)" fill="#5146af"/>
      <path id="Trazado_108313" data-name="Trazado 108313" d="M527.244,328.373H484.191l-9.051-28.741a.828.828,0,0,1,.782-1.08h41.248a.934.934,0,0,1,.89.657Z" transform="translate(-442.332 -269.604)" fill="#fff"/>
      <path id="Trazado_108314" data-name="Trazado 108314" d="M502.247,304.586H482.416a.535.535,0,0,1-.535-.535h0a.535.535,0,0,1,.535-.535h19.831a.536.536,0,0,1,.535.535h0A.535.535,0,0,1,502.247,304.586Z" transform="translate(-444.464 -271.165)" fill="#c2e0f2"/>
      <path id="Trazado_108315" data-name="Trazado 108315" d="M505.681,308.194H483.566a.535.535,0,0,1-.535-.535h0a.535.535,0,0,1,.535-.535h22.115a.534.534,0,0,1,.535.535h0A.535.535,0,0,1,505.681,308.194Z" transform="translate(-444.826 -272.3)" fill="#c2e0f2"/>
      <path id="Trazado_108316" data-name="Trazado 108316" d="M504,311.8H484.74a.535.535,0,0,1-.535-.535h0a.536.536,0,0,1,.535-.535H504a.535.535,0,0,1,.535.535h0A.534.534,0,0,1,504,311.8Z" transform="translate(-445.195 -273.434)" fill="#c2e0f2"/>
      <path id="Trazado_108317" data-name="Trazado 108317" d="M501.151,315.409H485.885a.535.535,0,0,1-.535-.535h0a.535.535,0,0,1,.535-.535h15.266a.536.536,0,0,1,.535.535h0A.535.535,0,0,1,501.151,315.409Z" transform="translate(-445.556 -274.569)" fill="#c2e0f2"/>
      <path id="Trazado_108318" data-name="Trazado 108318" d="M509.179,319.017H487.064a.536.536,0,0,1-.535-.535h0a.535.535,0,0,1,.535-.535h22.114a.534.534,0,0,1,.535.535h0A.535.535,0,0,1,509.179,319.017Z" transform="translate(-445.926 -275.704)" fill="#c2e0f2"/>
      <path id="Trazado_108319" data-name="Trazado 108319" d="M507.48,322.624H488.219a.535.535,0,0,1-.535-.535h0a.535.535,0,0,1,.535-.535H507.48a.535.535,0,0,1,.535.535h0A.534.534,0,0,1,507.48,322.624Z" transform="translate(-446.29 -276.838)" fill="#c2e0f2"/>
      <path id="Trazado_108320" data-name="Trazado 108320" d="M512.635,329.839H490.521a.535.535,0,0,1-.535-.535h0a.536.536,0,0,1,.535-.535h22.114a.535.535,0,0,1,.535.535h0A.534.534,0,0,1,512.635,329.839Z" transform="translate(-447.014 -279.107)" fill="#c2e0f2"/>
      <path id="Trazado_108321" data-name="Trazado 108321" d="M513.81,333.447H491.7a.535.535,0,0,1-.535-.535h0a.535.535,0,0,1,.535-.535H513.81a.535.535,0,0,1,.535.535h0A.536.536,0,0,1,513.81,333.447Z" transform="translate(-447.383 -280.242)" fill="#c2e0f2"/>
      <path id="Trazado_108322" data-name="Trazado 108322" d="M534.645,323.89H527.5a1.525,1.525,0,0,1-1.455-1.067l-5.955-18.848a1.526,1.526,0,0,1,1.455-1.986h7.144a1.525,1.525,0,0,1,1.455,1.067L536.1,321.9A1.526,1.526,0,0,1,534.645,323.89Z" transform="translate(-456.459 -270.685)" fill="#c2e0f2"/>
      <path id="Trazado_108323" data-name="Trazado 108323" d="M534.707,343.718H485.268a1.463,1.463,0,0,1-1.463-1.463h0a1.462,1.462,0,0,1,1.463-1.462h49.439a1.462,1.462,0,0,1,1.462,1.462h0A1.462,1.462,0,0,1,534.707,343.718Z" transform="translate(-445.07 -282.889)" fill="#5146af"/>
      <g id="Grupo_60551" data-name="Grupo 60551" transform="translate(92.031 16.249)">
        <path id="Trazado_108324" data-name="Trazado 108324" d="M564.069,286.809a1.085,1.085,0,0,1-.942-.544l-1.433-2.521a1.078,1.078,0,0,1,.434-1.486l3.99-2.107a1.082,1.082,0,0,1,1.451.437l1.361,2.5a1.078,1.078,0,0,1-.433,1.463l-3.918,2.128A1.064,1.064,0,0,1,564.069,286.809Zm2.549-6.285a.573.573,0,0,0-.269.066l-3.99,2.107a.58.58,0,0,0-.234.8h0l1.433,2.521a.583.583,0,0,0,.782.223l3.918-2.128a.58.58,0,0,0,.232-.788l-1.361-2.5A.582.582,0,0,0,566.619,280.524Z" transform="translate(-561.553 -280.027)" fill="#1a1a47"/>
      </g>
      <path id="Trazado_108325" data-name="Trazado 108325" d="M548.888,319.277a8.573,8.573,0,0,1-.576.674,19.952,19.952,0,0,0-3.065-1.987,9.372,9.372,0,0,0-2.9.405c-1.3.267-.762-.8-.762-.8s-.878.308-1.648.62c-.879.356-1.793,1.091-2.058,1.154-.5.12-.995-.13-.525-.833a24.536,24.536,0,0,1,4.588-4.258c1-.474,2.357-1.164,3.447-.759a37.931,37.931,0,0,1,4.639,3.064A4.412,4.412,0,0,1,548.888,319.277Z" transform="translate(-461.852 -274.265)" fill="#f7b59c"/>
      <path id="Trazado_108326" data-name="Trazado 108326" d="M552.893,317.351s11.758,10.284,20.557,11.331,23.636-15.646,23.636-15.646-.934-8.892-6.42-7.847-12.84,14.267-16.027,14.885-19.754-6.4-19.754-6.4a4.3,4.3,0,0,0-1.025,1.263A11.06,11.06,0,0,0,552.893,317.351Z" transform="translate(-466.798 -271.664)" fill="#9ca2f2"/>
      <path id="Trazado_108327" data-name="Trazado 108327" d="M582.035,262.839c-2.8-3.21-6.949-3.555-10.149-3.2a10.6,10.6,0,0,0-9.065,7.346,9.438,9.438,0,0,0,.191,6.051c2.611,7.211,5.385,11.185,7.519,13.138.938.858,2.915-.311,4.9-1.008a.559.559,0,0,1,.682.26l1.134,2.1,8.193-1.672a28.9,28.9,0,0,1-1.729-4.755C584.785,279.74,587.166,268.712,582.035,262.839Z" transform="translate(-469.792 -257.331)" fill="#f7b59c"/>
      <path id="Trazado_108328" data-name="Trazado 108328" d="M565.957,272.121a2.113,2.113,0,0,1,2.144,1.258,14.9,14.9,0,0,0,2.279,4.12.751.751,0,0,0,.811.008.635.635,0,0,0,.371-.629,17.124,17.124,0,0,0-.853-2.874,1.935,1.935,0,0,1,1.453-2.68,3.284,3.284,0,0,1,1.2.074c2.181.662.679,4.081.635,5.868-.032,1.259,1.476,4.178,2.145,4.441a6.851,6.851,0,0,0,7.274-2.094c1.761-2.176,2.145-9.45,1.181-13.8s-4.445-6.808-5.6-7.087a4.067,4.067,0,0,0-1.368-.106,1.268,1.268,0,0,1-.961-.314c-1.16-1.008-4.624-3.314-10.1-.947a12.706,12.706,0,0,0-7.865,12.123c.081,1.859,1.541,1.721,2.553,1.4a1.689,1.689,0,0,1,1.607.348A4.1,4.1,0,0,0,565.957,272.121Z" transform="translate(-468.622 -256.323)" fill="#0b0b3a"/>
      <path id="Trazado_108329" data-name="Trazado 108329" d="M581.754,299.827s-.729-.812-.452-1.308a11.848,11.848,0,0,1,8.394-3.4c.674.024,1.5.024,2.306,1.783a12.694,12.694,0,0,1,1,2.925Z" transform="translate(-475.713 -268.523)" fill="#9ca2f2"/>
      <path id="Trazado_108330" data-name="Trazado 108330" d="M594.457,353.417c-.263.063-.548.125-.845.182a73.372,73.372,0,0,1-9.668.765c-11.8-.211-17.041-6.575-18.958-9.856a12.274,12.274,0,0,1-.942-1.923,10.85,10.85,0,0,0,3.921-5.422c.89-2.928-.046-9.907-1.57-12.567-.839-1.461-3.321-4.423-4.879-7.545-1.279-2.568-1.94-5.245-.542-7.288a26.266,26.266,0,0,1,8.943-7.807s10.044-4.023,18.6-3.11c5.427.57,10.26,3.127,11.551,9.958C603.394,326.4,594.457,353.417,594.457,353.417Z" transform="translate(-469.094 -269.655)" fill="#b0b2ff"/>
      <path id="Trazado_108331" data-name="Trazado 108331" d="M571.743,428.361a3.9,3.9,0,0,1-2.12,1.2,3.761,3.761,0,0,1-2.468-.458l-.656-1.893,4.528-.986Z" transform="translate(-471.077 -309.756)" fill="#f7b59c"/>
      <path id="Trazado_108332" data-name="Trazado 108332" d="M537.24,431.86a3.9,3.9,0,0,1-2.282.844,3.763,3.763,0,0,1-2.364-.844l-.348-1.974h4.646Z" transform="translate(-460.305 -310.909)" fill="#f7b59c"/>
      <path id="Trazado_108333" data-name="Trazado 108333" d="M566.766,410.937c-.3.136-1.2.507-1.526.622a42.262,42.262,0,0,1-4.147,1.07c-3.894-8.415-10.245-29.594-10.245-29.594-.885-3.743,1.78-5.256,4.121-5.4a4.961,4.961,0,0,1,2.157.314c2.237.947,5.518,7.276,5.518,7.276a38.938,38.938,0,0,1,2.043,6.706C565.731,396.446,566.766,410.937,566.766,410.937Z" transform="translate(-466.1 -294.473)" fill="#1a1a47"/>
      <path id="Trazado_108334" data-name="Trazado 108334" d="M566.987,373.88c-.029,2.128-.594,5.524-3.784,6.483-4.759,1.427-8.275.616-13.794-.337-4.622-.793-11.921-3.5-14.158-4.349-.291-.108-.237.037-.18.34,1.056,5.158-.653,33.034-.653,33.034a13.24,13.24,0,0,1-1.575.365,6.414,6.414,0,0,1-.907.08c-1.2,0-3.4-.226-3.4-.226s-4.234-19.634-4.9-30.62,0-12.683,5.208-14.493c5.8-2.017,23.64-1.475,23.64-1.475l.006.005a17.025,17.025,0,0,0,5.022,6.729A21.168,21.168,0,0,0,566.987,373.88Z" transform="translate(-457.528 -289.753)" fill="#3d3d72"/>
      <g id="Grupo_60552" data-name="Grupo 60552" transform="translate(83.196 41.933)">
        <path id="Trazado_108335" data-name="Trazado 108335" d="M593.176,395.34v28.21a1.82,1.82,0,0,1-3.641,0V395.34Z" transform="translate(-561.518 -341.977)" fill="#94c1f7"/>
        <path id="Trazado_108336" data-name="Trazado 108336" d="M593.508,397.13v26.9a1.947,1.947,0,0,1-1.568,1.882,1.821,1.821,0,0,1-1.164-.228l-.184-.343V397.877a.747.747,0,0,1,.747-.747Z" transform="translate(-561.851 -342.54)" fill="#b5d0ff"/>
        <path id="Trazado_108337" data-name="Trazado 108337" d="M594.282,393.238a1.47,1.47,0,0,1-.051.388,1.579,1.579,0,0,1-1.518,1.182h-5.422a1.572,1.572,0,0,1-1.569-1.57,1.578,1.578,0,0,1,1.569-1.569h5.422A1.568,1.568,0,0,1,594.282,393.238Z" transform="translate(-560.319 -340.823)" fill="#94c1f7"/>
        <path id="Trazado_108338" data-name="Trazado 108338" d="M595.058,394.524a1.578,1.578,0,0,1-1.518,1.182h-5.188a1.544,1.544,0,0,1,.406-.725,1.588,1.588,0,0,1,1.113-.457Z" transform="translate(-561.146 -341.72)" fill="#b5d0ff"/>
        <path id="Trazado_108339" data-name="Trazado 108339" d="M601.944,320.693c0,.017-.009.026-.009.043a5.015,5.015,0,0,1-.095.536c-.441,1.841-2,5.446-2.222,10.849-.147,3.32-.009,12.129-.164,17.453v.008c-.026.8-.052,1.5-.086,2.118-.285,4.711-1.893,11.7-6.812,15.232-5,3.751-15.05,3.1-21.153,2.965s-21.222-2.9-22.432-5.143a1.952,1.952,0,0,1-.285-1.3c0-.008,0-.008.009-.017a1.573,1.573,0,0,1,.466-.864,2.355,2.355,0,0,1,2.231-.553c2.464.614,9.794,2.031,13.1-2.152,3.994-5.066,3.492-10.918,5.2-23.253,1.616-11.671,5.256-15.249,11.281-17.574,6.44-2.482,16.788-1.418,19.372-.64A2.211,2.211,0,0,1,601.944,320.693Z" transform="translate(-548.664 -317.495)" fill="#cfe3ff"/>
        <path id="Trazado_108340" data-name="Trazado 108340" d="M603.618,439.74a.669.669,0,0,1-.668.668h-40.9a.667.667,0,0,1-.108-1.324l20.556-3.332,5.171.838,15.38,2.494A.668.668,0,0,1,603.618,439.74Z" transform="translate(-552.665 -354.686)" fill="#b5d0ff"/>
      </g>
      <path id="Trazado_108341" data-name="Trazado 108341" d="M527.707,432.765a7.534,7.534,0,0,0,2.349.487,5.656,5.656,0,0,0,2.312-.487s2.382,3.033,1.117,6.414a.46.46,0,0,1-.43.291H517.079a.358.358,0,0,1-.363-.347,1.336,1.336,0,0,1,1.123-1.318c1.474-.452,3-.7,4.137-1.106s2.78-2.08,3.7-2.39A4.977,4.977,0,0,0,527.707,432.765Z" transform="translate(-455.42 -311.814)" fill="#1a1a47"/>
      <path id="Trazado_108342" data-name="Trazado 108342" d="M562.929,430.081a7.525,7.525,0,0,0,2.4.109,5.657,5.657,0,0,0,2.205-.849s2.834,2.617,2.121,6.156a.459.459,0,0,1-.378.356s-8.429,1.889-11.279,2.3a40.467,40.467,0,0,1-4.493.25.382.382,0,0,1-.413-.3,1.336,1.336,0,0,1,.9-1.48c1.384-.68,2.847-1.168,3.909-1.748s2.414-2.5,3.271-2.947A4.979,4.979,0,0,0,562.929,430.081Z" transform="translate(-466.852 -310.737)" fill="#1a1a47"/>
      <path id="Trazado_108343" data-name="Trazado 108343" d="M514.092,339.939s-1.638-.679-2.494-.982c-.343-.119-.662-.205-.925-.268a4.95,4.95,0,0,0-1.124-.12h-9.308a.489.489,0,0,1-.485-.491,1.061,1.061,0,0,1,.485-.9l1-.644,2.985-1.929a5.855,5.855,0,0,1,4.31-.858,16.122,16.122,0,0,1,1.83.642c1.744.576,2.123.838,3.282,1.249a7.921,7.921,0,0,0,.975.3.959.959,0,0,0,.4.041A5.584,5.584,0,0,1,514.092,339.939Z" transform="translate(-450.086 -280.654)" fill="#f7b59c"/>
      <path id="Trazado_108344" data-name="Trazado 108344" d="M556.91,309.991c-1.22-.744-4.908-2.793-9.664,4.624s-6.214,10.58-7.589,12.885c-1.664,1-18.425.572-18.425.572a15.2,15.2,0,0,0-1.213,4.155,61.084,61.084,0,0,0,20.717,5.261c9.149,0,18.574-17.878,19-20.113S559.826,311.771,556.91,309.991Z" transform="translate(-456.459 -272.94)" fill="#b0b2ff"/>
      <g id="Grupo_60553" data-name="Grupo 60553" transform="translate(92.491 15.374)">
        <path id="Trazado_108345" data-name="Trazado 108345" d="M562.472,284.7a.248.248,0,0,1-.113-.47l9.267-4.75c1.049-.537,3.2-1.637,4.789.7a.249.249,0,1,1-.411.28c-1.242-1.823-2.724-1.27-4.134-.547l-9.285,4.758A.243.243,0,0,1,562.472,284.7Z" transform="translate(-562.223 -278.751)" fill="#1a1a47"/>
      </g>
      <path id="Trazado_108346" data-name="Trazado 108346" d="M575.908,279.718l1.224,3.909a1.242,1.242,0,0,0,1.87-.136c.917-1.056,1.716-4.724.034-5.337A2.211,2.211,0,0,0,575.908,279.718Z" transform="translate(-474.036 -263.126)" fill="#f7b59c"/>
      <path id="Trazado_108347" data-name="Trazado 108347" d="M601.572,319.309a.064.064,0,0,1-.009-.025,2.268,2.268,0,0,0-1.219-.882c-2.584-.778-12.932-1.841-19.372.64-6.025,2.325-9.665,5.9-11.281,17.574-1.712,12.336-1.21,18.188-5.2,23.253-3.3,4.184-10.633,2.766-13.1,2.152a2.355,2.355,0,0,0-2.231.553,1.6,1.6,0,0,0-.475.882,1.952,1.952,0,0,0,.285,1.3c1.21,2.247,16.329,5,22.432,5.143s16.156.786,21.153-2.965c4.919-3.536,6.527-10.52,6.812-15.232.034-.614.06-1.322.086-2.118-.1.433-3.482,9.951-15.378,7.757-11.459-2.113-12.5-14.682-12.09-18.911.054-.459.108-.906.16-1.32.1-.784.733-4.1,1.512-6.993a14.075,14.075,0,0,1,4.509-7,6.746,6.746,0,0,1,1.093-.655c.112-.069.242-.138.372-.208.173-.1.354-.182.562-.277l.6-.259c.147-.06.3-.121.45-.173,9.31-3.682,19.32-1.288,19.977-1.185C601.84,320.46,601.615,319.483,601.572,319.309Z" transform="translate(-465.468 -275.562)" fill="#94c1f7" opacity="0.5"/>
    </g>
    <g id="Grupo_60555" data-name="Grupo 60555" transform="translate(192.315 322.232)">
      <path id="Trazado_108348" data-name="Trazado 108348" d="M255.764,450.931l1.021-2.717s16.2.766,23.885,5.546l-14.619.274Z" transform="translate(-252.937 -448.214)" fill="#e1efff"/>
      <path id="Trazado_108349" data-name="Trazado 108349" d="M317,450.931l-1.021-2.717s-16.2.766-23.885,5.546l14.619.274Z" transform="translate(-264.363 -448.214)" fill="#e1efff"/>
      <path id="Trazado_108350" data-name="Trazado 108350" d="M280.285,454.632c-8.777-3.407-25.743-3.646-25.743-3.646v5.78h51.487v-5.78S289.062,451.225,280.285,454.632Z" transform="translate(-252.552 -449.086)" fill="#cce1ff"/>
      <rect id="Rectángulo_8467" data-name="Rectángulo 8467" width="55.466" height="1.959" transform="translate(0 6.073)" fill="#7878ff"/>
    </g>
    <path id="Trazado_108351" data-name="Trazado 108351" d="M496.918,140.874l4.886-3.2a6.5,6.5,0,0,0,3.515,1.031h23.535a6.539,6.539,0,0,0,6.539-6.54v-7.4a6.539,6.539,0,0,0-6.539-6.539H505.319a6.539,6.539,0,0,0-6.54,6.539v7.4a6.506,6.506,0,0,0,1.124,3.666Zm8.382-6.384a.588.588,0,0,1,.587-.586h22.631a.586.586,0,1,1,0,1.173H505.886A.588.588,0,0,1,505.3,134.49Zm23.218-2.473H516.561a.586.586,0,1,1,0-1.173h11.956a.586.586,0,1,1,0,1.173ZM505.3,128.372a.588.588,0,0,1,.587-.587h22.631a.587.587,0,0,1,0,1.174H505.886A.589.589,0,0,1,505.3,128.372Zm23.218-2.473H511.823a.587.587,0,0,1,0-1.174h16.694a.587.587,0,0,1,0,1.174ZM505.3,122.253a.588.588,0,0,1,.587-.587h22.631a.587.587,0,0,1,0,1.174H505.886A.589.589,0,0,1,505.3,122.253Z" transform="translate(-136.465 -22.198)" fill="#b5d0ff"/>
    <g id="Grupo_60556" data-name="Grupo 60556" transform="translate(120.722 78.227)">
      <path id="Trazado_108352" data-name="Trazado 108352" d="M183.923,237.823H149.959a2.759,2.759,0,0,0-2.759,2.759v104.7a2.759,2.759,0,0,0,2.759,2.759h2.46" transform="translate(-147.2 -138.04)" fill="none" stroke="#9acee2" stroke-linecap="round" stroke-miterlimit="10" stroke-width="1" stroke-dasharray="12 5"/>
      <path id="Trazado_108353" data-name="Trazado 108353" d="M549.1,186.678h65a4.848,4.848,0,0,1,4.848,4.849v84.887a4.848,4.848,0,0,1-4.848,4.848h-7.418" transform="translate(-273.599 -121.955)" fill="none" stroke="#9acee2" stroke-linecap="round" stroke-miterlimit="10" stroke-width="1" stroke-dasharray="12 5"/>
      <path id="Trazado_108354" data-name="Trazado 108354" d="M288.872,92.26H328.03a7.924,7.924,0,0,1,7.924,7.924v37.4" transform="translate(-191.756 -92.26)" fill="none" stroke="#9acee2" stroke-linecap="round" stroke-miterlimit="10" stroke-width="1" stroke-dasharray="12 5"/>
    </g>
    <g id="Grupo_60559" data-name="Grupo 60559" transform="translate(332.029 234.476)">
      <g id="Grupo_60557" data-name="Grupo 60557">
        <path id="Trazado_108355" data-name="Trazado 108355" d="M460.987,330.9a12.64,12.64,0,0,1-5.533-7.887s4.283.887,6.43,7.887" transform="translate(-455.454 -321.08)" fill="#fff"/>
        <path id="Trazado_108356" data-name="Trazado 108356" d="M465.731,330.9a12.64,12.64,0,0,0,5.533-7.887s-4.283.887-6.43,7.887" transform="translate(-458.404 -321.08)" fill="#fff"/>
        <path id="Trazado_108357" data-name="Trazado 108357" d="M463,329.6a12.641,12.641,0,0,1-2.311-9.352s3.674,2.374,3.148,9.677" transform="translate(-457.043 -320.212)" fill="#fff"/>
        <path id="Trazado_108358" data-name="Trazado 108358" d="M465.264,329.6a12.641,12.641,0,0,0,2.089-9.4s-3.616,2.461-2.917,9.749" transform="translate(-458.25 -320.195)" fill="#fff"/>
      </g>
      <g id="Grupo_60558" data-name="Grupo 60558" transform="translate(1.369 8.756)">
        <rect id="Rectángulo_8468" data-name="Rectángulo 8468" width="9.908" height="8.286" fill="#cfe3ff"/>
        <rect id="Rectángulo_8469" data-name="Rectángulo 8469" width="2.947" height="8.286" fill="#94c1f7" opacity="0.5"/>
      </g>
    </g>
    <g id="Grupo_60563" data-name="Grupo 60563" transform="translate(429.558 176.683)">
      <g id="Grupo_60562" data-name="Grupo 60562" opacity="0.5">
        <g id="Grupo_60561" data-name="Grupo 60561">
          <g id="Grupo_60560" data-name="Grupo 60560" transform="translate(0.557 13.484)">
            <path id="Trazado_108359" data-name="Trazado 108359" d="M603.022,258.994l-4.481,2.39,2.241-5.826" transform="translate(-598.541 -255.558)" fill="#389fe5"/>
          </g>
          <path id="Trazado_108360" data-name="Trazado 108360" d="M616.671,245.359a9.472,9.472,0,1,1-9.472-9.471A9.471,9.471,0,0,1,616.671,245.359Z" transform="translate(-597.728 -235.888)" fill="#389fe5"/>
        </g>
      </g>
      <path id="Trazado_108361" data-name="Trazado 108361" d="M605.729,247.575l2.874,3.576,5.1-5.348" transform="translate(-600.244 -239.006)" fill="none" stroke="#fff" stroke-linecap="round" stroke-linejoin="round" stroke-width="1.38"/>
    </g>
    <g id="Grupo_60567" data-name="Grupo 60567" transform="translate(126.814 207.811)">
      <g id="Grupo_60566" data-name="Grupo 60566" transform="translate(0 0)" opacity="0.5">
        <g id="Grupo_60565" data-name="Grupo 60565">
          <g id="Grupo_60564" data-name="Grupo 60564" transform="translate(13.905 13.484)">
            <path id="Trazado_108362" data-name="Trazado 108362" d="M176.371,304.4l4.481,2.39-2.241-5.826" transform="translate(-176.371 -300.968)" fill="#389fe5"/>
          </g>
          <path id="Trazado_108363" data-name="Trazado 108363" d="M156.087,290.769a9.472,9.472,0,1,0,9.472-9.472A9.471,9.471,0,0,0,156.087,290.769Z" transform="translate(-156.087 -281.297)" fill="#389fe5"/>
        </g>
      </g>
      <path id="Trazado_108364" data-name="Trazado 108364" d="M164.088,292.985l2.874,3.576,5.1-5.348" transform="translate(-158.603 -284.416)" fill="none" stroke="#fff" stroke-linecap="round" stroke-linejoin="round" stroke-width="1.38"/>
    </g>
    <g id="Grupo_60570" data-name="Grupo 60570" transform="translate(404.528 96.479)">
      <rect id="Rectángulo_8470" data-name="Rectángulo 8470" width="39.215" height="39.691" rx="1.77" fill="#fff"/>
      <g id="Grupo_60569" data-name="Grupo 60569" transform="translate(7.171 3.781)" opacity="0.5">
        <path id="Trazado_108365" data-name="Trazado 108365" d="M594.324,139.611a11.23,11.23,0,0,1-3.191,7.879.029.029,0,0,1-.016.008,10.4,10.4,0,0,1-.974.9,10.587,10.587,0,0,1-1.615,1.1,10.208,10.208,0,0,1-1.394.657,11.07,11.07,0,0,1-3.445.76q-.344.024-.689.024a11.325,11.325,0,0,1-2.606-22.347l.1-.023a9.644,9.644,0,0,1,1.1-.2,11.67,11.67,0,0,1,1.4-.087,11.32,11.32,0,0,1,9.969,5.955q.19.356.356.736A11.2,11.2,0,0,1,594.324,139.611Z" transform="translate(-571.677 -125.622)" fill="#9999f1"/>
        <g id="Grupo_60568" data-name="Grupo 60568" transform="translate(0.947 2.659)">
          <path id="Trazado_108366" data-name="Trazado 108366" d="M586.283,149.77c.082.568-.61.9-1.167,1.039-.328.082-.661.162-.993.232-.228.016-.46.023-.692.023a11.276,11.276,0,0,1-7.132-2.527,1.85,1.85,0,0,1-.031-.3,5.2,5.2,0,0,1,.243-1.279,5.724,5.724,0,0,0,.151-1.082.549.549,0,0,0-.082-.383.819.819,0,0,0-.3-.166,1.469,1.469,0,0,1-.85-1.685c.55-1.354,2.485-.911,1.21-4.285-.273-.725.3-.91.258-1.111-.108-.448-1.785-.326-2.241-.4a1.577,1.577,0,0,1-.853-.282,1.229,1.229,0,0,1-.294-.468,6.232,6.232,0,0,1-.452-1.9,11.336,11.336,0,0,1,7.87-6.5l.035.367q-.174,1.93-.243,3.86a1.967,1.967,0,0,1-.1.672,1.191,1.191,0,0,1-1.24.638.859.859,0,0,0-.541.015c-.259.151-.2.533-.236.831-.073.514-.529.869-.842,1.283s-.437,1.121.02,1.372c.116.062.263.093.328.2.089.154-.031.348-.182.448a1.818,1.818,0,0,0-.441.286c-.224.267-.062.692.193.927a8.2,8.2,0,0,1,.807.653c.278.34.34.827.645,1.14.742.765,2.268-.035,3.022.723.39.386.39,1.035.734,1.46a3.6,3.6,0,0,0,.834.626,2.692,2.692,0,0,1,1.117,2.021c.05.85-.267,1.847.317,2.465C585.526,149.075,586.206,149.237,586.283,149.77Z" transform="translate(-573.058 -128.412)" fill="#81a8cc" opacity="0.5" style="mix-blend-mode: screen;isolation: isolate"/>
          <path id="Trazado_108367" data-name="Trazado 108367" d="M597.372,134.236a4.307,4.307,0,0,0-.568.047.33.33,0,0,0-.2.088.435.435,0,0,0-.054.328,1.266,1.266,0,0,1-.425.993.412.412,0,0,1-.193.1c-.213.038-.356-.208-.433-.413-.208-.541-.413-1.086-.618-1.631a1.006,1.006,0,0,0-.275-.448c-.251-.193-.633-.108-.9-.278-.324-.2-.487-.762-.858-.668-.3.073-.305.5-.209.8s.213.672-.023.873c-.252.213-.642,0-.835-.267s-.344-.607-.653-.723c-.441-.167-.892.235-1.136.641s-.46.889-.9,1.047a4.246,4.246,0,0,0-.665.173c-.417.232-.4.838-.255,1.295a1.909,1.909,0,0,1,.143,1.387.374.374,0,0,1-.186.2c-.189.069-.371-.1-.494-.259a17.374,17.374,0,0,1-1.777-2.8,1.11,1.11,0,0,1-.166-.618,2.092,2.092,0,0,1,.127-.394,7.263,7.263,0,0,0,.073-1.418c.1-.8.753-1.553.5-2.318a6.589,6.589,0,0,0-.433-.78.712.712,0,0,1,.042-.819,11.148,11.148,0,0,1,1.4-.089A11.315,11.315,0,0,1,597.372,134.236Z" transform="translate(-577.03 -128.282)" fill="#81a8cc" opacity="0.5" style="mix-blend-mode: screen;isolation: isolate"/>
          <path id="Trazado_108368" data-name="Trazado 108368" d="M601.478,142.677a11.33,11.33,0,0,1-2.179,6.684,0,0,0,0,1,0,0,.543.543,0,0,1-.031-.223,1.9,1.9,0,0,1,.151-.8c.081-.151.2-.282.282-.433a2.227,2.227,0,0,0,.128-1.287,1.053,1.053,0,0,0-.22-.657c-.1-.1-.247-.167-.352-.271-.243-.258-.17-.664-.112-1.016s.019-.8-.305-.927a11.233,11.233,0,0,1-1.329,1.534.6.6,0,0,0-.753-.6.843.843,0,0,0-.533.912c-.328.008-.4-.459-.356-.784.077-.553.155-1.105.228-1.658-.359-.154-.622.417-1,.5-.321.069-.622-.252-.657-.58a1.779,1.779,0,0,1,.259-.938c.17-.348.34-.692.51-1.039a2.319,2.319,0,0,1,.916-1.156,2.6,2.6,0,0,1,1.773.062,1.8,1.8,0,0,0,1.719-.221,1.832,1.832,0,0,0,.413-.97c.062-.3.151-.649.433-.773l.027,0A11.2,11.2,0,0,1,601.478,142.677Z" transform="translate(-579.778 -131.349)" fill="#81a8cc" opacity="0.5" style="mix-blend-mode: screen;isolation: isolate"/>
        </g>
        <path id="Trazado_108369" data-name="Trazado 108369" d="M591.632,146.98q-.237.285-.5.546a.029.029,0,0,1-.016.008,10.4,10.4,0,0,1-.974.9,10.587,10.587,0,0,1-1.615,1.1,10.208,10.208,0,0,1-1.394.657,11.07,11.07,0,0,1-3.445.76q-.344.024-.689.024a11.325,11.325,0,0,1-2.606-22.347l.1-.023a9.65,9.65,0,0,1,1.1-.2c.016,0,.04-.008.056-.008a11,11,0,0,0-2.637,3.674,10.881,10.881,0,0,0,9.962,15.243c.221,0,.444-.008.665-.024A10.343,10.343,0,0,0,591.632,146.98Z" transform="translate(-571.677 -125.659)" fill="#9999f1" opacity="0.3" style="mix-blend-mode: multiply;isolation: isolate"/>
        <path id="Trazado_108370" data-name="Trazado 108370" d="M597.041,138.341A13.936,13.936,0,0,0,583.1,124.4a.729.729,0,1,0,0,1.459,12.479,12.479,0,1,1-9.659,20.383.73.73,0,0,0-1.025-.1.728.728,0,0,0-.1,1.026,13.888,13.888,0,0,0,9.928,5.083v2.434h-4.213a.923.923,0,0,0,0,1.846h10.234a.923.923,0,1,0,0-1.846h-4.212v-2.453A13.946,13.946,0,0,0,597.041,138.341Z" transform="translate(-571.826 -124.403)" fill="#7878ff"/>
      </g>
    </g>
    <g id="Grupo_60590" data-name="Grupo 60590" transform="translate(102.769 51.888)">
      <g id="Grupo_60571" data-name="Grupo 60571" transform="translate(115.068 234.599)">
        <path id="Trazado_108371" data-name="Trazado 108371" d="M296.475,399.4A3.817,3.817,0,1,1,292.2,396.1,3.816,3.816,0,0,1,296.475,399.4Z" transform="translate(-288.872 -396.069)" fill="#9999f1"/>
        <path id="Trazado_108372" data-name="Trazado 108372" d="M292.044,401.435l1.678,1.252,1.642-2.946" transform="translate(-289.87 -397.224)" fill="none" stroke="#fff" stroke-linecap="round" stroke-linejoin="round" stroke-width="1.056"/>
      </g>
      <g id="Grupo_60572" data-name="Grupo 60572" transform="translate(125.503 34.464)">
        <path id="Trazado_108373" data-name="Trazado 108373" d="M311.539,106.743a3.817,3.817,0,1,1-4.816-2.439A3.817,3.817,0,0,1,311.539,106.743Z" transform="translate(-304.093 -104.113)" fill="#9999f1"/>
        <path id="Trazado_108374" data-name="Trazado 108374" d="M307.416,109.646l1.882.917,1.064-3.2" transform="translate(-305.138 -105.135)" fill="none" stroke="#fff" stroke-linecap="round" stroke-linejoin="round" stroke-width="1.056"/>
      </g>
      <g id="Grupo_60573" data-name="Grupo 60573" transform="translate(326.602 101.574)">
        <path id="Trazado_108375" data-name="Trazado 108375" d="M609.115,208.28a5.837,5.837,0,1,1-5.393-6.251A5.838,5.838,0,0,1,609.115,208.28Z" transform="translate(-597.456 -202.013)" fill="#9999f1"/>
        <path id="Trazado_108376" data-name="Trazado 108376" d="M602.2,209.956l2.129,2.392,3.366-3.907" transform="translate(-598.949 -204.034)" fill="none" stroke="#fff" stroke-linecap="round" stroke-linejoin="round" stroke-width="1.616"/>
      </g>
      <path id="Trazado_108377" data-name="Trazado 108377" d="M587.05,209.582a1.4,1.4,0,1,1-1.4-1.4A1.4,1.4,0,0,1,587.05,209.582Z" transform="translate(-266.699 -102.378)" fill="#9999f1"/>
      <path id="Trazado_108378" data-name="Trazado 108378" d="M518.1,68.742a1.4,1.4,0,1,1-1.4-1.4A1.4,1.4,0,0,1,518.1,68.742Z" transform="translate(-245.013 -58.083)" fill="#9999f1" opacity="0.3"/>
      <path id="Trazado_108379" data-name="Trazado 108379" d="M183.766,255.085a2.241,2.241,0,1,1-2.24-2.24A2.24,2.24,0,0,1,183.766,255.085Z" transform="translate(-139.338 -116.426)" fill="#9999f1"/>
      <path id="Trazado_108380" data-name="Trazado 108380" d="M679.415,287.614a3.446,3.446,0,1,1-3.446-3.446A3.446,3.446,0,0,1,679.415,287.614Z" transform="translate(-294.463 -126.277)" fill="#9999f1" opacity="0.3"/>
      <path id="Trazado_108381" data-name="Trazado 108381" d="M129.828,218.189a3.446,3.446,0,1,1-3.446-3.445A3.446,3.446,0,0,1,129.828,218.189Z" transform="translate(-121.617 -104.443)" fill="#9999f1" opacity="0.3"/>
      <path id="Trazado_108382" data-name="Trazado 108382" d="M639.237,333.487a2.241,2.241,0,1,1-2.24-2.24A2.24,2.24,0,0,1,639.237,333.487Z" transform="translate(-282.585 -141.083)" fill="#9999f1" opacity="0.3"/>
      <path id="Trazado_108383" data-name="Trazado 108383" d="M384.19,80.194a2.24,2.24,0,1,1-2.24-2.24A2.24,2.24,0,0,1,384.19,80.194Z" transform="translate(-202.373 -61.422)" fill="#9999f1" opacity="0.3"/>
      <path id="Trazado_108384" data-name="Trazado 108384" d="M445.023,63.8a2.241,2.241,0,1,1-2.24-2.24A2.24,2.24,0,0,1,445.023,63.8Z" transform="translate(-221.504 -56.264)" fill="#9999f1" opacity="0.2"/>
      <g id="Grupo_60577" data-name="Grupo 60577" transform="translate(0 79.369)">
        <g id="Grupo_60576" data-name="Grupo 60576">
          <g id="Grupo_60574" data-name="Grupo 60574" transform="translate(1.579)">
            <path id="Trazado_108385" data-name="Trazado 108385" d="M123.762,173.673a.447.447,0,0,1-.447-.448v-3.158a.448.448,0,0,1,.9,0v3.158A.448.448,0,0,1,123.762,173.673Z" transform="translate(-123.315 -169.62)" fill="#9999f1"/>
          </g>
          <g id="Grupo_60575" data-name="Grupo 60575" transform="translate(0 1.579)">
            <path id="Trazado_108386" data-name="Trazado 108386" d="M124.617,172.818h-3.159a.448.448,0,1,1,0-.9h3.159a.448.448,0,1,1,0,.9Z" transform="translate(-121.011 -171.923)" fill="#9999f1"/>
          </g>
        </g>
      </g>
      <g id="Grupo_60581" data-name="Grupo 60581" transform="translate(24.781)" opacity="0.3">
        <g id="Grupo_60580" data-name="Grupo 60580">
          <g id="Grupo_60578" data-name="Grupo 60578" transform="translate(1.579)">
            <path id="Trazado_108387" data-name="Trazado 108387" d="M159.912,57.89a.448.448,0,0,1-.448-.448V54.285a.448.448,0,0,1,.9,0v3.158A.448.448,0,0,1,159.912,57.89Z" transform="translate(-159.464 -53.837)" fill="#9999f1"/>
          </g>
          <g id="Grupo_60579" data-name="Grupo 60579" transform="translate(0 1.579)">
            <path id="Trazado_108388" data-name="Trazado 108388" d="M160.767,57.035h-3.159a.448.448,0,1,1,0-.9h3.159a.448.448,0,1,1,0,.9Z" transform="translate(-157.161 -56.14)" fill="#9999f1"/>
          </g>
        </g>
      </g>
      <g id="Grupo_60585" data-name="Grupo 60585" transform="translate(287.539 37.798)">
        <g id="Grupo_60584" data-name="Grupo 60584">
          <g id="Grupo_60582" data-name="Grupo 60582" transform="translate(1.579)">
            <path id="Trazado_108389" data-name="Trazado 108389" d="M543.222,113.029a.448.448,0,0,1-.448-.448v-3.158a.448.448,0,1,1,.9,0v3.158A.448.448,0,0,1,543.222,113.029Z" transform="translate(-542.774 -108.976)" fill="#9999f1"/>
          </g>
          <g id="Grupo_60583" data-name="Grupo 60583" transform="translate(0 1.579)">
            <path id="Trazado_108390" data-name="Trazado 108390" d="M544.077,112.174h-3.158a.448.448,0,1,1,0-.9h3.158a.448.448,0,1,1,0,.9Z" transform="translate(-540.471 -111.279)" fill="#9999f1"/>
          </g>
        </g>
      </g>
      <g id="Grupo_60589" data-name="Grupo 60589" transform="translate(384.952 204.519)">
        <g id="Grupo_60588" data-name="Grupo 60588">
          <g id="Grupo_60586" data-name="Grupo 60586" transform="translate(1.579)">
            <path id="Trazado_108391" data-name="Trazado 108391" d="M685.328,356.241a.448.448,0,0,1-.448-.448v-3.159a.448.448,0,0,1,.9,0v3.159A.448.448,0,0,1,685.328,356.241Z" transform="translate(-684.88 -352.188)" fill="#9999f1"/>
          </g>
          <g id="Grupo_60587" data-name="Grupo 60587" transform="translate(0 1.579)">
            <path id="Trazado_108392" data-name="Trazado 108392" d="M686.183,355.386h-3.158a.448.448,0,1,1,0-.9h3.158a.448.448,0,1,1,0,.9Z" transform="translate(-682.577 -354.491)" fill="#9999f1"/>
          </g>
        </g>
      </g>
    </g>
    <g id="Grupo_60592" data-name="Grupo 60592" transform="translate(359.086 133.418)">
      <g id="Grupo_60591" data-name="Grupo 60591" transform="translate(0 0)">
        <path id="Trazado_108393" data-name="Trazado 108393" d="M520.215,173.5v24.086a.736.736,0,0,1-.736.737H495.652a.734.734,0,0,1-.728-.737V173.5a.733.733,0,0,1,.728-.728h23.827A.734.734,0,0,1,520.215,173.5Z" transform="translate(-494.924 -172.773)" fill="#fff"/>
        <path id="Trazado_108394" data-name="Trazado 108394" d="M526.059,199.565v4.514a.736.736,0,0,1-.736.737H513.5l.5-5.251,5.563-6.152Z" transform="translate(-500.767 -179.264)" fill="#9999f1"/>
        <path id="Trazado_108395" data-name="Trazado 108395" d="M516.906,203.633H495.652a.734.734,0,0,1-.728-.737v-4.514l8.318-8.728Z" transform="translate(-494.924 -178.082)" fill="#8787dd"/>
        <path id="Trazado_108396" data-name="Trazado 108396" d="M524.248,181.511a2.932,2.932,0,1,1-2.932-2.933A2.932,2.932,0,0,1,524.248,181.511Z" transform="translate(-502.302 -174.599)" fill="#9999f1"/>
      </g>
      <rect id="Rectángulo_8471" data-name="Rectángulo 8471" width="25.291" height="2.233" rx="0.791" transform="translate(0 27.449)" fill="#fff"/>
      <rect id="Rectángulo_8472" data-name="Rectángulo 8472" width="25.291" height="2.233" rx="0.791" transform="translate(0 31.431)" fill="#fff"/>
    </g>
  </g>
</svg>
