<svg xmlns="http://www.w3.org/2000/svg" xmlns:xlink="http://www.w3.org/1999/xlink" width="500" height="306.915" viewBox="0 0 500 306.915">
  <defs>
    <linearGradient id="linear-gradient" x1="0.512" y1="0.768" x2="0.477" y2="0.011" gradientUnits="objectBoundingBox">
      <stop offset="0" stop-color="#2a66c6"/>
      <stop offset="1" stop-color="#79c3f0"/>
    </linearGradient>
    <linearGradient id="linear-gradient-2" x1="0.999" y1="1.033" x2="-0.022" y2="-0.016" xlink:href="#linear-gradient"/>
    <linearGradient id="linear-gradient-3" x1="0.191" y1="0.69" x2="1.375" y2="-0.037" gradientUnits="objectBoundingBox">
      <stop offset="0" stop-color="#6bbeff"/>
      <stop offset="1" stop-color="#0c3aa1"/>
    </linearGradient>
    <linearGradient id="linear-gradient-4" x1="0.787" y1="0.177" x2="-0.06" y2="1.131" xlink:href="#linear-gradient-3"/>
    <linearGradient id="linear-gradient-5" x1="0.72" y1="-0.311" x2="0.648" y2="1.068" xlink:href="#linear-gradient-3"/>
    <linearGradient id="linear-gradient-6" x1="1.44" y1="-2.826" x2="1.135" y2="2.966" xlink:href="#linear-gradient-3"/>
    <clipPath id="clip-path">
      <path id="Trazado_107148" data-name="Trazado 107148" d="M1337.322,547.078c14.339,0,33.177-5.395,39-7.172a1.345,1.345,0,0,1,1.79,1.183v39.883c0,30.818-40.162,55.8-40.162,55.8s-40.162-24.983-40.162-55.8V542.938a1.339,1.339,0,0,1,1.7-1.207C1305.025,543.058,1322.988,547.077,1337.322,547.078Z" transform="translate(-1297.784 -539.84)" fill="none"/>
    </clipPath>
    <linearGradient id="linear-gradient-7" x1="8.39" y1="-0.442" x2="4.37" y2="1.632" gradientUnits="objectBoundingBox">
      <stop offset="0" stop-color="#fff"/>
      <stop offset="1"/>
    </linearGradient>
    <linearGradient id="linear-gradient-8" x1="3.738" y1="-0.256" x2="1.774" y2="1.172" xlink:href="#linear-gradient-7"/>
    <linearGradient id="linear-gradient-9" x1="0.788" y1="-0.073" x2="0.167" y2="1.013" gradientUnits="objectBoundingBox">
      <stop offset="0" stop-color="#ffc34e"/>
      <stop offset="1" stop-color="#fb8627"/>
    </linearGradient>
    <linearGradient id="linear-gradient-10" x1="0.751" y1="-0.158" x2="0.312" y2="1.244" xlink:href="#linear-gradient-9"/>
    <linearGradient id="linear-gradient-11" x1="0.878" y1="-0.356" x2="0.2" y2="1.022" gradientUnits="objectBoundingBox">
      <stop offset="0" stop-color="#8fd4ff"/>
      <stop offset="1" stop-color="#1355bf"/>
    </linearGradient>
    <linearGradient id="linear-gradient-12" x1="-0.336" y1="0.09" x2="1.236" y2="1.109" xlink:href="#linear-gradient-9"/>
    <linearGradient id="linear-gradient-13" x1="0.208" y1="0.285" x2="0.635" y2="0.751" xlink:href="#linear-gradient-9"/>
    <linearGradient id="linear-gradient-14" x1="-0.083" y1="1.062" x2="1.267" y2="0.127" xlink:href="#linear-gradient-9"/>
  </defs>
  <g id="Grupo_60239" data-name="Grupo 60239" transform="translate(-243.438 -188.686)">
    <g id="Grupo_60235" data-name="Grupo 60235" transform="translate(243.438 188.686)">
      <path id="Trazado_107120" data-name="Trazado 107120" d="M284.322,478.941s-57.982-73.185-33.537-69.7,44.51,37.086,44.51,37.086S272.1,356.4,279.605,352.23s5.789-12.264-1.892-33.17,21.432-7.336,25.065,7.319,14.994,53.328,28.174,63.163,19.862,16.926,19.862,16.926L433.362,333.8s25.69-28.5,40.806-33.045-10.97,25.973-8.853,28.211,51.139-61.252,64.818-48.721-29.073,47.847-29.073,47.847l112.7,5.708s49.929-.634,56.889-12.516S688.8,309.4,695.454,309.4s26.574,5.616,10.677,14.758-16.64,10.785-13.67,23.319-12.419,36.25-30.082,44.5-41.5,37.759-41.5,37.759l.858,28.214s82.62-57.033,93-44.445-44.09,48.734-44.09,48.734.493,17.356-4.069,29.969-23.713,13.118-35.371,19.189,50.789-2.666,58.246-20.437,60.91-35.187,53.486-15.584-13.985,30.18-13.985,30.18,19.85,2.3,14.69,14.842S690.8,540.87,674.186,541.12s-306.106-1.91-306.106-1.91Z" transform="translate(-244.506 -260.715)" fill="#fff1db"/>
      <path id="Trazado_107121" data-name="Trazado 107121" d="M959.054,1359.224l5.856,40.175,224.1,5.8,5.534-47.119Z" transform="translate(-816.678 -1125.424)" fill="#1b45a1"/>
      <g id="Grupo_60177" data-name="Grupo 60177" transform="translate(0 100.139)">
        <path id="Trazado_107122" data-name="Trazado 107122" d="M528.424,868.752s-10.537-107.026-67.633-139.79-60.015-36.955-60.015-36.955-3.235,75.977,34.965,122.678,78.789,56.092,78.789,56.092Z" transform="translate(-369.418 -692.007)" fill="url(#linear-gradient)"/>
        <path id="Trazado_107123" data-name="Trazado 107123" d="M380.381,1304.108s-15.841-58.517-63.056-68.885-73.887,3.013-73.887,3.013,25,70.42,61.644,74.508C346.379,1317.349,380.381,1304.108,380.381,1304.108Z" transform="translate(-243.438 -1123.992)" fill="url(#linear-gradient-2)"/>
        <g id="Grupo_60171" data-name="Grupo 60171" transform="translate(9.53 119.646)">
          <path id="Trazado_107124" data-name="Trazado 107124" d="M421.665,1354.266a.841.841,0,0,1-.579-.23,261.726,261.726,0,0,0-38.816-28.756c-21.587-13.21-54.743-29.176-90.11-30.217a.844.844,0,0,1,.05-1.688c15.8.465,32.465,3.882,49.544,10.157a235.425,235.425,0,0,1,41.432,20.328,263.436,263.436,0,0,1,39.06,28.947.844.844,0,0,1-.579,1.458Z" transform="translate(-291.34 -1293.376)" fill="#65ace4"/>
        </g>
        <g id="Grupo_60172" data-name="Grupo 60172" transform="translate(41.181 20.084)">
          <path id="Trazado_107125" data-name="Trazado 107125" d="M554.781,947.55a.845.845,0,0,1-.8-.562,637.587,637.587,0,0,0-30.242-68.533c-10.8-21.1-26.88-35.976-42.435-50.36-12.008-11.1-23.349-21.592-30.76-33.861a.844.844,0,1,1,1.445-.873c7.287,12.064,18.543,22.473,30.461,33.494,15.663,14.484,31.86,29.462,42.792,50.831a639.34,639.34,0,0,1,30.331,68.737.845.845,0,0,1-.8,1.127Z" transform="translate(-450.426 -792.953)" fill="#65ace4"/>
        </g>
        <g id="Grupo_60173" data-name="Grupo 60173" transform="translate(26.999 135.588)">
          <path id="Trazado_107126" data-name="Trazado 107126" d="M379.987,1387.245a.844.844,0,0,1-.429-1.572,89.365,89.365,0,0,1,32.471-11.368,65.7,65.7,0,0,1,14.346-.667.844.844,0,0,1-.166,1.68,65.464,65.464,0,0,0-14,.667,87.682,87.682,0,0,0-31.793,11.144A.841.841,0,0,1,379.987,1387.245Z" transform="translate(-379.142 -1373.506)" fill="#65ace4"/>
        </g>
        <g id="Grupo_60174" data-name="Grupo 60174" transform="translate(49.435 148.833)">
          <path id="Trazado_107127" data-name="Trazado 107127" d="M492.754,1463.051a.844.844,0,0,1-.589-1.449,71.4,71.4,0,0,1,13-9.361,95.657,95.657,0,0,1,36.207-12.158.844.844,0,0,1,.2,1.676,93.946,93.946,0,0,0-35.562,11.941,71,71,0,0,0-12.671,9.111A.842.842,0,0,1,492.754,1463.051Z" transform="translate(-491.909 -1440.078)" fill="#65ace4"/>
        </g>
        <g id="Grupo_60175" data-name="Grupo 60175" transform="translate(42.974 64.048)">
          <path id="Trazado_107128" data-name="Trazado 107128" d="M496.9,1023.592c-1.207,0-2.5-.026-3.872-.086a89.415,89.415,0,0,1-33.105-7.965.844.844,0,1,1,.706-1.534,87.707,87.707,0,0,0,32.473,7.812,68.539,68.539,0,0,0,14.039-.645.844.844,0,1,1,.31,1.66A62.652,62.652,0,0,1,496.9,1023.592Z" transform="translate(-459.436 -1013.93)" fill="#65ace4"/>
        </g>
        <g id="Grupo_60176" data-name="Grupo 60176" transform="translate(60.541 97.727)">
          <path id="Trazado_107129" data-name="Trazado 107129" d="M581.017,1189.154a139.041,139.041,0,0,1-32.639-4.281.844.844,0,1,1,.4-1.641c17.633,4.28,30.5,4.56,38.184,4.041,8.322-.562,12.532-2.155,12.574-2.171a.844.844,0,0,1,.611,1.574c-.176.068-4.419,1.685-12.957,2.274C585.4,1189.073,583.344,1189.154,581.017,1189.154Z" transform="translate(-547.732 -1183.208)" fill="#65ace4"/>
        </g>
      </g>
      <path id="Trazado_107130" data-name="Trazado 107130" d="M759.441,1518.945c-4.82-1.907-10.517-3.97-16.5-6.188-28.537-10.581-114.63-22.406-183.291-17.77-18.916,1.278-72.9,7.98-99.135,8.3-28.9.347-14.274,13.146-85.139,15.836s-38.395,9.858-9.4,16.887c19.11,4.633,73.723,3.159,129.316,1.615-1.659.217-1.467.223.977-.027,8.82-.245,17.66-.491,26.382-.713,32.455.385,79.575,3.506,114.444,3.793,46.382.382,137.539,2.812,145.569-7.909C786.72,1527.351,775.708,1522.478,759.441,1518.945Z" transform="translate(-314.981 -1234.261)" fill="#111e61"/>
      <path id="Trazado_107131" data-name="Trazado 107131" d="M592.777,379.593a50.684,50.684,0,0,0,.316-5.63c0-1-.033-2-.091-2.991l-9.3-3.01a40.886,40.886,0,0,0-3.294-11.147l6.169-7.591a50.272,50.272,0,0,0-4.887-7.1l-9.3,3.036a41.339,41.339,0,0,0-9.211-7.08l.529-9.776a49.767,49.767,0,0,0-8.122-2.879l-5.746,7.929a41.379,41.379,0,0,0-11.615-.3l-5.319-8.222a49.778,49.778,0,0,0-8.264,2.442l.012,9.79a41.275,41.275,0,0,0-9.573,6.585l-9.128-3.522a50.343,50.343,0,0,0-5.257,6.835l5.761,7.908a40.886,40.886,0,0,0-3.884,10.956l-9.449,2.514a50.691,50.691,0,0,0-.317,5.63c0,1,.033,2,.091,2.991l9.3,3.01a40.892,40.892,0,0,0,3.294,11.147l-6.169,7.591a50.263,50.263,0,0,0,4.887,7.1l9.305-3.036a41.344,41.344,0,0,0,9.211,7.08l-.529,9.776a49.812,49.812,0,0,0,8.122,2.879l5.746-7.929a41.374,41.374,0,0,0,11.615.3l5.319,8.222a49.735,49.735,0,0,0,8.264-2.442l-.012-9.79a41.266,41.266,0,0,0,9.573-6.585l9.128,3.522a50.339,50.339,0,0,0,5.257-6.835l-5.76-7.908a40.9,40.9,0,0,0,3.884-10.956Zm-49.831,14.038a19.669,19.669,0,1,1,19.669-19.669A19.669,19.669,0,0,1,542.946,393.632Z" transform="translate(-443.186 -297.738)" fill="url(#linear-gradient-3)"/>
      <g id="Grupo_60181" data-name="Grupo 60181" transform="translate(348.808 166.982)">
        <path id="Trazado_107132" data-name="Trazado 107132" d="M2109.927,1123.034a62.254,62.254,0,0,0,3.447-6.018c.553-1.1,1.065-2.219,1.546-3.34l-8.574-8.431a50.307,50.307,0,0,0,2.512-14.072l10.962-4.952a61.779,61.779,0,0,0-1.464-10.5l-11.9-1.783a50.839,50.839,0,0,0-6.232-12.856l5.963-10.46a61.156,61.156,0,0,0-7.348-7.636l-10.682,5.557a50.866,50.866,0,0,0-12.606-6.728l-1.324-11.97a61.2,61.2,0,0,0-10.433-1.863l-5.375,10.773a50.76,50.76,0,0,0-14.152,1.972l-8.1-8.9a61.944,61.944,0,0,0-9.543,4.623l1.982,11.868a50.277,50.277,0,0,0-10.3,9.911l-11.775-2.436a62.412,62.412,0,0,0-3.447,6.018c-.553,1.1-1.065,2.219-1.546,3.34l8.574,8.431a50.283,50.283,0,0,0-2.513,14.072l-10.962,4.952a61.785,61.785,0,0,0,1.464,10.5l11.9,1.783a50.845,50.845,0,0,0,6.233,12.856l-5.963,10.459a61.188,61.188,0,0,0,7.348,7.636l10.683-5.557a50.878,50.878,0,0,0,12.606,6.728l1.324,11.97a61.2,61.2,0,0,0,10.433,1.863l5.375-10.773a50.756,50.756,0,0,0,14.152-1.973l8.1,8.9a61.924,61.924,0,0,0,9.543-4.623l-1.982-11.868a50.292,50.292,0,0,0,10.3-9.911Zm-62.527-11.99a24.188,24.188,0,1,1,32.456-10.8A24.187,24.187,0,0,1,2047.4,1111.044Z" transform="translate(-1996.632 -1027.981)" fill="url(#linear-gradient-4)"/>
        <g id="Grupo_60178" data-name="Grupo 60178" transform="translate(78.159 66.337)">
          <path id="Trazado_107133" data-name="Trazado 107133" d="M2390.472,1396.126a.995.995,0,0,1-.4-1.906,40.835,40.835,0,0,0,24.035-31.948.995.995,0,0,1,1.972.263,42.822,42.822,0,0,1-25.209,33.508A.987.987,0,0,1,2390.472,1396.126Z" transform="translate(-2389.476 -1361.409)" fill="#fff"/>
        </g>
        <g id="Grupo_60179" data-name="Grupo 60179" transform="translate(91.689 32.092)">
          <path id="Trazado_107134" data-name="Trazado 107134" d="M2467.367,1205.625a.994.994,0,0,1-.934-.652,40.53,40.53,0,0,0-8.679-14.013.995.995,0,1,1,1.444-1.368,42.5,42.5,0,0,1,9.1,14.7,1,1,0,0,1-.934,1.338Z" transform="translate(-2457.481 -1189.281)" fill="#fff"/>
        </g>
        <g id="Grupo_60180" data-name="Grupo 60180" transform="translate(70.332 20.033)">
          <path id="Trazado_107135" data-name="Trazado 107135" d="M2360.867,1134.116a1,1,0,0,1-.444-.105,40.905,40.905,0,0,0-9.5-3.373.995.995,0,0,1,.428-1.943,42.908,42.908,0,0,1,9.966,3.536.995.995,0,0,1-.446,1.885Z" transform="translate(-2350.139 -1128.671)" fill="#fff"/>
        </g>
      </g>
      <path id="Trazado_107136" data-name="Trazado 107136" d="M2115.418,805.612a39.2,39.2,0,0,0,4.222,1.109c.762.155,1.523.284,2.283.392l3.719-6.592a31.649,31.649,0,0,0,8.964-.778l4.805,5.851a38.847,38.847,0,0,0,6.143-2.61l-.867-7.526a32,32,0,0,0,6.792-5.894l7.334,1.91a38.569,38.569,0,0,0,3.437-5.717l-5.127-5.582a32.017,32.017,0,0,0,2.023-8.764l7.058-2.766a38.518,38.518,0,0,0-.577-6.646l-7.428-1.5a31.942,31.942,0,0,0-3.517-8.278l4.081-6.38a38.95,38.95,0,0,0-4.374-5.042l-6.887,3.149a31.666,31.666,0,0,0-7.711-4.637l-.449-7.555a39.227,39.227,0,0,0-4.221-1.109c-.763-.155-1.524-.284-2.283-.393l-3.719,6.593a31.653,31.653,0,0,0-8.963.778l-4.806-5.851a38.883,38.883,0,0,0-6.142,2.61l.867,7.526a31.986,31.986,0,0,0-6.792,5.894l-7.334-1.91a38.512,38.512,0,0,0-3.437,5.717l5.127,5.582a32.014,32.014,0,0,0-2.024,8.764l-7.058,2.766a38.5,38.5,0,0,0,.577,6.646l7.427,1.5a31.95,31.95,0,0,0,3.518,8.278l-4.081,6.38a38.956,38.956,0,0,0,4.373,5.042l6.887-3.149a31.689,31.689,0,0,0,7.712,4.637Zm-2.958-39.965a15.225,15.225,0,1,1,11.884,17.955A15.224,15.224,0,0,1,2112.46,765.647Z" transform="translate(-1721.458 -622.504)" fill="url(#linear-gradient-5)"/>
      <circle id="Elipse_4171" data-name="Elipse 4171" cx="9.151" cy="9.151" r="9.151" transform="matrix(0.529, -0.849, 0.849, 0.529, 393.091, 147.606)" fill="url(#linear-gradient-6)"/>
      <g id="Grupo_60184" data-name="Grupo 60184" transform="translate(99.153 58.345)">
        <path id="Trazado_107137" data-name="Trazado 107137" d="M1184.882,1399.735v-41.653h-96.488v41.653h-31.372a10.545,10.545,0,0,0-10.545,10.545v2.563a3.428,3.428,0,0,0,3.428,3.428H1223.37a3.428,3.428,0,0,0,3.428-3.428v-2.563a10.545,10.545,0,0,0-10.545-10.545Z" transform="translate(-985.861 -1183.769)" fill="#3b77d9"/>
        <g id="Grupo_60182" data-name="Grupo 60182" transform="translate(102.533 177.881)">
          <path id="Trazado_107138" data-name="Trazado 107138" d="M1257.162,1401l96.488-7.439v-17.545l-96.488,1.022Z" transform="translate(-1257.162 -1376.018)" fill="#1f57b5"/>
          <path id="Trazado_107139" data-name="Trazado 107139" d="M1353.65,1533.117l-96.488,6.829h96.488Z" transform="translate(-1257.162 -1501.861)" fill="#1f57b5"/>
        </g>
        <g id="Grupo_60183" data-name="Grupo 60183">
          <path id="Rectángulo_8264" data-name="Rectángulo 8264" d="M25.965,0H275.589a25.964,25.964,0,0,1,25.964,25.964v131.9a25.964,25.964,0,0,1-25.964,25.964H25.964A25.964,25.964,0,0,1,0,157.867V25.965A25.965,25.965,0,0,1,25.965,0Z" fill="#153f9c"/>
          <rect id="Rectángulo_8265" data-name="Rectángulo 8265" width="284.606" height="157.732" rx="23.365" transform="translate(8.474 7.494)" fill="#9dd2f2"/>
        </g>
        <path id="Rectángulo_8266" data-name="Rectángulo 8266" d="M2.427,0H22.878A2.427,2.427,0,0,1,25.3,2.427v0a2.427,2.427,0,0,1-2.427,2.427H2.427A2.427,2.427,0,0,1,0,2.427v0A2.427,2.427,0,0,1,2.427,0Z" transform="translate(138.124 173.028)" fill="#2a66c6"/>
        <path id="Rectángulo_8267" data-name="Rectángulo 8267" d="M2.5,0H68.115a2.5,2.5,0,0,1,2.5,2.5v0a2.5,2.5,0,0,1-2.5,2.5H2.5A2.5,2.5,0,0,1,0,2.5v0A2.5,2.5,0,0,1,2.5,0Z" transform="translate(163.429 218.929)" fill="#79c3f0"/>
      </g>
      <path id="Trazado_107140" data-name="Trazado 107140" d="M1345.379,563.642c15.088,0,34.912-5.677,41.035-7.547a1.416,1.416,0,0,1,1.883,1.245v41.969c0,32.43-42.262,58.719-42.262,58.719s-42.262-26.29-42.262-58.719V559.287a1.408,1.408,0,0,1,1.792-1.27C1311.393,559.413,1330.295,563.642,1345.379,563.642Z" transform="translate(-1092.813 -482.942)" fill="#99a8c2" opacity="0.3" style="mix-blend-mode: multiply;isolation: isolate"/>
      <g id="Grupo_60188" data-name="Grupo 60188" transform="translate(209.768 69.864)">
        <path id="Trazado_107141" data-name="Trazado 107141" d="M1337.322,547.078c14.339,0,33.177-5.395,39-7.172a1.345,1.345,0,0,1,1.79,1.183v39.883c0,30.818-40.162,55.8-40.162,55.8s-40.162-24.983-40.162-55.8V542.938a1.339,1.339,0,0,1,1.7-1.207C1305.025,543.058,1322.988,547.077,1337.322,547.078Z" transform="translate(-1297.784 -539.84)" fill="#1b45a1"/>
        <path id="Trazado_107142" data-name="Trazado 107142" d="M1358.238,582.776c10.757,0,24.131-3.528,30.849-6.311a3.017,3.017,0,0,1,4.274,2.529v32c0,26.951-35.122,48.8-35.122,48.8s-35.122-21.848-35.122-48.8V580.386a3,3,0,0,1,4.085-2.6A112.868,112.868,0,0,0,1358.238,582.776Z" transform="translate(-1318.076 -568.978)" fill="#316ccc"/>
        <path id="Trazado_107143" data-name="Trazado 107143" d="M1389.047,631.134v59.824s-27.933-17.8-27.933-38.949V627.766a2.185,2.185,0,0,1,2.983-1.887C1369.313,627.691,1380.366,631.134,1389.047,631.134Z" transform="translate(-1348.514 -608.654)" fill="#79c3f0"/>
        <path id="Trazado_107144" data-name="Trazado 107144" d="M1501.512,630.9v59.824s28.93-17.8,28.93-38.949v-24.3a2.181,2.181,0,0,0-2.947-1.9C1522.082,627.374,1510.3,630.9,1501.512,630.9Z" transform="translate(-1460.979 -608.425)" fill="#79c3f0"/>
        <path id="Trazado_107145" data-name="Trazado 107145" d="M1444.32,687.139c.435.313.85.64,1.259.971s.813.659,1.2,1.025.775.723,1.154,1.1c.188.187.384.371.564.561l.54.575c.362.383.714.774,1.064,1.168s.674.806,1.012,1.211.653.825.973,1.243q.241.313.474.632c.156.212.315.422.462.64.3.432.6.868.891,1.305s.567.888.845,1.336.543.9.805,1.363l.387.691c.127.232.246.468.367.7s.245.469.36.707l.338.72c.224.48.433.97.633,1.464s.389.995.566,1.506c.089.255.174.511.257.776.041.133.084.258.124.4l.128.439-5.536-.333c.113-.207.208-.378.316-.561l.316-.535c.212-.354.422-.706.638-1.055l1.3-2.077,2.619-4.121q1.321-2.049,2.728-4.041c.933-1.331,1.915-2.629,2.914-3.912s2.045-2.533,3.125-3.752,2.2-2.405,3.359-3.548a48.48,48.48,0,0,1,3.652-3.247c.633-.512,1.288-1,1.958-1.459s1.353-.9,2.057-1.3a.3.3,0,0,1,.344.488q-.906.776-1.75,1.6c-.563.553-1.1,1.126-1.633,1.709s-1.042,1.179-1.538,1.79-.98,1.231-1.457,1.856c-.949,1.253-1.85,2.543-2.714,3.857-.429.659-.857,1.319-1.274,1.985s-.824,1.34-1.225,2.016c-.809,1.349-1.577,2.722-2.34,4.1s-1.492,2.769-2.209,4.167c-.357.7-.71,1.4-1.051,2.11s-.665,1.424-.977,2.146-.615,1.445-.908,2.17l-.436,1.085-.414,1.058-2.54,6.5-3-6.828-1.13-2.575c-.1-.221-.2-.444-.291-.667s-.2-.444-.293-.669l-.577-1.347-2.3-5.454c-.19-.46-.4-.911-.586-1.374l-.289-.693-.3-.689c-.193-.463-.4-.922-.584-1.392s-.4-.924-.593-1.4-.384-.945-.582-1.409-.386-.942-.575-1.422-.393-.966-.58-1.457-.374-.987-.539-1.5a.314.314,0,0,1,.482-.352Z" transform="translate(-1414.767 -650.261)" fill="#2a66c6"/>
        <g id="Grupo_60187" data-name="Grupo 60187">
          <g id="Grupo_60186" data-name="Grupo 60186" clip-path="url(#clip-path)">
            <g id="Grupo_60185" data-name="Grupo 60185" transform="translate(-5.035 -3.019)" style="mix-blend-mode: overlay;isolation: isolate">
              <path id="Trazado_107146" data-name="Trazado 107146" d="M1288.567,630.313c3.706,12.086,5.806,31.164,6.789,42.444-10.357-9.655-20.64-21.046-21.158-27-.648-7.444-1.918-28.912-1.7-43.834C1276.781,607.012,1284.656,617.559,1288.567,630.313Z" transform="translate(-1272.475 -586.553)" fill="url(#linear-gradient-7)"/>
              <path id="Trazado_107147" data-name="Trazado 107147" d="M1309.27,592.574c-3.039-14.094-11.771-49.269-35.153-60.179.343-4.646.984-7.645,2.056-7.71,4.283-.26,9.345,2.206,9.345,2.206,22.844-.13,34.006,34.525,35.045,40.5s-.13,58.694-2.336,60.108c-.481.309-2.738-1.033-5.982-3.441C1312.161,617.714,1311.691,603.8,1309.27,592.574Z" transform="translate(-1273.79 -524.666)" fill="url(#linear-gradient-8)"/>
            </g>
          </g>
        </g>
      </g>
      <g id="Grupo_60195" data-name="Grupo 60195" transform="translate(320.224 86.763)">
        <path id="Trazado_107149" data-name="Trazado 107149" d="M1953.255,649.508H1879.8a2.115,2.115,0,0,0-2.109,2.109v10.72a2.115,2.115,0,0,0,2.109,2.109h73.453Z" transform="translate(-1872.773 -644.588)" fill="#99a8c2" opacity="0.5" style="mix-blend-mode: multiply;isolation: isolate"/>
        <path id="Rectángulo_8268" data-name="Rectángulo 8268" d="M7.469,0H96.742a7.469,7.469,0,0,1,7.469,7.469v0a7.468,7.468,0,0,1-7.468,7.468H7.469A7.469,7.469,0,0,1,0,7.469v0A7.469,7.469,0,0,1,7.469,0Z" transform="translate(0)" fill="#316ccc"/>
        <path id="Rectángulo_8269" data-name="Rectángulo 8269" d="M4.775,0H93.987a4.776,4.776,0,0,1,4.776,4.776v0a4.776,4.776,0,0,1-4.776,4.776H4.776A4.776,4.776,0,0,1,0,4.776v0A4.775,4.775,0,0,1,4.775,0Z" transform="translate(2.724 2.693)" fill="#fff"/>
        <g id="Grupo_60194" data-name="Grupo 60194" transform="translate(11.166 4.096)">
          <g id="Grupo_60189" data-name="Grupo 60189">
            <path id="Trazado_107150" data-name="Trazado 107150" d="M1919.843,651.7a.793.793,0,0,1-.791-.791v-4.748a.792.792,0,0,1,1.583,0v4.748A.794.794,0,0,1,1919.843,651.7Z" transform="translate(-1917.069 -645.37)" fill="#316ccc"/>
            <path id="Trazado_107151" data-name="Trazado 107151" d="M1914.5,654.585a.794.794,0,0,1-1.1.226l-3.967-2.609a.791.791,0,1,1,.869-1.322l3.967,2.609A.794.794,0,0,1,1914.5,654.585Z" transform="translate(-1909.085 -649.68)" fill="#316ccc"/>
            <path id="Trazado_107152" data-name="Trazado 107152" d="M1909.385,654.459a.794.794,0,0,1,.2-1.1l3.9-2.7a.791.791,0,0,1,.9,1.3l-3.9,2.7A.794.794,0,0,1,1909.385,654.459Z" transform="translate(-1909.213 -649.491)" fill="#316ccc"/>
          </g>
          <g id="Grupo_60190" data-name="Grupo 60190" transform="translate(11.123)">
            <path id="Trazado_107153" data-name="Trazado 107153" d="M1975.749,651.7a.794.794,0,0,1-.792-.791v-4.748a.792.792,0,0,1,1.583,0v4.748A.793.793,0,0,1,1975.749,651.7Z" transform="translate(-1972.974 -645.37)" fill="#316ccc"/>
            <path id="Trazado_107154" data-name="Trazado 107154" d="M1970.409,654.585a.794.794,0,0,1-1.1.226l-3.967-2.609a.791.791,0,0,1,.869-1.322l3.967,2.609A.794.794,0,0,1,1970.409,654.585Z" transform="translate(-1964.99 -649.68)" fill="#316ccc"/>
            <path id="Trazado_107155" data-name="Trazado 107155" d="M1965.29,654.459a.794.794,0,0,1,.2-1.1l3.9-2.7a.791.791,0,0,1,.9,1.3l-3.9,2.7A.794.794,0,0,1,1965.29,654.459Z" transform="translate(-1965.118 -649.491)" fill="#316ccc"/>
          </g>
          <g id="Grupo_60191" data-name="Grupo 60191" transform="translate(22.245)">
            <path id="Trazado_107156" data-name="Trazado 107156" d="M2031.654,651.7a.793.793,0,0,1-.791-.791v-4.748a.791.791,0,1,1,1.583,0v4.748A.794.794,0,0,1,2031.654,651.7Z" transform="translate(-2028.879 -645.37)" fill="#316ccc"/>
            <path id="Trazado_107157" data-name="Trazado 107157" d="M2026.315,654.585a.794.794,0,0,1-1.1.226l-3.967-2.609a.791.791,0,1,1,.869-1.322l3.967,2.609A.794.794,0,0,1,2026.315,654.585Z" transform="translate(-2020.896 -649.68)" fill="#316ccc"/>
            <path id="Trazado_107158" data-name="Trazado 107158" d="M2021.2,654.459a.794.794,0,0,1,.2-1.1l3.9-2.7a.791.791,0,0,1,.9,1.3l-3.9,2.7A.794.794,0,0,1,2021.2,654.459Z" transform="translate(-2021.024 -649.491)" fill="#316ccc"/>
          </g>
          <g id="Grupo_60192" data-name="Grupo 60192" transform="translate(33.368)">
            <path id="Trazado_107159" data-name="Trazado 107159" d="M2087.56,651.7a.794.794,0,0,1-.792-.791v-4.748a.792.792,0,0,1,1.583,0v4.748A.794.794,0,0,1,2087.56,651.7Z" transform="translate(-2084.785 -645.37)" fill="#316ccc"/>
            <path id="Trazado_107160" data-name="Trazado 107160" d="M2082.22,654.585a.794.794,0,0,1-1.1.226l-3.967-2.609a.791.791,0,1,1,.869-1.322l3.968,2.609A.794.794,0,0,1,2082.22,654.585Z" transform="translate(-2076.801 -649.68)" fill="#316ccc"/>
            <path id="Trazado_107161" data-name="Trazado 107161" d="M2077.1,654.459a.794.794,0,0,1,.2-1.1l3.9-2.7a.791.791,0,0,1,.9,1.3l-3.9,2.7A.794.794,0,0,1,2077.1,654.459Z" transform="translate(-2076.929 -649.491)" fill="#316ccc"/>
          </g>
          <g id="Grupo_60193" data-name="Grupo 60193" transform="translate(44.491)">
            <path id="Trazado_107162" data-name="Trazado 107162" d="M2143.464,651.7a.793.793,0,0,1-.791-.791v-4.748a.792.792,0,0,1,1.583,0v4.748A.794.794,0,0,1,2143.464,651.7Z" transform="translate(-2140.69 -645.37)" fill="#316ccc"/>
            <path id="Trazado_107163" data-name="Trazado 107163" d="M2138.125,654.585a.793.793,0,0,1-1.1.226l-3.968-2.609a.791.791,0,1,1,.869-1.322l3.968,2.609A.794.794,0,0,1,2138.125,654.585Z" transform="translate(-2132.706 -649.68)" fill="#316ccc"/>
            <path id="Trazado_107164" data-name="Trazado 107164" d="M2133.005,654.459a.793.793,0,0,1,.2-1.1l3.9-2.7a.791.791,0,0,1,.9,1.3l-3.9,2.7A.794.794,0,0,1,2133.005,654.459Z" transform="translate(-2132.833 -649.491)" fill="#316ccc"/>
          </g>
        </g>
        <rect id="Rectángulo_8270" data-name="Rectángulo 8270" width="7.705" height="1.054" rx="0.527" transform="translate(66.691 8.844)" fill="#316ccc"/>
        <rect id="Rectángulo_8271" data-name="Rectángulo 8271" width="7.705" height="1.054" rx="0.527" transform="translate(78.041 8.844)" fill="#316ccc"/>
        <path id="Rectángulo_8272" data-name="Rectángulo 8272" d="M.527,0h6.65A.527.527,0,0,1,7.7.527v0a.527.527,0,0,1-.527.527H.527A.527.527,0,0,1,0,.527v0A.527.527,0,0,1,.527,0Z" transform="translate(88.861 8.844)" fill="#316ccc"/>
      </g>
      <g id="Grupo_60211" data-name="Grupo 60211" transform="translate(112.76 38.006)">
        <path id="Trazado_107165" data-name="Trazado 107165" d="M913.273,796.467l-24.151,24.151a2.119,2.119,0,0,1-2.988,0l-24.151-24.151a2.118,2.118,0,0,1,0-2.988l24.151-24.151a2.119,2.119,0,0,1,2.988,0l24.151,24.151A2.119,2.119,0,0,1,913.273,796.467Z" transform="translate(-851.186 -691.319)" fill="#fff"/>
        <path id="Trazado_107166" data-name="Trazado 107166" d="M918.832,803.7l-22.475,22.475a1.972,1.972,0,0,1-2.78,0L871.1,803.7a1.972,1.972,0,0,1,0-2.78l22.474-22.475a1.972,1.972,0,0,1,2.78,0l22.475,22.475A1.972,1.972,0,0,1,918.832,803.7Z" transform="translate(-858.526 -698.657)" fill="#79c3f0"/>
        <rect id="Rectángulo_8273" data-name="Rectángulo 8273" width="52.312" height="32.695" rx="9.86" transform="translate(10.286 101.45)" fill="#fff"/>
        <path id="Trazado_107167" data-name="Trazado 107167" d="M914.205,891.352c0-1,.083-.993-.916-1.631a2.8,2.8,0,0,0-1.046-.2c-51.888,0-48.722-.093-49.434.2-.968.618-.916.591-.916,1.631.227.448-1.459-.723,24.662,15.959a3.032,3.032,0,0,0,2.988,0C915.664,890.629,913.978,891.8,914.205,891.352Z" transform="translate(-851.607 -788.083)" fill="#79c3f0" opacity="0.3"/>
        <g id="Grupo_60196" data-name="Grupo 60196" transform="translate(36.363 70.241)">
          <ellipse id="Elipse_4172" data-name="Elipse 4172" cx="10.871" cy="7.369" rx="10.871" ry="7.369" fill="#3973cf"/>
          <rect id="Rectángulo_8274" data-name="Rectángulo 8274" width="12.86" height="8.501" rx="4.25" transform="translate(4.441 9.997)" fill="#3973cf"/>
          <path id="Trazado_107168" data-name="Trazado 107168" d="M1017.933,755.367c0,1.805-1.2,5.075-2.67,5.075s-2.659-1.48-3.161-3.215c-.708-2.452.818-3.458,2.234-3.869C1016.026,752.868,1017.933,753.561,1017.933,755.367Z" transform="translate(-1008.152 -749.138)" fill="#1b45a1"/>
          <path id="Trazado_107169" data-name="Trazado 107169" d="M1051.364,755.367c0,1.805,1.2,5.075,2.67,5.075s2.659-1.48,3.161-3.215c.708-2.452-.818-3.458-2.234-3.869C1053.271,752.868,1051.364,753.561,1051.364,755.367Z" transform="translate(-1039.746 -749.138)" fill="#1b45a1"/>
          <path id="Trazado_107170" data-name="Trazado 107170" d="M1042.661,785.2c1.2,0,1.58,3.978,1.035,4.141a3.157,3.157,0,0,1-2.125,0C1041.135,789.012,1041.79,785.2,1042.661,785.2Z" transform="translate(-1031.79 -774.765)" fill="#1b45a1"/>
        </g>
        <g id="Grupo_60197" data-name="Grupo 60197" transform="translate(14.235 47.938)">
          <ellipse id="Elipse_4173" data-name="Elipse 4173" cx="11.434" cy="7.75" rx="11.434" ry="7.75" fill="#3973cf"/>
          <rect id="Rectángulo_8275" data-name="Rectángulo 8275" width="13.526" height="8.941" rx="4.47" transform="translate(4.671 10.515)" fill="#3973cf"/>
          <path id="Trazado_107171" data-name="Trazado 107171" d="M908.006,644.442c0,1.9-1.257,5.338-2.808,5.338s-2.8-1.557-3.324-3.381c-.745-2.579.86-3.637,2.35-4.069C906,641.813,908.006,642.542,908.006,644.442Z" transform="translate(-897.719 -637.89)" fill="#1b45a1"/>
          <path id="Trazado_107172" data-name="Trazado 107172" d="M943.168,644.442c0,1.9,1.257,5.338,2.809,5.338s2.8-1.557,3.324-3.381c.745-2.579-.86-3.637-2.35-4.069C945.174,641.813,943.168,642.542,943.168,644.442Z" transform="translate(-930.948 -637.89)" fill="#1b45a1"/>
          <path id="Trazado_107173" data-name="Trazado 107173" d="M934.015,675.817c1.261,0,1.662,4.184,1.089,4.356a3.321,3.321,0,0,1-2.235,0C932.41,679.829,933.1,675.817,934.015,675.817Z" transform="translate(-922.581 -664.844)" fill="#1b45a1"/>
        </g>
        <g id="Grupo_60198" data-name="Grupo 60198" transform="translate(60.338 47.909)">
          <ellipse id="Elipse_4174" data-name="Elipse 4174" cx="6.09" cy="4.128" rx="6.09" ry="4.128" fill="#3973cf"/>
          <path id="Rectángulo_8276" data-name="Rectángulo 8276" d="M2.381,0H4.823A2.381,2.381,0,0,1,7.2,2.381v0A2.381,2.381,0,0,1,4.823,4.762H2.381A2.381,2.381,0,0,1,0,2.381v0A2.381,2.381,0,0,1,2.381,0Z" transform="translate(2.488 5.6)" fill="#3973cf"/>
          <path id="Trazado_107174" data-name="Trazado 107174" d="M1127.457,633.178c0,1.011-.67,2.843-1.5,2.843s-1.49-.829-1.771-1.8a1.592,1.592,0,0,1,1.251-2.167C1126.389,631.778,1127.457,632.167,1127.457,633.178Z" transform="translate(-1121.978 -629.688)" fill="#1b45a1"/>
          <path id="Trazado_107175" data-name="Trazado 107175" d="M1146.184,633.178c0,1.011.67,2.843,1.5,2.843s1.49-.829,1.771-1.8a1.592,1.592,0,0,0-1.252-2.167C1147.252,631.778,1146.184,632.167,1146.184,633.178Z" transform="translate(-1139.675 -629.688)" fill="#1b45a1"/>
          <path id="Trazado_107176" data-name="Trazado 107176" d="M1141.309,649.889c.672,0,.885,2.229.58,2.32a1.769,1.769,0,0,1-1.19,0C1140.454,652.026,1140.821,649.889,1141.309,649.889Z" transform="translate(-1135.219 -644.045)" fill="#1b45a1"/>
        </g>
        <g id="Grupo_60199" data-name="Grupo 60199" transform="translate(20.268 89.832)">
          <ellipse id="Elipse_4175" data-name="Elipse 4175" cx="6.09" cy="4.128" rx="6.09" ry="4.128" fill="#3973cf"/>
          <path id="Rectángulo_8277" data-name="Rectángulo 8277" d="M2.381,0H4.823A2.381,2.381,0,0,1,7.2,2.381v0A2.381,2.381,0,0,1,4.823,4.762H2.381A2.381,2.381,0,0,1,0,2.381v0A2.381,2.381,0,0,1,2.381,0Z" transform="translate(2.488 5.6)" fill="#3973cf"/>
          <path id="Trazado_107177" data-name="Trazado 107177" d="M926.053,843.9c0,1.012-.67,2.843-1.5,2.843s-1.49-.829-1.771-1.8a1.592,1.592,0,0,1,1.252-2.167C924.985,842.5,926.053,842.885,926.053,843.9Z" transform="translate(-920.574 -840.406)" fill="#1b45a1"/>
          <path id="Trazado_107178" data-name="Trazado 107178" d="M944.781,843.9c0,1.012.67,2.843,1.5,2.843s1.49-.829,1.771-1.8a1.592,1.592,0,0,0-1.252-2.167C945.849,842.5,944.781,842.885,944.781,843.9Z" transform="translate(-938.273 -840.406)" fill="#1b45a1"/>
          <path id="Trazado_107179" data-name="Trazado 107179" d="M939.906,860.607c.672,0,.885,2.229.58,2.32a1.769,1.769,0,0,1-1.19,0C939.052,862.744,939.418,860.607,939.906,860.607Z" transform="translate(-933.816 -854.763)" fill="#1b45a1"/>
        </g>
        <g id="Grupo_60200" data-name="Grupo 60200" transform="translate(30.533 14.565)">
          <ellipse id="Elipse_4176" data-name="Elipse 4176" cx="14.238" cy="9.651" rx="14.238" ry="9.651" fill="#3973cf"/>
          <path id="Rectángulo_8278" data-name="Rectángulo 8278" d="M5.567,0h5.71a5.566,5.566,0,0,1,5.566,5.566v0a5.566,5.566,0,0,1-5.566,5.566H5.567A5.567,5.567,0,0,1,0,5.567v0A5.567,5.567,0,0,1,5.567,0Z" transform="translate(5.816 13.092)" fill="#3973cf"/>
          <path id="Trazado_107180" data-name="Trazado 107180" d="M996.36,482.528c0,2.365-1.565,6.647-3.5,6.647s-3.483-1.939-4.139-4.211c-.928-3.212,1.072-4.529,2.926-5.067C993.863,479.255,996.36,480.163,996.36,482.528Z" transform="translate(-983.55 -474.37)" fill="#1b45a1"/>
          <path id="Trazado_107181" data-name="Trazado 107181" d="M1040.143,482.528c0,2.365,1.566,6.647,3.5,6.647s3.483-1.939,4.139-4.211c.928-3.212-1.071-4.529-2.926-5.067C1042.641,479.255,1040.143,480.163,1040.143,482.528Z" transform="translate(-1024.927 -474.37)" fill="#1b45a1"/>
          <path id="Trazado_107182" data-name="Trazado 107182" d="M1028.746,521.6c1.57,0,2.07,5.21,1.356,5.424s-2.212.428-2.783,0S1027.6,521.6,1028.746,521.6Z" transform="translate(-1014.509 -507.933)" fill="#1b45a1"/>
        </g>
        <path id="Trazado_107183" data-name="Trazado 107183" d="M1030.1,1013.115h-17.64a.531.531,0,0,1,0-1.063h17.64a.531.531,0,0,1,0,1.063Z" transform="translate(-971.789 -886.245)" fill="#3973cf"/>
        <path id="Trazado_107184" data-name="Trazado 107184" d="M1030.1,1024.618h-17.64a.531.531,0,0,1,0-1.062h17.64a.531.531,0,1,1,0,1.063Z" transform="translate(-971.789 -895.459)" fill="#3973cf"/>
        <g id="Grupo_60205" data-name="Grupo 60205" transform="translate(24.113)">
          <g id="Grupo_60201" data-name="Grupo 60201" transform="translate(4.415 3.558)">
            <path id="Trazado_107185" data-name="Trazado 107185" d="M969.913,430.248a16.325,16.325,0,1,1,16.325-16.325A16.344,16.344,0,0,1,969.913,430.248Zm0-30.263a13.938,13.938,0,1,0,13.938,13.938A13.954,13.954,0,0,0,969.913,399.984Z" transform="translate(-953.587 -397.597)" fill="#fb8627"/>
          </g>
          <g id="Grupo_60202" data-name="Grupo 60202" transform="translate(13.993 13.135)">
            <path id="Trazado_107186" data-name="Trazado 107186" d="M1008.473,459.231a6.748,6.748,0,1,1,6.748-6.748A6.756,6.756,0,0,1,1008.473,459.231Zm0-11.109a4.361,4.361,0,1,0,4.361,4.361A4.366,4.366,0,0,0,1008.473,448.121Z" transform="translate(-1001.725 -445.734)" fill="#fb8627"/>
          </g>
          <g id="Grupo_60203" data-name="Grupo 60203" transform="translate(0 18.69)">
            <path id="Trazado_107187" data-name="Trazado 107187" d="M971.516,476.041H932.588a1.194,1.194,0,1,1,0-2.387h38.928a1.194,1.194,0,0,1,0,2.387Z" transform="translate(-931.394 -473.653)" fill="#fb8627"/>
          </g>
          <g id="Grupo_60204" data-name="Grupo 60204" transform="translate(19.547)">
            <path id="Trazado_107188" data-name="Trazado 107188" d="M1030.838,419.126a1.194,1.194,0,0,1-1.194-1.194V380.907a1.194,1.194,0,0,1,2.388,0v37.025A1.194,1.194,0,0,1,1030.838,419.126Z" transform="translate(-1029.644 -379.713)" fill="#fb8627"/>
          </g>
        </g>
        <g id="Grupo_60210" data-name="Grupo 60210" transform="translate(0 47.243)">
          <g id="Grupo_60206" data-name="Grupo 60206" transform="translate(3.859 3.109)">
            <path id="Trazado_107189" data-name="Trazado 107189" d="M844.008,661.63a14.416,14.416,0,1,1,14.417-14.416A14.433,14.433,0,0,1,844.008,661.63Zm0-26.445a12.029,12.029,0,1,0,12.029,12.029A12.042,12.042,0,0,0,844.008,635.185Z" transform="translate(-829.591 -632.797)" fill="#fb8627"/>
          </g>
          <g id="Grupo_60207" data-name="Grupo 60207" transform="translate(12.227 11.478)">
            <path id="Trazado_107190" data-name="Trazado 107190" d="M877.7,686.956a6.048,6.048,0,1,1,6.047-6.048A6.054,6.054,0,0,1,877.7,686.956Zm0-9.708a3.66,3.66,0,1,0,3.66,3.66A3.664,3.664,0,0,0,877.7,677.248Z" transform="translate(-871.655 -674.861)" fill="#fb8627"/>
          </g>
          <g id="Grupo_60208" data-name="Grupo 60208" transform="translate(0 16.332)">
            <path id="Trazado_107191" data-name="Trazado 107191" d="M845.408,701.645H811.391a1.194,1.194,0,0,1,0-2.388h34.017a1.194,1.194,0,0,1,0,2.388Z" transform="translate(-810.197 -699.257)" fill="#fb8627"/>
          </g>
          <g id="Grupo_60209" data-name="Grupo 60209" transform="translate(17.081)">
            <path id="Trazado_107192" data-name="Trazado 107192" d="M897.246,651.91a1.194,1.194,0,0,1-1.194-1.194V618.363a1.194,1.194,0,1,1,2.388,0v32.354A1.194,1.194,0,0,1,897.246,651.91Z" transform="translate(-896.052 -617.169)" fill="#fb8627"/>
          </g>
        </g>
      </g>
      <g id="Grupo_60213" data-name="Grupo 60213" transform="translate(282.362 172.579)">
        <path id="Rectángulo_8279" data-name="Rectángulo 8279" d="M7.216,0H68.508a7.216,7.216,0,0,1,7.216,7.216V27a7.217,7.217,0,0,1-7.217,7.217H7.216A7.216,7.216,0,0,1,0,27.006V7.216A7.216,7.216,0,0,1,7.216,0Z" fill="#3aa1e0"/>
        <path id="Rectángulo_8280" data-name="Rectángulo 8280" d="M5.83,0H65.754a5.829,5.829,0,0,1,5.829,5.829V17.8a5.829,5.829,0,0,1-5.829,5.829H5.83A5.83,5.83,0,0,1,0,17.795V5.83A5.83,5.83,0,0,1,5.83,0Z" transform="translate(2.07 8.991)" fill="#fff"/>
        <g id="Grupo_60212" data-name="Grupo 60212" transform="translate(3.122 2.518)">
          <rect id="Rectángulo_8281" data-name="Rectángulo 8281" width="2.967" height="2.67" rx="1.335" fill="#fff"/>
          <path id="Rectángulo_8282" data-name="Rectángulo 8282" d="M1.335,0h.3A1.335,1.335,0,0,1,2.967,1.335v0A1.335,1.335,0,0,1,1.632,2.67h-.3A1.335,1.335,0,0,1,0,1.335v0A1.335,1.335,0,0,1,1.335,0Z" transform="translate(5.394)" fill="#fff"/>
          <path id="Rectángulo_8283" data-name="Rectángulo 8283" d="M1.335,0h.3A1.335,1.335,0,0,1,2.967,1.335v0A1.335,1.335,0,0,1,1.632,2.67h-.3A1.335,1.335,0,0,1,0,1.335v0A1.335,1.335,0,0,1,1.335,0Z" transform="translate(10.788)" fill="#fff"/>
        </g>
        <path id="Trazado_107193" data-name="Trazado 107193" d="M1861.21,1118.208h-37.864a1.133,1.133,0,0,1,0-2.266h37.864a1.133,1.133,0,0,1,0,2.266Z" transform="translate(-1790.469 -1104.039)" fill="#3aa1e0"/>
        <path id="Trazado_107194" data-name="Trazado 107194" d="M1718.068,1206.046H1680.2a1.133,1.133,0,0,1,0-2.266h37.864a1.133,1.133,0,1,1,0,2.266Z" transform="translate(-1675.806 -1174.401)" fill="#3aa1e0"/>
        <path id="Rectángulo_8284" data-name="Rectángulo 8284" d="M1.133,0H3.56A1.132,1.132,0,0,1,4.693,1.132v0A1.133,1.133,0,0,1,3.56,2.265H1.133A1.133,1.133,0,0,1,0,1.133v0A1.133,1.133,0,0,1,1.133,0Z" transform="translate(44.932 29.379)" fill="#3aa1e0"/>
        <path id="Rectángulo_8285" data-name="Rectángulo 8285" d="M1.133,0H3.56A1.132,1.132,0,0,1,4.693,1.132v0A1.133,1.133,0,0,1,3.56,2.265H1.133A1.133,1.133,0,0,1,0,1.133v0A1.133,1.133,0,0,1,1.133,0Z" transform="translate(50.838 29.379)" fill="#3aa1e0"/>
        <path id="Trazado_107195" data-name="Trazado 107195" d="M1764.5,1145.946h-62.7a.769.769,0,1,1,0-1.537h62.7a.769.769,0,0,1,0,1.537Z" transform="translate(-1693.396 -1126.842)" fill="#3aa1e0"/>
        <path id="Trazado_107196" data-name="Trazado 107196" d="M1764.5,1162.619h-62.7a.769.769,0,1,1,0-1.537h62.7a.769.769,0,0,1,0,1.537Z" transform="translate(-1693.396 -1140.198)" fill="#3aa1e0"/>
      </g>
      <g id="Grupo_60219" data-name="Grupo 60219" transform="translate(306.525 118.788)">
        <g id="Grupo_60218" data-name="Grupo 60218">
          <g id="Grupo_60214" data-name="Grupo 60214" transform="translate(0.199 1.703)">
            <path id="Trazado_107197" data-name="Trazado 107197" d="M1794.816,808.269h-5.448a4.263,4.263,0,0,1-4.259-4.258v-5.448a4.263,4.263,0,0,1,4.259-4.258h5.448a4.263,4.263,0,0,1,4.259,4.258v5.448A4.263,4.263,0,0,1,1794.816,808.269Zm-5.448-11.578a1.873,1.873,0,0,0-1.871,1.871v5.448a1.873,1.873,0,0,0,1.871,1.871h5.448a1.873,1.873,0,0,0,1.871-1.871v-5.448a1.873,1.873,0,0,0-1.871-1.871Z" transform="translate(-1785.109 -794.304)" fill="#316ccc"/>
          </g>
          <g id="Grupo_60215" data-name="Grupo 60215" transform="translate(0 24.659)" opacity="0.8">
            <path id="Trazado_107198" data-name="Trazado 107198" d="M1794.015,924.053h-5.448a4.463,4.463,0,0,1-4.458-4.457v-5.448a4.463,4.463,0,0,1,4.458-4.458h5.448a4.463,4.463,0,0,1,4.458,4.458V919.6A4.463,4.463,0,0,1,1794.015,924.053Zm-5.448-11.578a1.674,1.674,0,0,0-1.672,1.672V919.6a1.674,1.674,0,0,0,1.672,1.672h5.448a1.674,1.674,0,0,0,1.672-1.672v-5.448a1.674,1.674,0,0,0-1.672-1.672Z" transform="translate(-1784.109 -909.69)" fill="#316ccc"/>
          </g>
          <g id="Grupo_60216" data-name="Grupo 60216" transform="translate(2.412)">
            <path id="Trazado_107199" data-name="Trazado 107199" d="M1801.344,798.349h-.057a1.194,1.194,0,0,1-.89-.466l-3.916-5.108a1.194,1.194,0,0,1,1.895-1.452l3.058,3.988,8.572-9.185a1.194,1.194,0,1,1,1.746,1.629l-9.535,10.216A1.194,1.194,0,0,1,1801.344,798.349Z" transform="translate(-1796.234 -785.746)" fill="#fb8627"/>
          </g>
          <g id="Grupo_60217" data-name="Grupo 60217" transform="translate(2.412 23.156)">
            <path id="Trazado_107200" data-name="Trazado 107200" d="M1801.344,914.736h-.057a1.2,1.2,0,0,1-.89-.466l-3.916-5.108a1.194,1.194,0,0,1,1.895-1.453l3.058,3.989,8.572-9.185a1.194,1.194,0,1,1,1.746,1.629l-9.535,10.216A1.194,1.194,0,0,1,1801.344,914.736Z" transform="translate(-1796.234 -902.132)" fill="#fb8627"/>
          </g>
        </g>
        <path id="Trazado_107201" data-name="Trazado 107201" d="M1895.892,812.521h41.151a1.3,1.3,0,1,0,0-2.607h-41.151a1.3,1.3,0,0,0,0,2.607Z" transform="translate(-1872.609 -805.106)" fill="#316ccc"/>
        <path id="Trazado_107202" data-name="Trazado 107202" d="M1895.892,838.164H1926.5a1.3,1.3,0,0,0,0-2.607h-30.607a1.3,1.3,0,1,0,0,2.607Z" transform="translate(-1872.609 -825.647)" fill="#316ccc"/>
        <path id="Trazado_107203" data-name="Trazado 107203" d="M1895.892,929.029h41.151a1.3,1.3,0,1,0,0-2.607h-41.151a1.3,1.3,0,1,0,0,2.607Z" transform="translate(-1872.609 -898.434)" fill="#316ccc"/>
        <path id="Trazado_107204" data-name="Trazado 107204" d="M1895.892,954.672h36.055a1.3,1.3,0,0,0,0-2.607h-36.055a1.3,1.3,0,0,0,0,2.607Z" transform="translate(-1872.609 -918.975)" fill="#316ccc"/>
      </g>
      <g id="Grupo_60222" data-name="Grupo 60222" transform="translate(183.294 176.433)">
        <g id="Grupo_60220" data-name="Grupo 60220" transform="translate(15.009)">
          <path id="Rectángulo_8286" data-name="Rectángulo 8286" d="M3.825,0H42.543a3.826,3.826,0,0,1,3.826,3.826V22.69a3.825,3.825,0,0,1-3.825,3.825H3.825A3.825,3.825,0,0,1,0,22.69V3.825A3.825,3.825,0,0,1,3.825,0Z" fill="#3aa1e0"/>
          <rect id="Rectángulo_8287" data-name="Rectángulo 8287" width="44.334" height="24.179" rx="3.572" transform="translate(1.017 1.168)" fill="#fff"/>
          <path id="Rectángulo_8288" data-name="Rectángulo 8288" d="M4.017,0H37.868a4.016,4.016,0,0,1,4.016,4.016V17.2a4.016,4.016,0,0,1-4.016,4.016H4.016A4.016,4.016,0,0,1,0,17.2V4.017A4.017,4.017,0,0,1,4.017,0Z" transform="translate(2.242 2.65)" fill="#3aa1e0"/>
          <circle id="Elipse_4177" data-name="Elipse 4177" cx="7.361" cy="7.361" r="7.361" transform="translate(15.823 5.897)" fill="#fff"/>
          <circle id="Elipse_4178" data-name="Elipse 4178" cx="6.338" cy="6.338" r="6.338" transform="translate(16.846 6.919)" fill="#3aa1e0"/>
          <path id="Trazado_107205" data-name="Trazado 107205" d="M1353.731,1129.642l-2.317,1.338-2.317,1.338v-5.351l2.317,1.338Z" transform="translate(-1327.422 -1116.723)" fill="#fff"/>
        </g>
        <path id="Trazado_107206" data-name="Trazado 107206" d="M1274.8,1119.965h-34.64v16.9a.761.761,0,0,0,.761.761h34.64v-16.9A.761.761,0,0,0,1274.8,1119.965Z" transform="translate(-1225.147 -1111.115)" fill="#99a8c2" opacity="0.5" style="mix-blend-mode: multiply;isolation: isolate"/>
        <g id="Grupo_60221" data-name="Grupo 60221" transform="translate(0 10.256)">
          <path id="Rectángulo_8289" data-name="Rectángulo 8289" d="M3.825,0H42.543a3.825,3.825,0,0,1,3.825,3.825V22.69a3.825,3.825,0,0,1-3.825,3.825H3.826A3.826,3.826,0,0,1,0,22.689V3.825A3.825,3.825,0,0,1,3.825,0Z" fill="#3aa1e0"/>
          <rect id="Rectángulo_8290" data-name="Rectángulo 8290" width="44.334" height="24.179" rx="3.572" transform="translate(1.017 1.168)" fill="#fff"/>
          <path id="Rectángulo_8291" data-name="Rectángulo 8291" d="M4.017,0H37.868a4.017,4.017,0,0,1,4.017,4.017V17.2a4.017,4.017,0,0,1-4.017,4.017H4.016A4.016,4.016,0,0,1,0,17.2V4.017A4.017,4.017,0,0,1,4.017,0Z" transform="translate(2.242 2.65)" fill="#3aa1e0"/>
          <circle id="Elipse_4179" data-name="Elipse 4179" cx="7.361" cy="7.361" r="7.361" transform="translate(15.823 5.897)" fill="#fff"/>
          <path id="Trazado_107207" data-name="Trazado 107207" d="M1262.065,1168.147a6.338,6.338,0,1,1-6.338-6.338A6.338,6.338,0,0,1,1262.065,1168.147Z" transform="translate(-1232.542 -1154.89)" fill="#3aa1e0"/>
          <path id="Trazado_107208" data-name="Trazado 107208" d="M1278.292,1181.192l-2.317,1.338-2.317,1.338v-5.351l2.317,1.338Z" transform="translate(-1251.983 -1168.273)" fill="#fff"/>
        </g>
      </g>
      <g id="Grupo_60225" data-name="Grupo 60225" transform="translate(334.711 0)">
        <g id="Grupo_60223" data-name="Grupo 60223" transform="translate(1.457 27.682)">
          <path id="Trazado_107209" data-name="Trazado 107209" d="M1935.97,343.3a1.588,1.588,0,0,1-.622-.127,3.675,3.675,0,0,1-2.245-3.386V329.414a1.592,1.592,0,0,1,3.183,0v10.372a.5.5,0,0,0,.307.456,1.592,1.592,0,0,1-.623,3.057Z" transform="translate(-1933.103 -327.822)" fill="#153f9c"/>
        </g>
        <path id="Trazado_107210" data-name="Trazado 107210" d="M2000.862,208.483a22.443,22.443,0,0,0-2.3.072c.046-.424.075-.852.083-1.285.2-10.01-9.771-18.328-22.272-18.579-10.25-.206-19.016,5.076-21.953,12.5a20.7,20.7,0,0,0-7.055-1.368c-9.524-.191-17.369,5.9-17.524,13.6s7.44,14.1,16.964,14.288c6.438.129,48.126-.15,53.675-.039,8.1.163,14.749-4,14.855-9.3S2008.96,208.646,2000.862,208.483Z" transform="translate(-1929.028 -188.686)" fill="#fff" opacity="0.7"/>
        <path id="Trazado_107211" data-name="Trazado 107211" d="M1975.791,192.665c.166,0,.333,0,.5,0a21.621,21.621,0,0,1,13.431,4.707c3.26,2.72,5.016,6.2,4.943,9.814-.006.3-.027.619-.061.938l-.517,4.79,4.8-.4c.506-.042,1.019-.063,1.526-.063.123,0,.246,0,.369,0a15.346,15.346,0,0,1,8.146,2.325c.74.506,2.458,1.86,2.425,3.5-.032,1.6-1.728,2.868-2.456,3.337a15.089,15.089,0,0,1-7.962,2.068c-.125,0-.252,0-.378,0-.928-.018-2.842-.028-5.853-.028-4.916,0-11.959.023-19.417.048-7.642.026-15.544.052-21.188.052-3.711,0-6.072-.011-7.217-.034a15.4,15.4,0,0,1-9.628-3.394,8.777,8.777,0,0,1-3.438-6.836c.107-5.35,5.988-9.7,13.109-9.7.118,0,.238,0,.356,0a16.64,16.64,0,0,1,5.7,1.1l3.685,1.427,1.453-3.674a14.8,14.8,0,0,1,6.349-7.028,22.158,22.158,0,0,1,11.325-2.964Zm0-3.979c-10,0-18.493,5.221-21.375,12.507a20.7,20.7,0,0,0-7.055-1.368c-.146,0-.292,0-.436,0-9.327,0-16.935,6.018-17.087,13.6-.155,7.7,7.44,14.1,16.964,14.288,1.26.025,3.871.035,7.3.035,11.042,0,30.552-.1,40.605-.1,2.764,0,4.811.008,5.773.027.153,0,.307,0,.458,0,7.89,0,14.293-4.106,14.4-9.3.106-5.3-6.373-9.726-14.47-9.888-.15,0-.3,0-.449,0q-.942,0-1.854.077c.046-.424.075-.852.083-1.285.2-10.01-9.771-18.328-22.272-18.579-.193,0-.387-.006-.579-.006Z" transform="translate(-1929.028 -188.686)" fill="#fff"/>
        <rect id="Rectángulo_8292" data-name="Rectángulo 8292" width="19.09" height="14.53" rx="7.265" transform="translate(0 39.058)" fill="#153f9c"/>
        <ellipse id="Elipse_4180" data-name="Elipse 4180" cx="3.127" cy="3.486" rx="3.127" ry="3.486" transform="translate(6.771 23.017)" fill="#fff"/>
        <g id="Grupo_60224" data-name="Grupo 60224" transform="translate(8.108 24.992)">
          <path id="Trazado_107212" data-name="Trazado 107212" d="M1972.687,332.635h-4.565a1.592,1.592,0,1,1,0-3.183h4.565a.5.5,0,0,0,.494-.494V317.982a.5.5,0,0,0-.494-.494h-4.158a1.592,1.592,0,0,1,0-3.183h4.158a3.682,3.682,0,0,1,3.677,3.678v10.976A3.681,3.681,0,0,1,1972.687,332.635Z" transform="translate(-1966.53 -314.304)" fill="#153f9c"/>
        </g>
        <path id="Trazado_107213" data-name="Trazado 107213" d="M1967.878,405.71a1.941,1.941,0,1,0-2.94,1.661v2.462a1,1,0,1,0,2,0v-2.462A1.937,1.937,0,0,0,1967.878,405.71Z" transform="translate(-1956.393 -360.977)" fill="#ffc34e"/>
      </g>
      <g id="Grupo_60234" data-name="Grupo 60234" transform="translate(92.004 183.352)">
        <g id="Grupo_60226" data-name="Grupo 60226" transform="translate(7.149 3.824)">
          <path id="Trazado_107214" data-name="Trazado 107214" d="M812.43,1243.178v-9.111a2.3,2.3,0,0,0-2.294-2.294H741.808v13.7h68.327A2.3,2.3,0,0,0,812.43,1243.178Z" transform="translate(-741.808 -1211.421)" fill="#99a8c2" opacity="0.5" style="mix-blend-mode: multiply;isolation: isolate"/>
          <path id="Trazado_107215" data-name="Trazado 107215" d="M810.135,1129.478H741.808v13.7h68.327a2.3,2.3,0,0,0,2.294-2.294v-9.111A2.3,2.3,0,0,0,810.135,1129.478Z" transform="translate(-741.808 -1129.478)" fill="#99a8c2" opacity="0.5" style="mix-blend-mode: multiply;isolation: isolate"/>
        </g>
        <path id="Rectángulo_8293" data-name="Rectángulo 8293" d="M6.849,0H67.1a6.85,6.85,0,0,1,6.85,6.85v0A6.849,6.849,0,0,1,67.1,13.7H6.849A6.849,6.849,0,0,1,0,6.85v0A6.849,6.849,0,0,1,6.849,0Z" fill="#1b45a1"/>
        <rect id="Rectángulo_8294" data-name="Rectángulo 8294" width="66.897" height="9.837" rx="4.918" transform="translate(3.525 1.931)" fill="#fff"/>
        <path id="Rectángulo_8295" data-name="Rectángulo 8295" d="M6.849,0H67.1a6.85,6.85,0,0,1,6.85,6.85v0A6.849,6.849,0,0,1,67.1,13.7H6.849A6.849,6.849,0,0,1,0,6.85v0A6.849,6.849,0,0,1,6.849,0Z" transform="translate(0 20.352)" fill="#1b45a1"/>
        <path id="Rectángulo_8296" data-name="Rectángulo 8296" d="M4.918,0h57.06A4.918,4.918,0,0,1,66.9,4.918v0a4.919,4.919,0,0,1-4.919,4.919H4.918A4.918,4.918,0,0,1,0,4.919v0A4.918,4.918,0,0,1,4.918,0Z" transform="translate(3.525 22.283)" fill="#fff"/>
        <path id="Trazado_107216" data-name="Trazado 107216" d="M751.738,1138.311a1.584,1.584,0,1,1-1.583-1.583A1.584,1.584,0,0,1,751.738,1138.311Zm5.777-1.583a1.584,1.584,0,1,0,1.584,1.583A1.584,1.584,0,0,0,757.516,1136.727Zm7.36,0a1.584,1.584,0,1,0,1.584,1.583A1.584,1.584,0,0,0,764.876,1136.727Zm7.361,0a1.584,1.584,0,1,0,1.584,1.583A1.584,1.584,0,0,0,772.237,1136.727Zm7.361,0a1.584,1.584,0,1,0,1.583,1.583A1.584,1.584,0,0,0,779.6,1136.727Zm7.361,0a1.584,1.584,0,1,0,1.584,1.583A1.584,1.584,0,0,0,786.958,1136.727Z" transform="translate(-740.076 -1131.461)" fill="#1b45a1"/>
        <path id="Trazado_107217" data-name="Trazado 107217" d="M751.738,1239.934a1.584,1.584,0,1,1-1.583-1.583A1.584,1.584,0,0,1,751.738,1239.934Zm5.777-1.583a1.584,1.584,0,1,0,1.584,1.583A1.584,1.584,0,0,0,757.516,1238.351Zm7.36,0a1.584,1.584,0,1,0,1.584,1.583A1.584,1.584,0,0,0,764.876,1238.351Zm7.361,0a1.584,1.584,0,1,0,1.584,1.583A1.584,1.584,0,0,0,772.237,1238.351Zm7.361,0a1.584,1.584,0,1,0,1.583,1.583A1.584,1.584,0,0,0,779.6,1238.351Zm7.361,0a1.584,1.584,0,1,0,1.584,1.583A1.584,1.584,0,0,0,786.958,1238.351Z" transform="translate(-740.076 -1212.866)" fill="#1b45a1"/>
        <g id="Grupo_60229" data-name="Grupo 60229" transform="translate(56.41 4.028)">
          <g id="Grupo_60227" data-name="Grupo 60227">
            <path id="Trazado_107218" data-name="Trazado 107218" d="M994.938,1135.832a8.741,8.741,0,0,1-5.345-2.226.6.6,0,0,1,0-.872,7.529,7.529,0,0,1,10.69,0,.6.6,0,0,1,0,.872A8.741,8.741,0,0,1,994.938,1135.832Zm-3.984-2.663a6.135,6.135,0,0,0,7.967,0,6.139,6.139,0,0,0-7.967,0Z" transform="translate(-989.404 -1130.507)" fill="#1b45a1"/>
          </g>
          <g id="Grupo_60228" data-name="Grupo 60228" transform="translate(3.124 0.252)">
            <path id="Trazado_107219" data-name="Trazado 107219" d="M1007.515,1136.593a2.411,2.411,0,1,1,2.41-2.411A2.414,2.414,0,0,1,1007.515,1136.593Zm0-3.628a1.217,1.217,0,1,0,1.217,1.217A1.219,1.219,0,0,0,1007.515,1132.966Z" transform="translate(-1005.104 -1131.772)" fill="#1b45a1"/>
          </g>
        </g>
        <g id="Grupo_60233" data-name="Grupo 60233" transform="translate(55.64 24.897)">
          <path id="Rectángulo_8297" data-name="Rectángulo 8297" d="M2.177,0H3.882A2.177,2.177,0,0,1,6.059,2.177v0A2.177,2.177,0,0,1,3.882,4.353H2.177A2.177,2.177,0,0,1,0,2.177v0A2.177,2.177,0,0,1,2.177,0Z" transform="translate(0 0.186)" fill="#1b45a1"/>
          <g id="Grupo_60230" data-name="Grupo 60230" transform="translate(0.123 0.344)">
            <path id="Trazado_107220" data-name="Trazado 107220" d="M997.16,1240.476H986.748a.6.6,0,0,1,0-1.194h9.815v-1.556a.6.6,0,0,1,1.194,0v2.153A.6.6,0,0,1,997.16,1240.476Z" transform="translate(-986.151 -1237.129)" fill="#1b45a1"/>
          </g>
          <g id="Grupo_60231" data-name="Grupo 60231" transform="translate(9.136 0.631)">
            <path id="Trazado_107221" data-name="Trazado 107221" d="M1032.052,1241.537a.6.6,0,0,1-.6-.6v-1.771a.6.6,0,1,1,1.194,0v1.771A.6.6,0,0,1,1032.052,1241.537Z" transform="translate(-1031.455 -1238.572)" fill="#1b45a1"/>
          </g>
          <g id="Grupo_60232" data-name="Grupo 60232" transform="translate(6.955)">
            <path id="Trazado_107222" data-name="Trazado 107222" d="M1021.086,1238.994a.6.6,0,0,1-.6-.6v-2.4a.6.6,0,1,1,1.194,0v2.4A.6.6,0,0,1,1021.086,1238.994Z" transform="translate(-1020.489 -1235.398)" fill="#1b45a1"/>
          </g>
          <path id="Trazado_107223" data-name="Trazado 107223" d="M989.6,1244.594a.446.446,0,0,1-.445-.445v-.689a.445.445,0,0,1,.89,0v.689A.446.446,0,0,1,989.6,1244.594Z" transform="translate(-988.431 -1241.5)" fill="#fff"/>
        </g>
      </g>
    </g>
    <g id="Grupo_60236" data-name="Grupo 60236" transform="translate(277.75 383.181)">
      <path id="Trazado_107224" data-name="Trazado 107224" d="M475.275,1563.212s-39.079-27.144-55.609-11.493c-13.2,12.5,10.23,27.179,40.2,23.231,21.1-2.779,23.489,1.257,27.184,1.17,27.5-2.107,64.551-10.334,46.519-23.26-24.564-17.608-41.18,1.059-49.739,5.706Z" transform="translate(-415.9 -1470.006)" fill="#0e3a82"/>
      <path id="Trazado_107225" data-name="Trazado 107225" d="M551.468,1560.421c-10.271-2.119-49.4,12.391-49.4,12.391s-34.074-10.271-42.226-11.249-11.9,2.119-11.9,2.119,3.846-4.334,8.315-4.728,10.923-1.467,10.923-1.467,65.214-3.1,73.855-1.141S551.468,1560.421,551.468,1560.421Z" transform="translate(-441.566 -1478.218)" fill="#0f2d5c"/>
      <path id="Trazado_107226" data-name="Trazado 107226" d="M585.3,1313.947c-1.55.245-25.639,10.752-25.935,15.154s6.6,40.112,19.935,44.758,28.253,0,28.253,0,15.651-38.637,11-45.974-25.677-13.939-25.677-13.939Z" transform="translate(-530.814 -1284.565)" fill="url(#linear-gradient-9)"/>
      <path id="Trazado_107227" data-name="Trazado 107227" d="M500.686,1348.433c-23.014,12.332-28.666,34.6-22.579,39.5,4.265,3.439,20.346,11.045,34.285,10.556a227.318,227.318,0,0,1,27.03.823s23.911-4.865,28.68-12.031-8.462-30.444-20.325-37.172S500.686,1348.433,500.686,1348.433Z" transform="translate(-463.906 -1310.734)" fill="url(#linear-gradient-10)"/>
      <path id="Trazado_107228" data-name="Trazado 107228" d="M687.754,1258.966a5.805,5.805,0,0,1-5.788-5.788V1233.7a5.788,5.788,0,1,1,11.576,0v19.48A5.805,5.805,0,0,1,687.754,1258.966Z" transform="translate(-629.031 -1215.645)" fill="#f09959"/>
      <path id="Trazado_107229" data-name="Trazado 107229" d="M687.754,1227.909a5.805,5.805,0,0,0-5.788,5.788v15.93c3.413,2.851,6.717,1.357,11.576-2.408V1233.7A5.805,5.805,0,0,0,687.754,1227.909Z" transform="translate(-629.031 -1215.645)" fill="#e38540"/>
      <path id="Trazado_107230" data-name="Trazado 107230" d="M758.128,1241.638c-.951,1.942-2.5,3.019-3.45,2.405s-.957-2.685-.006-4.626,2.5-3.018,3.45-2.405S759.079,1239.7,758.128,1241.638Z" transform="translate(-686.702 -1222.799)" fill="#f09959"/>
      <path id="Trazado_107231" data-name="Trazado 107231" d="M646.144,1242.49c1.1,1.767,1.311,3.9.472,4.768s-2.411.137-3.511-1.629-1.311-3.9-.472-4.768S645.045,1240.724,646.144,1242.49Z" transform="translate(-597.112 -1225.728)" fill="#f09959"/>
      <path id="Trazado_107232" data-name="Trazado 107232" d="M682.242,1208.726c0,7.079-4.456,12.817-9.954,12.817s-9.954-5.739-9.954-12.817,4.457-12.817,9.954-12.817S682.242,1201.647,682.242,1208.726Z" transform="translate(-613.304 -1190.012)" fill="#f09959"/>
      <path id="Trazado_107233" data-name="Trazado 107233" d="M794.414,1419.778c6.521,3.478,12.2,16.658,12.2,16.658s-14.673,2.282-17.717,4.565.435-.87,2.174-7.173S794.414,1419.778,794.414,1419.778Z" transform="translate(-713.726 -1369.341)" fill="#fb8627"/>
      <path id="Trazado_107234" data-name="Trazado 107234" d="M533.3,1415c1.522,6.956,8.8,26.376,8.8,26.376s-6.745-7.682-13.912-8.117-9.827-.543-9.782,1.2c.009.344,1.2-7.717,6.739-12.717A83.608,83.608,0,0,1,533.3,1415Z" transform="translate(-498.016 -1365.516)" fill="#fb8627"/>
      <path id="Trazado_107235" data-name="Trazado 107235" d="M622.229,1494.871H582.851a3.248,3.248,0,0,1-3.2-2.711l-4.748-28.338a3.248,3.248,0,0,1,3.2-3.785h48.874a3.248,3.248,0,0,1,3.2,3.785l-4.748,28.338A3.248,3.248,0,0,1,622.229,1494.871Z" transform="translate(-543.23 -1401.591)" fill="#2a66c6"/>
      <path id="Trazado_107236" data-name="Trazado 107236" d="M622.229,1499.932H582.851a3.216,3.216,0,0,1-3.2-2.613L574.9,1470a3.169,3.169,0,0,1,3.2-3.648h48.874a3.168,3.168,0,0,1,3.2,3.648l-4.748,27.315A3.216,3.216,0,0,1,622.229,1499.932Z" transform="translate(-543.23 -1406.651)" fill="url(#linear-gradient-11)"/>
      <path id="Trazado_107237" data-name="Trazado 107237" d="M611.744,1677.511c-.235-.041-25.432-6.347-31.057-1.7s18.83,4.725,23.231,3.707S611.744,1677.511,611.744,1677.511Z" transform="translate(-547.232 -1573.067)" fill="#0f2d5c"/>
      <path id="Trazado_107238" data-name="Trazado 107238" d="M768.419,1683.188a19.266,19.266,0,0,1,12.471-3.32c7.092.733,13.205,2.28,7.092,4.2a44.936,44.936,0,0,1-15.406,1.917A5.323,5.323,0,0,1,768.419,1683.188Z" transform="translate(-698.283 -1577.614)" fill="#0f2d5c"/>
      <path id="Trazado_107239" data-name="Trazado 107239" d="M681.081,1166.915c-6.466,1.962-4.215,20.164,3.177,19.564s7.692-8.47,7.168-13.567S687.752,1164.891,681.081,1166.915Z" transform="translate(-625.274 -1166.268)" fill="#0f2d5c"/>
      <path id="Trazado_107240" data-name="Trazado 107240" d="M655.9,1185.1c-1.8-1.724-4.273,3.7-3.3,6.086s-.389,3.772.93,6.339-2.429-1.631-2.954-4.7-.824-8.4-1.574-10.794.038-6.558,3.378-7.421,4.118-2.4,5.392-2.473,7.346.525,10.344,2.174a7.8,7.8,0,0,1,4.422,7.871c-.225,3.748-1.2,13.343-2.1,14.917s-1.365,1.2-1.095.3,1.245-6.3.5-8.246-.375-6.746-2.324-7.121-1.5,2.948-3.823,3.2A67.151,67.151,0,0,1,655.9,1185.1Z" transform="translate(-602.419 -1170.96)" fill="#0f2d5c"/>
    </g>
    <g id="Grupo_60238" data-name="Grupo 60238" transform="translate(567.878 270.319)">
      <path id="Trazado_107241" data-name="Trazado 107241" d="M2093.108,1641.111s-1.568,6.054-6.9,7.584-10.535,4.5-3.04,4.588a92.216,92.216,0,0,0,16.349-.86c3.417-.574,1.178-6.6.635-9.464S2093.108,1641.111,2093.108,1641.111Z" transform="translate(-2038.582 -1433.635)" fill="#0f2d5c"/>
      <path id="Trazado_107242" data-name="Trazado 107242" d="M2346.306,1606.844s1.051,11.132-1.625,12.088-5.736,3.25-1.912,3.25,8.555.9,9.792-3.25c1.509-5.067,4.923-5.921,3.706-8.5a59.606,59.606,0,0,0-4.894-7.368Z" transform="translate(-2248.094 -1403.298)" fill="#0f2d5c"/>
      <path id="Trazado_107243" data-name="Trazado 107243" d="M2087.358,1032.44l10.556,123.685s5.484,2.534,9.438,2.917,12.128-54.091,11.435-64.392,7.143-43.011,5.328-53.613S2087.358,1032.44,2087.358,1032.44Z" transform="translate(-2044.94 -946.082)" fill="#0e3a82"/>
      <path id="Trazado_107244" data-name="Trazado 107244" d="M2111.057,1035.522q-1.116-.15-2.246-.268l-18.237,7.057,3.364,39.415c8.74,19.21,18.322,36.657,23.575,48.378,2.393-13.939,4.172-28.288,3.849-33.08-.334-4.96,1.311-15.118,2.9-25.5Z" transform="translate(-2047.516 -948.458)" fill="#0f2d5c"/>
      <path id="Trazado_107245" data-name="Trazado 107245" d="M2113.521,1099.391c10.235,45.494,50.47,100.926,50.427,100.926s7.522-1.306,7.9-4.748-4.3-37.7-14.53-47.662-10.933-57.246-10.933-57.246Z" transform="translate(-2065.897 -992.841)" fill="#0e3a82"/>
      <path id="Trazado_107246" data-name="Trazado 107246" d="M2234.812,814.879c11.513,11.578,18.9,31.487,19,36.414s-13.273,13.718-13.273,13.718Z" transform="translate(-2163.057 -771.927)" fill="#fb8627"/>
      <path id="Trazado_107247" data-name="Trazado 107247" d="M2131.189,686.455l4.558,22.684-12.468,13.423-1.658-27.507Z" transform="translate(-2072.386 -669.054)" fill="#f09959"/>
      <path id="Trazado_107248" data-name="Trazado 107248" d="M2092.609,764.9s5.88,2.064,12.425,18.68,11.092,57.56,11.092,57.56a51.278,51.278,0,0,1-30.58,10.674c-11.475,0-17.268-2.581-17.268-2.581s-1.147-38.592,0-52.521S2086.928,764.545,2092.609,764.9Z" transform="translate(-2029.247 -731.885)" fill="url(#linear-gradient-12)"/>
      <path id="Trazado_107249" data-name="Trazado 107249" d="M2126.4,707.152c3.7-4.315,5.079-10.909,5.588-15.108l-.72-3.584-.927.363-8.72,7.838.853,14.151A22.178,22.178,0,0,0,2126.4,707.152Z" transform="translate(-2072.386 -670.66)" fill="#e38540"/>
      <path id="Trazado_107250" data-name="Trazado 107250" d="M2078.719,653.734c-1.431,6.752-6.775,11.338-11.936,10.244s-8.184-7.454-6.753-14.205,6.775-11.338,11.935-10.244S2080.15,646.982,2078.719,653.734Z" transform="translate(-2022.765 -631.335)" fill="#f09959"/>
      <path id="Trazado_107251" data-name="Trazado 107251" d="M2116.136,739.073l3.907,6.6-20.7,15.479s1.559-7.174,1.977-9.814S2115.807,738.518,2116.136,739.073Z" transform="translate(-2054.536 -711.186)" fill="url(#linear-gradient-13)"/>
      <path id="Trazado_107252" data-name="Trazado 107252" d="M2043.669,602.6c-8.7,2.734-1.587,13.693,1.206,13.793s3.813-2.5,6.107-1.9,4.461-3.479,5.863-2.586.51,9.177,0,10.579,1.785,1.529,1.785,1.529.934-5.863,2.379-5.481,2.516,4.461,4.594,5.481l2.077,1.02s1.274-8.848,3.186-10.542.714-7.557-2-8.7-3.37-6.373-7.121-6.755-6.81,2.167-11.781,1.53S2046.1,601.837,2043.669,602.6Z" transform="translate(-2006.59 -598.994)" fill="#153f9c"/>
      <path id="Trazado_107253" data-name="Trazado 107253" d="M2146.838,687.682c-.715,1.683-2.307,2.618-3.554,2.088s-1.679-2.325-.964-4.008,2.307-2.618,3.555-2.088S2147.554,686,2146.838,687.682Z" transform="translate(-2088.69 -666.708)" fill="#f09959"/>
      <path id="Trazado_107254" data-name="Trazado 107254" d="M2096.841,826.944s-21.334,23.727-29.015,31.066c-.1,6.833-.051,14.795.05,21.871,4.161-2.048,15.724-8.035,22.306-14.383C2098.31,857.66,2101.936,839.688,2096.841,826.944Z" transform="translate(-2029.248 -781.592)" fill="#fb8627"/>
      <path id="Trazado_107255" data-name="Trazado 107255" d="M1887.191,950.036s-5.1-6.318-7.137-5.71a10.8,10.8,0,0,1-4.589.608c-1.784-.1-1.912,2.481.637,7.118s9.432,5.567,11.089,5.485S1887.191,950.036,1887.191,950.036Z" transform="translate(-1874.153 -875.587)" fill="#f09959"/>
      <path id="Trazado_107256" data-name="Trazado 107256" d="M1982.117,800.005c8.251,2.194,5.566,23.109.917,31.744-3.341,6.207-14.505,12.535-21.325,14.31s-33.9-3.534-33.9-3.534-1.089-9.752.971-9.752,23.979,1.055,30.541-4.878S1972.154,797.356,1982.117,800.005Z" transform="translate(-1916.907 -759.854)" fill="url(#linear-gradient-14)"/>
      <g id="Grupo_60237" data-name="Grupo 60237" transform="translate(0.83 64.913)">
        <path id="Trazado_107257" data-name="Trazado 107257" d="M1883.936,933.44a1.191,1.191,0,0,1-.95-.469l-4.419-5.789a1.194,1.194,0,0,1,1.9-1.449l4.419,5.789a1.193,1.193,0,0,1-.948,1.918Z" transform="translate(-1878.323 -925.264)" fill="#fb8627"/>
      </g>
    </g>
  </g>
</svg>
