<svg xmlns="http://www.w3.org/2000/svg" width="396" height="368.783" viewBox="0 0 396 368.783">
  <g id="Grupo_60098" data-name="Grupo 60098" transform="translate(-271.927 -180.59)">
    <g id="Grupo_60042" data-name="Grupo 60042" transform="translate(601.208 311.754)">
      <path id="Trazado_106929" data-name="Trazado 106929" d="M437.035,249.754a3.4,3.4,0,1,1,3.394,3.4A3.4,3.4,0,0,1,437.035,249.754Zm1.518,0a1.878,1.878,0,1,0,1.877-1.879A1.88,1.88,0,0,0,438.553,249.754Z" transform="translate(-437.035 -246.358)" fill="#0cf"/>
    </g>
    <g id="floor" transform="translate(315.013 477.511)">
      <path id="Trazado_106930" data-name="Trazado 106930" d="M293.531,332.982h0a3.355,3.355,0,0,0,3.173,3.512H620.77a3.355,3.355,0,0,0,3.173-3.512h0a3.354,3.354,0,0,0-3.173-3.51H296.7A3.354,3.354,0,0,0,293.531,332.982Z" transform="translate(-293.531 -329.472)" fill="#ff9800"/>
    </g>
    <g id="Grupo_60047" data-name="Grupo 60047" transform="translate(609.278 180.59)">
      <g id="Grupo_60043" data-name="Grupo 60043">
        <path id="Trazado_106931" data-name="Trazado 106931" d="M441.09,218.949l1.5-.032A36.052,36.052,0,0,1,479.559,182.1l.038-1.5a37.551,37.551,0,0,0-38.507,38.349Z" transform="translate(-441.081 -180.59)" fill="#fdc82f"/>
      </g>
      <g id="Grupo_60044" data-name="Grupo 60044" transform="translate(10.079 9.378)">
        <path id="Trazado_106932" data-name="Trazado 106932" d="M446.143,215.486l1.5-.034A28.057,28.057,0,0,1,476.414,186.8l.038-1.5a29.556,29.556,0,0,0-30.31,30.184Z" transform="translate(-446.135 -185.292)" fill="#fdc82f"/>
      </g>
      <g id="Grupo_60045" data-name="Grupo 60045" transform="translate(19.449 18.727)">
        <path id="Trazado_106933" data-name="Trazado 106933" d="M450.838,209.471l1.5-.032a17.581,17.581,0,0,1,18.031-17.957l.04-1.5a19.08,19.08,0,0,0-19.566,19.485Z" transform="translate(-450.834 -189.98)" fill="#fdc82f"/>
      </g>
      <g id="Grupo_60046" data-name="Grupo 60046" transform="translate(31.474 30.941)">
        <path id="Trazado_106934" data-name="Trazado 106934" d="M458.413,205.152h0a5.306,5.306,0,1,1,3.749,1.552A5.308,5.308,0,0,1,458.413,205.152Zm1.057-6.44a3.811,3.811,0,0,0,0,5.383h0a3.8,3.8,0,1,0,0-5.383Z" transform="translate(-456.863 -196.104)" fill="#fdc82f"/>
      </g>
    </g>
    <g id="Grupo_60050" data-name="Grupo 60050" transform="translate(292.05 280.675)">
      <g id="laptop" transform="translate(0 0)">
        <g id="Grupo_60049" data-name="Grupo 60049">
          <rect id="Rectángulo_8200" data-name="Rectángulo 8200" width="116.926" height="79.576" rx="0.81" transform="translate(0 116.926) rotate(-90)" fill="#1e2c4f"/>
          <rect id="Rectángulo_8201" data-name="Rectángulo 8201" width="72.464" height="105.323" transform="translate(76.02 111.995) rotate(180)" fill="#ffd494"/>
          <rect id="Rectángulo_8202" data-name="Rectángulo 8202" width="72.464" height="5.011" transform="translate(3.556 6.611)" fill="#eee"/>
          <path id="Trazado_106935" data-name="Trazado 106935" d="M301.371,232.949a1.19,1.19,0,1,1,1.191,1.189A1.19,1.19,0,0,1,301.371,232.949Z" transform="translate(-262.773 -229.797)"/>
          <g id="Grupo_60048" data-name="Grupo 60048" transform="translate(7.008 8.044)">
            <path id="Trazado_106936" data-name="Trazado 106936" d="M287.483,235.783a.976.976,0,1,0-.977.975A.976.976,0,0,0,287.483,235.783Z" transform="translate(-285.531 -234.808)" fill="#c70029"/>
            <path id="Trazado_106937" data-name="Trazado 106937" d="M290.333,235.783a.975.975,0,1,0-.975.975A.975.975,0,0,0,290.333,235.783Z" transform="translate(-282.695 -234.808)" fill="#7fe600"/>
            <path id="Trazado_106938" data-name="Trazado 106938" d="M288.909,235.783a.976.976,0,1,0-.977.975A.977.977,0,0,0,288.909,235.783Z" transform="translate(-284.113 -234.808)" fill="#ffc800"/>
          </g>
        </g>
      </g>
    </g>
    <g id="Grupo_60056" data-name="Grupo 60056" transform="translate(339.226 298.361)">
      <g id="Grupo_60051" data-name="Grupo 60051" transform="translate(0 48.349)">
        <path id="Trazado_106939" data-name="Trazado 106939" d="M313.841,324.962l-7.921.151,4.628,8.732h221l4.628-8.782-1.139-.1Z" transform="translate(-305.425 -203.155)" fill="#1e2c4f"/>
        <path id="Trazado_106940" data-name="Trazado 106940" d="M405.456,325.2c-1.546,2.686-3.735,4.274-6.075,4.274h-44.55c-2.337,0-4.527-1.587-6.073-4.274Z" transform="translate(-262.829 -202.919)"/>
        <path id="Rectángulo_8203" data-name="Rectángulo 8203" d="M.5,0H162.34a.5.5,0,0,1,.5.5V108.082a2.741,2.741,0,0,1-2.741,2.741H2.741A2.741,2.741,0,0,1,0,108.083V.5A.5.5,0,0,1,.5,0Z" transform="translate(197.041 110.824) rotate(180)" fill="#3c589e"/>
        <rect id="Rectángulo_8204" data-name="Rectángulo 8204" width="153.895" height="97.895" transform="translate(192.568 102.872) rotate(180)" fill="#fff"/>
        <rect id="Rectángulo_8205" data-name="Rectángulo 8205" width="153.895" height="97.895" transform="translate(192.568 102.872) rotate(180)" fill="#fff"/>
        <rect id="Rectángulo_8206" data-name="Rectángulo 8206" width="153.895" height="97.895" transform="translate(192.568 102.872) rotate(180)" fill="#1c9ae8"/>
        <rect id="Rectángulo_8207" data-name="Rectángulo 8207" width="153.895" height="4.785" transform="translate(38.673 4.977)" fill="#cecece"/>
        <path id="Trazado_106941" data-name="Trazado 106941" d="M362.816,265.958a1.656,1.656,0,1,1,1.655,1.655A1.657,1.657,0,0,1,362.816,265.958Z" transform="translate(-248.852 -263.473)"/>
        <path id="Trazado_106942" data-name="Trazado 106942" d="M307.989,330.877H534.6c2.042,0,3.081-.732,1.663-1.171L502.878,319.4H339.707l-33.381,10.309C304.908,330.145,305.947,330.877,307.989,330.877Z" transform="translate(-305.672 -208.688)" fill="#3c589e"/>
        <path id="Trazado_106943" data-name="Trazado 106943" d="M340.254,325.7h93.3l-7.506-2.9h-78.56Z" transform="translate(-271.286 -205.303)" fill="#92b0e3"/>
        <path id="Trazado_106944" data-name="Trazado 106944" d="M508.579,324.492H315.152l15.293-4.84h162.84Z" transform="translate(-296.245 -208.436)" fill="#92b0e3"/>
        <path id="Trazado_106945" data-name="Trazado 106945" d="M328.486,268.222a1.359,1.359,0,1,0-1.36,1.358A1.361,1.361,0,0,0,328.486,268.222Z" transform="translate(-285.69 -260.927)" fill="#bd4d37"/>
        <path id="Trazado_106946" data-name="Trazado 106946" d="M332.456,268.222a1.358,1.358,0,1,0-1.358,1.358A1.36,1.36,0,0,0,332.456,268.222Z" transform="translate(-281.74 -260.927)" fill="#12d8d3"/>
        <path id="Trazado_106947" data-name="Trazado 106947" d="M330.47,268.222a1.358,1.358,0,1,0-1.358,1.358A1.359,1.359,0,0,0,330.47,268.222Z" transform="translate(-283.715 -260.927)" fill="#ff8c00"/>
      </g>
      <g id="Grupo_60055" data-name="Grupo 60055" transform="translate(56.456)">
        <g id="Grupo_60052" data-name="Grupo 60052" transform="translate(28.33)">
          <rect id="Rectángulo_8208" data-name="Rectángulo 8208" width="59.236" height="77.78" fill="#fff"/>
          <path id="Trazado_106948" data-name="Trazado 106948" d="M395.864,316.4H359.808l29.36-4.121,6.7-71.6Z" transform="translate(-336.628 -238.615)" fill="#b3c9e2"/>
          <rect id="Rectángulo_8209" data-name="Rectángulo 8209" width="46.874" height="1.03" transform="translate(6.181 13.393)" fill="#b3c9e2"/>
          <rect id="Rectángulo_8210" data-name="Rectángulo 8210" width="46.874" height="1.03" transform="translate(6.181 22.664)" fill="#b3c9e2"/>
          <rect id="Rectángulo_8211" data-name="Rectángulo 8211" width="46.874" height="1.03" transform="translate(6.181 31.936)" fill="#b3c9e2"/>
          <rect id="Rectángulo_8212" data-name="Rectángulo 8212" width="46.874" height="1.03" transform="translate(6.181 41.208)" fill="#b3c9e2"/>
          <rect id="Rectángulo_8213" data-name="Rectángulo 8213" width="46.874" height="1.03" transform="translate(6.181 50.479)" fill="#b3c9e2"/>
          <rect id="Rectángulo_8214" data-name="Rectángulo 8214" width="46.874" height="1.03" transform="translate(6.181 59.751)" fill="#b3c9e2"/>
        </g>
        <g id="Grupo_60054" data-name="Grupo 60054" transform="translate(0 65.074)">
          <path id="Trazado_106949" data-name="Trazado 106949" d="M443.523,283.261H392.358V282.23a9.96,9.96,0,0,0-9.96-9.958H343.938a9.958,9.958,0,0,0-9.958,9.958V335.8a9.272,9.272,0,0,0,9.272,9.272H443.523a9.272,9.272,0,0,0,9.272-9.272V292.532A9.272,9.272,0,0,0,443.523,283.261Z" transform="translate(-333.98 -272.272)" fill="#fdc82f"/>
          <g id="Grupo_60053" data-name="Grupo 60053" transform="translate(9.271 15.797)">
            <rect id="Rectángulo_8215" data-name="Rectángulo 8215" width="41.379" height="101.99" transform="translate(101.99 0) rotate(90)" fill="#fff"/>
          </g>
          <path id="Trazado_106950" data-name="Trazado 106950" d="M452.794,318.919V295.186c0-6.522-4.15-11.809-9.272-11.809H343.252c-5.121,0-9.272,5.287-9.272,11.809v23.733Z" transform="translate(-333.98 -261.229)" fill="#fdc82f"/>
        </g>
      </g>
    </g>
    <g id="Grupo_60057" data-name="Grupo 60057" transform="translate(431.562 494.459)">
      <path id="Trazado_106951" data-name="Trazado 106951" d="M434.791,382.641V373.3H372.3V357.612h62.489v-9.341l28.76,17.185Zm-61.4-10.43h62.489v8.514l25.552-15.269-25.552-15.269V358.7H373.39Z" transform="translate(-331.754 -327.727)" fill="#fdc82f"/>
      <path id="Trazado_106952" data-name="Trazado 106952" d="M380.729,372.34l-28.758-17.185,28.758-17.185v9.343H443.22V363H380.729Zm-26.638-17.185,25.551,15.269V361.91h62.488V348.4H379.642v-8.512Z" transform="translate(-351.971 -337.97)" fill="#fdc82f"/>
    </g>
    <g id="Grupo_60058" data-name="Grupo 60058" transform="translate(411.05 402.687)">
      <path id="Trazado_106953" data-name="Trazado 106953" d="M409.153,309.616a24.714,24.714,0,1,0-16.627,30.745A24.713,24.713,0,0,0,409.153,309.616Zm-40.966,12.209a18.037,18.037,0,1,1,22.55,12.532A18.245,18.245,0,0,1,368.187,321.826Z" transform="translate(-322.733 -291.953)" fill="#fff"/>
      <rect id="Rectángulo_8216" data-name="Rectángulo 8216" width="11.82" height="19.342" transform="translate(41.481 24.889) rotate(73.407)" fill="#fff"/>
      <rect id="Rectángulo_8217" data-name="Rectángulo 8217" width="17.303" height="31.504" rx="1.556" transform="translate(30.192 25.219) rotate(73.405)" fill="#fff"/>
      <path id="Trazado_106954" data-name="Trazado 106954" d="M370.836,298.381a1.065,1.065,0,0,1,.66-.562,14.048,14.048,0,0,1,17.351,9.625,1.075,1.075,0,0,1-2.06.614,11.9,11.9,0,0,0-14.678-8.179,1.075,1.075,0,0,1-1.336-.724A1.063,1.063,0,0,1,370.836,298.381Z" transform="translate(-312.809 -286.685)" fill="#fff"/>
    </g>
    <g id="Grupo_60063" data-name="Grupo 60063" transform="translate(271.927 433.759)">
      <g id="Grupo_60059" data-name="Grupo 60059" transform="translate(29.736)">
        <path id="Trazado_106955" data-name="Trazado 106955" d="M301.988,315.108a7.575,7.575,0,1,0-7.575,7.577A7.574,7.574,0,0,0,301.988,315.108Z" transform="translate(-286.837 -307.534)" fill="#fdc82f"/>
      </g>
      <g id="Grupo_60060" data-name="Grupo 60060" transform="translate(0 40.152)">
        <path id="Trazado_106956" data-name="Trazado 106956" d="M282.18,332.792a5.126,5.126,0,1,0-5.127,5.127A5.127,5.127,0,0,0,282.18,332.792Z" transform="translate(-271.927 -327.667)" fill="#fdc82f"/>
      </g>
      <g id="Grupo_60061" data-name="Grupo 60061" transform="translate(31.879 68.485)">
        <path id="Trazado_106957" data-name="Trazado 106957" d="M301.621,348.772a6.855,6.855,0,1,0-6.857,6.9A6.878,6.878,0,0,0,301.621,348.772Z" transform="translate(-287.912 -341.874)" fill="#fdc82f"/>
      </g>
      <g id="Grupo_60062" data-name="Grupo 60062" transform="translate(2.802 7.174)">
        <path id="Trazado_106958" data-name="Trazado 106958" d="M309.372,381.74c-.279-.092-1.133-.377-35.32-32.408l-.72-.674,32.524-37.527,1.55,1.342-31.233,36.038c13.226,12.387,32.7,30.5,34.021,31.365a.863.863,0,0,0-.173-.08Z" transform="translate(-273.332 -311.131)" fill="#fdc82f"/>
      </g>
    </g>
    <g id="Grupo_60065" data-name="Grupo 60065" transform="translate(306.545 316.705)">
      <g id="Grupo_60064" data-name="Grupo 60064" transform="translate(0 0)">
        <path id="Rectángulo_8218" data-name="Rectángulo 8218" d="M.654,0h40.98a.653.653,0,0,1,.653.653V26.482a.654.654,0,0,1-.654.654H.654A.654.654,0,0,1,0,26.482V.654A.654.654,0,0,1,.654,0Z" transform="translate(0 16.154) rotate(-22.458)" fill="#fff"/>
        <path id="Trazado_106959" data-name="Trazado 106959" d="M335.852,275.651l-33.088,13.675a3.94,3.94,0,0,1-5.141-2.134l-7.89-19.084a3.944,3.944,0,0,1,2.134-5.143l33.088-13.677a3.941,3.941,0,0,1,5.143,2.136l7.888,19.084A3.942,3.942,0,0,1,335.852,275.651Zm-43.453-11.4a2.55,2.55,0,0,0-1.382,3.329l7.89,19.084a2.547,2.547,0,0,0,3.327,1.38l33.088-13.675a2.549,2.549,0,0,0,1.38-3.327l-7.888-19.086a2.552,2.552,0,0,0-3.329-1.382Z" transform="translate(-289.136 -248.692)" fill="#fdc82f"/>
      </g>
      <path id="Trazado_106960" data-name="Trazado 106960" d="M316.083,272.351l-25.747-6.025a1.042,1.042,0,1,1,.475-2.028L315,269.958c4.1-7.69,10.666-19.848,11.489-20.56a1.041,1.041,0,0,1,1.414,1.528c-.842,1.039-7.453,13.234-11.443,20.719Z" transform="translate(-289.04 -248.539)" fill="#fdc82f"/>
    </g>
    <g id="Grupo_60068" data-name="Grupo 60068" transform="translate(519.069 217.309)">
      <g id="Grupo_60066" data-name="Grupo 60066" transform="translate(2.693)">
        <path id="Trazado_106961" data-name="Trazado 106961" d="M517.87,258.978a6.891,6.891,0,0,0,7.024-7.036l0-.076c-.451-8.1-7.622-14.325-16.342-14.634a25.382,25.382,0,0,0-25.5-23.1,25.966,25.966,0,0,0-8.783,1.548c-6.448-11.2-18.456-18.065-31.159-16.441-12.933,1.653-22.889,11.615-26,24.391a25.192,25.192,0,0,0-19.9,24.433,23.953,23.953,0,0,0,.708,5.786,6.938,6.938,0,0,0,6.8,5.131Z" transform="translate(-397.199 -199.001)" fill="#fff1db"/>
        <path id="Trazado_106962" data-name="Trazado 106962" d="M498.54,253.01a5.032,5.032,0,0,0,5.082-5.175l0-.056c-.325-5.961-5.492-10.536-11.773-10.763a18.383,18.383,0,0,0-24.7-15.851c-4.645-8.243-13.3-13.286-22.446-12.092-9.318,1.215-16.491,8.542-18.731,17.937a18.441,18.441,0,0,0-14.339,17.971,17.943,17.943,0,0,0,.481,4.13,5.075,5.075,0,0,0,4.946,3.9Z" transform="translate(-382.851 -189.16)" fill="#ffd494"/>
      </g>
      <g id="Grupo_60067" data-name="Grupo 60067" transform="translate(0 75.275)">
        <rect id="Rectángulo_8219" data-name="Rectángulo 8219" width="128.384" height="11.103" fill="#fff"/>
        <path id="Trazado_106963" data-name="Trazado 106963" d="M404.531,240.914a2.775,2.775,0,1,1-2.776-2.776A2.775,2.775,0,0,1,404.531,240.914Z" transform="translate(-392.734 -235.361)" fill="#3c589e"/>
        <path id="Trazado_106964" data-name="Trazado 106964" d="M410.1,240.914a2.776,2.776,0,1,1-2.776-2.776A2.775,2.775,0,0,1,410.1,240.914Z" transform="translate(-387.199 -235.361)" fill="#3c589e"/>
        <path id="Trazado_106965" data-name="Trazado 106965" d="M415.666,240.914a2.775,2.775,0,1,1-2.774-2.776A2.775,2.775,0,0,1,415.666,240.914Z" transform="translate(-381.662 -235.361)" fill="#3c589e"/>
        <path id="Trazado_106966" data-name="Trazado 106966" d="M421.235,240.914a2.776,2.776,0,1,1-2.776-2.776A2.775,2.775,0,0,1,421.235,240.914Z" transform="translate(-376.127 -235.361)" fill="#3c589e"/>
        <path id="Trazado_106967" data-name="Trazado 106967" d="M426.8,240.914a2.776,2.776,0,1,1-2.778-2.776A2.777,2.777,0,0,1,426.8,240.914Z" transform="translate(-370.59 -235.361)" fill="#3c589e"/>
        <path id="Trazado_106968" data-name="Trazado 106968" d="M432.37,240.914a2.776,2.776,0,1,1-2.776-2.776A2.775,2.775,0,0,1,432.37,240.914Z" transform="translate(-365.055 -235.361)" fill="#3c589e"/>
      </g>
    </g>
    <g id="Grupo_60090" data-name="Grupo 60090" transform="translate(450.771 303.413)">
      <g id="Grupo_60083" data-name="Grupo 60083" transform="translate(57.26 40.694)">
        <g id="Grupo_60069" data-name="Grupo 60069" transform="translate(0 3.153)">
          <path id="Trazado_106969" data-name="Trazado 106969" d="M438.65,291.887a5.557,5.557,0,0,1-6.474,3.107l-18.785-5.383c-1.221-.347-4.617-1.322-4.617-1.322l1.857-4.427,3.061-7.3c.57-1.364,1.857-4.429,1.857-4.429l4.178,2.365,17.008,9.623a5.556,5.556,0,0,1,2.323,6.795Z" transform="translate(-371.958 -256.24)" fill="#0074a3"/>
          <path id="Trazado_106970" data-name="Trazado 106970" d="M400.092,264.419,391.969,283.8c2.258.945,4.447,1.867,6.777,2.842,11.344,4.757,26.74,9.316,26.74,9.316s6.31-15.055,6.775-16.16Z" transform="translate(-388.669 -263.906)" fill="#0074a3"/>
          <rect id="Rectángulo_8220" data-name="Rectángulo 8220" width="4.059" height="18.724" transform="matrix(-0.922, -0.386, 0.386, -0.922, 3.744, 18.838)" fill="#bcbde8"/>
        </g>
        <g id="Grupo_60070" data-name="Grupo 60070" transform="translate(44.714 13.191)">
          <path id="Trazado_106971" data-name="Trazado 106971" d="M432.539,287.864h14.843l13.056,17.326H442.013Z" transform="translate(-393.043 -250.632)" fill="#4b1441"/>
          <rect id="Rectángulo_8221" data-name="Rectángulo 8221" width="11.32" height="15.107" transform="translate(17.654 12.753) rotate(147.589)" fill="#ff9042"/>
          <path id="Trazado_106972" data-name="Trazado 106972" d="M442.178,320.616l22.584-2.076-33.846-42.208a4.13,4.13,0,0,0-5.744-.945l-6.452,4.625a7.269,7.269,0,0,0-2.674,6.462l.979,5.925a14.872,14.872,0,0,0,3.6,6.95Z" transform="translate(-409.508 -263.801)" fill="#bcbde8"/>
          <path id="Trazado_106973" data-name="Trazado 106973" d="M425.629,275l-10.109,6.438,1.062,5.111,9.047-6.043Z" transform="translate(-409.965 -263.419)" fill="#bcbde8"/>
          <path id="Trazado_106974" data-name="Trazado 106974" d="M421.384,278.026l3.681-2.64a4.13,4.13,0,0,1,5.744.945s8.5,8.322,13.605,12.744c3.646,3.155,10.863,6.256,12.758,6.835A27.146,27.146,0,0,1,475.2,312.747a31.506,31.506,0,0,1,1.6,5.612c-2.329-3.021-3.6-5.247-6.912-7.6a20.781,20.781,0,0,0-11.166-3.58c-3.127,0-9.513,2.429-14.624,4.615a12.4,12.4,0,0,1-13.587-2.587l-9.988-9.856a14.885,14.885,0,0,1-3.6-6.95l-.8-4.892C415.742,285.277,419.545,279.344,421.384,278.026Z" transform="translate(-409.401 -263.802)" fill="#0074a3"/>
          <path id="Trazado_106975" data-name="Trazado 106975" d="M415.981,288.394c0,5.736,2.852,9.906,7.052,13.219a16.833,16.833,0,0,1-3.538-10.295c-.034-.945-1.582-1.9-1.582-2.882s1.444-1.935,1.58-2.866a18.588,18.588,0,0,1,6.607-10.817C421.092,276.769,415.981,282.667,415.981,288.394Z" transform="translate(-409.507 -263.669)" fill="#00597d"/>
        </g>
        <g id="Grupo_60073" data-name="Grupo 60073" transform="translate(38.994)">
          <path id="Trazado_106976" data-name="Trazado 106976" d="M412.3,274.182l.5-5.554s-1.807,2.493-2.3,3.307a1.271,1.271,0,0,0,.485,1.775C411.232,273.841,412.3,274.182,412.3,274.182Z" transform="translate(-409.415 -256.568)" fill="#ffac67"/>
          <path id="Trazado_106977" data-name="Trazado 106977" d="M410.967,285.3a2.47,2.47,0,0,0,2.5,2.736h2.224c1.508,0,5.68-2.449,5.68-2.449a4.832,4.832,0,0,0,2.463-3.959V268.018a2.752,2.752,0,0,0-2.744-2.744h-5.564A3.063,3.063,0,0,0,412.53,268l-.921,10.173a.478.478,0,0,0,.1.423c.1.1.443.074.443.074l-.323,3.58a.884.884,0,0,0-.487.076c-.146.1-.14.4-.14.4Z" transform="translate(-408.785 -259.903)" fill="#ffac67"/>
          <ellipse id="Elipse_4168" data-name="Elipse 4168" cx="0.343" cy="0.829" rx="0.343" ry="0.829" transform="translate(4.213 10.831)" fill="#001821"/>
          <g id="Grupo_60071" data-name="Grupo 60071" transform="translate(3.813 10.66)">
            <path id="Trazado_106978" data-name="Trazado 106978" d="M416.039,269.926a.17.17,0,0,1-.171-.172c0-1.191-3.428-1.486-3.917-1.486a.172.172,0,1,1,0-.343c.042,0,4.26.166,4.26,1.829A.172.172,0,0,1,416.039,269.926Z" transform="translate(-411.779 -267.926)" fill="#001821"/>
          </g>
          <path id="Trazado_106979" data-name="Trazado 106979" d="M411.385,275.573H412.8a3.2,3.2,0,0,0,2.188-.866l2.892-2.714h-6.172Z" transform="translate(-408.358 -253.222)" fill="#fff"/>
          <path id="Trazado_106980" data-name="Trazado 106980" d="M409.867,266.408a3.835,3.835,0,0,0,3.821,3.829h1.29a5.187,5.187,0,0,0,2.429-.547,8.459,8.459,0,0,1,3.51-.6c2.2,0,3.995.515,3.995,1.147v-2.629l-3.945-2.627H416.5a2.262,2.262,0,0,1-2.264-2.266.522.522,0,0,1,.006-.1,3.824,3.824,0,0,0-4.376,3.787Z" transform="translate(-409.867 -262.581)" fill="#4b1441"/>
          <path id="Trazado_106981" data-name="Trazado 106981" d="M417.411,273.541a5.723,5.723,0,0,0,5.722,5.724,5.382,5.382,0,0,0,1.111-.112,5.714,5.714,0,0,0,4.6-5.612c-1.757,0-3.38-5.219-3.38-5.219a5.727,5.727,0,0,0-8.055,5.219Z" transform="translate(-402.366 -257.365)" fill="#4b1441"/>
          <path id="Trazado_106982" data-name="Trazado 106982" d="M416.871,270.789a5.723,5.723,0,0,0,1.083,3.355c0-.114-.006-6.695-.006-6.695A5.684,5.684,0,0,0,416.871,270.789Z" transform="translate(-402.903 -257.741)" fill="#4b1441"/>
          <path id="Trazado_106983" data-name="Trazado 106983" d="M411.842,266.607h11.224V277.56a5.723,5.723,0,0,0,5.722,5.724,5.385,5.385,0,0,0,1.111-.112,12.686,12.686,0,0,0-10.777-19.387C415.264,263.785,410.951,266.607,411.842,266.607Z" transform="translate(-408.021 -261.384)" fill="#4b1441"/>
          <path id="Trazado_106984" data-name="Trazado 106984" d="M417.411,271.475a2.149,2.149,0,1,0,2.148-2.148A2.149,2.149,0,0,0,417.411,271.475Z" transform="translate(-402.366 -255.873)" fill="#ffac67"/>
          <g id="Grupo_60072" data-name="Grupo 60072" transform="translate(15.819 14.228)">
            <path id="Trazado_106985" data-name="Trazado 106985" d="M419.773,271.935a.783.783,0,0,1-.772-.846.172.172,0,0,1,.343,0c0,.7.86.692.86,0a1.031,1.031,0,0,0-2.062,0,.172.172,0,1,1-.343,0,1.374,1.374,0,1,1,2.748,0A.783.783,0,0,1,419.773,271.935Z" transform="translate(-417.799 -269.715)" fill="#ff9042"/>
          </g>
        </g>
        <g id="Grupo_60077" data-name="Grupo 60077" transform="translate(120.589 108.123)">
          <path id="Trazado_106986" data-name="Trazado 106986" d="M489.364,342.5l.247-.321L457.563,317.36l-6.783,8.761,17.357,13.442s1.095.221,2.772.566c.818.164,1.787.359,2.828.572.128.026.225.046.321.07,2.539.519,5.462,1.113,8.015,1.625,1.958.407,3.7.762,4.866,1A2.442,2.442,0,0,0,489.364,342.5Z" transform="translate(-450.78 -316.235)" fill="#661f59"/>
          <path id="Trazado_106987" data-name="Trazado 106987" d="M462.964,324.185s.277-.355.369-.475a1.675,1.675,0,0,0-.3-2.347l-5.445-4.216a1.673,1.673,0,0,0-2.347.3l-1.759,2.273,12.768,9.888,10.907,5.57,1.394-1.8-10.907-5.572Z" transform="translate(-448.092 -316.796)" fill="#4b1441"/>
          <path id="Trazado_106988" data-name="Trazado 106988" d="M474.713,331.279l-7.965-6.168-1.394,1.8,9.766,7.561h0A2.274,2.274,0,0,0,474.713,331.279Z" transform="translate(-436.288 -308.528)" fill="#4b1441"/>
          <path id="Trazado_106989" data-name="Trazado 106989" d="M472.033,332.047c.261-1.256-.209-2.419-1.047-2.591l-8.125-1.667c-.84-.172-1.729.71-1.984,1.968.81.185,2.86.6,2.86.6C463.825,330.378,469.48,331.535,472.033,332.047Z" transform="translate(-440.74 -305.886)" fill="#4b1441"/>
          <g id="Grupo_60074" data-name="Grupo 60074" transform="translate(22.076 22.939)">
            <path id="Trazado_106990" data-name="Trazado 106990" d="M463.051,329.9l-.11-.173-.77-1.159c-.116-.177-.251-.291-.3-.259s0,.2.112.381l.748,1.141S462.956,329.871,463.051,329.9Z" transform="translate(-461.849 -328.298)"/>
            <path id="Trazado_106991" data-name="Trazado 106991" d="M464.025,328.581c-.03-.05-.2,0-.377.116l-1.163.764-.178.116c.09.018.191.034.287.058.04,0,1.175-.748,1.175-.748C463.947,328.77,464.061,328.634,464.025,328.581Z" transform="translate(-461.393 -328.037)"/>
          </g>
          <g id="Grupo_60075" data-name="Grupo 60075" transform="translate(24.98 23.508)">
            <path id="Trazado_106992" data-name="Trazado 106992" d="M464.509,330.178l-.11-.169-.772-1.161c-.114-.176-.249-.289-.3-.259s0,.205.112.383l.746,1.141S464.411,330.156,464.509,330.178Z" transform="translate(-463.306 -328.584)"/>
            <path id="Trazado_106993" data-name="Trazado 106993" d="M465.482,328.866c-.032-.05-.2,0-.377.116l-1.163.766-.177.116c.09.016.189.032.287.054.038.006,1.177-.744,1.177-.744C465.4,329.057,465.518,328.919,465.482,328.866Z" transform="translate(-462.849 -328.322)"/>
          </g>
          <g id="Grupo_60076" data-name="Grupo 60076" transform="translate(28.077 24.153)">
            <path id="Trazado_106994" data-name="Trazado 106994" d="M466.06,330.5l-.11-.172-.768-1.159c-.116-.176-.251-.291-.3-.261s0,.207.114.383l.746,1.143S465.964,330.481,466.06,330.5Z" transform="translate(-464.858 -328.907)"/>
            <path id="Trazado_106995" data-name="Trazado 106995" d="M467.035,329.19c-.03-.052-.2,0-.377.116l-1.165.764-.175.116c.092.018.189.034.285.056.04,0,1.177-.746,1.177-.746C466.957,329.379,467.071,329.244,467.035,329.19Z" transform="translate(-464.401 -328.645)"/>
          </g>
        </g>
        <g id="Grupo_60081" data-name="Grupo 60081" transform="translate(17.94 121.728)">
          <path id="Trazado_106996" data-name="Trazado 106996" d="M399.31,334.292v.407h40.533V323.618H417.889l-2.539,1.248c-.746.371-1.633.81-2.587,1.276-.116.062-.205.1-.293.144-2.327,1.147-5,2.463-7.335,3.624-1.8.878-3.388,1.659-4.459,2.188A2.442,2.442,0,0,0,399.31,334.292Z" transform="translate(-399.31 -323.618)" fill="#661f59"/>
          <path id="Trazado_106997" data-name="Trazado 106997" d="M423.454,330.307v.6a1.674,1.674,0,0,0,1.673,1.673h6.886a1.673,1.673,0,0,0,1.673-1.673v-2.874h-16.15L405.5,330.307v2.273l12.034-2.273Z" transform="translate(-393.152 -319.227)" fill="#4b1441"/>
          <path id="Trazado_106998" data-name="Trazado 106998" d="M401.583,331.447h10.077v-2.273H399.31A2.275,2.275,0,0,0,401.583,331.447Z" transform="translate(-399.31 -318.093)" fill="#4b1441"/>
          <path id="Trazado_106999" data-name="Trazado 106999" d="M402.231,329.278c.562,1.153,1.647,1.783,2.415,1.406l7.443-3.658c.77-.377.933-1.619.365-2.772-.754.351-2.628,1.276-2.628,1.276C409.744,325.572,404.564,328.117,402.231,329.278Z" transform="translate(-396.406 -322.986)" fill="#4b1441"/>
          <g id="Grupo_60078" data-name="Grupo 60078" transform="translate(12.631 2.525)">
            <path id="Trazado_107000" data-name="Trazado 107000" d="M405.909,325.027l.19.07,1.318.443c.2.07.377.078.4.022s-.122-.163-.321-.231l-1.29-.447S406,324.988,405.909,325.027Z" transform="translate(-405.379 -324.884)"/>
            <path id="Trazado_107001" data-name="Trazado 107001" d="M405.685,326.73c.056.02.158-.124.227-.323l.451-1.316.07-.2c-.082.04-.172.09-.259.13-.036.02-.475,1.31-.475,1.31C405.631,326.53,405.625,326.71,405.685,326.73Z" transform="translate(-405.643 -324.877)"/>
          </g>
          <g id="Grupo_60079" data-name="Grupo 60079" transform="translate(9.985 3.855)">
            <path id="Trazado_107002" data-name="Trazado 107002" d="M404.582,325.695l.191.066,1.318.449c.2.068.377.074.4.02s-.124-.165-.321-.233l-1.29-.445S404.672,325.653,404.582,325.695Z" transform="translate(-404.053 -325.551)"/>
            <path id="Trazado_107003" data-name="Trazado 107003" d="M404.359,327.4c.054.02.158-.124.225-.323l.453-1.318.068-.2c-.082.042-.17.09-.259.132-.034.02-.473,1.31-.473,1.31C404.3,327.2,404.3,327.374,404.359,327.4Z" transform="translate(-404.317 -325.545)"/>
          </g>
          <g id="Grupo_60080" data-name="Grupo 60080" transform="translate(7.14 5.241)">
            <path id="Trazado_107004" data-name="Trazado 107004" d="M403.156,326.388l.191.07,1.316.445c.2.07.379.078.4.022s-.122-.166-.321-.233l-1.29-.445S403.246,326.348,403.156,326.388Z" transform="translate(-402.626 -326.246)"/>
            <path id="Trazado_107005" data-name="Trazado 107005" d="M402.932,328.093c.056.02.159-.126.229-.325l.451-1.316.068-.2c-.082.042-.17.09-.259.13-.036.022-.475,1.312-.475,1.312C402.878,327.891,402.872,328.071,402.932,328.093Z" transform="translate(-402.89 -326.24)"/>
          </g>
        </g>
        <path id="Trazado_107006" data-name="Trazado 107006" d="M483.763,356.434,482.4,341.451c-.235-2.6-.828-9.09-.828-9.09L473,334.221l-16.266,3.526a77.921,77.921,0,0,0-3.327-20.089,17.975,17.975,0,0,1-.2-9.734,10.211,10.211,0,0,0-18.839-7.469l-.654,8.372-3.257,41.616a10.017,10.017,0,0,0-.108,1.384c0,.313.012.606.038.9l.181,2a10.418,10.418,0,0,0,9.593,9.367l35.661,1.143,8.765.281S484.017,359.234,483.763,356.434Z" transform="translate(-350.503 -230.189)" fill="#00597d"/>
        <g id="Grupo_60082" data-name="Grupo 60082" transform="translate(28.478 63.482)">
          <path id="Trazado_107007" data-name="Trazado 107007" d="M477.495,303.237a10.2,10.2,0,0,0-6.966-8.825l-8.352.876-42.918,4.5.008.07A10.414,10.414,0,0,0,410,308.522l-4.342,35.415c-.257,2.1-1.067,8.7-1.067,8.7l9.126-.006,15.047-.014,9.124-.006s-.8-6.4-1.081-8.7l-2.491-20.061a76.906,76.906,0,0,0,22.747-7.594,17.978,17.978,0,0,1,9.535-1.964,10.209,10.209,0,0,0,10.893-11.057Z" transform="translate(-404.594 -294.412)" fill="#0074a3"/>
        </g>
      </g>
      <g id="Grupo_60084" data-name="Grupo 60084">
        <path id="Trazado_107008" data-name="Trazado 107008" d="M397.172,242.28l-.333-.1-35.236,11.3v45.874c0,14.73,35.387,35.154,35.569,35.056.182.1.333-.187.333-.187,4.7-2.611,35.236-20.139,35.236-34.869V253.478Z" transform="translate(-361.603 -242.176)" fill="#ec7a20"/>
        <path id="Trazado_107009" data-name="Trazado 107009" d="M380.267,242.28l-.333-.1-1.33.425v90.884a18.6,18.6,0,0,0,1.663.923c.182.1.333-.187.333-.187,4.7-2.611,35.236-20.139,35.236-34.869V253.478Z" transform="translate(-344.698 -242.176)" fill="#ec7a20"/>
        <path id="Trazado_107010" data-name="Trazado 107010" d="M399.872,266.423a13.247,13.247,0,1,0-19.656,11.525l-5.431,17.777h23.683l-5.431-17.777A13.19,13.19,0,0,0,399.872,266.423Z" transform="translate(-349.894 -231.237)" fill="#1e2c4f"/>
      </g>
      <g id="Grupo_60089" data-name="Grupo 60089" transform="translate(37.27 62.712)">
        <g id="Grupo_60085" data-name="Grupo 60085" transform="translate(26.481 14.552)">
          <path id="Trazado_107011" data-name="Trazado 107011" d="M403.392,281.444l-8.286,19.311,6.753,2.9c11.3,4.848,24.772,5.754,33.764,3.811a19.936,19.936,0,0,0,6.5-2.481,10.883,10.883,0,0,0,1.081-.784,6.781,6.781,0,0,0,1.944-2.475,4.147,4.147,0,0,0,.473-2.164Z" transform="translate(-392.041 -280.394)" fill="#008fa8"/>
          <rect id="Rectángulo_8222" data-name="Rectángulo 8222" width="4.059" height="18.725" transform="translate(3.73 18.808) rotate(-156.774)" fill="#bcbde8"/>
          <path id="Trazado_107012" data-name="Trazado 107012" d="M394.454,289.074a1.136,1.136,0,1,0,1.492-.6A1.137,1.137,0,0,0,394.454,289.074Z" transform="translate(-392.783 -273.491)" fill="#4b1441"/>
        </g>
        <g id="Grupo_60086" data-name="Grupo 60086" transform="translate(60.863 6.854)">
          <path id="Trazado_107013" data-name="Trazado 107013" d="M410.809,302.012l10.694-1.336,8.412,4.759.024-.05.14-.3,9.32-19.951a5.471,5.471,0,0,0-2.14-6.7l-.894-.556a5.471,5.471,0,0,0-6.966,1l-11.017,13.544-.441.536Z" transform="translate(-410.809 -277.057)" fill="#008fa8"/>
          <path id="Trazado_107014" data-name="Trazado 107014" d="M411.682,298.292a10.033,10.033,0,0,0,7.337,5.686,10.424,10.424,0,0,0,1.328.138,7.205,7.205,0,0,0,.858-.006,9.983,9.983,0,0,0,8.574-5.5l.022-.048.142-.3a10.039,10.039,0,0,0-10.506-14.124s-8.639,10.829-8.628,10.925A9.961,9.961,0,0,0,411.682,298.292Z" transform="translate(-410.809 -270.111)" fill="#008fa8"/>
        </g>
        <g id="Grupo_60088" data-name="Grupo 60088">
          <g id="Grupo_60087" data-name="Grupo 60087">
            <path id="Trazado_107015" data-name="Trazado 107015" d="M385.161,277.006l10.865,5.209c2.162,1.037,3.528,2.934,3.053,4.238s-2.613,1.524-4.774.487l-10.867-5.207c-2.16-1.037-3.526-2.936-3.053-4.24S383,275.971,385.161,277.006Z" transform="translate(-380.291 -270.905)" fill="#ffac67"/>
            <path id="Trazado_107016" data-name="Trazado 107016" d="M387.629,274.94l10.716,7.108c1.657,1.093,2.493,2.926,1.865,4.088s-2.481,1.223-4.14.128l-10.714-7.106c-1.659-1.095-2.493-2.926-1.865-4.092S385.971,273.845,387.629,274.94Z" transform="translate(-377.318 -273.091)" fill="#ffac67"/>
            <path id="Trazado_107017" data-name="Trazado 107017" d="M384.7,280.1l9.363,3.343c1.6.57,2.591,2.062,2.22,3.331s-1.964,1.835-3.558,1.264l-9.365-3.341c-1.6-.57-2.589-2.062-2.22-3.33S383.1,279.534,384.7,280.1Z" transform="translate(-379.527 -267.396)" fill="#ffac67"/>
            <path id="Trazado_107018" data-name="Trazado 107018" d="M384.672,282.928,391,284.885a2.15,2.15,0,0,1,1.23,2.633,1.9,1.9,0,0,1-2.479,1.137l-6.2-2.132a2.021,2.021,0,0,1-1.35-2.455A1.9,1.9,0,0,1,384.672,282.928Z" transform="translate(-378.482 -264.482)" fill="#ffac67"/>
            <path id="Trazado_107019" data-name="Trazado 107019" d="M394.015,274.708c1.262,1.532,5.167,6.033,5.167,6.033a2.5,2.5,0,0,1-3.911,3.1l-5.026-6.342a2.383,2.383,0,0,1,.309-3.42A2.5,2.5,0,0,1,394.015,274.708Z" transform="translate(-370.969 -273.621)" fill="#ffac67"/>
            <path id="Trazado_107020" data-name="Trazado 107020" d="M392.079,276.622c-1.47,1.193-.866,4.374,1.35,7.106s5.209,3.979,6.679,2.786.866-4.378-1.35-7.11S393.549,275.428,392.079,276.622Z" transform="translate(-369.368 -271.088)" fill="#ffac67"/>
            <path id="Trazado_107021" data-name="Trazado 107021" d="M395.49,278.663c1.268-1.015,3.937-1,6.607.161a8.778,8.778,0,0,1,4.22,3.472,4.944,4.944,0,0,0,2.417,2.14c.112.05.449.2.449.2l-7.112,16.312-16.312-7.11,7.11-16.312Z" transform="translate(-374.853 -269.742)" fill="#ffac67"/>
          </g>
        </g>
      </g>
    </g>
    <g id="Grupo_60096" data-name="Grupo 60096" transform="translate(398.706 216.88)">
      <g id="Grupo_60091" data-name="Grupo 60091" transform="translate(77.972 7.518)">
        <rect id="Rectángulo_8223" data-name="Rectángulo 8223" width="2.577" height="1.289" fill="#1c9ae8"/>
        <path id="Trazado_107022" data-name="Trazado 107022" d="M381.692,205.778H380.4v-1.934h-1.933v-1.289h3.222Z" transform="translate(-370.738 -202.556)" fill="#1c9ae8"/>
        <path id="Trazado_107023" data-name="Trazado 107023" d="M380.728,219.816H379.44v-4.469h1.288Zm0-8.937H379.44v-4.467h1.288Z" transform="translate(-369.774 -198.722)" fill="#1c9ae8"/>
        <path id="Trazado_107024" data-name="Trazado 107024" d="M381.692,218.594h-3.222V217.3H380.4v-1.933h1.289Z" transform="translate(-370.738 -189.812)" fill="#1c9ae8"/>
        <rect id="Rectángulo_8224" data-name="Rectángulo 8224" width="2.578" height="1.289" transform="translate(0.428 27.493)" fill="#1c9ae8"/>
      </g>
      <g id="Grupo_60092" data-name="Grupo 60092" transform="translate(0 29.855)">
        <rect id="Rectángulo_8225" data-name="Rectángulo 8225" width="2.577" height="1.289" transform="translate(8.377)" fill="#1c9ae8"/>
        <path id="Trazado_107025" data-name="Trazado 107025" d="M336.785,216.978H335.5v-3.222h3.222v1.289h-1.933Z" transform="translate(-335.497 -213.756)" fill="#1c9ae8"/>
        <path id="Trazado_107026" data-name="Trazado 107026" d="M336.785,231.016H335.5v-4.467h1.288Zm0-8.937H335.5v-4.467h1.288Z" transform="translate(-335.496 -209.922)" fill="#1c9ae8"/>
        <path id="Trazado_107027" data-name="Trazado 107027" d="M338.718,229.8H335.5v-3.222h1.289v1.933h1.933Z" transform="translate(-335.497 -201.012)" fill="#1c9ae8"/>
        <rect id="Rectángulo_8226" data-name="Rectángulo 8226" width="2.578" height="1.289" transform="translate(7.946 27.495)" fill="#1c9ae8"/>
      </g>
      <g id="Grupo_60093" data-name="Grupo 60093" transform="translate(12.243)">
        <rect id="Rectángulo_8227" data-name="Rectángulo 8227" width="65.712" height="16.117" fill="#1c9ae8"/>
        <rect id="Rectángulo_8228" data-name="Rectángulo 8228" width="3.306" height="11.572" transform="translate(57.446 2.686)" fill="#3c589e"/>
        <rect id="Rectángulo_8229" data-name="Rectángulo 8229" width="3.306" height="11.572" transform="translate(49.8 2.686)" fill="#3c589e"/>
        <rect id="Rectángulo_8230" data-name="Rectángulo 8230" width="3.306" height="11.572" transform="translate(42.155 2.686)" fill="#3c589e"/>
        <path id="Trazado_107028" data-name="Trazado 107028" d="M347.427,202.2a1.86,1.86,0,1,1-1.861-1.861A1.86,1.86,0,0,1,347.427,202.2Z" transform="translate(-339.575 -197.241)" fill="#def5ff"/>
        <circle id="Elipse_4169" data-name="Elipse 4169" cx="1.86" cy="1.86" r="1.86" transform="translate(12.192 3.099)" fill="#def5ff"/>
        <path id="Trazado_107029" data-name="Trazado 107029" d="M373.811,209.765h-1.288v-2.479a1.836,1.836,0,0,0-1.835-1.835H347.129a1.836,1.836,0,0,0-1.835,1.835v1.653h-1.288v-1.653a3.128,3.128,0,0,1,3.123-3.125h23.559a3.128,3.128,0,0,1,3.123,3.125Z" transform="translate(-339.278 -193.442)" fill="#fff"/>
      </g>
      <g id="Grupo_60094" data-name="Grupo 60094" transform="translate(12.243 24.057)">
        <rect id="Rectángulo_8231" data-name="Rectángulo 8231" width="65.712" height="16.118" fill="#1c9ae8"/>
        <rect id="Rectángulo_8232" data-name="Rectángulo 8232" width="3.306" height="11.572" transform="translate(57.446 2.686)" fill="#3c589e"/>
        <rect id="Rectángulo_8233" data-name="Rectángulo 8233" width="3.306" height="11.572" transform="translate(49.8 2.686)" fill="#3c589e"/>
        <rect id="Rectángulo_8234" data-name="Rectángulo 8234" width="3.306" height="11.572" transform="translate(42.155 2.686)" fill="#3c589e"/>
        <path id="Trazado_107030" data-name="Trazado 107030" d="M347.427,214.264a1.86,1.86,0,1,1-1.861-1.861A1.86,1.86,0,0,1,347.427,214.264Z" transform="translate(-339.575 -209.304)" fill="#def5ff"/>
        <path id="Trazado_107031" data-name="Trazado 107031" d="M351.469,214.264a1.861,1.861,0,1,1-1.861-1.861A1.86,1.86,0,0,1,351.469,214.264Z" transform="translate(-335.558 -209.304)" fill="#def5ff"/>
        <path id="Trazado_107032" data-name="Trazado 107032" d="M373.811,221.829h-1.288v-2.481a1.838,1.838,0,0,0-1.835-1.835H347.129a1.838,1.838,0,0,0-1.835,1.835V221h-1.288v-1.651a3.128,3.128,0,0,1,3.123-3.123h23.559a3.128,3.128,0,0,1,3.123,3.123Z" transform="translate(-339.278 -205.503)" fill="#fff"/>
      </g>
      <g id="Grupo_60095" data-name="Grupo 60095" transform="translate(12.243 46.397)">
        <rect id="Rectángulo_8235" data-name="Rectángulo 8235" width="65.712" height="16.117" fill="#1c9ae8"/>
        <rect id="Rectángulo_8236" data-name="Rectángulo 8236" width="3.306" height="11.572" transform="translate(57.446 2.686)" fill="#3c589e"/>
        <rect id="Rectángulo_8237" data-name="Rectángulo 8237" width="3.306" height="11.572" transform="translate(49.8 2.686)" fill="#3c589e"/>
        <rect id="Rectángulo_8238" data-name="Rectángulo 8238" width="3.306" height="11.572" transform="translate(42.155 2.686)" fill="#3c589e"/>
        <path id="Trazado_107033" data-name="Trazado 107033" d="M347.427,225.465a1.86,1.86,0,1,1-1.861-1.861A1.86,1.86,0,0,1,347.427,225.465Z" transform="translate(-339.575 -220.505)" fill="#def5ff"/>
        <path id="Trazado_107034" data-name="Trazado 107034" d="M351.469,225.465a1.861,1.861,0,1,1-1.861-1.861A1.86,1.86,0,0,1,351.469,225.465Z" transform="translate(-335.558 -220.505)" fill="#def5ff"/>
        <path id="Trazado_107035" data-name="Trazado 107035" d="M373.811,233.029h-1.288V230.55a1.836,1.836,0,0,0-1.835-1.835H347.129a1.836,1.836,0,0,0-1.835,1.835V232.2h-1.288V230.55a3.13,3.13,0,0,1,3.123-3.125h23.559a3.13,3.13,0,0,1,3.123,3.125Z" transform="translate(-339.278 -216.706)" fill="#fff"/>
      </g>
    </g>
    <g id="Grupo_60097" data-name="Grupo 60097" transform="translate(360.99 240.373)">
      <path id="Trazado_107036" data-name="Trazado 107036" d="M357.15,231.865h-.11v-12.79a8.52,8.52,0,0,0-8.51-8.51H335.637a8.52,8.52,0,0,0-8.51,8.51v12.79h-.112a10.432,10.432,0,0,0-10.43,10.432v30.134a10.431,10.431,0,0,0,10.43,10.43H357.15a10.43,10.43,0,0,0,10.43-10.43V242.3A10.431,10.431,0,0,0,357.15,231.865Zm-27.961-12.79a6.455,6.455,0,0,1,6.448-6.446H348.53a6.455,6.455,0,0,1,6.448,6.446v12.79H329.189Z" transform="translate(-316.585 -210.566)" fill="#fdc82f"/>
      <path id="Trazado_107037" data-name="Trazado 107037" d="M344.2,231.865h-.11v-12.79a8.52,8.52,0,0,0-8.51-8.51h-5.965v2.064h5.965a6.455,6.455,0,0,1,6.448,6.446v12.79H329.612v51H344.2a10.43,10.43,0,0,0,10.43-10.43V242.3A10.431,10.431,0,0,0,344.2,231.865Z" transform="translate(-303.632 -210.566)" fill="#ec7a20"/>
      <path id="Trazado_107038" data-name="Trazado 107038" d="M341.93,235.974a8.381,8.381,0,1,0-12.437,7.291l-3.436,11.248h14.983L337.6,243.265A8.342,8.342,0,0,0,341.93,235.974Z" transform="translate(-308.051 -193.636)" fill="#1e2c4f"/>
    </g>
  </g>
</svg>
