<svg id="Grupo_60168" data-name="Grupo 60168" xmlns="http://www.w3.org/2000/svg" xmlns:xlink="http://www.w3.org/1999/xlink" width="358" height="411" viewBox="0 0 358 411">
  <defs>
    <clipPath id="clip-path">
      <rect id="Rectángulo_8261" data-name="Rectángulo 8261" width="358" height="411" fill="none"/>
    </clipPath>
  </defs>
  <g id="Grupo_60167" data-name="Grupo 60167" transform="translate(0)" clip-path="url(#clip-path)">
    <path id="Trazado_107119" data-name="Trazado 107119" d="M23,0H335a23,23,0,0,1,23,23V233a23,23,0,0,1-23,23H23A23,23,0,0,1,0,233V23A23,23,0,0,1,23,0Z" transform="translate(0 102)" fill="#fff9c8"/>
    <g id="Grupo_60166" data-name="Grupo 60166" transform="translate(-97.527 27.598)">
      <g id="Grupo_60104" data-name="Grupo 60104" transform="translate(0 97.053)">
        <g id="Grupo_60103" data-name="Grupo 60103" transform="translate(0 38.278)">
          <path id="Trazado_107039" data-name="Trazado 107039" d="M211.909,192.132l-72.074-8.347c-52.2,61.138-26.506,67.574-38.884,80.738-11.984,12.745,37.964,53.841,43.376,46.418,7.13-9.784,15.6-6.266,22.075-10.554,38.019-25.171,69.051-53.254,67.4-68.627C233.324,227.252,215.7,194.623,211.909,192.132Z" transform="translate(86.282 -183.785)" fill="#ecc19c"/>
          <g id="Grupo_60102" data-name="Grupo 60102" transform="translate(0 77.133)">
            <g id="Grupo_60100" data-name="Grupo 60100">
              <rect id="Rectángulo_8244" data-name="Rectángulo 8244" width="14.417" height="80.152" transform="matrix(0.601, -0.799, 0.799, 0.601, 170.388, 11.519)" fill="#fff"/>
              <path id="Trazado_107040" data-name="Trazado 107040" d="M55.059,273.737l-165.07,218.255v28.841H-7.5L134.45,333.486Z" transform="translate(110.011 -271.125)" fill="#0e366b"/>
              <path id="Trazado_107041" data-name="Trazado 107041" d="M131.963,330.46l6.313-8.388-32.021-24.1L-64.295,523.584H-2.316L139.637,336.236Z" transform="translate(104.823 -273.876)" fill="#e6e7e8" style="mix-blend-mode: multiply;isolation: isolate"/>
            </g>
            <g id="Grupo_60101" data-name="Grupo 60101" transform="translate(210.218 65.803)">
              <path id="Trazado_107042" data-name="Trazado 107042" d="M149.923,351.744a4.863,4.863,0,1,1-2.629-6.355A4.863,4.863,0,0,1,149.923,351.744Z" transform="translate(-128.642 -345.017)" fill="#fff"/>
              <path id="Trazado_107043" data-name="Trazado 107043" d="M136.471,369.868a4.863,4.863,0,1,1-2.629-6.355A4.862,4.862,0,0,1,136.471,369.868Z" transform="translate(-127.115 -347.074)" fill="#fff"/>
            </g>
          </g>
        </g>
        <path id="Trazado_107044" data-name="Trazado 107044" d="M246.791,141.356l-14.434,5.712a10.724,10.724,0,0,0,7.892,19.944l14.434-5.712a10.724,10.724,0,1,0-7.892-19.944Z" transform="translate(71.929 -140.608)" fill="#ecc19c"/>
        <path id="Trazado_107045" data-name="Trazado 107045" d="M244.7,218.969l21.029-20.942-19.493.962Z" transform="translate(69.759 -147.123)" fill="#cf9e76"/>
        <path id="Trazado_107046" data-name="Trazado 107046" d="M244.769,247.033,265.8,226.09l-19.493.962Z" transform="translate(69.751 -150.308)" fill="#cf9e76"/>
      </g>
      <g id="Grupo_60149" data-name="Grupo 60149" transform="translate(220.655)">
        <g id="Grupo_60131" data-name="Grupo 60131" transform="translate(0)">
          <g id="Grupo_60106" data-name="Grupo 60106" transform="translate(1.292)">
            <path id="Trazado_107048" data-name="Trazado 107048" d="M234.42,31.943a15.635,15.635,0,0,0-4.994-.812H156.171a15.841,15.841,0,0,0-15.826,15.827V228.921a16.2,16.2,0,0,0,.137,2.087A15.767,15.767,0,0,0,145.4,240.5v.008a15.8,15.8,0,0,0,10.768,4.239h73.255a15.846,15.846,0,0,0,15.826-15.827V46.958A15.841,15.841,0,0,0,234.42,31.943ZM244.9,228.921A15.5,15.5,0,0,1,229.426,244.4H156.171a15.413,15.413,0,0,1-10.613-4.223,8.788,8.788,0,0,1-.674-.674,15.435,15.435,0,0,1-4.2-10.581V46.958A15.5,15.5,0,0,1,156.171,31.48h73.255a15.427,15.427,0,0,1,10.516,4.142,9.715,9.715,0,0,1,.707.7A15.364,15.364,0,0,1,244.9,46.958Z" transform="translate(-140.345 -31.131)" fill="#828282"/>
          </g>
          <rect id="Rectángulo_8245" data-name="Rectángulo 8245" width="104.562" height="213.265" rx="17.655" transform="translate(1.463 0.175)" fill="#47474a"/>
          <rect id="Rectángulo_8246" data-name="Rectángulo 8246" width="99.731" height="208.434" rx="14.93" transform="translate(3.943 2.548)" fill="#282836"/>
          <rect id="Rectángulo_8247" data-name="Rectángulo 8247" width="96.86" height="175.774" transform="translate(5.372 19.194)" fill="#f1f2f2"/>
          <g id="Grupo_60107" data-name="Grupo 60107" transform="translate(41.278 197.968)">
            <path id="Trazado_107049" data-name="Trazado 107049" d="M206.729,265.653H191.057a5.607,5.607,0,0,1-5.607-5.606h0a5.607,5.607,0,0,1,5.607-5.606h15.672a5.606,5.606,0,0,1,5.606,5.606h0A5.606,5.606,0,0,1,206.729,265.653Z" transform="translate(-185.45 -254.44)" fill="#47474a"/>
            <path id="Trazado_107050" data-name="Trazado 107050" d="M191.1,265.352a5.262,5.262,0,0,1,0-10.523h15.672a5.262,5.262,0,0,1,0,10.523Z" transform="translate(-185.494 -254.484)" fill="#191919"/>
          </g>
          <path id="Trazado_107051" data-name="Trazado 107051" d="M213.137,44.892H182.685A1.587,1.587,0,0,1,181.1,43.31h0a1.586,1.586,0,0,1,1.582-1.582h30.453a1.586,1.586,0,0,1,1.582,1.582h0A1.587,1.587,0,0,1,213.137,44.892Z" transform="translate(-143.678 -32.334)" fill="#191919"/>
          <path id="Trazado_107052" data-name="Trazado 107052" d="M175.615,43.3a1.653,1.653,0,1,1-1.653-1.652A1.653,1.653,0,0,1,175.615,43.3Z" transform="translate(-142.681 -32.324)" fill="#191919"/>
          <g id="Grupo_60108" data-name="Grupo 60108" transform="translate(77.44 7.526)">
            <path id="Trazado_107053" data-name="Trazado 107053" d="M233.143,43.07a3.451,3.451,0,1,1-3.451-3.45A3.451,3.451,0,0,1,233.143,43.07Z" transform="translate(-226.241 -39.62)" fill="#191919"/>
            <circle id="Elipse_4170" data-name="Elipse 4170" cx="2.522" cy="2.522" r="2.522" transform="translate(0.93 0.929)" fill="#575756"/>
            <path id="Trazado_107054" data-name="Trazado 107054" d="M231.035,43.38A1.034,1.034,0,1,1,230,42.346,1.034,1.034,0,0,1,231.035,43.38Z" transform="translate(-226.55 -39.929)" fill="#1d1d1b"/>
          </g>
          <g id="Grupo_60109" data-name="Grupo 60109" transform="translate(0 50.088)">
            <path id="Trazado_107055" data-name="Trazado 107055" d="M140.35,87.63v14.235h-.836a.621.621,0,0,1-.626-.626V88.263a.627.627,0,0,1,.626-.633Z" transform="translate(-138.888 -87.63)" fill="#191919"/>
            <path id="Trazado_107056" data-name="Trazado 107056" d="M140.35,112.984v14.235h-.836a.627.627,0,0,1-.626-.633V113.617a.628.628,0,0,1,.626-.633Z" transform="translate(-138.888 -90.507)" fill="#191919"/>
          </g>
          <path id="Rectángulo_8248" data-name="Rectángulo 8248" d="M.781,0h.686a0,0,0,0,1,0,0V17.155a0,0,0,0,1,0,0H.781A.781.781,0,0,1,0,16.375V.781A.781.781,0,0,1,.781,0Z" transform="translate(107.492 81.306) rotate(180)" fill="#191919"/>
          <g id="Grupo_60121" data-name="Grupo 60121" transform="translate(5.372 18.989)">
            <g id="Grupo_60120" data-name="Grupo 60120">
              <rect id="Rectángulo_8249" data-name="Rectángulo 8249" width="96.86" height="3.974" fill="#4a7ac2"/>
              <g id="Grupo_60110" data-name="Grupo 60110" transform="translate(18.073 0.426)">
                <path id="Trazado_107057" data-name="Trazado 107057" d="M165.334,53.656l.283.472a3.848,3.848,0,0,1,3.979.014l.283-.472a4.4,4.4,0,0,0-4.544-.014Z" transform="translate(-165.334 -53.031)" fill="#fff"/>
                <path id="Trazado_107058" data-name="Trazado 107058" d="M165.971,54.739l.283.472a2.746,2.746,0,0,1,2.849.015l.283-.472a3.3,3.3,0,0,0-3.415-.015Z" transform="translate(-165.406 -53.172)" fill="#fff"/>
                <path id="Trazado_107059" data-name="Trazado 107059" d="M166.609,55.893l.282.472a1.65,1.65,0,0,1,1.719.015l.283-.472a2.2,2.2,0,0,0-2.284-.015Z" transform="translate(-165.479 -53.32)" fill="#fff"/>
              </g>
              <g id="Grupo_60114" data-name="Grupo 60114" transform="translate(1.364 0.624)">
                <path id="Trazado_107060" data-name="Trazado 107060" d="M148.544,54.4a1.029,1.029,0,1,1-1.029-1.028A1.029,1.029,0,0,1,148.544,54.4Z" transform="translate(-146.486 -53.268)" fill="#fff"/>
                <path id="Trazado_107061" data-name="Trazado 107061" d="M151.352,54.4a1.029,1.029,0,1,1-1.029-1.028A1.029,1.029,0,0,1,151.352,54.4Z" transform="translate(-146.805 -53.268)" fill="#fff"/>
                <g id="Grupo_60111" data-name="Grupo 60111" transform="translate(4.879)">
                  <path id="Trazado_107062" data-name="Trazado 107062" d="M153.119,55.513a1.129,1.129,0,1,1,1.129-1.129A1.13,1.13,0,0,1,153.119,55.513Zm0-2.059a.93.93,0,1,0,.93.929A.93.93,0,0,0,153.119,53.454Z" transform="translate(-151.99 -53.255)" fill="#fff"/>
                </g>
                <g id="Grupo_60112" data-name="Grupo 60112" transform="translate(7.369)">
                  <path id="Trazado_107063" data-name="Trazado 107063" d="M155.927,55.513a1.129,1.129,0,1,1,1.129-1.129A1.13,1.13,0,0,1,155.927,55.513Zm0-2.059a.93.93,0,1,0,.93.929A.93.93,0,0,0,155.927,53.454Z" transform="translate(-154.798 -53.255)" fill="#fff"/>
                </g>
                <g id="Grupo_60113" data-name="Grupo 60113" transform="translate(9.858)">
                  <path id="Trazado_107064" data-name="Trazado 107064" d="M158.735,55.513a1.129,1.129,0,1,1,1.129-1.129A1.131,1.131,0,0,1,158.735,55.513Zm0-2.059a.93.93,0,1,0,.93.929A.93.93,0,0,0,158.735,53.454Z" transform="translate(-157.606 -53.255)" fill="#fff"/>
                </g>
              </g>
              <g id="Grupo_60116" data-name="Grupo 60116" transform="translate(88.197 0.957)">
                <rect id="Rectángulo_8250" data-name="Rectángulo 8250" width="3.408" height="2.49" transform="translate(0.099 0.099)" fill="#fff"/>
                <rect id="Rectángulo_8251" data-name="Rectángulo 8251" width="0.776" height="1.095" transform="translate(6.008 0.796)" fill="#fff"/>
                <g id="Grupo_60115" data-name="Grupo 60115">
                  <path id="Trazado_107065" data-name="Trazado 107065" d="M250.541,56.318h-6.107V53.63h6.107Zm-5.909-.2h5.71v-2.29h-5.71Z" transform="translate(-244.434 -53.63)" fill="#fff"/>
                </g>
              </g>
              <g id="Grupo_60117" data-name="Grupo 60117" transform="translate(43.675 0.365)">
                <path id="Trazado_107066" data-name="Trazado 107066" d="M195.882,55.95H194.23v-.293h.66V53.387l-.676.2v-.317l1.011-.308v2.693h.659Z" transform="translate(-194.213 -52.963)" fill="#fff"/>
                <path id="Trazado_107067" data-name="Trazado 107067" d="M198.346,55.952h-1.761v-.3l.852-.854a3.569,3.569,0,0,0,.465-.543.84.84,0,0,0,.139-.464.515.515,0,0,0-.145-.391.571.571,0,0,0-.411-.138,1.1,1.1,0,0,0-.75.333v-.35a1.264,1.264,0,0,1,.8-.267.862.862,0,0,1,.615.212.745.745,0,0,1,.224.568,1.082,1.082,0,0,1-.155.55,3.5,3.5,0,0,1-.556.665l-.675.667v.008h1.359Z" transform="translate(-194.482 -52.965)" fill="#fff"/>
                <path id="Trazado_107068" data-name="Trazado 107068" d="M199.385,54.38a.215.215,0,0,1-.16-.067.22.22,0,0,1-.066-.16.213.213,0,0,1,.066-.159.217.217,0,0,1,.16-.066.222.222,0,0,1,.163.066.21.21,0,0,1,.067.159.217.217,0,0,1-.067.16A.22.22,0,0,1,199.385,54.38Zm0,1.724a.218.218,0,0,1-.16-.067.222.222,0,0,1-.066-.161.227.227,0,0,1,.066-.162.216.216,0,0,1,.16-.068.221.221,0,0,1,.163.068.224.224,0,0,1,.067.162.219.219,0,0,1-.067.161A.224.224,0,0,1,199.385,56.1Z" transform="translate(-194.774 -53.073)" fill="#fff"/>
                <path id="Trazado_107069" data-name="Trazado 107069" d="M201.041,56a.767.767,0,0,1-.678-.373,1.974,1.974,0,0,1-.243-1.077,2.2,2.2,0,0,1,.254-1.172.819.819,0,0,1,.732-.4q.918,0,.917,1.5a2.047,2.047,0,0,1-.259,1.132A.82.82,0,0,1,201.041,56Zm.047-2.736q-.626,0-.626,1.269,0,1.186.613,1.186t.6-1.207Q201.68,53.264,201.088,53.265Z" transform="translate(-194.883 -52.965)" fill="#fff"/>
                <path id="Trazado_107070" data-name="Trazado 107070" d="M203.578,56a.765.765,0,0,1-.677-.373,1.965,1.965,0,0,1-.244-1.077,2.2,2.2,0,0,1,.254-1.172.819.819,0,0,1,.732-.4q.918,0,.917,1.5a2.055,2.055,0,0,1-.258,1.132A.822.822,0,0,1,203.578,56Zm.047-2.736q-.626,0-.626,1.269,0,1.186.613,1.186t.6-1.207Q204.217,53.264,203.625,53.265Z" transform="translate(-195.171 -52.965)" fill="#fff"/>
              </g>
              <rect id="Rectángulo_8252" data-name="Rectángulo 8252" width="96.86" height="8.857" transform="translate(0 3.974)" fill="#13a0d8"/>
              <g id="Grupo_60118" data-name="Grupo 60118" transform="translate(93.302 6.323)">
                <path id="Trazado_107071" data-name="Trazado 107071" d="M251.286,60.23a.547.547,0,1,1-.547-.547A.547.547,0,0,1,251.286,60.23Z" transform="translate(-250.192 -59.683)" fill="#fff"/>
                <path id="Trazado_107072" data-name="Trazado 107072" d="M251.286,61.959a.547.547,0,1,1-.547-.548A.547.547,0,0,1,251.286,61.959Z" transform="translate(-250.192 -59.879)" fill="#fff"/>
                <path id="Trazado_107073" data-name="Trazado 107073" d="M251.286,63.687a.547.547,0,1,1-.547-.547A.547.547,0,0,1,251.286,63.687Z" transform="translate(-250.192 -60.075)" fill="#fff"/>
              </g>
              <g id="Grupo_60119" data-name="Grupo 60119" transform="translate(1.897 5.426)">
                <path id="Trazado_107074" data-name="Trazado 107074" d="M150.111,64.624,147.087,61.6l2.929-2.929.593.593L148.273,61.6,150.7,64.03Z" transform="translate(-147.087 -58.671)" fill="#fff"/>
              </g>
            </g>
          </g>
          <g id="Grupo_60130" data-name="Grupo 60130" transform="translate(20.555 43.875)">
            <path id="Trazado_107075" data-name="Trazado 107075" d="M222.786,140.658c-4.84,11.293-12.907,19.6-25.355,26.145l-2.105,1.11-.069-.035-2.036-1.075c-12.461-6.545-20.516-14.852-25.367-26.145-4.5-10.492-6.293-24.028-5.652-42.6l.126-3.525,3.455-.732c10.081-2.139,17.908-4.187,26.775-11.042l2.7-2.082.069-.057,2.757,2.139c8.879,6.855,16.706,8.9,26.786,11.042l3.456.732.113,3.525C229.09,116.63,227.294,130.166,222.786,140.658Z" transform="translate(-162.074 -80.622)" fill="#fdcd2d"/>
            <path id="Trazado_107076" data-name="Trazado 107076" d="M224.505,98.953c-10.978-2.329-19.209-4.626-28.6-11.894-9.4,7.268-17.627,9.565-28.6,11.894-1.2,34.308,5.769,52.582,28.6,64.587C218.737,151.535,225.708,133.261,224.505,98.953Z" transform="translate(-162.652 -81.352)" fill="#00ba4a"/>
            <g id="Grupo_60129" data-name="Grupo 60129" transform="translate(17.091 18.616)">
              <g id="Grupo_60122" data-name="Grupo 60122" transform="translate(0 20.048)">
                <rect id="Rectángulo_8253" data-name="Rectángulo 8253" width="32.315" height="23.167" fill="#fdcd2d"/>
              </g>
              <g id="Grupo_60123" data-name="Grupo 60123" transform="translate(0 19.022)">
                <path id="Trazado_107077" data-name="Trazado 107077" d="M213.668,124.1H181.353l.762-.762a.9.9,0,0,1,.638-.264h29.514a.9.9,0,0,1,.638.264Z" transform="translate(-181.353 -123.078)" fill="#e8bc29"/>
              </g>
              <g id="Grupo_60124" data-name="Grupo 60124" transform="translate(0 43.214)">
                <path id="Trazado_107078" data-name="Trazado 107078" d="M213.668,150.367l-.515.516a1.747,1.747,0,0,1-1.234.51H183.1a1.745,1.745,0,0,1-1.233-.51l-.516-.516Z" transform="translate(-181.353 -150.367)" fill="#e8bc29"/>
              </g>
              <g id="Grupo_60125" data-name="Grupo 60125" transform="translate(2.351 18.209)">
                <path id="Trazado_107079" data-name="Trazado 107079" d="M190.139,122.973h-6.134l.306-.465a.771.771,0,0,1,.644-.348h4.234a.77.77,0,0,1,.644.348Z" transform="translate(-184.005 -122.161)" fill="#d9b026"/>
              </g>
              <g id="Grupo_60126" data-name="Grupo 60126" transform="translate(23.916 18.209)">
                <path id="Trazado_107080" data-name="Trazado 107080" d="M214.465,122.974H208.33l.339-.515a.658.658,0,0,1,.551-.3h4.352a.658.658,0,0,1,.551.3Z" transform="translate(-208.33 -122.161)" fill="#d9b026"/>
              </g>
              <path id="Trazado_107081" data-name="Trazado 107081" d="M210.579,119.83h-3.773c0-7.8-.1-14.49-8.848-14.49-9.328,0-8.784,7.845-8.784,14.49h-3.837c0-2.949-.7-10.451,3.665-14.911,2.141-2.187,5.155-3.3,8.956-3.3s6.814,1.111,8.956,3.3C211.279,109.382,210.579,116.886,210.579,119.83Z" transform="translate(-181.8 -101.621)" fill="#dbdbdb"/>
              <g id="Grupo_60127" data-name="Grupo 60127" transform="translate(4.519 1.026)" opacity="0.4">
                <path id="Trazado_107082" data-name="Trazado 107082" d="M207.962,119.961c-.02-7.293-.441-15.516-9.873-15.516-3.085,0-5.371.79-6.989,2.415-2.863,2.874-2.841,7.755-2.824,12.062,0,0-.028,1.035-.028,1.039h-1.8c0-.031.027-1.088.026-1.12-.072-3.285-.2-9.4,3.39-13.074,1.941-1.984,4.708-2.99,8.222-2.99s6.28,1.006,8.223,2.99c3.595,3.676,3.461,9.791,3.389,13.076,0,.03,0,1.087,0,1.117Z" transform="translate(-186.451 -102.778)" fill="#fff"/>
              </g>
              <path id="Trazado_107083" data-name="Trazado 107083" d="M212.2,119.83h-3.773c0-7.8-.1-14.49-8.848-14.49v-3.719c3.8,0,6.814,1.111,8.956,3.3C212.9,109.382,212.2,116.886,212.2,119.83Z" transform="translate(-183.421 -101.621)" fill="#ededed" style="mix-blend-mode: multiply;isolation: isolate"/>
              <path id="Trazado_107084" data-name="Trazado 107084" d="M215.736,124v23.167l-.515.516a1.747,1.747,0,0,1-1.234.51H199.579V122.974h7.758l.339-.515a.658.658,0,0,1,.551-.3h4.352a.658.658,0,0,1,.551.3l.341.515h.864a.9.9,0,0,1,.638.264Z" transform="translate(-183.421 -103.952)" fill="#ededed" style="mix-blend-mode: multiply;isolation: isolate"/>
              <g id="Grupo_60128" data-name="Grupo 60128" transform="translate(12.567 27.321)">
                <path id="Trazado_107085" data-name="Trazado 107085" d="M202.71,136.029a3.59,3.59,0,1,1-3.59-3.59A3.59,3.59,0,0,1,202.71,136.029Z" transform="translate(-195.529 -132.439)" fill="#4e2c00"/>
                <rect id="Rectángulo_8254" data-name="Rectángulo 8254" width="3.069" height="7.065" rx="1.535" transform="translate(2.056 5.733)" fill="#4e2c00"/>
              </g>
            </g>
            <path id="Trazado_107086" data-name="Trazado 107086" d="M227.033,140.658c-4.84,11.293-12.907,19.6-25.355,26.145l-2.105,1.11-.069-.035v-87.2l.069-.057,2.757,2.139c8.879,6.855,16.706,8.9,26.786,11.042l3.456.732.113,3.525C233.337,116.63,231.541,130.166,227.033,140.658Z" transform="translate(-166.321 -80.622)" fill="#e6e6e6" style="mix-blend-mode: multiply;isolation: isolate"/>
          </g>
        </g>
        <g id="Grupo_60139" data-name="Grupo 60139" transform="translate(13.542 139.727)">
          <rect id="Rectángulo_8255" data-name="Rectángulo 8255" width="80.518" height="12.108" rx="6.054" fill="#fff"/>
          <g id="Grupo_60138" data-name="Grupo 60138" transform="translate(3.357 3.231)">
            <g id="Grupo_60132" data-name="Grupo 60132">
              <path id="Trazado_107087" data-name="Trazado 107087" d="M162.789,193.032l-1.527,1.888v.029l2.335-.389v1.288l-2.351-.359v.044l1.543,1.828-1.152.659-.884-2.217-.03.016-.914,2.215-1.078-.673,1.512-1.843v-.045l-2.292.375V194.56l2.262.389.014-.044-1.5-1.857,1.138-.66.869,2.2h.045l.869-2.2Z" transform="translate(-157.951 -192.388)" fill="#414042"/>
            </g>
            <g id="Grupo_60133" data-name="Grupo 60133" transform="translate(6.552)">
              <path id="Trazado_107088" data-name="Trazado 107088" d="M170.18,193.032l-1.527,1.888v.029l2.335-.389v1.288l-2.351-.359v.044l1.543,1.828-1.152.659-.884-2.217-.03.016-.914,2.215-1.078-.673,1.512-1.843v-.045l-2.292.375V194.56l2.262.389.014-.044-1.5-1.857,1.138-.66.869,2.2h.045l.869-2.2Z" transform="translate(-165.342 -192.388)" fill="#414042"/>
            </g>
            <g id="Grupo_60134" data-name="Grupo 60134" transform="translate(13.105)">
              <path id="Trazado_107089" data-name="Trazado 107089" d="M177.571,193.032l-1.527,1.888v.029l2.335-.389v1.288l-2.351-.359v.044l1.543,1.828-1.152.659-.884-2.217-.03.016-.914,2.215-1.078-.673,1.512-1.843v-.045l-2.292.375V194.56l2.262.389.014-.044-1.5-1.857,1.138-.66.869,2.2h.045l.869-2.2Z" transform="translate(-172.733 -192.388)" fill="#414042"/>
            </g>
            <g id="Grupo_60135" data-name="Grupo 60135" transform="translate(19.657)">
              <path id="Trazado_107090" data-name="Trazado 107090" d="M184.962,193.032l-1.527,1.888v.029l2.335-.389v1.288l-2.351-.359v.044l1.543,1.828-1.152.659-.884-2.217-.03.016-.914,2.215-1.078-.673,1.512-1.843v-.045l-2.292.375V194.56l2.262.389.014-.044-1.5-1.857,1.138-.66.869,2.2h.045l.869-2.2Z" transform="translate(-180.124 -192.388)" fill="#414042"/>
            </g>
            <g id="Grupo_60136" data-name="Grupo 60136" transform="translate(26.209)">
              <path id="Trazado_107091" data-name="Trazado 107091" d="M192.353,193.032l-1.527,1.888v.029l2.335-.389v1.288l-2.351-.359v.044l1.543,1.828-1.152.659-.884-2.217-.03.016-.914,2.215-1.078-.673,1.512-1.843v-.045l-2.292.375V194.56l2.262.389.014-.044-1.5-1.857,1.138-.66.869,2.2h.045l.869-2.2Z" transform="translate(-187.515 -192.388)" fill="#414042"/>
            </g>
            <g id="Grupo_60137" data-name="Grupo 60137" transform="translate(32.761)">
              <path id="Trazado_107092" data-name="Trazado 107092" d="M199.744,193.032l-1.527,1.888v.029l2.335-.389v1.288l-2.351-.359v.044l1.543,1.828-1.152.659-.884-2.217-.03.016-.914,2.215-1.078-.673,1.512-1.843v-.045l-2.292.375V194.56l2.262.389.014-.044-1.5-1.857,1.138-.66.869,2.2h.045l.869-2.2Z" transform="translate(-194.906 -192.388)" fill="#414042"/>
            </g>
          </g>
        </g>
        <g id="Grupo_60148" data-name="Grupo 60148" transform="translate(13.542 155.448)">
          <rect id="Rectángulo_8256" data-name="Rectángulo 8256" width="80.518" height="12.108" rx="6.054" fill="#fff"/>
          <g id="Grupo_60147" data-name="Grupo 60147" transform="translate(3.357 3.098)">
            <g id="Grupo_60140" data-name="Grupo 60140">
              <path id="Trazado_107093" data-name="Trazado 107093" d="M163.017,210.646l-1.6,1.976v.031l2.446-.408v1.348l-2.462-.375v.046l1.615,1.914-1.207.69-.926-2.322-.032.017-.956,2.32-1.129-.7,1.583-1.93V213.2l-2.4.392v-1.348l2.369.408.015-.046-1.568-1.945,1.191-.691.91,2.306h.047l.91-2.306Z" transform="translate(-157.951 -209.971)" fill="#414042"/>
            </g>
            <g id="Grupo_60141" data-name="Grupo 60141" transform="translate(6.86)">
              <path id="Trazado_107094" data-name="Trazado 107094" d="M170.755,210.646l-1.6,1.976v.031l2.445-.408v1.348l-2.462-.375v.046l1.615,1.914-1.207.69-.926-2.322-.032.017-.957,2.32-1.129-.7,1.583-1.93V213.2l-2.4.392v-1.348l2.369.408.015-.046-1.567-1.945,1.191-.691.91,2.306h.048l.909-2.306Z" transform="translate(-165.689 -209.971)" fill="#414042"/>
            </g>
            <g id="Grupo_60142" data-name="Grupo 60142" transform="translate(13.721)">
              <path id="Trazado_107095" data-name="Trazado 107095" d="M178.493,210.646l-1.6,1.976v.031l2.445-.408v1.348l-2.462-.375v.046l1.615,1.914-1.207.69-.926-2.322-.032.017-.957,2.32-1.129-.7,1.583-1.93V213.2l-2.4.392v-1.348l2.368.408.016-.046-1.568-1.945,1.191-.691.91,2.306h.047l.909-2.306Z" transform="translate(-173.428 -209.971)" fill="#414042"/>
            </g>
            <g id="Grupo_60143" data-name="Grupo 60143" transform="translate(20.581)">
              <path id="Trazado_107096" data-name="Trazado 107096" d="M186.232,210.646l-1.6,1.976v.031l2.445-.408v1.348l-2.461-.375v.046l1.615,1.914-1.207.69-.926-2.322-.032.017-.957,2.32-1.129-.7,1.583-1.93V213.2l-2.4.392v-1.348l2.369.408.015-.046-1.568-1.945,1.191-.691.91,2.306h.047l.91-2.306Z" transform="translate(-181.166 -209.971)" fill="#414042"/>
            </g>
            <g id="Grupo_60144" data-name="Grupo 60144" transform="translate(27.44)">
              <path id="Trazado_107097" data-name="Trazado 107097" d="M193.97,210.646l-1.6,1.976v.031l2.445-.408v1.348l-2.462-.375v.046l1.615,1.914-1.207.69-.926-2.322-.032.017-.956,2.32-1.129-.7,1.583-1.93V213.2l-2.4.392v-1.348l2.369.408.015-.046-1.568-1.945,1.191-.691.91,2.306h.047l.91-2.306Z" transform="translate(-188.904 -209.971)" fill="#414042"/>
            </g>
            <g id="Grupo_60145" data-name="Grupo 60145" transform="translate(34.3)">
              <path id="Trazado_107098" data-name="Trazado 107098" d="M201.708,210.646l-1.6,1.976v.031l2.445-.408v1.348l-2.462-.375v.046l1.615,1.914-1.207.69-.926-2.322-.032.017-.957,2.32-1.129-.7,1.583-1.93V213.2l-2.4.392v-1.348l2.369.408.015-.046-1.567-1.945,1.191-.691.91,2.306h.048l.909-2.306Z" transform="translate(-196.642 -209.971)" fill="#414042"/>
            </g>
            <g id="Grupo_60146" data-name="Grupo 60146" transform="translate(41.16)">
              <path id="Trazado_107099" data-name="Trazado 107099" d="M209.446,210.646l-1.6,1.976v.031l2.445-.408v1.348l-2.462-.375v.046l1.615,1.914-1.207.69-.926-2.322-.032.017-.957,2.32-1.129-.7,1.583-1.93V213.2l-2.4.392v-1.348l2.369.408.016-.046-1.568-1.945,1.191-.691.91,2.306h.047l.909-2.306Z" transform="translate(-204.38 -209.971)" fill="#414042"/>
            </g>
          </g>
        </g>
        <rect id="Rectángulo_8257" data-name="Rectángulo 8257" width="54.944" height="14.139" rx="5.665" transform="translate(25.071 173.995)" fill="#008ec8"/>
      </g>
      <g id="Grupo_60154" data-name="Grupo 60154" transform="translate(190.604 95.498)">
        <g id="Grupo_60150" data-name="Grupo 60150" transform="translate(0)">
          <path id="Trazado_107100" data-name="Trazado 107100" d="M130.547,139.092c-10.931,4.91,1.35,20.637-6.817,31.113C108.679,189.509,105,235.723,105,235.723c-.164,14.766,2.568,8.74,7,9.722l12.195,2.706c4.426.982,10.364-1.435,11.347-5.862,4.129-18.61,20.581-85.456,9.572-96.172C142.481,143.561,133.889,137.591,130.547,139.092Z" transform="translate(-104.991 -138.854)" fill="#ecc19c"/>
          <path id="Trazado_107101" data-name="Trazado 107101" d="M132.937,146.728c-.277-2.644-1.53-4.34-2.786-3.771s-1.973,3.167-1.781,5.842c.12,1.684.679,6.763.679,6.763.277,2.644,1.555,4.329,2.811,3.76s2.059-3.2,1.782-5.842Z" transform="translate(-107.641 -139.307)" fill="#f5e0cd"/>
        </g>
        <g id="Grupo_60151" data-name="Grupo 60151" transform="translate(107.857 31.932)">
          <rect id="Rectángulo_8258" data-name="Rectángulo 8258" width="36.972" height="21.449" rx="8.92" transform="matrix(0.968, -0.251, 0.251, 0.968, 0, 9.263)" fill="#ecc19c"/>
          <path id="Trazado_107102" data-name="Trazado 107102" d="M240.049,184.3l-8.321,2.162c-3.258.847-4.979,5.175-3.824,9.619s4.765,7.387,8.023,6.54l8.321-2.161c3.258-.847,4.98-5.175,3.824-9.619S243.307,183.456,240.049,184.3Z" transform="translate(-226.756 -175.926)" fill="#f5e0cd"/>
        </g>
        <g id="Grupo_60152" data-name="Grupo 60152" transform="translate(108.901 56.224)">
          <rect id="Rectángulo_8259" data-name="Rectángulo 8259" width="36.972" height="21.449" rx="8.92" transform="matrix(0.968, -0.251, 0.251, 0.968, 0, 9.263)" fill="#ecc19c"/>
          <path id="Trazado_107103" data-name="Trazado 107103" d="M241.226,211.7l-8.321,2.162c-3.258.847-4.979,5.175-3.824,9.619s4.765,7.387,8.023,6.54l8.321-2.161c3.258-.847,4.98-5.175,3.824-9.619S244.484,210.858,241.226,211.7Z" transform="translate(-227.933 -203.328)" fill="#f5e0cd"/>
        </g>
        <g id="Grupo_60153" data-name="Grupo 60153" transform="translate(111.992 81.686)">
          <path id="Trazado_107104" data-name="Trazado 107104" d="M266.609,235.71c-.89-3.342-4.892-5.375-8.894-4.518l-19.468,4.171c-4,.857-6.549,4.293-5.66,7.635l1.152,4.328c.89,3.341,4.892,5.374,8.894,4.517l19.468-4.17c4-.857,6.549-4.293,5.659-7.635Z" transform="translate(-231.443 -230.996)" fill="#ecc19c"/>
          <path id="Trazado_107105" data-name="Trazado 107105" d="M243.4,236.9l-7.91,1.7c-3.1.666-4.86,4.1-3.917,7.623s4.249,5.867,7.346,5.2l7.91-1.7c3.1-.667,4.859-4.1,3.916-7.623S246.5,236.23,243.4,236.9Z" transform="translate(-231.319 -231.652)" fill="#f5e0cd"/>
        </g>
      </g>
      <g id="Grupo_60165" data-name="Grupo 60165" transform="translate(271.183 176.997)">
        <g id="Grupo_60161" data-name="Grupo 60161" transform="translate(0)">
          <g id="Grupo_60155" data-name="Grupo 60155" transform="translate(0 61.328)">
            <path id="Trazado_107106" data-name="Trazado 107106" d="M237.734,365.148c-7.914-20.538-13.2-37.327-20.176-55.487-1.415-3.683-3.238-7.147-6.825-8.787-4.925-2.25-14-.253-14.823,5.1-.445,2.89,5.555,7.98,9.362,13.54,3.194,4.668,1.832,5.27,5.617,10.669,2.769,3.951,6.512,7.8,10.2,12.729,6.048,8.079,11.684,18.61,16.82,22.756l-.023-.12Z" transform="translate(-195.885 -299.963)" fill="#dfb28b"/>
            <path id="Trazado_107107" data-name="Trazado 107107" d="M202.328,308.363c-2.213-1.909-5.9-2.027-6.411-.922s5.137,7.75,8.747,11.983c.935-1.074.788-.657,1.145-1.62C207.826,312.37,203.06,308.993,202.328,308.363Z" transform="translate(-195.885 -300.732)" fill="#f5e0cd"/>
          </g>
          <path id="Trazado_107108" data-name="Trazado 107108" d="M310.864,302.768c-2.364-8.358-6.891-15.048-14.38-19.447-2.87-1.685-6.356-2.675-9.548-1.735s-5.785,4.269-5.074,7.52a9.952,9.952,0,0,0-10.581-7.873c-4.813.57-9.363,5.776-9.061,10.613-1.6-6.971-4.575-11.323-11.339-9s-12.121,4.67-14.709,19.656c2.34-12.851-21.662-66.319-21.735-66.444-1.987-3.423-4.988-6.212-8.748-4.976-3.109,1.023-5.007,4.333-5.354,7.589s.556,6.5,1.449,9.648l25.662,90.514c1.8,6.335,4.163,13.384,8.584,18.265,4.12,4.548,9.489,6.626,14.815,9.676a81.2,81.2,0,0,1,20.006,16.191c.9,1.006,4.872,8.42,10.267,18.854l71.548-6.286c-9.021-18.547-16.523-33.97-17.366-35.648C320.283,329.974,313.925,313.594,310.864,302.768Z" transform="translate(-196.381 -230.785)" fill="#ecc19c"/>
          <path id="Trazado_107109" data-name="Trazado 107109" d="M213.261,236.987c-.364-.707-.645-1.349-1.008-1.941a4.74,4.74,0,0,0-5.605-2.223c-2.652.937-4.053,2.96-3.628,5.509a32.088,32.088,0,0,0,1.122,4.012,1.936,1.936,0,0,0,2.546,1.469c2.081-.542,4.146-1.142,6.2-1.772,1.064-.326,1.338-.824,1.121-1.918S213.5,237.977,213.261,236.987Z" transform="translate(-196.686 -230.987)" fill="#f5e0cd"/>
          <g id="Grupo_60156" data-name="Grupo 60156" transform="translate(45.277 61.281)">
            <path id="Trazado_107110" data-name="Trazado 107110" d="M247.273,305.463l-.316-.261a14.984,14.984,0,0,1,13.973-5.057l-.075.4A14.565,14.565,0,0,0,247.273,305.463Z" transform="translate(-246.957 -299.91)" fill="#b08874"/>
          </g>
          <g id="Grupo_60157" data-name="Grupo 60157" transform="translate(14.642 36.71)">
            <path id="Trazado_107111" data-name="Trazado 107111" d="M212.717,277.749l-.316-.262a14.979,14.979,0,0,1,13.973-5.058l-.076.4A14.566,14.566,0,0,0,212.717,277.749Z" transform="translate(-212.401 -272.194)" fill="#b08874"/>
          </g>
          <g id="Grupo_60158" data-name="Grupo 60158" transform="translate(16.316 41.014)">
            <path id="Trazado_107112" data-name="Trazado 107112" d="M218.117,281.631a9.974,9.974,0,0,1-3.828-.417l.121-.391a9.287,9.287,0,0,0,10.615-3.774l.341.224A9.64,9.64,0,0,1,218.117,281.631Z" transform="translate(-214.289 -277.049)" fill="#b08874"/>
          </g>
          <g id="Grupo_60159" data-name="Grupo 60159" transform="translate(68.214 56.93)">
            <path id="Trazado_107113" data-name="Trazado 107113" d="M273.146,300.131l-.316-.261a13.784,13.784,0,0,1,12.852-4.652l-.075.4A13.356,13.356,0,0,0,273.146,300.131Z" transform="translate(-272.83 -295.002)" fill="#b08874"/>
          </g>
          <g id="Grupo_60160" data-name="Grupo 60160" transform="translate(87.018 54.167)">
            <path id="Trazado_107114" data-name="Trazado 107114" d="M294.357,296.526l-.316-.261a12.393,12.393,0,0,1,11.561-4.184l-.076.4A11.977,11.977,0,0,0,294.357,296.526Z" transform="translate(-294.041 -291.886)" fill="#b08874"/>
          </g>
        </g>
        <g id="Grupo_60164" data-name="Grupo 60164" transform="translate(63.599 120.129)">
          <g id="Grupo_60162" data-name="Grupo 60162">
            <rect id="Rectángulo_8260" data-name="Rectángulo 8260" width="78.685" height="14.154" transform="matrix(0.908, -0.419, 0.419, 0.908, 4.242, 32.975)" fill="#fff"/>
            <path id="Trazado_107115" data-name="Trazado 107115" d="M267.625,413.267l47.627,100.366H422.888l-66.7-141.244Z" transform="translate(-267.625 -366.983)" fill="#0e366b"/>
            <path id="Trazado_107116" data-name="Trazado 107116" d="M352.744,375.648l-4.319-9.357L312.7,382.778l61.524,130.163H428L361.306,371.7Z" transform="translate(-272.74 -366.291)" fill="#e6e7e8" style="mix-blend-mode: multiply;isolation: isolate"/>
          </g>
          <g id="Grupo_60163" data-name="Grupo 60163" transform="translate(82.862 19.585)">
            <path id="Trazado_107117" data-name="Trazado 107117" d="M369.566,390.138a4.774,4.774,0,1,1-6.717-.68A4.774,4.774,0,0,1,369.566,390.138Z" transform="translate(-361.093 -388.383)" fill="#fff"/>
            <path id="Trazado_107118" data-name="Trazado 107118" d="M378.985,410.193a4.774,4.774,0,1,1-6.716-.679A4.774,4.774,0,0,1,378.985,410.193Z" transform="translate(-362.162 -390.659)" fill="#fff"/>
          </g>
        </g>
      </g>
    </g>
  </g>
</svg>
