<svg xmlns="http://www.w3.org/2000/svg" width="62.917" height="62.938" viewBox="0 0 62.917 62.938">
  <g id="browser" transform="translate(-0.083)">
    <g id="Grupo_59704" data-name="Grupo 59704" transform="translate(1.005 0.922)">
      <g id="Grupo_59702" data-name="Grupo 59702" transform="translate(4.459)">
        <g id="Grupo_59700" data-name="Grupo 59700">
          <ellipse id="Elipse_4150" data-name="Elipse 4150" cx="25.88" cy="25.868" rx="25.88" ry="25.868" transform="translate(0 0)" fill="#b5e8e0"/>
          <path id="Trazado_106590" data-name="Trazado 106590" d="M236.851,7.5c-.829,0-1.649.041-2.458.117a25.867,25.867,0,0,1,0,51.5c.809.076,1.629.117,2.458.117a25.868,25.868,0,1,0,0-51.736Z" transform="translate(-210.971 -7.5)" fill="#97dbd1"/>
          <g id="Grupo_59699" data-name="Grupo 59699" transform="translate(1.752 17.068)">
            <g id="Grupo_59698" data-name="Grupo 59698">
              <path id="Trazado_106591" data-name="Trazado 106591" d="M58.111,146.352h48.256" transform="translate(-58.111 -146.352)" fill="#ffd88f"/>
            </g>
          </g>
        </g>
        <path id="Trazado_106592" data-name="Trazado 106592" d="M394.747,321.05l.038,16.444a1.043,1.043,0,0,0,1.875.626l3.557-4.706a1.043,1.043,0,0,1,.993-.4l5.83.911a1.043,1.043,0,0,0,.912-1.753l-11.412-11.846A1.043,1.043,0,0,0,394.747,321.05Z" transform="translate(-351.614 -281.589)" fill="#fff7e8"/>
        <g id="Grupo_59701" data-name="Grupo 59701" transform="translate(43.133 38.414)">
          <path id="Trazado_106593" data-name="Trazado 106593" d="M407.953,332.171l-11.412-11.846a1.043,1.043,0,0,0-1.794.726l.006,2.522,8.283,8.6a1.021,1.021,0,0,1,.2,1.158l3.809.595A1.043,1.043,0,0,0,407.953,332.171Z" transform="translate(-394.747 -320.004)" fill="#fff1d6"/>
        </g>
      </g>
      <g id="Grupo_59703" data-name="Grupo 59703" transform="translate(0 47.917)">
        <path id="Trazado_106594" data-name="Trazado 106594" d="M44.159,410.483H9.836a2.253,2.253,0,0,1-2.253-2.253v-8.67a2.253,2.253,0,0,1,2.253-2.253H44.159a2.253,2.253,0,0,1,2.253,2.253v8.67A2.253,2.253,0,0,1,44.159,410.483Z" transform="translate(-7.583 -397.306)" fill="#ff9e5e"/>
        <path id="Trazado_106595" data-name="Trazado 106595" d="M270.047,397.307H265.13a2.253,2.253,0,0,1,2.253,2.253v8.67a2.253,2.253,0,0,1-2.253,2.253h4.917a2.253,2.253,0,0,0,2.253-2.253v-8.67A2.253,2.253,0,0,0,270.047,397.307Z" transform="translate(-233.471 -397.307)" fill="#fa8d46"/>
      </g>
    </g>
    <g id="Grupo_59705" data-name="Grupo 59705" transform="translate(0.083 0)">
      <path id="Trazado_106596" data-name="Trazado 106596" d="M62.467,50.864l-8.843-9.18a26.785,26.785,0,0,0-4.3-34.765.922.922,0,0,0-1.237,1.368,24.973,24.973,0,0,1,6.238,8.782H42.478C41.368,10.47,39.147,5.2,36.3,2.341A24.858,24.858,0,0,1,43.716,5.12a.922.922,0,0,0,.915-1.6,26.8,26.8,0,0,0-29.772,44.4H3.258A3.179,3.179,0,0,0,.083,51.092v8.67a3.179,3.179,0,0,0,3.175,3.175H6.966a.922.922,0,0,0,0-1.844H3.258a1.333,1.333,0,0,1-1.331-1.331v-8.67a1.333,1.333,0,0,1,1.331-1.331H37.581a1.333,1.333,0,0,1,1.331,1.331v8.67a1.333,1.333,0,0,1-1.331,1.331h-25.7a.922.922,0,0,0,0,1.844h25.7a3.179,3.179,0,0,0,3.175-3.175V51.881a26.6,26.6,0,0,0,6.937-3.862l.02,8.811a1.978,1.978,0,0,0,3.533,1.18L54.8,53.3a.12.12,0,0,1,.116-.047l5.83.911a1.983,1.983,0,0,0,1.719-3.3ZM55.019,18.912a24.961,24.961,0,0,1,.015,15.755H42.747a59.873,59.873,0,0,0,.512-7.878,60.259,60.259,0,0,0-.5-7.878Zm-18.418,29H26.087a31.447,31.447,0,0,1-4-11.406H40.6A31.447,31.447,0,0,1,36.6,47.917ZM21.8,34.667a59.439,59.439,0,0,1,0-15.755H40.891a58.023,58.023,0,0,1,.525,7.878,58.235,58.235,0,0,1-.524,7.878ZM6.386,26.79a24.834,24.834,0,0,1,1.276-7.878H19.933a61.277,61.277,0,0,0,.008,15.755H7.653A25.017,25.017,0,0,1,6.386,26.79ZM38.269,8.859A37.931,37.931,0,0,1,40.6,17.068H22.085a37.933,37.933,0,0,1,2.334-8.209c1.895-4.458,4.419-7.015,6.925-7.015S36.375,4.4,38.269,8.859ZM26.39,2.338c-2.848,2.855-5.069,8.13-6.181,14.73H8.359A25.048,25.048,0,0,1,26.39,2.338ZM17.924,47.827A24.914,24.914,0,0,1,8.347,36.511h11.87a35.735,35.735,0,0,0,3.717,11.406H18.042a.932.932,0,0,0-.117-.09Zm22.631,2.155A3.191,3.191,0,0,0,38.65,48.1a35.388,35.388,0,0,0,3.821-11.591H54.338a24.851,24.851,0,0,1-2.025,3.812l-1.258-1.305a1.987,1.987,0,0,0-3.38,1.367l.012,5.258a24.835,24.835,0,0,1-7.132,4.338Zm20.6,2.3a.1.1,0,0,1-.126.064l-5.83-.911a1.962,1.962,0,0,0-1.871.757L49.775,56.9q-.161.12-.218-.072l-.038-16.444q.047-.183.208-.084L61.139,52.143a.1.1,0,0,1,.02.139Z" transform="translate(-0.083 0)"/>
      <path id="Trazado_106597" data-name="Trazado 106597" d="M42.988,426.464l1.934-5.962a.922.922,0,0,0-1.754-.569l-1.159,3.572-1.2-2.91a.929.929,0,0,0-1.706,0l-1.2,2.911-1.159-3.572A.922.922,0,0,0,35,420.5l1.934,5.962a.931.931,0,0,0,1.73.066l1.3-3.158,1.3,3.158A.929.929,0,0,0,42.988,426.464Z" transform="translate(-30.663 -367.772)"/>
      <path id="Trazado_106598" data-name="Trazado 106598" d="M127.577,427.1a.923.923,0,0,0,.888-.571l1.3-3.158,1.3,3.158a.931.931,0,0,0,1.73-.066l1.934-5.962a.922.922,0,0,0-1.754-.569l-1.159,3.572-1.2-2.91a.929.929,0,0,0-1.706,0l-1.2,2.91-1.159-3.572a.922.922,0,0,0-1.754.569l1.934,5.962A.923.923,0,0,0,127.577,427.1Z" transform="translate(-109.425 -367.772)"/>
      <path id="Trazado_106599" data-name="Trazado 106599" d="M217.38,427.1a.924.924,0,0,0,.888-.571l1.3-3.158,1.3,3.158a.931.931,0,0,0,1.73-.066l1.934-5.962a.922.922,0,0,0-1.754-.569l-1.159,3.572-1.2-2.91a.929.929,0,0,0-1.706,0l-1.2,2.91-1.159-3.572a.922.922,0,0,0-1.754.569l1.934,5.962A.922.922,0,0,0,217.38,427.1Z" transform="translate(-188.189 -367.772)"/>
    </g>
  </g>
</svg>
