<svg xmlns="http://www.w3.org/2000/svg" width="50.351" height="63" viewBox="0 0 50.351 63">
  <g id="Grupo_59730" data-name="Grupo 59730" transform="translate(-108.985 -314.065) rotate(-90)">
    <path id="Trazado_106672" data-name="Trazado 106672" d="M-211.592,134.9v29.254h-3.03V134.9Z" transform="translate(-122.487 -19.542)"/>
    <path id="Trazado_106673" data-name="Trazado 106673" d="M-291.426,134.753h3.007v29.285h-3.007Z" transform="translate(-64.574 -19.43)"/>
    <path id="Trazado_106674" data-name="Trazado 106674" d="M-168.77,164.071h-2.973V134.783h2.973Z" transform="translate(-154.819 -19.452)"/>
    <path id="Trazado_106675" data-name="Trazado 106675" d="M-330.989,164.068h-2.922V134.78h2.922Z" transform="translate(-32.539 -19.45)"/>
    <path id="Trazado_106676" data-name="Trazado 106676" d="M-353.47,169.308h-1.947V134.774h1.947Z" transform="translate(-16.323 -19.445)"/>
    <path id="Trazado_106677" data-name="Trazado 106677" d="M-150.587,134.731h1.98v34.492h-1.98Z" transform="translate(-170.771 -19.413)"/>
    <path id="Trazado_106678" data-name="Trazado 106678" d="M-252.836,134.714h1.862v34.521h-1.862Z" transform="translate(-93.672 -19.4)"/>
    <path id="Trazado_106679" data-name="Trazado 106679" d="M-306.471,164.066h-1.986V134.774h1.986Z" transform="translate(-51.732 -19.445)"/>
    <path id="Trazado_106680" data-name="Trazado 106680" d="M-229.709,164.074h-1.923V134.792h1.923Z" transform="translate(-109.661 -19.459)"/>
    <path id="Trazado_106681" data-name="Trazado 106681" d="M-269.907,134.682h1.9v29.3h-1.9Z" transform="translate(-80.8 -19.376)"/>
    <path id="Trazado_106682" data-name="Trazado 106682" d="M-188.862,134.7h1.9v29.293h-1.9Z" transform="translate(-141.91 -19.389)"/>
    <path id="Trazado_106683" data-name="Trazado 106683" d="M-377.046,115.143c0-1.719-.065-3.395.049-5.059a1.507,1.507,0,0,1,1.034-1.032c1.666-.114,3.344-.049,5.124-.049v2.052h-4.046v4.087Z" transform="translate(0)" fill="#ff9800"/>
    <path id="Trazado_106684" data-name="Trazado 106684" d="M-142.2,111.17h-4.157v-2.034c1.814,0,3.6-.055,5.375.052.308.018.8.7.822,1.1.094,1.626.039,3.261.039,4.98H-142.2Z" transform="translate(-173.962 -0.103)" fill="#ff9800"/>
    <path id="Trazado_106685" data-name="Trazado 106685" d="M-377.011,288.428h2.083v4.11h4.135v2.05c-1.819,0-3.638.041-5.452-.044-.27-.013-.717-.6-.732-.944C-377.052,291.9-377.011,290.187-377.011,288.428Z" transform="translate(-0.032 -135.305)" fill="#ff9800"/>
    <path id="Trazado_106686" data-name="Trazado 106686" d="M-142.232,292.68v-4.12h2.113c0,1.736.057,3.447-.046,5.148a1.415,1.415,0,0,1-.972.971c-1.7.1-3.417.046-5.208.046V292.68Z" transform="translate(-173.97 -135.405)" fill="#ff9800"/>
    <path id="Trazado_106687" data-name="Trazado 106687" d="M-336.351,265.769H-338.3V262.71h1.951Z" transform="translate(-29.228 -115.913)"/>
    <path id="Trazado_106688" data-name="Trazado 106688" d="M-321.135,262.607h1.91v3.071h-1.91Z" transform="translate(-42.173 -115.835)"/>
    <path id="Trazado_106689" data-name="Trazado 106689" d="M-182.84,265.816h-1.936v-3.032h1.936Z" transform="translate(-144.991 -115.969)"/>
    <path id="Trazado_106690" data-name="Trazado 106690" d="M-165.678,265.787h-1.931v-3.042h1.931Z" transform="translate(-157.936 -115.939)"/>
    <path id="Trazado_106691" data-name="Trazado 106691" d="M-302.185,265.8h-1.92v-3.05h1.92Z" transform="translate(-55.014 -115.946)"/>
    <path id="Trazado_106692" data-name="Trazado 106692" d="M-201.69,262.663h1.9v3.063h-1.9Z" transform="translate(-132.238 -115.878)"/>
    <path id="Trazado_106693" data-name="Trazado 106693" d="M-287.11,262.648h1.917V265.7h-1.917Z" transform="translate(-67.829 -115.866)"/>
    <path id="Trazado_106694" data-name="Trazado 106694" d="M-267.953,265.824h-1.876v-3.05h1.876Z" transform="translate(-80.858 -115.961)"/>
    <path id="Trazado_106695" data-name="Trazado 106695" d="M-233.941,265.878h-1.881v-3.03h1.881Z" transform="translate(-106.501 -116.017)"/>
    <path id="Trazado_106696" data-name="Trazado 106696" d="M-216.874,265.893H-218.8v-3.02h1.922Z" transform="translate(-119.339 -116.036)"/>
  </g>
</svg>
