<svg xmlns="http://www.w3.org/2000/svg" xmlns:xlink="http://www.w3.org/1999/xlink" width="1320" height="540" viewBox="0 0 1320 540">
  <defs>
    <clipPath id="clip-path">
      <rect id="Rect치ngulo_5443" data-name="Rect치ngulo 5443" width="893" height="518" rx="20" transform="translate(425 90)" fill="#ffb74d"/>
    </clipPath>
    <linearGradient id="linear-gradient" x1="0.357" y1="1.23" x2="0.864" y2="0.342" gradientUnits="objectBoundingBox">
      <stop offset="0" stop-color="#fbe785" stop-opacity="0"/>
      <stop offset="1" stop-color="#ffcf70"/>
    </linearGradient>
    <linearGradient id="linear-gradient-2" x1="0.205" y1="1.607" x2="0.79" y2="0.196" gradientUnits="objectBoundingBox">
      <stop offset="0" stop-color="#f6e8b7" stop-opacity="0"/>
      <stop offset="1" stop-color="#ffdf88"/>
    </linearGradient>
    <linearGradient id="linear-gradient-3" x1="-4.348" y1="1.327" x2="-4.348" gradientUnits="objectBoundingBox">
      <stop offset="0" stop-color="#fff" stop-opacity="0"/>
      <stop offset="1" stop-color="#fff"/>
    </linearGradient>
    <linearGradient id="linear-gradient-4" x1="-3.966" y1="1" x2="-3.966" y2="0" xlink:href="#linear-gradient-3"/>
    <linearGradient id="linear-gradient-5" x1="0.383" y1="1.44" x2="0.383" y2="0" xlink:href="#linear-gradient-3"/>
  </defs>
  <g id="Grupo_61471" data-name="Grupo 61471" transform="translate(-140.333 -78)">
    <rect id="Rect치ngulo_5250" data-name="Rect치ngulo 5250" width="1320" height="540" rx="20" transform="translate(140.333 78)" fill="#ffb74d"/>
    <g id="Enmascarar_grupo_1" data-name="Enmascarar grupo 1" transform="translate(142.333 10)" clip-path="url(#clip-path)">
      <g id="Grupo_55493" data-name="Grupo 55493" transform="translate(320 10.345)">
        <g id="Grupo_55368" data-name="Grupo 55368" transform="translate(139.712 128.149)">
          <path id="Trazado_101071" data-name="Trazado 101071" d="M973.564,122.921C780.3,51.282,797.174,286.058,604.621,212.831,439.53,150.047,377.5,293.322,399.453,385.609c23.865,100.308-64.8,63.341-140.325,73.092-105,13.558-155.081,88.554-141.737,138.856,0,0,635.614.017,856.173.035Z" transform="translate(-115.275 -109.149)" fill="url(#linear-gradient)"/>
          <path id="Trazado_101072" data-name="Trazado 101072" d="M929.329,231.515c-29.957-20.026-67.173-13.816-85.366-8.715-66.464,18.637-72.565,98.612-304.27,56.184-114.643-20.991-60.652,46.86-64.784,123.747-4.846,90.182-112.637,60.483-190.308,55.76-66.994-4.073-99.548,51.464-76.256,84.5H929.329Z" transform="translate(-71.041 -72.72)" fill="url(#linear-gradient-2)"/>
          <path id="Trazado_101073" data-name="Trazado 101073" d="M735.2,185.525a39.138,39.138,0,0,0-7.333,2.668c-2.523-6.956-7.85-16.792-17.409-17.689-1.512-.143-5.239,1.27-6.2.933-1.368-.482-3.853-5.015-5-6.19a31.855,31.855,0,0,0-11.108-7.677c-19.322-7.548-38.1,6.75-39.38,24.4-16.988-12.436-41.95-4.472-42.792,14.265-8.98-8.658-20.46-6.008-25.89,4.041a32.717,32.717,0,0,0-2.8,7.284,30.688,30.688,0,0,1-.86,4.12l-.026.059H735.2Z" transform="translate(123.086 -85.186)" fill="url(#linear-gradient-3)"/>
          <g id="Grupo_55653" data-name="Grupo 55653" transform="translate(256.382 19.375)">
            <path id="Trazado_101074" data-name="Trazado 101074" d="M738.985,328.059c-9.324-1.681-18.687-3.146-28.014-4.806-1.711-.3-3.672-.361-4.731-1.464-.837-.869-1.174-2.985-1.79-4.093a20.67,20.67,0,0,0-3.163-4.312,14.988,14.988,0,0,0-6.89-4.211,23.024,23.024,0,0,0-3.829-.372c-1.123-.1-1.438.235-2.26-.308-.5-.331-1.289-2.23-1.593-2.686-7.135-10.709-20.845-15.668-32.827-10.169a27.624,27.624,0,0,0-8.267,5.9c-1.13,1.167-2.21,3.352-3.466,4.3-.536.407-.611.634-.589.742a4.464,4.464,0,0,0-1.333-.382c-.872-.162-1.76-.725-2.69-.582-4.3.664-5.979,4.373-7.777,7.6-1.55-3.88-5.534-6.831-12-6.15a15.074,15.074,0,0,0-9.12,4.71,18.719,18.719,0,0,0-3.273,4.751c-.434.895-.634,1.954-1.1,2.809-.925,1.7.335,1.2-1.769,1.778-1.929.525-4.449.126-6.47.343a55.008,55.008,0,0,0-6.363,1.056,48.6,48.6,0,0,0-9.74,3.307,38.207,38.207,0,0,0-10.835,7.307H738.985Z" transform="translate(-369.079 -266.618)" fill="url(#linear-gradient-4)"/>
            <path id="Trazado_101075" data-name="Trazado 101075" d="M494.8,261.984a3.367,3.367,0,0,1-.155-.7c-1.417-1.805-2.149-4.463-3.5-6.406a33,33,0,0,0-10.468-9.676,31.482,31.482,0,0,0-30.362-.569c-2.107-6.365-6.5-14.973-14.036-15.973-1.415-.188-4.475,1.2-5.485.8-1.138-.449-2.727-3.986-3.712-5.133a26.769,26.769,0,0,0-9.488-7.354c-15.717-6.784-27.8,9.085-32.692,22.022-13.8-11.064-29.064-.815-35.392,12.918-7.745-8.176-17.206-5.261-21.692,4.266a30.558,30.558,0,0,0-1.987,5.808Z" transform="translate(-325.825 -215.347)" fill="url(#linear-gradient-5)"/>
          </g>
        </g>
      </g>
    </g>
  </g>
</svg>
