<svg xmlns="http://www.w3.org/2000/svg" width="76.5" height="61.14" viewBox="0 0 76.5 61.14">
  <g id="Grupo_59835" data-name="Grupo 59835" transform="translate(377.065 -108.985)">
    <path id="Trazado_106672" data-name="Trazado 106672" d="M-210.942,134.9v35.523h-3.68V134.9Z" transform="translate(-113.925 -18.176)"/>
    <path id="Trazado_106673" data-name="Trazado 106673" d="M-291.426,134.753h3.651v35.56h-3.651Z" transform="translate(-60.06 -18.072)"/>
    <path id="Trazado_106674" data-name="Trazado 106674" d="M-168.133,170.347h-3.61V134.783h3.61Z" transform="translate(-143.997 -18.093)"/>
    <path id="Trazado_106675" data-name="Trazado 106675" d="M-330.363,170.343h-3.548V134.78h3.548Z" transform="translate(-30.265 -18.09)"/>
    <path id="Trazado_106676" data-name="Trazado 106676" d="M-353.052,176.709h-2.365V134.774h2.365Z" transform="translate(-15.182 -18.086)"/>
    <path id="Trazado_106677" data-name="Trazado 106677" d="M-150.587,134.731h2.4v41.883h-2.4Z" transform="translate(-158.834 -18.056)"/>
    <path id="Trazado_106678" data-name="Trazado 106678" d="M-252.836,134.714h2.262v41.919h-2.262Z" transform="translate(-87.124 -18.044)"/>
    <path id="Trazado_106679" data-name="Trazado 106679" d="M-306.045,170.343h-2.412V134.774h2.412Z" transform="translate(-48.116 -18.086)"/>
    <path id="Trazado_106680" data-name="Trazado 106680" d="M-229.3,170.349h-2.335V134.792h2.335Z" transform="translate(-101.995 -18.099)"/>
    <path id="Trazado_106681" data-name="Trazado 106681" d="M-269.907,134.682h2.3v35.575h-2.3Z" transform="translate(-75.152 -18.022)"/>
    <path id="Trazado_106682" data-name="Trazado 106682" d="M-188.862,134.7h2.307v35.57h-2.307Z" transform="translate(-131.991 -18.034)"/>
    <path id="Trazado_106683" data-name="Trazado 106683" d="M-377.042,116.463c0-2.087-.079-4.122.06-6.143a1.829,1.829,0,0,1,1.256-1.253c2.023-.139,4.061-.059,6.222-.059V111.5h-4.913v4.963Z" transform="translate(0 0)" fill="#ff9800"/>
    <path id="Trazado_106684" data-name="Trazado 106684" d="M-141.307,111.609h-5.048v-2.47c2.2,0,4.371-.066,6.527.063.374.022.97.855,1,1.341.114,1.975.047,3.96.047,6.047h-2.525Z" transform="translate(-161.802 -0.096)" fill="#ff9800"/>
    <path id="Trazado_106685" data-name="Trazado 106685" d="M-377.008,288.428h2.53v4.991h5.021v2.49c-2.209,0-4.418.049-6.62-.053-.327-.015-.871-.734-.889-1.146C-377.058,292.64-377.008,290.564-377.008,288.428Z" transform="translate(-0.03 -125.847)" fill="#ff9800"/>
    <path id="Trazado_106686" data-name="Trazado 106686" d="M-141.351,293.563v-5h2.565c0,2.107.069,4.185-.056,6.252a1.718,1.718,0,0,1-1.18,1.179c-2.069.125-4.15.056-6.324.056v-2.483Z" transform="translate(-161.809 -125.94)" fill="#ff9800"/>
    <path id="Trazado_106687" data-name="Trazado 106687" d="M-335.933,266.425H-338.3V262.71h2.369Z" transform="translate(-27.185 -107.811)"/>
    <path id="Trazado_106688" data-name="Trazado 106688" d="M-321.135,262.607h2.32v3.729h-2.32Z" transform="translate(-39.225 -107.738)"/>
    <path id="Trazado_106689" data-name="Trazado 106689" d="M-182.425,266.465h-2.351v-3.681h2.351Z" transform="translate(-134.856 -107.863)"/>
    <path id="Trazado_106690" data-name="Trazado 106690" d="M-165.264,266.438h-2.345v-3.693h2.345Z" transform="translate(-146.896 -107.835)"/>
    <path id="Trazado_106691" data-name="Trazado 106691" d="M-301.774,266.457h-2.331v-3.7h2.331Z" transform="translate(-51.168 -107.841)"/>
    <path id="Trazado_106692" data-name="Trazado 106692" d="M-201.69,262.663h2.3v3.719h-2.3Z" transform="translate(-122.994 -107.778)"/>
    <path id="Trazado_106693" data-name="Trazado 106693" d="M-287.11,262.648h2.328v3.707h-2.328Z" transform="translate(-63.087 -107.767)"/>
    <path id="Trazado_106694" data-name="Trazado 106694" d="M-267.551,266.478h-2.279v-3.7h2.279Z" transform="translate(-75.206 -107.856)"/>
    <path id="Trazado_106695" data-name="Trazado 106695" d="M-233.538,266.528h-2.284v-3.68h2.284Z" transform="translate(-99.057 -107.908)"/>
    <path id="Trazado_106696" data-name="Trazado 106696" d="M-216.463,266.54H-218.8v-3.667h2.333Z" transform="translate(-110.997 -107.925)"/>
  </g>
</svg>
