<svg xmlns="http://www.w3.org/2000/svg" width="58.798" height="65.832" viewBox="0 0 58.798 65.832">
  <g id="file" transform="translate(-27.352)">
    <g id="Grupo_59711" data-name="Grupo 59711" transform="translate(28.638 1.286)">
      <g id="Grupo_59707" data-name="Grupo 59707" transform="translate(8.759 23.306)">
        <path id="Trazado_106662" data-name="Trazado 106662" d="M140.724,192.395a12.214,12.214,0,0,1-3.6-.54V220.9a3.394,3.394,0,0,1-3.394,3.394H105.476v3.523a3.394,3.394,0,0,0,3.394,3.394h33.618a3.394,3.394,0,0,0,3.394-3.394V191.256A12.171,12.171,0,0,1,140.724,192.395Z" transform="translate(-105.476 -191.256)" fill="#ccf5fc"/>
      </g>
      <g id="Grupo_59708" data-name="Grupo 59708" transform="translate(0 2.783)">
        <path id="Trazado_106663" data-name="Trazado 106663" d="M73.339,31.646H40.746a3.394,3.394,0,0,0-3.394,3.394V81.813a3.394,3.394,0,0,0,3.394,3.394H74.364a3.394,3.394,0,0,0,3.394-3.394V53.025" transform="translate(-37.352 -31.646)" fill="#faf7f5"/>
      </g>
      <g id="Grupo_59709" data-name="Grupo 59709" transform="translate(31.787)">
        <ellipse id="Elipse_4152" data-name="Elipse 4152" cx="12.22" cy="12.222" rx="12.22" ry="12.222" fill="#ff7d97"/>
      </g>
      <g id="Grupo_59710" data-name="Grupo 59710" transform="translate(8.618 12.938)">
        <path id="Trazado_106664" data-name="Trazado 106664" d="M104.377,110.62h23.17v5.43h-23.17Z" transform="translate(-104.377 -110.62)" fill="#ffe6b4"/>
      </g>
    </g>
    <g id="Grupo_59729" data-name="Grupo 59729" transform="translate(27.352)">
      <g id="Grupo_59713" data-name="Grupo 59713" transform="translate(44.013 10.538)">
        <g id="Grupo_59712" data-name="Grupo 59712">
          <path id="Trazado_106665" data-name="Trazado 106665" d="M370.941,93.32a1.286,1.286,0,0,1-1.286-1.286V83.242a1.286,1.286,0,1,1,2.572,0v8.792A1.286,1.286,0,0,1,370.941,93.32Z" transform="translate(-369.655 -81.956)"/>
        </g>
      </g>
      <g id="Grupo_59715" data-name="Grupo 59715" transform="translate(44.007 6.4)">
        <g id="Grupo_59714" data-name="Grupo 59714">
          <circle id="Elipse_4153" data-name="Elipse 4153" cx="1.286" cy="1.286" r="1.286"/>
        </g>
      </g>
      <g id="Grupo_59718" data-name="Grupo 59718">
        <path id="Trazado_106666" data-name="Trazado 106666" d="M86.15,13.508A13.5,13.5,0,0,0,64.442,2.783H32.031a4.685,4.685,0,0,0-4.679,4.679V54.236a4.685,4.685,0,0,0,4.679,4.679h4.08v2.237a4.685,4.685,0,0,0,4.679,4.679H74.409a4.685,4.685,0,0,0,4.679-4.679V43.319a1.286,1.286,0,0,0-2.572,0V61.153a2.11,2.11,0,0,1-2.108,2.108H40.791a2.11,2.11,0,0,1-2.108-2.108V58.915H65.65a4.685,4.685,0,0,0,4.679-4.679V26.817a13.555,13.555,0,0,0,6.188-.367v5.243a1.286,1.286,0,0,0,2.572,0V25.377A13.52,13.52,0,0,0,86.15,13.508ZM67.758,54.236a2.11,2.11,0,0,1-2.108,2.108H32.031a2.11,2.11,0,0,1-2.108-2.108V7.463a2.11,2.11,0,0,1,2.108-2.108H61.883a13.437,13.437,0,0,0-2.732,7.583h-21.9a1.286,1.286,0,0,0-1.286,1.286v5.43a1.286,1.286,0,0,0,1.286,1.286h23.17a1.28,1.28,0,0,0,.778-.262A13.585,13.585,0,0,0,67.758,26.1ZM59.14,15.509v2.859h-20.6V15.509Zm13.505,8.935A10.936,10.936,0,1,1,83.579,13.508,10.947,10.947,0,0,1,72.645,24.444Z" transform="translate(-27.352)"/>
        <g id="Grupo_59717" data-name="Grupo 59717" transform="translate(49.167 36.2)">
          <g id="Grupo_59716" data-name="Grupo 59716">
            <path id="Trazado_106667" data-name="Trazado 106667" d="M411.025,284.11a1.286,1.286,0,1,1,1.252-.994A1.3,1.3,0,0,1,411.025,284.11Z" transform="translate(-409.742 -281.541)"/>
          </g>
        </g>
      </g>
      <g id="Grupo_59728" data-name="Grupo 59728" transform="translate(8.618 25.411)">
        <g id="Grupo_59727" data-name="Grupo 59727">
          <g id="Grupo_59720" data-name="Grupo 59720">
            <g id="Grupo_59719" data-name="Grupo 59719">
              <path id="Trazado_106668" data-name="Trazado 106668" d="M118.832,200.2H95.663a1.286,1.286,0,1,1,0-2.572h23.17a1.286,1.286,0,1,1,0,2.572Z" transform="translate(-94.377 -197.633)"/>
            </g>
          </g>
          <g id="Grupo_59722" data-name="Grupo 59722" transform="translate(0 6.098)">
            <g id="Grupo_59721" data-name="Grupo 59721">
              <path id="Trazado_106669" data-name="Trazado 106669" d="M118.832,247.635H95.663a1.286,1.286,0,1,1,0-2.572h23.17a1.286,1.286,0,1,1,0,2.572Z" transform="translate(-94.377 -245.063)"/>
            </g>
          </g>
          <g id="Grupo_59724" data-name="Grupo 59724" transform="translate(0 12.197)">
            <g id="Grupo_59723" data-name="Grupo 59723">
              <path id="Trazado_106670" data-name="Trazado 106670" d="M118.832,295.065H95.663a1.286,1.286,0,1,1,0-2.572h23.17a1.286,1.286,0,1,1,0,2.572Z" transform="translate(-94.377 -292.493)"/>
            </g>
          </g>
          <g id="Grupo_59726" data-name="Grupo 59726" transform="translate(0 18.295)">
            <g id="Grupo_59725" data-name="Grupo 59725">
              <path id="Trazado_106671" data-name="Trazado 106671" d="M118.832,342.495H95.663a1.286,1.286,0,1,1,0-2.572h23.17a1.286,1.286,0,1,1,0,2.572Z" transform="translate(-94.377 -339.923)"/>
            </g>
          </g>
        </g>
      </g>
    </g>
  </g>
</svg>
