<svg id="Grupo_20753" data-name="Grupo 20753" xmlns="http://www.w3.org/2000/svg" width="36.769" height="42.991" viewBox="0 0 36.769 42.991">
  <g id="Grupo_4403" data-name="Grupo 4403" transform="translate(0 0)">
    <path id="Trazado_724" data-name="Trazado 724" d="M3.441-.049l18.4,0c1.2,1.2,8.379,8.363,10.891,10.875V39.487a3.441,3.441,0,0,1-3.441,3.441H3.441A3.441,3.441,0,0,1,0,39.487V3.393A3.441,3.441,0,0,1,3.441-.049Z" transform="translate(4.036 0.063)" fill="#fff"/>
    <g id="Grupo_1192" data-name="Grupo 1192">
      <path id="Trazado_722" data-name="Trazado 722" d="M1491.537,662.327H1473.2a3.565,3.565,0,0,0-3.561,3.561v35.854a3.566,3.566,0,0,0,3.561,3.561h25.61a3.566,3.566,0,0,0,3.562-3.561V673.157Zm8.829,39.415a1.562,1.562,0,0,1-1.561,1.561H1473.2a1.562,1.562,0,0,1-1.56-1.561V665.888a1.562,1.562,0,0,1,1.56-1.561h17.513l.01.01v9.642h9.642l.006.006Z" transform="translate(-1465.625 -662.327)" fill="#ff9800"/>
      <path id="Trazado_723" data-name="Trazado 723" d="M1451.047,944.912a1.3,1.3,0,0,1-1.313,1.281h-28.887a1.3,1.3,0,0,1-1.313-1.281v-12.8a1.3,1.3,0,0,1,1.313-1.281h28.887a1.3,1.3,0,0,1,1.313,1.281Z" transform="translate(-1419.534 -909.339)" fill="#ff9800"/>
      <text id="PDF" transform="translate(13.641 31.919)" fill="#f8f8f8" font-size="9" font-family="Montserrat-Bold, Montserrat" font-weight="700" letter-spacing="0.04em" style="isolation: isolate"><tspan x="-10.201" y="0">PDF</tspan></text>
    </g>
  </g>
</svg>
