<svg id="log-in" xmlns="http://www.w3.org/2000/svg" width="74" height="74" viewBox="0 0 74 74">
  <path id="Trazado_106600" data-name="Trazado 106600" d="M12.933,8H74.6a4.934,4.934,0,0,1,4.933,4.933V74.6A4.934,4.934,0,0,1,74.6,79.533H12.933A4.934,4.934,0,0,1,8,74.6V12.933A4.934,4.934,0,0,1,12.933,8Zm0,0" transform="translate(-6.767 -6.767)" fill="#ebebeb"/>
  <path id="Trazado_106601" data-name="Trazado 106601" d="M298.467,288H310.8a2.467,2.467,0,0,1,2.467,2.467v13.567A2.467,2.467,0,0,1,310.8,306.5H298.467A2.467,2.467,0,0,1,296,304.033V290.467A2.467,2.467,0,0,1,298.467,288Zm0,0" transform="translate(-250.367 -243.6)" fill="#fbb540"/>
  <path id="Trazado_106602" data-name="Trazado 106602" d="M144,232h7.4v2.467H144Zm0,0" transform="translate(-121.8 -196.233)" fill="#8dc79d"/>
  <path id="Trazado_106603" data-name="Trazado 106603" d="M12.933,8H74.6a4.934,4.934,0,0,1,4.933,4.933v4.933H8V12.933A4.934,4.934,0,0,1,12.933,8Zm0,0" transform="translate(-6.767 -6.767)" fill="#6cbae5"/>
  <path id="Trazado_106604" data-name="Trazado 106604" d="M32,32h2.467v2.467H32Zm0,0" transform="translate(-27.067 -27.067)" fill="#4799cf"/>
  <path id="Trazado_106605" data-name="Trazado 106605" d="M64,32h2.467v2.467H64Zm0,0" transform="translate(-54.133 -27.067)" fill="#428dc5"/>
  <path id="Trazado_106606" data-name="Trazado 106606" d="M96,32h2.467v2.467H96Zm0,0" transform="translate(-81.2 -27.067)" fill="#277baa"/>
  <path id="Trazado_106607" data-name="Trazado 106607" d="M190.2,139.1A11.1,11.1,0,1,1,179.1,128,11.1,11.1,0,0,1,190.2,139.1Zm0,0" transform="translate(-142.1 -108.267)" fill="#6cbae5"/>
  <path id="Trazado_106608" data-name="Trazado 106608" d="M217.867,156.933A4.933,4.933,0,1,1,212.933,152,4.934,4.934,0,0,1,217.867,156.933Zm0,0" transform="translate(-175.933 -128.567)" fill="#fbb540"/>
  <path id="Trazado_106609" data-name="Trazado 106609" d="M206.8,207.4a7.4,7.4,0,0,0-14.8,0v.864a11.054,11.054,0,0,0,14.8,0Zm0,0" transform="translate(-162.4 -169.167)" fill="#fbb540"/>
  <path id="Trazado_106610" data-name="Trazado 106610" d="M161.9,329.867H137.233A1.233,1.233,0,0,1,136,328.633v-7.4A1.233,1.233,0,0,1,137.233,320H161.9Zm0,0" transform="translate(-115.033 -270.667)" fill="#fbb540"/>
  <g id="Grupo_59706" data-name="Grupo 59706" transform="translate(24.667 53.033)">
    <path id="Trazado_106611" data-name="Trazado 106611" d="M160,344h2.467v2.467H160Zm0,0" transform="translate(-160 -344)" fill="#c38325"/>
    <path id="Trazado_106612" data-name="Trazado 106612" d="M192,344h2.467v2.467H192Zm0,0" transform="translate(-187.067 -344)" fill="#c38325"/>
    <path id="Trazado_106613" data-name="Trazado 106613" d="M224,344h2.467v2.467H224Zm0,0" transform="translate(-214.133 -344)" fill="#c38325"/>
    <path id="Trazado_106614" data-name="Trazado 106614" d="M256,344h2.467v2.467H256Zm0,0" transform="translate(-241.2 -344)" fill="#c38325"/>
  </g>
  <path id="Trazado_106615" data-name="Trazado 106615" d="M335.4,310.167h-2.467V307.7a1.233,1.233,0,1,0-2.467,0v2.467H328V307.7a3.7,3.7,0,1,1,7.4,0Zm0,0" transform="translate(-277.433 -257.133)" fill="#ebebeb"/>
  <path id="Trazado_106616" data-name="Trazado 106616" d="M328,344h7.4v4.933H328Zm0,0" transform="translate(-277.433 -290.967)" fill="#6cbae5"/>
  <path id="Trazado_106617" data-name="Trazado 106617" d="M328,368h7.4v1.233H328Zm0,0" transform="translate(-277.433 -311.267)" fill="#4799cf"/>
  <path id="Trazado_106618" data-name="Trazado 106618" d="M112,344h3.7v2.467H112Zm0,0" transform="translate(-94.733 -290.967)" fill="#8dc79d"/>
  <path id="Trazado_106619" data-name="Trazado 106619" d="M75.7,251.733H73.233A1.233,1.233,0,0,1,72,250.5V233.233A1.233,1.233,0,0,1,73.233,232H75.7v2.467H74.467v14.8H75.7Zm0,0" transform="translate(-60.9 -196.233)" fill="#8dc79d"/>
  <path id="Trazado_106620" data-name="Trazado 106620" d="M112,232h2.467v2.467H112Zm0,0" transform="translate(-94.733 -196.233)" fill="#8dc79d"/>
  <path id="Trazado_106621" data-name="Trazado 106621" d="M328,336h2.467v1.233H328Zm0,0" transform="translate(-277.433 -284.2)" fill="#e4e4e2"/>
  <path id="Trazado_106622" data-name="Trazado 106622" d="M360,336h2.467v1.233H360Zm0,0" transform="translate(-304.5 -284.2)" fill="#e4e4e2"/>
  <path id="Trazado_106623" data-name="Trazado 106623" d="M67.833,0H6.167A6.174,6.174,0,0,0,0,6.167V67.833A6.174,6.174,0,0,0,6.167,74H67.833A6.174,6.174,0,0,0,74,67.833V6.167A6.174,6.174,0,0,0,67.833,0ZM2.467,6.167a3.7,3.7,0,0,1,3.7-3.7H67.833a3.7,3.7,0,0,1,3.7,3.7v3.7H2.467ZM67.833,71.533H6.167a3.7,3.7,0,0,1-3.7-3.7v-55.5H71.533v55.5A3.7,3.7,0,0,1,67.833,71.533Zm0,0"/>
  <path id="Trazado_106624" data-name="Trazado 106624" d="M32,32h2.467v2.467H32Zm0,0" transform="translate(-27.067 -27.067)"/>
  <path id="Trazado_106625" data-name="Trazado 106625" d="M64,32h2.467v2.467H64Zm0,0" transform="translate(-54.133 -27.067)"/>
  <path id="Trazado_106626" data-name="Trazado 106626" d="M96,32h2.467v2.467H96Zm0,0" transform="translate(-81.2 -27.067)"/>
  <path id="Trazado_106627" data-name="Trazado 106627" d="M150.574,141.388l.01.012c.011.01.023.017.034.026a12.32,12.32,0,0,0,2.621,1.791c.022.012.042.027.064.038.061.031.131.057.194.087.246.123.493.233.753.335l.08.034c.2.078.4.151.624.223.123.042.247.08.379.123.093.028.172.057.273.085l.479.11c.109.025.217.053.328.074l.081.019c.16.03.312.043.47.066.219.033.438.072.661.093.4.038.787.059,1.176.059s.773-.02,1.172-.059c.26-.025.514-.068.77-.108.135-.022.263-.033.4-.058l.06-.013c.106-.021.208-.048.312-.072l.585-.135c.062-.019.123-.045.184-.063.264-.079.522-.171.778-.266.075-.027.149-.048.226-.076l.07-.032c.26-.1.512-.22.761-.339.063-.031.123-.053.189-.086.02-.01.039-.025.06-.034a12.4,12.4,0,0,0,2.614-1.787c.01-.01.022-.017.034-.027l.01-.012a12.333,12.333,0,1,0-19.523-4.237H144v2.467h4.957a12.5,12.5,0,0,0,1.617,1.764Zm2.06-1.48v-.284a6.167,6.167,0,0,1,2.489-4.947,6.041,6.041,0,0,0,7.355,0,6.167,6.167,0,0,1,2.489,4.947v.278a10.651,10.651,0,0,1-1.74,1.129l-.123.06c-.222.107-.446.208-.662.3s-.4.155-.6.222l-.143.048c-.264.081-.534.148-.807.207l-.153.035c-.142.028-.288.043-.432.065-.19.03-.382.061-.567.08-.257.023-.518.035-.779.04-.053,0-.106.007-.159.007-.32,0-.634-.019-.946-.048-.139-.013-.28-.039-.419-.058-.181-.026-.364-.048-.543-.084l-.222-.049c-.213-.047-.425-.1-.633-.163s-.441-.144-.651-.22c-.07-.027-.142-.051-.212-.078-.223-.092-.441-.189-.652-.291-.045-.022-.092-.043-.138-.066a10.766,10.766,0,0,1-1.748-1.131Zm6.167-6.45a3.7,3.7,0,1,1,3.7-3.7A3.7,3.7,0,0,1,158.8,133.457Zm0-11.1a9.848,9.848,0,0,1,8.35,15.1,8.622,8.622,0,0,0-3.038-4.617,6.088,6.088,0,0,0,.855-3.083,6.167,6.167,0,1,0-12.333,0,6.088,6.088,0,0,0,.855,3.083,8.625,8.625,0,0,0-3.038,4.623,9.848,9.848,0,0,1,8.35-15.106Zm0,0" transform="translate(-121.801 -101.391)"/>
  <path id="Trazado_106628" data-name="Trazado 106628" d="M160,344h2.467v2.467H160Zm0,0" transform="translate(-135.333 -290.967)"/>
  <path id="Trazado_106629" data-name="Trazado 106629" d="M192,344h2.467v2.467H192Zm0,0" transform="translate(-162.4 -290.967)"/>
  <path id="Trazado_106630" data-name="Trazado 106630" d="M224,344h2.467v2.467H224Zm0,0" transform="translate(-189.467 -290.967)"/>
  <path id="Trazado_106631" data-name="Trazado 106631" d="M256,344h2.467v2.467H256Zm0,0" transform="translate(-216.533 -290.967)"/>
  <path id="Trazado_106632" data-name="Trazado 106632" d="M328.633,308.933V307.7a3.7,3.7,0,1,0-7.4,0v1.233A1.233,1.233,0,0,0,320,310.167V315.1a1.233,1.233,0,0,0,1.233,1.233h7.4a1.233,1.233,0,0,0,1.233-1.233v-4.933A1.233,1.233,0,0,0,328.633,308.933ZM323.7,307.7a1.233,1.233,0,1,1,2.467,0v1.233H323.7Zm3.7,6.167h-4.933V311.4H327.4Zm0,0" transform="translate(-270.667 -257.133)"/>
  <path id="Trazado_106633" data-name="Trazado 106633" d="M155.167,280H142.833a3.7,3.7,0,0,0-3.7,3.7v1.233h-22.2a2.467,2.467,0,0,0-2.467,2.467v2.467H112v2.467h2.467V294.8a2.467,2.467,0,0,0,2.467,2.467h22.2a3.7,3.7,0,0,0,3.7,3.7h12.333a3.7,3.7,0,0,0,3.7-3.7V283.7A3.7,3.7,0,0,0,155.167,280Zm-38.233,14.8v-7.4h22.2v7.4Zm39.467,2.467a1.233,1.233,0,0,1-1.233,1.233H142.833a1.233,1.233,0,0,1-1.233-1.233V283.7a1.233,1.233,0,0,1,1.233-1.233h12.333A1.233,1.233,0,0,1,156.4,283.7Zm0,0" transform="translate(-94.733 -236.833)"/>
  <path id="Trazado_106634" data-name="Trazado 106634" d="M72,233.233V250.5a1.233,1.233,0,0,0,1.233,1.233H75.7v-2.467H74.467v-14.8H75.7V232H73.233A1.233,1.233,0,0,0,72,233.233Zm0,0" transform="translate(-60.9 -196.233)"/>
  <path id="Trazado_106635" data-name="Trazado 106635" d="M112,232h2.467v2.467H112Zm0,0" transform="translate(-94.733 -196.233)"/>
</svg>
