<svg xmlns="http://www.w3.org/2000/svg" width="47.685" height="43" viewBox="0 0 47.685 43">
  <g id="Grupo_59605" data-name="Grupo 59605" transform="translate(-722.877 -108.926)">
    <path id="Trazado_106507" data-name="Trazado 106507" d="M763.189,130.529c1.545,5.332.28,9.8-3.851,13.562q2.651,2.627,5.283,5.235c.617.612,1.215,1.243,1.85,1.835a1.279,1.279,0,1,0,1.8-1.817c-.854-.9-1.747-1.763-2.626-2.64-.46-.459-.763-.974-.22-1.531s1.064-.272,1.526.194c.874.881,1.777,1.735,2.624,2.641a3.146,3.146,0,1,1-4.471,4.425c-2.287-2.232-4.537-4.5-6.782-6.777a.873.873,0,0,0-1.19-.219c-4.656,2.171-9.129,1.746-13.063-1.518-3.992-3.312-5.251-7.671-3.918-12.727.047-.178.08-.359.147-.661h-1.033q-6.1,0-12.195,0c-2.695,0-4.186-1.5-4.19-4.216q-.009-5.679,0-11.357a3.785,3.785,0,0,1,4.146-4.167c.993,0,1.986.007,2.979,0,.681-.007,1.308.107,1.294.954s-.667.92-1.333.915c-1.024-.007-2.048-.009-3.072,0a1.894,1.894,0,0,0-2.147,2.1q-.017,5.911,0,11.823a1.867,1.867,0,0,0,2.075,2.079q6.889.016,13.777-.012a1.126,1.126,0,0,0,.828-.383,12.891,12.891,0,0,1,5.158-4.6l-1.689-3.33c-.483.987-.843,1.856-1.323,2.652-.244.4-.675.895-1.072.944-.3.038-.792-.5-1.011-.881-.765-1.346-1.445-2.741-2.165-4.113-.313-.6-.37-1.161.312-1.507.654-.331,1.046.081,1.333.623.489.925.973,1.854,1.524,2.9.51-1.045.913-1.978,1.417-2.853.191-.331.611-.728.93-.732a1.448,1.448,0,0,1,.949.709c.544.889.991,1.837,1.541,2.884.484-1.008.891-1.873,1.313-2.73.285-.579.625-1.174,1.406-.807.761.358.595.972.3,1.584-.607,1.249-1.2,2.5-1.806,3.769l4.826-.325-1.441-2.806c-.141-.276-.286-.55-.422-.829-.264-.539-.257-1.05.312-1.369.644-.362,1.066.015,1.359.553.5.916.966,1.849,1.542,2.959.508-1.049.888-1.952,1.378-2.791.207-.355.646-.8.978-.795s.77.438.988.79c.518.837.935,1.737,1.492,2.8.494-1.027.913-1.9,1.338-2.778.291-.6.662-1.14,1.424-.746.69.357.548.947.268,1.527-.672,1.4-1.306,2.811-2.03,4.18-.188.356-.651.791-.981.785s-.766-.446-.984-.8c-.516-.837-.931-1.736-1.476-2.781l-1.292,2.651a38.081,38.081,0,0,1,3.693,2.406,29.825,29.825,0,0,1,2.423,2.676,1.729,1.729,0,0,0,1.016.549c1.175.068,2.357.032,3.536.024,1.476-.011,2.185-.7,2.189-2.156q.014-5.818,0-11.636c0-1.534-.684-2.214-2.222-2.215q-10.472-.007-20.945,0c-2.2,0-4.406-.007-6.609,0-.7,0-1.306-.171-1.282-.979.022-.747.615-.895,1.273-.894q13.87.01,27.74.011a3.708,3.708,0,0,1,3.907,3.931q.028,5.958,0,11.915a3.722,3.722,0,0,1-3.861,3.884C765.542,130.545,764.4,130.529,763.189,130.529Zm-1.209,4.052a10.236,10.236,0,1,0-10.191,10.283A10.27,10.27,0,0,0,761.98,134.58Z" transform="translate(0 -1.512)" fill="#111e61"/>
    <path id="Trazado_106508" data-name="Trazado 106508" d="M750.154,148.885c-.5,1.011-.885,1.916-1.376,2.762-.209.36-.621.813-.957.827s-.8-.408-1-.758c-.766-1.345-1.448-2.737-2.161-4.112-.3-.584-.545-1.211.2-1.609.813-.434,1.166.185,1.48.795.439.852.885,1.7,1.406,2.7.484-.985.865-1.882,1.36-2.711a1.76,1.76,0,0,1,1.031-.867c.3-.032.758.448.976.8.514.842.927,1.746,1.464,2.786.489-1,.92-1.864,1.339-2.736.287-.6.629-1.168,1.4-.8.757.361.579.992.289,1.594-.659,1.367-1.287,2.75-2,4.09-.192.362-.654.848-.952.821a1.754,1.754,0,0,1-1.056-.839C751.082,150.8,750.675,149.893,750.154,148.885Z" transform="translate(-17.489 -30.049)" fill="#111e61"/>
    <path id="Trazado_106509" data-name="Trazado 106509" d="M939.406,281.3c.242.363.68.733.666,1.087a.859.859,0,0,1-1.714.028c-.024-.353.405-.738.638-1.109Z" transform="translate(-175.364 -140.284)" fill="#111e61"/>
    <path id="Trazado_106510" data-name="Trazado 106510" d="M782.225,108.926c.4.585.863.979.8,1.261-.076.359-.579.628-.9.936-.292-.333-.77-.644-.816-1.008C781.279,109.829,781.778,109.476,782.225,108.926Z" transform="translate(-47.556)" fill="#111e61"/>
    <path id="Trazado_106511" data-name="Trazado 106511" d="M850.31,203.043a8.193,8.193,0,1,1-8.136-8.2A8.214,8.214,0,0,1,850.31,203.043Zm-8.226,6.318A6.328,6.328,0,1,0,835.79,203,6.349,6.349,0,0,0,842.084,209.361Z" transform="translate(-90.373 -69.921)" fill="#111e61"/>
    <path id="Trazado_106512" data-name="Trazado 106512" d="M874.282,216.526a4.128,4.128,0,0,1,3.836,3.86c.028.6-.12,1.086-.767,1.181s-.982-.314-1.053-.914a2.356,2.356,0,0,0-2.254-2.3c-.587-.071-1.042-.353-.983-1.006C873.126,216.634,873.653,216.47,874.282,216.526Z" transform="translate(-122.219 -87.559)" fill="#111e61"/>
  </g>
</svg>
