<svg xmlns="http://www.w3.org/2000/svg" width="47" height="57.164" viewBox="0 0 47 57.164">
  <g id="portapapeles" transform="translate(-45.828 0.5)">
    <path id="Trazado_106839" data-name="Trazado 106839" d="M87.276,93.575V46.819a2.26,2.26,0,0,0-2.26-2.26H48.588a2.26,2.26,0,0,0-2.26,2.26V93.575a2.26,2.26,0,0,0,2.26,2.26H85.016A2.26,2.26,0,0,0,87.276,93.575Z" transform="translate(0 -39.671)" fill="#407093" stroke="#000" stroke-width="1"/>
    <path id="Trazado_106840" data-name="Trazado 106840" d="M111.4,119.4V76.03a.565.565,0,0,0-.565-.565H77.8a.565.565,0,0,0-.565.565V119.4a.565.565,0,0,0,.565.565h33.038A.565.565,0,0,0,111.4,119.4Z" transform="translate(-27.516 -67.187)" fill="#e7ecf6" stroke="#000" stroke-width="1"/>
    <path id="Trazado_106841" data-name="Trazado 106841" d="M374.419,44.559h-3.39a2.26,2.26,0,0,1,2.26,2.26V93.575a2.26,2.26,0,0,1-2.26,2.26h3.39a2.26,2.26,0,0,0,2.26-2.26V46.819A2.26,2.26,0,0,0,374.419,44.559Z" transform="translate(-289.083 -39.671)" fill="#365e7d" stroke="#000" stroke-width="1"/>
    <g id="Grupo_59931" data-name="Grupo 59931" transform="translate(55.718 19.324)">
      <g id="Grupo_59927" data-name="Grupo 59927" transform="translate(0)">
        <path id="Trazado_106843" data-name="Trazado 106843" d="M153.572,177.854H132.779a.848.848,0,0,1,0-1.7h20.793a.848.848,0,0,1,0,1.7Z" transform="translate(-131.931 -176.159)" fill="#78c2a4" stroke="#000" stroke-width="1"/>
      </g>
      <g id="Grupo_59928" data-name="Grupo 59928" transform="translate(0 7.433)">
        <path id="Trazado_106844" data-name="Trazado 106844" d="M151.192,245.614H132.779a.848.848,0,0,1,0-1.7h18.413a.848.848,0,1,1,0,1.7Z" transform="translate(-131.931 -243.919)" fill="#78c2a4" stroke="#000" stroke-width="1"/>
      </g>
      <g id="Grupo_59929" data-name="Grupo 59929" transform="translate(0 14.866)">
        <path id="Trazado_106845" data-name="Trazado 106845" d="M144.161,313.374H132.779a.848.848,0,0,1,0-1.7h11.383a.848.848,0,1,1,0,1.7Z" transform="translate(-131.931 -311.679)" fill="#78c2a4" stroke="#000" stroke-width="1"/>
      </g>
      <g id="Grupo_59930" data-name="Grupo 59930" transform="translate(0 22.299)">
        <path id="Trazado_106846" data-name="Trazado 106846" d="M142.155,381.133h-9.376a.848.848,0,0,1,0-1.7h9.376a.848.848,0,0,1,0,1.7Z" transform="translate(-131.931 -379.438)" fill="#78c2a4" stroke="#000" stroke-width="1"/>
      </g>
    </g>
    <path id="Trazado_106847" data-name="Trazado 106847" d="M233.269,322.961l4.819-1.378-5.847-5.847-1.378,4.819Z" transform="translate(-164.292 -281.102)" fill="#bed8fb" stroke="#000" stroke-width="1"/>
    <path id="Trazado_106848" data-name="Trazado 106848" d="M226.076,353.341l3.237-.926-3.226-3.226-.926,3.237A.729.729,0,0,0,226.076,353.341Z" transform="translate(-159.188 -310.884)" fill="#407093" stroke="#000" stroke-width="1"/>
    <path id="Trazado_106851" data-name="Trazado 106851" d="M394.937,150.343l-2.957-2.957a2.044,2.044,0,0,0-2.89,0l-2.2,2.2,1.2,3.172,2.04,2.04,2.6.634,2.2-2.2a2.043,2.043,0,0,0,0-2.89Z" transform="translate(-303.207 -130.686)" fill="#90d8f9" stroke="#000" stroke-width="1"/>
    <path id="Trazado_106853" data-name="Trazado 106853" d="M256.047,175.38,243.423,188l5.847,5.847,12.624-12.624,3.114-3.114-5.847-5.847" transform="translate(-175.475 -153.369)" fill="#e28086" stroke="#000" stroke-width="1"/>
    <path id="Trazado_106855" data-name="Trazado 106855" d="M195.514,0h-5.025a2.412,2.412,0,0,0-2.412,2.412V6.893h9.85V2.412A2.413,2.413,0,0,0,195.514,0Z" transform="translate(-126.199)" fill="#eab14d" stroke="#000" stroke-width="1"/>
    <path id="Trazado_106856" data-name="Trazado 106856" d="M235.4,0h-2.883a2.412,2.412,0,0,1,2.412,2.412V6.893h2.883V2.412A2.412,2.412,0,0,0,235.4,0Z" transform="translate(-165.766)" fill="#e7a52e" stroke="#000" stroke-width="1"/>
    <path id="Trazado_106857" data-name="Trazado 106857" d="M155.218,39.162V32.437A1.017,1.017,0,0,0,154.2,31.42H134.382a1.017,1.017,0,0,0-1.017,1.017v6.724a1.017,1.017,0,0,0,1.017,1.017H154.2A1.017,1.017,0,0,0,155.218,39.162Z" transform="translate(-77.489 -27.973)" fill="#ecbe6b" stroke="#000" stroke-width="1"/>
    <path id="Trazado_106858" data-name="Trazado 106858" d="M302.831,31.421h-2.883a1.017,1.017,0,0,1,1.017,1.017v6.724a1.017,1.017,0,0,1-1.017,1.017h2.883a1.017,1.017,0,0,0,1.017-1.017V32.438A1.017,1.017,0,0,0,302.831,31.421Z" transform="translate(-225.799 -27.974)" fill="#eab14d" stroke="#000" stroke-width="1"/>
  </g>
</svg>
