<svg xmlns="http://www.w3.org/2000/svg" width="68" height="68" viewBox="0 0 68 68">
  <path id="ZOOM_5-2" data-name="ZOOM 5-2" d="M7033.563,1950h-25.125a20.937,20.937,0,0,0-20.937,20.938v25.125A20.937,20.937,0,0,0,7008.438,2017h25.125a20.937,20.937,0,0,0,20.938-20.937v-25.125A20.937,20.937,0,0,0,7033.563,1950Zm14.238,46.063a14.254,14.254,0,0,1-14.238,14.238h-25.125a14.254,14.254,0,0,1-14.238-14.238v-25.125a14.254,14.254,0,0,1,14.238-14.238h25.125a14.254,14.254,0,0,1,14.238,14.238Zm-18.5-17.468v14.722a1.1,1.1,0,0,1-1.1,1.088h-21.46a6.024,6.024,0,0,1-6.047-5.995v-14.722a1.1,1.1,0,0,1,1.1-1.088h21.459A6.025,6.025,0,0,1,7029.3,1978.595Zm11.592-4.96v19.735c0,1.313-.729,1.154-1.367.676l-8.859-6.459v-8.157l8.859-6.472C7040.3,1972.322,7040.9,1972.481,7040.9,1973.635Z" transform="translate(-6987 -1949.5)" fill="#fff" stroke="#111e61" stroke-width="1"/>
</svg>
