<svg xmlns="http://www.w3.org/2000/svg" width="292" height="217.834" viewBox="0 0 292 217.834">
  <g id="Grupo_58463" data-name="Grupo 58463" transform="translate(-480.743 -2470)">
    <g id="Grupo_58415" data-name="Grupo 58415" transform="translate(765.288 2522.147)">
      <path id="Trazado_104717" data-name="Trazado 104717" d="M2348.282,2821.331v-9.076l7.455,4.43Zm.294-8.559v8.029l6.6-4.11Z" transform="translate(-2348.282 -2812.255)" fill="#8bc3fc"/>
    </g>
    <g id="Grupo_58416" data-name="Grupo 58416" transform="translate(548.351 2482.323)">
      <path id="Trazado_104718" data-name="Trazado 104718" d="M930.785,2558.461l-2.524-2.524-2.524,2.524-1.267-1.267,2.525-2.524-2.525-2.525,1.267-1.267,2.524,2.524,2.524-2.524,1.267,1.267-2.525,2.525,2.525,2.524Zm-2.524-2.94,2.524,2.524.851-.851-2.525-2.524,2.525-2.525-.851-.85-2.524,2.524-2.524-2.524-.851.85,2.524,2.525-2.524,2.524.851.851Z" transform="translate(-924.469 -2550.878)" fill="#8bc3fc"/>
    </g>
    <g id="Grupo_58417" data-name="Grupo 58417" transform="translate(585.187 2650.055)">
      <path id="Trazado_104719" data-name="Trazado 104719" d="M1173.376,3661.75a1.438,1.438,0,0,1-1.436-1.437c0-.036,0-.071,0-.105l-3.32-2.369a1.421,1.421,0,0,1-.951.36,1.436,1.436,0,1,1,.967-2.5l3.259-2.325a1.4,1.4,0,0,1-.013-.192,1.435,1.435,0,1,1,.608,1.174l-3.386,2.351c0,.018,0,.035,0,.052s0,.052,0,.078l3.379,2.346a1.436,1.436,0,1,1,.89,2.563Zm-4.784-4.292,3.662,2.614-.012.086a1.174,1.174,0,0,0-.012.155,1.149,1.149,0,1,0,.364-.836l-.085.08-3.708-2.575.01-.086a1.19,1.19,0,0,0,.008-.133c0-.038,0-.074-.006-.11l-.008-.084,3.7-2.571.085.071a1.146,1.146,0,1,0-.415-.883,1.16,1.16,0,0,0,.023.229l.019.092-3.614,2.579-.087-.095a1.145,1.145,0,1,0-.844,1.919,1.135,1.135,0,0,0,.831-.359Z" transform="translate(-1166.237 -3651.749)" fill="#8bc3fc"/>
    </g>
    <g id="Grupo_58432" data-name="Grupo 58432" transform="translate(707.418 2473.611)">
      <g id="Grupo_58421" data-name="Grupo 58421" transform="translate(6.158 0)">
        <g id="Grupo_58418" data-name="Grupo 58418" transform="translate(0.224)">
          <path id="Trazado_104720" data-name="Trazado 104720" d="M2015.823,2498h-4.9a.572.572,0,0,1-.572-.572v-3.15a.573.573,0,0,1,.572-.572h4.9a.573.573,0,0,1,.572.572v3.15A.572.572,0,0,1,2015.823,2498Zm-4.9-4.121a.4.4,0,0,0-.4.4v3.15a.4.4,0,0,0,.4.4h4.9a.4.4,0,0,0,.4-.4v-3.15a.4.4,0,0,0-.4-.4Z" transform="translate(-2010.354 -2493.702)" fill="#8bc3fc"/>
        </g>
        <g id="Grupo_58419" data-name="Grupo 58419" transform="translate(0.567 0.343)">
          <path id="Trazado_104721" data-name="Trazado 104721" d="M2017.575,2499.563H2013a.387.387,0,0,1-.387-.387v-2.833a.387.387,0,0,1,.387-.387h4.579a.387.387,0,0,1,.387.387v2.833A.387.387,0,0,1,2017.575,2499.563Zm-4.579-3.434a.214.214,0,0,0-.214.214v2.833a.214.214,0,0,0,.214.214h4.579a.214.214,0,0,0,.214-.214v-2.833a.215.215,0,0,0-.214-.214Z" transform="translate(-2012.608 -2495.956)" fill="#8bc3fc"/>
        </g>
        <g id="Grupo_58420" data-name="Grupo 58420" transform="translate(0 4.277)">
          <path id="Trazado_104722" data-name="Trazado 104722" d="M2014.872,2522.6H2009.3a.411.411,0,0,1,0-.823h5.576a.411.411,0,1,1,0,.823Zm-5.576-.65a.238.238,0,0,0,0,.477h5.576a.238.238,0,1,0,0-.477Z" transform="translate(-2008.885 -2521.776)" fill="#8bc3fc"/>
        </g>
      </g>
      <g id="Grupo_58425" data-name="Grupo 58425" transform="translate(0 7.241)">
        <g id="Grupo_58422" data-name="Grupo 58422" transform="translate(0.224)">
          <path id="Trazado_104723" data-name="Trazado 104723" d="M1975.4,2545.52h-4.9a.572.572,0,0,1-.572-.572v-3.15a.573.573,0,0,1,.572-.572h4.9a.573.573,0,0,1,.572.572v3.15A.572.572,0,0,1,1975.4,2545.52Zm-4.9-4.121a.4.4,0,0,0-.4.4v3.15a.4.4,0,0,0,.4.4h4.9a.4.4,0,0,0,.4-.4v-3.15a.4.4,0,0,0-.4-.4Z" transform="translate(-1969.936 -2541.226)" fill="#8bc3fc"/>
        </g>
        <g id="Grupo_58423" data-name="Grupo 58423" transform="translate(0.568 0.343)">
          <path id="Trazado_104724" data-name="Trazado 104724" d="M1977.158,2547.087h-4.579a.387.387,0,0,1-.387-.387v-2.833a.387.387,0,0,1,.387-.387h4.579a.387.387,0,0,1,.387.387v2.833A.387.387,0,0,1,1977.158,2547.087Zm-4.579-3.434a.215.215,0,0,0-.214.214v2.833a.215.215,0,0,0,.214.214h4.579a.214.214,0,0,0,.214-.214v-2.833a.214.214,0,0,0-.214-.214Z" transform="translate(-1972.191 -2543.48)" fill="#8bc3fc"/>
        </g>
        <g id="Grupo_58424" data-name="Grupo 58424" transform="translate(0 4.277)">
          <path id="Trazado_104725" data-name="Trazado 104725" d="M1974.453,2570.122h-5.576a.411.411,0,0,1,0-.822h5.576a.411.411,0,0,1,0,.822Zm-5.576-.649a.238.238,0,0,0,0,.477h5.576a.238.238,0,0,0,0-.477Z" transform="translate(-1968.466 -2569.3)" fill="#8bc3fc"/>
        </g>
      </g>
      <g id="Grupo_58429" data-name="Grupo 58429" transform="translate(12.452 7.241)">
        <g id="Grupo_58426" data-name="Grupo 58426" transform="translate(0.224)">
          <path id="Trazado_104726" data-name="Trazado 104726" d="M2057.129,2545.52h-4.9a.572.572,0,0,1-.572-.572v-3.15a.573.573,0,0,1,.572-.572h4.9a.572.572,0,0,1,.572.572v3.15A.572.572,0,0,1,2057.129,2545.52Zm-4.9-4.121a.4.4,0,0,0-.4.4v3.15a.4.4,0,0,0,.4.4h4.9a.4.4,0,0,0,.4-.4v-3.15a.4.4,0,0,0-.4-.4Z" transform="translate(-2051.66 -2541.226)" fill="#8bc3fc"/>
        </g>
        <g id="Grupo_58427" data-name="Grupo 58427" transform="translate(0.567 0.343)">
          <path id="Trazado_104727" data-name="Trazado 104727" d="M2058.88,2547.087H2054.3a.387.387,0,0,1-.387-.387v-2.833a.387.387,0,0,1,.387-.387h4.579a.387.387,0,0,1,.387.387v2.833A.387.387,0,0,1,2058.88,2547.087Zm-4.579-3.434a.215.215,0,0,0-.214.214v2.833a.215.215,0,0,0,.214.214h4.579a.214.214,0,0,0,.214-.214v-2.833a.215.215,0,0,0-.214-.214Z" transform="translate(-2053.914 -2543.48)" fill="#8bc3fc"/>
        </g>
        <g id="Grupo_58428" data-name="Grupo 58428" transform="translate(0 4.277)">
          <path id="Trazado_104728" data-name="Trazado 104728" d="M2056.178,2570.122H2050.6a.411.411,0,1,1,0-.822h5.576a.411.411,0,0,1,0,.822Zm-5.576-.649a.238.238,0,0,0,0,.477h5.576a.238.238,0,0,0,0-.477Z" transform="translate(-2050.19 -2569.3)" fill="#8bc3fc"/>
        </g>
      </g>
      <g id="Grupo_58430" data-name="Grupo 58430" transform="translate(5.933 5.17)">
        <path id="Trazado_104729" data-name="Trazado 104729" d="M2007.49,2529.569a.086.086,0,0,1-.068-.14l1.376-1.759a.086.086,0,1,1,.136.106l-1.376,1.759A.087.087,0,0,1,2007.49,2529.569Z" transform="translate(-2007.404 -2527.636)" fill="#8bc3fc"/>
      </g>
      <g id="Grupo_58431" data-name="Grupo 58431" transform="translate(11.467 5.17)">
        <path id="Trazado_104730" data-name="Trazado 104730" d="M2045.188,2529.569a.085.085,0,0,1-.068-.033l-1.376-1.759a.086.086,0,0,1,.136-.107l1.376,1.76a.087.087,0,0,1-.068.14Z" transform="translate(-2043.725 -2527.637)" fill="#8bc3fc"/>
      </g>
    </g>
    <g id="Grupo_58438" data-name="Grupo 58438" transform="translate(480.743 2548.594)">
      <g id="Grupo_58433" data-name="Grupo 58433" transform="translate(0 0)">
        <path id="Trazado_104731" data-name="Trazado 104731" d="M491.255,2993.1h-9.116a1.4,1.4,0,0,1-1.4-1.4v-4.47a1.4,1.4,0,0,1,1.4-1.4h9.116a1.4,1.4,0,0,1,1.4,1.4v4.47A1.4,1.4,0,0,1,491.255,2993.1Zm-9.116-6.97a1.106,1.106,0,0,0-1.1,1.1v4.47a1.106,1.106,0,0,0,1.1,1.1h9.116a1.106,1.106,0,0,0,1.1-1.1v-4.47a1.106,1.106,0,0,0-1.1-1.1Z" transform="translate(-480.743 -2985.835)" fill="#8bc3fc"/>
      </g>
      <g id="Grupo_58437" data-name="Grupo 58437" transform="translate(1.34 1.247)">
        <g id="Grupo_58434" data-name="Grupo 58434" transform="translate(0 1.006)">
          <path id="Trazado_104732" data-name="Trazado 104732" d="M489.54,3002.193l3.05-1.571v.454l-2.57,1.289v.013l2.57,1.288v.454l-3.05-1.571Z" transform="translate(-489.54 -3000.622)" fill="#8bc3fc"/>
        </g>
        <g id="Grupo_58435" data-name="Grupo 58435" transform="translate(3.48)">
          <path id="Trazado_104733" data-name="Trazado 104733" d="M512.377,2998.786l1.834-4.766h.447l-1.841,4.766Z" transform="translate(-512.377 -2994.02)" fill="#8bc3fc"/>
        </g>
        <g id="Grupo_58436" data-name="Grupo 58436" transform="translate(6.176 1.006)">
          <path id="Trazado_104734" data-name="Trazado 104734" d="M533.124,3002.555l-3.05,1.564v-.454l2.59-1.288v-.013l-2.59-1.289v-.454l3.05,1.565Z" transform="translate(-530.074 -3000.622)" fill="#8bc3fc"/>
        </g>
      </g>
    </g>
    <g id="Grupo_58441" data-name="Grupo 58441" transform="translate(485.617 2488.067)">
      <g id="Grupo_58440" data-name="Grupo 58440" transform="translate(0 0)">
        <g id="Grupo_58439" data-name="Grupo 58439">
          <path id="Trazado_104735" data-name="Trazado 104735" d="M537.349,2637.818q-.306,0-.61-.008a.266.266,0,0,1-.26-.272.272.272,0,0,1,.273-.259,24.691,24.691,0,0,0,3.152-.126.266.266,0,1,1,.056.528A24.847,24.847,0,0,1,537.349,2637.818Zm-3.779-.292-.041,0a24.573,24.573,0,0,1-3.145-.7.266.266,0,0,1,.15-.511,24.029,24.029,0,0,0,3.077.689.266.266,0,0,1-.041.529Zm9.5-.385a.266.266,0,0,1-.062-.524,24.008,24.008,0,0,0,3.01-.939.266.266,0,0,1,.192.5,24.464,24.464,0,0,1-3.077.96A.275.275,0,0,1,543.074,2637.141Zm-15.61-1.413a.273.273,0,0,1-.108-.023,24.678,24.678,0,0,1-2.854-1.5.266.266,0,0,1,.278-.454,24.192,24.192,0,0,0,2.792,1.469.266.266,0,0,1-.108.509Zm21.546-.878a.266.266,0,0,1-.128-.5,24.208,24.208,0,0,0,2.663-1.69.266.266,0,0,1,.314.43,24.668,24.668,0,0,1-2.722,1.727A.262.262,0,0,1,549.01,2634.851Zm-26.973-2.448a.27.27,0,0,1-.167-.059,24.906,24.906,0,0,1-2.368-2.187.266.266,0,1,1,.386-.366,24.25,24.25,0,0,0,2.317,2.14.266.266,0,0,1-.167.473Zm32.112-1.306a.266.266,0,0,1-.183-.459,24.212,24.212,0,0,0,2.137-2.32.266.266,0,0,1,.414.334,24.761,24.761,0,0,1-2.184,2.372A.265.265,0,0,1,554.148,2631.1Zm-36.5-3.307a.266.266,0,0,1-.215-.109,24.729,24.729,0,0,1-1.723-2.723.266.266,0,0,1,.467-.254,24.177,24.177,0,0,0,1.686,2.664.266.266,0,0,1-.215.423Zm40.493-1.647a.265.265,0,0,1-.227-.4,24.1,24.1,0,0,0,1.465-2.793.266.266,0,1,1,.486.215,24.6,24.6,0,0,1-1.5,2.856A.265.265,0,0,1,558.146,2626.143Zm-43.535-3.938a.266.266,0,0,1-.248-.171,24.508,24.508,0,0,1-.957-3.079.266.266,0,0,1,.517-.124,23.98,23.98,0,0,0,.936,3.011.266.266,0,0,1-.153.344A.274.274,0,0,1,514.611,2622.205Zm-1.484-6.187a.266.266,0,0,1-.264-.239,25,25,0,0,1-.134-2.581q0-.321.008-.639a.262.262,0,0,1,.273-.259.265.265,0,0,1,.259.272c-.005.208-.008.417-.008.625a24.476,24.476,0,0,0,.131,2.526.266.266,0,0,1-.237.292Zm.164-6.361a.243.243,0,0,1-.042,0,.265.265,0,0,1-.221-.3,24.542,24.542,0,0,1,.708-3.145.266.266,0,1,1,.51.151,24.031,24.031,0,0,0-.693,3.076A.266.266,0,0,1,513.291,2609.656Zm1.8-6.1a.267.267,0,0,1-.243-.375,24.682,24.682,0,0,1,1.5-2.853.266.266,0,0,1,.453.279,24.117,24.117,0,0,0-1.472,2.791A.267.267,0,0,1,515.1,2603.553Zm43.684-1.669a.266.266,0,0,1-.234-.139,24.2,24.2,0,0,0-1.68-2.669.266.266,0,0,1,.431-.312,24.733,24.733,0,0,1,1.718,2.728.266.266,0,0,1-.234.393Zm-40.351-3.755a.266.266,0,0,1-.206-.434,24.942,24.942,0,0,1,2.19-2.365.266.266,0,1,1,.366.386,24.394,24.394,0,0,0-2.143,2.315A.266.266,0,0,1,518.428,2598.129Zm36.616-1.4a.266.266,0,0,1-.193-.083,24.324,24.324,0,0,0-2.312-2.145.266.266,0,0,1,.336-.413,24.831,24.831,0,0,1,2.363,2.193.266.266,0,0,1-.193.449Zm-32-2.98a.266.266,0,0,1-.157-.481,24.709,24.709,0,0,1,2.724-1.72.266.266,0,1,1,.254.468,24.177,24.177,0,0,0-2.666,1.683A.265.265,0,0,1,523.046,2593.75Zm27.06-1.036a.263.263,0,0,1-.139-.04,24.133,24.133,0,0,0-2.789-1.475.266.266,0,0,1,.217-.485,24.783,24.783,0,0,1,2.85,1.507.266.266,0,0,1-.14.493Zm-21.471-2a.266.266,0,0,1-.1-.514,24.474,24.474,0,0,1,3.08-.953.266.266,0,1,1,.123.517,24.016,24.016,0,0,0-3.013.932A.261.261,0,0,1,528.635,2590.715Zm15.662-.6a.272.272,0,0,1-.076-.011,24.055,24.055,0,0,0-3.077-.7.266.266,0,1,1,.083-.525,24.515,24.515,0,0,1,3.145.712.266.266,0,0,1-.076.521Zm-9.473-.876a.266.266,0,0,1-.027-.53,24.872,24.872,0,0,1,3.22-.122.266.266,0,0,1-.014.532,24.777,24.777,0,0,0-3.152.119Z" transform="translate(-512.729 -2588.578)" fill="#8bc3fc"/>
        </g>
      </g>
    </g>
    <g id="Grupo_58442" data-name="Grupo 58442" transform="translate(576.944 2470)">
      <path id="Trazado_104736" data-name="Trazado 104736" d="M1127.347,2470H1117.2l-5.072,8.785,5.072,8.784h10.143l5.072-8.784Zm-.464,16.765h-9.214l-4.607-7.98,4.607-7.98h9.214l4.607,7.98Z" transform="translate(-1112.132 -2470)" fill="#8bc3fc"/>
      <path id="Trazado_104737" data-name="Trazado 104737" d="M1242.655,2538.657h-10.144l-5.072,8.784,5.072,8.785h10.144l5.072-8.785Zm-.465,16.764h-9.214l-4.607-7.98,4.607-7.979h9.214l4.607,7.979Z" transform="translate(-1209.871 -2528.197)" fill="#9fd9fc"/>
      <path id="Trazado_104738" data-name="Trazado 104738" d="M1127.347,2602.912H1117.2l-5.072,8.785,5.072,8.785h10.143l5.072-8.785Z" transform="translate(-1112.132 -2582.661)" fill="#9fd9fc"/>
    </g>
    <g id="Grupo_58447" data-name="Grupo 58447" transform="translate(749.478 2491.676)">
      <path id="Trazado_104739" data-name="Trazado 104739" d="M2340.263,2612.261a2.06,2.06,0,1,0,2.06,2.06A2.06,2.06,0,0,0,2340.263,2612.261Zm0,3.237a1.177,1.177,0,1,1,1.177-1.177A1.177,1.177,0,0,1,2340.263,2615.5Z" transform="translate(-2323.929 -2612.261)" fill="#8bc3fc"/>
      <g id="Grupo_58446" data-name="Grupo 58446" transform="translate(0 3.679)">
        <g id="Grupo_58443" data-name="Grupo 58443" transform="translate(12.879)">
          <path id="Trazado_104740" data-name="Trazado 104740" d="M2329.483,2638.539a.441.441,0,0,1-.312-.753l1.249-1.249a.442.442,0,0,1,.625.625l-1.249,1.249A.438.438,0,0,1,2329.483,2638.539Z" transform="translate(-2329.042 -2636.408)" fill="#8bc3fc"/>
        </g>
        <g id="Grupo_58444" data-name="Grupo 58444" transform="translate(0 3.606)">
          <path id="Trazado_104741" data-name="Trazado 104741" d="M2244.959,2699.929a.442.442,0,0,1-.442-.441v-3.333a.442.442,0,1,1,.883,0v3.333A.442.442,0,0,1,2244.959,2699.929Zm0-6.667a.442.442,0,0,1-.442-.442v-3.333a.442.442,0,0,1,.883,0v3.333A.442.442,0,0,1,2244.959,2693.263Zm0-6.667a.441.441,0,0,1-.442-.441v-3.333a.442.442,0,0,1,.883,0v3.333A.441.441,0,0,1,2244.959,2686.6Zm0-6.667a.441.441,0,0,1-.442-.441v-3.333a.442.442,0,0,1,.883,0v3.333A.441.441,0,0,1,2244.959,2679.929Zm0-6.667a.441.441,0,0,1-.442-.441v-1.787a.443.443,0,0,1,.129-.312l1.094-1.094a.441.441,0,0,1,.624.625l-.964.964v1.6A.441.441,0,0,1,2244.959,2673.263Zm3.45-5.237a.442.442,0,0,1-.312-.754l2.357-2.357a.441.441,0,0,1,.625.624l-2.357,2.357A.438.438,0,0,1,2248.409,2668.026Zm4.714-4.714a.441.441,0,0,1-.312-.754l2.357-2.356a.441.441,0,0,1,.625.624l-2.357,2.357A.438.438,0,0,1,2253.124,2663.312Z" transform="translate(-2244.517 -2660.072)" fill="#8bc3fc"/>
        </g>
        <g id="Grupo_58445" data-name="Grupo 58445" transform="translate(0 45.913)">
          <path id="Trazado_104742" data-name="Trazado 104742" d="M2244.959,2940.4a.441.441,0,0,1-.442-.441v-1.766a.442.442,0,1,1,.883,0v1.766A.441.441,0,0,1,2244.959,2940.4Z" transform="translate(-2244.517 -2937.748)" fill="#8bc3fc"/>
        </g>
      </g>
    </g>
    <g id="Grupo_58448" data-name="Grupo 58448" transform="translate(652.385 2655.773)">
      <rect id="Rectángulo_5976" data-name="Rectángulo 5976" width="7.115" height="6.78" rx="3.39" transform="translate(0.537 0)" fill="#bfbfbf" style="mix-blend-mode: multiply;isolation: isolate"/>
      <rect id="Rectángulo_5977" data-name="Rectángulo 5977" width="7.115" height="6.78" rx="3.39" transform="translate(0 0.403)" fill="#d7deff"/>
    </g>
    <g id="Grupo_58449" data-name="Grupo 58449" transform="translate(660.908 2649.554)">
      <rect id="Rectángulo_5978" data-name="Rectángulo 5978" width="7.115" height="6.78" rx="3.39" transform="translate(0.537 0)" fill="#bfbfbf" style="mix-blend-mode: multiply;isolation: isolate"/>
      <rect id="Rectángulo_5979" data-name="Rectángulo 5979" width="7.115" height="6.78" rx="3.39" transform="translate(0 0.403)" fill="#d7deff"/>
    </g>
    <g id="Grupo_58450" data-name="Grupo 58450" transform="translate(508.763 2493.63)">
      <rect id="Rectángulo_5980" data-name="Rectángulo 5980" width="44.858" height="35.886" transform="translate(96.11 184.556) rotate(-90)" fill="#303030"/>
      <path id="Trazado_104743" data-name="Trazado 104743" d="M963.808,3846.025v-5.36l19.466-4.288h98.01l19.467,4.26v5.389Z" transform="translate(-918.226 -3651.82)" fill="#404040"/>
      <rect id="Rectángulo_5981" data-name="Rectángulo 5981" width="150.297" height="228.107" rx="7.057" transform="translate(228.107 0) rotate(90)" fill="#404040"/>
      <rect id="Rectángulo_5982" data-name="Rectángulo 5982" width="223.781" height="139.482" transform="translate(2.163 2.163)" fill="#737373"/>
      <rect id="Rectángulo_5983" data-name="Rectángulo 5983" width="135.589" height="219.887" transform="translate(223.997 4.11) rotate(90)" fill="#dbe3ff"/>
      <rect id="Rectángulo_5984" data-name="Rectángulo 5984" width="121.746" height="206.044" transform="translate(217.076 11.031) rotate(90)" fill="#fff"/>
    </g>
    <g id="Grupo_58457" data-name="Grupo 58457" transform="translate(530.123 2520.587)">
      <rect id="Rectángulo_5985" data-name="Rectángulo 5985" width="61.701" height="99.591" rx="21.717" transform="translate(3.916 3.685)" fill="#bfbfbf" style="mix-blend-mode: multiply;isolation: isolate"/>
      <rect id="Rectángulo_5986" data-name="Rectángulo 5986" width="61.701" height="99.591" rx="21.717" transform="translate(0 0)" fill="#d7deff"/>
      <g id="Grupo_58451" data-name="Grupo 58451" transform="translate(4.555 8.497)">
        <rect id="Rectángulo_5987" data-name="Rectángulo 5987" width="14.355" height="14.355" rx="6.848" fill="#fff"/>
        <path id="Rectángulo_5988" data-name="Rectángulo 5988" d="M1.449,0H31.265a1.449,1.449,0,0,1,1.449,1.449v0A1.449,1.449,0,0,1,31.265,2.9H1.449A1.449,1.449,0,0,1,0,1.449v0A1.449,1.449,0,0,1,1.449,0Z" transform="translate(18.151 1.863)" fill="#fff"/>
        <path id="Rectángulo_5989" data-name="Rectángulo 5989" d="M1.449,0H20.7a1.449,1.449,0,0,1,1.449,1.449v0A1.449,1.449,0,0,1,20.7,2.9H1.449A1.449,1.449,0,0,1,0,1.449v0A1.449,1.449,0,0,1,1.449,0Z" transform="translate(18.151 9.271)" fill="#fff"/>
        <path id="Rectángulo_5990" data-name="Rectángulo 5990" d="M1.449,0H6.626A1.449,1.449,0,0,1,8.075,1.449v0A1.449,1.449,0,0,1,6.626,2.9H1.449A1.449,1.449,0,0,1,0,1.449v0A1.449,1.449,0,0,1,1.449,0Z" transform="translate(42.79 9.271)" fill="#fff"/>
      </g>
      <g id="Grupo_58454" data-name="Grupo 58454" transform="translate(4.21 28.633)">
        <g id="Grupo_58453" data-name="Grupo 58453">
          <g id="Grupo_58452" data-name="Grupo 58452">
            <rect id="Rectángulo_5991" data-name="Rectángulo 5991" width="19.479" height="19.479" rx="6.848" fill="#2c60e8"/>
          </g>
          <rect id="Rectángulo_5992" data-name="Rectángulo 5992" width="73.82" height="3.933" rx="1.967" transform="translate(24.629 2.528)" fill="#2c60e8"/>
          <rect id="Rectángulo_5993" data-name="Rectángulo 5993" width="59.492" height="3.933" rx="1.967" transform="translate(24.629 12.58)" fill="#2c60e8"/>
          <rect id="Rectángulo_5994" data-name="Rectángulo 5994" width="10.957" height="3.933" rx="1.967" transform="translate(87.493 12.58)" fill="#2c60e8"/>
        </g>
      </g>
      <g id="Grupo_58455" data-name="Grupo 58455" transform="translate(4.555 51.532)">
        <rect id="Rectángulo_5995" data-name="Rectángulo 5995" width="14.355" height="14.355" rx="6.848" fill="#fff"/>
        <rect id="Rectángulo_5996" data-name="Rectángulo 5996" width="32.714" height="2.899" rx="1.449" transform="translate(18.151 1.863)" fill="#fff"/>
        <rect id="Rectángulo_5997" data-name="Rectángulo 5997" width="22.154" height="2.899" rx="1.449" transform="translate(18.151 9.271)" fill="#fff"/>
        <path id="Rectángulo_5998" data-name="Rectángulo 5998" d="M1.449,0H6.626A1.449,1.449,0,0,1,8.075,1.449v0A1.449,1.449,0,0,1,6.626,2.9H1.449A1.449,1.449,0,0,1,0,1.449v0A1.449,1.449,0,0,1,1.449,0Z" transform="translate(42.79 9.271)" fill="#fff"/>
      </g>
      <g id="Grupo_58456" data-name="Grupo 58456" transform="translate(4.555 73.05)">
        <rect id="Rectángulo_5999" data-name="Rectángulo 5999" width="14.355" height="14.355" rx="6.848" fill="#fff"/>
        <path id="Rectángulo_6000" data-name="Rectángulo 6000" d="M1.449,0H31.265a1.449,1.449,0,0,1,1.449,1.449v0A1.449,1.449,0,0,1,31.265,2.9H1.449A1.449,1.449,0,0,1,0,1.449v0A1.449,1.449,0,0,1,1.449,0Z" transform="translate(18.151 1.863)" fill="#fff"/>
        <path id="Rectángulo_6001" data-name="Rectángulo 6001" d="M1.449,0H20.7a1.449,1.449,0,0,1,1.449,1.449v0A1.449,1.449,0,0,1,20.705,2.9H1.449A1.449,1.449,0,0,1,0,1.449v0A1.449,1.449,0,0,1,1.449,0Z" transform="translate(18.151 9.271)" fill="#fff"/>
        <path id="Rectángulo_6002" data-name="Rectángulo 6002" d="M1.449,0H6.626A1.449,1.449,0,0,1,8.075,1.449v0A1.449,1.449,0,0,1,6.626,2.9H1.449A1.449,1.449,0,0,1,0,1.449v0A1.449,1.449,0,0,1,1.449,0Z" transform="translate(42.79 9.271)" fill="#fff"/>
      </g>
    </g>
    <g id="Grupo_58461" data-name="Grupo 58461" transform="translate(639.768 2522.068)">
      <rect id="Rectángulo_6003" data-name="Rectángulo 6003" width="60.808" height="92.595" rx="19.956" transform="translate(2.764 3.532)" fill="#bfbfbf" style="mix-blend-mode: multiply;isolation: isolate"/>
      <path id="Rectángulo_6004" data-name="Rectángulo 6004" d="M19.956,0h20.9A19.956,19.956,0,0,1,60.808,19.956V72.638A19.956,19.956,0,0,1,40.852,92.595h-20.9A19.957,19.957,0,0,1,0,72.638V19.956A19.956,19.956,0,0,1,19.956,0Z" transform="translate(0 0)" fill="#d7deff"/>
      <rect id="Rectángulo_6005" data-name="Rectángulo 6005" width="41.46" height="12.438" rx="6.219" transform="translate(11.517 19.463)" fill="#bfbfbf" style="mix-blend-mode: multiply;isolation: isolate"/>
      <rect id="Rectángulo_6006" data-name="Rectángulo 6006" width="41.46" height="12.438" rx="6.219" transform="translate(11.517 40.36)" fill="#bfbfbf" style="mix-blend-mode: multiply;isolation: isolate"/>
      <rect id="Rectángulo_6007" data-name="Rectángulo 6007" width="41.46" height="12.438" rx="6.219" transform="translate(11.517 61.256)" fill="#bfbfbf" style="mix-blend-mode: multiply;isolation: isolate"/>
      <rect id="Rectángulo_6008" data-name="Rectángulo 6008" width="41.46" height="12.438" rx="6.219" transform="translate(9.674 17.16)" fill="#d181e6"/>
      <rect id="Rectángulo_6009" data-name="Rectángulo 6009" width="41.46" height="12.438" rx="6.219" transform="translate(9.674 38.056)" fill="#9a76e7"/>
      <rect id="Rectángulo_6010" data-name="Rectángulo 6010" width="41.46" height="12.438" rx="6.219" transform="translate(9.674 58.953)" fill="#2c60e8"/>
      <g id="Grupo_58458" data-name="Grupo 58458" transform="translate(17.896 19.909)">
        <path id="Trazado_104744" data-name="Trazado 104744" d="M1647.856,2946.234c-.051-.953-.111-2.1-.1-2.949h-.031c-.233.8-.517,1.652-.861,2.594l-1.206,3.313h-.669l-1.1-3.252c-.324-.962-.6-1.844-.79-2.655h-.02c-.02.852-.071,2-.132,3.02l-.182,2.929h-.841l.476-6.83h1.125l1.166,3.3c.283.841.517,1.59.689,2.3h.031c.172-.689.415-1.439.719-2.3l1.216-3.3h1.125l.426,6.83h-.861Z" transform="translate(-1641.919 -2942.404)" fill="#fff"/>
        <path id="Trazado_104745" data-name="Trazado 104745" d="M1700.147,2946.031h-2.655v2.462h2.958v.74h-3.84v-6.83h3.688v.74h-2.807v2.158h2.655Z" transform="translate(-1688.278 -2942.404)" fill="#fff"/>
        <path id="Trazado_104746" data-name="Trazado 104746" d="M1729.346,2949.234v-6.83h.962l2.188,3.456a19.271,19.271,0,0,1,1.226,2.219l.021-.01c-.081-.912-.1-1.743-.1-2.807V2942.4h.831v6.83h-.892l-2.168-3.466a21.63,21.63,0,0,1-1.277-2.28l-.031.01c.051.861.071,1.682.071,2.817v2.918Z" transform="translate(-1716.025 -2942.404)" fill="#fff"/>
        <path id="Trazado_104747" data-name="Trazado 104747" d="M1773.953,2942.4v4.043c0,1.53.679,2.179,1.591,2.179,1.013,0,1.662-.669,1.662-2.179V2942.4h.892v3.982c0,2.1-1.1,2.958-2.584,2.958-1.4,0-2.452-.8-2.452-2.918V2942.4Z" transform="translate(-1753.08 -2942.404)" fill="#fff"/>
      </g>
      <g id="Grupo_58459" data-name="Grupo 58459" transform="translate(20.263 40.836)">
        <path id="Trazado_104748" data-name="Trazado 104748" d="M1657.454,3079.884a10.227,10.227,0,0,1,1.692-.132,2.8,2.8,0,0,1,1.915.567,1.837,1.837,0,0,1,.6,1.429,2.011,2.011,0,0,1-.527,1.459,2.828,2.828,0,0,1-2.088.75,3.029,3.029,0,0,1-.709-.061v2.736h-.881Zm.881,3.293a2.926,2.926,0,0,0,.729.071c1.064,0,1.712-.517,1.712-1.459,0-.9-.638-1.338-1.611-1.338a3.733,3.733,0,0,0-.831.071Z" transform="translate(-1657.454 -3079.752)" fill="#fff"/>
        <path id="Trazado_104749" data-name="Trazado 104749" d="M1692.851,3080.084h.882v6.09h2.918v.74h-3.8Z" transform="translate(-1687.458 -3080.033)" fill="#fff"/>
        <path id="Trazado_104750" data-name="Trazado 104750" d="M1722.485,3084.765l-.709,2.148h-.912l2.32-6.83h1.064l2.33,6.83h-.942l-.729-2.148Zm2.239-.689-.669-1.965c-.152-.446-.253-.851-.354-1.246h-.02c-.1.405-.213.821-.344,1.236l-.669,1.975Z" transform="translate(-1711.203 -3080.033)" fill="#fff"/>
        <path id="Trazado_104751" data-name="Trazado 104751" d="M1757.689,3086.914v-2.9l-2.158-3.932h1l.962,1.885c.263.517.466.932.679,1.409h.02c.192-.446.426-.892.689-1.409l.982-1.885h1l-2.29,3.921v2.908Z" transform="translate(-1740.588 -3080.033)" fill="#fff"/>
      </g>
      <g id="Grupo_58460" data-name="Grupo 58460" transform="translate(21.667 61.757)">
        <path id="Trazado_104752" data-name="Trazado 104752" d="M1670.205,3220.694h-2.655v2.462h2.959v.739h-3.84v-6.829h3.688v.74h-2.807v2.158h2.655Z" transform="translate(-1666.669 -3217.067)" fill="#fff"/>
        <path id="Trazado_104753" data-name="Trazado 104753" d="M1700.268,3223.9l-.871-1.51c-.354-.577-.577-.952-.79-1.347h-.02c-.193.4-.385.76-.74,1.358l-.821,1.5h-1.013l2.087-3.455-2.006-3.374h1.023l.9,1.6c.253.446.446.79.628,1.155h.031c.192-.405.365-.719.618-1.155l.932-1.6h1.013l-2.077,3.323,2.128,3.506Z" transform="translate(-1691.542 -3217.067)" fill="#fff"/>
        <path id="Trazado_104754" data-name="Trazado 104754" d="M1738.279,3217.067v6.829h-.882v-6.829Z" transform="translate(-1726.621 -3217.067)" fill="#fff"/>
        <path id="Trazado_104755" data-name="Trazado 104755" d="M1750.256,3217.817h-2.077v-.75h5.056v.75h-2.087v6.079h-.892Z" transform="translate(-1735.76 -3217.067)" fill="#fff"/>
      </g>
    </g>
    <g id="Grupo_58462" data-name="Grupo 58462" transform="translate(519.738 2504.646)">
      <rect id="Rectángulo_6011" data-name="Rectángulo 6011" width="206.073" height="9.367" transform="translate(0 0)" fill="#2c60e8"/>
      <rect id="Rectángulo_6012" data-name="Rectángulo 6012" width="5.221" height="1.16" transform="translate(183.357 5.266)" fill="#fff"/>
      <rect id="Rectángulo_6013" data-name="Rectángulo 6013" width="5.221" height="1.16" transform="translate(192.118 2.474) rotate(45)" fill="#fff"/>
      <rect id="Rectángulo_6014" data-name="Rectángulo 6014" width="5.221" height="1.16" transform="translate(195.811 3.295) rotate(135)" fill="#fff"/>
      <path id="Trazado_104756" data-name="Trazado 104756" d="M2036.037,2712.005v4.76h4.76v-4.76Zm3.838,3.838h-2.916v-2.916h2.916Z" transform="translate(-1838.063 -2709.779)" fill="#fff"/>
      <circle id="Elipse_4076" data-name="Elipse 4076" cx="1.488" cy="1.488" r="1.488" transform="translate(15.288 3.273)" fill="#fff"/>
      <circle id="Elipse_4077" data-name="Elipse 4077" cx="1.488" cy="1.488" r="1.488" transform="translate(9.108 3.273)" fill="#fff"/>
      <circle id="Elipse_4078" data-name="Elipse 4078" cx="1.488" cy="1.488" r="1.488" transform="translate(2.927 3.273)" fill="#fff"/>
    </g>
  </g>
</svg>
