<svg xmlns="http://www.w3.org/2000/svg" width="272" height="209.458" viewBox="0 0 272 209.458">
  <g id="Grupo_58478" data-name="Grupo 58478" transform="translate(-38.604 -116.588)">
    <g id="Grupo_58470" data-name="Grupo 58470" transform="translate(38.603 182.023)">
      <g id="Grupo_58466" data-name="Grupo 58466">
        <g id="Grupo_58464" data-name="Grupo 58464" transform="translate(0 56.799)">
          <path id="Trazado_104757" data-name="Trazado 104757" d="M95.268,367.835c-4.289-1.474-9.643-4.764-14.287-7.38a153.968,153.968,0,0,1-27.114-19.514c-5.913-5.307-11.838-12.634-14.239-20.357-1.153-3.711-1.9-9.661.974-12.835,6.991-7.726,23.084,6.7,27.5,11.612C80.1,332.7,89.946,350.55,95.268,367.835Z" transform="translate(-38.603 -305.518)" fill="#ffc571"/>
          <path id="Trazado_104758" data-name="Trazado 104758" d="M52.5,308.16l-.322-.222c-.039.056-3.7,5.458-3.925,10.873-4.612-6.144-7.341-10.193-7.423-10.317l-.325.219c.082.122,2.787,4.133,7.358,10.229-5.371-2.281-8.921-1.855-9.075-1.834l.052.388c.038-.006,3.881-.471,9.5,2.077,3.229,4.286,7.332,9.527,12.064,15.145A51.093,51.093,0,0,0,43.292,329l-.037.389a51.075,51.075,0,0,1,17.806,6.126l.022.012c3.609,4.255,7.569,8.707,11.775,13.107-10.3-4.6-16.276-4.762-16.337-4.764l-.007.39c.061,0,6.294.167,17.063,5.126l.006,0c3.283,3.406,6.712,6.769,10.237,9.978-8.168-3.565-12.241-4.106-12.284-4.112l-.049.389c.044,0,4.417.584,13.256,4.559,3.419,3.071,6.923,5.985,10.47,8.641l.234-.312C91.9,365.88,88.4,362.968,84.989,359.9c-2.716-6.013.275-15.218.3-15.309l-.371-.122c-.03.089-2.825,8.7-.6,14.832-3.617-3.282-7.135-6.729-10.5-10.219-2.428-9.021,3.078-17.8,3.133-17.887l-.329-.21c-.056.086-5.385,8.584-3.344,17.535-4.282-4.47-8.309-9-11.973-13.321-2.064-6.353,4.4-17.375,4.465-17.487l-.335-.2c-.263.44-6.113,10.423-4.718,16.99-4.748-5.634-8.862-10.893-12.1-15.187C48.635,313.859,52.459,308.217,52.5,308.16Z" transform="translate(-38.668 -306.372)" fill="#9b9b9b" style="mix-blend-mode: color-burn;isolation: isolate"/>
        </g>
        <g id="Grupo_58465" data-name="Grupo 58465" transform="translate(13.789)">
          <path id="Trazado_104759" data-name="Trazado 104759" d="M71.427,315.705a48.476,48.476,0,0,0-7.47-5.373S75.362,347.167,99.81,365.32l.314-2.209-11.7-30.251Z" transform="translate(-61.343 -250.418)" fill="#c1c1c1" opacity="0.5" style="mix-blend-mode: multiply;isolation: isolate"/>
          <path id="Trazado_104760" data-name="Trazado 104760" d="M103.248,337.59c-.483-3.007-6.558-9.263-8.589-12.232A342.946,342.946,0,0,1,76.15,295.433c-9.1-16.737-18.039-39.223-15.919-58.657.784-7.183,4.388-19.133,13.439-19.048,6.764.065,11.6,7.768,14.4,13.11,7.354,14.04,10.216,30.05,12.6,45.561,2.739,17.828,3.82,36.029,5.005,54.086Z" transform="translate(-59.916 -217.726)" fill="#ffc571"/>
          <path id="Trazado_104761" data-name="Trazado 104761" d="M96.614,313.048c.882-15.8,6.177-25.861,6.23-25.961l-.51-.272c-.053.1-5.111,9.707-6.212,24.874q-3.558-9.883-6.476-18.977c3.262-21.259,9.469-28.489,9.532-28.559l-.432-.384c-.255.287-6.159,7.15-9.49,27.721C86.7,283.492,84.493,276,82.6,269.1c2.149-19.495,10.032-28.882,10.111-28.974l-.438-.376c-.079.091-7.69,9.149-10.076,27.877-2.328-8.582-4.171-16.226-5.619-22.792-.033-15.108,6.311-22.118,6.375-22.187l-.422-.394c-.063.067-5.877,6.476-6.478,20.164-3.267-15.229-4.284-24.01-4.306-24.213l-.574.064c.023.209,1.106,9.576,4.637,25.752-2.15-2.333-8.807-9.131-14.615-10.535l-.136.562c6.639,1.606,14.756,10.836,15,11.117,1.444,6.535,3.277,14.128,5.587,22.641-2.155-2.71-8.332-9.164-19.936-11.809l-.129.563c14.548,3.316,20.412,12.684,20.471,12.779l.027.045c1.873,6.817,4.046,14.2,6.563,22.077-2.061-2.248-7.67-7.209-18.6-9.522l-.12.564c14.061,2.975,19.14,10.352,19.19,10.426l.006.01q2.727,8.459,6,17.637c-1.746-1.812-5.524-4.36-13.7-6.826l-.166.553c10.959,3.3,13.81,6.73,14.543,8.147q3.76,10.409,8.27,21.616l.535-.216Q100.24,323.093,96.614,313.048Z" transform="translate(-60.318 -217.893)" fill="#9b9b9b" style="mix-blend-mode: color-burn;isolation: isolate"/>
        </g>
      </g>
      <g id="Grupo_58469" data-name="Grupo 58469" transform="translate(236.306 36.018)">
        <g id="Grupo_58467" data-name="Grupo 58467" transform="translate(4.243 34.389)">
          <path id="Trazado_104762" data-name="Trazado 104762" d="M410.54,370.855c2.6-1.332,5.715-3.919,8.439-6.01a99.228,99.228,0,0,0,15.511-14.918c3.287-3.924,6.4-9.137,7.224-14.281.4-2.472.33-6.335-1.792-8.1-5.164-4.29-14.111,6.376-16.482,9.914a86.491,86.491,0,0,0-12.9,33.392Z" transform="translate(-410.452 -326.549)" fill="#ffc571"/>
          <path id="Trazado_104763" data-name="Trazado 104763" d="M432.288,328.862l.185-.171a15.8,15.8,0,0,1,3.495,6.576c2.38-4.339,3.751-7.17,3.793-7.256l.227.109c-.041.085-1.4,2.89-3.76,7.2a12.213,12.213,0,0,1,5.62-2l0,.252a12.492,12.492,0,0,0-5.867,2.191c-1.669,3.028-3.806,6.745-6.313,10.759a32.9,32.9,0,0,1,10.389-5.207l.059.245a32.9,32.9,0,0,0-10.8,5.531l-.013.01c-1.914,3.043-4.033,6.243-6.315,9.433,6.148-3.873,9.946-4.522,9.985-4.528l.04.248c-.039.006-4,.681-10.414,4.826l0,0c-1.783,2.471-3.663,4.929-5.618,7.3a33.556,33.556,0,0,1,7.458-3.742l.067.243c-.027.007-2.763.776-8.037,4.117-1.9,2.27-3.87,4.449-5.889,6.466l-.177-.178c2.017-2.015,3.985-4.192,5.882-6.46,1.183-4.082-1.563-9.68-1.59-9.735l.225-.112c.027.054,2.6,5.29,1.733,9.4,2.008-2.423,3.936-4.942,5.763-7.474.725-5.975-3.586-11.072-3.63-11.122l.192-.164c.043.05,4.217,4.984,3.732,10.878,2.323-3.241,4.478-6.5,6.421-9.587.736-4.24-4.391-10.68-4.443-10.745l.2-.157c.208.256,4.849,6.089,4.559,10.4,2.514-4.026,4.658-7.755,6.329-10.788C435.271,332.144,432.318,328.895,432.288,328.862Z" transform="translate(-410.404 -327.065)" fill="#9b9b9b" style="mix-blend-mode: color-burn;isolation: isolate"/>
        </g>
        <g id="Grupo_58468" data-name="Grupo 58468">
          <path id="Trazado_104764" data-name="Trazado 104764" d="M427.647,335.105A31.251,31.251,0,0,1,431.921,331s-3.914,24.532-17.849,38.339l-.4-1.381,4.7-20.359Z" transform="translate(-407.314 -293.73)" fill="#c1c1c1" opacity="0.5" style="mix-blend-mode: multiply;isolation: isolate"/>
          <path id="Trazado_104765" data-name="Trazado 104765" d="M408.041,352.609c.034-1.962,3.338-6.506,4.362-8.585a221.122,221.122,0,0,0,9.075-20.773c4.277-11.5,7.926-26.66,4.8-38.86-1.155-4.509-4.544-11.8-10.308-10.922-4.308.658-6.692,6.012-7.989,9.674-3.41,9.625-3.774,20.1-3.879,30.205-.12,11.62.85,23.325,1.742,34.949Z" transform="translate(-403.933 -273.396)" fill="#ffc571"/>
          <path id="Trazado_104766" data-name="Trazado 104766" d="M410.187,336.233a43.988,43.988,0,0,0-6.341-15.988l.3-.22a43.91,43.91,0,0,1,6.23,15.3q1.367-6.627,2.4-12.694c-4.019-13.26-8.637-17.3-8.684-17.344l.241-.284c.189.16,4.58,4,8.581,16.814.9-5.334,1.625-10.313,2.2-14.89-3.148-12.236-9.032-17.5-9.091-17.556l.245-.28c.059.051,5.739,5.134,8.968,16.859.7-5.685,1.18-10.728,1.5-15.047-1.357-9.638-6.042-13.53-6.089-13.568l.234-.29c.047.037,4.339,3.594,5.97,12.268.695-10.009.542-15.7.538-15.834l.372-.012c0,.135.168,6.208-.609,16.845,1.159-1.683,4.784-6.626,8.36-8.052l.138.345c-4.088,1.63-8.422,8.257-8.553,8.458-.325,4.3-.8,9.309-1.5,14.949a22.723,22.723,0,0,1,11.637-9.35l.134.347c-8.976,3.442-11.861,9.951-11.89,10.017l-.013.031c-.573,4.518-1.286,9.425-2.172,14.678,1.11-1.621,4.234-5.3,11-7.77l.128.349c-8.7,3.18-11.262,8.347-11.287,8.4l0,.006q-.968,5.643-2.216,11.8c.948-1.315,3.126-3.285,8.118-5.6l.157.338c-6.688,3.107-8.193,5.551-8.532,6.522q-1.448,6.981-3.3,14.54l-.361-.089Q408.791,342.97,410.187,336.233Z" transform="translate(-403.846 -273.421)" fill="#9b9b9b" style="mix-blend-mode: color-burn;isolation: isolate"/>
        </g>
      </g>
    </g>
    <g id="Grupo_58477" data-name="Grupo 58477" transform="translate(69.257 116.588)">
      <g id="Grupo_58472" data-name="Grupo 58472" transform="translate(0 30.61)">
        <path id="Trazado_104767" data-name="Trazado 104767" d="M304.825,301.02c0,1.5-1.227,0-2.726,0H109.44c-1.5,0-2.726,1.5-2.726,0V168.261a2.734,2.734,0,0,1,2.726-2.725l22.517-1.636H278.8l23.3,1.636a2.734,2.734,0,0,1,2.726,2.725Z" transform="translate(-93.301 -163.9)" fill="#0a1d35"/>
        <path id="Trazado_104768" data-name="Trazado 104768" d="M301.082,406.763H95.361l-9.378,21.719h224.48Z" transform="translate(-85.982 -249.635)" fill="#e2e2e2" style="mix-blend-mode: multiply;isolation: isolate"/>
        <path id="Trazado_104769" data-name="Trazado 104769" d="M119.214,381.794h-6.5l-6-3.749v-4.971l12.5,1.2Z" transform="translate(-93.301 -237.742)" fill="#0a1d35"/>
        <path id="Trazado_104770" data-name="Trazado 104770" d="M393.6,381.794h6.5l6-3.749v-4.971l-12.5,1.2Z" transform="translate(-194.577 -237.742)" fill="#0a1d35"/>
        <path id="Trazado_104771" data-name="Trazado 104771" d="M298.816,389.034H100.705l-11.013,29.52H309.371Z" transform="translate(-87.292 -243.376)" fill="#0a1d35"/>
        <path id="Trazado_104772" data-name="Trazado 104772" d="M265.677,170.2a2.156,2.156,0,1,1-2.158-2.156A2.158,2.158,0,0,1,265.677,170.2Z" transform="translate(-147.895 -165.362)"/>
        <path id="Trazado_104773" data-name="Trazado 104773" d="M265.33,170.154a1.4,1.4,0,1,1-1.4-1.4A1.4,1.4,0,0,1,265.33,170.154Z" transform="translate(-148.31 -165.615)" fill="#153556"/>
        <path id="Trazado_104774" data-name="Trazado 104774" d="M219.513,426.976H87.591l-.7.975,2.7,3.311,1.6.685H219.513Z" transform="translate(-86.304 -256.77)" fill="#0a1d35"/>
        <path id="Trazado_104775" data-name="Trazado 104775" d="M227.675,426.976H359.6l.65,1.109-3.268,3.47-1.434.393H227.675Z" transform="translate(-136.002 -256.77)" fill="#0a1d35"/>
        <path id="Trazado_104776" data-name="Trazado 104776" d="M298.7,385.91a3.936,3.936,0,0,0-3.264-2.078H101.92a3.941,3.941,0,0,0-3.265,2.078L86.828,411.273a1.351,1.351,0,0,0,1.325,2.079l21.812,1.636h174.1l25.139-1.636a1.351,1.351,0,0,0,1.326-2.079Z" transform="translate(-86.212 -241.54)" fill="#eaeaea"/>
        <path id="Trazado_104777" data-name="Trazado 104777" d="M296.224,400.964H136.537l3.651-11.93H292.407Z" transform="translate(-103.829 -243.376)" fill="#0a1d35"/>
        <line id="Línea_154" data-name="Línea 154" x1="3.217" y2="11.93" transform="translate(45.123 145.658)" fill="none" stroke="#123456" stroke-miterlimit="10" stroke-width="1" style="mix-blend-mode: multiply;isolation: isolate"/>
        <line id="Línea_155" data-name="Línea 155" x2="3.216" y2="11.93" transform="translate(176.597 145.658)" fill="none" stroke="#123456" stroke-miterlimit="10" stroke-width="1" style="mix-blend-mode: multiply;isolation: isolate"/>
        <line id="Línea_156" data-name="Línea 156" x1="2.637" y2="11.93" transform="translate(57.257 145.658)" fill="none" stroke="#123456" stroke-miterlimit="10" stroke-width="1" style="mix-blend-mode: multiply;isolation: isolate"/>
        <line id="Línea_157" data-name="Línea 157" x2="2.637" y2="11.93" transform="translate(165.044 145.658)" fill="none" stroke="#123456" stroke-miterlimit="10" stroke-width="1" style="mix-blend-mode: multiply;isolation: isolate"/>
        <line id="Línea_158" data-name="Línea 158" x1="2.047" y2="11.93" transform="translate(69.614 145.658)" fill="none" stroke="#123456" stroke-miterlimit="10" stroke-width="1" style="mix-blend-mode: multiply;isolation: isolate"/>
        <line id="Línea_159" data-name="Línea 159" x2="2.047" y2="11.93" transform="translate(153.276 145.658)" fill="none" stroke="#123456" stroke-miterlimit="10" stroke-width="1" style="mix-blend-mode: multiply;isolation: isolate"/>
        <line id="Línea_160" data-name="Línea 160" x1="0.814" y2="6.767" transform="translate(83.042 145.658)" fill="none" stroke="#123456" stroke-miterlimit="10" stroke-width="1" style="mix-blend-mode: multiply;isolation: isolate"/>
        <line id="Línea_161" data-name="Línea 161" x2="1.435" y2="11.93" transform="translate(141.081 145.658)" fill="none" stroke="#123456" stroke-miterlimit="10" stroke-width="1" style="mix-blend-mode: multiply;isolation: isolate"/>
        <line id="Línea_162" data-name="Línea 162" x1="0.412" y2="6.767" transform="translate(95.639 145.658)" fill="none" stroke="#123456" stroke-miterlimit="10" stroke-width="1" style="mix-blend-mode: multiply;isolation: isolate"/>
        <line id="Línea_163" data-name="Línea 163" x2="0.824" y2="11.93" transform="translate(128.885 145.658)" fill="none" stroke="#123456" stroke-miterlimit="10" stroke-width="1" style="mix-blend-mode: multiply;isolation: isolate"/>
        <line id="Línea_164" data-name="Línea 164" x1="0.154" y2="6.767" transform="translate(106.891 145.658)" fill="none" stroke="#123456" stroke-miterlimit="10" stroke-width="1" style="mix-blend-mode: multiply;isolation: isolate"/>
        <line id="Línea_165" data-name="Línea 165" x2="0.393" y2="11.93" transform="translate(117.891 145.658)" fill="none" stroke="#123456" stroke-miterlimit="10" stroke-width="1" style="mix-blend-mode: multiply;isolation: isolate"/>
        <line id="Línea_166" data-name="Línea 166" x2="152.219" transform="translate(36.359 145.658)" fill="none" stroke="#123456" stroke-miterlimit="10" stroke-width="1" style="mix-blend-mode: multiply;isolation: isolate"/>
        <line id="Línea_167" data-name="Línea 167" x2="154.373" transform="translate(35.182 148.711)" fill="none" stroke="#123456" stroke-miterlimit="10" stroke-width="1" style="mix-blend-mode: multiply;isolation: isolate"/>
        <line id="Línea_168" data-name="Línea 168" x2="156.384" transform="translate(34.36 152.425)" fill="none" stroke="#123456" stroke-miterlimit="10" stroke-width="1" style="mix-blend-mode: multiply;isolation: isolate"/>
        <line id="Línea_169" data-name="Línea 169" x2="159.687" transform="translate(32.708 157.588)" fill="none" stroke="#123456" stroke-miterlimit="10" stroke-width="1" style="mix-blend-mode: multiply;isolation: isolate"/>
        <line id="Línea_170" data-name="Línea 170" x1="3.651" y2="11.93" transform="translate(32.708 145.658)" fill="none" stroke="#123456" stroke-miterlimit="10" stroke-width="1" style="mix-blend-mode: multiply;isolation: isolate"/>
        <line id="Línea_171" data-name="Línea 171" x2="3.816" y2="11.93" transform="translate(188.578 145.658)" fill="none" stroke="#123456" stroke-miterlimit="10" stroke-width="1" style="mix-blend-mode: multiply;isolation: isolate"/>
        <g id="Grupo_58471" data-name="Grupo 58471" transform="translate(2.4 142.292)">
          <path id="Trazado_104778" data-name="Trazado 104778" d="M301.3,389.157l-1.515-3.247a3.936,3.936,0,0,0-3.264-2.078H103a3.941,3.941,0,0,0-3.265,2.078L89.692,409.528,301.3,389.157Z" transform="translate(-89.692 -383.832)" fill="#fff" opacity="0.1"/>
        </g>
        <path id="Trazado_104779" data-name="Trazado 104779" d="M241.83,418.82a2.55,2.55,0,0,1-2.569,2.721H193.531a2.209,2.209,0,0,1-2.249-2.684l.875-5.324c.263-1.476,1.658-2.021,3.158-2.021h43.368c1.5,0,2.8.455,2.883,1.952Z" transform="translate(-123.141 -251.312)" fill="#0a1d35" style="mix-blend-mode: multiply;isolation: isolate"/>
        <path id="Trazado_104780" data-name="Trazado 104780" d="M241.83,419.118a2.55,2.55,0,0,1-2.569,2.721H193.531a2.209,2.209,0,0,1-2.249-2.684l.875-4.779c.263-1.477,1.658-2.021,3.158-2.021h43.368c1.5,0,2.8.455,2.883,1.952Z" transform="translate(-123.141 -251.609)" fill="#fff" opacity="0.1"/>
        <rect id="Rectángulo_6015" data-name="Rectángulo 6015" width="173.111" height="2.6" transform="translate(25.913 139.692)" fill="#d8d8d8"/>
        <rect id="Rectángulo_6016" data-name="Rectángulo 6016" width="189.019" height="116.379" transform="translate(17.996 9.503)" fill="#fff1db"/>
        <path id="Trazado_104781" data-name="Trazado 104781" d="M113.8,268.368l189.019-69-.075-20.783H113.8Z" transform="translate(-95.802 -169.085)" fill="#ffd494" opacity="0.2"/>
      </g>
      <g id="Grupo_58475" data-name="Grupo 58475" transform="translate(75.396)">
        <path id="Rectángulo_6017" data-name="Rectángulo 6017" d="M7.587,0h95.25a7.587,7.587,0,0,1,7.587,7.587V157.531a0,0,0,0,1,0,0H0a0,0,0,0,1,0,0V7.587A7.587,7.587,0,0,1,7.587,0Z" transform="translate(6.774 0)" fill="#111e61"/>
        <g id="Grupo_58473" data-name="Grupo 58473" transform="translate(97.692 4.737)">
          <circle id="Elipse_4079" data-name="Elipse 4079" cx="1.787" cy="1.787" r="1.787" transform="translate(5.145)" fill="#ffd140"/>
          <circle id="Elipse_4080" data-name="Elipse 4080" cx="1.787" cy="1.787" r="1.787" transform="translate(10.355)" fill="#ff7443"/>
          <g id="Elipse_4081" data-name="Elipse 4081" fill="none" stroke="#fff" stroke-linecap="round" stroke-linejoin="round" stroke-width="1">
            <circle cx="1.787" cy="1.787" r="1.787" stroke="none"/>
            <circle cx="1.787" cy="1.787" r="1.287" fill="none"/>
          </g>
        </g>
        <path id="Trazado_104782" data-name="Trazado 104782" d="M209.292,163.9l-.06,125.93-6.714-.048L208,163.9Z" transform="translate(-202.518 -133.29)" fill="#d3d3d3" style="mix-blend-mode: multiply;isolation: isolate"/>
        <path id="Trazado_104783" data-name="Trazado 104783" d="M383.664,164.67V290.054h5.8L385.455,164.8Z" transform="translate(-266.466 -133.562)" fill="#d3d3d3" style="mix-blend-mode: multiply;isolation: isolate"/>
        <g id="Grupo_58474" data-name="Grupo 58474" transform="translate(14.729 19.195)">
          <path id="Rectángulo_6018" data-name="Rectángulo 6018" d="M.742,0H48.485a.743.743,0,0,1,.743.743V4.749a.743.743,0,0,1-.743.743H.742A.742.742,0,0,1,0,4.749V.742A.742.742,0,0,1,.742,0Z" fill="#ffd140"/>
          <path id="Rectángulo_6019" data-name="Rectángulo 6019" d="M.742,0H13.307a.743.743,0,0,1,.743.743V4.749a.742.742,0,0,1-.742.742H.742A.742.742,0,0,1,0,4.749V.742A.742.742,0,0,1,.742,0Z" transform="translate(0 36.411)" fill="#ffd140"/>
          <rect id="Rectángulo_6020" data-name="Rectángulo 6020" width="18.156" height="5.491" rx="0.742" transform="translate(16.523 36.411)" fill="#ff7443"/>
          <path id="Rectángulo_6021" data-name="Rectángulo 6021" d="M.742,0h23.7a.742.742,0,0,1,.742.742V2.889a.743.743,0,0,1-.743.743H.742A.742.742,0,0,1,0,2.889V.742A.742.742,0,0,1,.742,0Z" transform="translate(16.523 8.137)" fill="#fff" opacity="0.75"/>
          <path id="Rectángulo_6022" data-name="Rectángulo 6022" d="M.742,0H7.866a.742.742,0,0,1,.742.742V2.889a.743.743,0,0,1-.743.743H.742A.742.742,0,0,1,0,2.889V.742A.742.742,0,0,1,.742,0Z" transform="translate(83.706 8.137)" fill="#fff"/>
          <path id="Rectángulo_6023" data-name="Rectángulo 6023" d="M.742,0H36.015a.742.742,0,0,1,.742.742V2.889a.743.743,0,0,1-.743.743H.743A.743.743,0,0,1,0,2.889V.742A.742.742,0,0,1,.742,0Z" transform="translate(44.326 8.137)" fill="#fff"/>
          <path id="Rectángulo_6024" data-name="Rectángulo 6024" d="M.742,0h14.3a.742.742,0,0,1,.742.742V2.889a.743.743,0,0,1-.743.743H.742A.742.742,0,0,1,0,2.889V.742A.742.742,0,0,1,.742,0Z" transform="translate(16.523 14.266)" fill="#fff" opacity="0.75"/>
          <path id="Rectángulo_6025" data-name="Rectángulo 6025" d="M.742,0H2.889a.742.742,0,0,1,.742.742V2.889a.743.743,0,0,1-.743.743H.742A.742.742,0,0,1,0,2.889V.742A.742.742,0,0,1,.742,0Z" transform="translate(10.418 14.266)" fill="#ffd140"/>
          <path id="Rectángulo_6026" data-name="Rectángulo 6026" d="M.742,0H34.481a.743.743,0,0,1,.743.743V2.889a.743.743,0,0,1-.743.743H.743A.743.743,0,0,1,0,2.889V.742A.742.742,0,0,1,.742,0Z" transform="translate(34.679 14.266)" fill="#fff"/>
          <path id="Rectángulo_6027" data-name="Rectángulo 6027" d="M.743,0H7.767a.743.743,0,0,1,.743.743V2.889a.742.742,0,0,1-.742.742H.743A.743.743,0,0,1,0,2.889V.743A.743.743,0,0,1,.743,0Z" transform="translate(34.754 20.394)" fill="#ff7443" opacity="0.75"/>
          <path id="Rectángulo_6028" data-name="Rectángulo 6028" d="M.743,0H33.207a.743.743,0,0,1,.743.743V2.889a.742.742,0,0,1-.742.742H.743A.743.743,0,0,1,0,2.889V.743A.743.743,0,0,1,.743,0Z" transform="translate(45.526 20.394)" fill="#fff"/>
          <path id="Rectángulo_6029" data-name="Rectángulo 6029" d="M.743,0H19.491a.743.743,0,0,1,.743.743V2.889a.742.742,0,0,1-.742.742H.742A.742.742,0,0,1,0,2.889V.743A.743.743,0,0,1,.743,0Z" transform="translate(72.08 26.523)" fill="#ff7443" opacity="0.75"/>
          <path id="Rectángulo_6030" data-name="Rectángulo 6030" d="M.743,0H34.481a.743.743,0,0,1,.743.743V2.889a.742.742,0,0,1-.742.742H.742A.742.742,0,0,1,0,2.889V.743A.743.743,0,0,1,.743,0Z" transform="translate(34.679 26.523)" fill="#fff"/>
          <rect id="Rectángulo_6031" data-name="Rectángulo 6031" width="25.181" height="3.632" rx="0.742" transform="translate(16.523 44.908)" fill="#fff" opacity="0.75"/>
          <rect id="Rectángulo_6032" data-name="Rectángulo 6032" width="8.608" height="3.632" rx="0.742" transform="translate(83.706 44.908)" fill="#fff"/>
          <path id="Rectángulo_6033" data-name="Rectángulo 6033" d="M.742,0H36.015a.742.742,0,0,1,.742.742V2.889a.742.742,0,0,1-.742.742H.743A.743.743,0,0,1,0,2.889V.742A.742.742,0,0,1,.742,0Z" transform="translate(44.326 44.908)" fill="#fff"/>
          <rect id="Rectángulo_6034" data-name="Rectángulo 6034" width="43.683" height="3.632" rx="0.742" transform="translate(16.523 51.036)" fill="#fff" opacity="0.75"/>
          <rect id="Rectángulo_6035" data-name="Rectángulo 6035" width="3.632" height="3.632" rx="0.742" transform="translate(10.418 51.036)" fill="#ff7443"/>
          <path id="Rectángulo_6036" data-name="Rectángulo 6036" d="M.742,0H17.636a.742.742,0,0,1,.742.742V2.889a.742.742,0,0,1-.742.742H.743A.743.743,0,0,1,0,2.889V.742A.742.742,0,0,1,.742,0Z" transform="translate(62.705 51.036)" fill="#fff"/>
          <path id="Rectángulo_6037" data-name="Rectángulo 6037" d="M.742,0H64.671a.743.743,0,0,1,.743.743V2.889a.743.743,0,0,1-.743.743H.742A.742.742,0,0,1,0,2.889V.742A.742.742,0,0,1,.742,0Z" transform="translate(26.9 57.164)" fill="#fff"/>
          <path id="Rectángulo_6038" data-name="Rectángulo 6038" d="M.742,0H19.491a.742.742,0,0,1,.742.742V2.889a.743.743,0,0,1-.743.743H.742A.742.742,0,0,1,0,2.889V.742A.742.742,0,0,1,.742,0Z" transform="translate(72.08 63.293)" fill="#fff" opacity="0.75"/>
          <path id="Rectángulo_6039" data-name="Rectángulo 6039" d="M.742,0H24.834a.742.742,0,0,1,.742.742V2.889a.743.743,0,0,1-.743.743H.743A.743.743,0,0,1,0,2.889V.742A.742.742,0,0,1,.742,0Z" transform="translate(44.326 63.293)" fill="#ffd140"/>
          <path id="Rectángulo_6040" data-name="Rectángulo 6040" d="M.742,0H44.784a.743.743,0,0,1,.743.743V4.749a.743.743,0,0,1-.743.743H.743A.743.743,0,0,1,0,4.749V.742A.742.742,0,0,1,.742,0Z" transform="translate(0 74.009)" fill="#ff7443"/>
          <rect id="Rectángulo_6041" data-name="Rectángulo 6041" width="43.683" height="3.632" rx="0.742" transform="translate(16.523 82.506)" fill="#fff" opacity="0.75"/>
          <rect id="Rectángulo_6042" data-name="Rectángulo 6042" width="8.608" height="3.632" rx="0.742" transform="translate(83.706 82.506)" fill="#fff"/>
          <path id="Rectángulo_6043" data-name="Rectángulo 6043" d="M.742,0H17.636a.742.742,0,0,1,.742.742V2.889a.742.742,0,0,1-.742.742H.743A.743.743,0,0,1,0,2.889V.742A.742.742,0,0,1,.742,0Z" transform="translate(62.705 82.506)" fill="#fff"/>
          <rect id="Rectángulo_6044" data-name="Rectángulo 6044" width="43.683" height="3.632" rx="0.742" transform="translate(16.523 88.634)" fill="#fff" opacity="0.75"/>
          <rect id="Rectángulo_6045" data-name="Rectángulo 6045" width="3.632" height="3.632" rx="0.742" transform="translate(10.418 88.634)" fill="#ff7443"/>
          <path id="Rectángulo_6046" data-name="Rectángulo 6046" d="M.742,0H17.636a.742.742,0,0,1,.742.742V2.889a.742.742,0,0,1-.742.742H.743A.743.743,0,0,1,0,2.889V.742A.742.742,0,0,1,.742,0Z" transform="translate(62.705 88.634)" fill="#fff"/>
          <rect id="Rectángulo_6047" data-name="Rectángulo 6047" width="9.993" height="3.632" rx="0.742" transform="translate(44.326 94.763)" fill="#ff7443"/>
          <rect id="Rectángulo_6048" data-name="Rectángulo 6048" width="35.199" height="3.632" rx="0.742" transform="translate(57.115 94.763)" fill="#fff"/>
          <rect id="Rectángulo_6049" data-name="Rectángulo 6049" width="35.199" height="3.632" rx="0.742" transform="translate(57.115 100.891)" fill="#fff" opacity="0.75"/>
          <rect id="Rectángulo_6050" data-name="Rectángulo 6050" width="9.993" height="3.632" rx="0.742" transform="translate(44.326 100.891)" fill="#ffd140"/>
          <rect id="Rectángulo_6051" data-name="Rectángulo 6051" width="15.781" height="3.632" rx="0.742" transform="translate(25.775 100.891)" fill="#d8ef84"/>
          <path id="Rectángulo_6052" data-name="Rectángulo 6052" d="M.742,0h14.3a.742.742,0,0,1,.742.742V2.889a.743.743,0,0,1-.743.743H.742A.742.742,0,0,1,0,2.889V.742A.742.742,0,0,1,.742,0Z" transform="translate(25.775 107.019)" fill="#d8ef84"/>
          <path id="Rectángulo_6053" data-name="Rectángulo 6053" d="M.742,0H9.251a.742.742,0,0,1,.742.742V2.889a.743.743,0,0,1-.743.743H.742A.742.742,0,0,1,0,2.889V.742A.742.742,0,0,1,.742,0Z" transform="translate(44.326 107.019)" fill="#ff7443"/>
          <path id="Rectángulo_6054" data-name="Rectángulo 6054" d="M.742,0h6.69a.742.742,0,0,1,.742.742V2.889a.743.743,0,0,1-.743.743H.742A.742.742,0,0,1,0,2.889V.742A.742.742,0,0,1,.742,0Z" transform="translate(57.115 107.019)" fill="#fff"/>
          <path id="Rectángulo_6055" data-name="Rectángulo 6055" d="M.742,0H24.191a.742.742,0,0,1,.742.742V2.889a.743.743,0,0,1-.743.743H.743A.743.743,0,0,1,0,2.889V.742A.742.742,0,0,1,.742,0Z" transform="translate(67.43 107.019)" fill="#fff"/>
          <path id="Rectángulo_6056" data-name="Rectángulo 6056" d="M.742,0H34.456A.742.742,0,0,1,35.2.742V2.889a.743.743,0,0,1-.743.743H.742A.742.742,0,0,1,0,2.889V.742A.742.742,0,0,1,.742,0Z" transform="translate(57.115 113.147)" fill="#fff" opacity="0.75"/>
          <path id="Rectángulo_6057" data-name="Rectángulo 6057" d="M.742,0H9.251a.742.742,0,0,1,.742.742V2.889a.743.743,0,0,1-.743.743H.742A.742.742,0,0,1,0,2.889V.742A.742.742,0,0,1,.742,0Z" transform="translate(44.326 113.147)" fill="#ffd140"/>
          <path id="Rectángulo_6058" data-name="Rectángulo 6058" d="M.743,0H9.251a.742.742,0,0,1,.742.742V2.889a.742.742,0,0,1-.742.742H.742A.742.742,0,0,1,0,2.889V.743A.743.743,0,0,1,.743,0Z" transform="translate(44.326 119.276)" fill="#ff7443"/>
          <path id="Rectángulo_6059" data-name="Rectángulo 6059" d="M.743,0H34.456A.742.742,0,0,1,35.2.742V2.889a.742.742,0,0,1-.742.742H.742A.742.742,0,0,1,0,2.889V.743A.743.743,0,0,1,.743,0Z" transform="translate(57.115 119.276)" fill="#fff"/>
          <path id="Rectángulo_6060" data-name="Rectángulo 6060" d="M.743,0H15.608a.742.742,0,0,1,.742.742V2.889a.742.742,0,0,1-.742.742H.742A.742.742,0,0,1,0,2.889V.743A.743.743,0,0,1,.743,0Z" transform="translate(57.115 125.404)" fill="#fff" opacity="0.75"/>
          <path id="Rectángulo_6061" data-name="Rectángulo 6061" d="M.743,0H15.608a.742.742,0,0,1,.742.742V2.889a.742.742,0,0,1-.742.742H.742A.742.742,0,0,1,0,2.889V.743A.743.743,0,0,1,.743,0Z" transform="translate(75.53 125.404)" fill="#fff" opacity="0.75"/>
          <path id="Rectángulo_6062" data-name="Rectángulo 6062" d="M.743,0H9.251a.742.742,0,0,1,.742.742V2.889a.742.742,0,0,1-.742.742H.742A.742.742,0,0,1,0,2.889V.743A.743.743,0,0,1,.743,0Z" transform="translate(44.326 125.404)" fill="#ffd140"/>
        </g>
        <path id="Trazado_104784" data-name="Trazado 104784" d="M319.076,116.588l-41.019,72.047L212.988,215.2v58.917H323.412v-153.2A4.336,4.336,0,0,0,319.076,116.588Z" transform="translate(-206.214 -116.588)" fill="#d3d3d3" style="mix-blend-mode: multiply;isolation: isolate"/>
      </g>
      <g id="Grupo_58476" data-name="Grupo 58476" transform="translate(52.565 45.809)">
        <rect id="Rectángulo_6063" data-name="Rectángulo 6063" width="52.741" height="102.744" rx="7.404" transform="translate(0)" fill="#eaeaea" opacity="0.5"/>
        <path id="Trazado_104785" data-name="Trazado 104785" d="M215.876,187.392H171.324a4.094,4.094,0,0,0-4.095,4.095v2.606h14.622l2.68,2.382H201.8l3.128-2.382H219.97v-2.606A4.1,4.1,0,0,0,215.876,187.392Z" transform="translate(-167.229 -187.392)" fill="#0a1d35" opacity="0.5"/>
        <path id="Rectángulo_6064" data-name="Rectángulo 6064" d="M7.021,0h38.7a7.021,7.021,0,0,1,7.021,7.021V9.977a0,0,0,0,1,0,0H0a0,0,0,0,1,0,0V7.021A7.021,7.021,0,0,1,7.021,0Z" transform="translate(52.741 102.744) rotate(180)" fill="#0a1d35" opacity="0.5"/>
        <path id="Trazado_104786" data-name="Trazado 104786" d="M216.336,258.5v-5.843l-4.08-.552a14.579,14.579,0,0,0-1.7-4.213l2.468-3.24-4.131-4.132-3.2,2.44a14.6,14.6,0,0,0-4.265-1.783l-.537-3.972h-5.843l-.537,3.972a14.591,14.591,0,0,0-4.265,1.783l-3.2-2.44-4.132,4.132,2.468,3.24a14.6,14.6,0,0,0-1.7,4.213l-4.079.552V258.5l4.145.56a14.582,14.582,0,0,0,1.731,4.082l-2.561,3.362,4.132,4.131,3.4-2.59a14.6,14.6,0,0,0,4.029,1.654l.575,4.252h5.843l.575-4.253a14.577,14.577,0,0,0,4.029-1.653l3.4,2.59,4.131-4.131-2.56-3.362a14.581,14.581,0,0,0,1.731-4.082Zm-18.373,6.452a9.509,9.509,0,1,1,9.509-9.509A9.509,9.509,0,0,1,197.963,264.956Z" transform="translate(-171.593 -204.979)" fill="#0a1d35" opacity="0.5"/>
        <path id="Trazado_104787" data-name="Trazado 104787" d="M209.134,194.729h-6.721a.7.7,0,0,1-.7-.7h0a.7.7,0,0,1,.7-.7h6.721a.7.7,0,0,1,.7.7h0A.7.7,0,0,1,209.134,194.729Z" transform="translate(-179.402 -189.488)" fill="#fff" opacity="0.5"/>
        <rect id="Rectángulo_6065" data-name="Rectángulo 6065" width="8.12" height="3.325" rx="1.08" transform="translate(22.311 96.093)" fill="#fff" opacity="0.5"/>
      </g>
    </g>
  </g>
</svg>
