<svg xmlns="http://www.w3.org/2000/svg" width="571.957" height="124.108" viewBox="0 0 571.957 124.108">
  <g id="Grupo_55714" data-name="Grupo 55714" transform="translate(-181.188 -2432)">
    <path id="Trazado_101756" data-name="Trazado 101756" d="M8.554,26.834V36H2.041V8.984h10.78A12.556,12.556,0,0,1,18.3,10.125,8.6,8.6,0,0,1,22,13.373,8.868,8.868,0,0,1,23.3,18.15a7.817,7.817,0,0,1-2.83,6.318q-2.83,2.366-7.765,2.366Zm0-5.028h4.268a4.025,4.025,0,0,0,2.885-.946,3.516,3.516,0,0,0,.993-2.672,4.346,4.346,0,0,0-1.021-3.024,3.614,3.614,0,0,0-2.783-1.15H8.554Zm30.077-.223-2.06-.148q-2.95,0-3.785,1.855V36H26.533V15.924H32.4l.2,2.579a4.842,4.842,0,0,1,4.4-2.95,6.1,6.1,0,0,1,1.744.223Zm.8,4.193A11.849,11.849,0,0,1,40.6,20.423a8.359,8.359,0,0,1,3.358-3.609,10.115,10.115,0,0,1,5.14-1.262A9.231,9.231,0,0,1,56.2,18.345a10.715,10.715,0,0,1,2.6,7.6v.223a10.4,10.4,0,0,1-2.607,7.45,9.256,9.256,0,0,1-7.06,2.755,9.361,9.361,0,0,1-6.884-2.57,10.051,10.051,0,0,1-2.8-6.967Zm6.253.39a7.47,7.47,0,0,0,.872,4.082,2.905,2.905,0,0,0,2.579,1.3q3.34,0,3.414-5.14v-.631q0-5.4-3.451-5.4-3.136,0-3.4,4.657Zm34.512-.056a12.107,12.107,0,0,1-2.106,7.468A6.752,6.752,0,0,1,72.4,36.371a5.788,5.788,0,0,1-4.546-2.022v9.37H61.6V15.924h5.845l.186,1.855a5.788,5.788,0,0,1,4.731-2.227,6.806,6.806,0,0,1,5.771,2.737,12.256,12.256,0,0,1,2.06,7.524Zm-6.253-.39q0-5.344-3.117-5.344a2.943,2.943,0,0,0-2.969,1.6v7.9a3.038,3.038,0,0,0,3.006,1.67q2.987,0,3.08-5.158Zm18.722,10.65a10.32,10.32,0,0,1-7.478-2.755,9.515,9.515,0,0,1-2.857-7.171v-.52a12.329,12.329,0,0,1,1.141-5.437A8.35,8.35,0,0,1,86.8,16.842a10.054,10.054,0,0,1,5.2-1.29,8.69,8.69,0,0,1,6.68,2.625,10.317,10.317,0,0,1,2.449,7.32v2.431H88.691a4.507,4.507,0,0,0,1.466,2.653,4.362,4.362,0,0,0,2.932.965,5.62,5.62,0,0,0,4.639-2.078l2.857,3.377a7.988,7.988,0,0,1-3.312,2.57A11.192,11.192,0,0,1,92.662,36.371Zm-.705-15.994q-2.746,0-3.266,3.637H95v-.482a3.1,3.1,0,0,0-.761-2.329A3.027,3.027,0,0,0,91.957,20.377Zm23.824,1.206-2.06-.148q-2.95,0-3.785,1.855V36h-6.253V15.924h5.863l.2,2.579a4.842,4.842,0,0,1,4.4-2.95,6.1,6.1,0,0,1,1.744.223Zm10.465-10.65v4.991h3.3v4.342h-3.3V29.45a2.345,2.345,0,0,0,.408,1.577,2.189,2.189,0,0,0,1.614.445,9.173,9.173,0,0,0,1.559-.111v4.472a11.54,11.54,0,0,1-3.525.538,6.55,6.55,0,0,1-4.769-1.521,6.236,6.236,0,0,1-1.54-4.62V20.266h-2.561V15.924h2.561V10.933Zm13.786,16.31,3.34-11.318h6.7l-8.183,23.435-.353.854a6.216,6.216,0,0,1-6.16,3.9,9.8,9.8,0,0,1-2.579-.37V39.284h.816a4.277,4.277,0,0,0,2.013-.381,2.31,2.31,0,0,0,1.03-1.365l.5-1.337L130.18,15.924h6.68ZM10.595,50.984l6.03,18.8,6.012-18.8h8.572V78H24.678V71.691l.631-12.914L18.777,78h-4.3L7.923,58.759l.631,12.933V78H2.041V50.984ZM46.368,78a7.06,7.06,0,0,1-.594-1.8,5.814,5.814,0,0,1-4.824,2.171,7.123,7.123,0,0,1-4.824-1.716,5.463,5.463,0,0,1-1.985-4.314,5.615,5.615,0,0,1,2.412-4.936q2.412-1.67,7.014-1.67H45.5V64.673q0-2.778-2.394-2.778a1.956,1.956,0,0,0-2.227,2.2H34.623A5.605,5.605,0,0,1,37.1,59.369a10.41,10.41,0,0,1,6.318-1.816,9.127,9.127,0,0,1,6.067,1.874,6.516,6.516,0,0,1,2.282,5.14v8.888a9.1,9.1,0,0,0,.854,4.23V78Zm-3.915-4.082a3.488,3.488,0,0,0,1.939-.5,3.14,3.14,0,0,0,1.1-1.132v-3.21H43.678q-3.266,0-3.266,2.932a1.79,1.79,0,0,0,.575,1.382A2.082,2.082,0,0,0,42.453,73.918ZM60.971,57.924l.2,2.356a6.808,6.808,0,0,1,5.733-2.728,5.728,5.728,0,0,1,4.685,1.874,8.922,8.922,0,0,1,1.6,5.641V78H66.927V65.327a3.388,3.388,0,0,0-.612-2.236,2.833,2.833,0,0,0-2.227-.714,2.982,2.982,0,0,0-2.728,1.447V78H55.107V57.924ZM87.968,78a7.06,7.06,0,0,1-.594-1.8,5.814,5.814,0,0,1-4.824,2.171,7.123,7.123,0,0,1-4.824-1.716,5.463,5.463,0,0,1-1.985-4.314,5.615,5.615,0,0,1,2.412-4.936q2.412-1.67,7.014-1.67H87.1V64.673q0-2.778-2.394-2.778a1.956,1.956,0,0,0-2.227,2.2H76.223A5.605,5.605,0,0,1,78.7,59.369a10.41,10.41,0,0,1,6.318-1.816,9.127,9.127,0,0,1,6.067,1.874,6.516,6.516,0,0,1,2.282,5.14v8.888a9.1,9.1,0,0,0,.854,4.23V78Zm-3.915-4.082a3.488,3.488,0,0,0,1.939-.5,3.14,3.14,0,0,0,1.1-1.132v-3.21H85.277q-3.266,0-3.266,2.932a1.79,1.79,0,0,0,.575,1.382A2.082,2.082,0,0,0,84.053,73.918Zm12.042-6.1a13.556,13.556,0,0,1,1-5.381,8.066,8.066,0,0,1,2.876-3.609,7.581,7.581,0,0,1,4.36-1.271,6.028,6.028,0,0,1,4.9,2.115l.223-1.744h5.678V77.239A8.464,8.464,0,0,1,113.9,81.85a7.917,7.917,0,0,1-3.572,3.006,13.129,13.129,0,0,1-5.418,1.048,11.326,11.326,0,0,1-4.277-.835A7.72,7.72,0,0,1,97.468,82.9l2.616-3.674a5.734,5.734,0,0,0,4.6,2.06q4.156,0,4.156-4.268v-.631a5.872,5.872,0,0,1-4.546,1.985,7.256,7.256,0,0,1-5.937-2.811,11.647,11.647,0,0,1-2.264-7.524Zm6.271.39a7.142,7.142,0,0,0,.928,3.906,2.927,2.927,0,0,0,2.6,1.438,3.321,3.321,0,0,0,2.95-1.354V63.75a3.238,3.238,0,0,0-2.913-1.373,2.947,2.947,0,0,0-2.616,1.494A8.145,8.145,0,0,0,102.366,68.2ZM128.4,78.371a10.32,10.32,0,0,1-7.478-2.755,9.515,9.515,0,0,1-2.857-7.171v-.52a12.329,12.329,0,0,1,1.141-5.437,8.35,8.35,0,0,1,3.331-3.646,10.054,10.054,0,0,1,5.2-1.29,8.69,8.69,0,0,1,6.68,2.625,10.317,10.317,0,0,1,2.449,7.32v2.431H124.428a4.507,4.507,0,0,0,1.466,2.653,4.362,4.362,0,0,0,2.932.965,5.62,5.62,0,0,0,4.639-2.078l2.857,3.377a7.988,7.988,0,0,1-3.312,2.57A11.192,11.192,0,0,1,128.4,78.371Zm-.705-15.994q-2.746,0-3.266,3.637h6.309v-.482a3.1,3.1,0,0,0-.761-2.329A3.027,3.027,0,0,0,127.693,62.377Zm17.59-4.453.2,2.356a6.9,6.9,0,0,1,5.733-2.728q3.8,0,5.14,3.024a6.681,6.681,0,0,1,5.9-3.024q6.1,0,6.271,7.385V78h-6.271V65.327a3.827,3.827,0,0,0-.52-2.245,2.212,2.212,0,0,0-1.893-.705,2.963,2.963,0,0,0-2.765,1.651l.019.26V78h-6.271V65.364a4.023,4.023,0,0,0-.5-2.282,2.205,2.205,0,0,0-1.911-.705,3,3,0,0,0-2.746,1.651V78H139.42V57.924Zm36.534,20.447a10.32,10.32,0,0,1-7.478-2.755,9.515,9.515,0,0,1-2.857-7.171v-.52a12.329,12.329,0,0,1,1.141-5.437,8.35,8.35,0,0,1,3.331-3.646,10.054,10.054,0,0,1,5.2-1.29,8.69,8.69,0,0,1,6.68,2.625,10.317,10.317,0,0,1,2.449,7.32v2.431H177.847a4.507,4.507,0,0,0,1.466,2.653,4.362,4.362,0,0,0,2.932.965,5.62,5.62,0,0,0,4.639-2.078l2.857,3.377a7.988,7.988,0,0,1-3.312,2.57A11.192,11.192,0,0,1,181.817,78.371Zm-.705-15.994q-2.746,0-3.266,3.637h6.309v-.482a3.1,3.1,0,0,0-.761-2.329A3.027,3.027,0,0,0,181.112,62.377Zm17.423-4.453.2,2.356a6.808,6.808,0,0,1,5.733-2.728,5.728,5.728,0,0,1,4.685,1.874,8.922,8.922,0,0,1,1.6,5.641V78h-6.271V65.327a3.388,3.388,0,0,0-.612-2.236,2.833,2.833,0,0,0-2.227-.714,2.982,2.982,0,0,0-2.728,1.447V78h-6.253V57.924Zm22.971-4.991v4.991h3.3v4.342h-3.3V71.45a2.345,2.345,0,0,0,.408,1.577,2.19,2.19,0,0,0,1.614.445,9.173,9.173,0,0,0,1.559-.111v4.472a11.54,11.54,0,0,1-3.525.538,6.55,6.55,0,0,1-4.769-1.521,6.236,6.236,0,0,1-1.54-4.62V62.266h-2.561V57.924h2.561V52.933ZM15.976,112.819a2.676,2.676,0,0,0-1.011-2.227,12.569,12.569,0,0,0-3.553-1.651,34.089,34.089,0,0,1-4.156-1.651Q2,104.711,2,100.2a6.356,6.356,0,0,1,1.308-3.961,8.461,8.461,0,0,1,3.7-2.672,14.4,14.4,0,0,1,5.381-.956,12.6,12.6,0,0,1,5.223,1.039,8.27,8.27,0,0,1,3.59,2.959A7.728,7.728,0,0,1,22.488,101H15.994a3.266,3.266,0,0,0-1.011-2.561,3.942,3.942,0,0,0-2.737-.909,4.445,4.445,0,0,0-2.755.77,2.268,2.268,0,0,0,.1,3.841,14.039,14.039,0,0,0,3.915,1.744,23.983,23.983,0,0,1,4.6,1.939q4.379,2.523,4.379,6.958a6.6,6.6,0,0,1-2.672,5.566,11.884,11.884,0,0,1-7.329,2.022,14.541,14.541,0,0,1-5.947-1.178,8.966,8.966,0,0,1-4.008-3.229,8.412,8.412,0,0,1-1.345-4.722H7.719a4.143,4.143,0,0,0,1.123,3.2,5.306,5.306,0,0,0,3.646,1.03,4.191,4.191,0,0,0,2.551-.7A2.3,2.3,0,0,0,15.976,112.819Zm17.59-1.577,3.34-11.318h6.7l-8.183,23.435-.353.854a6.216,6.216,0,0,1-6.16,3.9,9.8,9.8,0,0,1-2.579-.37v-4.455h.816a4.277,4.277,0,0,0,2.013-.381,2.31,2.31,0,0,0,1.03-1.365l.5-1.337L23.713,99.924h6.68Zm22.173,3.117a1.445,1.445,0,0,0-.835-1.28,12.7,12.7,0,0,0-3.173-1,14.468,14.468,0,0,1-3.859-1.364,6.465,6.465,0,0,1-2.319-2.05,4.9,4.9,0,0,1-.8-2.765,5.549,5.549,0,0,1,2.282-4.555,9.4,9.4,0,0,1,5.975-1.791,10.416,10.416,0,0,1,6.383,1.8,5.628,5.628,0,0,1,2.412,4.731H55.534q0-2.412-2.542-2.412a2.52,2.52,0,0,0-1.651.547,1.7,1.7,0,0,0-.668,1.364,1.556,1.556,0,0,0,.816,1.354,7.714,7.714,0,0,0,2.607.854,22.528,22.528,0,0,1,3.145.8q4.527,1.559,4.527,5.585a5.258,5.258,0,0,1-2.44,4.472,10.7,10.7,0,0,1-6.318,1.726,10.919,10.919,0,0,1-4.6-.928,7.7,7.7,0,0,1-3.154-2.523,5.714,5.714,0,0,1-1.132-3.358h5.845a2.416,2.416,0,0,0,.928,2.032,3.816,3.816,0,0,0,2.282.64,3,3,0,0,0,1.92-.52A1.662,1.662,0,0,0,55.738,114.359ZM71.974,94.933v4.991h3.3v4.342h-3.3v9.185a2.345,2.345,0,0,0,.408,1.577,2.189,2.189,0,0,0,1.614.445,9.173,9.173,0,0,0,1.559-.111v4.472a11.54,11.54,0,0,1-3.525.538,6.55,6.55,0,0,1-4.769-1.521,6.236,6.236,0,0,1-1.54-4.62v-9.964H63.16V99.924h2.561V94.933Zm15.475,25.438a10.32,10.32,0,0,1-7.478-2.755,9.515,9.515,0,0,1-2.857-7.171v-.52a12.329,12.329,0,0,1,1.141-5.437,8.35,8.35,0,0,1,3.331-3.646,10.054,10.054,0,0,1,5.2-1.29,8.69,8.69,0,0,1,6.68,2.625,10.317,10.317,0,0,1,2.449,7.32v2.431H83.478a4.507,4.507,0,0,0,1.466,2.653,4.362,4.362,0,0,0,2.932.965,5.62,5.62,0,0,0,4.639-2.078l2.857,3.377a7.988,7.988,0,0,1-3.312,2.57A11.192,11.192,0,0,1,87.448,120.371Zm-.705-15.994q-2.746,0-3.266,3.637h6.309v-.482a3.1,3.1,0,0,0-.761-2.329A3.027,3.027,0,0,0,86.743,104.377Zm17.59-4.453.2,2.356a6.9,6.9,0,0,1,5.733-2.728q3.8,0,5.14,3.024a6.681,6.681,0,0,1,5.9-3.024q6.1,0,6.271,7.385V120h-6.271V107.327a3.827,3.827,0,0,0-.52-2.245,2.212,2.212,0,0,0-1.893-.705,2.963,2.963,0,0,0-2.765,1.651l.019.26V120h-6.271V107.364a4.023,4.023,0,0,0-.5-2.282,2.205,2.205,0,0,0-1.911-.705,3,3,0,0,0-2.746,1.651V120H98.47V99.924Zm37.332,14.436a1.445,1.445,0,0,0-.835-1.28,12.7,12.7,0,0,0-3.173-1,14.468,14.468,0,0,1-3.859-1.364,6.465,6.465,0,0,1-2.319-2.05,4.9,4.9,0,0,1-.8-2.765,5.549,5.549,0,0,1,2.282-4.555,9.4,9.4,0,0,1,5.975-1.791,10.416,10.416,0,0,1,6.383,1.8,5.628,5.628,0,0,1,2.412,4.731h-6.271q0-2.412-2.542-2.412a2.52,2.52,0,0,0-1.651.547,1.7,1.7,0,0,0-.668,1.364,1.556,1.556,0,0,0,.816,1.354,7.714,7.714,0,0,0,2.607.854,22.529,22.529,0,0,1,3.145.8q4.527,1.559,4.527,5.585a5.258,5.258,0,0,1-2.44,4.472,10.7,10.7,0,0,1-6.318,1.726,10.919,10.919,0,0,1-4.6-.928,7.7,7.7,0,0,1-3.154-2.523,5.714,5.714,0,0,1-1.132-3.358h5.845a2.416,2.416,0,0,0,.928,2.032,3.816,3.816,0,0,0,2.282.64,3,3,0,0,0,1.92-.52A1.662,1.662,0,0,0,141.665,114.359Z" transform="translate(180 2428)" fill="#12263f"/>
    <g id="Grupo_55711" data-name="Grupo 55711" transform="translate(0 -3.336)">
      <path id="Trazado_101744" data-name="Trazado 101744" d="M2.227,64.668A88.116,88.116,0,0,1,5.974,38.491a63.173,63.173,0,0,1,10.35-20.527Q22.926,9.545,31,6.2l3.69,9.572Q26.617,21.712,22.206,34.31T17.737,63.861V66.4q0,17.356,4.411,30.1t12.541,18.682L31,124.75q-7.957-3.229-14.674-11.791a62.22,62.22,0,0,1-10.35-20.44A88.539,88.539,0,0,1,2.227,67.263Zm61.35,5.651V98.8H43.338V14.85h33.5A39.019,39.019,0,0,1,93.877,18.4a26.725,26.725,0,0,1,11.474,10.09,27.557,27.557,0,0,1,4.065,14.847q0,12.282-8.793,19.633T76.493,70.319Zm0-15.626H76.839q5.881,0,8.966-2.941t3.085-8.3q0-5.881-3.171-9.4a11.23,11.23,0,0,0-8.649-3.575H63.577Zm83.2-39.843L165.52,73.26,184.2,14.85H210.84V98.8h-20.3V79.2l1.96-40.131L172.208,98.8H158.831L138.477,39.01l1.96,40.189V98.8H120.2V14.85ZM267,76.489a8.316,8.316,0,0,0-3.142-6.919q-3.142-2.479-11.042-5.132A105.93,105.93,0,0,1,239.9,59.306q-16.318-8.015-16.318-22.026a19.752,19.752,0,0,1,4.065-12.31,26.292,26.292,0,0,1,11.5-8.3A44.765,44.765,0,0,1,255.873,13.7,39.157,39.157,0,0,1,272.1,16.926a25.7,25.7,0,0,1,11.157,9.2,24.016,24.016,0,0,1,3.979,13.637H267.059q0-5.132-3.142-7.957t-8.5-2.825q-5.42,0-8.562,2.393a7.34,7.34,0,0,0-3.142,6.083q0,3.229,3.46,5.852t12.166,5.42a74.529,74.529,0,0,1,14.3,6.025q13.608,7.842,13.608,21.622,0,11.013-8.3,17.3t-22.776,6.285a45.186,45.186,0,0,1-18.48-3.661,27.863,27.863,0,0,1-12.455-10.033,26.142,26.142,0,0,1-4.18-14.674h20.3q0,6.746,3.488,9.946t11.33,3.2a13.025,13.025,0,0,0,7.928-2.162A7.137,7.137,0,0,0,267,76.489Zm60.37-10.206A82.217,82.217,0,0,1,323.392,92a65.658,65.658,0,0,1-10.984,20.9q-7.006,8.735-15.136,11.849l-3.69-9.572q8.015-6,12.4-18.451t4.555-28.657V64.553q0-17.356-4.411-30.1T293.582,15.773l3.69-9.572q8.072,3.171,15.02,11.734A64.851,64.851,0,0,1,323.248,38.52a81.522,81.522,0,0,1,4.123,25.226Z" transform="translate(425.773 2429.135)" fill="#ff9800"/>
      <path id="Trazado_101755" data-name="Trazado 101755" d="M9.536,12.333a5.7,5.7,0,0,1-1,3.52,3.2,3.2,0,0,1-2.694,1.323,2.963,2.963,0,0,1-2.329-1v4.482H.976V7.49H3.331l.088.932A2.985,2.985,0,0,1,5.827,7.314a3.22,3.22,0,0,1,2.733,1.3A5.858,5.858,0,0,1,9.536,12.2ZM7,12.139a3.763,3.763,0,0,0-.47-2.054,1.53,1.53,0,0,0-1.367-.723,1.662,1.662,0,0,0-1.644.917v3.906a1.691,1.691,0,0,0,1.661.943Q7,15.128,7,12.139Zm3.718.018a5.64,5.64,0,0,1,.545-2.522,3.989,3.989,0,0,1,1.569-1.714,4.577,4.577,0,0,1,2.377-.606,4.33,4.33,0,0,1,3.142,1.178,4.727,4.727,0,0,1,1.358,3.2l.018.65A4.97,4.97,0,0,1,18.5,15.853a4.247,4.247,0,0,1-3.278,1.323,4.268,4.268,0,0,1-3.283-1.318,5.058,5.058,0,0,1-1.226-3.586Zm2.54.18a3.555,3.555,0,0,0,.51,2.073,1.831,1.831,0,0,0,2.9.009,3.89,3.89,0,0,0,.519-2.267,3.519,3.519,0,0,0-.519-2.06,1.686,1.686,0,0,0-1.459-.731,1.658,1.658,0,0,0-1.441.726A3.955,3.955,0,0,0,13.254,12.338ZM26.631,9.872a6.9,6.9,0,0,0-.914-.07,1.86,1.86,0,0,0-1.89.976V17h-2.54V7.49h2.4l.07,1.134a2.354,2.354,0,0,1,2.118-1.31,2.662,2.662,0,0,1,.791.114Zm10.854,4.5a.818.818,0,0,0-.461-.734,5.241,5.241,0,0,0-1.481-.479q-3.393-.712-3.393-2.883A2.613,2.613,0,0,1,33.2,8.163a4.237,4.237,0,0,1,2.747-.848,4.56,4.56,0,0,1,2.9.853,2.687,2.687,0,0,1,1.085,2.215h-2.54a1.229,1.229,0,0,0-.352-.9,1.488,1.488,0,0,0-1.1-.356,1.52,1.52,0,0,0-.993.29.916.916,0,0,0-.352.738.783.783,0,0,0,.4.681,4.114,4.114,0,0,0,1.349.448,11.019,11.019,0,0,1,1.6.426,2.628,2.628,0,0,1,2.013,2.558,2.481,2.481,0,0,1-1.116,2.1,4.815,4.815,0,0,1-2.883.8,5.029,5.029,0,0,1-2.123-.426,3.561,3.561,0,0,1-1.455-1.169,2.716,2.716,0,0,1-.527-1.6H34.26a1.326,1.326,0,0,0,.5,1.037,1.987,1.987,0,0,0,1.248.36,1.839,1.839,0,0,0,1.1-.277A.861.861,0,0,0,37.485,14.372Zm9.8,1.661a3.185,3.185,0,0,1-2.6,1.143A3,3,0,0,1,42.35,16.3a3.752,3.752,0,0,1-.822-2.575V7.49h2.54v6.151q0,1.487,1.354,1.487a1.834,1.834,0,0,0,1.775-.9V7.49h2.549V17H47.355Zm9.527-1.661a.818.818,0,0,0-.461-.734,5.241,5.241,0,0,0-1.481-.479q-3.393-.712-3.393-2.883a2.613,2.613,0,0,1,1.05-2.114,4.237,4.237,0,0,1,2.747-.848,4.56,4.56,0,0,1,2.9.853,2.687,2.687,0,0,1,1.085,2.215h-2.54a1.229,1.229,0,0,0-.352-.9,1.488,1.488,0,0,0-1.1-.356,1.52,1.52,0,0,0-.993.29.916.916,0,0,0-.352.738.783.783,0,0,0,.4.681,4.114,4.114,0,0,0,1.349.448,11.019,11.019,0,0,1,1.6.426,2.628,2.628,0,0,1,2.013,2.558,2.481,2.481,0,0,1-1.116,2.1,4.815,4.815,0,0,1-2.883.8,5.029,5.029,0,0,1-2.123-.426,3.561,3.561,0,0,1-1.455-1.169,2.716,2.716,0,0,1-.527-1.6h2.408a1.326,1.326,0,0,0,.5,1.037,1.987,1.987,0,0,0,1.248.36,1.839,1.839,0,0,0,1.1-.277A.861.861,0,0,0,56.813,14.372Zm13.737,0a.818.818,0,0,0-.461-.734,5.241,5.241,0,0,0-1.481-.479q-3.393-.712-3.393-2.883a2.613,2.613,0,0,1,1.05-2.114,4.237,4.237,0,0,1,2.747-.848,4.56,4.56,0,0,1,2.9.853,2.687,2.687,0,0,1,1.085,2.215h-2.54a1.229,1.229,0,0,0-.352-.9A1.488,1.488,0,0,0,69,9.125a1.52,1.52,0,0,0-.993.29.916.916,0,0,0-.352.738.783.783,0,0,0,.4.681,4.114,4.114,0,0,0,1.349.448,11.019,11.019,0,0,1,1.6.426,2.628,2.628,0,0,1,2.013,2.558,2.481,2.481,0,0,1-1.116,2.1,4.815,4.815,0,0,1-2.883.8A5.029,5.029,0,0,1,66.9,16.75a3.561,3.561,0,0,1-1.455-1.169,2.716,2.716,0,0,1-.527-1.6h2.408a1.326,1.326,0,0,0,.5,1.037,1.987,1.987,0,0,0,1.248.36,1.839,1.839,0,0,0,1.1-.277A.861.861,0,0,0,70.55,14.372ZM77.335,17H74.786V7.49h2.549Zm-2.7-11.971a1.251,1.251,0,0,1,.382-.94,1.648,1.648,0,0,1,2.079,0,1.244,1.244,0,0,1,.387.94,1.247,1.247,0,0,1-.391.949,1.629,1.629,0,0,1-2.065,0A1.247,1.247,0,0,1,74.637,5.029Zm4.421,7.146A5.573,5.573,0,0,1,80.1,8.65a3.375,3.375,0,0,1,2.808-1.336,2.96,2.96,0,0,1,2.435,1.072l.105-.9h2.3v9.193a4.064,4.064,0,0,1-.567,2.171,3.641,3.641,0,0,1-1.6,1.406,5.608,5.608,0,0,1-2.408.483,5.215,5.215,0,0,1-2.039-.417,3.619,3.619,0,0,1-1.5-1.077L80.763,17.7a2.975,2.975,0,0,0,2.3,1.063,2.178,2.178,0,0,0,1.573-.541,2.027,2.027,0,0,0,.563-1.534v-.51a2.938,2.938,0,0,1-2.312.993,3.366,3.366,0,0,1-2.773-1.34,5.572,5.572,0,0,1-1.059-3.555Zm2.54.181a3.489,3.489,0,0,0,.519,2.035,1.648,1.648,0,0,0,1.424.737,1.762,1.762,0,0,0,1.661-.874V10.236a1.758,1.758,0,0,0-1.644-.874,1.659,1.659,0,0,0-1.437.751A3.933,3.933,0,0,0,81.6,12.356ZM92.382,17H89.833V3.5h2.549Zm7.6,0a2.821,2.821,0,0,1-.255-.853,3.073,3.073,0,0,1-2.4,1.028,3.376,3.376,0,0,1-2.316-.809,2.6,2.6,0,0,1-.918-2.039,2.687,2.687,0,0,1,1.121-2.32,5.529,5.529,0,0,1,3.239-.817h1.169v-.545a1.567,1.567,0,0,0-.338-1.055,1.331,1.331,0,0,0-1.068-.4,1.513,1.513,0,0,0-1.006.308,1.045,1.045,0,0,0-.365.844h-2.54a2.551,2.551,0,0,1,.51-1.529,3.37,3.37,0,0,1,1.441-1.1,5.253,5.253,0,0,1,2.092-.4,4.15,4.15,0,0,1,2.791.883,3.09,3.09,0,0,1,1.033,2.483V14.8a4.546,4.546,0,0,0,.378,2.048V17Zm-2.1-1.767a2.188,2.188,0,0,0,1.037-.25,1.645,1.645,0,0,0,.7-.672V12.676h-.949q-1.907,0-2.03,1.318l-.009.149a1.017,1.017,0,0,0,.334.782A1.3,1.3,0,0,0,97.884,15.233Zm11.391-.861a.818.818,0,0,0-.461-.734,5.241,5.241,0,0,0-1.481-.479q-3.393-.712-3.393-2.883a2.613,2.613,0,0,1,1.05-2.114,4.237,4.237,0,0,1,2.747-.848,4.56,4.56,0,0,1,2.9.853,2.687,2.687,0,0,1,1.085,2.215h-2.54a1.229,1.229,0,0,0-.352-.9,1.488,1.488,0,0,0-1.1-.356,1.52,1.52,0,0,0-.993.29.916.916,0,0,0-.352.738.783.783,0,0,0,.4.681,4.114,4.114,0,0,0,1.349.448,11.019,11.019,0,0,1,1.6.426,2.628,2.628,0,0,1,2.013,2.558,2.481,2.481,0,0,1-1.116,2.1,4.815,4.815,0,0,1-2.883.8,5.029,5.029,0,0,1-2.123-.426,3.561,3.561,0,0,1-1.455-1.169,2.716,2.716,0,0,1-.527-1.6h2.408a1.326,1.326,0,0,0,.5,1.037,1.987,1.987,0,0,0,1.248.36,1.839,1.839,0,0,0,1.1-.277A.861.861,0,0,0,109.274,14.372Zm12.964,2.8a4.668,4.668,0,0,1-3.406-1.283,4.561,4.561,0,0,1-1.314-3.419v-.246a5.745,5.745,0,0,1,.554-2.562,4.064,4.064,0,0,1,1.569-1.74,4.4,4.4,0,0,1,2.316-.611,3.947,3.947,0,0,1,3.072,1.23,5,5,0,0,1,1.121,3.489v1.037h-6.056a2.36,2.36,0,0,0,.743,1.494,2.245,2.245,0,0,0,1.569.563,2.742,2.742,0,0,0,2.294-1.063l1.248,1.4a3.813,3.813,0,0,1-1.547,1.261A5.075,5.075,0,0,1,122.238,17.176Zm-.29-7.813a1.587,1.587,0,0,0-1.226.512,2.651,2.651,0,0,0-.6,1.466h3.533v-.2a1.891,1.891,0,0,0-.457-1.311A1.638,1.638,0,0,0,121.948,9.362Zm7.98-1.872.079,1.1a3.32,3.32,0,0,1,2.733-1.274,2.759,2.759,0,0,1,2.25.888,4.142,4.142,0,0,1,.756,2.654V17h-2.54V10.9a1.654,1.654,0,0,0-.352-1.176,1.572,1.572,0,0,0-1.169-.366,1.747,1.747,0,0,0-1.608.916V17h-2.54V7.49ZM144.835,17h-2.549V7.49h2.549Zm-2.7-11.971a1.251,1.251,0,0,1,.382-.94,1.648,1.648,0,0,1,2.079,0,1.244,1.244,0,0,1,.387.94,1.247,1.247,0,0,1-.391.949,1.629,1.629,0,0,1-2.065,0A1.247,1.247,0,0,1,142.137,5.029Zm7.128,2.461.079,1.1a3.32,3.32,0,0,1,2.733-1.274,2.759,2.759,0,0,1,2.25.888,4.142,4.142,0,0,1,.756,2.654V17h-2.54V10.9a1.654,1.654,0,0,0-.352-1.176,1.572,1.572,0,0,0-1.169-.366,1.747,1.747,0,0,0-1.608.916V17h-2.54V7.49Zm7.374,4.685A5.573,5.573,0,0,1,157.68,8.65a3.375,3.375,0,0,1,2.808-1.336,2.96,2.96,0,0,1,2.435,1.072l.105-.9h2.3v9.193a4.064,4.064,0,0,1-.567,2.171,3.641,3.641,0,0,1-1.6,1.406,5.608,5.608,0,0,1-2.408.483,5.215,5.215,0,0,1-2.039-.417,3.619,3.619,0,0,1-1.5-1.077l1.125-1.547a2.975,2.975,0,0,0,2.3,1.063,2.178,2.178,0,0,0,1.573-.541,2.027,2.027,0,0,0,.563-1.534v-.51a2.938,2.938,0,0,1-2.312.993,3.366,3.366,0,0,1-2.773-1.34,5.572,5.572,0,0,1-1.059-3.555Zm2.54.181a3.489,3.489,0,0,0,.519,2.035,1.648,1.648,0,0,0,1.424.737,1.762,1.762,0,0,0,1.661-.874V10.236a1.758,1.758,0,0,0-1.644-.874,1.659,1.659,0,0,0-1.437.751A3.933,3.933,0,0,0,159.179,12.356ZM169.963,17h-2.549V3.5h2.549Zm6.469.176a4.668,4.668,0,0,1-3.406-1.283,4.561,4.561,0,0,1-1.314-3.419v-.246a5.745,5.745,0,0,1,.554-2.562,4.064,4.064,0,0,1,1.569-1.74,4.4,4.4,0,0,1,2.316-.611,3.947,3.947,0,0,1,3.072,1.23,5,5,0,0,1,1.121,3.489v1.037h-6.056a2.36,2.36,0,0,0,.743,1.494,2.245,2.245,0,0,0,1.569.563,2.742,2.742,0,0,0,2.294-1.063l1.248,1.4a3.813,3.813,0,0,1-1.547,1.261A5.075,5.075,0,0,1,176.432,17.176Zm-.29-7.813a1.587,1.587,0,0,0-1.226.512,2.651,2.651,0,0,0-.6,1.466h3.533v-.2a1.891,1.891,0,0,0-.457-1.311A1.638,1.638,0,0,0,176.142,9.362ZM176.37,3.5h2.769L176.7,6.225h-2.065Zm10.564,10.872a.818.818,0,0,0-.461-.734,5.241,5.241,0,0,0-1.481-.479q-3.393-.712-3.393-2.883a2.613,2.613,0,0,1,1.05-2.114,4.237,4.237,0,0,1,2.747-.848,4.56,4.56,0,0,1,2.9.853,2.687,2.687,0,0,1,1.085,2.215h-2.54a1.229,1.229,0,0,0-.352-.9,1.488,1.488,0,0,0-1.1-.356,1.52,1.52,0,0,0-.993.29.916.916,0,0,0-.352.738.783.783,0,0,0,.4.681,4.114,4.114,0,0,0,1.349.448,11.019,11.019,0,0,1,1.6.426,2.628,2.628,0,0,1,2.013,2.558,2.481,2.481,0,0,1-1.116,2.1,4.815,4.815,0,0,1-2.883.8,5.029,5.029,0,0,1-2.123-.426,3.561,3.561,0,0,1-1.455-1.169,2.716,2.716,0,0,1-.527-1.6h2.408a1.326,1.326,0,0,0,.5,1.037,1.987,1.987,0,0,0,1.248.36,1.839,1.839,0,0,0,1.1-.277A.861.861,0,0,0,186.935,14.372Zm4.236,1.38a1.279,1.279,0,0,1,.409-.984,1.588,1.588,0,0,1,2.057,0,1.279,1.279,0,0,1,.409.984,1.261,1.261,0,0,1-.4.971,1.614,1.614,0,0,1-2.065,0A1.261,1.261,0,0,1,191.171,15.752Z" transform="translate(491 2537.885)" fill="#12263f"/>
    </g>
  </g>
</svg>
