<svg xmlns="http://www.w3.org/2000/svg" xmlns:xlink="http://www.w3.org/1999/xlink" width="224.458" height="243.427" viewBox="0 0 224.458 243.427">
  <defs>
    <linearGradient id="linear-gradient" x1="0.417" y1="0.353" x2="0.863" y2="1.141" gradientUnits="objectBoundingBox">
      <stop offset="0" stop-color="#fff"/>
      <stop offset="1" stop-color="#c6d4ee"/>
    </linearGradient>
  </defs>
  <g id="Grupo_61477" data-name="Grupo 61477" transform="translate(-969.542 -463.618)">
    <ellipse id="Elipse_4187" data-name="Elipse 4187" cx="91.024" cy="5.646" rx="91.024" ry="5.646" transform="translate(1007.533 688.592)" fill="#dc8403" opacity="0.65"/>
    <g id="Grupo_60627" data-name="Grupo 60627" transform="translate(1004.69 463.618)">
      <g id="Grupo_60626" data-name="Grupo 60626">
        <g id="Grupo_60621" data-name="Grupo 60621">
          <rect id="Rectángulo_8491" data-name="Rectángulo 8491" width="56.883" height="75.479" rx="1.142" fill="#c7d4e2" style="mix-blend-mode: multiply;isolation: isolate"/>
          <rect id="Rectángulo_8492" data-name="Rectángulo 8492" width="55.016" height="73.517" rx="1.142" transform="translate(0.847 0.841)" fill="#fff"/>
        </g>
        <g id="Grupo_60622" data-name="Grupo 60622" transform="translate(7.541 12.321)">
          <rect id="Rectángulo_8493" data-name="Rectángulo 8493" width="44.05" height="0.657" fill="#407cca"/>
          <rect id="Rectángulo_8494" data-name="Rectángulo 8494" width="44.05" height="0.657" transform="translate(0 2.589)" fill="#407cca"/>
          <rect id="Rectángulo_8495" data-name="Rectángulo 8495" width="44.05" height="0.657" transform="translate(0 5.072)" fill="#407cca"/>
          <rect id="Rectángulo_8496" data-name="Rectángulo 8496" width="23.197" height="0.657" transform="translate(0 7.538)" fill="#407cca"/>
        </g>
        <g id="Grupo_60623" data-name="Grupo 60623" transform="translate(7.541 25.276)">
          <rect id="Rectángulo_8497" data-name="Rectángulo 8497" width="44.05" height="0.657" fill="#407cca"/>
          <rect id="Rectángulo_8498" data-name="Rectángulo 8498" width="44.05" height="0.657" transform="translate(0 2.589)" fill="#407cca"/>
          <rect id="Rectángulo_8499" data-name="Rectángulo 8499" width="44.05" height="0.657" transform="translate(0 5.072)" fill="#407cca"/>
          <rect id="Rectángulo_8500" data-name="Rectángulo 8500" width="44.05" height="0.657" transform="translate(0 7.538)" fill="#407cca"/>
        </g>
        <g id="Grupo_60624" data-name="Grupo 60624" transform="translate(7.828 51.713)">
          <rect id="Rectángulo_8501" data-name="Rectángulo 8501" width="44.05" height="0.657" fill="#407cca"/>
          <rect id="Rectángulo_8502" data-name="Rectángulo 8502" width="44.05" height="0.657" transform="translate(0 2.589)" fill="#407cca"/>
          <rect id="Rectángulo_8503" data-name="Rectángulo 8503" width="44.05" height="0.657" transform="translate(0 5.073)" fill="#407cca"/>
          <rect id="Rectángulo_8504" data-name="Rectángulo 8504" width="44.05" height="0.657" transform="translate(0 7.538)" fill="#407cca"/>
        </g>
        <g id="Grupo_60625" data-name="Grupo 60625" transform="translate(7.541 38.628)">
          <rect id="Rectángulo_8505" data-name="Rectángulo 8505" width="44.05" height="0.657" fill="#407cca"/>
          <rect id="Rectángulo_8506" data-name="Rectángulo 8506" width="44.05" height="0.657" transform="translate(0 2.588)" fill="#407cca"/>
          <rect id="Rectángulo_8507" data-name="Rectángulo 8507" width="44.05" height="0.657" transform="translate(0 5.073)" fill="#407cca"/>
          <rect id="Rectángulo_8508" data-name="Rectángulo 8508" width="22.366" height="0.657" transform="translate(0 7.538)" fill="#407cca"/>
        </g>
        <path id="Trazado_108460" data-name="Trazado 108460" d="M560.638,148.682a13.7,13.7,0,1,1-13.7-13.7A13.7,13.7,0,0,1,560.638,148.682Z" transform="translate(-518.248 -113.43)" fill="#e94552"/>
        <path id="Trazado_108461" data-name="Trazado 108461" d="M543.446,136.863l8.269,10.5h-4.8v7.263h-6.928v-7.152h-4.8Z" transform="translate(-515.251 -110.529)" fill="#fff"/>
      </g>
    </g>
    <rect id="Rectángulo_8509" data-name="Rectángulo 8509" width="140.703" height="182.319" rx="3.482" transform="translate(1026.806 510.285)" fill="#a7bbe4"/>
    <rect id="Rectángulo_8510" data-name="Rectángulo 8510" width="128.052" height="162.199" rx="2.386" transform="translate(1033.131 518.481)" fill="url(#linear-gradient)"/>
    <path id="Trazado_108462" data-name="Trazado 108462" d="M569.638,216.348a3.1,3.1,0,1,1-3.1-3.1A3.1,3.1,0,0,1,569.638,216.348Z" transform="translate(532.915 470.598)" fill="#6f95d4"/>
    <g id="Grupo_60630" data-name="Grupo 60630" transform="translate(1048.544 527.896)">
      <g id="Grupo_60628" data-name="Grupo 60628">
        <path id="Trazado_108463" data-name="Trazado 108463" d="M544.606,172.532h24.1s.444-14.669-12.05-14.68C544.126,157.844,544.606,172.532,544.606,172.532Z" transform="translate(-544.603 -142.517)" fill="#407cca"/>
        <circle id="Elipse_4188" data-name="Elipse 4188" cx="6.353" cy="6.353" r="6.353" transform="translate(5.7)" fill="#407cca"/>
      </g>
      <g id="Grupo_60629" data-name="Grupo 60629" transform="translate(0.001 33.156)">
        <rect id="Rectángulo_8511" data-name="Rectángulo 8511" width="53.723" height="1.889" fill="#407cca"/>
        <rect id="Rectángulo_8512" data-name="Rectángulo 8512" width="53.723" height="1.889" transform="translate(0 4.591)" fill="#407cca"/>
        <rect id="Rectángulo_8513" data-name="Rectángulo 8513" width="53.723" height="1.889" transform="translate(0 9.432)" fill="#407cca"/>
        <rect id="Rectángulo_8514" data-name="Rectángulo 8514" width="53.723" height="1.889" transform="translate(0 14.603)" fill="#407cca"/>
      </g>
    </g>
    <g id="Grupo_60631" data-name="Grupo 60631" transform="translate(1093.507 654.936)">
      <rect id="Rectángulo_8515" data-name="Rectángulo 8515" width="53.723" height="1.889" fill="#407cca"/>
      <rect id="Rectángulo_8516" data-name="Rectángulo 8516" width="53.723" height="1.889" transform="translate(0 4.591)" fill="#407cca"/>
      <rect id="Rectángulo_8517" data-name="Rectángulo 8517" width="53.723" height="1.889" transform="translate(0 9.432)" fill="#407cca"/>
      <rect id="Rectángulo_8518" data-name="Rectángulo 8518" width="53.723" height="1.889" transform="translate(0 14.603)" fill="#407cca"/>
    </g>
    <g id="Grupo_60633" data-name="Grupo 60633" transform="translate(1066.682 584.204)">
      <path id="Trazado_108464" data-name="Trazado 108464" d="M582.83,173.993a44.121,44.121,0,0,1-30.585,6.118s-6.663,44,28.834,56.147a5.458,5.458,0,0,0,3.5,0c36.4-9.105,28.836-56.147,28.836-56.147a44.122,44.122,0,0,1-30.585-6.118" transform="translate(-551.748 -173.993)" fill="#407cca"/>
      <path id="Trazado_108465" data-name="Trazado 108465" d="M579.735,176.021a36.857,36.857,0,0,1-25.552,5.11s-5.564,36.754,24.09,46.9a4.541,4.541,0,0,0,2.924,0c30.405-7.605,24.087-46.9,24.087-46.9a36.853,36.853,0,0,1-25.549-5.11" transform="translate(-548.64 -170.873)" fill="#fff"/>
      <path id="Trazado_108466" data-name="Trazado 108466" d="M578.281,176.972a33.445,33.445,0,0,1-23.188,4.638s-5.049,33.355,21.863,42.567a4.121,4.121,0,0,0,2.653,0c27.592-6.9,21.861-42.567,21.861-42.567a33.445,33.445,0,0,1-23.188-4.638" transform="translate(-547.182 -169.41)" fill="#3b5cad"/>
      <path id="Trazado_108467" data-name="Trazado 108467" d="M577.468,221.245a5.723,5.723,0,0,1-1.165-.165c-25.422-6.1-20.46-38.929-20.46-38.929a30.748,30.748,0,0,0,21.269-4.462Z" transform="translate(-546.051 -168.309)" fill="#407cca"/>
      <g id="Grupo_60632" data-name="Grupo 60632" transform="translate(21.604 16.774)">
        <rect id="Rectángulo_8519" data-name="Rectángulo 8519" width="19.827" height="17.009" rx="1.142" transform="translate(0 10.095)" fill="#fff"/>
        <path id="Trazado_108468" data-name="Trazado 108468" d="M573.461,191.963s1.922-11.362-5.678-11.362c-6.283,0-5.846,7.247-5.846,11.078" transform="translate(-557.688 -180.601)" fill="none" stroke="#fff" stroke-miterlimit="10" stroke-width="0.657"/>
        <path id="Trazado_108469" data-name="Trazado 108469" d="M568.839,189.132a2.91,2.91,0,1,0-4.366,2.516v3.231h2.818V191.7A2.91,2.91,0,0,0,568.839,189.132Z" transform="translate(-556.015 -171.952)" fill="#3b5cad"/>
      </g>
    </g>
    <g id="Grupo_60635" data-name="Grupo 60635" transform="translate(1100.314 471.377)">
      <path id="Trazado_108470" data-name="Trazado 108470" d="M625.474,129.872C582.74,152.9,579.09,159.526,579.09,159.526c-1.592-.447-1.274-1.389-1.274-1.389,15.779-15.723,47.572-28.593,47.572-28.593S625.941,129.621,625.474,129.872Z" transform="translate(-545.318 -129.545)" fill="#3b5cad"/>
      <path id="Trazado_108471" data-name="Trazado 108471" d="M599.043,129.683c3.094,24.216,1.944,56.4-4.079,80.056" transform="translate(-518.897 -129.333)" fill="none" stroke="#7fadd6" stroke-miterlimit="10" stroke-width="0.228"/>
      <path id="Trazado_108472" data-name="Trazado 108472" d="M622.346,159.465H570.085a3.465,3.465,0,0,1-2.942-1.6c-1.66-2.65-2.632-6.475-1.9-9.143a10.034,10.034,0,0,1,6.907-6.879c-.518-5.1,3.4-10.133,8.392-11.281a12.738,12.738,0,0,1,13.2,5.762c.472.759.957,1.635,1.815,1.884a3.8,3.8,0,0,0,2.48-.551,11.72,11.72,0,0,1,16.393,10.06,7.668,7.668,0,0,1,10.334,9.5S624.341,159.465,622.346,159.465Z" transform="translate(-564.998 -128.407)" fill="#6f95d4"/>
      <g id="Grupo_60634" data-name="Grupo 60634" transform="translate(17.377 13.377)">
        <path id="Trazado_108473" data-name="Trazado 108473" d="M592.827,145.232a10.291,10.291,0,1,1-10.291-10.291A10.291,10.291,0,0,1,592.827,145.232Z" transform="translate(-571.225 -134.62)" fill="#407cca" opacity="0.8" style="mix-blend-mode: multiply;isolation: isolate"/>
        <circle id="Elipse_4189" data-name="Elipse 4189" cx="10.291" cy="10.291" r="10.291" fill="#e94552"/>
        <path id="Trazado_108474" data-name="Trazado 108474" d="M574.047,142.979l3.4,3.1,6.675-8.821" transform="translate(-568.453 -131.057)" fill="none" stroke="#fff" stroke-miterlimit="10" stroke-width="0.666"/>
      </g>
    </g>
    <g id="Grupo_60637" data-name="Grupo 60637" transform="translate(1043.333 624.557)">
      <path id="Trazado_108475" data-name="Trazado 108475" d="M543.613,210.363l18.266-.036a2.921,2.921,0,0,0,2.868-2.922V192.53l-14.588.079v-2.051h-6.547v19.8Z" transform="translate(-540.916 -188.862)" fill="#407cca"/>
      <rect id="Rectángulo_8520" data-name="Rectángulo 8520" width="12.58" height="14.295" transform="translate(5.806)" fill="#fff"/>
      <path id="Trazado_108476" data-name="Trazado 108476" d="M564.929,207.027l-.02-14.321H549.16V197h-6.61v10.055" transform="translate(-542.55 -185.558)" fill="#3b5cad"/>
      <path id="Trazado_108477" data-name="Trazado 108477" d="M553.7,192.706v12.9a1.458,1.458,0,0,1-1.455,1.454h0a1.457,1.457,0,0,1-1.452-1.454v-12.9Z" transform="translate(-529.868 -185.558)" fill="#407cca"/>
      <g id="Grupo_60636" data-name="Grupo 60636" transform="translate(6.687 2.125)">
        <rect id="Rectángulo_8521" data-name="Rectángulo 8521" width="10.818" height="0.38" fill="#407cca"/>
        <rect id="Rectángulo_8522" data-name="Rectángulo 8522" width="10.818" height="0.381" transform="translate(0 0.924)" fill="#407cca"/>
        <rect id="Rectángulo_8523" data-name="Rectángulo 8523" width="10.818" height="0.38" transform="translate(0 1.899)" fill="#407cca"/>
        <rect id="Rectángulo_8524" data-name="Rectángulo 8524" width="4.9" height="0.381" transform="translate(0 2.941)" fill="#407cca"/>
      </g>
    </g>
    <g id="Grupo_60639" data-name="Grupo 60639" transform="translate(1043.294 651.583)">
      <path id="Trazado_108478" data-name="Trazado 108478" d="M543.6,221.01l18.266-.036a2.921,2.921,0,0,0,2.868-2.922V203.177l-14.591.079v-2.051H543.6v19.8Z" transform="translate(-540.9 -199.509)" fill="#407cca"/>
      <rect id="Rectángulo_8525" data-name="Rectángulo 8525" width="12.58" height="14.295" transform="translate(5.806)" fill="#fff"/>
      <path id="Trazado_108479" data-name="Trazado 108479" d="M564.914,217.674l-.02-14.321H549.145v4.3h-6.61v10.055" transform="translate(-542.535 -196.205)" fill="#3b5cad"/>
      <path id="Trazado_108480" data-name="Trazado 108480" d="M553.687,203.353v12.9a1.459,1.459,0,0,1-1.454,1.455h0a1.459,1.459,0,0,1-1.454-1.455v-12.9Z" transform="translate(-529.854 -196.205)" fill="#407cca"/>
      <g id="Grupo_60638" data-name="Grupo 60638" transform="translate(6.687 2.125)">
        <rect id="Rectángulo_8526" data-name="Rectángulo 8526" width="10.818" height="0.381" fill="#407cca"/>
        <rect id="Rectángulo_8527" data-name="Rectángulo 8527" width="10.818" height="0.38" transform="translate(0 0.925)" fill="#407cca"/>
        <rect id="Rectángulo_8528" data-name="Rectángulo 8528" width="10.818" height="0.38" transform="translate(0 1.899)" fill="#407cca"/>
        <rect id="Rectángulo_8529" data-name="Rectángulo 8529" width="4.9" height="0.38" transform="translate(0 2.941)" fill="#407cca"/>
      </g>
    </g>
    <g id="Grupo_60642" data-name="Grupo 60642" transform="translate(1079.705 527.172)">
      <rect id="Rectángulo_8530" data-name="Rectángulo 8530" width="74.083" height="30.617" fill="none" stroke="#407cca" stroke-miterlimit="10" stroke-width="0.114"/>
      <text id="PROFILE_INFORMATION" data-name="PROFILE INFORMATION" transform="translate(10.18 7.506)" fill="#407cca" font-size="4" font-family="SegoeUI, Segoe UI"><tspan x="0" y="0">PROFILE INFORMATION</tspan></text>
      <rect id="Rectángulo_8531" data-name="Rectángulo 8531" width="53.723" height="0.801" transform="translate(10.18 11.213)" fill="#407cca"/>
      <rect id="Rectángulo_8532" data-name="Rectángulo 8532" width="53.723" height="0.801" transform="translate(10.18 14.37)" fill="#407cca"/>
      <rect id="Rectángulo_8533" data-name="Rectángulo 8533" width="53.723" height="0.801" transform="translate(10.18 17.4)" fill="#407cca"/>
      <rect id="Rectángulo_8534" data-name="Rectángulo 8534" width="53.723" height="0.801" transform="translate(10.18 20.407)" fill="#407cca"/>
      <g id="Grupo_60641" data-name="Grupo 60641" transform="translate(59.587 3.42)">
        <circle id="Elipse_4190" data-name="Elipse 4190" cx="5.163" cy="5.163" r="5.163" fill="#e94552"/>
        <g id="Grupo_60640" data-name="Grupo 60640" transform="translate(2.63 2.395)">
          <path id="Trazado_108481" data-name="Trazado 108481" d="M582.6,153.816l.787,1.191c.208.307.378.594.561.9h.035c.183-.333.366-.617.548-.916l.777-1.178H586.4l-1.886,2.678,1.942,2.858h-1.142l-.812-1.246c-.216-.322-.4-.63-.594-.962h-.023c-.183.332-.378.63-.584.962l-.8,1.246h-1.109l1.967-2.825-1.876-2.711Z" transform="translate(-581.389 -153.816)" fill="#fff"/>
        </g>
      </g>
    </g>
    <g id="Grupo_60645" data-name="Grupo 60645" transform="translate(1132.167 588.408)">
      <path id="Trazado_108482" data-name="Trazado 108482" d="M598.674,187.779l2.472,6.161h-7.328l-.825-1.6s.16-3.036,2.472-4.13S598.674,187.779,598.674,187.779Z" transform="translate(-553.783 -157.296)" fill="#f7c5b4"/>
      <path id="Trazado_108483" data-name="Trazado 108483" d="M582.256,187.779l-2.472,6.161h7.331l.825-1.6s-.16-3.036-2.472-4.13S582.256,187.779,582.256,187.779Z" transform="translate(-574.105 -157.296)" fill="#f7c5b4"/>
      <path id="Trazado_108484" data-name="Trazado 108484" d="M611.865,222.168a74.108,74.108,0,0,0-4.27-25.907l-6.176.543a85.142,85.142,0,0,1-14.842-.543,74.049,74.049,0,0,0-4.27,25.907c.048,3.467-.546,19.731,1.538,34.769h4.805l.249-2.719a180.789,180.789,0,0,1,4.853-32.058q1.161-4.782,2.579-9.5l.754-2.51c.921,3.069,2.429,8.379,3.27,11.758a181.28,181.28,0,0,1,5.1,32.314l.251,2.719h4.8C612.6,241.9,611.815,225.635,611.865,222.168Z" transform="translate(-570.287 -143.94)" fill="#3b5cad"/>
      <path id="Trazado_108485" data-name="Trazado 108485" d="M596.374,220.166a35.929,35.929,0,0,1,5.067,3.384c.361.32.744.731.675,1.208-.074.505-.622.792-1.12.909a8.906,8.906,0,0,1-2.4.112,17.787,17.787,0,0,1-5.7-.881,2.447,2.447,0,0,1-1.053-.678,2.822,2.822,0,0,1-.388-1.853q.031-1.1.056-2.2" transform="translate(-556.148 -107.169)" fill="#003a70"/>
      <path id="Trazado_108486" data-name="Trazado 108486" d="M586.374,220.166a35.791,35.791,0,0,0-5.067,3.384c-.361.32-.744.731-.675,1.208.074.505.619.792,1.12.909a8.9,8.9,0,0,0,2.4.112,17.8,17.8,0,0,0,5.7-.881,2.424,2.424,0,0,0,1.051-.678,2.79,2.79,0,0,0,.388-1.853q-.026-1.1-.056-2.2" transform="translate(-572.812 -107.169)" fill="#003a70"/>
      <path id="Trazado_108487" data-name="Trazado 108487" d="M601.82,223.121a14.717,14.717,0,0,1-3.561.114,22.31,22.31,0,0,1-5.191-.734,3.566,3.566,0,0,1-1.026-.452,1.986,1.986,0,0,1-.5-.576" transform="translate(-556.02 -105.152)" fill="none" stroke="#407cca" stroke-linecap="round" stroke-linejoin="round" stroke-width="0.101"/>
      <path id="Trazado_108488" data-name="Trazado 108488" d="M580.692,223.009a14.715,14.715,0,0,0,3.561.114,22.291,22.291,0,0,0,5.191-.734,3.551,3.551,0,0,0,1.028-.452,1.866,1.866,0,0,0,.381-.391" transform="translate(-572.707 -105.04)" fill="none" stroke="#407cca" stroke-linecap="round" stroke-linejoin="round" stroke-width="0.101"/>
      <path id="Trazado_108489" data-name="Trazado 108489" d="M591.017,196.421a7.483,7.483,0,0,0,4.782,5.752" transform="translate(-556.823 -143.694)" fill="none" stroke="#407cca" stroke-linecap="round" stroke-linejoin="round" stroke-width="0.135"/>
      <path id="Trazado_108490" data-name="Trazado 108490" d="M588.143,196.421a7.482,7.482,0,0,1-4.785,5.752" transform="translate(-568.605 -143.694)" fill="none" stroke="#407cca" stroke-linecap="round" stroke-linejoin="round" stroke-width="0.135"/>
      <path id="Trazado_108491" data-name="Trazado 108491" d="M587.659,194.924s-.883,2.825-1.216,3.528l-.6-.739c-1-1.147-3.856-2.924-5.082-3.823,3.729-9.291,5.937-8.907,7.991-9.311,1.081-.213,2.345-.432,3.44-.6,6.907-1.064,17.307.576,17.307.576,2.054.4,4.262.02,7.991,9.311-1.226.9-4.084,2.676-5.082,3.823l-.6.739c-.333-.7-1.216-3.528-1.216-3.528l-.015.68c-.142,6.6-.272,12.512-.416,19.107-.01.421-.066.924-.442,1.117a67.366,67.366,0,0,1-11.073.63s-9.684-.053-10.042-.888a2.115,2.115,0,0,1-.165-.729q-.1-2.258-.2-4.516l-.267-5.887C587.806,200.77,587.659,194.924,587.659,194.924Z" transform="translate(-572.599 -163.385)" fill="#003a70"/>
      <path id="Trazado_108492" data-name="Trazado 108492" d="M595.485,181.283q.217,1.721.432,3.44a5.383,5.383,0,0,0,.31,1.513c.317.6,2.937,1.581,3.452,1.868,0,0-2.056,1.79-7.346,2s-7.067-2.206-7.067-2.206c.515-.287,3.135-1.267,3.45-1.868a5.3,5.3,0,0,0,.312-1.513q.217-1.717.432-3.437" transform="translate(-565.672 -167.299)" fill="#f7c5b4"/>
      <path id="Trazado_108493" data-name="Trazado 108493" d="M597.023,179.529a27.126,27.126,0,0,1-.673,8.73,5.717,5.717,0,0,1-.891,2.107,4.936,4.936,0,0,1-6.534,1.353,4.814,4.814,0,0,1-1.83-2.16,15.447,15.447,0,0,1-1.129-7.267s-.274-6.435,6.308-6.435C592.274,175.856,596.315,175.7,597.023,179.529Z" transform="translate(-564.682 -175.334)" fill="#f7c5b4"/>
      <path id="Trazado_108494" data-name="Trazado 108494" d="M586.616,181.068a.476.476,0,0,1-.665.046,1.055,1.055,0,0,1-.327-.652,3.032,3.032,0,0,1-.056-.726.793.793,0,0,1,.15-.492.451.451,0,0,1,.789.241Z" transform="translate(-565.21 -170.36)" fill="#f7c5b4"/>
      <path id="Trazado_108495" data-name="Trazado 108495" d="M590.251,179.634c.056-.165.162-.49.33-.541a.728.728,0,0,1,.609.155.793.793,0,0,1,.15.492,3.025,3.025,0,0,1-.056.726,1.067,1.067,0,0,1-.327.652.475.475,0,0,1-.665-.046A2.2,2.2,0,0,1,590.251,179.634Z" transform="translate(-558.158 -170.375)" fill="#f7c5b4"/>
      <path id="Trazado_108496" data-name="Trazado 108496" d="M588.252,179.479a4.49,4.49,0,0,1-.063,2.642,6.549,6.549,0,0,1-1.353,2.295c-.165.185-.419.378-.635.259a.553.553,0,0,1-.208-.294,4.772,4.772,0,0,1,.426-4.259,4.275,4.275,0,0,1,1-2.929,4.161,4.161,0,0,1,2.757-1.29,9.36,9.36,0,0,1,1.467-.188,10.676,10.676,0,0,0,1.193.183,12.432,12.432,0,0,0,1.236-.234,2.136,2.136,0,0,1,1.9.784,2.638,2.638,0,0,0,.495.589,2.762,2.762,0,0,0,.652.261,1.838,1.838,0,0,1,1.338,1.711v.2c0,3.033-2.99,2.47-3.96,2.125a16.069,16.069,0,0,1-2.95-1.4c-.135.117-.053.335-.091.51a.479.479,0,0,1-.388.333,1.418,1.418,0,0,1-.536-.033,5.65,5.65,0,0,1-1.34-.376,1.714,1.714,0,0,1-.932-.891" transform="translate(-565.037 -175.649)" fill="#3c3c3b"/>
      <path id="Trazado_108497" data-name="Trazado 108497" d="M593.123,181.959a4.827,4.827,0,0,1-6.26,0s.4,2.147,3.206,2.168A2.805,2.805,0,0,0,593.123,181.959Z" transform="translate(-563.213 -165.943)" fill="#f7c5b4" style="mix-blend-mode: multiply;isolation: isolate"/>
      <path id="Trazado_108498" data-name="Trazado 108498" d="M590.1,178.218a4.88,4.88,0,0,0,.523,2.97c.056.107.132.221.251.239a.275.275,0,0,0,.254-.14.772.772,0,0,0,.091-.289,5.394,5.394,0,0,0-.056-3.11.494.494,0,0,0-.127-.193.4.4,0,0,0-.251-.081.713.713,0,0,0-.7.708" transform="translate(-558.311 -172.627)" fill="#3c3c3b"/>
      <path id="Trazado_108499" data-name="Trazado 108499" d="M604.794,196.36a89.2,89.2,0,0,1-10.593.63c-4.115-.142-8.968-.145-10.237-.729A37.69,37.69,0,0,0,604.794,196.36Z" transform="translate(-567.673 -143.94)" fill="#3b5cad" opacity="0.48" style="mix-blend-mode: multiply;isolation: isolate"/>
      <path id="Trazado_108500" data-name="Trazado 108500" d="M587.818,180.056a.546.546,0,1,1-.546-.548A.547.547,0,0,1,587.818,180.056Z" transform="translate(-563.422 -169.713)" fill="#3c3c3b"/>
      <path id="Trazado_108501" data-name="Trazado 108501" d="M588.962,180.051a.547.547,0,1,0,.548-.546A.547.547,0,0,0,588.962,180.051Z" transform="translate(-559.984 -169.718)" fill="#3c3c3b"/>
      <path id="Trazado_108502" data-name="Trazado 108502" d="M588.219,179.607a15.738,15.738,0,0,0-.289,2.066.4.4,0,0,0,.058.239.775.775,0,0,0,.523.208" transform="translate(-561.572 -169.561)" fill="none" stroke="#da806c" stroke-linecap="round" stroke-linejoin="round" stroke-width="0.107"/>
      <path id="Trazado_108503" data-name="Trazado 108503" d="M589.674,180.844a2.127,2.127,0,0,1-1.764.82" transform="translate(-561.602 -167.658)" fill="none" stroke="#da806c" stroke-linecap="round" stroke-linejoin="round" stroke-width="0.124"/>
      <path id="Trazado_108504" data-name="Trazado 108504" d="M589.106,180.375a.792.792,0,0,0-.147-.845l-.066.071-.17-.178-.084.053a2.624,2.624,0,0,0-1.49-.569.849.849,0,0,0-.652.178.3.3,0,0,0,.173.091,4.109,4.109,0,0,1,2.361,1.218S589.085,180.428,589.106,180.375Z" transform="translate(-563.778 -170.641)" fill="#3c3c3b"/>
      <path id="Trazado_108505" data-name="Trazado 108505" d="M588.57,180.377a.792.792,0,0,1,.147-.845l.066.071.17-.178.084.053a2.624,2.624,0,0,1,1.49-.569.852.852,0,0,1,.652.178.3.3,0,0,1-.173.091,4.109,4.109,0,0,0-2.361,1.218S588.591,180.43,588.57,180.377Z" transform="translate(-560.681 -170.638)" fill="#3c3c3b"/>
      <g id="Grupo_60643" data-name="Grupo 60643" transform="translate(1.296 36.643)">
        <rect id="Rectángulo_8535" data-name="Rectángulo 8535" width="50.82" height="28.838" rx="1.142" fill="#e94552"/>
        <rect id="Rectángulo_8536" data-name="Rectángulo 8536" width="50.82" height="5.339" transform="translate(0 4.348)" fill="#3b5cad"/>
        <rect id="Rectángulo_8537" data-name="Rectángulo 8537" width="15.664" height="3.069" transform="translate(1.272 11.349)" fill="#fff"/>
        <rect id="Rectángulo_8538" data-name="Rectángulo 8538" width="7.472" height="3.069" transform="translate(19.059 11.349)" fill="#fff"/>
      </g>
      <path id="Trazado_108506" data-name="Trazado 108506" d="M601.275,200.073l.008,0-1.125-4.914v4.724h0v.69c-.6-.2-1.262-.5-1.861-.706-.289-.1-.675-.17-.853.081-.193.279.079.645.353.848a4.437,4.437,0,0,0,.939.528l-1.363-.246a.466.466,0,0,0-.338.025c-.221.137-.074.485.119.657a2.188,2.188,0,0,0,1.16.543,5.615,5.615,0,0,0-1.053.008.7.7,0,0,0-.35.107c-.264.19-.165.637.1.822a1.529,1.529,0,0,0,.937.173c-.254.112-.543.1-.8.19s-.505.366-.4.622a.654.654,0,0,0,.5.312,8.2,8.2,0,0,0,1.574.206,2.608,2.608,0,0,0,1.4-.259,2.522,2.522,0,0,0,1.038-1.571A5.59,5.59,0,0,0,601.275,200.073Z" transform="translate(-548.042 -145.632)" fill="#f7c5b4"/>
      <path id="Trazado_108507" data-name="Trazado 108507" d="M581.851,203.625c-.261-.089-.551-.079-.8-.188a1.565,1.565,0,0,0,.937-.173c.267-.185.366-.635.1-.825a.743.743,0,0,0-.353-.1,5.413,5.413,0,0,0-1.053-.01,2.2,2.2,0,0,0,1.16-.541c.193-.175.34-.52.119-.66a.479.479,0,0,0-.338-.023l-1.363.244a4.525,4.525,0,0,0,.942-.528c.272-.2.543-.566.35-.845-.175-.254-.561-.183-.853-.084-.6.2-1.264.505-1.861.708V199.9h0V195.18l-1.125,4.914h.008a5.55,5.55,0,0,0,.015,2.84,2.52,2.52,0,0,0,1.036,1.574,2.634,2.634,0,0,0,1.4.256,8.4,8.4,0,0,0,1.571-.2c.2-.048.427-.124.5-.315C582.354,203.991,582.11,203.717,581.851,203.625Z" transform="translate(-577.546 -145.603)" fill="#f7c5b4"/>
      <g id="Grupo_60644" data-name="Grupo 60644" transform="translate(30.381 29.16)">
        <path id="Trazado_108508" data-name="Trazado 108508" d="M592.249,187.218c2.262.541,1.239,3.036,1.239,3.036a.716.716,0,0,1-.81.957.441.441,0,0,0-.246.579,2.488,2.488,0,0,1-.792.117,3.1,3.1,0,0,1-.848-.117.444.444,0,0,0-.249-.579.716.716,0,0,1-.81-.957s-.99-2.376,1.239-3.036A2.433,2.433,0,0,1,592.249,187.218Z" transform="translate(-589.515 -187.137)" fill="#fff"/>
        <path id="Trazado_108509" data-name="Trazado 108509" d="M590.476,188.131a.4.4,0,0,1,.264-.188.892.892,0,0,1,.338.018,3.658,3.658,0,0,1,.388.1.535.535,0,0,1,.256.15.468.468,0,0,1,.071.3.826.826,0,0,1-.1.366.481.481,0,0,1-.287.231.714.714,0,0,1-.617-.221.848.848,0,0,1-.35-.551A.68.68,0,0,1,590.476,188.131Z" transform="translate(-588.087 -185.912)" fill="#003a70"/>
        <path id="Trazado_108510" data-name="Trazado 108510" d="M591.1,188.231a.382.382,0,0,0-.218-.241.859.859,0,0,0-.33-.056,3.008,3.008,0,0,0-.4.015.5.5,0,0,0-.284.089.449.449,0,0,0-.135.277.806.806,0,0,0,.015.373.489.489,0,0,0,.228.292.729.729,0,0,0,.652-.084.841.841,0,0,0,.46-.459A.66.66,0,0,0,591.1,188.231Z" transform="translate(-589.208 -185.911)" fill="#003a70"/>
        <path id="Trazado_108511" data-name="Trazado 108511" d="M590.516,188.25a.283.283,0,0,1,.066.058,1.093,1.093,0,0,1,.18.406.168.168,0,0,1-.015.15.081.081,0,0,1-.089.01.308.308,0,0,0-.091-.036.225.225,0,0,0-.1.025.146.146,0,0,1-.16-.013.182.182,0,0,1-.046-.14.487.487,0,0,1,.038-.147,1.71,1.71,0,0,1,.117-.249S590.475,188.23,590.516,188.25Z" transform="translate(-588.373 -185.43)" fill="#003a70"/>
      </g>
    </g>
    <g id="Grupo_60649" data-name="Grupo 60649" transform="translate(1117.69 550.412)">
      <path id="Trazado_108512" data-name="Trazado 108512" d="M642.312,161.138h-65a4.779,4.779,0,0,0-4.777,4.777v22.259a4.779,4.779,0,0,0,4.777,4.777h65a4.777,4.777,0,0,0,4.777-4.777V165.915A4.777,4.777,0,0,0,642.312,161.138Z" transform="translate(-570.78 -159.978)" fill="#c7d4e2" style="mix-blend-mode: multiply;isolation: isolate"/>
      <g id="Grupo_60648" data-name="Grupo 60648">
        <g id="Grupo_60646" data-name="Grupo 60646">
          <path id="Trazado_108513" data-name="Trazado 108513" d="M646.4,169.54v-4.082a4.777,4.777,0,0,0-4.777-4.777h-65a4.778,4.778,0,0,0-4.777,4.777v4.082Z" transform="translate(-571.843 -160.681)" fill="#407cca"/>
          <path id="Trazado_108514" data-name="Trazado 108514" d="M571.843,164.171v18.178a4.777,4.777,0,0,0,4.777,4.777h65a4.775,4.775,0,0,0,4.777-4.777V164.171Z" transform="translate(-571.843 -155.312)" fill="#fff"/>
        </g>
        <g id="Grupo_60647" data-name="Grupo 60647" transform="translate(15.865 17.733)">
          <path id="Trazado_108515" data-name="Trazado 108515" d="M580.4,167.667h1.3l-.2,2.226,1.843-1.4.66,1.132-2.094,1.028,2.094,1.084-.66,1.142-1.843-1.452.2,2.267h-1.3l.246-2.307-1.851,1.434-.652-1.14,2.038-1.028-2.087-.97.66-1.135,1.881,1.371Z" transform="translate(-578.093 -167.667)" fill="#407cca"/>
          <path id="Trazado_108516" data-name="Trazado 108516" d="M584.14,167.667h1.3l-.2,2.226,1.843-1.4.66,1.132-2.094,1.028,2.094,1.084-.66,1.142-1.843-1.452.2,2.267h-1.3l.246-2.307-1.851,1.434-.652-1.14,2.038-1.028-2.089-.97.662-1.135,1.881,1.371Z" transform="translate(-572.339 -167.667)" fill="#407cca"/>
          <path id="Trazado_108517" data-name="Trazado 108517" d="M587.881,167.667h1.3l-.2,2.226,1.843-1.4.66,1.132-2.1,1.028,2.1,1.084-.66,1.142-1.843-1.452.2,2.267h-1.3l.244-2.307-1.851,1.434-.65-1.14,2.036-1.028-2.087-.97.66-1.135,1.883,1.371Z" transform="translate(-566.584 -167.667)" fill="#407cca"/>
          <path id="Trazado_108518" data-name="Trazado 108518" d="M591.622,167.667h1.3l-.2,2.226,1.843-1.4.66,1.132-2.1,1.028,2.1,1.084-.66,1.142-1.843-1.452.2,2.267h-1.3l.244-2.307-1.85,1.434-.652-1.14,2.038-1.028-2.087-.97.66-1.135,1.883,1.371Z" transform="translate(-560.829 -167.667)" fill="#407cca"/>
          <path id="Trazado_108519" data-name="Trazado 108519" d="M595.363,167.667h1.3l-.2,2.226,1.843-1.4.66,1.132-2.1,1.028,2.1,1.084-.66,1.142-1.843-1.452.2,2.267h-1.3l.244-2.307-1.85,1.434-.652-1.14,2.038-1.028-2.087-.97.66-1.135,1.883,1.371Z" transform="translate(-555.074 -167.667)" fill="#407cca"/>
        </g>
        <text id="LOGIN" transform="translate(32.254 5.799)" fill="#fff" font-size="4" font-family="OpenSans-Semibold, Open Sans" font-weight="600"><tspan x="0" y="0">LOGIN</tspan></text>
      </g>
    </g>
    <g id="Grupo_60653" data-name="Grupo 60653" transform="translate(969.542 603.953)">
      <rect id="Rectángulo_8539" data-name="Rectángulo 8539" width="84.125" height="34.138" rx="1.338" transform="translate(1.254)" fill="#c7d4e2" style="mix-blend-mode: multiply;isolation: isolate"/>
      <rect id="Rectángulo_8540" data-name="Rectángulo 8540" width="84.125" height="32.676" rx="1.338" transform="translate(0 1.461)" fill="#fff"/>
      <g id="Grupo_60650" data-name="Grupo 60650" transform="translate(5.314 8.907)">
        <path id="Trazado_108520" data-name="Trazado 108520" d="M536.095,196.76c-1.389-3.513-4.272-7.026-10.255-7.031a10.308,10.308,0,0,0-10.265,7.024Z" transform="translate(-515.574 -178.441)" fill="#407cca"/>
        <path id="Trazado_108521" data-name="Trazado 108521" d="M527.481,190.176a4.9,4.9,0,1,1-4.9-4.894A4.9,4.9,0,0,1,527.481,190.176Z" transform="translate(-512.319 -185.282)" fill="#407cca"/>
      </g>
      <g id="Grupo_60651" data-name="Grupo 60651" transform="translate(28.517 12.907)">
        <rect id="Rectángulo_8541" data-name="Rectángulo 8541" width="51.952" height="0.845" fill="#407cca"/>
        <rect id="Rectángulo_8542" data-name="Rectángulo 8542" width="51.952" height="0.845" transform="translate(0 3.33)" fill="#407cca"/>
        <rect id="Rectángulo_8543" data-name="Rectángulo 8543" width="51.952" height="0.845" transform="translate(0 6.526)" fill="#407cca"/>
        <rect id="Rectángulo_8544" data-name="Rectángulo 8544" width="27.358" height="0.845" transform="translate(0 9.698)" fill="#407cca"/>
      </g>
      <g id="Grupo_60652" data-name="Grupo 60652" transform="translate(28.517 12.907)">
        <rect id="Rectángulo_8545" data-name="Rectángulo 8545" width="51.952" height="0.845" fill="#407cca"/>
        <rect id="Rectángulo_8546" data-name="Rectángulo 8546" width="51.952" height="0.845" transform="translate(0 3.33)" fill="#407cca"/>
        <rect id="Rectángulo_8547" data-name="Rectángulo 8547" width="51.952" height="0.845" transform="translate(0 6.526)" fill="#407cca"/>
        <rect id="Rectángulo_8548" data-name="Rectángulo 8548" width="27.358" height="0.845" transform="translate(0 9.698)" fill="#407cca"/>
      </g>
    </g>
  </g>
</svg>
