<svg xmlns="http://www.w3.org/2000/svg" width="413.683" height="258.784" viewBox="0 0 413.683 258.784">
  <g id="Grupo_60305" data-name="Grupo 60305" transform="translate(-188.388 -155.63)">
    <path id="Trazado_107258" data-name="Trazado 107258" d="M629.226,413.817c-23.659,0-368.3.085-368.5-.532l-.034-.078a.418.418,0,0,1-.034-.114c-.132-.309-53.1-86.954,29.247-147.272,32.221-23.6-2.016-39.181,23.605-65.454,29.446-30.192,61.581,3.208,94.324-10.483a52.617,52.617,0,0,0,17.4-12.276,64.62,64.62,0,0,1,10.694-8.827q.883-.585,1.783-1.141a71.392,71.392,0,0,1,7.135-3.85q2.473-1.159,5.039-2.145h0a82.77,82.77,0,0,1,8.351-2.7,94.987,94.987,0,0,1,12.456-2.429q2.778-.359,5.6-.568c36.586-2.734,77.758,12.646,99.006,35.126,4.278,4.527,23.73,27.949,8.4,60.143-9.681,20.326,30.876,39.739,45.288,62.95C665.63,373.174,629.559,413.048,629.226,413.817Z" transform="translate(-46.604)" fill="#ebf3fa"/>
    <g id="Grupo_60244" data-name="Grupo 60244" transform="translate(266.749 205.175)" opacity="0.8">
      <path id="Trazado_107259" data-name="Trazado 107259" d="M786.676,520.184a52.238,52.238,0,0,1-.838,9.345,51.9,51.9,0,0,1-98.492,11.658,51,51,0,0,1-2.642-7.461,52.25,52.25,0,0,1-.611-24.582c.008-.041.018-.08.026-.122a52.018,52.018,0,0,1,20.25-30.863q1.6-1.161,3.292-2.2A51.6,51.6,0,0,1,734.8,468.3q1.98,0,3.921.148a51.53,51.53,0,0,1,25.7,9.133h0a52.083,52.083,0,0,1,14.231,14.86q1.191,1.883,2.225,3.869a51.642,51.642,0,0,1,5.8,23.873Z" transform="translate(-682.915 -468.302)" fill="#d7e5ff"/>
      <g id="Grupo_60243" data-name="Grupo 60243" transform="translate(1.178 7.172)">
        <path id="Trazado_107260" data-name="Trazado 107260" d="M723.424,537.628c-2.07,3.279.864,8.972-5.347,7.419s-10.007-2.244-10.351,1.206,4.658,3.452,4.658,7.075-2.244,4.821-5.693,3.1-4.444-4.223-8.455-2.671-6.34.518-7.246-2.588a4.541,4.541,0,0,0-.644-1.359c.008-.041.018-.08.026-.122a52.018,52.018,0,0,1,20.25-30.863q1.6-1.161,3.292-2.2a6.824,6.824,0,0,1,5.2,2.712c3.623,4.488,6.038,2.244,5.176,7.419s.518,5.867,3.45,5.693,6.384-.173,6.728,2.07S725.495,534.349,723.424,537.628Z" transform="translate(-690.346 -516.142)" fill="#aec3ff"/>
        <path id="Trazado_107261" data-name="Trazado 107261" d="M773.707,785.765s-3.131,3.64-5.829,1.55-1.882-3.4-5.834-2.089-5.689-.862-7.715.784-.382,1.853-1.783,5.343-4.3,4.051-2.058,7.536,6.4,1.692,8.593,3.535,1.478,3.647,4.214,4.4,5.352-1.916,5.406,1.391-1,6.534,2.4,9.608,2.766,3.768,6.265,5.266,7.68.148,7.149-1.955-5.04-2.526-5.129-4.9,2.309-2.175,1.348-5.228,1.723-4.7.816-6.673-6.077-2.649-5.474-4.637,5.279-.3,5.534-4.506-2.585-5.7-2.166-9.8S774.186,783.245,773.707,785.765Z" transform="translate(-740.266 -740.32)" fill="#aec3ff"/>
        <path id="Trazado_107262" data-name="Trazado 107262" d="M1125.133,679.577a52.248,52.248,0,0,1-.838,9.345,51.6,51.6,0,0,1-8.188,19.9,5.922,5.922,0,0,1-4.148-.111c-6.47-2.588-1.682-9.575.906-13.069s-4.011-1.941-8.8-5.176.518-11.9-4.4-10.481-10.869,3.235-13.716-1.553,2.588-5.564.129-9.575,1.423-6.34,6.34-6.729,4.27-3.882,10.352-4.4,5.952,7.246,12.681,6.729,6.426,1.035,6.426,1.035a3.137,3.137,0,0,1,1.405.3A51.978,51.978,0,0,1,1125.133,679.577Z" transform="translate(-1022.549 -634.867)" fill="#aec3ff"/>
        <path id="Trazado_107263" data-name="Trazado 107263" d="M1134.083,545.59c-5.6,2.722-7.841-4.682-12.624-2.456-4.821,2.244-3.977-2.07-7.771-4.832s-11.387,2.244-11.042-2.07,6.037-3.105,7.246-6.555,6.728-2.588,6.728-2.588a3.739,3.739,0,0,1,1-.228s0,0,0,0a52.081,52.081,0,0,1,14.231,14.86Q1133.048,543.6,1134.083,545.59Z" transform="translate(-1037.303 -524.753)" fill="#aec3ff"/>
        <path id="Trazado_107264" data-name="Trazado 107264" d="M931.053,519.522s2.933-4.232-1.725-5.48-4.572.386-8.195,0-5.046,2.418-2.329,5.48,4.917,8.939,7.375,5.807S928.163,519.824,931.053,519.522Z" transform="translate(-881.411 -513.564)" fill="#aec3ff"/>
      </g>
    </g>
    <g id="Grupo_60246" data-name="Grupo 60246" transform="translate(294.774 261.549)">
      <path id="Trazado_107265" data-name="Trazado 107265" d="M1361.766,1143.79l-7.946,94.484s-.832,5.727,3.428,5.738c7,.017,34.865,0,34.865,0s-5.272-1.192-5.208-3.875c.075-3.162,9.287-97.241,9.287-97.241Z" transform="translate(-1275.479 -1092.375)" fill="#7599ea"/>
      <path id="Trazado_107266" data-name="Trazado 107266" d="M1406.9,1233.23c-1.378,0-28.35.05-35.171-.038-2.973-.037-3.494-2.643-3.519-4.33a8.457,8.457,0,0,1,.09-1.406l.206-2.456.527-6.259.465-5.53.6-7.106.5-6,5.646-67.137,34.426-.893s-3.88,39.372-6.624,68.031c-.307,3.193-.6,6.255-.867,9.113q-.131,1.369-.253,2.673c-.255,2.712-.487,5.2-.69,7.4-.107,1.159-.205,2.236-.294,3.222-.35,3.865-.555,6.333-.558,6.8a3.959,3.959,0,0,0,.067.765C1402.014,1233.093,1406.379,1233.23,1406.9,1233.23Z" transform="translate(-1287.641 -1083.27)" fill="#90aff4"/>
      <path id="Trazado_107267" data-name="Trazado 107267" d="M876.7,824.069l19.356,77.749,2.65,10.648,9.015,36.213h167.485l-33.228-124.61Z" transform="translate(-874.02 -824.069)" fill="#aec3ff"/>
      <path id="Trazado_107268" data-name="Trazado 107268" d="M862.455,824.068l-2.682.894L889.91,951.383l3.567-2.7Z" transform="translate(-859.772 -824.068)" fill="#90aff4"/>
      <path id="Trazado_107269" data-name="Trazado 107269" d="M1049.966,1613.166H1216.42l4.6-2.7H1053.532Z" transform="translate(-1019.828 -1485.852)" fill="#7599ea"/>
      <rect id="Rect치ngulo_8300" data-name="Rect치ngulo 8300" width="36.04" height="1.713" transform="translate(124.631 151.672) rotate(180)" fill="#aec3ff"/>
      <path id="Trazado_107270" data-name="Trazado 107270" d="M1407.489,1627.525l-.186,1.309-33.894,6.847.465-5.53.222-2.627Z" transform="translate(-1292.02 -1500.212)" fill="#5888dd"/>
      <path id="Trazado_107271" data-name="Trazado 107271" d="M1406.9,1713.536c-1.378,0-28.35.05-35.171-.038-2.973-.037-3.494-2.643-3.519-4.33l33.734-6.347c-.35,3.865-.555,6.333-.558,6.8a3.96,3.96,0,0,0,.067.765C1402.02,1713.4,1406.385,1713.536,1406.9,1713.536Z" transform="translate(-1287.646 -1563.576)" fill="#5888dd" opacity="0.4"/>
      <path id="Trazado_107272" data-name="Trazado 107272" d="M876.7,824.068h165.278L1068.8,924.215H901.633Z" transform="translate(-874.019 -824.068)" fill="#c2d5ff"/>
      <path id="Trazado_107273" data-name="Trazado 107273" d="M1097.357,948.366H942.606l-5.53-22.029-2.139-8.524-.872-3.476L928.381,891.7l-.295-1.179-3-11.967-1.344-5.354-1.147-4.568L919.9,857.924h152.52l2.952,10.707,1.258,4.568,1.476,5.354,9.724,35.275h0l.825,2.988.383,1.388,6.714,24.353Z" transform="translate(-910.375 -852.559)" fill="#739af0"/>
      <path id="Trazado_107274" data-name="Trazado 107274" d="M1075.38,868.63H922.6l-2.688-10.708h152.52Z" transform="translate(-910.379 -852.558)" fill="#607cf4"/>
      <g id="Grupo_60245" data-name="Grupo 60245" transform="translate(15.797 8.865)">
        <path id="Trazado_107275" data-name="Trazado 107275" d="M959.507,881.352a1.011,1.011,0,0,1,1-1.339,1.829,1.829,0,0,1,1.672,1.339,1.011,1.011,0,0,1-1.005,1.339A1.828,1.828,0,0,1,959.507,881.352Z" transform="translate(-959.466 -880.014)" fill="#e9f3fe"/>
        <path id="Trazado_107276" data-name="Trazado 107276" d="M987.576,881.352a1.011,1.011,0,0,1,1-1.339,1.829,1.829,0,0,1,1.672,1.339,1.011,1.011,0,0,1-1,1.339A1.828,1.828,0,0,1,987.576,881.352Z" transform="translate(-983.087 -880.014)" fill="#e9f3fe"/>
        <path id="Trazado_107277" data-name="Trazado 107277" d="M1017.8,881.352a1.011,1.011,0,0,1,1-1.339,1.828,1.828,0,0,1,1.672,1.339,1.011,1.011,0,0,1-1,1.339A1.828,1.828,0,0,1,1017.8,881.352Z" transform="translate(-1008.521 -880.014)" fill="#e9f3fe"/>
      </g>
      <path id="Trazado_107278" data-name="Trazado 107278" d="M1096.833,1456.079l-56.647,24.755-6.146-24.755Z" transform="translate(-1006.426 -1355.932)" fill="#90aff4" opacity="0.5"/>
    </g>
    <g id="Grupo_60252" data-name="Grupo 60252" transform="translate(331.433 224.948)">
      <g id="Grupo_60247" data-name="Grupo 60247">
        <path id="Trazado_107279" data-name="Trazado 107279" d="M1095.612,603.743a6.538,6.538,0,0,0-4.491,5.985v57.756a36.407,36.407,0,0,0,15.012,29.619l33.928,21.743a7.172,7.172,0,0,0,7.585,0l33.928-21.743a36.406,36.406,0,0,0,15.012-29.619v-57.6a6.589,6.589,0,0,0-4.715-6.065c-41.215-14.11-57.736-14.487-96.258-.074Z" transform="translate(-1091.121 -593.083)" fill="#f99746"/>
        <path id="Trazado_107280" data-name="Trazado 107280" d="M1471.923,603.94c-20.062-6.869-34.273-10.473-48.017-10.711V720.055a7.065,7.065,0,0,0,3.793-1.085l33.928-21.743a36.406,36.406,0,0,0,15.012-29.619V610a6.589,6.589,0,0,0-4.715-6.064Z" transform="translate(-1371.174 -593.207)" fill="#f78248"/>
      </g>
      <g id="Grupo_60250" data-name="Grupo 60250" transform="translate(26.616 35.551)">
        <g id="Grupo_60248" data-name="Grupo 60248" transform="translate(9.303)">
          <path id="Trazado_107281" data-name="Trazado 107281" d="M1338.07,844.045h-7.717a12.565,12.565,0,0,1-12.551-12.551v-1.5a12.566,12.566,0,0,1,12.551-12.552h7.717a12.566,12.566,0,0,1,12.552,12.552v1.5A12.566,12.566,0,0,1,1338.07,844.045Zm-7.717-21.585a7.541,7.541,0,0,0-7.532,7.534v1.5a7.541,7.541,0,0,0,7.532,7.532h7.717a7.541,7.541,0,0,0,7.534-7.532v-1.5a7.541,7.541,0,0,0-7.534-7.534Z" transform="translate(-1317.803 -817.441)" fill="#ffdaa4"/>
        </g>
        <path id="Rect치ngulo_8301" data-name="Rect치ngulo 8301" d="M6.024,0H44.516a7.717,7.717,0,0,1,7.717,7.717V20.109a25.3,25.3,0,0,1-25.3,25.3h0A26.932,26.932,0,0,1,0,18.478V6.024A6.024,6.024,0,0,1,6.024,0Z" transform="translate(0 16.251)" fill="#ffdaa4"/>
        <g id="Grupo_60249" data-name="Grupo 60249" transform="translate(17.435 21.197)">
          <circle id="Elipse_4181" data-name="Elipse 4181" cx="6.811" cy="6.811" r="6.811" transform="translate(0 4.509) rotate(-19.33)" fill="#f78248"/>
          <path id="Trazado_107282" data-name="Trazado 107282" d="M1416.07,1026.051h0a1.48,1.48,0,0,1,1.475,1.476v11.351a1.48,1.48,0,0,1-1.475,1.476h0a1.48,1.48,0,0,1-1.476-1.476v-11.351A1.48,1.48,0,0,1,1416.07,1026.051Z" transform="translate(-1407.389 -1014.192)" fill="#f78248"/>
        </g>
      </g>
      <g id="Grupo_60251" data-name="Grupo 60251" transform="translate(28.631 15.724)">
        <path id="Trazado_107283" data-name="Trazado 107283" d="M1271.806,698.393a6.034,6.034,0,0,1,6.164-6.08,6.455,6.455,0,0,1,4.619,1.612l-1.629,1.965a4.329,4.329,0,0,0-3.073-1.192,3.721,3.721,0,0,0,.185,7.423,4.127,4.127,0,0,0,2.435-.705v-1.68h-2.6V697.5h5.106v5.106a7.631,7.631,0,0,1-5.022,1.864A5.892,5.892,0,0,1,1271.806,698.393Z" transform="translate(-1271.806 -692.313)" fill="#ffdaa4"/>
        <path id="Trazado_107284" data-name="Trazado 107284" d="M1358.19,693.584h4.585c3.695,0,6.248,2.536,6.248,5.878a5.886,5.886,0,0,1-6.248,5.878h-4.585Zm4.585,9.422a3.544,3.544,0,0,0,0-7.088h-2v7.088Z" transform="translate(-1344.502 -693.383)" fill="#ffdaa4"/>
        <path id="Trazado_107285" data-name="Trazado 107285" d="M1441.078,693.584h4.8c2.8,0,4.5,1.663,4.5,4.1,0,2.721-2.116,4.132-4.753,4.132h-1.965v3.527h-2.586Zm4.635,5.929a1.826,1.826,0,0,0,2.049-1.814c0-1.159-.806-1.78-2.1-1.78h-2v3.594Z" transform="translate(-1414.256 -693.383)" fill="#ffdaa4"/>
        <path id="Trazado_107286" data-name="Trazado 107286" d="M1511.882,693.584h5.374a4.686,4.686,0,0,1,3.426,1.193,3.717,3.717,0,0,1,1.008,2.721,3.651,3.651,0,0,1-2.519,3.645l2.872,4.2h-3.023l-2.553-3.762h-2v3.762h-2.587Zm5.206,5.711c1.26,0,1.982-.672,1.982-1.7,0-1.109-.773-1.68-2.032-1.68h-2.57v3.376Z" transform="translate(-1473.84 -693.383)" fill="#ffdaa4"/>
      </g>
    </g>
    <g id="Grupo_60255" data-name="Grupo 60255" transform="translate(438.394 178.011)">
      <g id="Grupo_60253" data-name="Grupo 60253" transform="translate(21.977 20.013)">
        <path id="Trazado_107287" data-name="Trazado 107287" d="M1906.062,426.093a1.79,1.79,0,0,0-1.229,1.638v15.808a9.964,9.964,0,0,0,4.109,8.107l9.286,5.951a1.963,1.963,0,0,0,2.076,0l9.286-5.951a9.964,9.964,0,0,0,4.109-8.107V427.773a1.8,1.8,0,0,0-1.291-1.66c-11.281-3.862-15.8-3.965-26.346-.02Z" transform="translate(-1904.833 -423.175)" fill="#aec3ff"/>
        <path id="Trazado_107288" data-name="Trazado 107288" d="M2009.057,426.147c-5.491-1.88-9.38-2.866-13.142-2.931v34.712a1.933,1.933,0,0,0,1.038-.3l9.286-5.951a9.964,9.964,0,0,0,4.109-8.107V427.807a1.8,1.8,0,0,0-1.291-1.66Z" transform="translate(-1981.482 -423.21)" fill="#5888dd" opacity="0.4"/>
      </g>
      <g id="Grupo_60254" data-name="Grupo 60254" transform="translate(0 0)">
        <path id="Trazado_107289" data-name="Trazado 107289" d="M1969.569,300.15l3.646.479-2.6,2.6.671,3.616-3.278-1.667-3.231,1.755.572-3.632-2.668-2.531,3.632-.578,1.582-3.319Z" transform="translate(-1931.539 -296.875)" fill="#f99746"/>
        <path id="Trazado_107290" data-name="Trazado 107290" d="M1969.569,696.629l3.646.479-2.6,2.6.671,3.616-3.278-1.667-3.231,1.755.572-3.633-2.668-2.531,3.632-.578,1.582-3.319Z" transform="translate(-1931.539 -630.529)" fill="#f99746"/>
        <path id="Trazado_107291" data-name="Trazado 107291" d="M1800.133,397.51l3.646.479-2.6,2.6.671,3.616-3.278-1.667-3.231,1.755.572-3.632-2.668-2.531,3.631-.578,1.582-3.319Z" transform="translate(-1788.951 -378.807)" fill="#f99746"/>
        <path id="Trazado_107292" data-name="Trazado 107292" d="M2141.353,397.51l3.646.479-2.6,2.6.671,3.616-3.278-1.667-3.231,1.755.573-3.632-2.668-2.531,3.632-.578,1.582-3.319Z" transform="translate(-2076.102 -378.807)" fill="#f99746"/>
        <path id="Trazado_107293" data-name="Trazado 107293" d="M1800.133,600.442l3.646.479-2.6,2.6.671,3.616-3.278-1.667-3.231,1.755.572-3.632-2.668-2.531,3.631-.578,1.582-3.319Z" transform="translate(-1788.951 -549.583)" fill="#f99746"/>
        <path id="Trazado_107294" data-name="Trazado 107294" d="M2141.353,600.442l3.646.479-2.6,2.6.671,3.616-3.278-1.667-3.231,1.755.573-3.632-2.668-2.531,3.632-.578,1.582-3.319Z" transform="translate(-2076.102 -549.583)" fill="#f99746"/>
        <path id="Trazado_107295" data-name="Trazado 107295" d="M1873.587,326.347l3.646.479-2.6,2.6.671,3.616-3.278-1.667-3.231,1.755.572-3.632-2.668-2.531,3.631-.578,1.583-3.319Z" transform="translate(-1850.766 -318.921)" fill="#f99746"/>
        <path id="Trazado_107296" data-name="Trazado 107296" d="M2070.556,326.347l3.646.479-2.6,2.6.671,3.616L2069,331.378l-3.231,1.755.572-3.632-2.667-2.531,3.631-.578,1.583-3.319Z" transform="translate(-2016.524 -318.921)" fill="#f99746"/>
        <path id="Trazado_107297" data-name="Trazado 107297" d="M1873.587,671.149l3.646.479-2.6,2.6.671,3.615-3.278-1.667-3.231,1.755.572-3.632-2.668-2.531,3.631-.578,1.583-3.319Z" transform="translate(-1850.766 -609.086)" fill="#f99746"/>
        <path id="Trazado_107298" data-name="Trazado 107298" d="M2070.556,671.149l3.646.479-2.6,2.6.671,3.615L2069,676.179l-3.231,1.755.572-3.632-2.667-2.531,3.631-.578,1.583-3.319Z" transform="translate(-2016.524 -609.086)" fill="#f99746"/>
        <path id="Trazado_107299" data-name="Trazado 107299" d="M1773.024,504.255l3.646.479-2.6,2.6.671,3.616-3.278-1.667-3.231,1.755.573-3.632-2.668-2.531,3.631-.578,1.582-3.319Z" transform="translate(-1766.138 -468.637)" fill="#f99746"/>
        <path id="Trazado_107300" data-name="Trazado 107300" d="M2174.586,504.255l3.646.479-2.6,2.6.671,3.616-3.278-1.667-3.231,1.755.572-3.632-2.668-2.531,3.631-.578,1.583-3.319Z" transform="translate(-2104.07 -468.637)" fill="#f99746"/>
      </g>
    </g>
    <g id="Grupo_60269" data-name="Grupo 60269" transform="translate(223.079 285.203)">
      <g id="Grupo_60263" data-name="Grupo 60263" transform="translate(13.348 16.149)">
        <g id="Grupo_60262" data-name="Grupo 60262">
          <g id="Grupo_60258" data-name="Grupo 60258" transform="translate(6.746)">
            <g id="Grupo_60256" data-name="Grupo 60256" transform="translate(3.396)">
              <path id="Trazado_107301" data-name="Trazado 107301" d="M570.4,1075.357a.345.345,0,1,1-.487,0A.345.345,0,0,1,570.4,1075.357Z" transform="translate(-567.555 -1075.257)" fill="#d5e5fb"/>
              <path id="Trazado_107302" data-name="Trazado 107302" d="M563.319,1082.5a.345.345,0,1,1-.487,0A.345.345,0,0,1,563.319,1082.5Z" transform="translate(-561.596 -1081.272)" fill="#d5e5fb"/>
              <path id="Trazado_107303" data-name="Trazado 107303" d="M555.658,1089.749a.345.345,0,1,1,0,.487A.345.345,0,0,1,555.658,1089.749Z" transform="translate(-555.558 -1087.367)" fill="#d5e5fb"/>
            </g>
            <g id="Grupo_60257" data-name="Grupo 60257" transform="translate(0 3.428)">
              <path id="Trazado_107304" data-name="Trazado 107304" d="M548.97,1096.989a.344.344,0,1,1-.487,0A.344.344,0,0,1,548.97,1096.989Z" transform="translate(-546.124 -1096.889)" fill="#d5e5fb"/>
              <path id="Trazado_107305" data-name="Trazado 107305" d="M541.889,1104.136a.345.345,0,1,1-.487,0A.345.345,0,0,1,541.889,1104.136Z" transform="translate(-540.165 -1102.904)" fill="#d5e5fb"/>
              <path id="Trazado_107306" data-name="Trazado 107306" d="M534.227,1111.381a.345.345,0,1,1,0,.487A.345.345,0,0,1,534.227,1111.381Z" transform="translate(-534.127 -1108.999)" fill="#d5e5fb"/>
            </g>
          </g>
          <g id="Grupo_60261" data-name="Grupo 60261" transform="translate(0 6.81)">
            <g id="Grupo_60259" data-name="Grupo 60259" transform="translate(3.396)">
              <path id="Trazado_107307" data-name="Trazado 107307" d="M527.827,1118.331a.345.345,0,1,1-.487,0A.345.345,0,0,1,527.827,1118.331Z" transform="translate(-524.981 -1118.231)" fill="#d5e5fb"/>
              <path id="Trazado_107308" data-name="Trazado 107308" d="M520.746,1125.478a.345.345,0,1,1-.487,0A.345.345,0,0,1,520.746,1125.478Z" transform="translate(-519.022 -1124.246)" fill="#d5e5fb"/>
              <path id="Trazado_107309" data-name="Trazado 107309" d="M513.084,1132.723a.344.344,0,1,1,0,.487A.344.344,0,0,1,513.084,1132.723Z" transform="translate(-512.984 -1130.34)" fill="#d5e5fb"/>
            </g>
            <g id="Grupo_60260" data-name="Grupo 60260" transform="translate(0 3.428)">
              <path id="Trazado_107310" data-name="Trazado 107310" d="M506.4,1139.962a.345.345,0,1,1-.487,0A.344.344,0,0,1,506.4,1139.962Z" transform="translate(-503.551 -1139.862)" fill="#d5e5fb"/>
              <path id="Trazado_107311" data-name="Trazado 107311" d="M499.315,1147.111a.344.344,0,1,1-.487,0A.344.344,0,0,1,499.315,1147.111Z" transform="translate(-497.592 -1145.878)" fill="#d5e5fb"/>
              <path id="Trazado_107312" data-name="Trazado 107312" d="M491.654,1154.354a.344.344,0,1,1,0,.487A.344.344,0,0,1,491.654,1154.354Z" transform="translate(-491.554 -1151.972)" fill="#d5e5fb"/>
            </g>
          </g>
        </g>
      </g>
      <g id="Grupo_60266" data-name="Grupo 60266" transform="translate(25.797 0)">
        <g id="Grupo_60264" data-name="Grupo 60264">
          <circle id="Elipse_4182" data-name="Elipse 4182" cx="7.514" cy="7.514" r="7.514" transform="translate(0 14.827) rotate(-80.643)" fill="#c6dcf7"/>
        </g>
        <g id="Grupo_60265" data-name="Grupo 60265" transform="translate(4.415 3.209)">
          <path id="Trazado_107313" data-name="Trazado 107313" d="M609.392,996.008a2.412,2.412,0,1,1,2.412,2.412A2.412,2.412,0,0,1,609.392,996.008Z" transform="translate(-607.583 -993.597)" fill="#ebf3fa"/>
          <path id="Trazado_107314" data-name="Trazado 107314" d="M602.2,1024.035a4.22,4.22,0,0,0-4.22,4.22h8.441A4.22,4.22,0,0,0,602.2,1024.035Z" transform="translate(-597.977 -1019.212)" fill="#ebf3fa"/>
        </g>
      </g>
      <g id="Grupo_60268" data-name="Grupo 60268" transform="translate(0 29.91)">
        <path id="Trazado_107315" data-name="Trazado 107315" d="M414.546,1164.016l-.279-.69a1.956,1.956,0,0,0-1.813-1.223h-5.137v17.174h21.248v-13.915H416.541A2.152,2.152,0,0,1,414.546,1164.016Z" transform="translate(-407.317 -1162.103)" fill="#c6dcf7"/>
        <g id="Grupo_60267" data-name="Grupo 60267" transform="translate(6.312 5.212)">
          <path id="Trazado_107316" data-name="Trazado 107316" d="M454.64,1197.626h-.71a2.021,2.021,0,0,0,.032-.355v-.243a2.032,2.032,0,0,0-2.03-2.03h-1.248a2.032,2.032,0,0,0-2.03,2.03v.243a2.026,2.026,0,0,0,.032.355H447.9a.747.747,0,0,0-.747.747v3.258a3.339,3.339,0,0,0,3.339,3.339h1.971a3.137,3.137,0,0,0,3.137-3.137v-3.25A.957.957,0,0,0,454.64,1197.626Zm-3.028,3.279v1.514a.239.239,0,0,1-.478,0v-1.514a1.1,1.1,0,1,1,.478,0Zm1.538-3.634a1.208,1.208,0,0,1-.053.355h-3.578a1.208,1.208,0,0,1-.053-.355v-.243a1.22,1.22,0,0,1,1.218-1.218h1.248a1.22,1.22,0,0,1,1.218,1.218Z" transform="translate(-447.15 -1194.998)" fill="#ebf3fa"/>
        </g>
      </g>
    </g>
    <g id="Grupo_60272" data-name="Grupo 60272" transform="translate(234.576 311.318)">
      <g id="Grupo_60270" data-name="Grupo 60270">
        <path id="Trazado_107317" data-name="Trazado 107317" d="M762.691,1142.523s.4-4.373-4.484-4.373a5.74,5.74,0,0,1,2.246,1.2,5.777,5.777,0,0,0-6.507.982c-3.391,2.811-1.284,9.86-2.315,11.2s-5.047,1.606-4.556,5.934,12.744,9.749,11.958,13.329c0,0,4.8-7.059,1.368-10.28a6.364,6.364,0,0,1,1.844,3.45s.454-3.659-1.874-4.829c-2.06-1.035-3.748-4.823-3.569-5.5S762.691,1142.523,762.691,1142.523Z" transform="translate(-704.7 -1138.15)" fill="#2c3a64"/>
        <path id="Trazado_107318" data-name="Trazado 107318" d="M788.005,1298.232s3.65,15.1,7.233,18.118c2.153,1.814,8.557,5.978,8.557,5.978l-2.663.967s-8.881-3-10.87-5.337-7.432-14.052-7.432-14.052Z" transform="translate(-734.823 -1272.866)" fill="#ffb27d"/>
        <path id="Trazado_107319" data-name="Trazado 107319" d="M830.231,1453.831l-.858-2.124a6.024,6.024,0,0,0-5.586-3.769H807.965v52.9h65.452v-42.862H836.379A6.63,6.63,0,0,1,830.231,1453.831Z" transform="translate(-755.977 -1398.85)" fill="#f99746"/>
        <path id="Trazado_107320" data-name="Trazado 107320" d="M586.932,1389.837l.1.177c.8,1.388,2.631,4.79,4.649,8.512.955,1.766,1.954,3.6,2.9,5.334,1.634,2.985,3.12,5.644,3.987,7.049.882,1.429,1.531,2.432,1.794,2.834l0,0a.666.666,0,0,1,.085.414,21.642,21.642,0,0,0,.058,3.743,28.717,28.717,0,0,0,9.383,18.6l2.428.359s-3.436-12.729-4.448-19.926a13.841,13.841,0,0,1-.186-2.853,29.8,29.8,0,0,0-.784-7.788,174.475,174.475,0,0,0-4.965-18.028c-.113-.352-3.528-12.7-3.528-12.7-2.866,2.5-13.319,3.539-13.319,3.539S583.319,1383.412,586.932,1389.837Z" transform="translate(-568.053 -1337.944)" fill="#2f539b"/>
        <path id="Trazado_107321" data-name="Trazado 107321" d="M737.285,1751.85H727.152a5.565,5.565,0,0,1,.287-2.716c.507-1.124,1.23-1.16.092-2.922.644.663,2.714.937,4.179.74a12.41,12.41,0,0,0,1.757,2.674C734.129,1750.1,737.082,1749.932,737.285,1751.85Z" transform="translate(-687.922 -1649.859)" fill="#233862"/>
        <path id="Trazado_107322" data-name="Trazado 107322" d="M599.017,1433.907c.032.058.066.118.1.177.8,1.388,5.118,9.366,7.136,13.088a53.968,53.968,0,0,1-.712-19.24Z" transform="translate(-580.138 -1382.014)" fill="#233862"/>
        <path id="Trazado_107323" data-name="Trazado 107323" d="M795.156,1161.487c.066-.266-5.788,2.646-6.084,2.975-2.746,3.045-1.963,7.02-.392,7.058,1.008.025.812,1.7.812,1.7l11.224-4.748S799.365,1160.591,795.156,1161.487Z" transform="translate(-738.547 -1157.73)" fill="#2c3a64"/>
        <path id="Trazado_107324" data-name="Trazado 107324" d="M781.953,1283.923s1.708,3.412,1.495,6.181c0,0-2.06,3.251-7.4,4.074C776.047,1294.178,780.639,1283.92,781.953,1283.923Z" transform="translate(-729.116 -1260.824)" fill="#739af0"/>
        <path id="Trazado_107325" data-name="Trazado 107325" d="M513.787,1368.625l.034-1.9c-3.776.476-13.02-4.512-13.02-4.512s-3.951,2.628-4.491,10.131c-.264,3.662-1.934,19.152-2.119,23.777-.067,1.676-.09,2.873-.1,3.351a.011.011,0,0,1,0,0,.659.659,0,0,1-.161.39,21.649,21.649,0,0,0-2.046,3.136c-5.762,10.721-2.749,25.288-2.749,25.288l1.338-.34s4.872-15.1,8.057-21.633a13.678,13.678,0,0,1,1.442-2.469,29.8,29.8,0,0,0,3.7-6.9C506.032,1391.338,513.787,1368.625,513.787,1368.625Z" transform="translate(-487.008 -1326.712)" fill="#2f539b"/>
        <path id="Trazado_107326" data-name="Trazado 107326" d="M490.063,1751.461H479.93a5.563,5.563,0,0,1,.286-2.716c.507-1.124,1.3-1.635,1.111-3a3.649,3.649,0,0,0,3.158,1.208,11.114,11.114,0,0,0,1.758,2.279C486.906,1749.712,489.859,1749.543,490.063,1751.461Z" transform="translate(-479.874 -1649.47)" fill="#233862"/>
        <path id="Trazado_107327" data-name="Trazado 107327" d="M597.234,1265.853c-1.361.232.222,1.314-1.65,1.518-2.664.291-5.416.49-6.857,1.065a1.547,1.547,0,0,0-.987.8c-.625,1.878-4.581,5.106-4.581,5.106-17.645-.8-18.782-8.667-18.782-8.667,11.452-11.122,21.195-17.185,29.247-17.935a14.326,14.326,0,0,1,5.84.614c2.816,1.254,4.36,5.069,4.36,5.069S602.406,1264.971,597.234,1265.853Z" transform="translate(-550.988 -1230.323)" fill="#739af0"/>
        <path id="Trazado_107328" data-name="Trazado 107328" d="M724.6,1295.714c-2.664.291-5.416.49-6.857,1.065a28.1,28.1,0,0,1,3.564-15.42S724.014,1292.384,724.6,1295.714Z" transform="translate(-680.001 -1258.666)" fill="#5a7de0"/>
        <path id="Trazado_107329" data-name="Trazado 107329" d="M732.592,1271.915s-6.7-.366-7.891,3.841,2.234,21,2.972,22.732c1.344,3.155,8.118,12.553,8.118,12.553l2.171-1.125s-4.361-13.758-5.335-15.119C731.1,1292.661,734.6,1273.746,732.592,1271.915Z" transform="translate(-685.697 -1250.712)" fill="#ffb27d"/>
        <path id="Trazado_107330" data-name="Trazado 107330" d="M796.633,1510.226a9.884,9.884,0,0,1,1.011,1.038c.451.551.054.75,1.349,3.243,0,0-.066.346-.347.283s-1.258-1.03-1.759-.961c0,0-.358.295-.4,1.272a23.581,23.581,0,0,1-.2,3.316c-.159.38-1.322-1.593-1.894-3.018-.5-1.25-.013-5.467-.013-5.467Z" transform="translate(-744.368 -1451.021)" fill="#ffb27d"/>
        <path id="Trazado_107331" data-name="Trazado 107331" d="M717.684,1274.783c.017.1,6.341,1.163,10.3-.844,0,0,3.3-10.351-1.418-9.856s-7.518,1.982-7.637,4.243A43.51,43.51,0,0,1,717.684,1274.783Z" transform="translate(-680.001 -1244.113)" fill="#739af0"/>
        <path id="Trazado_107332" data-name="Trazado 107332" d="M784.817,1235.054a4.211,4.211,0,0,0,1.272,2.948c.84.865,2.054,1.54,2.906.688a9.275,9.275,0,0,0,1.319-1.593c.737-1.267,1.614-2.561,1.614-2.561l-3.793-3.323-.226-.2a9.665,9.665,0,0,1-2.825,3.206A.881.881,0,0,0,784.817,1235.054Z" transform="translate(-736.491 -1216.299)" fill="#ffb27d"/>
        <path id="Trazado_107333" data-name="Trazado 107333" d="M809.223,1235.591s-.877,1.292-1.614,2.559c-2.357-1.453-2.36-4.372-2.178-5.883Z" transform="translate(-753.785 -1217.354)" fill="#ed985f"/>
        <path id="Trazado_107334" data-name="Trazado 107334" d="M808.493,1201.263s-5.724-3.185-3.685-6.719,2.672-6.325,6.413-4.441,3.667,3.638,3.273,4.983S810.034,1202,808.493,1201.263Z" transform="translate(-752.95 -1181.361)" fill="#ffb27d"/>
        <path id="Trazado_107335" data-name="Trazado 107335" d="M812.265,1190.484c-.262-1.569-1.059-1.719-1.615-1.614a4.578,4.578,0,0,0-5.567-2.131,7.792,7.792,0,0,1-4.511,2.709s.664,1.236,3.4,2a4.677,4.677,0,0,0,2.7-.216,15.282,15.282,0,0,1-3.884,1.464c3.606.33,7.038-2.967,7.393-3.32a5.131,5.131,0,0,1,.284,2.363c-.237,1.063-1.181,2.988-.6,3.237C809.86,1194.977,812.658,1192.837,812.265,1190.484Z" transform="translate(-749.755 -1178.819)" fill="#2c3a64"/>
        <path id="Trazado_107336" data-name="Trazado 107336" d="M917.272,1449.766s-1.6,1.2-.393,1.981,3.353.995,3.361.481C920.27,1450.5,919.41,1449.277,917.272,1449.766Z" transform="translate(-847.254 -1400.297)" fill="#ffb27d"/>
      </g>
      <g id="Grupo_60271" data-name="Grupo 60271" transform="translate(72.382 65.539)">
        <path id="Trazado_107337" data-name="Trazado 107337" d="M958.421,1559.386h-2.063a5.91,5.91,0,0,0,.093-1.032v-.705a5.9,5.9,0,0,0-5.9-5.9h-3.625a5.9,5.9,0,0,0-5.9,5.9v.705a5.887,5.887,0,0,0,.092,1.032h-2.293a2.169,2.169,0,0,0-2.169,2.171v9.463a9.7,9.7,0,0,0,9.7,9.7h5.725a9.111,9.111,0,0,0,9.112-9.112v-9.44A2.779,2.779,0,0,0,958.421,1559.386Zm-8.8,9.524v4.4a.694.694,0,0,1-1.387,0v-4.4a3.2,3.2,0,1,1,1.387,0Zm4.467-10.555a3.513,3.513,0,0,1-.154,1.032H943.546a3.518,3.518,0,0,1-.155-1.032v-.705a3.543,3.543,0,0,1,3.539-3.539h3.625a3.543,3.543,0,0,1,3.539,3.539Z" transform="translate(-936.664 -1551.753)" fill="#ffdaa4"/>
      </g>
    </g>
    <g id="Grupo_60279" data-name="Grupo 60279" transform="translate(483.805 325.714)">
      <g id="Grupo_60273" data-name="Grupo 60273" transform="translate(0 20.649)">
        <path id="Trazado_107338" data-name="Trazado 107338" d="M2139.828,1426.356H2060.38c-11.076-12.729-10.617-28.226,4.5-42.3a28.589,28.589,0,0,1,11.273-6.157,101.742,101.742,0,0,1,15.1-2.1c.023-.009,8.885-1.243,11.412-4.318,7.852-9.549,9.87-10.916,9.87-10.916,8-1.565,14.83-2.024,19.891.806,0,0,0,0,0,0,4.689,2.625,7.863,8.077,9.051,18.1.225,1.894.38,3.952.46,6.185.29,8.131,1.885,15.363,2.833,21.487a0,0,0,0,1,0,0C2146.144,1416.012,2147.114,1422.759,2139.828,1426.356Z" transform="translate(-2052.719 -1359.316)" fill="#f99746"/>
      </g>
      <path id="Trazado_107339" data-name="Trazado 107339" d="M2248.628,1371.529c-4.856,2.645-5.393,11.36-12.994,13.61s-20.5,2.046-27.822,9.985c-7.061,7.659-14.848-11.827-11.5-17.308a102.192,102.192,0,0,1,15.1-2.092c.023-.009,10.84-.053,13.368-3.113,7.852-9.506,7.915-12.051,7.915-12.051,8-1.557,14.83-2.014,19.891.8,0,0,0,0,0,0C2258.17,1367.125,2253.484,1368.883,2248.628,1371.529Z" transform="translate(-2172.887 -1338.668)" fill="#ed7d2b"/>
      <path id="Trazado_107340" data-name="Trazado 107340" d="M2415.67,1513.455c-11.146-13.913-34.042,5.054-39.968,4.519-5.448-.492,10.623-19.508,30.553-22.338,8.056-1.144,6.127-9.469,6.123-9.726.225,1.886.38,3.934.459,6.157C2413.127,1500.16,2414.722,1507.359,2415.67,1513.455Z" transform="translate(-2323.619 -1445.202)" fill="#ed7d2b"/>
      <g id="Grupo_60278" data-name="Grupo 60278" transform="translate(11.502 0)">
        <g id="Grupo_60277" data-name="Grupo 60277">
          <path id="Trazado_107341" data-name="Trazado 107341" d="M2208.187,1671.3c-.779,1.5-.955,4.266-1.186,5.2s-4.316,4.123-4.667,3.964c-.893-.4-.039-1.96.506-3.1.022-.046.043-.092.064-.136.538-1.147.076-3.706.354-5.029s-1.061-4.88-1.061-4.88l2.256-2.85s1.586,3.017,2.72,3.567a2.777,2.777,0,0,1,.553.352A2.205,2.205,0,0,1,2208.187,1671.3Z" transform="translate(-2189.802 -1595.468)" fill="#ffb27d"/>
          <path id="Trazado_107342" data-name="Trazado 107342" d="M2369.025,1229.03a9.546,9.546,0,0,0-5.782,2.671,12.325,12.325,0,0,0-2.786,3.82c-1.489,3.4-.976,7.35-1.827,9.518s-1.362,2.546,0,3.529,1.59,1.917-.037,2.958-2.828,4.285,1.711,4.567,13.339-1.366,14.47-2.205,4.22-2.087,5.7-4.333c2.961-4.49.6-7.506-1.685-8.266C2375.307,1240.13,2376.588,1228.4,2369.025,1229.03Z" transform="translate(-2320.398 -1229.006)" fill="#163560"/>
          <path id="Trazado_107343" data-name="Trazado 107343" d="M2339.353,1347.847s-4.5,10.161-5.438,11.045-5.328,2.61-4.934,4.09,3.7,2.911,5.082,2.566,4.884-6.315,4.884-6.315Z" transform="translate(-2296.686 -1329.016)" fill="#739af0"/>
          <path id="Trazado_107344" data-name="Trazado 107344" d="M2331.425,1399.971s.243-1.748,4.508-2.311c2.367-.313,6.327-6.915,6.327-6.915l-3.96,10.41-3.838,1.659Z" transform="translate(-2298.764 -1365.116)" fill="#5a7de0"/>
          <path id="Trazado_107345" data-name="Trazado 107345" d="M2204.378,1467.881s-22.214-1.555-25.258,1.971c-2.415,2.8,1.983,33.357,1.983,33.357s6.045.176,6.521-1.425c0,0-1.128-14.836-.184-17.4a14.266,14.266,0,0,0,.348-6.117s11.827,1.771,15.579.873S2204.378,1467.881,2204.378,1467.881Z" transform="translate(-2169.984 -1429.742)" fill="#233862"/>
          <path id="Trazado_107346" data-name="Trazado 107346" d="M2135.763,1722.6c-1.563.644-3.481,2.643-4.263,3.21s-5.958.365-6.124.017c-.439-.919,1.371-1.573,2.521-2.1l.051-.024,0,0c1.138-.573,2.411-2.77,3.461-3.587,1.065-.83,2.337-4.413,2.337-4.413l3.563-.722s-.733,3.329-.222,4.479a2.816,2.816,0,0,1,.123.329A2.21,2.21,0,0,1,2135.763,1722.6Z" transform="translate(-2125.309 -1637.974)" fill="#ffb27d"/>
          <path id="Trazado_107347" data-name="Trazado 107347" d="M2208.174,1476.544s-24.237,2.463-26.367,4.936-10.5,34.642-10.5,34.642a5.206,5.206,0,0,0,4.721.091s6.413-10.913,9.25-14.338,3.846-12.374,5.359-13.336c.406-.258,14.666,1.346,19.9-2.668S2208.174,1476.544,2208.174,1476.544Z" transform="translate(-2164.015 -1437.32)" fill="#2a4e96"/>
          <path id="Trazado_107348" data-name="Trazado 107348" d="M2353.49,1353.559a27.983,27.983,0,0,1-2.023,3.324c-1.815,2.529-3.915,4.348-6.191,4.821-3.306.687-14.391-5.747-13.83-9.3.3-1.932,6.465-5.4,7.458-6.806s1.59-8.427,2.121-11.294c.395-2.134,1.718-2.357,3.371-2.923,7.024-2.406,12.026.139,12.026.139C2359.635,1333.332,2357.849,1345.222,2353.49,1353.559Z" transform="translate(-2298.765 -1314.291)" fill="#739af0"/>
          <path id="Trazado_107349" data-name="Trazado 107349" d="M2423.8,1243.891a30.672,30.672,0,0,0,.528-3.561c.108-1.313-1.887-5.6-4.986-5.418a6.564,6.564,0,0,0-2.615,1.28c-.978.8-2.343,2.469-.263,6.49l.571,1.37Z" transform="translate(-2369.408 -1233.971)" fill="#163560"/>
          <g id="Grupo_60274" data-name="Grupo 60274" transform="translate(43.311 2.783)">
            <path id="Trazado_107350" data-name="Trazado 107350" d="M2427.608,1302.583c.1.733.754,1.153,2.209,1.059,1.474-.095,3.564-.988,3.391-1.668a20.178,20.178,0,0,1-1.075-5.548l-.268.075-4.5,1.265s.217,1.431.327,2.787A17.633,17.633,0,0,1,2427.608,1302.583Z" transform="translate(-2422.811 -1288.525)" fill="#ffb27d"/>
            <path id="Trazado_107351" data-name="Trazado 107351" d="M2427.362,1298.163s.217,1.431.327,2.787c2.554-.273,3.723-2.714,4.176-4.051Z" transform="translate(-2422.811 -1288.923)" fill="#f4a269"/>
            <path id="Trazado_107352" data-name="Trazado 107352" d="M2406.057,1260.7s5.891-1.482,4.912-5.136-.878-6.307-4.681-5.515-4.157,2.381-4.127,3.68S2404.5,1260.994,2406.057,1260.7Z" transform="translate(-2401.602 -1249.381)" fill="#ffb27d"/>
            <path id="Trazado_107353" data-name="Trazado 107353" d="M2411.2,1247.867s1.977,3.769,5.708,4.175a3.263,3.263,0,0,1,2.782,1.677,34.269,34.269,0,0,0-1.752-6.629S2411.866,1245.5,2411.2,1247.867Z" transform="translate(-2409.213 -1246.568)" fill="#163560"/>
            <path id="Trazado_107354" data-name="Trazado 107354" d="M2401.3,1254.645a10.266,10.266,0,0,0-1.688,2.245c-.59,1.375.56,4.27,1.034,4.894,0,0-2.741-4.651-1.825-6.665A1.384,1.384,0,0,1,2401.3,1254.645Z" transform="translate(-2398.639 -1252.847)" fill="#163560"/>
          </g>
          <path id="Trazado_107355" data-name="Trazado 107355" d="M2260.715,1467.132s-1.173,1.242-1.316,1.309a8.111,8.111,0,0,1-2.229.27c-.474.119-.392-.176-.043-.415s1.209-.145.858-.233a9.548,9.548,0,0,0-2.962-.25,2.661,2.661,0,0,1-2.093-.169,9.29,9.29,0,0,1,3.338-1.368c.758.044,2.936-.061,2.936-.061Z" transform="translate(-2232.706 -1428.629)" fill="#ffb27d"/>
          <path id="Trazado_107356" data-name="Trazado 107356" d="M2413.788,1352.217s.7,17.278-1.326,19.7c-1.969,2.348-10.382.755-14.018-.035a1.019,1.019,0,0,0-.811.234c-.284.255-.407-1.729-.407-1.729s10.974-1.606,11.711-1.814c1.059-.3.322-12.2.322-12.2Z" transform="translate(-2354.138 -1332.693)" fill="#ffb27d"/>
          <path id="Trazado_107357" data-name="Trazado 107357" d="M2379.22,1470.553s-.983,1-1.358,1.505-2.988,1.431-3.048,1.159,1.17-1.1,1.281-1.411a5.486,5.486,0,0,1,2.268-2.041C2379.181,1469.588,2379.22,1470.553,2379.22,1470.553Z" transform="translate(-2335.277 -1431.597)" fill="#ffb27d"/>
          <path id="Trazado_107358" data-name="Trazado 107358" d="M2363.192,1466.887s-4.032.932-4.716,1.212-2.136,2.333-1.56,2.641c.364.194,1.955-.645,2.763-.82s3.1.222,4.143-1.846C2363.94,1467.841,2363.192,1466.887,2363.192,1466.887Z" transform="translate(-2320.105 -1429.193)" fill="#ffb27d"/>
          <path id="Trazado_107359" data-name="Trazado 107359" d="M2135.763,1748.141c-1.563.645-3.481,2.643-4.263,3.21s-5.958.365-6.124.017c-.439-.919,1.371-1.573,2.521-2.1l.051-.024,0,0,.162-.053a6.371,6.371,0,0,0,4.089,0c1.448-.621,3.595-2.924,5.011-3.861A2.21,2.21,0,0,1,2135.763,1748.141Z" transform="translate(-2125.309 -1663.51)" fill="#2a4e96"/>
          <path id="Trazado_107360" data-name="Trazado 107360" d="M2208.187,1692.108c-.779,1.5-.955,4.266-1.186,5.2s-4.316,4.123-4.667,3.964c-.893-.4-.039-1.96.506-3.1a2.537,2.537,0,0,0,1.247-.464,9.049,9.049,0,0,0,2.907-4.763c.126-1.234.047-3,.732-3.75A2.205,2.205,0,0,1,2208.187,1692.108Z" transform="translate(-2189.802 -1616.28)" fill="#193b72"/>
          <g id="Grupo_60276" data-name="Grupo 60276" transform="translate(15.044 28.932)">
            <g id="Grupo_60275" data-name="Grupo 60275">
              <path id="Trazado_107361" data-name="Trazado 107361" d="M2243.092,1424.726H2225.53l-5.283-13.137h17.535Z" transform="translate(-2220.247 -1411.589)" fill="#ef8035"/>
              <path id="Trazado_107362" data-name="Trazado 107362" d="M2252.287,1491.265h23.191v.512h-22.985Z" transform="translate(-2247.21 -1478.639)" fill="#ed7d2b"/>
            </g>
            <path id="Trazado_107363" data-name="Trazado 107363" d="M2281.384,1448.6a.609.609,0,0,1,.6-.836,1.2,1.2,0,0,1,1.076.836.608.608,0,0,1-.6.836A1.2,1.2,0,0,1,2281.384,1448.6Z" transform="translate(-2271.667 -1442.033)" fill="#fff"/>
          </g>
          <path id="Trazado_107364" data-name="Trazado 107364" d="M2422.827,1476.82a27.907,27.907,0,0,1-2.023,3.324c-5.628-.211-6.986-2.485-6.986-2.485Z" transform="translate(-2368.102 -1437.552)" fill="#5a7de0"/>
          <path id="Trazado_107365" data-name="Trazado 107365" d="M2415.477,1391.9s6.426-1.475,7.224-2.856,1.917-10.58,1.917-10.58l2.681,3.437-.542,8.088s-3.059,3.026-3.256,2.916S2415.477,1391.9,2415.477,1391.9Z" transform="translate(-2369.498 -1354.779)" fill="#5a7de0"/>
          <path id="Trazado_107366" data-name="Trazado 107366" d="M2424.232,1337.758a5.681,5.681,0,0,1,2.111,1.84c1.117,2.041,2.31,17.857-.865,20.47s-12.388,2.092-13.472.242a5.458,5.458,0,0,1,.548-2.667s8.294-1.1,8.664-1.618-.269-11.728.123-12.746S2424.232,1337.758,2424.232,1337.758Z" transform="translate(-2366.575 -1320.525)" fill="#739af0"/>
        </g>
      </g>
      <path id="Trazado_107367" data-name="Trazado 107367" d="M2314.836,1477.463s-2.394,2.243-12.413,2.565c-7.834.252-16.085,3.41-19.94,8.835a15.465,15.465,0,0,0-2.1,5.683c-.523,3.083,19.014,7.877,19.328,7.429s12.868-11.233,12.868-11.233Z" transform="translate(-2244.297 -1438.093)" fill="#f99746"/>
    </g>
    <g id="Grupo_60280" data-name="Grupo 60280" transform="translate(441.392 282.972)">
      <path id="Trazado_107368" data-name="Trazado 107368" d="M1926.182,1087.079s9.743,10.1,10.2,13.9-4.667,9.737-4.667,9.737Z" transform="translate(-1903.82 -1066.826)" fill="#ed7d2b"/>
      <path id="Trazado_107369" data-name="Trazado 107369" d="M1828.424,1738.567s-.344,5.358-1.38,5.433c-.138.01-5.259,0-5.259,0l-6.536-.052a2.121,2.121,0,0,1,1.958-1.9c1.911-.329,5.112-1.665,6.275-4.187C1824.7,1735.2,1828.424,1738.567,1828.424,1738.567Z" transform="translate(-1810.464 -1613.624)" fill="#0e2644"/>
      <path id="Trazado_107370" data-name="Trazado 107370" d="M1920.305,1738.767s-.344,5.358-1.381,5.433c-.138.01-5.258,0-5.258,0l-6.537-.052a2.121,2.121,0,0,1,1.958-1.9c1.912-.329,5.113-1.665,6.276-4.187C1916.586,1735.4,1920.305,1738.767,1920.305,1738.767Z" transform="translate(-1887.786 -1613.792)" fill="#0e2644"/>
      <path id="Trazado_107371" data-name="Trazado 107371" d="M1853.5,1340.9s1.686,10.938,8.021,30.362,7.186,27.831,7.186,27.831l6.842-.177s.1-21.212-2.813-30.979-.558-35.189-.558-35.189Z" transform="translate(-1842.657 -1273.564)" fill="#163560"/>
      <path id="Trazado_107372" data-name="Trazado 107372" d="M1832.556,1336.224a265.408,265.408,0,0,0,2.529,36.713c2.807,20.237,1.822,28.823,1.822,28.823l6.827.242s4.124-20.23,2.976-30.358,5.663-34.735,5.663-34.735Z" transform="translate(-1825.023 -1276.492)" fill="#1c468a"/>
      <path id="Trazado_107373" data-name="Trazado 107373" d="M1869.281,1049.8l-3.643,2.377-5.255-.991c.074-.424.425-2.182.744-3.775.019-.094.038-.188.056-.28.274-1.355.51-2.519.51-2.519l4.915-2.156,1.833-.8c0,.028-.145,1.5-.165,1.72A12.517,12.517,0,0,0,1869.281,1049.8Z" transform="translate(-1848.447 -1028.596)" fill="#ffb27d"/>
      <path id="Trazado_107374" data-name="Trazado 107374" d="M1857.719,1076.546c.1-.043,6.335-1.867,7.011-1.642s1.074,1.535,1.074,1.535l-10.194,2.281A5.06,5.06,0,0,1,1857.719,1076.546Z" transform="translate(-1844.431 -1056.564)" fill="#ed7d2b"/>
      <path id="Trazado_107375" data-name="Trazado 107375" d="M1848.8,1126.341c-1.066,4.815-18.64,5.348-23.16.966-.514-.5-.535-2.818-.334-5.944.393-6.107,1.634-15.292,1.692-19.987a37.158,37.158,0,0,1,.765-6.689,54.318,54.318,0,0,1,2.246-8s8.589-2.756,10.194-2.281C1847.935,1086.691,1849.867,1121.526,1848.8,1126.341Z" transform="translate(-1818.829 -1064.526)" fill="#f99746"/>
      <path id="Trazado_107376" data-name="Trazado 107376" d="M1825.935,1171.5c.393-6.107,1.634-15.293,1.692-19.987a37.147,37.147,0,0,1,.764-6.689l5.165-.9S1838.559,1164.548,1825.935,1171.5Z" transform="translate(-1819.458 -1114.659)" fill="#ed7d2b"/>
      <path id="Trazado_107377" data-name="Trazado 107377" d="M1835.85,1260.006a1.215,1.215,0,0,1-.39,1.405,2.356,2.356,0,0,0-1.054,2.146c.168.669,1.787,1.763,2.349,1.589s1.708-1.053,1.586-1.406.776-3.094-.592-4.153A1.106,1.106,0,0,0,1835.85,1260.006Z" transform="translate(-1826.559 -1211.677)" fill="#ffb27d"/>
      <path id="Trazado_107378" data-name="Trazado 107378" d="M1800.183,1091.343s-5.037.931-9.063,6.835-6.674,10.294-5.94,12.427,7.456,9.538,8.617,9.541a3.113,3.113,0,0,0,3.147-2.738s-4.728-7.119-3.791-8.182c.4-.454,6.169-5.117,6.987-3C1801.493,1109.719,1800.183,1091.343,1800.183,1091.343Z" transform="translate(-1785.058 -1070.414)" fill="#f99746"/>
      <path id="Trazado_107379" data-name="Trazado 107379" d="M1871.86,1047.7c-1.082,1.824-5.1,3.4-6.781,3.972.019-.094.038-.188.057-.28.274-1.355.51-2.519.51-2.519l4.915-2.156C1871.646,1046.708,1872.306,1046.952,1871.86,1047.7Z" transform="translate(-1852.399 -1032.862)" fill="#fca56b"/>
      <path id="Trazado_107380" data-name="Trazado 107380" d="M1851.763,989.325s7.9,2.485,9.376-2.462,3.483-7.957-1.5-9.753-6.531-.2-7.424,1.33S1849.745,988.551,1851.763,989.325Z" transform="translate(-1840.367 -973.614)" fill="#ffb27d"/>
      <path id="Trazado_107381" data-name="Trazado 107381" d="M1857.86,963.618s.492,5.761,1.683,5.513,2.272-.431,2.094,1.305-1.834,3.737,1.836,4.052,8.968-9.141,7.963-10.935C1868.539,958.375,1853.669,957.3,1857.86,963.618Z" transform="translate(-1845.702 -959.266)" fill="#163560"/>
    </g>
    <g id="Grupo_60303" data-name="Grupo 60303" transform="translate(489.327 255.896)">
      <g id="Grupo_60302" data-name="Grupo 60302" transform="translate(8.376 0)">
        <g id="Grupo_60288" data-name="Grupo 60288" transform="translate(19.514 16.36)">
          <g id="Grupo_60287" data-name="Grupo 60287">
            <g id="Grupo_60283" data-name="Grupo 60283">
              <g id="Grupo_60281" data-name="Grupo 60281">
                <path id="Trazado_107382" data-name="Trazado 107382" d="M2263.688,891.747a.375.375,0,1,0,.531,0A.375.375,0,0,0,2263.688,891.747Z" transform="translate(-2263.576 -891.638)" fill="#d5e5fb"/>
                <path id="Trazado_107383" data-name="Trazado 107383" d="M2271.4,899.528a.375.375,0,1,0,.531,0A.375.375,0,0,0,2271.4,899.528Z" transform="translate(-2270.064 -898.187)" fill="#d5e5fb"/>
                <path id="Trazado_107384" data-name="Trazado 107384" d="M2279.738,907.416a.375.375,0,1,0,0,.531A.375.375,0,0,0,2279.738,907.416Z" transform="translate(-2276.637 -904.822)" fill="#d5e5fb"/>
              </g>
              <g id="Grupo_60282" data-name="Grupo 60282" transform="translate(3.697 3.732)">
                <path id="Trazado_107385" data-name="Trazado 107385" d="M2287.019,915.3a.375.375,0,1,0,.531,0A.375.375,0,0,0,2287.019,915.3Z" transform="translate(-2286.907 -915.189)" fill="#d5e5fb"/>
                <path id="Trazado_107386" data-name="Trazado 107386" d="M2294.728,923.079a.375.375,0,1,0,.531,0A.375.375,0,0,0,2294.728,923.079Z" transform="translate(-2293.396 -921.737)" fill="#d5e5fb"/>
                <path id="Trazado_107387" data-name="Trazado 107387" d="M2303.069,930.966a.375.375,0,1,0,0,.53A.375.375,0,0,0,2303.069,930.966Z" transform="translate(-2299.968 -928.372)" fill="#d5e5fb"/>
              </g>
            </g>
            <g id="Grupo_60286" data-name="Grupo 60286" transform="translate(7.344 7.413)">
              <g id="Grupo_60284" data-name="Grupo 60284">
                <path id="Trazado_107388" data-name="Trazado 107388" d="M2310.037,938.532a.375.375,0,1,0,.53,0A.375.375,0,0,0,2310.037,938.532Z" transform="translate(-2309.926 -938.423)" fill="#d5e5fb"/>
                <path id="Trazado_107389" data-name="Trazado 107389" d="M2317.746,946.314a.375.375,0,1,0,.53,0A.375.375,0,0,0,2317.746,946.314Z" transform="translate(-2316.414 -944.972)" fill="#d5e5fb"/>
                <path id="Trazado_107390" data-name="Trazado 107390" d="M2326.087,954.2a.375.375,0,1,0,0,.53A.375.375,0,0,0,2326.087,954.2Z" transform="translate(-2322.987 -951.607)" fill="#d5e5fb"/>
              </g>
              <g id="Grupo_60285" data-name="Grupo 60285" transform="translate(3.697 3.732)">
                <path id="Trazado_107391" data-name="Trazado 107391" d="M2333.368,962.082a.375.375,0,1,0,.531,0A.375.375,0,0,0,2333.368,962.082Z" transform="translate(-2333.256 -961.974)" fill="#d5e5fb"/>
                <path id="Trazado_107392" data-name="Trazado 107392" d="M2341.078,969.864a.375.375,0,1,0,.531,0A.375.375,0,0,0,2341.078,969.864Z" transform="translate(-2339.745 -968.522)" fill="#d5e5fb"/>
                <path id="Trazado_107393" data-name="Trazado 107393" d="M2349.419,977.751a.375.375,0,1,0,0,.531A.375.375,0,0,0,2349.419,977.751Z" transform="translate(-2346.318 -975.157)" fill="#d5e5fb"/>
              </g>
            </g>
          </g>
        </g>
        <g id="Grupo_60296" data-name="Grupo 60296" transform="translate(0 20.265)">
          <g id="Grupo_60295" data-name="Grupo 60295">
            <g id="Grupo_60291" data-name="Grupo 60291" transform="translate(2.341)">
              <g id="Grupo_60289" data-name="Grupo 60289" transform="translate(1.178)">
                <path id="Trazado_107394" data-name="Trazado 107394" d="M2168.044,916.295a.375.375,0,1,0,.281.45A.375.375,0,0,0,2168.044,916.295Z" transform="translate(-2166.801 -916.285)" fill="#d5e5fb"/>
                <path id="Trazado_107395" data-name="Trazado 107395" d="M2165.586,926.97a.375.375,0,1,0,.281.449A.375.375,0,0,0,2165.586,926.97Z" transform="translate(-2164.733 -925.269)" fill="#d5e5fb"/>
                <path id="Trazado_107396" data-name="Trazado 107396" d="M2163.378,938.234a.375.375,0,1,0-.45.281A.375.375,0,0,0,2163.378,938.234Z" transform="translate(-2162.637 -934.37)" fill="#d5e5fb"/>
              </g>
              <g id="Grupo_60290" data-name="Grupo 60290" transform="translate(0 5.119)">
                <path id="Trazado_107397" data-name="Trazado 107397" d="M2160.607,948.6a.375.375,0,1,0,.281.45A.375.375,0,0,0,2160.607,948.6Z" transform="translate(-2159.365 -948.59)" fill="#d5e5fb"/>
                <path id="Trazado_107398" data-name="Trazado 107398" d="M2158.15,959.276a.375.375,0,1,0,.281.45A.375.375,0,0,0,2158.15,959.276Z" transform="translate(-2157.296 -957.574)" fill="#d5e5fb"/>
                <path id="Trazado_107399" data-name="Trazado 107399" d="M2155.942,970.541a.375.375,0,1,0-.45.281A.375.375,0,0,0,2155.942,970.541Z" transform="translate(-2155.201 -966.676)" fill="#d5e5fb"/>
              </g>
            </g>
            <g id="Grupo_60294" data-name="Grupo 60294" transform="translate(0 10.17)">
              <g id="Grupo_60292" data-name="Grupo 60292" transform="translate(1.178)">
                <path id="Trazado_107400" data-name="Trazado 107400" d="M2153.27,980.473a.375.375,0,1,0,.281.45A.375.375,0,0,0,2153.27,980.473Z" transform="translate(-2152.027 -980.463)" fill="#d5e5fb"/>
                <path id="Trazado_107401" data-name="Trazado 107401" d="M2150.813,991.148a.375.375,0,1,0,.281.45A.375.375,0,0,0,2150.813,991.148Z" transform="translate(-2149.959 -989.447)" fill="#d5e5fb"/>
                <path id="Trazado_107402" data-name="Trazado 107402" d="M2148.6,1002.414a.375.375,0,1,0-.45.281A.375.375,0,0,0,2148.6,1002.414Z" transform="translate(-2147.864 -998.549)" fill="#d5e5fb"/>
              </g>
              <g id="Grupo_60293" data-name="Grupo 60293" transform="translate(0 5.119)">
                <path id="Trazado_107403" data-name="Trazado 107403" d="M2145.834,1012.779a.375.375,0,1,0,.282.45A.375.375,0,0,0,2145.834,1012.779Z" transform="translate(-2144.591 -1012.769)" fill="#d5e5fb"/>
                <path id="Trazado_107404" data-name="Trazado 107404" d="M2143.377,1023.454a.375.375,0,1,0,.281.45A.375.375,0,0,0,2143.377,1023.454Z" transform="translate(-2142.523 -1021.753)" fill="#d5e5fb"/>
                <path id="Trazado_107405" data-name="Trazado 107405" d="M2141.168,1034.719a.375.375,0,1,0-.45.282A.375.375,0,0,0,2141.168,1034.719Z" transform="translate(-2140.427 -1030.854)" fill="#d5e5fb"/>
              </g>
            </g>
          </g>
        </g>
        <g id="Grupo_60299" data-name="Grupo 60299" transform="translate(2.631)">
          <g id="Grupo_60297" data-name="Grupo 60297">
            <path id="Trazado_107406" data-name="Trazado 107406" d="M2173.391,796.573a8.18,8.18,0,1,0-8.18,8.18A8.18,8.18,0,0,0,2173.391,796.573Z" transform="translate(-2157.031 -788.393)" fill="#c6dcf7"/>
          </g>
          <g id="Grupo_60298" data-name="Grupo 60298" transform="translate(3.585 2.273)">
            <path id="Trazado_107407" data-name="Trazado 107407" d="M2197.336,805.361a2.625,2.625,0,1,0-2.625,2.625A2.625,2.625,0,0,0,2197.336,805.361Z" transform="translate(-2190.116 -802.736)" fill="#ebf3fa"/>
            <path id="Trazado_107408" data-name="Trazado 107408" d="M2184.253,835.873a4.594,4.594,0,0,1,4.594,4.595h-9.189A4.6,4.6,0,0,1,2184.253,835.873Z" transform="translate(-2179.658 -830.622)" fill="#ebf3fa"/>
          </g>
        </g>
        <g id="Grupo_60301" data-name="Grupo 60301" transform="translate(22.877 31.342)">
          <path id="Trazado_107409" data-name="Trazado 107409" d="M2292.672,988.269l-.3-.751a2.129,2.129,0,0,0-1.974-1.332H2284.8v18.7h23.133V989.734h-13.091A2.343,2.343,0,0,1,2292.672,988.269Z" transform="translate(-2284.803 -986.186)" fill="#c6dcf7"/>
          <g id="Grupo_60300" data-name="Grupo 60300" transform="translate(6.872 5.675)">
            <path id="Trazado_107410" data-name="Trazado 107410" d="M2336.324,1024.861h-.773a2.2,2.2,0,0,0,.035-.387v-.264a2.212,2.212,0,0,0-2.21-2.21h-1.359a2.212,2.212,0,0,0-2.21,2.21v.264a2.223,2.223,0,0,0,.034.387h-.859a.813.813,0,0,0-.813.813v3.547a3.635,3.635,0,0,0,3.635,3.635h2.146a3.415,3.415,0,0,0,3.415-3.415V1025.9A1.042,1.042,0,0,0,2336.324,1024.861Zm-3.3,3.57v1.648a.26.26,0,0,1-.52,0v-1.648a1.2,1.2,0,1,1,.52,0Zm1.674-3.957a1.317,1.317,0,0,1-.058.387h-3.9a1.325,1.325,0,0,1-.058-.387v-.264a1.328,1.328,0,0,1,1.326-1.326h1.359a1.328,1.328,0,0,1,1.326,1.326Z" transform="translate(-2328.169 -1022)" fill="#ebf3fa"/>
          </g>
        </g>
      </g>
      <path id="Trazado_107411" data-name="Trazado 107411" d="M2087.566,1070.281c0,4.178,7.075,11.8,7.075,11.8s7.073-7.626,7.073-11.8a7.09,7.09,0,1,0-14.148,0Zm2.97-.766a4.1,4.1,0,1,1,4.1,4.1A4.1,4.1,0,0,1,2090.536,1069.514Z" transform="translate(-2087.566 -1019.25)" fill="#c6dcf7"/>
    </g>
    <rect id="Rect치ngulo_8302" data-name="Rect치ngulo 8302" width="413.683" height="1.192" rx="0.596" transform="translate(188.388 413.221)" fill="#233862"/>
    <g id="Grupo_60304" data-name="Grupo 60304" transform="translate(315.603 284.665)">
      <path id="Trazado_107412" data-name="Trazado 107412" d="M1055.961,1084.826c-.175-.722.141-1.288.81-1.289a1.573,1.573,0,0,1,1.426,1.285c.175.721-.138,1.288-.81,1.289A1.566,1.566,0,0,1,1055.961,1084.826Zm1.667,0c-.109-.452-.415-.792-.745-.792s-.466.331-.354.794.411.792.745.792S1057.739,1085.281,1057.628,1084.823Z" transform="translate(-1045.663 -1065.539)" fill="#f99746"/>
      <path id="Trazado_107413" data-name="Trazado 107413" d="M991.86,970.708l-.413.107-.223-.448.671-.215h.377l.607,2.506h-.546Z" transform="translate(-991.224 -970.121)" fill="#2f539b"/>
      <path id="Trazado_107414" data-name="Trazado 107414" d="M1007.361,971.26c-.175-.722.141-1.288.81-1.289a1.573,1.573,0,0,1,1.426,1.285c.175.722-.138,1.287-.81,1.289A1.566,1.566,0,0,1,1007.361,971.26Zm1.668,0c-.109-.452-.415-.792-.745-.792s-.466.332-.354.794.411.792.745.792S1009.14,971.715,1009.029,971.257Z" transform="translate(-1004.764 -969.968)" fill="#2f539b"/>
      <path id="Trazado_107415" data-name="Trazado 107415" d="M1081.709,1189.762c-.175-.721.141-1.288.81-1.288a1.572,1.572,0,0,1,1.426,1.285c.175.722-.138,1.288-.81,1.289A1.567,1.567,0,0,1,1081.709,1189.762Zm1.668,0c-.109-.452-.415-.792-.745-.792s-.466.331-.354.794.411.792.746.792S1083.487,1190.218,1083.376,1189.76Z" transform="translate(-1067.331 -1153.848)" fill="#2f539b"/>
      <path id="Trazado_107416" data-name="Trazado 107416" d="M1009.751,1044.6l-.413.107-.223-.448.671-.214h.377l.607,2.506h-.546Z" transform="translate(-1006.28 -1032.305)" fill="#2f539b"/>
      <path id="Trazado_107417" data-name="Trazado 107417" d="M1025.253,1045.152c-.175-.722.141-1.288.81-1.289a1.573,1.573,0,0,1,1.426,1.285c.175.721-.138,1.287-.81,1.288A1.566,1.566,0,0,1,1025.253,1045.152Zm1.667,0c-.109-.451-.415-.792-.746-.792s-.466.332-.354.794.411.792.745.792S1027.031,1045.607,1026.92,1045.149Z" transform="translate(-1019.821 -1032.151)" fill="#2f539b"/>
      <path id="Trazado_107418" data-name="Trazado 107418" d="M1020.057,1007.429l-.412.107-.224-.448.671-.215h.378l.607,2.506h-.546Z" transform="translate(-1014.953 -1001.023)" fill="#f99746"/>
      <path id="Trazado_107419" data-name="Trazado 107419" d="M1035.559,1007.98c-.175-.722.141-1.288.81-1.289a1.573,1.573,0,0,1,1.426,1.285c.175.721-.138,1.287-.81,1.289A1.566,1.566,0,0,1,1035.559,1007.98Zm1.667,0c-.109-.452-.415-.792-.745-.792s-.466.331-.354.794.411.792.745.792S1037.337,1008.435,1037.226,1007.977Z" transform="translate(-1028.494 -1000.87)" fill="#f99746"/>
      <path id="Trazado_107420" data-name="Trazado 107420" d="M1019.366,1084.31l-.413.108-.224-.448.671-.214h.377l.607,2.506h-.546Z" transform="translate(-1014.371 -1065.722)" fill="#2f539b"/>
      <path id="Trazado_107421" data-name="Trazado 107421" d="M1034.868,1084.861c-.175-.722.141-1.288.81-1.289a1.573,1.573,0,0,1,1.426,1.285c.175.722-.138,1.287-.81,1.289A1.566,1.566,0,0,1,1034.868,1084.861Zm1.668,0c-.109-.452-.415-.792-.746-.792s-.466.332-.354.794.411.792.745.792S1036.646,1085.316,1036.535,1084.858Z" transform="translate(-1027.912 -1065.568)" fill="#2f539b"/>
      <path id="Trazado_107422" data-name="Trazado 107422" d="M1067.2,971.242c-.175-.722.141-1.288.81-1.289a1.573,1.573,0,0,1,1.426,1.285c.175.722-.138,1.288-.81,1.289A1.566,1.566,0,0,1,1067.2,971.242Zm1.668,0c-.109-.451-.415-.792-.745-.792s-.466.332-.354.794.411.792.746.792S1068.977,971.7,1068.866,971.239Z" transform="translate(-1055.119 -969.953)" fill="#f99746"/>
      <path id="Trazado_107423" data-name="Trazado 107423" d="M1030.6,970.726l-.413.108-.223-.448.671-.214h.378l.607,2.506h-.546Z" transform="translate(-1023.829 -970.136)" fill="#2f539b"/>
      <path id="Trazado_107424" data-name="Trazado 107424" d="M1046.1,971.278c-.175-.722.141-1.288.81-1.289a1.573,1.573,0,0,1,1.426,1.285c.175.721-.138,1.287-.81,1.289A1.566,1.566,0,0,1,1046.1,971.278Zm1.668,0c-.109-.452-.415-.792-.745-.792s-.466.332-.354.794.411.792.745.792S1047.883,971.733,1047.772,971.275Z" transform="translate(-1037.368 -969.983)" fill="#2f539b"/>
      <path id="Trazado_107425" data-name="Trazado 107425" d="M1074.331,1161.531c-.175-.722.141-1.288.809-1.289a1.573,1.573,0,0,1,1.426,1.285c.175.721-.138,1.288-.81,1.289A1.566,1.566,0,0,1,1074.331,1161.531Zm1.667,0c-.109-.451-.415-.792-.745-.792s-.466.332-.354.794.411.792.745.792S1076.109,1161.986,1076,1161.528Z" transform="translate(-1061.122 -1130.089)" fill="#f99746"/>
      <path id="Trazado_107426" data-name="Trazado 107426" d="M1028.121,1121.306l-.412.107-.224-.448.671-.214h.378l.607,2.506h-.546Z" transform="translate(-1021.739 -1096.855)" fill="#2f539b"/>
      <path id="Trazado_107427" data-name="Trazado 107427" d="M1043.623,1121.857c-.175-.722.141-1.288.81-1.289a1.573,1.573,0,0,1,1.426,1.285c.175.721-.138,1.287-.81,1.288A1.566,1.566,0,0,1,1043.623,1121.857Zm1.667,0c-.109-.452-.415-.792-.745-.792s-.466.331-.354.794.411.792.745.792S1045.4,1122.312,1045.29,1121.854Z" transform="translate(-1035.28 -1096.702)" fill="#2f539b"/>
      <path id="Trazado_107428" data-name="Trazado 107428" d="M1064.716,1121.822c-.175-.722.141-1.288.81-1.289a1.573,1.573,0,0,1,1.426,1.285c.175.722-.138,1.288-.81,1.289A1.566,1.566,0,0,1,1064.716,1121.822Zm1.668,0c-.109-.451-.415-.792-.745-.792s-.466.332-.354.794.411.792.745.792S1066.494,1122.277,1066.383,1121.819Z" transform="translate(-1053.03 -1096.672)" fill="#2f539b"/>
      <path id="Trazado_107429" data-name="Trazado 107429" d="M1084.3,1121.211l-.413.107-.223-.448.671-.214h.377l.607,2.506h-.546Z" transform="translate(-1069.017 -1096.775)" fill="#2f539b"/>
      <path id="Trazado_107430" data-name="Trazado 107430" d="M1037.736,1161.014l-.413.108-.223-.448.671-.215h.377l.607,2.506h-.546Z" transform="translate(-1029.831 -1130.272)" fill="#2f539b"/>
      <path id="Trazado_107431" data-name="Trazado 107431" d="M1053.238,1161.566c-.175-.722.141-1.288.81-1.289a1.573,1.573,0,0,1,1.426,1.285c.175.721-.138,1.287-.81,1.289A1.566,1.566,0,0,1,1053.238,1161.566Zm1.668,0c-.109-.452-.415-.792-.745-.792s-.466.331-.354.794.411.792.745.792S1055.016,1162.021,1054.905,1161.563Z" transform="translate(-1043.371 -1130.119)" fill="#2f539b"/>
      <path id="Trazado_107432" data-name="Trazado 107432" d="M1092.982,1249.577c-.175-.722.141-1.288.81-1.289a1.574,1.574,0,0,1,1.426,1.285c.175.722-.138,1.287-.81,1.289A1.566,1.566,0,0,1,1092.982,1249.577Zm1.668,0c-.109-.452-.415-.792-.745-.792s-.466.331-.354.794.411.792.745.792S1094.761,1250.032,1094.65,1249.574Z" transform="translate(-1076.818 -1204.184)" fill="#2f539b"/>
      <path id="Trazado_107433" data-name="Trazado 107433" d="M1112.567,1248.966l-.413.108-.223-.448.671-.214h.378l.607,2.506h-.546Z" transform="translate(-1092.804 -1204.287)" fill="#2f539b"/>
      <path id="Trazado_107434" data-name="Trazado 107434" d="M1056.388,1249.061l-.413.108-.223-.448.671-.214h.378l.607,2.506h-.547Z" transform="translate(-1045.527 -1204.367)" fill="#2f539b"/>
      <path id="Trazado_107435" data-name="Trazado 107435" d="M1071.89,1249.612c-.175-.722.141-1.288.81-1.289a1.573,1.573,0,0,1,1.425,1.285c.175.721-.138,1.287-.809,1.289A1.566,1.566,0,0,1,1071.89,1249.612Zm1.667,0c-.109-.452-.415-.792-.745-.792s-.466.332-.354.794.411.792.745.792S1073.668,1250.068,1073.557,1249.609Z" transform="translate(-1059.068 -1204.213)" fill="#2f539b"/>
      <path id="Trazado_107436" data-name="Trazado 107436" d="M1128.069,1249.517c-.175-.721.141-1.287.81-1.289a1.574,1.574,0,0,1,1.426,1.285c.174.722-.138,1.287-.81,1.289A1.567,1.567,0,0,1,1128.069,1249.517Zm1.668,0c-.109-.452-.415-.792-.745-.792s-.466.332-.354.794.411.792.745.792S1129.848,1249.973,1129.737,1249.514Z" transform="translate(-1106.345 -1204.133)" fill="#f99746"/>
      <path id="Trazado_107437" data-name="Trazado 107437" d="M1149.162,1249.482c-.175-.722.141-1.288.81-1.289a1.573,1.573,0,0,1,1.426,1.285c.175.721-.138,1.287-.81,1.289A1.566,1.566,0,0,1,1149.162,1249.482Zm1.668,0c-.109-.452-.415-.792-.746-.792s-.466.331-.354.794.411.792.745.792S1150.94,1249.937,1150.829,1249.479Z" transform="translate(-1124.095 -1204.104)" fill="#f99746"/>
      <path id="Trazado_107438" data-name="Trazado 107438" d="M1066.92,1277.9c-.175-.722.141-1.288.81-1.289a1.573,1.573,0,0,1,1.426,1.285c.175.721-.138,1.288-.81,1.289A1.567,1.567,0,0,1,1066.92,1277.9Zm1.668,0c-.109-.452-.415-.792-.745-.792s-.466.332-.354.794.411.792.745.792S1068.7,1278.354,1068.588,1277.9Z" transform="translate(-1054.886 -1228.018)" fill="#2f539b"/>
      <path id="Trazado_107439" data-name="Trazado 107439" d="M1086.505,1277.288l-.413.107-.223-.448.671-.215h.377l.607,2.506h-.546Z" transform="translate(-1070.872 -1228.121)" fill="#2f539b"/>
      <path id="Trazado_107440" data-name="Trazado 107440" d="M1102.008,1277.84c-.175-.722.141-1.287.81-1.289a1.573,1.573,0,0,1,1.426,1.285c.175.722-.137,1.287-.81,1.289A1.566,1.566,0,0,1,1102.008,1277.84Zm1.667,0c-.109-.452-.415-.792-.745-.792s-.466.332-.354.794.411.792.745.792S1103.786,1278.3,1103.675,1277.837Z" transform="translate(-1084.413 -1227.968)" fill="#2f539b"/>
      <path id="Trazado_107441" data-name="Trazado 107441" d="M1123.1,1277.8c-.175-.722.141-1.288.81-1.289a1.573,1.573,0,0,1,1.426,1.285c.175.722-.138,1.288-.81,1.289A1.566,1.566,0,0,1,1123.1,1277.8Zm1.667,0c-.109-.452-.415-.792-.745-.792s-.466.332-.354.794.411.792.745.792S1124.878,1278.26,1124.767,1277.8Z" transform="translate(-1102.163 -1227.939)" fill="#2f539b"/>
      <path id="Trazado_107442" data-name="Trazado 107442" d="M1731.1,1249.577c-.175-.722.141-1.288.81-1.289a1.573,1.573,0,0,1,1.426,1.285c.175.722-.138,1.287-.81,1.289A1.566,1.566,0,0,1,1731.1,1249.577Zm1.667,0c-.109-.452-.415-.792-.745-.792s-.466.331-.354.794.411.792.745.792S1732.876,1250.032,1732.765,1249.574Z" transform="translate(-1613.819 -1204.184)" fill="#2f539b"/>
      <path id="Trazado_107443" data-name="Trazado 107443" d="M1750.683,1248.966l-.413.108-.223-.448.671-.214h.377l.607,2.506h-.546Z" transform="translate(-1629.806 -1204.287)" fill="#2f539b"/>
      <path id="Trazado_107444" data-name="Trazado 107444" d="M1694.5,1249.061l-.413.108-.223-.448.671-.214h.377l.607,2.506h-.546Z" transform="translate(-1582.528 -1204.367)" fill="#2f539b"/>
      <path id="Trazado_107445" data-name="Trazado 107445" d="M1710,1249.612c-.175-.722.141-1.288.81-1.289a1.573,1.573,0,0,1,1.426,1.285c.175.721-.138,1.287-.81,1.289A1.566,1.566,0,0,1,1710,1249.612Zm1.668,0c-.109-.452-.415-.792-.746-.792s-.466.332-.354.794.411.792.745.792S1711.783,1250.068,1711.672,1249.609Z" transform="translate(-1596.068 -1204.213)" fill="#2f539b"/>
      <path id="Trazado_107446" data-name="Trazado 107446" d="M1766.185,1249.517c-.175-.721.141-1.287.81-1.289a1.573,1.573,0,0,1,1.426,1.285c.175.722-.137,1.287-.81,1.289A1.566,1.566,0,0,1,1766.185,1249.517Zm1.667,0c-.109-.452-.415-.792-.746-.792s-.466.332-.354.794.411.792.745.792S1767.964,1249.973,1767.853,1249.514Z" transform="translate(-1643.347 -1204.133)" fill="#f99746"/>
      <path id="Trazado_107447" data-name="Trazado 107447" d="M1787.277,1249.482c-.175-.722.141-1.288.81-1.289a1.573,1.573,0,0,1,1.426,1.285c.175.721-.138,1.287-.81,1.289A1.566,1.566,0,0,1,1787.277,1249.482Zm1.668,0c-.109-.452-.415-.792-.745-.792s-.466.331-.354.794.411.792.745.792S1789.056,1249.937,1788.945,1249.479Z" transform="translate(-1661.097 -1204.104)" fill="#f99746"/>
      <path id="Trazado_107448" data-name="Trazado 107448" d="M1646.743,1277.9c-.174-.722.141-1.288.81-1.289a1.573,1.573,0,0,1,1.426,1.285c.175.721-.138,1.288-.81,1.289A1.567,1.567,0,0,1,1646.743,1277.9Zm1.668,0c-.109-.452-.415-.792-.745-.792s-.466.332-.354.794.411.792.745.792S1648.522,1278.354,1648.411,1277.9Z" transform="translate(-1542.831 -1228.018)" fill="#2f539b"/>
      <path id="Trazado_107449" data-name="Trazado 107449" d="M1666.327,1277.288l-.413.107-.224-.448.671-.215h.377l.607,2.506h-.546Z" transform="translate(-1558.817 -1228.121)" fill="#2f539b"/>
      <path id="Trazado_107450" data-name="Trazado 107450" d="M1681.83,1277.84c-.175-.722.141-1.287.81-1.289a1.573,1.573,0,0,1,1.426,1.285c.174.722-.138,1.287-.81,1.289A1.566,1.566,0,0,1,1681.83,1277.84Zm1.668,0c-.109-.452-.415-.792-.745-.792s-.466.332-.354.794.411.792.745.792S1683.608,1278.3,1683.5,1277.837Z" transform="translate(-1572.358 -1227.968)" fill="#2f539b"/>
      <path id="Trazado_107451" data-name="Trazado 107451" d="M1702.922,1277.8c-.175-.722.141-1.288.81-1.289a1.573,1.573,0,0,1,1.426,1.285c.175.722-.138,1.288-.81,1.289A1.566,1.566,0,0,1,1702.922,1277.8Zm1.668,0c-.109-.452-.415-.792-.745-.792s-.466.332-.354.794.411.792.745.792S1704.7,1278.26,1704.589,1277.8Z" transform="translate(-1590.108 -1227.939)" fill="#2f539b"/>
      <path id="Trazado_107452" data-name="Trazado 107452" d="M1119.771,1352.025c-.175-.722.141-1.287.81-1.289a1.573,1.573,0,0,1,1.426,1.285c.175.721-.138,1.287-.81,1.289A1.566,1.566,0,0,1,1119.771,1352.025Zm1.668,0c-.109-.452-.415-.792-.745-.792s-.466.332-.354.794.411.792.745.792S1121.549,1352.48,1121.438,1352.022Z" transform="translate(-1099.362 -1290.398)" fill="#f99746"/>
      <path id="Trazado_107453" data-name="Trazado 107453" d="M1139.356,1351.415l-.413.107-.223-.448.671-.215h.378l.607,2.506h-.546Z" transform="translate(-1115.348 -1290.502)" fill="#f99746"/>
      <path id="Trazado_107454" data-name="Trazado 107454" d="M1073.562,1311.8l-.413.107-.223-.448.671-.215h.378l.607,2.506h-.546Z" transform="translate(-1059.98 -1257.165)" fill="#2f539b"/>
      <path id="Trazado_107455" data-name="Trazado 107455" d="M1089.063,1312.352c-.175-.722.141-1.288.81-1.288a1.573,1.573,0,0,1,1.426,1.285c.175.722-.138,1.288-.81,1.289A1.567,1.567,0,0,1,1089.063,1312.352Zm1.668,0c-.109-.452-.415-.792-.745-.792s-.467.331-.354.794.411.792.746.792S1090.842,1312.808,1090.73,1312.35Z" transform="translate(-1073.52 -1257.012)" fill="#2f539b"/>
      <path id="Trazado_107456" data-name="Trazado 107456" d="M1110.156,1312.316c-.175-.722.141-1.287.81-1.289a1.573,1.573,0,0,1,1.426,1.285c.175.722-.138,1.287-.81,1.289A1.567,1.567,0,0,1,1110.156,1312.316Zm1.667,0c-.109-.452-.415-.792-.745-.792s-.466.332-.354.793.411.792.746.792S1111.935,1312.771,1111.824,1312.313Z" transform="translate(-1091.271 -1256.981)" fill="#2f539b"/>
      <path id="Trazado_107457" data-name="Trazado 107457" d="M1129.741,1311.706l-.413.107-.223-.448.671-.215h.377l.607,2.506h-.546Z" transform="translate(-1107.257 -1257.085)" fill="#2f539b"/>
      <path id="Trazado_107458" data-name="Trazado 107458" d="M1691.009,1311.8l-.413.107-.223-.448.671-.215h.377l.607,2.506h-.546Z" transform="translate(-1579.588 -1257.165)" fill="#2f539b"/>
      <path id="Trazado_107459" data-name="Trazado 107459" d="M1706.51,1312.352c-.175-.722.141-1.288.81-1.288a1.573,1.573,0,0,1,1.426,1.285c.175.722-.138,1.288-.81,1.289A1.566,1.566,0,0,1,1706.51,1312.352Zm1.667,0c-.109-.452-.415-.792-.745-.792s-.466.331-.354.794.411.792.745.792S1708.289,1312.808,1708.178,1312.35Z" transform="translate(-1593.128 -1257.012)" fill="#2f539b"/>
      <path id="Trazado_107460" data-name="Trazado 107460" d="M1727.6,1312.316c-.175-.722.141-1.287.81-1.289a1.573,1.573,0,0,1,1.426,1.285c.175.722-.138,1.287-.81,1.289A1.567,1.567,0,0,1,1727.6,1312.316Zm1.668,0c-.109-.452-.415-.792-.745-.792s-.466.332-.354.793.411.792.745.792S1729.381,1312.771,1729.27,1312.313Z" transform="translate(-1610.878 -1256.981)" fill="#2f539b"/>
      <path id="Trazado_107461" data-name="Trazado 107461" d="M1747.188,1311.706l-.413.107-.224-.448.671-.215h.377l.607,2.506h-.546Z" transform="translate(-1626.865 -1257.085)" fill="#2f539b"/>
      <path id="Trazado_107462" data-name="Trazado 107462" d="M1083.177,1351.51l-.413.107-.223-.448.671-.214h.377l.607,2.506h-.546Z" transform="translate(-1068.071 -1290.582)" fill="#2f539b"/>
      <path id="Trazado_107463" data-name="Trazado 107463" d="M1098.678,1352.061c-.175-.722.141-1.288.81-1.289a1.573,1.573,0,0,1,1.426,1.285c.175.722-.138,1.288-.81,1.289A1.566,1.566,0,0,1,1098.678,1352.061Zm1.668,0c-.109-.451-.415-.792-.745-.792s-.466.331-.354.793.411.792.745.792S1100.456,1352.516,1100.345,1352.058Z" transform="translate(-1081.611 -1290.428)" fill="#2f539b"/>
      <path id="Trazado_107464" data-name="Trazado 107464" d="M1154.858,1351.967c-.175-.722.141-1.287.81-1.289a1.573,1.573,0,0,1,1.426,1.285c.175.722-.138,1.287-.81,1.288A1.566,1.566,0,0,1,1154.858,1351.967Zm1.668,0c-.109-.452-.415-.792-.745-.792s-.466.331-.354.794.411.792.745.792S1156.636,1352.422,1156.525,1351.964Z" transform="translate(-1128.889 -1290.349)" fill="#2f539b"/>
      <path id="Trazado_107465" data-name="Trazado 107465" d="M1175.95,1351.931c-.175-.722.141-1.287.81-1.288a1.573,1.573,0,0,1,1.426,1.285c.175.722-.138,1.287-.81,1.289A1.566,1.566,0,0,1,1175.95,1351.931Zm1.668,0c-.109-.451-.415-.792-.745-.792s-.466.332-.354.794.411.792.745.792S1177.729,1352.387,1177.618,1351.929Z" transform="translate(-1146.639 -1290.32)" fill="#2f539b"/>
      <path id="Trazado_107466" data-name="Trazado 107466" d="M1127.9,1380.061c-.175-.721.141-1.288.81-1.289a1.573,1.573,0,0,1,1.426,1.285c.175.721-.138,1.287-.81,1.288A1.567,1.567,0,0,1,1127.9,1380.061Zm1.668,0c-.109-.451-.415-.792-.745-.792s-.466.331-.354.793.411.792.745.792S1129.682,1380.516,1129.571,1380.058Z" transform="translate(-1106.206 -1313.992)" fill="#f99746"/>
      <path id="Trazado_107467" data-name="Trazado 107467" d="M1147.489,1379.451l-.413.108-.223-.448.671-.215h.378l.607,2.506h-.546Z" transform="translate(-1122.192 -1314.096)" fill="#f99746"/>
      <path id="Trazado_107468" data-name="Trazado 107468" d="M1106.811,1380.1c-.175-.722.141-1.288.81-1.289a1.573,1.573,0,0,1,1.426,1.285c.175.722-.138,1.288-.81,1.289A1.566,1.566,0,0,1,1106.811,1380.1Zm1.668,0c-.109-.452-.415-.792-.745-.792s-.466.332-.354.794.411.792.746.792S1108.59,1380.553,1108.479,1380.095Z" transform="translate(-1088.456 -1314.023)" fill="#2f539b"/>
      <path id="Trazado_107469" data-name="Trazado 107469" d="M1162.991,1380c-.175-.722.141-1.288.81-1.289a1.573,1.573,0,0,1,1.426,1.285c.175.722-.138,1.288-.81,1.289A1.566,1.566,0,0,1,1162.991,1380Zm1.667,0c-.109-.452-.415-.792-.745-.792s-.466.331-.354.794.411.792.746.792S1164.77,1380.458,1164.659,1380Z" transform="translate(-1135.733 -1313.943)" fill="#2f539b"/>
      <path id="Trazado_107470" data-name="Trazado 107470" d="M1184.083,1379.967c-.175-.722.141-1.287.81-1.289a1.573,1.573,0,0,1,1.426,1.285c.175.721-.138,1.287-.809,1.289A1.567,1.567,0,0,1,1184.083,1379.967Zm1.668,0c-.109-.452-.415-.792-.745-.792s-.466.332-.354.794.411.792.745.792S1185.862,1380.422,1185.75,1379.964Z" transform="translate(-1153.483 -1313.912)" fill="#2f539b"/>
      <path id="Trazado_107471" data-name="Trazado 107471" d="M1256.659,1380.061c-.175-.721.141-1.288.81-1.289a1.573,1.573,0,0,1,1.426,1.285c.175.721-.138,1.287-.81,1.288A1.566,1.566,0,0,1,1256.659,1380.061Zm1.667,0c-.109-.451-.415-.792-.745-.792s-.466.331-.354.793.411.792.745.792S1258.438,1380.516,1258.327,1380.058Z" transform="translate(-1214.559 -1313.992)" fill="#f99746"/>
      <path id="Trazado_107472" data-name="Trazado 107472" d="M1276.244,1379.451l-.413.108-.223-.448.671-.215h.378l.607,2.506h-.546Z" transform="translate(-1230.545 -1314.096)" fill="#f99746"/>
      <path id="Trazado_107473" data-name="Trazado 107473" d="M1235.566,1380.1c-.175-.722.141-1.288.81-1.289a1.573,1.573,0,0,1,1.426,1.285c.175.722-.138,1.288-.81,1.289A1.567,1.567,0,0,1,1235.566,1380.1Zm1.668,0c-.109-.452-.415-.792-.745-.792s-.466.332-.354.794.411.792.746.792S1237.345,1380.553,1237.234,1380.095Z" transform="translate(-1196.808 -1314.023)" fill="#2f539b"/>
      <path id="Trazado_107474" data-name="Trazado 107474" d="M1291.746,1380c-.175-.722.141-1.288.81-1.289a1.573,1.573,0,0,1,1.426,1.285c.175.722-.138,1.288-.81,1.289A1.566,1.566,0,0,1,1291.746,1380Zm1.667,0c-.109-.452-.415-.792-.745-.792s-.466.331-.354.794.411.792.745.792S1293.525,1380.458,1293.414,1380Z" transform="translate(-1244.086 -1313.943)" fill="#2f539b"/>
      <path id="Trazado_107475" data-name="Trazado 107475" d="M1312.839,1379.967c-.175-.722.141-1.287.81-1.289a1.573,1.573,0,0,1,1.426,1.285c.175.721-.138,1.287-.81,1.289A1.566,1.566,0,0,1,1312.839,1379.967Zm1.668,0c-.109-.452-.415-.792-.745-.792s-.466.332-.354.794.411.792.745.792S1314.617,1380.422,1314.506,1379.964Z" transform="translate(-1261.836 -1313.912)" fill="#2f539b"/>
      <path id="Trazado_107476" data-name="Trazado 107476" d="M1549.792,1380.061c-.175-.721.141-1.288.81-1.289a1.573,1.573,0,0,1,1.426,1.285c.175.721-.137,1.287-.81,1.288A1.566,1.566,0,0,1,1549.792,1380.061Zm1.667,0c-.109-.451-.415-.792-.745-.792s-.466.331-.354.793.411.792.745.792S1551.57,1380.516,1551.459,1380.058Z" transform="translate(-1461.243 -1313.992)" fill="#f99746"/>
      <path id="Trazado_107477" data-name="Trazado 107477" d="M1569.376,1379.451l-.413.108-.223-.448.671-.215h.377l.607,2.506h-.547Z" transform="translate(-1477.228 -1314.096)" fill="#f99746"/>
      <path id="Trazado_107478" data-name="Trazado 107478" d="M1528.7,1380.1c-.175-.722.141-1.288.81-1.289a1.573,1.573,0,0,1,1.426,1.285c.174.722-.138,1.288-.81,1.289A1.567,1.567,0,0,1,1528.7,1380.1Zm1.668,0c-.109-.452-.415-.792-.745-.792s-.466.332-.354.794.411.792.745.792S1530.478,1380.553,1530.367,1380.095Z" transform="translate(-1443.492 -1314.023)" fill="#2f539b"/>
      <path id="Trazado_107479" data-name="Trazado 107479" d="M1584.879,1380c-.175-.722.141-1.288.81-1.289a1.573,1.573,0,0,1,1.426,1.285c.175.722-.138,1.288-.81,1.289A1.566,1.566,0,0,1,1584.879,1380Zm1.667,0c-.109-.452-.415-.792-.745-.792s-.466.331-.354.794.411.792.745.792S1586.657,1380.458,1586.546,1380Z" transform="translate(-1490.77 -1313.943)" fill="#2f539b"/>
      <path id="Trazado_107480" data-name="Trazado 107480" d="M1605.971,1379.967c-.175-.722.141-1.287.81-1.289a1.573,1.573,0,0,1,1.426,1.285c.175.721-.138,1.287-.81,1.289A1.566,1.566,0,0,1,1605.971,1379.967Zm1.668,0c-.109-.452-.415-.792-.745-.792s-.466.332-.354.794.411.792.745.792S1607.749,1380.422,1607.638,1379.964Z" transform="translate(-1508.519 -1313.912)" fill="#2f539b"/>
      <path id="Trazado_107481" data-name="Trazado 107481" d="M1678.547,1380.061c-.175-.721.141-1.288.81-1.289a1.574,1.574,0,0,1,1.426,1.285c.175.721-.138,1.287-.81,1.288A1.566,1.566,0,0,1,1678.547,1380.061Zm1.667,0c-.109-.451-.415-.792-.745-.792s-.466.331-.354.793.411.792.745.792S1680.325,1380.516,1680.214,1380.058Z" transform="translate(-1569.595 -1313.992)" fill="#f99746"/>
      <path id="Trazado_107482" data-name="Trazado 107482" d="M1698.132,1379.451l-.412.108-.224-.448.671-.215h.377l.607,2.506h-.546Z" transform="translate(-1585.582 -1314.096)" fill="#f99746"/>
      <path id="Trazado_107483" data-name="Trazado 107483" d="M1657.454,1380.1c-.174-.722.141-1.288.81-1.289a1.573,1.573,0,0,1,1.426,1.285c.175.722-.138,1.288-.81,1.289A1.567,1.567,0,0,1,1657.454,1380.1Zm1.668,0c-.109-.452-.415-.792-.745-.792s-.466.332-.354.794.411.792.746.792S1659.233,1380.553,1659.122,1380.095Z" transform="translate(-1551.845 -1314.023)" fill="#2f539b"/>
      <path id="Trazado_107484" data-name="Trazado 107484" d="M1713.634,1380c-.175-.722.141-1.288.81-1.289a1.573,1.573,0,0,1,1.426,1.285c.175.722-.138,1.288-.81,1.289A1.567,1.567,0,0,1,1713.634,1380Zm1.668,0c-.109-.452-.415-.792-.745-.792s-.466.331-.354.794.411.792.745.792S1715.412,1380.458,1715.3,1380Z" transform="translate(-1599.122 -1313.943)" fill="#2f539b"/>
      <path id="Trazado_107485" data-name="Trazado 107485" d="M1734.727,1379.967c-.175-.722.141-1.287.81-1.289a1.573,1.573,0,0,1,1.426,1.285c.175.721-.137,1.287-.81,1.289A1.566,1.566,0,0,1,1734.727,1379.967Zm1.668,0c-.109-.452-.415-.792-.745-.792s-.466.332-.354.794.411.792.746.792S1736.505,1380.422,1736.394,1379.964Z" transform="translate(-1616.873 -1313.912)" fill="#2f539b"/>
      <path id="Trazado_107486" data-name="Trazado 107486" d="M1197.043,1351.895c-.175-.722.141-1.288.81-1.289a1.573,1.573,0,0,1,1.426,1.285c.175.722-.138,1.287-.81,1.289A1.567,1.567,0,0,1,1197.043,1351.895Zm1.667,0c-.109-.452-.415-.792-.745-.792s-.467.331-.354.794.411.792.745.792S1198.822,1352.351,1198.71,1351.892Z" transform="translate(-1164.389 -1290.289)" fill="#2f539b"/>
      <path id="Trazado_107487" data-name="Trazado 107487" d="M1218.136,1351.86c-.175-.722.141-1.288.81-1.289a1.573,1.573,0,0,1,1.426,1.285c.175.721-.138,1.288-.81,1.289A1.566,1.566,0,0,1,1218.136,1351.86Zm1.667,0c-.109-.451-.415-.792-.745-.792s-.466.331-.354.793.411.792.745.792S1219.914,1352.315,1219.8,1351.857Z" transform="translate(-1182.14 -1290.259)" fill="#2f539b"/>
      <path id="Trazado_107488" data-name="Trazado 107488" d="M1603.718,1351.895c-.175-.722.141-1.288.81-1.289a1.574,1.574,0,0,1,1.426,1.285c.175.722-.138,1.287-.81,1.289A1.567,1.567,0,0,1,1603.718,1351.895Zm1.667,0c-.109-.452-.415-.792-.745-.792s-.466.331-.354.794.411.792.745.792S1605.5,1352.351,1605.386,1351.892Z" transform="translate(-1506.624 -1290.289)" fill="#2f539b"/>
      <path id="Trazado_107489" data-name="Trazado 107489" d="M1624.812,1351.86c-.175-.722.141-1.288.809-1.289a1.573,1.573,0,0,1,1.426,1.285c.175.721-.137,1.288-.81,1.289A1.566,1.566,0,0,1,1624.812,1351.86Zm1.667,0c-.109-.451-.415-.792-.745-.792s-.466.331-.354.793.411.792.745.792S1626.59,1352.315,1626.479,1351.857Z" transform="translate(-1524.375 -1290.259)" fill="#2f539b"/>
    </g>
  </g>
</svg>
