<svg xmlns="http://www.w3.org/2000/svg" width="435.58" height="514" viewBox="0 0 435.58 514">
  <g id="Grupo_61473" data-name="Grupo 61473" transform="translate(-217.711 -3513)">
    <rect id="Rectángulo_5823" data-name="Rectángulo 5823" width="261" height="514" rx="31" transform="translate(305 3513)" fill="#ffee58" opacity="0.25"/>
    <g id="Grupo_57042" data-name="Grupo 57042" transform="translate(188.482 3604.35)">
      <g id="Background_Complete" data-name="Background Complete" transform="translate(45.015 40.683)">
        <g id="Grupo_56753" data-name="Grupo 56753" transform="translate(206.837 275.71)">
          <g id="Grupo_56727" data-name="Grupo 56727" opacity="0.66">
            <g id="Grupo_56726" data-name="Grupo 56726">
              <g id="Grupo_56725" data-name="Grupo 56725">
                <g id="Grupo_56724" data-name="Grupo 56724">
                  <path id="Trazado_103784" data-name="Trazado 103784" d="M275.767,450.727c-15.547-7.361-21.75-24.857-23.942-41.157-.366-2.721-1.146-5.523-.261-8.113s3.614-4.722,6.229-3.991c2.17.605,3.441,2.795,4.891,4.537a16.049,16.049,0,0,0,7.37,4.987c1.874.6,4.1.788,5.639-.437,2.116-1.682,1.846-4.952,1.374-7.641q-1.321-7.515-2.638-15.028a25.406,25.406,0,0,1-.54-8.129c.405-2.7,1.853-5.381,4.29-6.53s5.854-.21,6.84,2.332a25.226,25.226,0,0,1,.643,3.338,2.87,2.87,0,0,0,2.106,2.383c1.127.134,2.075-.811,2.746-1.735,2.318-3.186,3.61-7,4.783-10.783s2.279-7.631,4.3-11.02,5.107-6.327,8.923-7.2,8.326.814,9.938,4.432.057,7.851-1.832,11.329a60.917,60.917,0,0,1-10.489,14.035,5.017,5.017,0,0,0-1.711,2.6c-.281,1.893,1.72,3.387,3.591,3.676,2.118.329,4.26-.247,6.4-.355s4.569.433,5.7,2.281c1.568,2.564-.245,5.836-2.188,8.106a52.183,52.183,0,0,1-13.74,11.365c-1.856,1.059-3.832,2.047-5.193,3.708s-1.915,4.243-.63,5.974,3.863,1.922,5.872,1.186,3.672-2.174,5.523-3.254c3.461-2.021,8.279-2.574,11.189.221a8.636,8.636,0,0,1,2.179,7.376,19.907,19.907,0,0,1-2.953,7.339A52.467,52.467,0,0,1,300.7,445.827c-8.074,4.426-15.886,6.575-24.938,4.9" transform="translate(-251.157 -346.316)" fill="#ffc571"/>
                </g>
              </g>
            </g>
          </g>
          <g id="Grupo_56732" data-name="Grupo 56732" transform="translate(27.075 1.624)">
            <g id="Grupo_56731" data-name="Grupo 56731">
              <g id="Grupo_56730" data-name="Grupo 56730">
                <g id="Grupo_56729" data-name="Grupo 56729">
                  <g id="Grupo_56728" data-name="Grupo 56728">
                    <path id="Trazado_103785" data-name="Trazado 103785" d="M281.17,440.035a244.708,244.708,0,0,1,5.179-27.576q.875-3.625,1.729-7.158c.573-2.348,1.14-4.677,1.837-6.921a122.333,122.333,0,0,1,4.74-12.662c1.7-3.955,3.462-7.645,5.132-11.084s3.3-6.611,4.908-9.439a96.819,96.819,0,0,1,8.556-12.776c1.124-1.424,2.033-2.5,2.658-3.22.3-.343.538-.613.716-.816a2.128,2.128,0,0,1,.257-.266,1.964,1.964,0,0,1-.217.3l-.678.847c-.6.742-1.483,1.838-2.583,3.277a102.507,102.507,0,0,0-8.4,12.831c-1.58,2.833-3.183,6.008-4.842,9.448s-3.4,7.136-5.083,11.085a123.724,123.724,0,0,0-4.693,12.623c-.689,2.232-1.249,4.54-1.822,6.895l-1.726,7.155a250.637,250.637,0,0,0-5.209,27.515" transform="translate(-281.17 -348.117)" fill="#ff9800"/>
                  </g>
                </g>
              </g>
            </g>
          </g>
          <g id="Grupo_56737" data-name="Grupo 56737" transform="translate(27.017 22.907)">
            <g id="Grupo_56736" data-name="Grupo 56736">
              <g id="Grupo_56735" data-name="Grupo 56735">
                <g id="Grupo_56734" data-name="Grupo 56734">
                  <g id="Grupo_56733" data-name="Grupo 56733">
                    <path id="Trazado_103786" data-name="Trazado 103786" d="M290.048,400.647a5.554,5.554,0,0,1-.457-1.1c-.267-.72-.619-1.773-1.035-3.081-.834-2.615-1.862-6.265-2.98-10.293s-2.2-7.656-3.067-10.251c-.432-1.3-.792-2.346-1.05-3.067a5.539,5.539,0,0,1-.348-1.142,5.323,5.323,0,0,1,.53,1.07c.315.7.727,1.733,1.2,3.02.961,2.574,2.1,6.2,3.215,10.232L288.9,396.36c.348,1.24.644,2.285.88,3.123A5.464,5.464,0,0,1,290.048,400.647Z" transform="translate(-281.106 -371.71)" fill="#ff9800"/>
                  </g>
                </g>
              </g>
            </g>
          </g>
          <g id="Grupo_56742" data-name="Grupo 56742" transform="translate(35.958 39.519)">
            <g id="Grupo_56741" data-name="Grupo 56741">
              <g id="Grupo_56740" data-name="Grupo 56740">
                <g id="Grupo_56739" data-name="Grupo 56739">
                  <g id="Grupo_56738" data-name="Grupo 56738">
                    <path id="Trazado_103787" data-name="Trazado 103787" d="M324.517,390.132a7.545,7.545,0,0,1-1.352.4c-.874.229-2.141.554-3.693,1.006-3.11.878-7.365,2.241-11.992,3.95s-8.747,3.451-11.69,4.791c-1.478.659-2.659,1.226-3.478,1.612a7.5,7.5,0,0,1-1.294.559,7.475,7.475,0,0,1,1.205-.736c.793-.44,1.953-1.057,3.415-1.761,2.914-1.427,7.027-3.219,11.667-4.943a123.7,123.7,0,0,1,12.074-3.82c1.57-.408,2.852-.681,3.744-.851A7.555,7.555,0,0,1,324.517,390.132Z" transform="translate(-291.017 -390.124)" fill="#ff9800"/>
                  </g>
                </g>
              </g>
            </g>
          </g>
          <g id="Grupo_56747" data-name="Grupo 56747" transform="translate(2.5 51.598)">
            <g id="Grupo_56746" data-name="Grupo 56746">
              <g id="Grupo_56745" data-name="Grupo 56745">
                <g id="Grupo_56744" data-name="Grupo 56744">
                  <g id="Grupo_56743" data-name="Grupo 56743">
                    <path id="Trazado_103788" data-name="Trazado 103788" d="M278.82,444.751a1.8,1.8,0,0,1-.309-.382l-.8-1.152c-.693-1-1.658-2.48-2.826-4.321-2.34-3.681-5.412-8.867-8.723-14.635s-6.333-10.978-8.592-14.7l-2.689-4.4-.725-1.2a1.794,1.794,0,0,1-.224-.439,1.884,1.884,0,0,1,.308.383c.217.311.483.69.8,1.15.694,1,1.659,2.481,2.827,4.321,2.339,3.681,5.411,8.867,8.724,14.637s6.331,10.975,8.591,14.7c1.105,1.809,2.013,3.3,2.688,4.4l.725,1.2A1.794,1.794,0,0,1,278.82,444.751Z" transform="translate(-253.928 -403.515)" fill="#e0e0e0"/>
                  </g>
                </g>
              </g>
            </g>
          </g>
          <g id="Grupo_56752" data-name="Grupo 56752" transform="translate(27.392 70.24)">
            <g id="Grupo_56751" data-name="Grupo 56751">
              <g id="Grupo_56750" data-name="Grupo 56750">
                <g id="Grupo_56749" data-name="Grupo 56749">
                  <g id="Grupo_56748" data-name="Grupo 56748">
                    <path id="Trazado_103789" data-name="Trazado 103789" d="M324.985,424.182a1.858,1.858,0,0,1-.425.265l-1.259.673-4.652,2.428c-3.929,2.052-9.321,4.946-15.276,8.153s-11.382,6.057-15.354,8.027c-1.986.986-3.6,1.767-4.727,2.284l-1.3.588a1.826,1.826,0,0,1-.469.173,1.926,1.926,0,0,1,.425-.266l1.259-.672,4.652-2.428c3.928-2.05,9.321-4.946,15.278-8.154s11.379-6.056,15.351-8.026c1.985-.986,3.6-1.767,4.728-2.284l1.3-.588A1.86,1.86,0,0,1,324.985,424.182Z" transform="translate(-281.522 -424.179)" fill="#ff9800"/>
                  </g>
                </g>
              </g>
            </g>
          </g>
        </g>
        <g id="Grupo_56777" data-name="Grupo 56777" transform="translate(92.845 186.242)">
          <g id="Grupo_56755" data-name="Grupo 56755" opacity="0.49">
            <g id="Grupo_56754" data-name="Grupo 56754">
              <path id="Trazado_103790" data-name="Trazado 103790" d="M151.845,247.384s-10.719,1.489-4.7,24.965,11.121,35.574,11.121,35.574.809,5.317-3.478,5.153-13.025-3.644-15.99.981c-3.075,4.8-.387,10.577,6.336,16.627s20.966,19.846,22.248,21.1c1.26,1.229,2.216,3.834-.723,4.189s-23.8-2.093-24.371,7.877,20.929,23.747,23.25,25.3,2.687,2.765,2.167,4.114-7.455-.135-13.418-.589-12.956.066-12.8,5.846,11.44,20.384,44.373,31.243l15.589,4.032,11.524-11.348c23.182-25.789,25.72-44.071,22.981-49.163s-9.065-2.067-14.014,1.29-10.23,8.09-11.351,7.179-1.408-2.147-.164-4.647,13.053-25.138,7.6-33.507-22.337,4.124-25.063,5.276-3.192-1.584-2.709-3.276c.491-1.725,6-20.774,8.823-29.365s2.289-14.942-2.763-17.576c-4.871-2.541-10.726,4.822-14.363,7.094S176.374,303,176.374,303s-1.583-13.035-8.027-36.4-16.718-19.177-16.718-19.177" transform="translate(-137.532 -247.138)" fill="#ffc571"/>
            </g>
          </g>
          <g id="Grupo_56758" data-name="Grupo 56758" transform="translate(19.666 21.279)">
            <g id="Grupo_56757" data-name="Grupo 56757">
              <g id="Grupo_56756" data-name="Grupo 56756">
                <path id="Trazado_103791" data-name="Trazado 103791" d="M203.566,439.977C198.9,422.8,191.125,392.135,184.31,365.84s-13-50.077-17.579-67.276c-2.293-8.582-4.151-15.533-5.441-20.361l-1.476-5.537c-.159-.62-.282-1.1-.372-1.444-.081-.326-.11-.5-.11-.5s.062.161.16.483c.1.342.239.817.419,1.431.364,1.281.89,3.135,1.566,5.513,1.355,4.789,3.266,11.733,5.6,20.321,4.665,17.176,10.909,40.956,17.721,67.241s14.537,56.973,19.115,74.17" transform="translate(-159.332 -270.726)" fill="#ff9800"/>
              </g>
            </g>
          </g>
          <g id="Grupo_56761" data-name="Grupo 56761" transform="translate(13.293 72.277)">
            <g id="Grupo_56760" data-name="Grupo 56760">
              <g id="Grupo_56759" data-name="Grupo 56759">
                <path id="Trazado_103792" data-name="Trazado 103792" d="M152.269,327.262a5.242,5.242,0,0,1,1.027.55c.646.38,1.562.956,2.688,1.679,2.25,1.45,5.305,3.531,8.635,5.888l8.5,6.066,2.586,1.82a5.256,5.256,0,0,1,.926.707,5.165,5.165,0,0,1-1.031-.543c-.644-.382-1.562-.958-2.681-1.692-2.234-1.472-5.262-3.593-8.592-5.95l-8.543-6-2.6-1.809A5.247,5.247,0,0,1,152.269,327.262Z" transform="translate(-152.268 -327.259)" fill="#ff9800"/>
              </g>
            </g>
          </g>
          <g id="Grupo_56764" data-name="Grupo 56764" transform="translate(38.955 59.515)">
            <g id="Grupo_56763" data-name="Grupo 56763">
              <g id="Grupo_56762" data-name="Grupo 56762">
                <path id="Trazado_103793" data-name="Trazado 103793" d="M180.718,341.825c-.116-.075,3.9-6.563,8.961-14.49s9.268-14.3,9.385-14.222-3.9,6.561-8.963,14.491S180.834,341.9,180.718,341.825Z" transform="translate(-180.715 -313.112)" fill="#ff9800"/>
              </g>
            </g>
          </g>
          <g id="Grupo_56767" data-name="Grupo 56767" transform="translate(47.599 108.31)">
            <g id="Grupo_56766" data-name="Grupo 56766">
              <g id="Grupo_56765" data-name="Grupo 56765">
                <path id="Trazado_103794" data-name="Trazado 103794" d="M190.3,387.964a5.405,5.405,0,0,1,.855-.826l2.432-2.128c2.05-1.8,4.871-4.3,7.883-7.164s5.661-5.549,7.558-7.508l2.25-2.32a5.492,5.492,0,0,1,.868-.813,5.358,5.358,0,0,1-.723.944c-.492.585-1.217,1.42-2.136,2.43-1.834,2.025-4.444,4.759-7.471,7.629s-5.887,5.339-8,7.072c-1.06.862-1.925,1.551-2.537,2.009A5.411,5.411,0,0,1,190.3,387.964Z" transform="translate(-190.297 -367.203)" fill="#ff9800"/>
              </g>
            </g>
          </g>
          <g id="Grupo_56770" data-name="Grupo 56770" transform="translate(21.212 119.749)">
            <g id="Grupo_56769" data-name="Grupo 56769">
              <g id="Grupo_56768" data-name="Grupo 56768">
                <path id="Trazado_103795" data-name="Trazado 103795" d="M161.047,379.889a4.684,4.684,0,0,1,1.068.259l2.854.884c2.4.766,5.712,1.857,9.357,3.092s6.937,2.379,9.311,3.231l2.8,1.033a4.718,4.718,0,0,1,1.007.444,4.683,4.683,0,0,1-1.069-.259l-2.854-.883c-2.4-.766-5.712-1.857-9.358-3.092s-6.935-2.379-9.311-3.231l-2.8-1.034A4.615,4.615,0,0,1,161.047,379.889Z" transform="translate(-161.047 -379.883)" fill="#ff9800"/>
              </g>
            </g>
          </g>
          <g id="Grupo_56773" data-name="Grupo 56773" transform="translate(24.261 156.777)">
            <g id="Grupo_56772" data-name="Grupo 56772">
              <g id="Grupo_56771" data-name="Grupo 56771">
                <path id="Trazado_103796" data-name="Trazado 103796" d="M164.426,420.935a7.456,7.456,0,0,1,1.364.345l3.663,1.119c3.085.964,7.337,2.33,12.023,3.867s8.923,2.957,11.98,4.008l3.613,1.268a7.588,7.588,0,0,1,1.3.531,7.671,7.671,0,0,1-1.364-.345l-3.663-1.119c-3.085-.964-7.338-2.33-12.026-3.868s-8.92-2.956-11.978-4.007l-3.612-1.268A7.589,7.589,0,0,1,164.426,420.935Z" transform="translate(-164.426 -420.93)" fill="#ff9800"/>
              </g>
            </g>
          </g>
          <g id="Grupo_56776" data-name="Grupo 56776" transform="translate(57.469 140.335)">
            <g id="Grupo_56775" data-name="Grupo 56775">
              <g id="Grupo_56774" data-name="Grupo 56774">
                <path id="Trazado_103797" data-name="Trazado 103797" d="M201.239,429.794a8.619,8.619,0,0,1,1.057-1.074l2.986-2.809c2.519-2.374,5.984-5.667,9.707-9.41s7.016-7.21,9.377-9.741l2.8-2.995a8.8,8.8,0,0,1,1.069-1.061,8.618,8.618,0,0,1-.924,1.19c-.62.745-1.533,1.809-2.684,3.1-2.3,2.594-5.549,6.111-9.285,9.855s-7.24,7.008-9.822,9.318c-1.295,1.151-2.351,2.073-3.1,2.693A8.745,8.745,0,0,1,201.239,429.794Z" transform="translate(-201.238 -402.703)" fill="#e0e0e0"/>
              </g>
            </g>
          </g>
        </g>
        <g id="Grupo_56778" data-name="Grupo 56778" transform="translate(15.636 0)">
          <path id="Trazado_103798" data-name="Trazado 103798" d="M98.1,88.534l-8.8-2.747S87,93.179,79.272,90.915a7.461,7.461,0,0,1-5.48-6.7,8.264,8.264,0,0,1,2.852-6.934c2.262-2,6.232-3.213,11.838-.317l6.193-19.85L85.969,54.4,82.342,66.027s-13.193-.653-17.392,12.8c-4.016,12.874,6.6,19.465,11.538,21.006C80.267,101.014,93.425,104.117,98.1,88.534Z" transform="translate(-64.062 -42.026)" fill="#f5f5f5"/>
          <rect id="Rectángulo_5777" data-name="Rectángulo 5777" width="9.254" height="8.643" transform="matrix(-0.955, -0.298, 0.298, -0.955, 31.913, 11.007)" fill="#f5f5f5"/>
        </g>
        <g id="Grupo_56779" data-name="Grupo 56779" transform="translate(81.151 15.545)">
          <path id="Trazado_103799" data-name="Trazado 103799" d="M128.7,66.467l3.525-.929a3.1,3.1,0,0,1,2.281-3.825,2.95,2.95,0,0,1,3.243,1.092,3.267,3.267,0,0,1,.5,2.921c-.337,1.144-1.412,2.385-3.9,2.594l2.1,7.949,3.486-.92L138.7,70.693a7.042,7.042,0,0,0,3.135-7.942c-1.36-5.155-6.3-5.133-8.278-4.611C132.048,58.54,126.99,60.266,128.7,66.467Z" transform="translate(-128.349 -57.916)" fill="#ffc571"/>
          <rect id="Rectángulo_5778" data-name="Rectángulo 5778" width="3.659" height="3.417" transform="matrix(0.967, -0.255, 0.255, 0.967, 8.52, 19.993)" fill="#ffc571"/>
        </g>
        <g id="Grupo_56780" data-name="Grupo 56780" transform="translate(401.492 110.775)">
          <path id="Trazado_103800" data-name="Trazado 103800" d="M451.543,168.1l3.428,1.241a3.1,3.1,0,0,1,4.053-1.846,2.947,2.947,0,0,1,2.044,2.743,3.268,3.268,0,0,1-1.249,2.688c-.929.748-2.519,1.157-4.681-.087l-2.8,7.729,3.389,1.228,1.64-4.527a7.042,7.042,0,0,0,7.1-4.746c1.816-5.013-2.258-7.806-4.182-8.5C458.811,163.494,453.669,162.033,451.543,168.1Z" transform="translate(-450.587 -163.481)" fill="#ffc571"/>
          <rect id="Rectángulo_5779" data-name="Rectángulo 5779" width="3.659" height="3.417" transform="translate(1.164 18.682) rotate(19.914)" fill="#ffc571"/>
        </g>
        <g id="Grupo_56781" data-name="Grupo 56781" transform="translate(0 134.852)">
          <path id="Trazado_103801" data-name="Trazado 103801" d="M48.106,209.979l7.256-2.795s-2.347-6.091,3.941-8.639a6.291,6.291,0,0,1,7.128,1.557,6.968,6.968,0,0,1,1.747,6.075c-.449,2.5-2.436,5.386-7.656,6.408l6.3,16.359L74,226.179,70.305,216.6s9.06-6.477,4.788-17.565c-4.087-10.609-14.55-9.407-18.623-7.838C53.357,192.394,43.038,197.233,48.106,209.979Z" transform="translate(-46.729 -190.171)" fill="#f5f5f5"/>
          <rect id="Rectángulo_5780" data-name="Rectángulo 5780" width="7.802" height="7.287" transform="matrix(0.933, -0.359, 0.359, 0.933, 21.373, 42.15)" fill="#f5f5f5"/>
        </g>
        <g id="Grupo_56782" data-name="Grupo 56782" transform="translate(384.083 161.533)">
          <path id="Trazado_103802" data-name="Trazado 103802" d="M452.506,241.181l-5.141,1.98a4.683,4.683,0,0,1-2.794,6.123,4.458,4.458,0,0,1-5.051-1.1,4.938,4.938,0,0,1-1.239-4.3c.318-1.773,1.726-3.817,5.426-4.541l-4.466-11.592-5.083,1.958,2.616,6.79a10.638,10.638,0,0,0-3.393,12.447c2.9,7.518,10.311,6.666,13.2,5.555C448.785,253.642,456.1,250.212,452.506,241.181Z" transform="translate(-431.321 -220.53)" fill="#f5f5f5"/>
          <rect id="Rectángulo_5781" data-name="Rectángulo 5781" width="5.529" height="5.164" transform="translate(7.016 4.819) rotate(158.931)" fill="#f5f5f5"/>
        </g>
      </g>
      <g id="Floor" transform="translate(29.229 422.115)">
        <g id="Grupo_56783" data-name="Grupo 56783">
          <path id="Trazado_103803" data-name="Trazado 103803" d="M464.809,463.747c0,.129-97.515.234-217.779.234-120.306,0-217.8-.105-217.8-.234s97.494-.236,217.8-.236C367.294,463.511,464.809,463.617,464.809,463.747Z" transform="translate(-29.229 -463.511)" fill="#263238"/>
        </g>
      </g>
      <g id="Plant" transform="translate(77.362 265.539)">
        <g id="Grupo_56809" data-name="Grupo 56809" transform="translate(0)">
          <g id="Grupo_56786" data-name="Grupo 56786" transform="translate(0 66.698)">
            <g id="Grupo_56785" data-name="Grupo 56785">
              <g id="Grupo_56784" data-name="Grupo 56784">
                <path id="Trazado_103804" data-name="Trazado 103804" d="M88.872,430.564c.856-3.317-1.32-6.647-3.758-9.054s-5.353-4.564-6.622-7.746c-2.055-5.156.708-11.832-2.8-16.134-2.063-2.53-5.763-3.378-7.594-6.081a13.822,13.822,0,0,1-1.648-4.832,49.078,49.078,0,0,0-12.205-22.838,42.593,42.593,0,0,0,4.788,22.01c1.421,2.7,3.165,5.341,3.635,8.36.764,4.9-1.971,9.952-.768,14.765,1.377,5.5,7.56,9.188,7.854,14.854.247,4.79-3.928,8.995-3.616,13.781a12.928,12.928,0,0,0,2.132,5.681c3.7,6.157,9.145,10.4,17.392,10.26l10.1.354Z" transform="translate(-54.182 -363.879)" fill="#ff9800"/>
              </g>
            </g>
          </g>
          <g id="Grupo_56790" data-name="Grupo 56790" transform="translate(0 66.698)" opacity="0.3">
            <g id="Grupo_56789" data-name="Grupo 56789">
              <g id="Grupo_56788" data-name="Grupo 56788">
                <g id="Grupo_56787" data-name="Grupo 56787">
                  <path id="Trazado_103805" data-name="Trazado 103805" d="M88.872,430.564c.856-3.317-1.32-6.647-3.758-9.054s-5.353-4.564-6.622-7.746c-2.055-5.156.708-11.832-2.8-16.134-2.063-2.53-5.763-3.378-7.594-6.081a13.822,13.822,0,0,1-1.648-4.832,49.078,49.078,0,0,0-12.205-22.838,42.593,42.593,0,0,0,4.788,22.01c1.421,2.7,3.165,5.341,3.635,8.36.764,4.9-1.971,9.952-.768,14.765,1.377,5.5,7.56,9.188,7.854,14.854.247,4.79-3.928,8.995-3.616,13.781a12.928,12.928,0,0,0,2.132,5.681c3.7,6.157,9.145,10.4,17.392,10.26l10.1.354Z" transform="translate(-54.182 -363.879)"/>
                </g>
              </g>
            </g>
          </g>
          <g id="Grupo_56808" data-name="Grupo 56808" transform="translate(8.912)">
            <g id="Grupo_56799" data-name="Grupo 56799" transform="translate(29.594 32)">
              <g id="Grupo_56794" data-name="Grupo 56794">
                <g id="Grupo_56793" data-name="Grupo 56793">
                  <g id="Grupo_56792" data-name="Grupo 56792">
                    <g id="Grupo_56791" data-name="Grupo 56791">
                      <path id="Trazado_103806" data-name="Trazado 103806" d="M101.987,450.443a8.074,8.074,0,0,0,2.781-.06,16.863,16.863,0,0,0,3.283-.826,13.916,13.916,0,0,0,4.054-2.22,5.658,5.658,0,0,0,1.667-2.222,10.454,10.454,0,0,0,.475-3.018,29.163,29.163,0,0,1,.236-3.267,9.006,9.006,0,0,1,1.234-3.248c1.191-2.092,3.168-4.073,3.807-6.914.692-2.794.2-5.818-.274-8.854s-.923-6.333.235-9.489c1.083-3.159,3.3-6.012,4.407-9.573,1.1-3.6.588-7.466.822-11.281a14.966,14.966,0,0,1,1.316-5.609c.817-1.788,1.951-3.474,2.836-5.357,1.792-3.8,2.109-8.118,2.6-12.344q.359-3.195.724-6.454a31.574,31.574,0,0,1,1.122-6.46,56.883,56.883,0,0,1,2.417-6.251,20.736,20.736,0,0,0,1.172-3.266,32.794,32.794,0,0,0,.326-3.474,40.9,40.9,0,0,0-.269-6.992c-.274-2.331-.695-4.642-.945-6.978-.015-.138-.031-.276-.045-.4l-.052-.465-.414.207a15.6,15.6,0,0,0-5.437,4.589,24.737,24.737,0,0,0-3.341,6.157c-1.687,4.34-2.295,8.888-3.146,13.227-.83,4.341-1.925,8.61-4.151,12.217-1.107,1.8-2.446,3.442-3.617,5.2a14.276,14.276,0,0,0-2.507,5.757c-.6,4.273,1.756,8.026,1.267,11.809a13.108,13.108,0,0,1-1.843,5.243c-.917,1.614-2,3.11-3.018,4.614A29.7,29.7,0,0,0,107,399.094a14.748,14.748,0,0,0-1.241,5.064c-.246,3.406.237,6.638-.013,9.688a22.278,22.278,0,0,1-2.492,8.3c-1.221,2.485-2.581,4.732-3.719,6.912A35.606,35.606,0,0,0,98,432.278a15.848,15.848,0,0,0-.887,3.193,20.172,20.172,0,0,0-.074,5.765,14.529,14.529,0,0,0,2.889,7.353,7.041,7.041,0,0,0,.817.885,4.074,4.074,0,0,0,.663.563c.377.278.578.405.578.405a12.781,12.781,0,0,1-1.956-1.934,14.627,14.627,0,0,1-2.742-7.3,20.053,20.053,0,0,1,.129-5.682,15.6,15.6,0,0,1,.893-3.118,35.039,35.039,0,0,1,1.541-3.176c1.147-2.16,2.52-4.4,3.769-6.9a22.68,22.68,0,0,0,2.58-8.448c.265-3.116-.2-6.359.053-9.685a14.268,14.268,0,0,1,1.218-4.894,29.212,29.212,0,0,1,2.681-4.567c1.022-1.494,2.113-3,3.055-4.644a13.638,13.638,0,0,0,1.928-5.457c.487-4.031-1.849-7.809-1.242-11.781a13.705,13.705,0,0,1,2.421-5.506c1.154-1.722,2.5-3.367,3.64-5.21,2.3-3.711,3.408-8.062,4.247-12.42.858-4.367,1.467-8.867,3.124-13.117a24.13,24.13,0,0,1,3.253-6,14.959,14.959,0,0,1,5.209-4.4l-.465-.258c.014.128.031.268.046.407.253,2.364.676,4.68.947,6.984a40.335,40.335,0,0,1,.268,6.885,32.824,32.824,0,0,1-.311,3.37,20.254,20.254,0,0,1-1.133,3.149,57.5,57.5,0,0,0-2.435,6.32,32.2,32.2,0,0,0-1.138,6.567q-.361,3.261-.716,6.459c-.483,4.245-.8,8.489-2.526,12.162-.853,1.829-1.985,3.52-2.826,5.367a15.561,15.561,0,0,0-1.354,5.816c-.22,3.9.288,7.708-.767,11.162-1.047,3.437-3.251,6.3-4.364,9.563-1.192,3.294-.7,6.7-.216,9.725.488,3.041.978,6,.327,8.687-.585,2.714-2.5,4.676-3.72,6.828a9.357,9.357,0,0,0-1.253,3.378,29.119,29.119,0,0,0-.212,3.307,10.257,10.257,0,0,1-.431,2.935,5.417,5.417,0,0,1-1.567,2.126,13.894,13.894,0,0,1-3.957,2.232,17.448,17.448,0,0,1-3.237.878,12.958,12.958,0,0,1-2.054.2C102.228,450.435,101.987,450.443,101.987,450.443Z" transform="translate(-96.868 -325.415)" fill="#263238"/>
                    </g>
                  </g>
                </g>
              </g>
              <g id="Grupo_56798" data-name="Grupo 56798" transform="translate(5.116 6.028)">
                <g id="Grupo_56797" data-name="Grupo 56797">
                  <g id="Grupo_56796" data-name="Grupo 56796">
                    <g id="Grupo_56795" data-name="Grupo 56795">
                      <path id="Trazado_103807" data-name="Trazado 103807" d="M134.459,332.1a1.208,1.208,0,0,0-.1.3c-.06.242-.133.541-.223.909-.2.8-.436,2-.817,3.5s-1.313,3.189-2.1,5.276c-.815,2.07-1.641,4.469-2.4,7.165s-1.454,5.686-2.168,8.89A37.405,37.405,0,0,1,123.423,368c-.828,1.641-1.761,3.3-2.5,5.119a23.831,23.831,0,0,0-1.454,5.8,117.262,117.262,0,0,1-2.178,12.22c-2.026,8.279-3.955,16.162-5.711,23.342-1.8,7.154-3.421,13.6-4.787,19.036-1.33,5.386-2.41,9.761-3.173,12.847q-.526,2.222-.831,3.5c-.08.371-.147.671-.2.914a1.154,1.154,0,0,0-.047.318,1.211,1.211,0,0,0,.111-.3c.069-.239.156-.535.263-.9.23-.843.548-2,.949-3.47l3.372-12.8c1.405-5.424,3.072-11.86,4.922-19,1.773-7.182,3.72-15.068,5.765-23.347A115.76,115.76,0,0,0,120.1,379.01a23.305,23.305,0,0,1,1.4-5.656c.714-1.77,1.632-3.423,2.46-5.081a37.688,37.688,0,0,0,3.225-10.018c.691-3.213,1.345-6.2,2.084-8.884s1.519-5.085,2.3-7.157c.742-2.08,1.629-3.793,2-5.34.35-1.538.542-2.727.7-3.537.064-.374.117-.678.16-.923A1.177,1.177,0,0,0,134.459,332.1Z" transform="translate(-102.539 -332.097)" fill="#263238"/>
                    </g>
                  </g>
                </g>
              </g>
            </g>
            <g id="Grupo_56807" data-name="Grupo 56807">
              <g id="Grupo_56802" data-name="Grupo 56802">
                <g id="Grupo_56801" data-name="Grupo 56801">
                  <g id="Grupo_56800" data-name="Grupo 56800">
                    <path id="Trazado_103808" data-name="Trazado 103808" d="M100.558,447c6.6-3.921,8.491-15.826,5.739-22.991s-7.569-13.711-8.312-21.351c-.571-5.873,1.351-11.9-.016-17.639-1.846-7.746-9.408-13.746-9.32-21.708.049-4.468,2.591-8.672,2.388-13.135-.248-5.475-4.45-9.818-7.053-14.641-3.984-7.382-4.245-16.109-5.607-24.385S73.86,294.01,66.524,289.942c-1.083,7.027-2.932,11.84-2.352,21.359.209,3.419,4.18,9.964,4.721,17.456.323,4.478.547,8.963.821,13.445.266,4.361.548,8.8,2.112,12.882,1.2,3.127,3.122,5.966,4.012,9.2,1.673,6.073-.525,12.65.826,18.8,1.145,5.212,4.752,9.7,5.489,14.985,1.036,7.426-3.771,15.142-1.311,22.227,1.221,3.515,4.113,6.338,4.934,9.967.637,2.816-.058,5.8.519,8.627.929,4.558,9.623,8.1,14.266,7.817" transform="translate(-64.062 -289.942)" fill="#ff9800"/>
                  </g>
                </g>
              </g>
              <g id="Grupo_56806" data-name="Grupo 56806" transform="translate(4.276 6.976)">
                <g id="Grupo_56805" data-name="Grupo 56805">
                  <g id="Grupo_56804" data-name="Grupo 56804">
                    <g id="Grupo_56803" data-name="Grupo 56803">
                      <path id="Trazado_103809" data-name="Trazado 103809" d="M68.807,297.675a1.84,1.84,0,0,0,.029.4c.038.3.087.677.149,1.155.152,1.015.321,2.505.665,4.432.368,1.938,1.367,4.119,2.164,6.75.843,2.621,1.68,5.647,2.42,9.034s1.383,7.132,2.044,11.164c.683,4,1.382,8.426,3.382,12.624.926,2.109,1.964,4.22,2.743,6.469a29.051,29.051,0,0,1,1.391,7.129A143.824,143.824,0,0,0,85.73,372.2l5.7,29.355c1.847,8.991,3.51,17.091,4.911,23.91L99.7,441.573c.4,1.866.722,3.331.947,4.373.109.47.2.844.262,1.134a1.812,1.812,0,0,0,.111.382,1.8,1.8,0,0,0-.046-.395c-.051-.293-.116-.671-.2-1.147-.2-1.048-.474-2.521-.828-4.4-.755-3.857-1.834-9.362-3.164-16.149-1.361-6.827-2.979-14.936-4.774-23.937-1.736-9.025-3.642-18.939-5.644-29.347a145.764,145.764,0,0,1-1.941-15.319,29.565,29.565,0,0,0-1.439-7.272c-.8-2.3-1.856-4.417-2.782-6.509-1.988-4.136-2.686-8.456-3.4-12.472-.684-4.025-1.342-7.782-2.127-11.174s-1.645-6.426-2.522-9.047c-.838-2.64-1.867-4.8-2.263-6.691-.375-1.892-.59-3.4-.782-4.4-.087-.474-.158-.852-.212-1.145A1.734,1.734,0,0,0,68.807,297.675Z" transform="translate(-68.802 -297.675)" fill="#263238"/>
                    </g>
                  </g>
                </g>
              </g>
            </g>
          </g>
        </g>
      </g>
      <g id="Speech_Bubble" data-name="Speech Bubble" transform="translate(387.212 52.769)">
        <g id="Grupo_56817" data-name="Grupo 56817" transform="translate(0 0)">
          <g id="Grupo_56810" data-name="Grupo 56810" transform="translate(19.677 14.98)">
            <path id="Trazado_103810" data-name="Trazado 103810" d="M420.014,87.549h-3.591a3.052,3.052,0,0,1-3.133,3.07,2.907,2.907,0,0,1-2.815-1.855,3.219,3.219,0,0,1,.256-2.908c.609-1,1.944-1.917,4.363-1.491v-8.1h-3.551V81.01a6.934,6.934,0,0,0-4.98,6.776c0,5.251,4.709,6.471,6.724,6.471C414.831,94.257,420.082,93.884,420.014,87.549Z" transform="translate(-406.565 -71.234)" fill="#ff9800"/>
            <rect id="Rectángulo_5782" data-name="Rectángulo 5782" width="3.604" height="3.366" transform="translate(8.541 3.366) rotate(180)" fill="#ff9800"/>
          </g>
          <g id="Grupo_56816" data-name="Grupo 56816">
            <g id="Grupo_56815" data-name="Grupo 56815">
              <g id="Grupo_56814" data-name="Grupo 56814">
                <g id="Grupo_56813" data-name="Grupo 56813">
                  <g id="Grupo_56812" data-name="Grupo 56812">
                    <g id="Grupo_56811" data-name="Grupo 56811">
                      <path id="Trazado_103811" data-name="Trazado 103811" d="M437.546,80.571a2.547,2.547,0,0,0,.007-.454c-.009-.33-.022-.772-.038-1.336-.014-.293-.014-.623-.043-.984q-.077-.543-.166-1.178c-.061-.427-.127-.886-.2-1.375q-.178-.723-.381-1.535a24.868,24.868,0,0,0-3.246-7.445A26.267,26.267,0,0,0,413.736,54.2a27.12,27.12,0,0,0-3.6-.073c-.608.042-1.228.031-1.841.119l-1.854.28a26.407,26.407,0,0,0-7.326,2.5,28.192,28.192,0,0,0-6.584,4.785,27.648,27.648,0,0,0-4.953,6.894,25.044,25.044,0,0,0-2.579,8.4,16.641,16.641,0,0,0-.19,2.241,20.184,20.184,0,0,0-.042,2.265,26.857,26.857,0,0,0,.574,4.538,26.524,26.524,0,0,0,3.8,9.034l-.028-.274-3.693,9.2-.219.545.566-.155,9.837-2.705-.243-.046a26.408,26.408,0,0,0,11.241,4.91,23.921,23.921,0,0,0,5.76.358,18.5,18.5,0,0,0,2.766-.262l1.346-.208c.443-.083.871-.217,1.3-.322A26.32,26.32,0,0,0,432.747,95.96a25.16,25.16,0,0,0,3.223-6.11l.492-1.377q.173-.679.332-1.306t.3-1.2c.074-.383.114-.753.167-1.1.088-.7.208-1.306.235-1.842s.032-.978.045-1.352c.008-.343.013-.615.019-.826a1.26,1.26,0,0,0-.01-.28,1.308,1.308,0,0,0-.039.28c-.016.21-.038.481-.065.822q-.037.559-.09,1.344c-.042.531-.176,1.137-.278,1.825a26.169,26.169,0,0,1-19.41,20.924c-.424.1-.845.232-1.281.31l-1.322.2a18.186,18.186,0,0,1-2.716.244,23.448,23.448,0,0,1-5.645-.373,25.925,25.925,0,0,1-11-4.842l-.11-.083-.133.036-9.844,2.685.347.39q1.81-4.5,3.7-9.2l.058-.144-.086-.13a25.977,25.977,0,0,1-3.713-8.832,26.393,26.393,0,0,1-.561-4.436,19.724,19.724,0,0,1,.04-2.216,16.115,16.115,0,0,1,.185-2.191,24.513,24.513,0,0,1,2.513-8.218,27.149,27.149,0,0,1,4.832-6.752,27.711,27.711,0,0,1,6.434-4.7,25.947,25.947,0,0,1,7.168-2.474l1.817-.281c.6-.09,1.208-.079,1.805-.124A25.937,25.937,0,0,1,433.2,66.445a25.029,25.029,0,0,1,3.3,7.324q.212.8.4,1.516l.224,1.36q.1.629.192,1.166c.04.358.049.686.072.977.041.561.073,1,.1,1.329A2.5,2.5,0,0,0,437.546,80.571Z" transform="translate(-384.752 -54.081)" fill="#263238"/>
                    </g>
                  </g>
                </g>
              </g>
            </g>
          </g>
        </g>
      </g>
      <g id="Question_Mark" data-name="Question Mark" transform="translate(129.149 87.978)">
        <g id="Grupo_56826" data-name="Grupo 56826" transform="translate(0 0)">
          <g id="Grupo_56820" data-name="Grupo 56820">
            <g id="Grupo_56818" data-name="Grupo 56818" transform="translate(21.579)">
              <path id="Trazado_103812" data-name="Trazado 103812" d="M145.066,190.784h52.1s0-43.744,45.458-44.527c23.61-.406,35.85,15.059,40.823,26.906,5.776,13.758,4.028,29.438-3.71,42.2-8.836,14.569-27.868,29.209-62.978,23.022l-.333,116.072h51.515v-68.81s72.251-18.677,72.251-98.3c0-76.183-61.607-92.641-94.716-93.7-18.425-.588-25.1-1.38-47.89,1.855C168.548,99.623,144.451,133.34,145.066,190.784Z" transform="translate(-145.054 -93.11)" fill="#ff9800"/>
              <rect id="Rectángulo_5783" data-name="Rectángulo 5783" width="52.282" height="48.829" transform="translate(71.227 285.543)" fill="#ff9800"/>
              <rect id="Rectángulo_5784" data-name="Rectángulo 5784" width="52.282" height="48.829" transform="translate(71.227 285.543)" fill="#ff9800" opacity="0.1"/>
            </g>
            <g id="Grupo_56819" data-name="Grupo 56819" transform="translate(0 0.357)">
              <path id="Trazado_103814" data-name="Trazado 103814" d="M121.143,190.822h52.1s0-43.744,45.459-44.527c23.609-.406,35.849,15.059,40.823,26.906,5.775,13.758,4.027,29.438-3.711,42.2-8.836,14.569-28.2,27.812-63.311,21.626V354.492h51.515v-68.81s72.251-18.677,72.251-98.3c0-76.183-68.319-93.878-97.563-93.877C196.343,93.506,120.161,98.912,121.143,190.822Z" transform="translate(-121.133 -93.506)" fill="#ffb74d"/>
              <rect id="Rectángulo_5785" data-name="Rectángulo 5785" width="52.282" height="48.829" transform="translate(71.225 285.186)" fill="#ffb74d"/>
            </g>
          </g>
        </g>
      </g>
      <g id="Character" transform="translate(320.466 68.915)">
        <g id="Grupo_57041" data-name="Grupo 57041" transform="translate(0 0)">
          <g id="Grupo_56843" data-name="Grupo 56843" transform="translate(0 57.749)">
            <path id="Trazado_103821" data-name="Trazado 103821" d="M315.382,192.68c-.91,1.816,2.461,3.281,4.406,3.869a17.622,17.622,0,0,0,6.048.417c2.688-.145,5.474-.4,7.812-1.732a12.416,12.416,0,0,0,4.708-5.281,37.007,37.007,0,0,0,2.391-6.755S319.435,184.594,315.382,192.68Z" transform="translate(-311.2 -140.617)" fill="#111e61"/>
            <g id="Grupo_56829" data-name="Grupo 56829" transform="translate(63.002 40.02)">
              <path id="Trazado_103823" data-name="Trazado 103823" d="M381.993,186.626a20.438,20.438,0,0,0,12.03,3.777,8.53,8.53,0,0,0,5.728-1.8c.7-.636,1.214-1.449,1.931-2.06.486-.415,1.056-.731,1.513-1.177a1.935,1.935,0,0,0,.664-1.712,3.57,3.57,0,0,0-1.246-1.992c-2.448-1.389-5.368-1.339-8.182-1.275A28.057,28.057,0,0,0,386.177,182c-2.182.734-4.469,1.771-5.575,3.789" transform="translate(-380.602 -180.36)" fill="#111e61"/>
            </g>
            <path id="Trazado_103825" data-name="Trazado 103825" d="M333.547,214.665l44.971.589a.578.578,0,0,0,.557-.754L373.8,198.045s.777-8.222,1.851-18.117c1.631-15.014,3.8-33.894,3.828-33.843C376.408,137.466,358.258,136,358.258,136l-20.686,1.23-.728-1.213-5.952,2.768a27.519,27.519,0,0,0-3.735,2.105c-3.928,2.632-13.407,8.66-15.134,15.388-3.994,15.554,2.771,32.92,2.771,32.92l4.342-3.395a30.471,30.471,0,0,1,3.447-2.3l8.715,23.351a4.118,4.118,0,0,0-1.891,3c-.077,1.893.938,4.173,4.139,4.821" transform="translate(-310.763 -135.996)" fill="#445bd5"/>
            <g id="Grupo_56830" data-name="Grupo 56830" transform="translate(36.196 27.826)" opacity="0.3">
              <path id="Trazado_103826" data-name="Trazado 103826" d="M356.753,190.151c1.426-7.665.672-15.549-.087-23.309-2.5,6.349-2.406,13.5-5.048,19.794a8.463,8.463,0,0,0-.7,2.084,2.328,2.328,0,0,0,.6,2.034c.718.657,1.789.3,2.755.187a10.525,10.525,0,0,0,2.482-.789" transform="translate(-350.887 -166.842)"/>
            </g>
            <g id="Grupo_56831" data-name="Grupo 56831" transform="translate(24.893 63.177)" opacity="0.4">
              <path id="Trazado_103827" data-name="Trazado 103827" d="M338.962,211.736c3.631,1.258,7.449-1.076,11.269-1.491a28.413,28.413,0,0,1,7.557.712,56.5,56.5,0,0,0,15.337.376,5.869,5.869,0,0,0,2.256-.583,2.721,2.721,0,0,0,1.18-2.239c-8.492-.871-16.986-1.391-25.479-2.262a16.015,16.015,0,0,0-6.37.2c-2.567.8-4.546,2.812-6.355,4.8" transform="translate(-338.357 -206.03)"/>
            </g>
            <path id="Trazado_103828" data-name="Trazado 103828" d="M402.052,177.335c-3.677-8.266-16.621-31.145-16.621-31.145L375.4,158.76l2.34,24.673s5.294-5.91,20.1-6.028a7.256,7.256,0,0,1,5.509,2.9Z" transform="translate(-317.091 -136.994)" fill="#445bd5"/>
            <g id="Grupo_56832" data-name="Grupo 56832" transform="translate(21.833 25.06)">
              <path id="Trazado_103829" data-name="Trazado 103829" d="M337.909,174.689a34.136,34.136,0,0,1-1.69-5.4,34.15,34.15,0,0,1-1.236-5.518,34.143,34.143,0,0,1,1.69,5.4A34.326,34.326,0,0,1,337.909,174.689Z" transform="translate(-334.965 -163.776)" fill="#263238"/>
            </g>
            <g id="Grupo_56833" data-name="Grupo 56833" transform="translate(57.554 20.091)">
              <path id="Trazado_103830" data-name="Trazado 103830" d="M374.566,158.269a6.078,6.078,0,0,1,.927.788,25.376,25.376,0,0,1,2.234,2.455,23.676,23.676,0,0,1,4.786,9.8,18.313,18.313,0,0,1,.288,6.043c-.233,1.846-.586,3.469-.813,4.842s-.379,2.488-.451,3.262a8.084,8.084,0,0,1-.125,1.206,4.824,4.824,0,0,1-.057-1.216,28.594,28.594,0,0,1,.306-3.3c.185-1.386.505-3.023.71-4.842a18.565,18.565,0,0,0-.317-5.894,24.8,24.8,0,0,0-4.59-9.689C375.8,159.493,374.5,158.337,374.566,158.269Z" transform="translate(-374.563 -158.267)" fill="#263238"/>
            </g>
            <g id="Grupo_56834" data-name="Grupo 56834" transform="translate(24.809 69.384)">
              <path id="Trazado_103831" data-name="Trazado 103831" d="M361.83,220.229a4.2,4.2,0,0,1-.979.285,9.391,9.391,0,0,1-1.175.227,15.774,15.774,0,0,1-1.574.192,23.32,23.32,0,0,1-4.13-.023,24.532,24.532,0,0,1-9.617-2.986,23.248,23.248,0,0,1-3.417-2.32,15.74,15.74,0,0,1-1.189-1.049,9.416,9.416,0,0,1-.838-.852,4.2,4.2,0,0,1-.646-.789c.068-.065,1.036,1.019,2.879,2.43a25.943,25.943,0,0,0,3.419,2.2,25.927,25.927,0,0,0,9.454,2.935,25.939,25.939,0,0,0,4.064.122C360.4,220.481,361.811,220.138,361.83,220.229Z" transform="translate(-338.264 -212.91)" fill="#263238"/>
            </g>
            <g id="Grupo_56835" data-name="Grupo 56835" transform="translate(59.409 71.558)">
              <path id="Trazado_103832" data-name="Trazado 103832" d="M379.473,215.32a3.191,3.191,0,0,1,.347,1.317,8.128,8.128,0,0,1-.243,3.287,5.731,5.731,0,0,1-1.767,2.794,2.488,2.488,0,0,1-1.189.677c-.04-.068.4-.343.962-.92a6.391,6.391,0,0,0,1.543-2.686C379.811,217.407,379.3,215.331,379.473,215.32Z" transform="translate(-376.619 -215.32)" fill="#263238"/>
            </g>
            <g id="Grupo_56836" data-name="Grupo 56836" transform="translate(57.878 74.736)">
              <path id="Trazado_103833" data-name="Trazado 103833" d="M376.862,218.843a4.9,4.9,0,0,1-1.931,4.979c-.1-.1.742-.995,1.265-2.373C376.738,220.079,376.722,218.848,376.862,218.843Z" transform="translate(-374.922 -218.843)" fill="#263238"/>
            </g>
            <g id="Grupo_56837" data-name="Grupo 56837" transform="translate(48.564 45.046)">
              <path id="Trazado_103834" data-name="Trazado 103834" d="M367.8,185.937a18.231,18.231,0,0,1-1.6,2.309,18.322,18.322,0,0,1-1.577,2.327,8.372,8.372,0,0,1,3.182-4.637Z" transform="translate(-364.598 -185.93)" fill="#263238"/>
            </g>
            <g id="Grupo_56838" data-name="Grupo 56838" transform="translate(5.881 17.519)">
              <path id="Trazado_103835" data-name="Trazado 103835" d="M332.3,161.1a22.732,22.732,0,0,1-1.994-1.322,25.685,25.685,0,0,0-10.654-3.977,22.784,22.784,0,0,1-2.372-.309,8.321,8.321,0,0,1,2.41-.022,21.576,21.576,0,0,1,10.805,4.034A8.353,8.353,0,0,1,332.3,161.1Z" transform="translate(-317.282 -155.416)" fill="#263238"/>
            </g>
            <g id="Grupo_56839" data-name="Grupo 56839" transform="translate(60.353 8.892)">
              <path id="Trazado_103836" data-name="Trazado 103836" d="M385.658,145.857a39.146,39.146,0,0,0-4.558,4.265,39.136,39.136,0,0,0-3.425,5.219,5.563,5.563,0,0,1,.629-1.75,17.88,17.88,0,0,1,5.737-6.815A5.572,5.572,0,0,1,385.658,145.857Z" transform="translate(-377.666 -145.853)" fill="#263238"/>
            </g>
            <g id="Grupo_56840" data-name="Grupo 56840" transform="translate(23.692 1.463)">
              <path id="Trazado_103837" data-name="Trazado 103837" d="M363.107,137.618a1.71,1.71,0,0,1,.2.417,7.759,7.759,0,0,1,.42,1.266,10.7,10.7,0,0,1-.017,4.885,12.007,12.007,0,0,1-3.68,6.217,12.477,12.477,0,0,1-8.3,2.956,14.045,14.045,0,0,1-8.38-2.8,16.025,16.025,0,0,1-4.611-5.589,17.047,17.047,0,0,1-1.536-4.642,12.4,12.4,0,0,1-.161-1.319,1.716,1.716,0,0,1-.009-.464c.048-.005.1.63.35,1.747a18.479,18.479,0,0,0,1.652,4.526,16.054,16.054,0,0,0,4.575,5.394,13.774,13.774,0,0,0,8.124,2.678,12.159,12.159,0,0,0,8.012-2.812,11.85,11.85,0,0,0,3.642-5.969,11.068,11.068,0,0,0,.161-4.768C363.329,138.22,363.052,137.639,363.107,137.618Z" transform="translate(-337.026 -137.618)" fill="#263238"/>
            </g>
            <g id="Grupo_56841" data-name="Grupo 56841" transform="translate(48.585 45.351)" opacity="0.3">
              <path id="Trazado_103838" data-name="Trazado 103838" d="M368.965,187.57c-.014-.451-.072-.981-.464-1.207a.887.887,0,0,0-.817.014,2.3,2.3,0,0,0-.653.539,11.035,11.035,0,0,0-2.41,3.852l4.422-.382C369.013,189.453,368.993,188.5,368.965,187.57Z" transform="translate(-364.62 -186.269)"/>
            </g>
            <g id="Grupo_56842" data-name="Grupo 56842" transform="translate(64.403 30.497)" opacity="0.3">
              <path id="Trazado_103839" data-name="Trazado 103839" d="M385.36,176.655a14.474,14.474,0,0,0-3.205-6.852c1.9,6.243,1.267,9.766.2,14.041l.231-.6C383.81,180.748,385.7,179.184,385.36,176.655Z" transform="translate(-382.155 -169.803)"/>
            </g>
          </g>
          <g id="Grupo_56863" data-name="Grupo 56863" transform="translate(35.716 302.99)">
            <g id="Grupo_56844" data-name="Grupo 56844">
              <path id="Trazado_103840" data-name="Trazado 103840" d="M373.415,409.663l-2.7,40.462-17.592-.207-2.77-42.066Z" transform="translate(-350.355 -407.852)" fill="#ffbe9d"/>
            </g>
            <g id="Grupo_56862" data-name="Grupo 56862" transform="translate(1.52 36.527)">
              <g id="Grupo_56861" data-name="Grupo 56861">
                <g id="Grupo_56846" data-name="Grupo 56846">
                  <g id="Grupo_56845" data-name="Grupo 56845">
                    <path id="Trazado_103841" data-name="Trazado 103841" d="M371.384,448.763l0,1.17s19.829,7.981,20.037,11.744l-39.385-.231.613-13.1A22.528,22.528,0,0,0,371.384,448.763Z" transform="translate(-352.04 -448.344)" fill="#e8505b"/>
                  </g>
                </g>
                <g id="Grupo_56849" data-name="Grupo 56849" transform="translate(3.421 4.149)">
                  <g id="Grupo_56848" data-name="Grupo 56848">
                    <g id="Grupo_56847" data-name="Grupo 56847">
                      <path id="Trazado_103842" data-name="Trazado 103842" d="M356.987,453.008a1.608,1.608,0,0,0-1.122,1.829,1.545,1.545,0,0,0,1.8,1.129,1.7,1.7,0,0,0,1.179-1.943,1.6,1.6,0,0,0-2.005-.966" transform="translate(-355.832 -452.943)" fill="#fff"/>
                    </g>
                  </g>
                </g>
                <g id="Grupo_56851" data-name="Grupo 56851" transform="translate(0 9.952)">
                  <g id="Grupo_56850" data-name="Grupo 56850">
                    <path id="Trazado_103843" data-name="Trazado 103843" d="M352.04,462.527l.147-3.151,37.694,1.375s1.749.773,1.544,2.007Z" transform="translate(-352.04 -459.376)" fill="#263238"/>
                  </g>
                </g>
                <g id="Grupo_56854" data-name="Grupo 56854" transform="translate(15.883 1.519)">
                  <g id="Grupo_56853" data-name="Grupo 56853">
                    <g id="Grupo_56852" data-name="Grupo 56852">
                      <path id="Trazado_103844" data-name="Trazado 103844" d="M373.248,450.209c-.007.192-.97.274-1.92.887-.965.588-1.458,1.418-1.635,1.34-.177-.038.116-1.186,1.279-1.908S373.291,450.033,373.248,450.209Z" transform="translate(-369.646 -450.028)" fill="#263238"/>
                    </g>
                  </g>
                </g>
                <g id="Grupo_56857" data-name="Grupo 56857" transform="translate(20.98 3.354)">
                  <g id="Grupo_56856" data-name="Grupo 56856">
                    <g id="Grupo_56855" data-name="Grupo 56855">
                      <path id="Trazado_103845" data-name="Trazado 103845" d="M377.922,452.141c.043.187-.791.509-1.45,1.319-.682.789-.852,1.668-1.043,1.659-.181.029-.308-1.1.53-2.089S377.919,451.958,377.922,452.141Z" transform="translate(-375.296 -452.062)" fill="#263238"/>
                    </g>
                  </g>
                </g>
                <g id="Grupo_56860" data-name="Grupo 56860" transform="translate(25.696 5.081)">
                  <g id="Grupo_56859" data-name="Grupo 56859">
                    <g id="Grupo_56858" data-name="Grupo 56858">
                      <path id="Trazado_103846" data-name="Trazado 103846" d="M380.751,457.287c-.175.04-.437-.923.063-1.973s1.4-1.464,1.482-1.3c.108.159-.479.721-.877,1.589C381,456.458,380.943,457.269,380.751,457.287Z" transform="translate(-380.525 -453.977)" fill="#263238"/>
                    </g>
                  </g>
                </g>
              </g>
            </g>
          </g>
          <g id="Grupo_56970" data-name="Grupo 56970" transform="translate(9.388)">
            <path id="Trazado_103847" data-name="Trazado 103847" d="M368.066,80.887c1.015-2.53-.215-5.589-2.411-7.2a10.471,10.471,0,0,0-7.815-1.537,31.1,31.1,0,0,0-7.706,2.662,8.7,8.7,0,0,0-14.766,4.822,5.528,5.528,0,0,0-6.55,7.261l12.194,4.283L354.329,114.6a10.653,10.653,0,0,0,15.677-14.165,9.139,9.139,0,0,0,1.871-2.314,9.334,9.334,0,0,0,4.309-5.771A9.854,9.854,0,0,0,368.066,80.887Z" transform="translate(-321.887 -71.979)" fill="#263238"/>
            <g id="Grupo_56964" data-name="Grupo 56964" transform="translate(0 6.348)">
              <g id="Grupo_56941" data-name="Grupo 56941" transform="translate(8.01)">
                <g id="Grupo_56940" data-name="Grupo 56940">
                  <g id="Grupo_56938" data-name="Grupo 56938" transform="translate(0 2.315)">
                    <g id="Grupo_56937" data-name="Grupo 56937">
                      <g id="Grupo_56936" data-name="Grupo 56936">
                        <g id="Grupo_56935" data-name="Grupo 56935">
                          <g id="Grupo_56920" data-name="Grupo 56920">
                            <g id="Grupo_56919" data-name="Grupo 56919">
                              <g id="Grupo_56918" data-name="Grupo 56918">
                                <g id="Grupo_56870" data-name="Grupo 56870">
                                  <g id="Grupo_56869" data-name="Grupo 56869">
                                    <g id="Grupo_56868" data-name="Grupo 56868">
                                      <g id="Grupo_56867" data-name="Grupo 56867">
                                        <g id="Grupo_56866" data-name="Grupo 56866">
                                          <g id="Grupo_56865" data-name="Grupo 56865">
                                            <g id="Grupo_56864" data-name="Grupo 56864">
                                              <path id="Trazado_103848" data-name="Trazado 103848" d="M360.146,130.669c-.757-3.813-1.285-6.425-1.277-6.4,0,0,7.19-2.8,6.695-12.842-.246-4.995-2.152-12.868-3.919-19.261-1.59-5.754-6.954-12.1-12.636-10.263L331.831,90.3c-1.726.557-2.028,2.178-1.621,3.945l.028.861,6.685,27.656,2.824,12.361a10.442,10.442,0,0,0,11.656,7.92h0A10.442,10.442,0,0,0,360.146,130.669Z" transform="translate(-330.048 -81.583)" fill="#ffbe9d"/>
                                            </g>
                                          </g>
                                        </g>
                                      </g>
                                    </g>
                                  </g>
                                </g>
                                <g id="Grupo_56886" data-name="Grupo 56886" transform="translate(25.798 14.471)">
                                  <g id="Grupo_56877" data-name="Grupo 56877" transform="translate(3.192 1.895)">
                                    <g id="Grupo_56876" data-name="Grupo 56876">
                                      <g id="Grupo_56875" data-name="Grupo 56875">
                                        <g id="Grupo_56874" data-name="Grupo 56874">
                                          <g id="Grupo_56873" data-name="Grupo 56873">
                                            <g id="Grupo_56872" data-name="Grupo 56872">
                                              <g id="Grupo_56871" data-name="Grupo 56871">
                                                <path id="Trazado_103849" data-name="Trazado 103849" d="M364.677,100.625a1.273,1.273,0,0,1-.938,1.509,1.217,1.217,0,0,1-1.521-.853,1.276,1.276,0,0,1,.936-1.511A1.221,1.221,0,0,1,364.677,100.625Z" transform="translate(-362.184 -99.725)" fill="#263238"/>
                                              </g>
                                            </g>
                                          </g>
                                        </g>
                                      </g>
                                    </g>
                                  </g>
                                  <g id="Grupo_56885" data-name="Grupo 56885">
                                    <g id="Grupo_56884" data-name="Grupo 56884">
                                      <g id="Grupo_56883" data-name="Grupo 56883">
                                        <g id="Grupo_56882" data-name="Grupo 56882">
                                          <g id="Grupo_56881" data-name="Grupo 56881">
                                            <g id="Grupo_56880" data-name="Grupo 56880">
                                              <g id="Grupo_56879" data-name="Grupo 56879">
                                                <g id="Grupo_56878" data-name="Grupo 56878">
                                                  <path id="Trazado_103850" data-name="Trazado 103850" d="M363.59,98.5c-.121.195-1.211-.306-2.552-.021-1.343.265-2.183,1.162-2.363,1.028-.087-.058.009-.384.373-.787A3.491,3.491,0,0,1,360.9,97.7a3.355,3.355,0,0,1,2.073.219C363.45,98.145,363.651,98.411,363.59,98.5Z" transform="translate(-358.646 -97.625)" fill="#263238"/>
                                                </g>
                                              </g>
                                            </g>
                                          </g>
                                        </g>
                                      </g>
                                    </g>
                                  </g>
                                </g>
                                <g id="Grupo_56902" data-name="Grupo 56902" transform="translate(12.827 17.651)">
                                  <g id="Grupo_56893" data-name="Grupo 56893" transform="translate(3.109 1.708)">
                                    <g id="Grupo_56892" data-name="Grupo 56892">
                                      <g id="Grupo_56891" data-name="Grupo 56891">
                                        <g id="Grupo_56890" data-name="Grupo 56890">
                                          <g id="Grupo_56889" data-name="Grupo 56889">
                                            <g id="Grupo_56888" data-name="Grupo 56888">
                                              <g id="Grupo_56887" data-name="Grupo 56887">
                                                <path id="Trazado_103851" data-name="Trazado 103851" d="M350.207,103.942a1.274,1.274,0,0,1-.938,1.51,1.218,1.218,0,0,1-1.52-.854,1.273,1.273,0,0,1,.936-1.51A1.219,1.219,0,0,1,350.207,103.942Z" transform="translate(-347.715 -103.043)" fill="#263238"/>
                                              </g>
                                            </g>
                                          </g>
                                        </g>
                                      </g>
                                    </g>
                                  </g>
                                  <g id="Grupo_56901" data-name="Grupo 56901">
                                    <g id="Grupo_56900" data-name="Grupo 56900">
                                      <g id="Grupo_56899" data-name="Grupo 56899">
                                        <g id="Grupo_56898" data-name="Grupo 56898">
                                          <g id="Grupo_56897" data-name="Grupo 56897">
                                            <g id="Grupo_56896" data-name="Grupo 56896">
                                              <g id="Grupo_56895" data-name="Grupo 56895">
                                                <g id="Grupo_56894" data-name="Grupo 56894">
                                                  <path id="Trazado_103852" data-name="Trazado 103852" d="M349.212,102.024c-.121.195-1.212-.3-2.552-.021-1.343.265-2.183,1.162-2.363,1.028-.087-.058.007-.383.372-.786a3.492,3.492,0,0,1,1.848-1.025,3.364,3.364,0,0,1,2.074.219C349.071,101.671,349.273,101.936,349.212,102.024Z" transform="translate(-344.268 -101.15)" fill="#263238"/>
                                                </g>
                                              </g>
                                            </g>
                                          </g>
                                        </g>
                                      </g>
                                    </g>
                                  </g>
                                </g>
                                <g id="Grupo_56910" data-name="Grupo 56910" transform="translate(21.599 15.962)">
                                  <g id="Grupo_56909" data-name="Grupo 56909">
                                    <g id="Grupo_56908" data-name="Grupo 56908">
                                      <g id="Grupo_56907" data-name="Grupo 56907">
                                        <g id="Grupo_56906" data-name="Grupo 56906">
                                          <g id="Grupo_56905" data-name="Grupo 56905">
                                            <g id="Grupo_56904" data-name="Grupo 56904">
                                              <g id="Grupo_56903" data-name="Grupo 56903">
                                                <path id="Trazado_103853" data-name="Trazado 103853" d="M356.957,110.326a9.064,9.064,0,0,1,2.1-.851c.335-.107.645-.243.653-.489a1.778,1.778,0,0,0-.441-.967l-1.56-2.4A45.7,45.7,0,0,1,354,99.28a45.916,45.916,0,0,1,4.207,6.031q.8,1.268,1.521,2.42a2.023,2.023,0,0,1,.459,1.307.879.879,0,0,1-.458.619,2.383,2.383,0,0,1-.565.2A8.945,8.945,0,0,1,356.957,110.326Z" transform="translate(-353.992 -99.278)" fill="#263238"/>
                                              </g>
                                            </g>
                                          </g>
                                        </g>
                                      </g>
                                    </g>
                                  </g>
                                </g>
                                <g id="Grupo_56917" data-name="Grupo 56917" transform="translate(15.076 41.947)">
                                  <g id="Grupo_56916" data-name="Grupo 56916">
                                    <g id="Grupo_56915" data-name="Grupo 56915">
                                      <g id="Grupo_56914" data-name="Grupo 56914">
                                        <g id="Grupo_56913" data-name="Grupo 56913">
                                          <g id="Grupo_56912" data-name="Grupo 56912">
                                            <g id="Grupo_56911" data-name="Grupo 56911">
                                              <path id="Trazado_103854" data-name="Trazado 103854" d="M360.505,128.824a25.261,25.261,0,0,1-13.744-.742s4.723,6.17,14.259,3.22Z" transform="translate(-346.761 -128.082)" fill="#eb996e"/>
                                            </g>
                                          </g>
                                        </g>
                                      </g>
                                    </g>
                                  </g>
                                </g>
                              </g>
                            </g>
                          </g>
                          <g id="Grupo_56927" data-name="Grupo 56927" transform="translate(11.889 15.871)">
                            <g id="Grupo_56926" data-name="Grupo 56926">
                              <g id="Grupo_56925" data-name="Grupo 56925">
                                <g id="Grupo_56924" data-name="Grupo 56924">
                                  <g id="Grupo_56923" data-name="Grupo 56923">
                                    <g id="Grupo_56922" data-name="Grupo 56922">
                                      <g id="Grupo_56921" data-name="Grupo 56921">
                                        <path id="Trazado_103855" data-name="Trazado 103855" d="M349.364,99.918c-.088.386-1.469.377-3.041.763-1.58.355-2.811.98-3.063.674-.114-.147.068-.522.545-.944a5.451,5.451,0,0,1,4.65-1.1C349.07,99.482,349.4,99.736,349.364,99.918Z" transform="translate(-343.228 -99.176)" fill="#263238"/>
                                      </g>
                                    </g>
                                  </g>
                                </g>
                              </g>
                            </g>
                          </g>
                          <g id="Grupo_56934" data-name="Grupo 56934" transform="translate(24.773 10.166)">
                            <g id="Grupo_56933" data-name="Grupo 56933">
                              <g id="Grupo_56932" data-name="Grupo 56932">
                                <g id="Grupo_56931" data-name="Grupo 56931">
                                  <g id="Grupo_56930" data-name="Grupo 56930">
                                    <g id="Grupo_56929" data-name="Grupo 56929">
                                      <g id="Grupo_56928" data-name="Grupo 56928">
                                        <path id="Trazado_103856" data-name="Trazado 103856" d="M362.969,93.766c-.215.363-1.374.276-2.692.538-1.325.222-2.384.714-2.708.448-.144-.131-.034-.473.393-.863a4.318,4.318,0,0,1,2.079-.957,4.266,4.266,0,0,1,2.271.162C362.843,93.31,363.061,93.592,362.969,93.766Z" transform="translate(-357.51 -92.852)" fill="#263238"/>
                                      </g>
                                    </g>
                                  </g>
                                </g>
                              </g>
                            </g>
                          </g>
                        </g>
                      </g>
                    </g>
                  </g>
                  <g id="Grupo_56939" data-name="Grupo 56939" transform="translate(5.485)">
                    <path id="Trazado_103857" data-name="Trazado 103857" d="M336.651,83.583a6.8,6.8,0,0,0,9.212,4.941c1.429-.58,2.9-1.669,4.352-1.144,1.525.552,2,2.579,3.419,3.371,2.023,1.132,4.459-.829,6.769-.635,1.783.15,3.166,1.538,4.563,2.658s3.336,2.058,4.913,1.21a20.123,20.123,0,0,0-1.6-4.344,6.768,6.768,0,0,0-3.3-3.125c-.789-.309-1.654-.418-2.409-.8-1.628-.837-2.358-2.73-3.545-4.124a7.448,7.448,0,0,0-6.319-2.532c-1.953.2-3.8,1.184-5.767,1.1-1.451-.061-2.84-.706-4.291-.682-2.826.048-4.95,2.523-6.518,4.876" transform="translate(-336.129 -79.017)" fill="#263238"/>
                  </g>
                </g>
              </g>
              <path id="Trazado_103858" data-name="Trazado 103858" d="M344.693,85.947c-1.292-.1-3.949-.368-4.823-1.29a7.611,7.611,0,0,0-7.255-2.38,6.28,6.28,0,0,0-4.528,6.01,9.029,9.029,0,0,0-6.585,6.469,10.468,10.468,0,0,0,2.253,9.477,18.758,18.758,0,0,1,1.48,2.144,15.336,15.336,0,0,0-1.6,2.433c-2.061,4.564,3.534,6.312,3.534,6.312.015,3.068,2.843,3.054,4.657,3.045,1.745-.008,2.818,4.828,4.23,4.64l-1.434-14.941a1.867,1.867,0,0,0,.661.12c3.421.06,2.528-6.409,1.42-8.082a19.385,19.385,0,0,0,2.564-4.127,13.985,13.985,0,0,0,.133-6.916C340.588,88.686,345.26,85.988,344.693,85.947Z" transform="translate(-321.17 -79.316)" fill="#263238"/>
              <g id="Grupo_56963" data-name="Grupo 56963" transform="translate(8.248 27.11)">
                <g id="Grupo_56951" data-name="Grupo 56951">
                  <g id="Grupo_56950" data-name="Grupo 56950">
                    <g id="Grupo_56949" data-name="Grupo 56949">
                      <g id="Grupo_56948" data-name="Grupo 56948">
                        <g id="Grupo_56947" data-name="Grupo 56947">
                          <g id="Grupo_56946" data-name="Grupo 56946">
                            <g id="Grupo_56945" data-name="Grupo 56945">
                              <g id="Grupo_56944" data-name="Grupo 56944">
                                <g id="Grupo_56943" data-name="Grupo 56943">
                                  <g id="Grupo_56942" data-name="Grupo 56942">
                                    <path id="Trazado_103859" data-name="Trazado 103859" d="M336.024,111.3a2.9,2.9,0,0,0-4.65-1.552c-.866.773-1.382,2.074-.836,4.252,1.457,5.807,6.987,3.147,6.955,2.978C337.473,116.873,336.649,113.7,336.024,111.3Z" transform="translate(-330.313 -109.069)" fill="#ffbe9d"/>
                                  </g>
                                </g>
                              </g>
                            </g>
                          </g>
                        </g>
                      </g>
                    </g>
                  </g>
                </g>
                <g id="Grupo_56962" data-name="Grupo 56962" transform="translate(1.609 1.806)">
                  <g id="Grupo_56961" data-name="Grupo 56961">
                    <g id="Grupo_56960" data-name="Grupo 56960">
                      <g id="Grupo_56959" data-name="Grupo 56959">
                        <g id="Grupo_56958" data-name="Grupo 56958">
                          <g id="Grupo_56957" data-name="Grupo 56957">
                            <g id="Grupo_56956" data-name="Grupo 56956">
                              <g id="Grupo_56955" data-name="Grupo 56955">
                                <g id="Grupo_56954" data-name="Grupo 56954">
                                  <g id="Grupo_56953" data-name="Grupo 56953">
                                    <g id="Grupo_56952" data-name="Grupo 56952">
                                      <path id="Trazado_103860" data-name="Trazado 103860" d="M335.342,115.418c-.031-.012-.084.1-.235.217a1.042,1.042,0,0,1-.752.206c-.669-.071-1.431-.916-1.721-1.956a3.459,3.459,0,0,1-.08-1.519,1.206,1.206,0,0,1,.567-.967.532.532,0,0,1,.667.127c.118.143.111.268.143.271s.1-.129-.006-.357a.668.668,0,0,0-.319-.307.791.791,0,0,0-.6-.007,1.468,1.468,0,0,0-.831,1.166A3.559,3.559,0,0,0,332.23,114c.331,1.16,1.205,2.105,2.106,2.137a1.113,1.113,0,0,0,.886-.385C335.366,115.562,335.364,115.424,335.342,115.418Z" transform="translate(-332.097 -111.071)" fill="#eb996e"/>
                                    </g>
                                  </g>
                                </g>
                              </g>
                            </g>
                          </g>
                        </g>
                      </g>
                    </g>
                  </g>
                </g>
              </g>
            </g>
            <g id="Grupo_56965" data-name="Grupo 56965" transform="translate(17.21 10.133)">
              <path id="Trazado_103861" data-name="Trazado 103861" d="M368.146,100.657c-.036-.044.525-.405,1.266-1.312a8.535,8.535,0,0,0,1.813-4.511,8.3,8.3,0,0,0-.324-3.345,7.18,7.18,0,0,0-2.062-3.205,8.478,8.478,0,0,0-8.292-1.614c-.272.087-.523.223-.78.329-.246.129-.479.273-.709.4l-.357.2-.006-.4a2.93,2.93,0,0,0-.73-1.9,4.66,4.66,0,0,0-1.666-1.191,6.148,6.148,0,0,0-3.873-.283c-2.49.565-4.6,1.7-6.6,1.932a6.38,6.38,0,0,1-4.5-.9,3.672,3.672,0,0,1-.882-.9,1.577,1.577,0,0,1-.2-.391,5.178,5.178,0,0,0,1.182,1.148,6.354,6.354,0,0,0,4.357.731,15.65,15.65,0,0,0,3.029-.874,27.337,27.337,0,0,1,3.522-1.154,7.814,7.814,0,0,1,2.039-.2,6.287,6.287,0,0,1,2.1.484,5.106,5.106,0,0,1,1.838,1.306,3.4,3.4,0,0,1,.846,2.2l-.363-.2c.245-.14.493-.294.757-.432.273-.114.542-.258.831-.351a8.865,8.865,0,0,1,8.741,1.735,7.527,7.527,0,0,1,2.144,3.412,8.537,8.537,0,0,1,.281,3.5,8.435,8.435,0,0,1-2,4.593,6.031,6.031,0,0,1-1.006.933A1.806,1.806,0,0,1,368.146,100.657Z" transform="translate(-340.247 -83.212)" fill="#455a64"/>
            </g>
            <g id="Grupo_56966" data-name="Grupo 56966" transform="translate(17.926 3.776)">
              <path id="Trazado_103862" data-name="Trazado 103862" d="M367.043,79.574a6.434,6.434,0,0,0-1.868-.641,4.925,4.925,0,0,0-2.221.2,4.384,4.384,0,0,0-2.286,1.662l-.221.319-.135-.361a6.786,6.786,0,0,0-5.5-4.086,8.764,8.764,0,0,0-5.29,1.529,23.448,23.448,0,0,1-4.193,2.17,6.6,6.6,0,0,1-3.174.373,4,4,0,0,1-.842-.231c-.184-.079-.276-.128-.27-.143.014-.042.4.12,1.134.193a6.893,6.893,0,0,0,3.039-.5,25.341,25.341,0,0,0,4.087-2.231,14.363,14.363,0,0,1,2.527-1.234,6.885,6.885,0,0,1,3.03-.388,7.116,7.116,0,0,1,5.832,4.409l-.356-.042a4.664,4.664,0,0,1,2.522-1.75,4.984,4.984,0,0,1,2.357-.117,4.231,4.231,0,0,1,1.414.539C366.918,79.433,367.055,79.56,367.043,79.574Z" transform="translate(-341.041 -76.166)" fill="#455a64"/>
            </g>
            <path id="Trazado_103863" data-name="Trazado 103863" d="M356.342,114.429a1.965,1.965,0,0,0-1.585-.46,2.321,2.321,0,0,0-1.52,1.11l-.023.034c-.014.025-.037.048-.05.074l.022-.015a1.113,1.113,0,0,0-.17.681,1.638,1.638,0,0,0,.943,1.22,2.073,2.073,0,0,0,2.363-.342A1.693,1.693,0,0,0,356.342,114.429Z" transform="translate(-324.287 -76.089)" fill="#e8505b"/>
            <g id="Grupo_56967" data-name="Grupo 56967" transform="translate(28.427 38.712)">
              <path id="Trazado_103864" data-name="Trazado 103864" d="M356.76,117.327c-.07.014-.158-.268-.4-.645a2.829,2.829,0,0,0-2.928-1.332c-.443.068-.712.186-.749.124s.189-.281.669-.447a2.669,2.669,0,0,1,3.3,1.5C356.847,117,356.816,117.321,356.76,117.327Z" transform="translate(-352.682 -114.893)" fill="#263238"/>
            </g>
            <g id="Grupo_56968" data-name="Grupo 56968" transform="translate(10.596 40.899)">
              <path id="Trazado_103865" data-name="Trazado 103865" d="M336.412,118.68c.044-.028.258.451-.08,1.135a1.837,1.837,0,0,1-.962.87,1.866,1.866,0,0,1-2.449-1.543,1.838,1.838,0,0,1,.368-1.243c.471-.6,1-.614.99-.562.031.07-.4.2-.714.748a1.625,1.625,0,0,0-.214,1.011,1.5,1.5,0,0,0,1.875,1.18,1.623,1.623,0,0,0,.82-.63C336.4,119.126,336.335,118.683,336.412,118.68Z" transform="translate(-332.916 -117.318)" fill="#e8505b"/>
            </g>
            <g id="Grupo_56969" data-name="Grupo 56969" transform="translate(8.991 40.231)">
              <path id="Trazado_103866" data-name="Trazado 103866" d="M333.192,118.26c.051.023-.027.308-.419.5a1.138,1.138,0,0,1-.75.074,1.2,1.2,0,0,1-.825-1.525,1.139,1.139,0,0,1,.472-.587c.375-.224.656-.133.648-.078,0,.07-.222.117-.446.342a.858.858,0,0,0,.791,1.462C332.974,118.381,333.136,118.218,333.192,118.26Z" transform="translate(-331.137 -116.577)" fill="#e8505b"/>
            </g>
          </g>
          <g id="Grupo_56979" data-name="Grupo 56979" transform="translate(10.196 46.688)">
            <path id="Trazado_103867" data-name="Trazado 103867" d="M344.406,204.663s22.335,1.3,35.537,1.417c10.226.094,14.783-2.622,16.828-9.192,1.716-5.516-1.972-16.1-1.972-16.1-6.915.035-11.182.988-15.632,3.073l1.186,4.837-36.012,3.1Z" transform="translate(-324.246 -129.321)" fill="#ffbe9d"/>
            <g id="Grupo_56971" data-name="Grupo 56971" transform="translate(55.896 59.246)">
              <path id="Trazado_103868" data-name="Trazado 103868" d="M391.746,194.708a13.023,13.023,0,0,0-7.718-5.262,3.186,3.186,0,0,1,1.433.125,9.558,9.558,0,0,1,5.646,3.849A3.2,3.2,0,0,1,391.746,194.708Z" transform="translate(-384.027 -189.41)" fill="#eb996e"/>
            </g>
            <g id="Grupo_56978" data-name="Grupo 56978">
              <path id="Trazado_103869" data-name="Trazado 103869" d="M334.047,180.808h0a43.2,43.2,0,0,0-11.982,5.049l5.395,14.672c1.8,4.814,7.323,7.181,11.7,4.683,6.793-3.881,9.189-15.213,9.189-15.213l7.466-32.365-12.368-7.75-9.4,30.925" transform="translate(-322.065 -126.294)" fill="#ffbe9d"/>
              <g id="Grupo_56977" data-name="Grupo 56977" transform="translate(9.874)">
                <path id="Trazado_103870" data-name="Trazado 103870" d="M345.5,147.343,346,136.7l-2.762-10.781c-.153-.6-.228-1.342.255-1.706a1.311,1.311,0,0,1,1.667.052c.756.773,4.363,10.242,4.363,10.242s5.473-3.29,6.45-3.45,2.195,2.785,2.271,3.018a17.166,17.166,0,0,1,.01,1.978s3.385.1,3.688.566a11.622,11.622,0,0,1,.391,2.871s1.431.459,1.662,1.544.692,2.87.017,3.262-2.1,1.175-2.1,1.175-.574,5.523-.722,6.025a34.251,34.251,0,0,1-3.321,3.6Z" transform="translate(-334.001 -123.754)" fill="#ffbe9d"/>
                <g id="Grupo_56972" data-name="Grupo 56972">
                  <path id="Trazado_103871" data-name="Trazado 103871" d="M333.011,202.873c.014-.03.336.192,1.036.419a7.058,7.058,0,0,0,3.189.253,8.9,8.9,0,0,0,4.617-2.129,21.4,21.4,0,0,0,4.292-5.434,24.383,24.383,0,0,0,1.672-3.728,38.152,38.152,0,0,0,1.157-4.324c.708-3.04,1.471-6.313,2.281-9.791,1.628-6.959,3.449-14.738,5.409-23.118l.014-.062.047-.046c.621-.609,1.245-1.236,1.863-1.88.308-.323.616-.65.91-.987a6.361,6.361,0,0,0,.409-.51c.106-.108.109-.326.151-.557.244-1.806.435-3.672.635-5.552l.013-.119.106-.06,1.719-.963c.131-.078.324-.172.405-.237a.5.5,0,0,0,.162-.3,2.881,2.881,0,0,0,.011-.935,14.031,14.031,0,0,0-.4-1.961,2.414,2.414,0,0,0-1.436-1.158l-.156-.058-.006-.157c-.023-.522-.058-1.06-.116-1.595-.031-.267-.065-.537-.12-.792a1.545,1.545,0,0,0-.1-.335c-.028-.059-.015-.014-.056-.052a.91.91,0,0,0-.151-.064,15.928,15.928,0,0,0-3.3-.373l-.236-.012.007-.232c.017-.557.041-1.178.015-1.763a1.851,1.851,0,0,0-.21-.6c-.1-.217-.2-.432-.31-.643a7.731,7.731,0,0,0-.738-1.192,1.994,1.994,0,0,0-.458-.449.438.438,0,0,0-.48-.055,11.685,11.685,0,0,0-1.272.583c-1.684.876-3.319,1.833-4.924,2.786l-.235.14-.1-.254q-1.28-3.2-2.526-6.325l-1.236-3.1a1.284,1.284,0,0,0-.991-.928,1,1,0,0,0-1.173.431,1.048,1.048,0,0,0-.137.642c.026.2.125.505.184.751q.205.781.409,1.554.406,1.547.805,3.065l1.563,5.956.008.032,0,.033c-.18,3.7-.352,7.258-.515,10.644l0,.024-.007.024c-3.408,11.093-6.236,20.293-8.218,26.742-1,3.2-1.778,5.708-2.318,7.444q-.4,1.26-.624,1.952c-.144.44-.233.663-.233.663s.05-.235.175-.681q.2-.7.568-1.968l2.217-7.475c1.943-6.461,4.716-15.677,8.059-26.79l-.008.047c.153-3.385.315-6.94.483-10.645l.006.063q-.771-2.915-1.577-5.951-.4-1.518-.812-3.064-.2-.773-.411-1.553c-.064-.276-.146-.484-.2-.818a1.509,1.509,0,0,1,.195-.918,1.4,1.4,0,0,1,.731-.614,1.741,1.741,0,0,1,.933-.03,1.848,1.848,0,0,1,.826.421,1.825,1.825,0,0,1,.486.778q.614,1.536,1.239,3.094l2.532,6.324-.337-.114c1.612-.959,3.245-1.915,4.95-2.8a11.981,11.981,0,0,1,1.339-.611,1.024,1.024,0,0,1,.455-.064.985.985,0,0,1,.428.171,2.449,2.449,0,0,1,.571.552,8.169,8.169,0,0,1,.788,1.268c.113.219.22.44.32.666a2.2,2.2,0,0,1,.251.766c.027.64,0,1.24-.014,1.811l-.228-.244a15.909,15.909,0,0,1,3.445.4,1.291,1.291,0,0,1,.233.1.579.579,0,0,1,.233.235,1.9,1.9,0,0,1,.149.457c.061.285.1.563.127.839.06.553.1,1.093.118,1.63l-.162-.214a2.851,2.851,0,0,1,1.724,1.425,13.622,13.622,0,0,1,.432,2.088,3.276,3.276,0,0,1-.022,1.1.958.958,0,0,1-.327.558,4.8,4.8,0,0,1-.46.273l-1.728.966.118-.178c-.2,1.885-.394,3.741-.644,5.57l-.058.35a.9.9,0,0,1-.167.393,6.155,6.155,0,0,1-.445.554c-.3.345-.614.676-.926,1-.624.649-1.251,1.276-1.877,1.888l.061-.108-5.475,23.1-2.327,9.78a38.153,38.153,0,0,1-1.193,4.351,24.634,24.634,0,0,1-1.717,3.761A21.417,21.417,0,0,1,342,201.577a8.973,8.973,0,0,1-4.74,2.115,6.951,6.951,0,0,1-3.232-.327,4.781,4.781,0,0,1-.767-.347A1.581,1.581,0,0,1,333.011,202.873Z" transform="translate(-333.011 -123.734)" fill="#eb996e"/>
                </g>
                <g id="Grupo_56973" data-name="Grupo 56973" transform="translate(19.584 12.022)">
                  <path id="Trazado_103872" data-name="Trazado 103872" d="M359.391,137.32c0,.067-.306.1-.782.123a9.032,9.032,0,0,0-1.8.213,3.552,3.552,0,0,0-1.531.818c-.33.308-.474.569-.54.54s-.017-.346.292-.761a3.035,3.035,0,0,1,1.661-1.052,5.242,5.242,0,0,1,1.928-.09C359.105,137.174,359.395,137.257,359.391,137.32Z" transform="translate(-354.72 -137.062)" fill="#eb996e"/>
                </g>
                <g id="Grupo_56974" data-name="Grupo 56974" transform="translate(21.512 11.293)">
                  <path id="Trazado_103873" data-name="Trazado 103873" d="M356.953,137.34c-.121-.046-.129-.325-.017-.622s.3-.5.422-.458.129.325.017.622S357.075,137.385,356.953,137.34Z" transform="translate(-356.857 -136.253)" fill="#eb996e"/>
                </g>
                <g id="Grupo_56975" data-name="Grupo 56975" transform="translate(23.928 15.514)">
                  <path id="Trazado_103874" data-name="Trazado 103874" d="M364.09,141.074a8.471,8.471,0,0,1-2.677.371,1.829,1.829,0,0,0-1.49.717c-.238.368-.159.675-.227.694-.043.042-.288-.3-.069-.844a1.473,1.473,0,0,1,.645-.716,2.858,2.858,0,0,1,1.085-.318A7.618,7.618,0,0,1,364.09,141.074Z" transform="translate(-359.536 -140.932)" fill="#eb996e"/>
                </g>
                <g id="Grupo_56976" data-name="Grupo 56976" transform="translate(27.57 18.901)">
                  <path id="Trazado_103875" data-name="Trazado 103875" d="M363.883,144.687c.13.005.2.672.168,1.489s-.172,1.474-.3,1.469-.2-.673-.168-1.49S363.753,144.681,363.883,144.687Z" transform="translate(-363.573 -144.687)" fill="#eb996e"/>
                </g>
              </g>
            </g>
          </g>
          <g id="Grupo_56981" data-name="Grupo 56981" transform="translate(51.7 84.698)">
            <path id="Trazado_103876" data-name="Trazado 103876" d="M368.074,171.058l.8-2.766a.755.755,0,0,1,1.265-.318l1.047,1.068.654-2.6a.755.755,0,0,1,1.414-.143l1.477,3.08Z" transform="translate(-368.074 -165.869)" fill="#fff"/>
            <g id="Grupo_56980" data-name="Grupo 56980" transform="translate(0.186 4.661)">
              <path id="Trazado_103877" data-name="Trazado 103877" d="M374.766,171.068a23.849,23.849,0,0,1-6.485,1.606,23.848,23.848,0,0,1,6.485-1.606Z" transform="translate(-368.28 -171.036)" fill="#fff"/>
            </g>
          </g>
          <g id="Grupo_56982" data-name="Grupo 56982" transform="translate(2.309 73.97)">
            <path id="Trazado_103878" data-name="Trazado 103878" d="M315.74,153.977c.022.018-.336.346-.8,1.072a9.175,9.175,0,0,0-1.223,3.406,24.626,24.626,0,0,0-.162,5.4c.1,2.042.264,4.284.514,6.63a116.334,116.334,0,0,0,1.9,11.926c.321,1.513.61,2.731.81,3.572.089.373.166.693.232.969.051.222.069.341.069.341s-.041-.113-.1-.331l-.267-.961c-.222-.836-.53-2.05-.868-3.562a105.662,105.662,0,0,1-1.961-11.935c-.25-2.35-.411-4.6-.5-6.641a24.1,24.1,0,0,1,.2-5.435,8.973,8.973,0,0,1,1.293-3.423A5.447,5.447,0,0,1,315.74,153.977Z" transform="translate(-313.322 -153.977)" fill="#fff"/>
          </g>
          <g id="Grupo_56983" data-name="Grupo 56983" transform="translate(4.726 61.705)">
            <path id="Trazado_103879" data-name="Trazado 103879" d="M334.986,140.382a1.146,1.146,0,0,1-.2.11l-.6.284c-.516.246-1.261.609-2.157,1.1a77.763,77.763,0,0,0-6.778,4.236c-2.575,1.771-4.86,3.444-6.527,4.636l-1.98,1.4-.546.373a1.1,1.1,0,0,1-.2.119,1.054,1.054,0,0,1,.175-.15l.525-.4,1.945-1.451c1.647-1.219,3.92-2.91,6.5-4.684a67.732,67.732,0,0,1,6.823-4.2c.906-.482,1.662-.827,2.189-1.054l.611-.252A.989.989,0,0,1,334.986,140.382Z" transform="translate(-316.002 -140.381)" fill="#fff"/>
          </g>
          <g id="Grupo_56984" data-name="Grupo 56984" transform="translate(49.999 60.244)">
            <path id="Trazado_103880" data-name="Trazado 103880" d="M382.921,146.092a.729.729,0,0,1-.151-.114l-.406-.352a16.153,16.153,0,0,0-1.58-1.179,32.1,32.1,0,0,0-5.8-2.934,58.9,58.9,0,0,0-6.184-2.058c-.8-.223-1.459-.387-1.912-.5l-.521-.133a.713.713,0,0,1-.179-.06.731.731,0,0,1,.188.023l.53.1c.458.09,1.12.235,1.93.442a50.082,50.082,0,0,1,6.219,2.012,29.423,29.423,0,0,1,5.8,3A11.46,11.46,0,0,1,382.921,146.092Z" transform="translate(-366.188 -138.762)" fill="#fff"/>
          </g>
          <g id="Grupo_56985" data-name="Grupo 56985" transform="translate(20.631 128.728)">
            <path id="Trazado_103881" data-name="Trazado 103881" d="M336.967,222.383a1.278,1.278,0,0,1-.352-.121,5.937,5.937,0,0,1-.895-.478,4.352,4.352,0,0,1-1.962-2.657,5.2,5.2,0,0,1,.349-3.3,4.551,4.551,0,0,1,.522-.872,1.229,1.229,0,0,1,.251-.274,10.515,10.515,0,0,0-.651,1.2,5.343,5.343,0,0,0-.288,3.206,4.391,4.391,0,0,0,1.854,2.589C336.487,222.155,336.982,222.35,336.967,222.383Z" transform="translate(-333.633 -214.679)" fill="#fff"/>
          </g>
          <g id="Grupo_56986" data-name="Grupo 56986" transform="translate(21.082 126.665)">
            <path id="Trazado_103882" data-name="Trazado 103882" d="M334.145,212.392a7.807,7.807,0,0,1,.678,2.318,7.812,7.812,0,0,1-.678-2.318Z" transform="translate(-334.133 -212.392)" fill="#fff"/>
          </g>
          <g id="Grupo_57040" data-name="Grupo 57040" transform="translate(10.885 136.418)">
            <g id="Grupo_56987" data-name="Grupo 56987">
              <path id="Trazado_103883" data-name="Trazado 103883" d="M345.234,415.706l27.518-.138-.5-95.133L372,223.666l-37.268-.463-6.7,12.631a45.354,45.354,0,0,0-5.155,16.37c-.468,4.372,2.807,18.628,3.951,22.256l10.259,32.531Z" transform="translate(-322.829 -223.203)" fill="#263238"/>
              <path id="Trazado_103884" data-name="Trazado 103884" d="M383.208,223.849l30.235,82.426a38.022,38.022,0,0,1-3.727,32.2L374.611,407,354.873,382.3l29.372-61.381-25.894-41.951,4.357-55.035,12.2-.2Z" transform="translate(-325.966 -223.256)" fill="#263238"/>
            </g>
            <g id="Grupo_56988" data-name="Grupo 56988" transform="translate(46.648 28.207)">
              <path id="Trazado_103885" data-name="Trazado 103885" d="M374.546,254.471s.023.143.042.423c.019.3.045.712.078,1.242.06,1.114.145,2.721.254,4.778.2,4.172.492,10.172.85,17.578.342,7.429.749,16.265,1.2,26.073.22,4.907.452,10.058.693,15.4.172,2.669.093,5.39.125,8.15q.012,4.141.025,8.395c.038,22.672.073,43.192.1,58.071-.01,7.414-.018,13.42-.024,17.6-.013,2.06-.024,3.669-.031,4.785-.008.53-.014.944-.019,1.244-.007.281-.023.424-.023.424s-.016-.143-.025-.424l-.026-1.244c-.014-1.116-.033-2.723-.058-4.784-.03-4.177-.073-10.182-.125-17.6-.061-14.877-.143-35.4-.234-58.064q-.012-4.252-.024-8.394c-.03-2.76.05-5.481-.118-8.15-.23-5.339-.453-10.489-.665-15.4-.413-9.809-.786-18.646-1.1-26.074-.295-7.407-.534-13.409-.7-17.583-.072-2.06-.128-3.666-.167-4.782-.013-.53-.024-.944-.031-1.244C374.536,254.615,374.546,254.471,374.546,254.471Z" transform="translate(-374.54 -254.471)" fill="#455a64"/>
            </g>
            <g id="Grupo_56989" data-name="Grupo 56989" transform="translate(45.944 2.22)">
              <path id="Trazado_103886" data-name="Trazado 103886" d="M373.781,225.664a3.423,3.423,0,0,1,.19.9c.094.58.206,1.423.326,2.466.242,2.087.494,4.98.641,8.182s.152,6.108.1,8.208c-.025,1.05-.061,1.9-.1,2.485a3.427,3.427,0,0,1-.11.909,28,28,0,0,1-.12-3.4c-.033-2.1-.094-4.991-.237-8.186s-.345-6.082-.5-8.173A27.873,27.873,0,0,1,373.781,225.664Z" transform="translate(-373.759 -225.664)" fill="#455a64"/>
            </g>
            <g id="Grupo_56990" data-name="Grupo 56990" transform="translate(38.905 3.839)">
              <path id="Trazado_103887" data-name="Trazado 103887" d="M366.953,227.7a2.212,2.212,0,0,0-.61,1.028,1.168,1.168,0,0,0,.35,1.1,1.2,1.2,0,0,0,2.05-.939,1.17,1.17,0,0,0-.6-.983,2.2,2.2,0,0,0-1.177-.209c-.012-.024.087-.12.32-.188a1.54,1.54,0,0,1,1.893,1.358,1.615,1.615,0,0,1-2.782,1.274,1.54,1.54,0,0,1,.209-2.32C366.807,227.684,366.943,227.671,366.953,227.7Z" transform="translate(-365.956 -227.459)" fill="#455a64"/>
            </g>
            <g id="Grupo_56991" data-name="Grupo 56991" transform="translate(11.021 2.443)">
              <path id="Trazado_103888" data-name="Trazado 103888" d="M349.49,225.911a2.692,2.692,0,0,1,.247.863,8.549,8.549,0,0,1,.08,2.451,9.872,9.872,0,0,1-1.041,3.5,9.253,9.253,0,0,1-7.05,5.061,9.883,9.883,0,0,1-3.644-.132,8.56,8.56,0,0,1-2.3-.86,2.69,2.69,0,0,1-.739-.511,15.555,15.555,0,0,0,3.1,1.045,9.471,9.471,0,0,0,11.34-8.139A15.645,15.645,0,0,0,349.49,225.911Z" transform="translate(-335.045 -225.911)" fill="#455a64"/>
            </g>
            <g id="Grupo_56992" data-name="Grupo 56992" transform="translate(53.547 2.365)">
              <path id="Trazado_103889" data-name="Trazado 103889" d="M389.5,233.8a3.652,3.652,0,0,1-1.733-.2,8.053,8.053,0,0,1-5.468-6.025,3.651,3.651,0,0,1-.037-1.745c.084,0,.088.663.361,1.669a8.719,8.719,0,0,0,5.251,5.786C388.85,233.648,389.51,233.717,389.5,233.8Z" transform="translate(-382.187 -225.825)" fill="#455a64"/>
            </g>
            <g id="Grupo_56993" data-name="Grupo 56993" transform="translate(60.276 96.49)">
              <path id="Trazado_103890" data-name="Trazado 103890" d="M400.979,332.878a5.716,5.716,0,0,1-1.6,1.268,7.369,7.369,0,0,1-2.052.9,4.947,4.947,0,0,1-2.769-.073,8.06,8.06,0,0,1-3.855-3.067,7.148,7.148,0,0,1-1.057-1.736,11.125,11.125,0,0,1,1.319,1.531,8.55,8.55,0,0,0,3.736,2.824,5.784,5.784,0,0,0,4.515-.665A18.589,18.589,0,0,1,400.979,332.878Z" transform="translate(-389.647 -330.165)" fill="#455a64"/>
            </g>
            <g id="Grupo_56994" data-name="Grupo 56994" transform="translate(59.402 96.994)">
              <path id="Trazado_103891" data-name="Trazado 103891" d="M394,338.2a44.738,44.738,0,0,1-5.312-7.47A44.832,44.832,0,0,1,394,338.2Z" transform="translate(-388.677 -330.724)" fill="#455a64"/>
            </g>
            <g id="Grupo_56995" data-name="Grupo 56995" transform="translate(17.446 28.908)">
              <path id="Trazado_103892" data-name="Trazado 103892" d="M343.212,257.747c-.12.049-.441-.471-.717-1.16s-.4-1.286-.281-1.335.441.471.717,1.16S343.332,257.7,343.212,257.747Z" transform="translate(-342.168 -255.249)" fill="#fafafa"/>
            </g>
            <g id="Grupo_56996" data-name="Grupo 56996" transform="translate(35.722 31.905)">
              <path id="Trazado_103893" data-name="Trazado 103893" d="M362.662,260.567c-.13,0-.235-.447-.235-1s.106-1,.235-1,.235.447.235,1S362.792,260.567,362.662,260.567Z" transform="translate(-362.427 -258.571)" fill="#fafafa"/>
            </g>
            <g id="Grupo_56997" data-name="Grupo 56997" transform="translate(28.445 40.89)">
              <path id="Trazado_103894" data-name="Trazado 103894" d="M354.695,271.026c-.129.009-.272-.542-.319-1.231s.021-1.255.15-1.264.272.543.319,1.232S354.825,271.018,354.695,271.026Z" transform="translate(-354.361 -268.531)" fill="#fafafa"/>
            </g>
            <g id="Grupo_56998" data-name="Grupo 56998" transform="translate(13.829 48.987)">
              <path id="Trazado_103895" data-name="Trazado 103895" d="M339.991,278.89c-.107.079-.479-.253-.962-.6s-.909-.6-.867-.731.6-.049,1.144.351S340.1,278.819,339.991,278.89Z" transform="translate(-338.159 -277.506)" fill="#fafafa"/>
            </g>
            <g id="Grupo_56999" data-name="Grupo 56999" transform="translate(38.748 57.679)">
              <path id="Trazado_103896" data-name="Trazado 103896" d="M365.819,288.65c-.108-.072.028-.465.3-.879s.586-.69.695-.619-.028.466-.3.88S365.926,288.722,365.819,288.65Z" transform="translate(-365.782 -287.142)" fill="#fafafa"/>
            </g>
            <g id="Grupo_57000" data-name="Grupo 57000" transform="translate(24.243 58.356)">
              <path id="Trazado_103897" data-name="Trazado 103897" d="M349.938,291.219c-.13,0-.235-.745-.235-1.664s.105-1.663.235-1.663.235.744.235,1.663S350.068,291.219,349.938,291.219Z" transform="translate(-349.703 -287.892)" fill="#fafafa"/>
            </g>
            <g id="Grupo_57001" data-name="Grupo 57001" transform="translate(18 70.445)">
              <path id="Trazado_103898" data-name="Trazado 103898" d="M344.623,302.65c-.076.105-.548-.107-1.053-.474s-.853-.751-.778-.855.548.107,1.054.474S344.7,302.545,344.623,302.65Z" transform="translate(-342.783 -301.293)" fill="#fafafa"/>
            </g>
            <g id="Grupo_57002" data-name="Grupo 57002" transform="translate(32.79 75.26)">
              <path id="Trazado_103899" data-name="Trazado 103899" d="M360.681,306.694c.052.119-.24.364-.653.548s-.792.236-.844.118.24-.364.653-.548S360.628,306.576,360.681,306.694Z" transform="translate(-359.177 -306.631)" fill="#fafafa"/>
            </g>
            <g id="Grupo_57003" data-name="Grupo 57003" transform="translate(22.789 88.462)">
              <path id="Trazado_103900" data-name="Trazado 103900" d="M349.781,324.6c-.116.058-.583-.641-1.042-1.559s-.738-1.71-.622-1.769.582.64,1.042,1.559S349.9,324.538,349.781,324.6Z" transform="translate(-348.091 -321.265)" fill="#fafafa"/>
            </g>
            <g id="Grupo_57004" data-name="Grupo 57004" transform="translate(40.417 87.795)">
              <path id="Trazado_103901" data-name="Trazado 103901" d="M367.663,323.027c-.114-.061.09-.67.458-1.359s.758-1.2.872-1.137-.091.668-.458,1.358S367.778,323.087,367.663,323.027Z" transform="translate(-367.632 -320.526)" fill="#fafafa"/>
            </g>
            <g id="Grupo_57005" data-name="Grupo 57005" transform="translate(32.928 101.104)">
              <path id="Trazado_103902" data-name="Trazado 103902" d="M359.864,338.444c-.133-.02-.123-.732-.262-1.579s-.358-1.522-.238-1.582.558.578.7,1.509S359.986,338.47,359.864,338.444Z" transform="translate(-359.331 -335.279)" fill="#fafafa"/>
            </g>
            <g id="Grupo_57006" data-name="Grupo 57006" transform="translate(24.294 110.41)">
              <path id="Trazado_103903" data-name="Trazado 103903" d="M351.44,347.439c-.1.088-.546-.251-1-.757s-.754-.985-.659-1.073.547.252,1.006.757S351.537,347.352,351.44,347.439Z" transform="translate(-349.759 -345.596)" fill="#fafafa"/>
            </g>
            <g id="Grupo_57007" data-name="Grupo 57007" transform="translate(44.129 113.426)">
              <path id="Trazado_103904" data-name="Trazado 103904" d="M371.762,350.8c-.092-.09.239-.577.741-1.086s.983-.848,1.075-.757-.239.577-.741,1.086S371.854,350.888,371.762,350.8Z" transform="translate(-371.747 -348.939)" fill="#fafafa"/>
            </g>
            <g id="Grupo_57008" data-name="Grupo 57008" transform="translate(33.597 124.234)">
              <path id="Trazado_103905" data-name="Trazado 103905" d="M360.169,363.921c-.128-.019-.13-.707,0-1.535s.332-1.485.46-1.465.13.706,0,1.535S360.3,363.941,360.169,363.921Z" transform="translate(-360.072 -360.921)" fill="#fafafa"/>
            </g>
            <g id="Grupo_57009" data-name="Grupo 57009" transform="translate(25.278 130.714)">
              <path id="Trazado_103906" data-name="Trazado 103906" d="M352.235,370.424c-.112.066-.506-.4-.88-1.038s-.586-1.211-.474-1.277.506.4.88,1.039S352.347,370.359,352.235,370.424Z" transform="translate(-350.85 -368.103)" fill="#fafafa"/>
            </g>
            <g id="Grupo_57010" data-name="Grupo 57010" transform="translate(41.267 140.335)">
              <path id="Trazado_103907" data-name="Trazado 103907" d="M370.91,378.791c.075.106-.384.564-1.028,1.024s-1.224.748-1.3.643.384-.564,1.027-1.024S370.834,378.685,370.91,378.791Z" transform="translate(-368.574 -378.769)" fill="#fafafa"/>
            </g>
            <g id="Grupo_57011" data-name="Grupo 57011" transform="translate(29.447 146.523)">
              <path id="Trazado_103908" data-name="Trazado 103908" d="M355.518,388.962c-.126-.045.035-.772.11-1.67s.052-1.64.184-1.663.373.737.284,1.7S355.634,389.01,355.518,388.962Z" transform="translate(-355.471 -385.628)" fill="#fafafa"/>
            </g>
            <g id="Grupo_57012" data-name="Grupo 57012" transform="translate(33.769 161.813)">
              <path id="Trazado_103909" data-name="Trazado 103909" d="M361.619,404.254c-.1.081-.482-.226-.849-.685s-.584-.9-.483-.979.482.226.849.686S361.72,404.174,361.619,404.254Z" transform="translate(-360.262 -402.578)" fill="#fafafa"/>
            </g>
            <g id="Grupo_57013" data-name="Grupo 57013" transform="translate(27.12 169.971)">
              <path id="Trazado_103910" data-name="Trazado 103910" d="M354.742,414.289c-.107.073-.6-.463-1.109-1.2s-.828-1.39-.722-1.464.6.463,1.109,1.2S354.849,414.215,354.742,414.289Z" transform="translate(-352.892 -411.621)" fill="#fafafa"/>
            </g>
            <g id="Grupo_57014" data-name="Grupo 57014" transform="translate(45.855 159.826)">
              <path id="Trazado_103911" data-name="Trazado 103911" d="M373.743,401.71c-.122-.046-.108-.381.03-.748s.348-.629.469-.583.108.38-.029.748S373.865,401.755,373.743,401.71Z" transform="translate(-373.66 -400.374)" fill="#fafafa"/>
            </g>
            <g id="Grupo_57015" data-name="Grupo 57015" transform="translate(38.419 179.959)">
              <path id="Trazado_103912" data-name="Trazado 103912" d="M365.45,425.687c-.119-.062.107-.7.282-1.508s.249-1.48.383-1.486.272.714.076,1.588S365.559,425.749,365.45,425.687Z" transform="translate(-365.417 -422.693)" fill="#fafafa"/>
            </g>
            <g id="Grupo_57016" data-name="Grupo 57016" transform="translate(42.415 41.706)">
              <path id="Trazado_103913" data-name="Trazado 103913" d="M370.749,271.261c-.118.055-.4-.309-.639-.811s-.331-.954-.214-1.009.4.308.639.81S370.866,271.206,370.749,271.261Z" transform="translate(-369.846 -269.435)" fill="#fafafa"/>
            </g>
            <g id="Grupo_57017" data-name="Grupo 57017" transform="translate(28.282 15.418)">
              <path id="Trazado_103914" data-name="Trazado 103914" d="M356.7,240.313c.071.115-.564.622-1.234,1.343s-1.142,1.382-1.261,1.319.193-.871.918-1.64S356.637,240.2,356.7,240.313Z" transform="translate(-354.18 -240.294)" fill="#fafafa"/>
            </g>
            <g id="Grupo_57018" data-name="Grupo 57018" transform="translate(40.762 12.764)">
              <path id="Trazado_103915" data-name="Trazado 103915" d="M369.2,239.692c-.13.027-.343-.509-.656-1.128s-.608-1.112-.508-1.2.588.307.928.991S369.322,239.671,369.2,239.692Z" transform="translate(-368.014 -237.352)" fill="#fafafa"/>
            </g>
            <g id="Grupo_57019" data-name="Grupo 57019" transform="translate(7.174 21.768)">
              <path id="Trazado_103916" data-name="Trazado 103916" d="M330.828,249.836c-.121-.047,0-.646.275-1.336s.592-1.211.713-1.163,0,.646-.276,1.336S330.948,249.883,330.828,249.836Z" transform="translate(-330.782 -247.334)" fill="#fafafa"/>
            </g>
            <g id="Grupo_57020" data-name="Grupo 57020" transform="translate(6.334 36.211)">
              <path id="Trazado_103917" data-name="Trazado 103917" d="M331.858,265.027c-.083.1-.6-.192-1.148-.651s-.931-.913-.848-1.012.6.192,1.149.651S331.941,264.928,331.858,265.027Z" transform="translate(-329.85 -263.344)" fill="#fafafa"/>
            </g>
            <g id="Grupo_57021" data-name="Grupo 57021" transform="translate(30.402 2.956)">
              <path id="Trazado_103918" data-name="Trazado 103918" d="M357.261,228.148c-.121.048-.367-.285-.551-.744s-.235-.871-.115-.919.367.285.551.744S357.381,228.1,357.261,228.148Z" transform="translate(-356.53 -226.48)" fill="#fafafa"/>
            </g>
            <g id="Grupo_57022" data-name="Grupo 57022" transform="translate(52.865 8.957)">
              <path id="Trazado_103919" data-name="Trazado 103919" d="M381.519,235.459c-.126-.028-.115-.571.026-1.213s.357-1.141.483-1.113.116.571-.025,1.213S381.646,235.487,381.519,235.459Z" transform="translate(-381.431 -233.132)" fill="#fafafa"/>
            </g>
            <g id="Grupo_57023" data-name="Grupo 57023" transform="translate(58.042 18.761)">
              <path id="Trazado_103920" data-name="Trazado 103920" d="M387.21,246.831c-.12-.05.043-.723.364-1.5s.68-1.374.8-1.325-.044.723-.365,1.5S387.33,246.88,387.21,246.831Z" transform="translate(-387.17 -244)" fill="#fafafa"/>
            </g>
            <g id="Grupo_57024" data-name="Grupo 57024" transform="translate(52.896 26.911)">
              <path id="Trazado_103921" data-name="Trazado 103921" d="M382.991,256.034c-.116.058-.546-.566-.959-1.393s-.654-1.543-.539-1.6.546.566.959,1.392S383.107,255.975,382.991,256.034Z" transform="translate(-381.465 -253.035)" fill="#fafafa"/>
            </g>
            <g id="Grupo_57025" data-name="Grupo 57025" transform="translate(62.186 36.062)">
              <path id="Trazado_103922" data-name="Trazado 103922" d="M391.818,265.344c-.121-.047-.033-.568.2-1.165s.514-1.044.635-1,.033.567-.2,1.165S391.939,265.39,391.818,265.344Z" transform="translate(-391.764 -263.178)" fill="#fafafa"/>
            </g>
            <g id="Grupo_57026" data-name="Grupo 57026" transform="translate(54.377 45.036)">
              <path id="Trazado_103923" data-name="Trazado 103923" d="M383.984,274.469c-.11.069-.385-.174-.615-.541s-.327-.721-.216-.79.385.174.615.541S384.094,274.4,383.984,274.469Z" transform="translate(-383.107 -273.126)" fill="#fafafa"/>
            </g>
            <g id="Grupo_57027" data-name="Grupo 57027" transform="translate(54.568 60.845)">
              <path id="Trazado_103924" data-name="Trazado 103924" d="M385.5,292.992c-.1.088-.657-.362-1.254-1s-1-1.236-.909-1.324.657.362,1.254,1.005S385.591,292.9,385.5,292.992Z" transform="translate(-383.319 -290.652)" fill="#fafafa"/>
            </g>
            <g id="Grupo_57028" data-name="Grupo 57028" transform="translate(64.051 51.193)">
              <path id="Trazado_103925" data-name="Trazado 103925" d="M395.68,282.29c-.1.08-.595-.376-1.1-1.019s-.833-1.23-.731-1.31.594.376,1.1,1.02S395.782,282.21,395.68,282.29Z" transform="translate(-393.831 -279.952)" fill="#fafafa"/>
            </g>
            <g id="Grupo_57029" data-name="Grupo 57029" transform="translate(70.89 64.027)">
              <path id="Trazado_103926" data-name="Trazado 103926" d="M401.445,297.007c-.117-.056.087-.733.457-1.513s.764-1.368.882-1.312-.088.732-.457,1.513S401.563,297.062,401.445,297.007Z" transform="translate(-401.412 -294.179)" fill="#fafafa"/>
            </g>
            <g id="Grupo_57030" data-name="Grupo 57030" transform="translate(58.077 75.793)">
              <path id="Trazado_103927" data-name="Trazado 103927" d="M389.376,309.247c-.115.07-.533-.431-1.114-.963s-1.109-.914-1.048-1.033.733.1,1.367.688S389.486,309.187,389.376,309.247Z" transform="translate(-387.209 -307.222)" fill="#fafafa"/>
            </g>
            <g id="Grupo_57031" data-name="Grupo 57031" transform="translate(58.914 88.896)">
              <path id="Trazado_103928" data-name="Trazado 103928" d="M390.132,321.982c0,.13-.447.235-1,.235s-1-.1-1-.235.447-.234,1-.234S390.132,321.852,390.132,321.982Z" transform="translate(-388.136 -321.747)" fill="#fafafa"/>
            </g>
            <g id="Grupo_57032" data-name="Grupo 57032" transform="translate(71.858 83.308)">
              <path id="Trazado_103929" data-name="Trazado 103929" d="M402.516,318.214c-.114-.07.118-.632.292-1.341s.241-1.312.374-1.32.281.645.081,1.434S402.619,318.285,402.516,318.214Z" transform="translate(-402.486 -315.553)" fill="#fafafa"/>
            </g>
            <g id="Grupo_57033" data-name="Grupo 57033" transform="translate(81.707 86.783)">
              <path id="Trazado_103930" data-name="Trazado 103930" d="M414.493,322.384c-.123.043-.456-.589-.744-1.412s-.423-1.524-.3-1.566.456.588.744,1.411S414.615,322.341,414.493,322.384Z" transform="translate(-413.403 -319.405)" fill="#fafafa"/>
            </g>
            <g id="Grupo_57034" data-name="Grupo 57034" transform="translate(81.033 102.11)">
              <path id="Trazado_103931" data-name="Trazado 103931" d="M412.682,339.562c-.115-.06.163-.817.621-1.691s.922-1.533,1.037-1.473-.163.817-.621,1.692S412.8,339.623,412.682,339.562Z" transform="translate(-412.656 -336.395)" fill="#fafafa"/>
            </g>
            <g id="Grupo_57035" data-name="Grupo 57035" transform="translate(69.846 111.422)">
              <path id="Trazado_103932" data-name="Trazado 103932" d="M401.512,349.692c-.12.05-.49-.575-.827-1.4s-.513-1.526-.392-1.576.49.577.827,1.4S401.632,349.643,401.512,349.692Z" transform="translate(-400.255 -346.718)" fill="#fafafa"/>
            </g>
            <g id="Grupo_57036" data-name="Grupo 57036" transform="translate(58.415 117.675)">
              <path id="Trazado_103933" data-name="Trazado 103933" d="M389.246,353.884c0,.13-.372.235-.832.235s-.832-.105-.832-.235.372-.235.832-.235S389.246,353.754,389.246,353.884Z" transform="translate(-387.583 -353.649)" fill="#fafafa"/>
            </g>
            <g id="Grupo_57037" data-name="Grupo 57037" transform="translate(65.663 129.885)">
              <path id="Trazado_103934" data-name="Trazado 103934" d="M396.354,369.681c-.125.034-.376-.5-.559-1.186s-.232-1.275-.107-1.309.376.5.56,1.188S396.48,369.649,396.354,369.681Z" transform="translate(-395.618 -367.184)" fill="#fafafa"/>
            </g>
            <g id="Grupo_57038" data-name="Grupo 57038" transform="translate(58.375 125.886)">
              <path id="Trazado_103935" data-name="Trazado 103935" d="M387.579,364.424c-.112-.067.022-.493.3-.953s.59-.778.7-.711-.022.492-.3.953S387.69,364.49,387.579,364.424Z" transform="translate(-387.539 -362.751)" fill="#fafafa"/>
            </g>
            <g id="Grupo_57039" data-name="Grupo 57039" transform="translate(57.795 140.7)">
              <path id="Trazado_103936" data-name="Trazado 103936" d="M387.349,382c-.129.015-.308-.606-.4-1.387s-.061-1.426.067-1.441.308.605.4,1.387S387.478,381.986,387.349,382Z" transform="translate(-386.896 -379.173)" fill="#fafafa"/>
            </g>
          </g>
        </g>
      </g>
    </g>
  </g>
</svg>
