<svg xmlns="http://www.w3.org/2000/svg" width="467.485" height="340.875" viewBox="0 0 467.485 340.875">
  <g id="_2" data-name="2" transform="translate(-100 -37.5)">
    <g id="Grupo_59549" data-name="Grupo 59549" transform="translate(100 37.5)">
      <path id="Trazado_106319" data-name="Trazado 106319" d="M549.144,259.042c23.135-52.836-37.241-74.591-68.274-50.291s-46.832,26.078-40.626,1.185c15.126-60.661-1.693-124.463-84.072-160.618s-150.455,17.969-163.15,63.752-18.2,58.672-27.506,51.561C130.5,137.883,84.692,135.74,105,223.305s67.7,140.46,67.7,140.46,336.378-1.509,348.227-3.88,27.084-9.483,43.446-50.971S526.01,311.879,549.144,259.042Z" transform="translate(-100 -37.5)" fill="#fff1db"/>
      <ellipse id="Elipse_4144" data-name="Elipse 4144" cx="211.829" cy="14.609" rx="211.829" ry="14.609" transform="translate(21.67 311.657)" fill="#e9f5fb"/>
    </g>
    <g id="Grupo_59550" data-name="Grupo 59550" transform="translate(102.327 49.039)">
      <path id="Trazado_106320" data-name="Trazado 106320" d="M190.248,75.9a7.9,7.9,0,0,1,2.162.306,8.394,8.394,0,0,1-.089-1.168,8.523,8.523,0,0,1,14.2-6.368,12.469,12.469,0,0,1,23.826,6.262A8.867,8.867,0,1,1,234.378,91.7H189.47v-.039a7.9,7.9,0,0,1,.778-15.758Z" transform="translate(-144.575 -61.196)" fill="#ffd494"/>
      <path id="Trazado_106321" data-name="Trazado 106321" d="M165.477,192.967a9.047,9.047,0,0,0-2.475.351,9.756,9.756,0,0,0-16.162-8.63,14.28,14.28,0,0,0-27.287,7.172,10.155,10.155,0,1,0-4.616,19.2h51.432v-.045a9.045,9.045,0,0,0-.892-18.046Z" transform="translate(-104.779 -120.16)" fill="#ffd494"/>
      <path id="Trazado_106322" data-name="Trazado 106322" d="M904.666,214.592a10.032,10.032,0,0,0-2.75.39,10.837,10.837,0,0,0-17.952-9.586,15.863,15.863,0,0,0-30.311,7.966,11.28,11.28,0,1,0-5.127,21.326h57.129v-.05a10.047,10.047,0,0,0-.99-20.045Z" transform="translate(-480.56 -130.297)" fill="#ffd494"/>
      <path id="Trazado_106323" data-name="Trazado 106323" d="M655.121,97.907a12.513,12.513,0,0,1,3.427.486,13.506,13.506,0,0,1,22.374-11.948A19.769,19.769,0,0,1,718.7,96.373a14.058,14.058,0,1,1,6.39,26.578h-71.2v-.062a12.522,12.522,0,0,1,1.234-24.983Z" transform="translate(-380.7 -68.07)" fill="#ffd494"/>
    </g>
    <g id="Grupo_59554" data-name="Grupo 59554" transform="translate(279.267 49.501)">
      <g id="Grupo_59551" data-name="Grupo 59551" transform="translate(6.686 0)">
        <path id="Trazado_106324" data-name="Trazado 106324" d="M515.9,81.8l-3.117-1.732c.017-.278.025-.555.025-.825s-.009-.547-.025-.825l3.117-1.731a.3.3,0,0,0,.152-.318l-.033-.189h0a17.318,17.318,0,0,0-.758-2.828l-.058-.162a.316.316,0,0,0-.291-.2l-3.565.058a13.879,13.879,0,0,0-.826-1.429l1.831-3.054a.305.305,0,0,0-.028-.353l-.112-.133a17.565,17.565,0,0,0-2.086-2.085l-.132-.111a.3.3,0,0,0-.353-.029l-3.054,1.831a14.2,14.2,0,0,0-1.429-.827l.059-3.564a.3.3,0,0,0-.2-.291l-.163-.059A17.268,17.268,0,0,0,502,62.18l-.17-.03a.3.3,0,0,0-.319.152l-1.731,3.117a13.526,13.526,0,0,0-1.65,0L496.4,62.3a.3.3,0,0,0-.319-.152l-.17.03a17.258,17.258,0,0,0-2.849.762L492.9,63a.3.3,0,0,0-.2.291l.058,3.564a14.068,14.068,0,0,0-1.429.827l-3.054-1.83a.3.3,0,0,0-.353.028l-.132.111a17.532,17.532,0,0,0-2.085,2.085l-.112.132a.3.3,0,0,0-.028.353l1.832,3.054a13.992,13.992,0,0,0-.827,1.429L483,72.985a.318.318,0,0,0-.287.2l-.059.163A17.323,17.323,0,0,0,481.9,76.2l-.03.17a.3.3,0,0,0,.152.319l3.116,1.731c-.017.275-.025.552-.025.825s.008.551.025.825L482.018,81.8a.3.3,0,0,0-.152.319l.03.17a17.307,17.307,0,0,0,.762,2.848l.059.163a.3.3,0,0,0,.291.2l3.564-.059a13.842,13.842,0,0,0,.827,1.429l-1.832,3.054a.3.3,0,0,0,.028.353l.111.132a17.5,17.5,0,0,0,2.086,2.085l.132.112a.305.305,0,0,0,.353.028l3.054-1.831a13.978,13.978,0,0,0,1.429.827l-.058,3.564a.3.3,0,0,0,.2.291l.162.059a17.252,17.252,0,0,0,2.848.762l.169.03a.3.3,0,0,0,.319-.152l1.731-3.117a13.722,13.722,0,0,0,1.65,0l1.731,3.117a.3.3,0,0,0,.264.157.289.289,0,0,0,.054,0L502,96.3a17.281,17.281,0,0,0,2.847-.762l.163-.059a.3.3,0,0,0,.2-.291l-.059-3.564a14.032,14.032,0,0,0,1.429-.827l3.054,1.831a.3.3,0,0,0,.353-.028l.132-.112a17.469,17.469,0,0,0,2.086-2.086l.111-.132a.3.3,0,0,0,.028-.352l-1.831-3.054a13.828,13.828,0,0,0,.826-1.429l3.566.059a.3.3,0,0,0,.29-.2l.058-.161a17.251,17.251,0,0,0,.762-2.848l.03-.169A.3.3,0,0,0,515.9,81.8Zm-1.54,2.6-3.506-.057a.327.327,0,0,0-.275.173l-.068.143a12.75,12.75,0,0,1-1.088,1.882l-.09.129a.3.3,0,0,0-.012.331l1.8,3a16.48,16.48,0,0,1-1.4,1.4l-3-1.8a.3.3,0,0,0-.332.012l-.127.089a12.825,12.825,0,0,1-1.883,1.089l-.142.066a.3.3,0,0,0-.175.281l.058,3.5a16.348,16.348,0,0,1-1.918.513l-1.7-3.062a.3.3,0,0,0-.292-.155l-.154.013a12.978,12.978,0,0,1-2.175,0l-.155-.013a.307.307,0,0,0-.294.155l-1.7,3.062a16.178,16.178,0,0,1-1.918-.513l.058-3.5a.3.3,0,0,0-.175-.281l-.142-.066a12.783,12.783,0,0,1-1.883-1.089l-.129-.09a.3.3,0,0,0-.331-.012l-3,1.8a16.405,16.405,0,0,1-1.4-1.4l1.8-3a.3.3,0,0,0-.012-.331l-.09-.128a12.758,12.758,0,0,1-1.089-1.883l-.067-.142a.314.314,0,0,0-.28-.175l-3.5.058a16.219,16.219,0,0,1-.514-1.918l3.063-1.7a.305.305,0,0,0,.155-.291l-.013-.156c-.031-.37-.047-.736-.047-1.088s.016-.717.047-1.087l.013-.156a.3.3,0,0,0-.155-.291l-3.063-1.7a16.2,16.2,0,0,1,.514-1.918l3.5.058a.3.3,0,0,0,.282-.175l.067-.142a12.756,12.756,0,0,1,1.089-1.883l.09-.129a.3.3,0,0,0,.011-.331l-1.8-3a16.357,16.357,0,0,1,1.4-1.406l3,1.8a.306.306,0,0,0,.331-.011l.129-.09a12.788,12.788,0,0,1,1.883-1.089l.142-.067a.3.3,0,0,0,.174-.28l-.058-3.5a16.07,16.07,0,0,1,1.918-.513l1.7,3.061a.3.3,0,0,0,.291.156l.157-.013a12.933,12.933,0,0,1,2.176,0l.156.013a.3.3,0,0,0,.291-.156l1.7-3.061a16.212,16.212,0,0,1,1.918.513l-.058,3.5a.3.3,0,0,0,.174.28l.142.067a12.792,12.792,0,0,1,1.883,1.088l.128.09a.307.307,0,0,0,.332.012l3-1.8a16.286,16.286,0,0,1,1.405,1.406l-1.8,3a.3.3,0,0,0,.011.331l.09.129a12.749,12.749,0,0,1,1.089,1.884l.068.142a.3.3,0,0,0,.279.174l3.5-.058a16.127,16.127,0,0,1,.513,1.918l-3.062,1.7a.3.3,0,0,0-.155.291l.013.157c.031.367.047.733.047,1.087s-.016.721-.047,1.088l-.013.156a.3.3,0,0,0,.155.291l3.062,1.7A16.215,16.215,0,0,1,514.357,84.4Z" transform="translate(-481.861 -62.145)" fill="#fff"/>
        <path id="Trazado_106325" data-name="Trazado 106325" d="M509.238,82.182a7.339,7.339,0,1,0,7.339,7.339A7.348,7.348,0,0,0,509.238,82.182Zm0,13.585a6.246,6.246,0,1,1,6.245-6.246A6.253,6.253,0,0,1,509.238,95.767Z" transform="translate(-492.141 -72.425)" fill="#fff"/>
      </g>
      <g id="Grupo_59552" data-name="Grupo 59552" transform="translate(94.009 65.569)">
        <path id="Trazado_106326" data-name="Trazado 106326" d="M683.311,217.915a.507.507,0,0,0,.186.387s.311.277.868.754a.561.561,0,0,0,.788-.06.554.554,0,0,0,.134-.4v-.006a.56.56,0,0,0-.194-.382c-.436-.373-.717-.621-.812-.706l-.039-.035a.56.56,0,0,0-.931.449Z" transform="translate(-672.535 -207.326)" fill="#fff"/>
        <path id="Trazado_106327" data-name="Trazado 106327" d="M727.655,247.362a14.172,14.172,0,0,0,2.265.537l.06,0a.557.557,0,0,0,.573-.479.609.609,0,0,0,0-.117.563.563,0,0,0-.48-.517,12.959,12.959,0,0,1-2.085-.5.56.56,0,0,0-.338,1.067Z" transform="translate(-695.086 -222.176)" fill="#fff"/>
        <path id="Trazado_106328" data-name="Trazado 106328" d="M721.618,243.677c-.625-.269-1.294-.587-1.989-.942a.559.559,0,1,0-.511.995c.7.36,1.395.689,2.056.975h0a.57.57,0,0,0,.2.043.559.559,0,0,0,.241-1.073Z" transform="translate(-690.75 -220.331)" fill="#fff"/>
        <path id="Trazado_106329" data-name="Trazado 106329" d="M736.764,246.327a.559.559,0,0,0-.451.65h0a.564.564,0,0,0,.529.459.538.538,0,0,0,.121-.009,4.387,4.387,0,0,0,2.267-1.1.559.559,0,1,0-.764-.816A3.3,3.3,0,0,1,736.764,246.327Z" transform="translate(-699.723 -221.709)" fill="#fff"/>
        <path id="Trazado_106330" data-name="Trazado 106330" d="M716.42,247.019a9.827,9.827,0,0,1,.159-1.448.579.579,0,0,0,.007-.139.559.559,0,0,0-1.108-.065,10.943,10.943,0,0,0-.176,1.614c-.008.24-.009.483,0,.73a.567.567,0,0,0,.574.542.559.559,0,0,0,.543-.576C716.412,247.455,716.413,247.235,716.42,247.019Z" transform="translate(-688.945 -221.479)" fill="#fff"/>
        <path id="Trazado_106331" data-name="Trazado 106331" d="M724.265,270.694a.552.552,0,0,0,.139.405,17.4,17.4,0,0,0,1.638,1.627h0a.562.562,0,0,0,.347.137.561.561,0,0,0,.577-.6h0a.556.556,0,0,0-.191-.383,16.256,16.256,0,0,1-1.532-1.522.559.559,0,0,0-.978.335Z" transform="translate(-693.546 -234.438)" fill="#fff"/>
        <path id="Trazado_106332" data-name="Trazado 106332" d="M706.06,235.136a.563.563,0,0,0-.155-.775c-.621-.414-1.234-.837-1.833-1.26a.557.557,0,0,0-.42-.094.559.559,0,0,0-.226,1.008q.912.645,1.857,1.277l0,0a.56.56,0,0,0,.773-.157Z" transform="translate(-682.734 -215.367)" fill="#fff"/>
        <path id="Trazado_106333" data-name="Trazado 106333" d="M748.364,282.708a.561.561,0,0,0,.486.624c.738.092,1.5.153,2.28.182h0a.56.56,0,0,0,.577-.539.462.462,0,0,0,0-.059.558.558,0,0,0-.538-.52c-.736-.027-1.47-.085-2.194-.175A.568.568,0,0,0,748.364,282.708Z" transform="translate(-705.908 -240.619)" fill="#fff"/>
        <path id="Trazado_106334" data-name="Trazado 106334" d="M743.117,237.48v.063a7.36,7.36,0,0,1-.142,1.172,6.682,6.682,0,0,1-.207.8.559.559,0,0,0,.355.707.559.559,0,0,0,.708-.355,7.935,7.935,0,0,0,.243-.935,8.6,8.6,0,0,0,.162-1.35l0-.075c0-.018,0-.034,0-.05a.561.561,0,0,0-.5-.519l-.109-.035-.052.039A.562.562,0,0,0,743.117,237.48Z" transform="translate(-703.023 -217.371)" fill="#fff"/>
        <path id="Trazado_106335" data-name="Trazado 106335" d="M760.877,282.686a.562.562,0,0,0-.622-.488c-.712.086-1.448.145-2.186.177a.559.559,0,0,0-.537.582h0a.551.551,0,0,0,.583.534c.753-.032,1.517-.094,2.272-.184a.559.559,0,0,0,.492-.593C760.879,282.705,760.878,282.7,760.877,282.686Z" transform="translate(-710.614 -240.607)" fill="#fff"/>
        <path id="Trazado_106336" data-name="Trazado 106336" d="M731.429,277.2a17.6,17.6,0,0,0,2.008,1.138.551.551,0,0,0,.224.056.559.559,0,0,0,.262-1.063,16.5,16.5,0,0,1-1.883-1.066.56.56,0,0,0-.613.936Z" transform="translate(-697.093 -237.52)" fill="#fff"/>
        <path id="Trazado_106337" data-name="Trazado 106337" d="M719.118,263a.553.553,0,0,0,.039.426q.164.312.344.627c.265.466.547.918.837,1.344a.559.559,0,0,0,1.021-.353.557.557,0,0,0-.094-.276c-.276-.4-.542-.831-.791-1.269-.114-.2-.222-.4-.326-.595a.56.56,0,0,0-.755-.233A.554.554,0,0,0,719.118,263Z" transform="translate(-690.893 -230.558)" fill="#fff"/>
        <path id="Trazado_106338" data-name="Trazado 106338" d="M739.445,280.561a.561.561,0,0,0,.347.711A21.084,21.084,0,0,0,742,281.9h0a.483.483,0,0,0,.1.013.559.559,0,0,0,.143-1.1,20.2,20.2,0,0,1-2.094-.591A.561.561,0,0,0,739.445,280.561Z" transform="translate(-701.319 -239.576)" fill="#fff"/>
        <path id="Trazado_106339" data-name="Trazado 106339" d="M715.886,254.709a15.55,15.55,0,0,0,.666,2.221h0a.559.559,0,0,0,1.081-.236.569.569,0,0,0-.036-.162,14.378,14.378,0,0,1-.618-2.061.558.558,0,0,0-.248-.355.545.545,0,0,0-.417-.072.559.559,0,0,0-.429.665Z" transform="translate(-689.241 -226.158)" fill="#fff"/>
        <path id="Trazado_106340" data-name="Trazado 106340" d="M722.585,232.824l0,0a.56.56,0,0,0,.4.191.553.553,0,0,0,.385-.134,9.933,9.933,0,0,1,1.742-1.2.56.56,0,0,0,.291-.53.55.55,0,0,0-.066-.228.563.563,0,0,0-.758-.225,11.157,11.157,0,0,0-1.938,1.334A.562.562,0,0,0,722.585,232.824Z" transform="translate(-692.616 -214.155)" fill="#fff"/>
        <path id="Trazado_106341" data-name="Trazado 106341" d="M713.885,238.837a.563.563,0,0,0-.025.068l0-.018a.55.55,0,0,0-.261-.337c-.6-.347-1.242-.732-1.9-1.144a.56.56,0,1,0-.595.948c.652.409,1.3.8,1.936,1.164a.558.558,0,0,0,.764-.205.546.546,0,0,0,.053-.123.606.606,0,0,0,.024.075.554.554,0,0,0,.294.308.557.557,0,0,0,.739-.285,9.26,9.26,0,0,1,1.065-1.816.559.559,0,0,0-.9-.67A10.315,10.315,0,0,0,713.885,238.837Z" transform="translate(-686.657 -217.204)" fill="#fff"/>
        <path id="Trazado_106342" data-name="Trazado 106342" d="M688.59,222.424a.553.553,0,0,0,.2.379c.521.43,1.107.906,1.747,1.415a.551.551,0,0,0,.331.123.56.56,0,0,0,.577-.6c0-.008,0-.016,0-.025a.557.557,0,0,0-.207-.375c-.635-.505-1.217-.979-1.735-1.405a.561.561,0,0,0-.786.076A.528.528,0,0,0,688.59,222.424Z" transform="translate(-675.241 -209.629)" fill="#fff"/>
        <path id="Trazado_106343" data-name="Trazado 106343" d="M696.007,228.544c.575.441,1.175.894,1.8,1.353h0a.559.559,0,0,0,.663-.9c-.617-.455-1.212-.9-1.781-1.342a.559.559,0,0,0-.784.1A.56.56,0,0,0,696.007,228.544Z" transform="translate(-678.936 -212.567)" fill="#fff"/>
        <path id="Trazado_106344" data-name="Trazado 106344" d="M730.5,229.3h0a.559.559,0,0,0,.525.411.582.582,0,0,0,.163-.02,7.215,7.215,0,0,1,2.049-.277.56.56,0,0,0,.571-.549c0-.017,0-.033,0-.049a.576.576,0,0,0-.548-.521,8.324,8.324,0,0,0-2.369.317A.56.56,0,0,0,730.5,229.3Z" transform="translate(-696.733 -212.954)" fill="#fff"/>
        <path id="Trazado_106345" data-name="Trazado 106345" d="M739.515,229.619a.558.558,0,0,0,.245.752,2.865,2.865,0,0,1,1.3,1.3.557.557,0,0,0,.482.312.575.575,0,0,0,.268-.057.561.561,0,0,0,.309-.541.539.539,0,0,0-.056-.208,3.958,3.958,0,0,0-1.8-1.806A.56.56,0,0,0,739.515,229.619Z" transform="translate(-701.339 -213.477)" fill="#fff"/>
        <path id="Trazado_106346" data-name="Trazado 106346" d="M767.17,281.206a.56.56,0,0,0,.091,1.108h0a.539.539,0,0,0,.126-.012c.693-.139,1.1-.252,1.15-.265a.561.561,0,0,0,.406-.575.594.594,0,0,0-.02-.116.564.564,0,0,0-.694-.386S767.84,281.071,767.17,281.206Z" transform="translate(-715.327 -239.964)" fill="#fff"/>
        <path id="Trazado_106347" data-name="Trazado 106347" d="M667.278,213.954l4.232-6.676.211-.311-2.189-2.564,2.518,1.7.287.169,6.614-4.7-17.769-4.781Zm9.391-11.971-4.364,3.1-8.236-5.556,6.419,7.519-2.958,4.666-4.785-13.474Z" transform="translate(-661.183 -196.793)" fill="#fff"/>
      </g>
      <g id="Grupo_59553" data-name="Grupo 59553" transform="translate(50.931 210.559)">
        <path id="Trazado_106348" data-name="Trazado 106348" d="M588.634,525.175a.507.507,0,0,0-.106.417s.061.411.183,1.136a.559.559,0,0,0,.643.458.555.555,0,0,0,.361-.223l0,0a.556.556,0,0,0,.1-.417c-.095-.566-.152-.937-.17-1.062l-.007-.051a.56.56,0,0,0-1-.253Z" transform="translate(-580.827 -510.14)" fill="#fff"/>
        <path id="Trazado_106349" data-name="Trazado 106349" d="M603.771,576.209a14.148,14.148,0,0,0,1.394,1.865l.042.042a.556.556,0,0,0,.747,0,.543.543,0,0,0,.078-.087.563.563,0,0,0-.036-.7,13,13,0,0,1-1.282-1.718.56.56,0,0,0-.944.6Z" transform="translate(-588.606 -535.996)" fill="#fff"/>
        <path id="Trazado_106350" data-name="Trazado 106350" d="M601.5,569.51c-.306-.608-.616-1.281-.921-2a.559.559,0,1,0-1.03.436c.307.727.628,1.422.952,2.067l0,0a.572.572,0,0,0,.125.161.559.559,0,0,0,.625.084.551.551,0,0,0,.2-.17A.558.558,0,0,0,601.5,569.51Z" transform="translate(-586.463 -531.8)" fill="#fff"/>
        <path id="Trazado_106351" data-name="Trazado 106351" d="M610.775,582.032a.559.559,0,0,0-.763.21h0a.564.564,0,0,0,.111.691.538.538,0,0,0,.1.071,4.387,4.387,0,0,0,2.446.609.554.554,0,0,0,.386-.185c.013-.015.025-.03.036-.045a.558.558,0,0,0-.084-.748.549.549,0,0,0-.4-.138A3.3,3.3,0,0,1,610.775,582.032Z" transform="translate(-591.816 -539.387)" fill="#fff"/>
        <path id="Trazado_106352" data-name="Trazado 106352" d="M593.872,568.856a9.894,9.894,0,0,1,1.05-1.009.584.584,0,0,0,.1-.1.56.56,0,0,0-.4-.887.555.555,0,0,0-.408.126,10.942,10.942,0,0,0-1.171,1.126c-.159.179-.316.364-.469.559a.567.567,0,0,0,.093.785.559.559,0,0,0,.786-.093C593.587,569.184,593.729,569.017,593.872,568.856Z" transform="translate(-582.844 -531.639)" fill="#fff"/>
        <path id="Trazado_106353" data-name="Trazado 106353" d="M586.2,591.935a.55.55,0,0,0-.153.4,17.3,17.3,0,0,0,.213,2.3h0a.564.564,0,0,0,.179.328.562.562,0,0,0,.826-.089h0a.557.557,0,0,0,.1-.416,16.119,16.119,0,0,1-.2-2.15.559.559,0,0,0-.177-.395.547.547,0,0,0-.4-.15A.556.556,0,0,0,586.2,591.935Z" transform="translate(-579.56 -544.416)" fill="#fff"/>
        <path id="Trazado_106354" data-name="Trazado 106354" d="M595.044,552.978a.554.554,0,0,0,.292-.208.561.561,0,0,0,.086-.486c-.21-.716-.41-1.433-.6-2.143a.559.559,0,1,0-1.081.287q.286,1.079.606,2.171v0a.561.561,0,0,0,.694.375Z" transform="translate(-583.496 -522.85)" fill="#fff"/>
        <path id="Trazado_106355" data-name="Trazado 106355" d="M596.99,616.612a.561.561,0,0,0-.027.79c.506.543,1.055,1.083,1.632,1.6h0a.561.561,0,0,0,.789-.043c.013-.015.025-.031.037-.046a.559.559,0,0,0-.079-.744c-.547-.492-1.073-1.008-1.571-1.542A.567.567,0,0,0,596.99,616.612Z" transform="translate(-585.081 -557.09)" fill="#fff"/>
        <path id="Trazado_106356" data-name="Trazado 106356" d="M620.464,578.825l-.041.048a7.282,7.282,0,0,1-.86.808,6.8,6.8,0,0,1-.672.481.56.56,0,0,0-.078.892.568.568,0,0,0,.669.059,8.022,8.022,0,0,0,.785-.562,8.479,8.479,0,0,0,.99-.932l.051-.056c.011-.013.021-.026.031-.04a.562.562,0,0,0-.048-.715l-.061-.1-.065,0A.562.562,0,0,0,620.464,578.825Z" transform="translate(-596.272 -537.682)" fill="#fff"/>
        <path id="Trazado_106357" data-name="Trazado 106357" d="M606.476,624.763a.562.562,0,0,0-.164-.774c-.6-.391-1.2-.817-1.791-1.266a.559.559,0,0,0-.785.1h0a.552.552,0,0,0,.1.784c.6.458,1.225.9,1.861,1.316a.561.561,0,0,0,.758-.139Z" transform="translate(-588.571 -560.241)" fill="#fff"/>
        <path id="Trazado_106358" data-name="Trazado 106358" d="M587.526,601.522a17.565,17.565,0,0,0,.812,2.161.558.558,0,0,0,.74.279.553.553,0,0,0,.222-.18.562.562,0,0,0,.058-.561,16.624,16.624,0,0,1-.76-2.025.56.56,0,0,0-1.071.325Z" transform="translate(-580.305 -549.054)" fill="#fff"/>
        <path id="Trazado_106359" data-name="Trazado 106359" d="M586.824,582.731a.554.554,0,0,0-.243.352q-.075.345-.138.7c-.1.528-.169,1.056-.219,1.568a.564.564,0,0,0,.185.476.57.57,0,0,0,.316.137.562.562,0,0,0,.613-.5c.047-.486.117-.984.206-1.48.041-.226.084-.448.131-.666a.56.56,0,0,0-.43-.663A.554.554,0,0,0,586.824,582.731Z" transform="translate(-579.647 -539.737)" fill="#fff"/>
        <path id="Trazado_106360" data-name="Trazado 106360" d="M591.523,609.242a.561.561,0,0,0-.19.768,21.077,21.077,0,0,0,1.3,1.9h0a.528.528,0,0,0,.071.076.559.559,0,0,0,.713.029.56.56,0,0,0,.1-.784,20.266,20.266,0,0,1-1.228-1.8A.559.559,0,0,0,591.523,609.242Z" transform="translate(-582.229 -553.343)" fill="#fff"/>
        <path id="Trazado_106361" data-name="Trazado 106361" d="M589.1,574.3a15.457,15.457,0,0,0-.913,2.131h0a.557.557,0,0,0,.153.6.54.54,0,0,0,.193.114.558.558,0,0,0,.711-.346,14.427,14.427,0,0,1,.848-1.977.559.559,0,0,0,.037-.432.56.56,0,0,0-1.029-.087Z" transform="translate(-580.64 -535.303)" fill="#fff"/>
        <path id="Trazado_106362" data-name="Trazado 106362" d="M608.349,562.824v0a.559.559,0,0,0,.567.549,9.948,9.948,0,0,1,2.106.2.562.562,0,0,0,.563-.22.555.555,0,0,0,.095-.218.562.562,0,0,0-.436-.659,11.207,11.207,0,0,0-2.343-.219A.562.562,0,0,0,608.349,562.824Z" transform="translate(-591 -529.279)" fill="#fff"/>
        <path id="Trazado_106363" data-name="Trazado 106363" d="M598.171,561.436a.509.509,0,0,0-.063.036l.008-.017a.551.551,0,0,0,.016-.426c-.239-.653-.483-1.359-.724-2.1a.559.559,0,1,0-1.064.346c.238.731.487,1.449.739,2.135a.557.557,0,0,0,.717.333.58.58,0,0,0,.12-.06.527.527,0,0,0-.03.073.559.559,0,0,0,.778.68,9.257,9.257,0,0,1,1.982-.711.559.559,0,0,0-.258-1.088A10.305,10.305,0,0,0,598.171,561.436Z" transform="translate(-584.826 -527.375)" fill="#fff"/>
        <path id="Trazado_106364" data-name="Trazado 106364" d="M589.795,532.021a.557.557,0,0,0-.088.42c.124.664.268,1.405.432,2.206a.56.56,0,0,0,1,.219l.014-.021a.554.554,0,0,0,.081-.421c-.164-.795-.306-1.532-.429-2.19a.561.561,0,0,0-.652-.446A.531.531,0,0,0,589.795,532.021Z" transform="translate(-581.43 -513.643)" fill="#fff"/>
        <path id="Trazado_106365" data-name="Trazado 106365" d="M591.557,541.472c.158.707.329,1.44.511,2.191h0a.556.556,0,0,0,.17.282.562.562,0,0,0,.506.128.56.56,0,0,0,.41-.675c-.181-.744-.35-1.47-.506-2.171a.559.559,0,0,0-.668-.424A.561.561,0,0,0,591.557,541.472Z" transform="translate(-582.378 -518.266)" fill="#fff"/>
        <path id="Trazado_106366" data-name="Trazado 106366" d="M617.333,564.414h0a.559.559,0,0,0,.139.652.586.586,0,0,0,.138.089,7.244,7.244,0,0,1,1.75,1.1.559.559,0,0,0,.79-.054c.011-.012.021-.025.03-.038a.575.575,0,0,0-.086-.75,8.314,8.314,0,0,0-2.021-1.277A.561.561,0,0,0,617.333,564.414Z" transform="translate(-595.582 -530.218)" fill="#fff"/>
        <path id="Trazado_106367" data-name="Trazado 106367" d="M624.249,570.2a.559.559,0,0,0-.294.735,2.866,2.866,0,0,1,.165,1.835.556.556,0,0,0,.169.548.579.579,0,0,0,.243.128.562.562,0,0,0,.584-.216.548.548,0,0,0,.091-.2,3.956,3.956,0,0,0-.223-2.54A.56.56,0,0,0,624.249,570.2Z" transform="translate(-598.982 -533.333)" fill="#fff"/>
        <path id="Trazado_106368" data-name="Trazado 106368" d="M612.207,627.723a.559.559,0,0,0-.641.908l0,0a.578.578,0,0,0,.1.072c.621.337,1.009.514,1.053.534a.557.557,0,0,0,.739-.282.564.564,0,0,0-.285-.741S612.807,628.05,612.207,627.723Z" transform="translate(-592.554 -562.831)" fill="#fff"/>
        <path id="Trazado_106369" data-name="Trazado 106369" d="M572.721,511.612l7.529-2.409.361-.1-.035-3.371.843,2.919.112.314,8.088.638-10.567-15.065ZM587.6,508.45l-5.335-.421-2.755-9.545.1,9.885-5.263,1.682,4.97-13.407Z" transform="translate(-572.721 -494.536)" fill="#fff"/>
      </g>
      <path id="Trazado_106370" data-name="Trazado 106370" d="M592.564,139.633a.559.559,0,0,0-.38-.442l-9.842-3.2L579.268,125.6a.561.561,0,0,0-1-.154l-5.987,8.89-10.306-.123a.561.561,0,0,0-.464.885l6.176,8.684L564.349,154.1a.56.56,0,0,0,.415.72.569.569,0,0,0,.307-.02l9.788-3.5,8.279,6.474a.563.563,0,0,0,.346.118.554.554,0,0,0,.248-.058.564.564,0,0,0,.312-.509l-.127-10.877,8.427-6.269A.559.559,0,0,0,592.564,139.633Zm-9.955,15.951-7.255-5.673a.558.558,0,0,0-.344-.118.571.571,0,0,0-.19.033l-8.6,3.075,2.934-9.073a.563.563,0,0,0-.076-.5l-5.481-7.706,9.135.108a.56.56,0,0,0,.472-.247l5.22-7.749,2.66,8.994.022.072a.56.56,0,0,0,.363.371l8.738,2.839-7.432,5.529-.052.038a.565.565,0,0,0-.23.459Z" transform="translate(-515.984 -94.495)" fill="#fff"/>
      <path id="Trazado_106371" data-name="Trazado 106371" d="M496.069,189.906a5.146,5.146,0,0,0-7.852-4.138,7.2,7.2,0,0,0-13.39,3.291,5.256,5.256,0,0,0-1.37-.18,5.326,5.326,0,0,0,0,10.652h23.407l.47-.02a.236.236,0,0,0,.181-.1,4.82,4.82,0,0,0-1.447-9.506Zm.615,8.215H473.458a3.916,3.916,0,1,1,0-7.832,3.87,3.87,0,0,1,1.778.431l.768.393a.235.235,0,0,0,.341-.232l-.087-.859c-.019-.2-.03-.395-.03-.591a5.79,5.79,0,0,1,11.1-2.318l.26.593a.234.234,0,0,0,.371.081l.483-.43a3.736,3.736,0,0,1,6.226,2.791,3.816,3.816,0,0,1-.04.513l-.1.712a.235.235,0,0,0,.3.258l.692-.2a3.409,3.409,0,1,1,1.259,6.671Z" transform="translate(-468.132 -123.753)" fill="#fff"/>
    </g>
    <g id="Grupo_59571" data-name="Grupo 59571" transform="translate(108.264 177.578)">
      <g id="Grupo_59558" data-name="Grupo 59558" transform="translate(0 37.993)">
        <g id="Grupo_59557" data-name="Grupo 59557">
          <g id="Grupo_59555" data-name="Grupo 59555" transform="translate(60.371 113.672)">
            <path id="Trazado_106372" data-name="Trazado 106372" d="M341.69,692.643a2.876,2.876,0,0,1-2.875,2.877H306.258v-5.752h32.557A2.875,2.875,0,0,1,341.69,692.643Z" transform="translate(-274.453 -663.88)" fill="#002ca7"/>
            <path id="Trazado_106373" data-name="Trazado 106373" d="M262.28,636.607h32.853l1.058,10.952a5.575,5.575,0,0,1-1.608,4.483l-10.431,10.453H252.306L262.7,649.97Z" transform="translate(-246.773 -636.607)" fill="#002ca7"/>
            <path id="Trazado_106374" data-name="Trazado 106374" d="M306.1,641.408H272.939l-.151-4.8h32.853Z" transform="translate(-257.281 -636.607)" fill="#002381"/>
            <path id="Trazado_106375" data-name="Trazado 106375" d="M253.33,647.974l-1.161-11.367h5.778l1.059,10.952a5.577,5.577,0,0,1-1.608,4.483l-10.453,10.453h27a2.876,2.876,0,1,1,0,5.752H246.523a5.575,5.575,0,0,1-5.465-4.446,5.792,5.792,0,0,1,1.687-5.242Z" transform="translate(-240.945 -636.607)" fill="#002381"/>
          </g>
          <g id="Grupo_59556" data-name="Grupo 59556">
            <path id="Trazado_106376" data-name="Trazado 106376" d="M117.008,413.673l8.246,94.464a9.656,9.656,0,0,0,9.617,8.816H279.057c.083,0,.169,0,.251,0a9.656,9.656,0,0,0,9.366-10.492l-8.244-94.465a9.654,9.654,0,0,0-9.617-8.814H126.627A9.654,9.654,0,0,0,117.008,413.673Z" transform="translate(-116.97 -403.179)" fill="#002381"/>
            <path id="Trazado_106377" data-name="Trazado 106377" d="M125.02,413.633l8.249,94.54a9.624,9.624,0,0,0,9.583,8.778H287.114a9.626,9.626,0,0,0,9.428-7.669,9.4,9.4,0,0,0,.153-2.78l-8.25-94.539a9.629,9.629,0,0,0-9.583-8.785H134.6c-.082,0-.166,0-.248,0A9.629,9.629,0,0,0,125.02,413.633Z" transform="translate(-121.081 -403.177)" fill="#002ca7"/>
            <path id="Trazado_106378" data-name="Trazado 106378" d="M297.03,513.067l-8.25-94.542A3.849,3.849,0,0,0,284.92,415H140.671a3.872,3.872,0,0,0-3.86,4.2l8.252,94.532a3.847,3.847,0,0,0,3.86,3.528H293.182a3.864,3.864,0,0,0,3.848-4.192Z" transform="translate(-127.142 -409.241)" fill="#e9f5fb"/>
          </g>
        </g>
      </g>
      <g id="Grupo_59567" data-name="Grupo 59567" transform="translate(17.578)">
        <g id="Grupo_59560" data-name="Grupo 59560" transform="translate(14.847 13.025)">
          <path id="Trazado_106379" data-name="Trazado 106379" d="M327.948,358.9h-138.9a4.87,4.87,0,0,0-4.851,5.293l8.493,97.282a4.869,4.869,0,0,0,4.851,4.446h138.9a4.87,4.87,0,0,0,4.851-5.293L332.8,363.35A4.869,4.869,0,0,0,327.948,358.9Z" transform="translate(-183.873 -355.495)" fill="#bfd8f6"/>
          <path id="Trazado_106380" data-name="Trazado 106380" d="M331.949,351.9H197.427a4.87,4.87,0,0,0-4.851,5.293l8.493,97.282a4.869,4.869,0,0,0,4.851,4.446H340.442a4.869,4.869,0,0,0,4.851-5.293L336.8,356.35A4.869,4.869,0,0,0,331.949,351.9Z" transform="translate(-188.175 -351.904)" fill="#fff"/>
          <path id="Trazado_106381" data-name="Trazado 106381" d="M322.949,351.9H188.427a4.87,4.87,0,0,0-4.851,5.293l.3,3.445h144.3l-.375-4.292A4.869,4.869,0,0,0,322.949,351.9Z" transform="translate(-183.557 -351.904)" fill="#002381"/>
          <path id="Trazado_106382" data-name="Trazado 106382" d="M331.949,351.9H197.427a4.87,4.87,0,0,0-4.851,5.293l.3,3.445h144.3l-.375-4.292A4.869,4.869,0,0,0,331.949,351.9Z" transform="translate(-188.175 -351.904)" fill="#002ca7"/>
          <g id="Grupo_59559" data-name="Grupo 59559" transform="translate(129.301 3.216)">
            <circle id="Elipse_4145" data-name="Elipse 4145" cx="1.461" cy="1.461" r="1.461" transform="translate(11.687)" fill="#cae3fb"/>
            <circle id="Elipse_4146" data-name="Elipse 4146" cx="1.461" cy="1.461" r="1.461" transform="translate(5.844)" fill="#cae3fb"/>
            <circle id="Elipse_4147" data-name="Elipse 4147" cx="1.461" cy="1.461" r="1.461" fill="#cae3fb"/>
          </g>
        </g>
        <path id="Trazado_106383" data-name="Trazado 106383" d="M277.416,440.721l-4.174-48.7a5.409,5.409,0,0,0-5.287-4.87h-48.7a4.364,4.364,0,0,0-4.417,4.87l4.521,48.7a5.438,5.438,0,0,0,5.287,4.87H273A4.384,4.384,0,0,0,277.416,440.721Zm-52.766,0a.619.619,0,0,1-.439-.45l-4.48-48.246h48.223a.586.586,0,0,1,.435.416l4.138,48.28Z" transform="translate(-184.749 -356.964)" fill="#ff550d"/>
        <g id="Grupo_59561" data-name="Grupo 59561">
          <path id="Trazado_106384" data-name="Trazado 106384" d="M211.247,383.591H162.9a5.438,5.438,0,0,1-5.287-4.87l-4.522-48.7a4.364,4.364,0,0,1,4.418-4.87h48.7a5.41,5.41,0,0,1,5.287,4.87l4.174,48.7A4.384,4.384,0,0,1,211.247,383.591Z" transform="translate(-153.068 -325.156)" fill="#007fe2"/>
          <path id="Trazado_106385" data-name="Trazado 106385" d="M203.883,347.056a8.144,8.144,0,0,0-7.948-7.305,6.559,6.559,0,0,0-6.636,7.3,8.156,8.156,0,0,0,7.948,7.305A6.566,6.566,0,0,0,203.883,347.056Z" transform="translate(-171.64 -332.644)" fill="#fff"/>
          <path id="Trazado_106386" data-name="Trazado 106386" d="M211.28,358.077a1.647,1.647,0,0,0-2.474-.082l-18.069,21.889a1.6,1.6,0,0,1-2.349.026l-10.637-10.1a1.6,1.6,0,0,0-2.364.041l-6.372,7.934,1.434,15.559a2.174,2.174,0,0,0,2.114,1.948l44.5.007a1.753,1.753,0,0,0,1.767-1.947l-2.552-29.622Z" transform="translate(-161.25 -341.736)" fill="#fff"/>
        </g>
        <g id="Grupo_59562" data-name="Grupo 59562" transform="translate(103.707 96.697)">
          <path id="Trazado_106387" data-name="Trazado 106387" d="M424.213,582.163H375.864a5.439,5.439,0,0,1-5.287-4.87l-4.521-48.7a4.363,4.363,0,0,1,4.417-4.87h48.7a5.409,5.409,0,0,1,5.287,4.87l4.174,48.7A4.385,4.385,0,0,1,424.213,582.163Z" transform="translate(-366.034 -523.727)" fill="#ff550d"/>
          <path id="Trazado_106388" data-name="Trazado 106388" d="M428.935,563.679l-4-2.126c-.011-.308-.03-.615-.056-.914s-.061-.606-.1-.914l3.627-2.126a.569.569,0,0,0,.252-.647l-.063-.241a23.919,23.919,0,0,0-1.283-3.623l-.092-.206a.715.715,0,0,0-.625-.409l-4.359.072c-.325-.543-.678-1.075-1.052-1.584l1.916-3.749a.639.639,0,0,0-.119-.715l-.157-.168a25.558,25.558,0,0,0-2.9-2.672l-.18-.141a.628.628,0,0,0-.719-.057l-3.546,2.247c-.542-.332-1.1-.64-1.662-.916l-.314-4.374a.688.688,0,0,0-.46-.591l-.213-.075a23.542,23.542,0,0,0-3.732-.976l-.221-.039a.564.564,0,0,0-.619.309l-1.781,3.825a17.557,17.557,0,0,0-1.826,0l-2.465-3.825a.675.675,0,0,0-.675-.308l-.211.038a20.694,20.694,0,0,0-3.561.976l-.2.075a.555.555,0,0,0-.353.591l.466,4.374a16.229,16.229,0,0,0-1.5.916l-3.945-2.246a.6.6,0,0,0-.71.057l-.154.14a19.565,19.565,0,0,0-2.424,2.672l-.126.168a.612.612,0,0,0,.008.716l2.586,3.749a15.95,15.95,0,0,0-.77,1.584l-4.392-.072a.565.565,0,0,0-.53.407l-.056.207a21.037,21.037,0,0,0-.638,3.65l-.018.215a.682.682,0,0,0,.367.647l4.008,2.126c.012.3.032.611.06.914s.064.61.107.914l-3.616,2.126a.567.567,0,0,0-.248.647l.058.216a24.006,24.006,0,0,0,1.307,3.65l.094.206a.673.673,0,0,0,.626.407l4.348-.072c.328.544.682,1.076,1.057,1.584l-1.9,3.749a.637.637,0,0,0,.123.715l.156.167a25.633,25.633,0,0,0,2.9,2.672l.179.141a.624.624,0,0,0,.717.057l3.524-2.248c.54.332,1.1.639,1.658.917l.324,4.374a.691.691,0,0,0,.458.592l.211.074a23.323,23.323,0,0,0,3.716.976l.212.037a.655.655,0,0,0,.117.012.546.546,0,0,0,.5-.319l1.769-3.826a17.432,17.432,0,0,0,1.818,0l2.452,3.825a.677.677,0,0,0,.67.309l.213-.038a20.5,20.5,0,0,0,3.539-.975l.2-.075a.557.557,0,0,0,.354-.592l-.458-4.374a15.878,15.878,0,0,0,1.494-.917l3.924,2.246a.6.6,0,0,0,.708-.056l.154-.141a19.674,19.674,0,0,0,2.426-2.674l.125-.168a.616.616,0,0,0-.006-.714l-2.564-3.748a16.075,16.075,0,0,0,.773-1.584l4.371.072a.551.551,0,0,0,.544-.409l.056-.2a21.1,21.1,0,0,0,.656-3.65l.019-.215A.68.68,0,0,0,428.935,563.679Zm-20.8,7.917a12.231,12.231,0,0,1-11.9-10.956,9.843,9.843,0,0,1,9.94-10.956,12.206,12.206,0,0,1,11.9,10.956A9.86,9.86,0,0,1,408.131,571.6Z" transform="translate(-375.757 -531.422)" fill="#fff"/>
        </g>
        <g id="Grupo_59564" data-name="Grupo 59564" transform="translate(96.696 30.187)">
          <path id="Trazado_106389" data-name="Trazado 106389" d="M409.817,445.583H361.468a5.438,5.438,0,0,1-5.287-4.87l-4.521-48.7a4.364,4.364,0,0,1,4.417-4.87h48.7a5.409,5.409,0,0,1,5.287,4.87l4.174,48.7A4.385,4.385,0,0,1,409.817,445.583Z" transform="translate(-351.638 -387.147)" fill="#007fe2"/>
          <g id="Grupo_59563" data-name="Grupo 59563" transform="translate(7.674 7.304)">
            <path id="Trazado_106390" data-name="Trazado 106390" d="M427.039,405.246h0l12.915-.071a.986.986,0,0,0,.77-.363,1.449,1.449,0,0,0,.257-1.175,1.705,1.705,0,0,0-1.513-1.491h0l-12.918.072a.986.986,0,0,0-.77.361,1.447,1.447,0,0,0-.257,1.175A1.709,1.709,0,0,0,427.039,405.246Z" transform="translate(-397.203 -402.147)" fill="#bfd8f6"/>
            <path id="Trazado_106391" data-name="Trazado 106391" d="M368.945,405.367h0l21.171-.023a.985.985,0,0,0,.771-.363,1.444,1.444,0,0,0,.254-1.175,1.733,1.733,0,0,0-1.518-1.49h0l-21.178.023a.983.983,0,0,0-.77.364,1.442,1.442,0,0,0-.25,1.174A1.714,1.714,0,0,0,368.945,405.367Z" transform="translate(-367.397 -402.234)" fill="#bfd8f6"/>
            <path id="Trazado_106392" data-name="Trazado 106392" d="M407.45,419.2a1.443,1.443,0,0,0-.253,1.174,1.73,1.73,0,0,0,1.513,1.49h0l22.544-.036a.985.985,0,0,0,.769-.362,1.451,1.451,0,0,0,.257-1.175,1.7,1.7,0,0,0-1.512-1.49h0l-22.55.036A.983.983,0,0,0,407.45,419.2Z" transform="translate(-387.801 -410.69)" fill="#bfd8f6"/>
            <path id="Trazado_106393" data-name="Trazado 106393" d="M370.482,422.006h0l11.349-.072a.983.983,0,0,0,.769-.363,1.444,1.444,0,0,0,.252-1.173,1.711,1.711,0,0,0-1.518-1.491h0l-11.352.072a.979.979,0,0,0-.77.364,1.442,1.442,0,0,0-.25,1.174A1.715,1.715,0,0,0,370.482,422.006Z" transform="translate(-368.185 -410.745)" fill="#bfd8f6"/>
            <path id="Trazado_106394" data-name="Trazado 106394" d="M372.079,439.376h0l32.7-.09a.979.979,0,0,0,.768-.363,1.444,1.444,0,0,0,.255-1.174,1.7,1.7,0,0,0-1.512-1.491h0l-32.709.09a.984.984,0,0,0-.769.364,1.448,1.448,0,0,0-.249,1.175A1.714,1.714,0,0,0,372.079,439.376Z" transform="translate(-369.005 -419.647)" fill="#bfd8f6"/>
            <path id="Trazado_106395" data-name="Trazado 106395" d="M373.611,456.048h0l14.859-.1a.979.979,0,0,0,.766-.363,1.448,1.448,0,0,0,.254-1.175,1.731,1.731,0,0,0-1.514-1.491h0l-14.866.1a.98.98,0,0,0-.766.362,1.449,1.449,0,0,0-.251,1.176A1.715,1.715,0,0,0,373.611,456.048Z" transform="translate(-369.792 -428.197)" fill="#bfd8f6"/>
            <path id="Trazado_106396" data-name="Trazado 106396" d="M415.681,469.358h0l-41.046.159a.973.973,0,0,0-.766.363,1.444,1.444,0,0,0-.25,1.175,1.712,1.712,0,0,0,1.516,1.489h0l41.031-.158a.978.978,0,0,0,.767-.363,1.448,1.448,0,0,0,.255-1.174A1.7,1.7,0,0,0,415.681,469.358Z" transform="translate(-370.573 -436.629)" fill="#bfd8f6"/>
            <path id="Trazado_106397" data-name="Trazado 106397" d="M400.182,485.728h0l-24.052.1a.974.974,0,0,0-.766.363,1.445,1.445,0,0,0-.248,1.173,1.729,1.729,0,0,0,1.512,1.49h0l24.044-.1a.977.977,0,0,0,.767-.364,1.444,1.444,0,0,0,.251-1.172A1.7,1.7,0,0,0,400.182,485.728Z" transform="translate(-371.34 -445.027)" fill="#bfd8f6"/>
            <path id="Trazado_106398" data-name="Trazado 106398" d="M416.825,453.2a1.444,1.444,0,0,0-.253,1.175,1.728,1.728,0,0,0,1.512,1.49h0l19.416-.059a.982.982,0,0,0,.767-.362,1.453,1.453,0,0,0,.258-1.176,1.7,1.7,0,0,0-1.509-1.49h0l-19.423.059A.978.978,0,0,0,416.825,453.2Z" transform="translate(-392.611 -428.123)" fill="#bfd8f6"/>
          </g>
        </g>
        <g id="Grupo_59566" data-name="Grupo 59566" transform="translate(11.357 96.69)">
          <path id="Trazado_106399" data-name="Trazado 106399" d="M258.989,565.209H184.3a4.693,4.693,0,0,1-4.565-4.15l-3.319-33.2a3.687,3.687,0,0,1,3.734-4.149h74.693a4.691,4.691,0,0,1,4.565,4.149l3.32,33.2A3.688,3.688,0,0,1,258.989,565.209Z" transform="translate(-176.391 -523.713)" fill="#007fe2"/>
          <g id="Grupo_59565" data-name="Grupo 59565" transform="translate(39.827 5.529)">
            <path id="Trazado_106400" data-name="Trazado 106400" d="M291.059,535.407a1.218,1.218,0,0,0-.206,1,1.5,1.5,0,0,0,1.305,1.269h0l19.254-.031a.828.828,0,0,0,.653-.309,1.221,1.221,0,0,0,.206-1,1.479,1.479,0,0,0-1.307-1.271h0l-19.253.031A.828.828,0,0,0,291.059,535.407Z" transform="translate(-274.928 -535.067)" fill="#fff"/>
            <path id="Trazado_106401" data-name="Trazado 106401" d="M259.514,537.8h0l9.693-.061a.831.831,0,0,0,.654-.309,1.221,1.221,0,0,0,.206-1,1.479,1.479,0,0,0-1.309-1.271h0l-9.692.061a.832.832,0,0,0-.654.31,1.222,1.222,0,0,0-.206,1A1.478,1.478,0,0,0,259.514,537.8Z" transform="translate(-258.178 -535.114)" fill="#fff"/>
            <path id="Trazado_106402" data-name="Trazado 106402" d="M260.995,552.6h0l27.954-.076a.828.828,0,0,0,.653-.309,1.218,1.218,0,0,0,.206-1,1.477,1.477,0,0,0-1.307-1.271h0l-27.954.077a.832.832,0,0,0-.654.31,1.226,1.226,0,0,0-.206,1A1.478,1.478,0,0,0,260.995,552.6Z" transform="translate(-258.938 -542.7)" fill="#fff"/>
            <path id="Trazado_106403" data-name="Trazado 106403" d="M262.415,566.809h0l12.716-.082a.83.83,0,0,0,.652-.309,1.222,1.222,0,0,0,.207-1,1.5,1.5,0,0,0-1.308-1.27h0l-12.717.082a.832.832,0,0,0-.654.309,1.226,1.226,0,0,0-.206,1A1.479,1.479,0,0,0,262.415,566.809Z" transform="translate(-259.667 -549.986)" fill="#fff"/>
            <path id="Trazado_106404" data-name="Trazado 106404" d="M298.529,578.151h0l-35.148.136a.827.827,0,0,0-.654.309,1.218,1.218,0,0,0-.206,1,1.477,1.477,0,0,0,1.308,1.27h0l35.148-.136a.83.83,0,0,0,.653-.309,1.221,1.221,0,0,0,.205-1A1.478,1.478,0,0,0,298.529,578.151Z" transform="translate(-260.391 -557.171)" fill="#fff"/>
            <path id="Trazado_106405" data-name="Trazado 106405" d="M285.383,592.1h0l-20.615.085a.831.831,0,0,0-.655.309,1.222,1.222,0,0,0-.206,1,1.493,1.493,0,0,0,1.306,1.27h0l20.617-.085a.831.831,0,0,0,.655-.31,1.218,1.218,0,0,0,.2-1A1.476,1.476,0,0,0,285.383,592.1Z" transform="translate(-261.102 -564.327)" fill="#fff"/>
            <path id="Trazado_106406" data-name="Trazado 106406" d="M299.368,564.382a1.22,1.22,0,0,0-.206,1,1.5,1.5,0,0,0,1.307,1.271h0l16.616-.051a.832.832,0,0,0,.653-.308,1.226,1.226,0,0,0,.207-1,1.48,1.48,0,0,0-1.308-1.27h0l-16.616.051A.827.827,0,0,0,299.368,564.382Z" transform="translate(-279.191 -549.922)" fill="#fff"/>
          </g>
          <path id="Trazado_106407" data-name="Trazado 106407" d="M221.374,553.2a11.065,11.065,0,0,1-11.2,12.449A14.076,14.076,0,0,1,196.477,553.2a11.064,11.064,0,0,1,11.2-12.449A14.077,14.077,0,0,1,221.374,553.2Z" transform="translate(-186.663 -532.456)" fill="#e9f5fb"/>
        </g>
      </g>
      <g id="Grupo_59570" data-name="Grupo 59570" transform="translate(150.871 56.838)">
        <path id="Trazado_106408" data-name="Trazado 106408" d="M545.732,460.485c-.807-1.546-1.658-2.151-.886-6.192,2.514-13.161-9.637-10.544-10.277-7.194-.165.866.166,1.488,1.1.777,1.575-1.2,6.141-1.424,1.556,5.935-1.208,1.942-4.688,3.931.273,9.348,4.487,4.9-.329,5.032-.456,6.709C536.716,474.169,549.722,468.12,545.732,460.485Z" transform="translate(-482.064 -443.16)" fill="#002ca7"/>
        <path id="Trazado_106409" data-name="Trazado 106409" d="M499.535,535.4c-.393,2.818,5.6,72.272,5.6,72.272a2.755,2.755,0,0,0,3.242.094s1.122-16.011,3.279-31.117c1.861-13.041,1.584-25.409,2.616-26.222V536.606C508.977,536.952,501.291,536.169,499.535,535.4Z" transform="translate(-464.102 -489.856)" fill="#002381"/>
        <path id="Trazado_106410" data-name="Trazado 106410" d="M508.957,679.2a9.278,9.278,0,0,1-2.326.044,2.371,2.371,0,0,0-.113-.884,15,15,0,0,0-1.47-.637c.145.75.345,4.641-.413,5.2a5.811,5.811,0,0,1-2.951.708c-1.394,0-1.694.793-1.694,1.1a.653.653,0,0,0,.719.71c1.688,0,5.589-.018,6.762-.018a2.289,2.289,0,0,0,2.046-.608,1.164,1.164,0,0,0,.094-1.086A34.027,34.027,0,0,1,508.957,679.2Z" transform="translate(-464.344 -562.871)" fill="#ff550d"/>
        <g id="Grupo_59568" data-name="Grupo 59568" transform="translate(0 6.708)">
          <path id="Trazado_106411" data-name="Trazado 106411" d="M437.655,456.891c-.249.1-.049,1.261.123,1.465.563.363.84.312,1.386.673a7.5,7.5,0,0,1-1.008-1.687C438.055,457.052,438.027,456.7,437.655,456.891Z" transform="translate(-432.304 -456.26)" fill="#e9f5fb"/>
          <path id="Trazado_106412" data-name="Trazado 106412" d="M493.463,472.939c-3.1-.349-13.043,1.154-17.941.962-6.009-.236-4.027,4.04-2.23,4.7,4.731,1.734,18.535,4.244,19.688,1.885C493.479,479.463,494.024,473,493.463,472.939Z" transform="translate(-449.717 -464.493)" fill="#e9f5fb"/>
          <path id="Trazado_106413" data-name="Trazado 106413" d="M502.52,472.921c-2.186-.246-7.873.244-12.661.1a37.454,37.454,0,0,0-.607,5.39c-.021.652-.148,2.623-.114,3.27,5.581,1.084,12.129.356,12.9-1.218C502.536,479.444,503.081,472.984,502.52,472.921Z" transform="translate(-458.774 -464.474)" fill="#0066e9"/>
          <path id="Trazado_106414" data-name="Trazado 106414" d="M457.673,468.335c-3.025-1.488-15.172-5.05-18.077-7.1a11.143,11.143,0,0,1-1.366,2.494c4.844,3.278,17.826,10.081,19.628,8.592a2.273,2.273,0,0,0,.33-3.6A2.032,2.032,0,0,0,457.673,468.335Z" transform="translate(-432.659 -458.514)" fill="#e9f5fb"/>
          <path id="Trazado_106415" data-name="Trazado 106415" d="M428.793,459.107a.418.418,0,0,0,.037.022c1.359.747,3.076,1.5,3.6,1.754a5.185,5.185,0,0,0,1.352-2.477c-.7-.305-1.618-.944-2.223-1.236-.705-.354-2.372-.97-2.491-1.016-.342-.1-1.184-.432-1.461-.484a.679.679,0,0,0-.8.349c-.042.129-.072.47.762.758a15.375,15.375,0,0,1,1.59.627s-.568.263-.279.637c0,0-.521.186-.242.625C428.638,458.666,428.409,458.9,428.793,459.107Z" transform="translate(-426.79 -455.65)" fill="#e9f5fb"/>
        </g>
        <path id="Trazado_106416" data-name="Trazado 106416" d="M532.788,535.4c-1.756.769-14.234,3.1-19.529,2.756a65.278,65.278,0,0,0,1.36,11.225c1.754,6.656,4.06,17.711,5.194,23.456,2.916,14.755,8.337,34.281,8.337,34.281,1.483.845,3.287-.485,3.316-.6,0,0-.131-26.741-1.326-32.943C529.154,568.453,533,536.93,532.788,535.4Z" transform="translate(-471.152 -489.856)" fill="#002ca7"/>
        <path id="Trazado_106417" data-name="Trazado 106417" d="M497.567,544.083s-1.685,8.088-.875,8.791c1.83,1.59,8.7.122,13.929-.52s14.858.418,15.111-.65c.68-2.882-.6-9.25-.6-9.25Z" transform="translate(-462.54 -493.476)" fill="#0066e9"/>
        <path id="Trazado_106418" data-name="Trazado 106418" d="M521.075,455.647c-.368.27-4.188,2.391-5.278,2.226.008.3.743,3.642.037,5.361.678,2.687,4.733,1.466,5.955-1.242C521.282,461.221,520.859,457.121,521.075,455.647Z" transform="translate(-472.454 -448.94)" fill="#fff"/>
        <path id="Trazado_106419" data-name="Trazado 106419" d="M520.235,445.659c-1.655-1.144-3.562-1.738-4.914-.336-.484.5-3.366,5.918-1.03,8.388.988,1.045,4.48.371,5.4-.958l1.265-1.829A3.669,3.669,0,0,0,520.235,445.659Z" transform="translate(-471.218 -443.224)" fill="#fff"/>
        <path id="Trazado_106420" data-name="Trazado 106420" d="M496.238,509.246c1.7,3.4,30,1.158,29.471-3.05-1.75-14.018-3.158-28.226-3.536-29.4-1.226-3.816-2.642-5.837-6.038-6.76-1.134-.306-4.495-1.354-4.495-1.354s-2.384,2.339-3.958,2.467c-1.081.089-2-1.226-2-1.226a46.664,46.664,0,0,0-4.6,1.8c-2.741,1.8-2.785,4.839-2.946,7.358-.566,8.869-1.057,15.066-1.423,19.429-.1,1.155-.187,2.185-.268,3.1C495.988,507.011,495.854,508.479,496.238,509.246Z" transform="translate(-462.305 -455.626)" fill="#007fe2"/>
        <path id="Trazado_106421" data-name="Trazado 106421" d="M524.861,445.754c-1.16-3.783-6.5-3.686-6.5-3.686-3.308-1.2-5.25,3.532-4.262,4.974,1.258-3.581,4.043-3.325,4.043-3.325,4.063,2.338,2.608,7.972,1.6,9.055C519.736,452.772,526.609,451.449,524.861,445.754Z" transform="translate(-471.449 -441.874)" fill="#002ca7"/>
        <path id="Trazado_106422" data-name="Trazado 106422" d="M496.914,505.549c.753.024,1.479.039,1.911.027v0c5.667-.545,19.4-3.432,20.533-5.7a2.906,2.906,0,0,0,.916-1.524,46.326,46.326,0,0,0,.471-6.762c.353-.11.7-.229,1.023-.363.08-5.684-.973-10.666-1.89-12.158-2.357-3.842-7.756-3.191-8.554-.461-.616,2.113,1.083,8.7,1.792,13.441a9.756,9.756,0,0,0,1.223.19c.4,1.771.732,3.425.917,4.75.009.063.018.119.03.178-4.378,1.437-13.685,5.3-16.905,5.611a.043.043,0,0,1-.005-.012c-.158-.021-.318-.036-.479-.048a4.429,4.429,0,0,1-.715-.268C497.084,503.606,496.995,504.635,496.914,505.549Z" transform="translate(-462.766 -459.574)" fill="#0066e9"/>
        <path id="Trazado_106423" data-name="Trazado 106423" d="M528.12,455.9a1.827,1.827,0,0,0-.929-.192,10.262,10.262,0,0,0-.541,2.559,2.059,2.059,0,0,0,1.806-.7A1.373,1.373,0,0,0,528.12,455.9Z" transform="translate(-478.022 -448.971)" fill="#fff"/>
        <path id="Trazado_106424" data-name="Trazado 106424" d="M536.042,446.89a1.334,1.334,0,0,0-.581-.584,1.723,1.723,0,0,0-1.138-.094,7.068,7.068,0,0,1,1.326,2.867A1.484,1.484,0,0,0,536.042,446.89Z" transform="translate(-481.958 -444.071)" fill="#ff550d"/>
        <g id="Grupo_59569" data-name="Grupo 59569" transform="translate(30.467 15.051)">
          <path id="Trazado_106425" data-name="Trazado 106425" d="M496.415,524.219c-.248-.186-.465-.459-.669-.094-.151.223.664,1.073.92,1.145.67-.013.66-.406,1.289-.327A5.652,5.652,0,0,1,496.415,524.219Z" transform="translate(-492.624 -499.031)" fill="#e9f5fb"/>
          <path id="Trazado_106426" data-name="Trazado 106426" d="M495.165,525.994a14.17,14.17,0,0,0-1.973-.091c-.792.009-2.557.227-2.68.242-.356.065-.349.142-.6.272a1.5,1.5,0,0,0-.548.711.453.453,0,0,0,.241.447c-.14.36.817.533.764.613-.22.329-.758.7.62.5.083-.011,3.565.156,4.682.119A14.185,14.185,0,0,0,495.165,525.994Z" transform="translate(-489.355 -500.034)" fill="#e9f5fb"/>
          <path id="Trazado_106427" data-name="Trazado 106427" d="M528.568,477.612c.2,3.109,2.917,12.413,3.594,17.269.83,5.956,4.688,3.25,5.02,1.365.871-4.963.567-18.207-1.1-19.491C535.177,476.062,528.53,477.049,528.568,477.612Z" transform="translate(-509.472 -474.699)" fill="#e9f5fb"/>
          <path id="Trazado_106428" data-name="Trazado 106428" d="M526.64,475.58c-.615,2.111,1.632,7.706,2.34,12.444a16.3,16.3,0,0,0,8.65-.821c.082-5.685-.973-10.665-1.889-12.158C533.385,471.2,527.438,472.85,526.64,475.58Z" transform="translate(-508.429 -472.783)" fill="#007fe2"/>
          <path id="Trazado_106429" data-name="Trazado 106429" d="M520.2,513.634a2.049,2.049,0,0,0-.64.034c-3.279.781-14.909,5.778-18.455,6.049a11.231,11.231,0,0,1,.537,2.793c5.822-.561,20.16-3.593,20.6-5.888A2.271,2.271,0,0,0,520.2,513.634Z" transform="translate(-495.383 -493.736)" fill="#e9f5fb"/>
        </g>
        <path id="Trazado_106430" data-name="Trazado 106430" d="M541.335,678.463a9.229,9.229,0,0,1-2.32.182,2.356,2.356,0,0,0-.166-.875,14.869,14.869,0,0,0-1.5-.551c.188.74.616,4.612-.105,5.221a5.817,5.817,0,0,1-2.905.88c-1.391.082-1.644.892-1.626,1.2a.653.653,0,0,0,.76.668c1.684-.1,5.577-.346,6.75-.415a2.286,2.286,0,0,0,2.006-.727,1.165,1.165,0,0,0,.03-1.09A34.2,34.2,0,0,1,541.335,678.463Z" transform="translate(-481.13 -562.614)" fill="#ff550d"/>
      </g>
    </g>
    <g id="Grupo_59577" data-name="Grupo 59577" transform="translate(178.273 78.438)">
      <g id="Grupo_59573" data-name="Grupo 59573" transform="translate(31.842 61.83)">
        <path id="Trazado_106431" data-name="Trazado 106431" d="M408.722,290.034H334.029a4.692,4.692,0,0,1-4.564-4.149l-3.32-33.2a3.688,3.688,0,0,1,3.735-4.149h74.693a4.692,4.692,0,0,1,4.564,4.149l3.32,33.2A3.688,3.688,0,0,1,408.722,290.034Z" transform="translate(-326.124 -248.538)" fill="#0066e9"/>
        <path id="Trazado_106432" data-name="Trazado 106432" d="M416.722,290.034H342.029a4.692,4.692,0,0,1-4.564-4.149l-3.32-33.2a3.688,3.688,0,0,1,3.735-4.149h74.693a4.692,4.692,0,0,1,4.564,4.149l3.32,33.2A3.688,3.688,0,0,1,416.722,290.034Z" transform="translate(-330.228 -248.538)" fill="#007fe2"/>
        <g id="Grupo_59572" data-name="Grupo 59572" transform="translate(43.724 5.529)">
          <path id="Trazado_106433" data-name="Trazado 106433" d="M448.794,260.232a1.221,1.221,0,0,0-.206,1,1.5,1.5,0,0,0,1.305,1.269h0l19.254-.03a.832.832,0,0,0,.654-.309,1.223,1.223,0,0,0,.205-1,1.477,1.477,0,0,0-1.307-1.27h0l-19.252.031A.831.831,0,0,0,448.794,260.232Z" transform="translate(-432.662 -259.893)" fill="#fff"/>
          <path id="Trazado_106434" data-name="Trazado 106434" d="M417.248,262.625h0l9.692-.062a.831.831,0,0,0,.654-.309,1.222,1.222,0,0,0,.206-1,1.478,1.478,0,0,0-1.309-1.27h0l-9.692.061a.832.832,0,0,0-.655.31,1.22,1.22,0,0,0-.205,1A1.477,1.477,0,0,0,417.248,262.625Z" transform="translate(-415.912 -259.94)" fill="#fff"/>
          <path id="Trazado_106435" data-name="Trazado 106435" d="M418.729,277.427h0l27.954-.076a.829.829,0,0,0,.653-.309,1.221,1.221,0,0,0,.206-1,1.478,1.478,0,0,0-1.307-1.271h0l-27.954.077a.832.832,0,0,0-.655.31,1.222,1.222,0,0,0-.2,1A1.477,1.477,0,0,0,418.729,277.427Z" transform="translate(-416.673 -267.525)" fill="#fff"/>
          <path id="Trazado_106436" data-name="Trazado 106436" d="M420.149,291.634h0l12.716-.082a.83.83,0,0,0,.653-.309,1.222,1.222,0,0,0,.207-1,1.5,1.5,0,0,0-1.308-1.27h0l-12.717.082a.83.83,0,0,0-.653.309,1.224,1.224,0,0,0-.207,1A1.48,1.48,0,0,0,420.149,291.634Z" transform="translate(-417.402 -274.812)" fill="#fff"/>
          <path id="Trazado_106437" data-name="Trazado 106437" d="M456.263,302.976h0l-35.148.135a.828.828,0,0,0-.653.309,1.221,1.221,0,0,0-.206,1,1.477,1.477,0,0,0,1.308,1.27h0l35.148-.135a.829.829,0,0,0,.654-.309,1.222,1.222,0,0,0,.206-1A1.479,1.479,0,0,0,456.263,302.976Z" transform="translate(-418.126 -281.996)" fill="#fff"/>
          <path id="Trazado_106438" data-name="Trazado 106438" d="M443.116,316.925h0l-20.615.085a.832.832,0,0,0-.655.309,1.223,1.223,0,0,0-.206,1,1.493,1.493,0,0,0,1.307,1.269h0l20.617-.085a.827.827,0,0,0,.655-.31,1.216,1.216,0,0,0,.2-1A1.476,1.476,0,0,0,443.116,316.925Z" transform="translate(-418.836 -289.152)" fill="#fff"/>
          <path id="Trazado_106439" data-name="Trazado 106439" d="M457.1,289.206a1.221,1.221,0,0,0-.206,1,1.5,1.5,0,0,0,1.307,1.27h0l16.616-.05a.828.828,0,0,0,.653-.309,1.225,1.225,0,0,0,.207-1,1.48,1.48,0,0,0-1.307-1.27h0l-16.616.051A.828.828,0,0,0,457.1,289.206Z" transform="translate(-436.925 -274.747)" fill="#fff"/>
        </g>
        <path id="Trazado_106440" data-name="Trazado 106440" d="M379.108,278.029a11.064,11.064,0,0,1-11.2,12.448,14.077,14.077,0,0,1-13.693-12.448,11.065,11.065,0,0,1,11.2-12.449A14.076,14.076,0,0,1,379.108,278.029Z" transform="translate(-340.501 -257.281)" fill="#e9f5fb"/>
      </g>
      <g id="Grupo_59576" data-name="Grupo 59576" transform="translate(0 0)">
        <g id="Grupo_59574" data-name="Grupo 59574" transform="translate(0 11.881)">
          <path id="Trazado_106441" data-name="Trazado 106441" d="M337.49,187.462H268.641a4.692,4.692,0,0,1-4.565-4.15l-3.32-33.2a3.688,3.688,0,0,1,3.735-4.149h68.849a4.692,4.692,0,0,1,4.564,4.149l3.32,33.2A3.688,3.688,0,0,1,337.49,187.462Z" transform="translate(-260.736 -145.966)" fill="#e2410f"/>
          <path id="Trazado_106442" data-name="Trazado 106442" d="M345.49,187.462H276.641a4.692,4.692,0,0,1-4.565-4.15l-3.32-33.2a3.688,3.688,0,0,1,3.735-4.149h68.849a4.692,4.692,0,0,1,4.564,4.149l3.32,33.2A3.688,3.688,0,0,1,345.49,187.462Z" transform="translate(-264.84 -145.966)" fill="#ff550d"/>
        </g>
        <path id="Trazado_106443" data-name="Trazado 106443" d="M384.323,159.649a2.8,2.8,0,0,0-2.731-2.516h-25.16a2.255,2.255,0,0,0-2.282,2.516l2.336,25.159a2.81,2.81,0,0,0,2.732,2.516H384.2a2.266,2.266,0,0,0,2.282-2.516ZM359.382,184.4l-2.261-24.348h24.3l2.087,24.348Z" transform="translate(-308.655 -139.814)" fill="#e2410f"/>
        <g id="Grupo_59575" data-name="Grupo 59575" transform="translate(56.19)">
          <path id="Trazado_106444" data-name="Trazado 106444" d="M409.8,155.4H381.814a3.149,3.149,0,0,1-3.061-2.819l-2.617-28.191a2.526,2.526,0,0,1,2.557-2.819h28.191a3.132,3.132,0,0,1,3.061,2.819l2.416,28.191A2.539,2.539,0,0,1,409.8,155.4Z" transform="translate(-376.124 -121.568)" fill="#002caa"/>
          <path id="Trazado_106445" data-name="Trazado 106445" d="M405.541,134.246a4.715,4.715,0,0,0-4.6-4.229,3.8,3.8,0,0,0-3.841,4.228,4.721,4.721,0,0,0,4.6,4.229A3.8,3.8,0,0,0,405.541,134.246Z" transform="translate(-386.875 -125.903)" fill="#cae3fb"/>
          <path id="Trazado_106446" data-name="Trazado 106446" d="M409.822,140.627a.953.953,0,0,0-1.432-.048L397.93,153.25a.929.929,0,0,1-1.36.016l-6.158-5.845a.926.926,0,0,0-1.368.024l-3.689,4.593.83,9.006a1.258,1.258,0,0,0,1.224,1.128l25.763,0a1.015,1.015,0,0,0,1.024-1.128L412.718,143.9Z" transform="translate(-380.86 -131.166)" fill="#cae3fb"/>
        </g>
        <path id="Trazado_106447" data-name="Trazado 106447" d="M313.413,174.7l-2.678-1.424c-.008-.207-.02-.412-.038-.613s-.041-.406-.07-.613l2.432-1.424a.381.381,0,0,0,.168-.433l-.042-.162a16.1,16.1,0,0,0-.86-2.429l-.062-.138a.479.479,0,0,0-.419-.274l-2.922.048c-.218-.364-.454-.721-.705-1.062l1.284-2.513a.428.428,0,0,0-.08-.479l-.105-.113a17.121,17.121,0,0,0-1.944-1.791l-.121-.095a.42.42,0,0,0-.482-.038l-2.377,1.507c-.363-.223-.737-.429-1.114-.615l-.211-2.932a.461.461,0,0,0-.308-.4l-.143-.05a15.764,15.764,0,0,0-2.5-.654l-.148-.026a.379.379,0,0,0-.415.207l-1.194,2.564a11.668,11.668,0,0,0-1.224,0l-1.652-2.564a.452.452,0,0,0-.453-.206l-.142.026a13.853,13.853,0,0,0-2.387.654l-.132.05a.372.372,0,0,0-.237.4l.313,2.932a10.835,10.835,0,0,0-1,.615l-2.645-1.506a.4.4,0,0,0-.476.038l-.1.094a13.171,13.171,0,0,0-1.625,1.791l-.084.112a.412.412,0,0,0,0,.48l1.734,2.512a10.858,10.858,0,0,0-.516,1.062l-2.944-.048a.377.377,0,0,0-.355.273l-.037.138a14.091,14.091,0,0,0-.428,2.447l-.011.144a.456.456,0,0,0,.245.433l2.687,1.425c.008.2.021.41.04.613s.043.409.072.613l-2.424,1.424a.38.38,0,0,0-.166.434l.038.145a16.1,16.1,0,0,0,.877,2.447l.062.139a.451.451,0,0,0,.42.272l2.914-.048c.22.365.457.722.709,1.062l-1.271,2.512a.428.428,0,0,0,.082.48l.1.113a17.2,17.2,0,0,0,1.945,1.791l.12.095a.418.418,0,0,0,.481.038l2.362-1.507c.362.223.735.429,1.111.615l.218,2.932a.463.463,0,0,0,.307.4l.142.05a15.635,15.635,0,0,0,2.491.654l.142.025a.44.44,0,0,0,.079.008.366.366,0,0,0,.337-.214l1.186-2.564a11.565,11.565,0,0,0,1.219,0l1.643,2.564a.454.454,0,0,0,.449.207l.143-.026a13.653,13.653,0,0,0,2.372-.654l.133-.05a.373.373,0,0,0,.238-.4l-.307-2.932a10.715,10.715,0,0,0,1-.615l2.631,1.506a.4.4,0,0,0,.475-.037l.1-.095a13.238,13.238,0,0,0,1.626-1.792l.083-.113a.413.413,0,0,0,0-.479l-1.719-2.512a10.87,10.87,0,0,0,.519-1.062l2.93.048a.368.368,0,0,0,.365-.274l.038-.137a14.17,14.17,0,0,0,.44-2.447l.013-.144A.456.456,0,0,0,313.413,174.7ZM299.468,180a8.2,8.2,0,0,1-7.975-7.344,6.6,6.6,0,0,1,6.663-7.344,8.182,8.182,0,0,1,7.974,7.344A6.61,6.61,0,0,1,299.468,180Z" transform="translate(-272.647 -140.243)" fill="#fff"/>
      </g>
    </g>
    <g id="Grupo_59597" data-name="Grupo 59597" transform="translate(329.685 170.194)">
      <g id="Grupo_59583" data-name="Grupo 59583" transform="translate(0 86.031)">
        <g id="Grupo_59578" data-name="Grupo 59578" transform="translate(85.797)">
          <path id="Trazado_106448" data-name="Trazado 106448" d="M899,492.634l-15.609,93.083A7.845,7.845,0,0,1,876.126,592c-.114.01-.226.016-.343.016-.144.005-.287.005-.433,0l-28.721-.71-6.418-.157-57.127-1.411-11.92-.3-13.047-.321.465-2.985.936-6.022,14-89.963a2.527,2.527,0,0,1,2.517-2.02l37.4-.47,13.078-.165,7.851-.1,5.047-.061,14.736-.186,38.752-.489c3.246,0,4.861,1.416,5.6,2.929A5.282,5.282,0,0,1,899,492.634Z" transform="translate(-753.119 -486.662)" fill="#002382"/>
          <path id="Trazado_106449" data-name="Trazado 106449" d="M890.586,489.538a2.7,2.7,0,0,1-.055.617l-15.816,95.094A12.41,12.41,0,0,1,870.861,592c-.16.144-.325.284-.492.42a12.754,12.754,0,0,1-8.063,2.8H750.81a2.974,2.974,0,0,1-2.9-3.492l.946-5.585,16.521-97.457a2.524,2.524,0,0,1,2.513-2.02h119.74A3,3,0,0,1,890.586,489.538Z" transform="translate(-747.854 -486.662)" fill="#007fe2"/>
          <path id="Trazado_106450" data-name="Trazado 106450" d="M892.187,497.333l-.016.093-1.257,7.553L877.054,588.3H762.029l14.155-83.5,1.264-7.463Z" transform="translate(-755.126 -492.137)" fill="#fff"/>
        </g>
        <g id="Grupo_59582" data-name="Grupo 59582" transform="translate(0 99.477)">
          <g id="Grupo_59579" data-name="Grupo 59579">
            <path id="Trazado_106451" data-name="Trazado 106451" d="M682.987,690.942H576.206a4.538,4.538,0,1,0,0,9.076H682.987a4.538,4.538,0,1,0,0-9.076Z" transform="translate(-571.667 -690.942)" fill="#002caa"/>
          </g>
          <g id="Grupo_59580" data-name="Grupo 59580" transform="translate(103.67)">
            <path id="Trazado_106452" data-name="Trazado 106452" d="M885.013,690.942H789.1a4.538,4.538,0,1,0,0,9.076h95.918a4.538,4.538,0,0,0,0-9.076Z" transform="translate(-784.557 -690.942)" fill="#002382"/>
          </g>
          <g id="Grupo_59581" data-name="Grupo 59581" transform="translate(172.196 1.823)">
            <path id="Rectngulo_7826" data-name="Rectngulo 7826" d="M1.694,0H9.6A1.695,1.695,0,0,1,11.3,1.695v0A1.694,1.694,0,0,1,9.6,3.389H1.693A1.693,1.693,0,0,1,0,1.7v0A1.694,1.694,0,0,1,1.694,0Z" transform="translate(12.584)" fill="#007fe2"/>
            <path id="Rectngulo_7827" data-name="Rectngulo 7827" d="M1.694,0H6.5A1.694,1.694,0,0,1,8.19,1.694v0A1.694,1.694,0,0,1,6.5,3.389h-4.8A1.695,1.695,0,0,1,0,1.694v0A1.694,1.694,0,0,1,1.694,0Z" fill="#007fe2"/>
          </g>
        </g>
      </g>
      <g id="Grupo_59594" data-name="Grupo 59594" transform="translate(35.098)">
        <g id="Grupo_59585" data-name="Grupo 59585">
          <path id="Trazado_106453" data-name="Trazado 106453" d="M815.432,319.418,792.614,472.086a2.984,2.984,0,0,1-2.952,2.543H646.727a2.984,2.984,0,0,1-2.951-3.428l22.982-152.668a2.983,2.983,0,0,1,2.951-2.54H812.481A2.984,2.984,0,0,1,815.432,319.418Z" transform="translate(-643.743 -313.071)" fill="#bfd8f6"/>
          <path id="Trazado_106454" data-name="Trazado 106454" d="M810.878,313.418,788.059,466.086a2.984,2.984,0,0,1-2.951,2.543H647.664a2.984,2.984,0,0,1-2.951-3.428l22.981-152.668a2.984,2.984,0,0,1,2.951-2.54H807.926A2.984,2.984,0,0,1,810.878,313.418Z" transform="translate(-644.223 -309.993)" fill="#e9f5fb"/>
          <path id="Trazado_106455" data-name="Trazado 106455" d="M980.07,321.5H966.155l1.72-11.5h10.451a2.984,2.984,0,0,1,2.952,3.425Z" transform="translate(-809.152 -309.993)" fill="#002381"/>
          <path id="Trazado_106456" data-name="Trazado 106456" d="M689.171,321.5H832.507l1.208-8.079a2.984,2.984,0,0,0-2.952-3.425H693.471a2.984,2.984,0,0,0-2.951,2.54Z" transform="translate(-667.049 -309.993)" fill="#002ca7"/>
          <g id="Grupo_59584" data-name="Grupo 59584" transform="translate(145.098 3.841)">
            <path id="Trazado_106457" data-name="Trazado 106457" d="M941.71,319.792A1.779,1.779,0,0,0,943.5,321.7a2.06,2.06,0,0,0,2.02-1.911,1.77,1.77,0,0,0-1.788-1.911A2.049,2.049,0,0,0,941.71,319.792Z" transform="translate(-941.706 -317.881)" fill="#e9f5fb"/>
            <path id="Trazado_106458" data-name="Trazado 106458" d="M956.359,319.792a1.779,1.779,0,0,0,1.788,1.911,2.061,2.061,0,0,0,2.02-1.911,1.771,1.771,0,0,0-1.788-1.911A2.049,2.049,0,0,0,956.359,319.792Z" transform="translate(-949.222 -317.881)" fill="#e9f5fb"/>
            <path id="Trazado_106459" data-name="Trazado 106459" d="M971.009,319.792A1.778,1.778,0,0,0,972.8,321.7a2.06,2.06,0,0,0,2.02-1.911,1.77,1.77,0,0,0-1.788-1.911A2.049,2.049,0,0,0,971.009,319.792Z" transform="translate(-956.738 -317.881)" fill="#e9f5fb"/>
          </g>
        </g>
        <g id="Grupo_59586" data-name="Grupo 59586" transform="translate(15.578 46.037)">
          <path id="Trazado_106460" data-name="Trazado 106460" d="M766.157,505.561h-81.4a8.794,8.794,0,0,1-8.949-10.1l9.814-80.824a11.735,11.735,0,0,1,11.33-10.1h80.823a8.834,8.834,0,0,1,8.948,10.1l-9.237,80.824A11.671,11.671,0,0,1,766.157,505.561Z" transform="translate(-675.733 -404.532)" fill="#007fe2"/>
          <path id="Trazado_106461" data-name="Trazado 106461" d="M765.129,458.383a25.143,25.143,0,0,1,2.518.127l2.455-21.021a1.6,1.6,0,0,0-1.624-1.837H721.586a2.132,2.132,0,0,0-2.06,1.837l-5.638,46.841a1.6,1.6,0,0,0,1.624,1.837h21.119c.016-.831.072-1.673.173-2.526C738.461,469.692,751.143,458.383,765.129,458.383Z" transform="translate(-695.301 -420.498)" fill="#cae3fb"/>
          <path id="Trazado_106462" data-name="Trazado 106462" d="M791.616,482.592l-3.015,25.82a2.126,2.126,0,0,1-2.06,1.837H760.6c-.241,12.763,9.411,22.731,22.589,22.731,14.036,0,26.717-11.308,28.324-25.257C813.023,494.626,804.267,483.859,791.616,482.592Z" transform="translate(-719.271 -444.58)" fill="#bfd8f6"/>
          <path id="Trazado_106463" data-name="Trazado 106463" d="M788.606,508.278l3.015-25.82a25.136,25.136,0,0,0-2.518-.127c-13.987,0-26.668,11.308-28.324,25.257-.1.853-.157,1.7-.173,2.526h25.94A2.126,2.126,0,0,0,788.606,508.278Z" transform="translate(-719.276 -444.446)" fill="#fff"/>
        </g>
        <g id="Grupo_59591" data-name="Grupo 59591" transform="translate(125.352 20.497)">
          <g id="Grupo_59587" data-name="Grupo 59587" transform="translate(10.896)">
            <path id="Trazado_106464" data-name="Trazado 106464" d="M956.535,388.959H926.826a3.21,3.21,0,0,1-3.266-3.688l3.582-29.5a4.283,4.283,0,0,1,4.135-3.688h29.5a3.225,3.225,0,0,1,3.266,3.688l-3.371,29.5A4.261,4.261,0,0,1,956.535,388.959Z" transform="translate(-923.533 -352.085)" fill="#ff550d"/>
            <path id="Trazado_106465" data-name="Trazado 106465" d="M953.043,377.073a2.391,2.391,0,1,1,3.149,3.555,2.618,2.618,0,0,1-3.105.382l-7,6.231,13.811-2.487a30.853,30.853,0,0,1,6.545-10.67l-5.727-6.466A30.605,30.605,0,0,1,949.4,372.9l-4.1,13.45,7-6.231A2.639,2.639,0,0,1,953.043,377.073Z" transform="translate(-934.7 -360.054)" fill="#fff"/>
            <path id="Trazado_106466" data-name="Trazado 106466" d="M982.684,369.062l-5.727-6.466,2.9-4.767,7.873,8.888Z" transform="translate(-950.941 -355.032)" fill="#e9f5fb"/>
            <path id="Trazado_106467" data-name="Trazado 106467" d="M962.07,384.206l-2.637-2.963a.869.869,0,0,0-1.191,0l-3.322,2.963a.847.847,0,0,0-.138,1.185l.6.675a15.653,15.653,0,0,1-8.1,2.315,12.979,12.979,0,0,1-7.558-2.314l.76-.675a.847.847,0,0,0,.141-1.185L938,381.243a.747.747,0,0,0-.566-.245.951.951,0,0,0-.625.245l-.76.675a13.012,13.012,0,0,1-1.386-7.785,15.8,15.8,0,0,1,3.256-7.787l.6.676a.744.744,0,0,0,.564.245.947.947,0,0,0,.623-.245l3.323-2.963a.955.955,0,0,0,.317-.593.752.752,0,0,0-.175-.593l-2.613-2.963a.863.863,0,0,0-1.186,0l-3.323,2.963a.851.851,0,0,0-.143,1.185l.952,1.08a17.7,17.7,0,0,0-3.874,8.994,14.487,14.487,0,0,0,1.709,8.992l-1.216,1.081a.958.958,0,0,0-.318.593.75.75,0,0,0,.175.592l2.625,2.963a.747.747,0,0,0,.567.245.949.949,0,0,0,.625-.245l1.216-1.081a14.464,14.464,0,0,0,8.719,2.783,17.542,17.542,0,0,0,9.376-2.783l.962,1.081a.75.75,0,0,0,.568.245.947.947,0,0,0,.625-.245l3.323-2.963a.948.948,0,0,0,.316-.592A.755.755,0,0,0,962.07,384.206Zm-24.318-20.739,1.994-1.778,1.568,1.778-1.995,1.778Zm-.99,23.11-1.575-1.778,2-1.778,1.574,1.778Zm21.458,0-1.582-1.778,1.993-1.778,1.583,1.778Z" transform="translate(-928.319 -355.98)" fill="#e9f5fb"/>
          </g>
          <g id="Grupo_59588" data-name="Grupo 59588" transform="translate(5.43 44.929)">
            <path id="Trazado_106468" data-name="Trazado 106468" d="M945.311,481.222H915.6a3.209,3.209,0,0,1-3.266-3.687l3.582-29.5a4.282,4.282,0,0,1,4.135-3.687h29.5a3.224,3.224,0,0,1,3.266,3.687l-3.371,29.5A4.259,4.259,0,0,1,945.311,481.222Z" transform="translate(-912.308 -444.349)" fill="#002ca7"/>
            <path id="Trazado_106469" data-name="Trazado 106469" d="M950,473.666h-2.848L948.507,462h2.842a1.914,1.914,0,0,0,1.854-1.66,1.45,1.45,0,0,0-1.471-1.659h-2.839l.329-2.834a1.449,1.449,0,0,0-1.468-1.66,1.917,1.917,0,0,0-1.854,1.66l-.331,2.834H933.886l.337-2.834a1.444,1.444,0,0,0-1.463-1.66,1.924,1.924,0,0,0-1.859,1.66l-.339,2.834h-2.839a1.927,1.927,0,0,0-1.863,1.659,1.442,1.442,0,0,0,1.463,1.66h2.841l-1.395,11.661h-2.848a1.93,1.93,0,0,0-1.867,1.659,1.445,1.445,0,0,0,1.468,1.66h2.85l-.339,2.834a1.447,1.447,0,0,0,1.471,1.66,1.928,1.928,0,0,0,1.867-1.66l.337-2.834h11.723l-.331,2.834a1.452,1.452,0,0,0,1.476,1.66,1.921,1.921,0,0,0,1.862-1.66l.329-2.834h2.849a1.917,1.917,0,0,0,1.86-1.66A1.452,1.452,0,0,0,950,473.666Zm-17.9,0L933.491,462h11.69l-1.361,11.661Z" transform="translate(-918.328 -449.399)" fill="#e9f5fb"/>
          </g>
          <g id="Grupo_59590" data-name="Grupo 59590" transform="translate(0 89.696)">
            <path id="Trazado_106470" data-name="Trazado 106470" d="M934.16,573.152h-29.71a3.21,3.21,0,0,1-3.266-3.687l3.582-29.5a4.283,4.283,0,0,1,4.135-3.688h29.5a3.225,3.225,0,0,1,3.266,3.688l-3.372,29.5A4.26,4.26,0,0,1,934.16,573.152Z" transform="translate(-901.158 -536.279)" fill="#ff550d"/>
            <g id="Grupo_59589" data-name="Grupo 59589" transform="translate(9.01 6.453)">
              <path id="Trazado_106471" data-name="Trazado 106471" d="M921.053,549.53h22.661a.584.584,0,0,1,.591.668l-.615,5.32a.771.771,0,0,1-.747.668h-7.093a.773.773,0,0,0-.748.668l-1.872,15.976a.774.774,0,0,1-.75.668h-5.845a.583.583,0,0,1-.592-.668l1.894-15.976a.582.582,0,0,0-.591-.668h-7.092a.581.581,0,0,1-.589-.668l.639-5.32A.776.776,0,0,1,921.053,549.53Z" transform="translate(-919.66 -549.53)" fill="#fff"/>
            </g>
          </g>
        </g>
        <g id="Grupo_59593" data-name="Grupo 59593" transform="translate(27.862 20.497)">
          <path id="Trazado_106472" data-name="Trazado 106472" d="M799.841,369.869H702.546a1.548,1.548,0,0,1-1.575-1.778l1.728-14.227a2.066,2.066,0,0,1,1.995-1.778h97.193a1.555,1.555,0,0,1,1.575,1.778l-1.626,14.227A2.054,2.054,0,0,1,799.841,369.869Z" transform="translate(-700.958 -352.085)" fill="#bfd8f6"/>
          <g id="Grupo_59592" data-name="Grupo 59592" transform="translate(5.977 4.684)">
            <path id="Trazado_106473" data-name="Trazado 106473" d="M720.766,370.12h-6.782a.733.733,0,0,1-.746-.842l.818-6.733A.977.977,0,0,1,715,361.7h6.733a.737.737,0,0,1,.746.842l-.77,6.733A.972.972,0,0,1,720.766,370.12Z" transform="translate(-713.232 -361.703)" fill="#007fe2"/>
            <path id="Trazado_106474" data-name="Trazado 106474" d="M748.909,370.12h-6.781a.733.733,0,0,1-.746-.842l.818-6.733a.978.978,0,0,1,.944-.842h6.733a.736.736,0,0,1,.746.842l-.77,6.733A.972.972,0,0,1,748.909,370.12Z" transform="translate(-727.671 -361.703)" fill="#007fe2"/>
            <path id="Trazado_106475" data-name="Trazado 106475" d="M777.224,370.12h-6.782a.733.733,0,0,1-.745-.842l.818-6.733a.978.978,0,0,1,.944-.842h6.733a.736.736,0,0,1,.746.842l-.769,6.733A.973.973,0,0,1,777.224,370.12Z" transform="translate(-742.198 -361.703)" fill="#007fe2"/>
            <path id="Trazado_106476" data-name="Trazado 106476" d="M805.368,370.12h-6.782a.732.732,0,0,1-.745-.842l.817-6.733a.978.978,0,0,1,.944-.842h6.733a.736.736,0,0,1,.745.842l-.769,6.733A.972.972,0,0,1,805.368,370.12Z" transform="translate(-756.637 -361.703)" fill="#007fe2"/>
            <path id="Trazado_106477" data-name="Trazado 106477" d="M832.831,370.12h-6.782a.733.733,0,0,1-.746-.842l.818-6.733a.978.978,0,0,1,.944-.842H833.8a.736.736,0,0,1,.746.842l-.769,6.733A.973.973,0,0,1,832.831,370.12Z" transform="translate(-770.726 -361.703)" fill="#007fe2"/>
            <path id="Trazado_106478" data-name="Trazado 106478" d="M859.974,370.12h-6.782a.733.733,0,0,1-.745-.842l.818-6.733a.977.977,0,0,1,.944-.842h6.733a.736.736,0,0,1,.746.842l-.769,6.733A.973.973,0,0,1,859.974,370.12Z" transform="translate(-784.652 -361.703)" fill="#007fe2"/>
            <path id="Trazado_106479" data-name="Trazado 106479" d="M888.289,370.12h-6.781a.732.732,0,0,1-.746-.842l.817-6.733a.978.978,0,0,1,.944-.842h6.734a.736.736,0,0,1,.745.842l-.769,6.733A.972.972,0,0,1,888.289,370.12Z" transform="translate(-799.178 -361.703)" fill="#007fe2"/>
          </g>
        </g>
      </g>
      <g id="Grupo_59596" data-name="Grupo 59596" transform="translate(25.444 40.867)">
        <g id="Grupo_59595" data-name="Grupo 59595" transform="translate(0 31.826)">
          <path id="Trazado_106480" data-name="Trazado 106480" d="M639.849,538.713c-.169.225-1.286-.3-1.445-.526-.211-.667.181-.788-.109-1.385a5.939,5.939,0,0,0,1.235,1.282C639.8,538.266,640.14,538.388,639.849,538.713Z" transform="translate(-631.294 -499.047)" fill="#ffbe8c"/>
          <path id="Trazado_106481" data-name="Trazado 106481" d="M635.514,537.781c.258.786.636,2.606.661,2.734a10.133,10.133,0,0,1,.275,1.589,1.57,1.57,0,0,1-.519.782.474.474,0,0,1-.523-.089c-.309.26-.8-.629-.864-.549-.252.328-.778.084-1.039-1.348-.016-.086-1.354-3.477-1.692-4.6a14.829,14.829,0,0,1,2.947-.448A14.871,14.871,0,0,1,635.514,537.781Z" transform="translate(-627.968 -498.561)" fill="#fff"/>
          <path id="Trazado_106482" data-name="Trazado 106482" d="M630.545,494.238a2.107,2.107,0,0,1,.077.666c-.224,3.516,1.093,15.59,1.442,19.292a11.649,11.649,0,0,0-2.972-.06c-.452-6.1-4.274-20.615-1.987-21.475A2.376,2.376,0,0,1,630.545,494.238Z" transform="translate(-625.182 -476.277)" fill="#fff"/>
          <path id="Trazado_106483" data-name="Trazado 106483" d="M646.043,465.829c-2.644,2.027-15.873,13.656-16.165,13.914-.228,1.5,1.3,14.567,1.5,16.713l-4.281.729c-1.083-5.135-4.438-17.221-2.67-20.941,1.79-3.909,9.834-17.2,13.561-16.969C641.693,459.5,646.253,465.667,646.043,465.829Z" transform="translate(-623.918 -459.27)" fill="#e2410f"/>
        </g>
        <path id="Trazado_106484" data-name="Trazado 106484" d="M644.244,683.014l2.29-1.048s.414.743.764,1.227c.672.936,4.17,1.85,4.072,3.094-.048.629-1.415,1.089-2.5,1.047a5.151,5.151,0,0,1-2.572-.562c-.686-.48-2.024-.963-2.225-1.368a1.8,1.8,0,0,1,.029-1.461C644.047,683.24,644.244,683.014,644.244,683.014Z" transform="translate(-634.185 -541.695)" fill="#ff550d"/>
        <path id="Trazado_106485" data-name="Trazado 106485" d="M647.153,681.772a1.556,1.556,0,0,0,.295,1.322s.15.606-.716,1a7.567,7.567,0,0,1-2.476-.248c-.06-.7-.025-1.755-.025-1.755Z" transform="translate(-634.333 -541.596)" fill="#fff"/>
        <path id="Trazado_106486" data-name="Trazado 106486" d="M644.329,538.168c5.314-.879,19.058,2.056,20.873,1.426.092,1.532-7.272,19.729-10.314,38.5a189.775,189.775,0,0,1-7.847,30.479c-.038.114-2.264,1.107-3.245-.161,0,0,3.811-15.929,1.984-31.1C644.445,566.242,643.568,560.433,644.329,538.168Z" transform="translate(-634.116 -467.837)" fill="#002382"/>
        <path id="Trazado_106487" data-name="Trazado 106487" d="M680.419,683.594l2.2-1.224s.472.708.858,1.164c.743.88,4.3,1.517,4.3,2.765,0,.63-1.326,1.2-2.408,1.239a7.4,7.4,0,0,1-2.606-.358,6.617,6.617,0,0,1-2.327-1.191,1.8,1.8,0,0,1-.085-1.457C680.24,683.835,680.419,683.594,680.419,683.594Z" transform="translate(-652.811 -541.903)" fill="#ff550d"/>
        <path id="Trazado_106488" data-name="Trazado 106488" d="M683.306,682.224a1.079,1.079,0,0,0,.223,1.235s0,.466-.83.925a7.085,7.085,0,0,1-2.294.073,9.562,9.562,0,0,1-.054-1.7Z" transform="translate(-652.862 -541.828)" fill="#fff"/>
        <path id="Trazado_106489" data-name="Trazado 106489" d="M675.431,534.611c-1.221.484-5.034.972-9.154,1.184l-.01-.162S650.8,533.15,653,539.732a43.687,43.687,0,0,0,4.594,10.225c1.145.815,5.465,12.9,7.529,25.96,2.39,15.127.509,31.159.509,31.159,1.192,1.187,3.563.023,3.595-.094a175.348,175.348,0,0,0,6.033-31.16A270.466,270.466,0,0,0,675.431,534.611Z" transform="translate(-638.726 -466.097)" fill="#002caa"/>
        <path id="Trazado_106490" data-name="Trazado 106490" d="M641.629,523.411A159.714,159.714,0,0,0,658.168,525a33.6,33.6,0,0,0,9.764-1.14c-.015,5.151,1.207,7.191,3.51,8.581-1.628,5.657-5.062,5.976-7.887,6.9-7.44,2.431-26.051-3.138-26.578-3.178a124.194,124.194,0,0,1,.93-13.3C639.113,523.091,640.359,523.25,641.629,523.411Z" transform="translate(-630.617 -460.072)" fill="#e2410f"/>
        <path id="Trazado_106491" data-name="Trazado 106491" d="M669.123,439.643c.384.284,4.37,2.513,5.51,2.343-.01.316-.786,3.656-.055,5.455-.322,1.671-4.953,1.669-6.223-1.166C668.89,445.469,669.344,441.185,669.123,439.643Z" transform="translate(-646.716 -417.375)" fill="#bfd8f6"/>
        <path id="Trazado_106492" data-name="Trazado 106492" d="M647.786,454.366c1.184-.25,4.7-1.1,4.7-1.1a4.855,4.855,0,0,0,2.832,1.269,6.558,6.558,0,0,0,3.391-.227s4.061,1.113,4.8,1.5c2.86,1.493,2.875,2.568,3.062,6.08.086,1.637.3,28.037,4.75,33.82a9.991,9.991,0,0,1-5.6,3.276l-.9-7.113L664,499.306c-8.609,1.649-15.2-1.392-22.123-2.336l-.663-9.335-1.99,9c-.668-.075-1.273-.132-1.8-.167.092-14.259,4.511-35.682,4.706-36.33C642.954,457.389,644.23,455.119,647.786,454.366Z" transform="translate(-630.846 -424.362)" fill="#ff550d"/>
        <path id="Trazado_106493" data-name="Trazado 106493" d="M731.654,402.618c.231-.161,1.13.683,1.209.951-.008.7-.417.693-.328,1.35a5.925,5.925,0,0,0-.773-1.6C731.564,403.059,731.276,402.835,731.654,402.618Z" transform="translate(-679.096 -398.369)" fill="#bfd8f6"/>
        <path id="Trazado_106494" data-name="Trazado 106494" d="M733.53,398.9c0-.828.21-2.675.225-2.8a10.3,10.3,0,0,1,.235-1.6,1.578,1.578,0,0,1,.738-.58.475.475,0,0,1,.469.248c.375-.151.565.847.649.79.341-.233.765.164.566,1.606-.012.087.2,3.726.173,4.893a14.774,14.774,0,0,1-2.941-.494A14.94,14.94,0,0,1,733.53,398.9Z" transform="translate(-680.153 -393.915)" fill="#bfd8f6"/>
        <path id="Trazado_106495" data-name="Trazado 106495" d="M724.159,426.556a2.091,2.091,0,0,1,.134-.656c1.311-3.271,3.827-15.153,4.652-18.778a11.669,11.669,0,0,0,2.805.984c-1.474,5.935-2.374,20.919-4.816,21.022A2.375,2.375,0,0,1,724.159,426.556Z" transform="translate(-675.343 -400.691)" fill="#bfd8f6"/>
        <path id="Trazado_106496" data-name="Trazado 106496" d="M684.136,432.7c3.144-1.1,19.342-8.019,19.7-8.173.685-1.356,3.316-14.243,3.794-16.345l4.3.644c-.575,5.216-1.159,17.746-4,20.728-2.92,3.156-14.711,13.269-18.18,11.889C686.295,440.073,683.887,432.79,684.136,432.7Z" transform="translate(-654.803 -401.235)" fill="#ff550d"/>
        <path id="Trazado_106497" data-name="Trazado 106497" d="M667.462,428.758c1.184-1.676,2.8-2.913,4.587-2.044.64.31,5.3,4.484,3.927,7.668-.578,1.346-4.158,1.925-5.5.976,0,0-1.834-1.295-1.851-1.308A3.738,3.738,0,0,1,667.462,428.758Z" transform="translate(-645.918 -410.595)" fill="#bfd8f6"/>
        <path id="Trazado_106498" data-name="Trazado 106498" d="M656.9,426.564c-.609-5.453,6.393-9.341,10.026-6.936.8.529,2.167,2.631-4.668,8.839.629,1.795,3.194,4.159,3.194,4.159C661.954,433.418,657.368,430.734,656.9,426.564Z" transform="translate(-640.821 -406.734)" fill="#002ca7"/>
        <path id="Trazado_106499" data-name="Trazado 106499" d="M668.583,440.831a1.872,1.872,0,0,1,.671-.7,26.565,26.565,0,0,1,1.879,1.921,1.965,1.965,0,0,1-1.872.369A1.4,1.4,0,0,1,668.583,440.831Z" transform="translate(-646.793 -417.627)" fill="#bfd8f6"/>
      </g>
    </g>
    <g id="Grupo_59603" data-name="Grupo 59603" transform="translate(311.899 121.985)">
      <g id="Grupo_59599" data-name="Grupo 59599" transform="translate(0 56.757)">
        <g id="Grupo_59598" data-name="Grupo 59598">
          <path id="Trazado_106500" data-name="Trazado 106500" d="M555.9,327.689l33.96-.144A10.914,10.914,0,0,1,600.8,338.434l.041,14.524a10.913,10.913,0,0,1-10.888,10.937L576.466,364l-17.784,13.751h-4.807l5.611-13.725-3.492.01a10.911,10.911,0,0,1-10.936-10.888l-.041-14.525A10.912,10.912,0,0,1,555.9,327.689Z" transform="translate(-540.209 -327.545)" fill="#002381"/>
          <path id="Trazado_106501" data-name="Trazado 106501" d="M546.032,327.689l33.961-.144a10.913,10.913,0,0,1,10.936,10.889l.041,14.524a10.913,10.913,0,0,1-10.889,10.937L566.594,364,548.81,377.752l3.725-13.725-6.413.01a10.912,10.912,0,0,1-10.937-10.888l-.04-14.525A10.913,10.913,0,0,1,546.032,327.689Z" transform="translate(-535.144 -327.545)" fill="#002ca7"/>
        </g>
      </g>
      <g id="Grupo_59602" data-name="Grupo 59602" transform="translate(2.04)">
        <g id="Grupo_59601" data-name="Grupo 59601">
          <path id="Trazado_106502" data-name="Trazado 106502" d="M583.64,216.554c-8.573-6.725-22.915-8.087-34.028.042-11.69,8.552-12.937,25.045-6.125,37.71,5.994,11.143,11.853,16.866,11.853,21.593h22.191c0-4.464,5.5-10.537,11.456-20.935C596.139,242.487,595.035,225.495,583.64,216.554Z" transform="translate(-539.334 -210.993)" fill="#ff9800"/>
          <path id="Trazado_106503" data-name="Trazado 106503" d="M583.645,216.554c-8.574-6.725-22.916-8.087-34.028.042-8.678,6.348-11.6,17.072-9.74,27.359-.635-8.875,2.449-17.661,9.91-23.119,10.8-7.9,24.741-6.577,33.073-.04,8.631,6.772,11.187,18.294,8.606,28.79C595.638,237.959,593.47,224.264,583.645,216.554Z" transform="translate(-539.338 -210.993)" fill="#ff8000"/>
          <g id="Grupo_59600" data-name="Grupo 59600" transform="translate(15.04 64.905)">
            <path id="Rectngulo_7828" data-name="Rectngulo 7828" d="M2.245,0H21.82a2.248,2.248,0,0,1,2.248,2.248V6.441a2.246,2.246,0,0,1-2.246,2.246H2.248A2.248,2.248,0,0,1,0,6.439V2.245A2.245,2.245,0,0,1,2.245,0Z" fill="#e9f5fb"/>
            <path id="Rectngulo_7829" data-name="Rectngulo 7829" d="M1.082,0h21.9a1.083,1.083,0,0,1,1.083,1.083v0a1.082,1.082,0,0,1-1.082,1.082H1.083A1.083,1.083,0,0,1,0,1.082v0A1.082,1.082,0,0,1,1.082,0Z" transform="translate(0 9.528)" fill="#e9f5fb"/>
            <path id="Rectngulo_7830" data-name="Rectngulo 7830" d="M1.083,0h21.9a1.084,1.084,0,0,1,1.084,1.084v0a1.083,1.083,0,0,1-1.083,1.083H1.084A1.084,1.084,0,0,1,0,1.083v0A1.083,1.083,0,0,1,1.083,0Z" transform="translate(0 12.533)" fill="#e9f5fb"/>
            <rect id="Rectngulo_7831" data-name="Rectngulo 7831" width="21.791" height="0.84" transform="translate(1.193 11.693)" fill="#002caa"/>
            <path id="Rectngulo_7832" data-name="Rectngulo 7832" d="M1.082,0h21.9a1.083,1.083,0,0,1,1.083,1.083v0a1.082,1.082,0,0,1-1.082,1.082H1.083A1.083,1.083,0,0,1,0,1.082v0A1.082,1.082,0,0,1,1.082,0Z" transform="translate(0 15.54)" fill="#e9f5fb"/>
            <path id="Trazado_106504" data-name="Trazado 106504" d="M581.848,383.1a6.86,6.86,0,0,0,10.719,0l1.969-2.465H579.877Z" transform="translate(-575.174 -362.932)" fill="#e9f5fb"/>
            <rect id="Rectngulo_7833" data-name="Rectngulo 7833" width="21.791" height="0.84" transform="translate(1.193 14.7)" fill="#002caa"/>
            <rect id="Rectngulo_7834" data-name="Rectngulo 7834" width="21.791" height="0.841" transform="translate(1.193 8.687)" fill="#002caa"/>
          </g>
          <path id="Trazado_106505" data-name="Trazado 106505" d="M602.021,344.279h-7.329a1.083,1.083,0,0,1,1.083,1.083v6.521a1.083,1.083,0,0,1-1.083,1.083h-.11v.841h.11a1.083,1.083,0,1,1,0,2.165h-.11v.841h.11a1.083,1.083,0,0,1,0,2.167h-.11v.84h.11a1.083,1.083,0,1,1,0,2.165h-3.622L589.1,364.45a6.839,6.839,0,0,1-1.694,1.514,6.855,6.855,0,0,0,9.023-1.514l1.969-2.465h3.622a1.083,1.083,0,1,0,0-2.165h-.11v-.84h.11a1.083,1.083,0,1,0,0-2.167h-.11v-.841h.11a1.083,1.083,0,1,0,0-2.165h-.11v-.841h.11a1.084,1.084,0,0,0,1.084-1.083v-6.521A1.083,1.083,0,0,0,602.021,344.279Z" transform="translate(-563.997 -279.374)" fill="#bfd8f6"/>
          <path id="Trazado_106506" data-name="Trazado 106506" d="M559.392,290.542a48.36,48.36,0,0,1-5.644-4.262,9.444,9.444,0,0,1-1.049-1.008,40.448,40.448,0,0,1-4.1-5.421c-.169-.282-.323-.548-.471-.808a31.5,31.5,0,0,0,3.083,8.447c2.313,4.3,4.576,7.721,6.575,10.74,2.281,3.451,4.127,6.244,5.059,8.932h9.819V294.648a21.4,21.4,0,0,1-6.731-1.27A43.13,43.13,0,0,1,559.392,290.542Z" transform="translate(-543.845 -245.905)" fill="#ff8000"/>
        </g>
        <rect id="Rectngulo_7835" data-name="Rectngulo 7835" width="7.44" height="0.841" transform="translate(30.585 73.592)" fill="#002382"/>
        <rect id="Rectngulo_7836" data-name="Rectngulo 7836" width="7.44" height="0.84" transform="translate(30.585 76.598)" fill="#002382"/>
        <rect id="Rectngulo_7837" data-name="Rectngulo 7837" width="7.44" height="0.84" transform="translate(30.585 79.605)" fill="#002382"/>
      </g>
    </g>
  </g>
</svg>
