<svg xmlns="http://www.w3.org/2000/svg" width="89.667" height="37.361" viewBox="0 0 89.667 37.361">
  <g id="reserva" transform="translate(0 -149.333)" opacity="0.6">
    <g id="Grupo_58507" data-name="Grupo 58507" transform="translate(0 149.333)">
      <g id="Grupo_58506" data-name="Grupo 58506">
        <path id="Trazado_104856" data-name="Trazado 104856" d="M89.426,176.206l-6.184-21.328a7.481,7.481,0,0,0-7.22-5.546H13.076a1.867,1.867,0,0,0-1.456.7C11.55,150.12.77,169.856.77,169.856a6.338,6.338,0,0,0,5.564,9.366H17.39l.36,1.62a7.428,7.428,0,0,0,7.293,5.852c.022,0,.04,0,.062,0l57.739-1.866a6.823,6.823,0,0,0,6.582-8.62Zm-83.092-.72a2.6,2.6,0,0,1-2.6-2.6,2.633,2.633,0,0,1,.314-1.244l8.282-15.181,4.228,19.023Zm76.448,5.606-57.764,1.866a3.71,3.71,0,0,1-3.619-2.926L15.4,153.069H76.021a3.752,3.752,0,0,1,3.619,2.811l6.188,21.337a2.941,2.941,0,0,1,.1.786A3.108,3.108,0,0,1,82.782,181.092Z" transform="translate(0 -149.333)" fill="#ff4600"/>
        <path id="Trazado_104857" data-name="Trazado 104857" d="M210.87,225.983l-37.044,1.158a1.868,1.868,0,0,0,.058,3.734h.058l37.044-1.16a1.866,1.866,0,0,0,1.81-1.925A1.808,1.808,0,0,0,210.87,225.983Z" transform="translate(-141.89 -212.553)" fill="#ff4600"/>
        <path id="Trazado_104858" data-name="Trazado 104858" d="M231.327,270.323l-26,.81a1.868,1.868,0,0,0,.058,3.736c.018,0,.04,0,.058,0l26-.81a1.869,1.869,0,0,0,1.81-1.926A1.83,1.83,0,0,0,231.327,270.323Z" transform="translate(-167.874 -249.131)" fill="#ff4600"/>
      </g>
    </g>
  </g>
</svg>
