<svg xmlns="http://www.w3.org/2000/svg" width="61.822" height="61.822" viewBox="0 0 61.822 61.822">
  <g id="recepcion" opacity="0.6">
    <path id="Trazado_104862" data-name="Trazado 104862" d="M59.89,149.4H58.5l-1.566-6.264a1.932,1.932,0,0,0-1.874-1.463H48.3v-2.9h5.8a1.932,1.932,0,0,0,0-3.864v-.966a23.214,23.214,0,0,0-21.251-23.1v-2.979h2.9a1.932,1.932,0,1,0,0-3.864h-9.66a1.932,1.932,0,0,0,0,3.864h2.9v2.979a23.214,23.214,0,0,0-21.251,23.1v.966a1.932,1.932,0,0,0,0,3.864h5.8v2.9H6.762a1.932,1.932,0,0,0-1.874,1.463L3.321,149.4H1.932a1.932,1.932,0,0,0,0,3.864H59.89a1.932,1.932,0,0,0,0-3.864Zm-48.3-15.456a19.319,19.319,0,0,1,38.639,0v.966H11.592Zm5.8,4.83H44.435v2.9H17.388ZM7.3,149.4l.966-3.864H53.552l.966,3.864Z" transform="translate(0 -91.442)" fill="#ff4600"/>
    <path id="Trazado_104863" data-name="Trazado 104863" d="M1.932,243.864H5.8A1.932,1.932,0,0,0,5.8,240H1.932a1.932,1.932,0,0,0,0,3.864Z" transform="translate(0 -211.021)" fill="#ff4600"/>
    <path id="Trazado_104864" data-name="Trazado 104864" d="M449.932,243.864H453.8a1.932,1.932,0,0,0,0-3.864h-3.864a1.932,1.932,0,0,0,0,3.864Z" transform="translate(-393.906 -211.021)" fill="#ff4600"/>
    <path id="Trazado_104865" data-name="Trazado 104865" d="M73.591,76.324a1.932,1.932,0,0,0,2.732-2.732l-2.732-2.732a1.932,1.932,0,0,0-2.732,2.732Z" transform="translate(-61.806 -61.806)" fill="#ff4600"/>
    <path id="Trazado_104866" data-name="Trazado 104866" d="M388.994,76.892a1.926,1.926,0,0,0,1.366-.566l2.732-2.732a1.932,1.932,0,1,0-2.732-2.732l-2.732,2.732A1.934,1.934,0,0,0,388.994,76.892Z" transform="translate(-340.324 -61.808)" fill="#ff4600"/>
    <path id="Trazado_104867" data-name="Trazado 104867" d="M241.932,7.728A1.932,1.932,0,0,0,243.864,5.8V1.932a1.932,1.932,0,0,0-3.864,0V5.8A1.932,1.932,0,0,0,241.932,7.728Z" transform="translate(-211.021)" fill="#ff4600"/>
  </g>
</svg>
