<svg xmlns="http://www.w3.org/2000/svg" width="62" height="62" viewBox="0 0 62 62">
  <g id="presupuesto" transform="translate(-1 -1)" opacity="0.6">
    <path id="Trazado_104882" data-name="Trazado 104882" d="M56.526,30.376l-.172-.316,5.318-5.318A4.516,4.516,0,0,0,57,17.26V4a3,3,0,0,0-3-3H22.829a2.982,2.982,0,0,0-2.122.879l-8.828,8.828A2.978,2.978,0,0,0,11,12.829v2.222A11.01,11.01,0,0,0,1,26V58a5.006,5.006,0,0,0,5,5H18a5.006,5.006,0,0,0,5-5V57H62.181L60,43.9A28.54,28.54,0,0,0,56.526,30.376Zm1.45,12.867L48.227,45.9l-2.351-1.881A4.98,4.98,0,0,1,44,40.116V31a2,2,0,0,1,2,2v7h2V38.414l6.874-6.874A26.514,26.514,0,0,1,57.976,43.243ZM44,29a2,2,0,0,0-2,2v1a1,1,0,0,1-2,0V31a4,4,0,0,1,4-4h2.586l-2.054,2.054A3.9,3.9,0,0,0,44,29ZM33.049,46.072l1.316-3.292,2.855,2.855-3.293,1.317A.693.693,0,0,1,33,46.323.653.653,0,0,1,33.049,46.072ZM39,44.586,35.414,41l6.047-6.047A2.918,2.918,0,0,0,42,34.815v5.3a7.034,7.034,0,0,0,.136,1.334ZM38.184,33H27V29H38.35A5.976,5.976,0,0,0,38,31v1A2.966,2.966,0,0,0,38.184,33ZM27,35H38.586l-4,4H27Zm0,6h5.923l-1.6,4H27Zm0,6h4.1a2.668,2.668,0,0,0,3.574,1.809L37,47.877V51H27Zm12,.077.562-.225,3.33-3.33c.036.065.069.131.108.195V51H39Zm6-1.2,2,1.6V51H45ZM61,21.536a2.52,2.52,0,0,1-.743,1.793L48,35.586V33a3.976,3.976,0,0,0-1.494-3.092L56.671,19.743A2.536,2.536,0,0,1,61,21.536ZM21,4.414V10a1,1,0,0,1-1,1H14.414ZM12,17a9,9,0,1,1-9,9,9.011,9.011,0,0,1,9-9ZM7,35.786a10.9,10.9,0,0,0,10,0V41H7ZM18,61H6a3,3,0,0,1-3-3V32.305a11.1,11.1,0,0,0,2,2.174V41a2,2,0,0,0,2,2H17a2,2,0,0,0,2-2V34.479a11.1,11.1,0,0,0,2-2.174V58A3,3,0,0,1,18,61Zm5-6V26A11.01,11.01,0,0,0,13,15.051V13h7a3,3,0,0,0,3-3V3H54a1,1,0,0,1,1,1V18.586L48.586,25H44a5.983,5.983,0,0,0-4.46,2H25V53H47v2Zm26,0V47.764l9.195-2.508L59.819,55Z" fill="#ff4600"/>
    <path id="Trazado_104883" data-name="Trazado 104883" d="M11,30.855V33h2V30.855a2.844,2.844,0,0,0,.422-5.262l-1.95-.974A.855.855,0,0,1,11.854,23h.292a.855.855,0,0,1,.854.854V25h2V23.854a2.849,2.849,0,0,0-2-2.709V19H11v2.145a2.844,2.844,0,0,0-.422,5.262l1.95.974A.855.855,0,0,1,12.146,29h-.292A.855.855,0,0,1,11,28.146V27H9v1.146A2.849,2.849,0,0,0,11,30.855Z" fill="#ff4600"/>
    <path id="Trazado_104884" data-name="Trazado 104884" d="M17,45H7a2,2,0,0,0-2,2V57a2,2,0,0,0,2,2H17a2,2,0,0,0,2-2V47A2,2,0,0,0,17,45Zm0,4H15V47h2Zm-4,8H11V55h2Zm0-4H11V51h2ZM9,53H7V51H9Zm2-4V47h2v2ZM9,47v2H7V47ZM7,55H9v2H7Zm8,2V51h2v6Z" fill="#ff4600"/>
    <path id="Trazado_104885" data-name="Trazado 104885" d="M53,5H25v6H53ZM51,9H27V7H51Z" fill="#ff4600"/>
    <path id="Trazado_104886" data-name="Trazado 104886" d="M25,13H53v2H25Z" fill="#ff4600"/>
    <path id="Trazado_104887" data-name="Trazado 104887" d="M25,17H53v2H25Z" fill="#ff4600"/>
    <path id="Trazado_104888" data-name="Trazado 104888" d="M25,21H41v2H25Z" fill="#ff4600"/>
  </g>
</svg>
