<svg xmlns="http://www.w3.org/2000/svg" width="62.727" height="57.5" viewBox="0 0 62.727 57.5">
  <g id="multimedia-de-interfaces-en-alta-definicion" transform="translate(0 -1)" opacity="0.6">
    <g id="Grupo_58522" data-name="Grupo 58522" transform="translate(31.364 19.296)">
      <path id="Trazado_104901" data-name="Trazado 104901" d="M31.422,31.523H16.1a4.107,4.107,0,0,1-4.1-4.1V12.1A4.106,4.106,0,0,1,16.1,8H31.419a4.107,4.107,0,0,1,4.1,4.1V27.422A4.106,4.106,0,0,1,31.422,31.523ZM16.1,11.92l-.18.18V27.422l15.5.18.18-15.5Z" transform="translate(-12 -8)" fill="#ff4600"/>
    </g>
    <g id="Grupo_58523" data-name="Grupo 58523" transform="translate(7.841 46.739)">
      <path id="Trazado_104902" data-name="Trazado 104902" d="M48.085,22.42H4.96a1.96,1.96,0,0,1,0-3.92H48.085a1.96,1.96,0,1,1,0,3.92Z" transform="translate(-3 -18.5)" fill="#ff4600"/>
    </g>
    <g id="Grupo_58524" data-name="Grupo 58524" transform="translate(7.841 20.602)">
      <path id="Trazado_104903" data-name="Trazado 104903" d="M19.335,12.42H4.96a1.96,1.96,0,0,1,0-3.92H19.335a1.96,1.96,0,0,1,0,3.92Z" transform="translate(-3 -8.5)" fill="#ff4600"/>
    </g>
    <g id="Grupo_58525" data-name="Grupo 58525" transform="translate(7.841 28.443)">
      <path id="Trazado_104904" data-name="Trazado 104904" d="M19.335,15.42H4.96a1.96,1.96,0,1,1,0-3.92H19.335a1.96,1.96,0,0,1,0,3.92Z" transform="translate(-3 -11.5)" fill="#ff4600"/>
    </g>
    <g id="Grupo_58526" data-name="Grupo 58526" transform="translate(7.841 36.284)">
      <path id="Trazado_104905" data-name="Trazado 104905" d="M19.335,18.42H4.96a1.96,1.96,0,1,1,0-3.92H19.335a1.96,1.96,0,1,1,0,3.92Z" transform="translate(-3 -14.5)" fill="#ff4600"/>
    </g>
    <g id="Grupo_58527" data-name="Grupo 58527" transform="translate(37.898 25.176)">
      <path id="Trazado_104906" data-name="Trazado 104906" d="M16.46,22.012a1.96,1.96,0,0,1-1.96-1.96V12.21a1.96,1.96,0,0,1,2.969-1.681L24,14.45a1.96,1.96,0,0,1,0,3.361l-6.534,3.92A1.958,1.958,0,0,1,16.46,22.012Zm1.96-6.338v.917l.763-.457Z" transform="translate(-14.5 -10.25)" fill="#ff4600"/>
    </g>
    <g id="Grupo_58528" data-name="Grupo 58528" transform="translate(0 1)">
      <path id="Trazado_104907" data-name="Trazado 104907" d="M55.54,58.5H7.188A7.193,7.193,0,0,1,0,51.313V8.188A7.193,7.193,0,0,1,7.188,1H55.54a7.193,7.193,0,0,1,7.188,7.188V51.313A7.193,7.193,0,0,1,55.54,58.5ZM7.188,4.92A3.272,3.272,0,0,0,3.92,8.188V51.313A3.272,3.272,0,0,0,7.188,54.58H55.54a3.272,3.272,0,0,0,3.267-3.267V8.188A3.272,3.272,0,0,0,55.54,4.92Z" transform="translate(0 -1)" fill="#ff4600"/>
    </g>
    <g id="Grupo_58529" data-name="Grupo 58529" transform="translate(0 10.148)">
      <path id="Trazado_104908" data-name="Trazado 104908" d="M60.767,8.42H1.96a1.96,1.96,0,0,1,0-3.92H60.767a1.96,1.96,0,0,1,0,3.92Z" transform="translate(0 -4.5)" fill="#ff4600"/>
    </g>
  </g>
</svg>
